/* XPM */
static char *dummy[]={
"64 64 687 2",
"ax c #000000",
"dG c #002100",
"cI c #002a16",
"c9 c #003c0f",
"d4 c #0c3124",
"iO c #0d1628",
"cy c #161519",
".s c #1c1500",
"dl c #1c372e",
"aN c #213723",
"ce c #222126",
"hz c #23002a",
"fc c #263c36",
".l c #272117",
".r c #2b0002",
"#K c #2b2000",
"bb c #2b2a30",
"fA c #2e413d",
"fo c #2e4e3b",
"c8 c #2f2925",
"fr c #300028",
"e0 c #314135",
"fG c #322915",
"b2 c #323138",
"aM c #33001a",
".f c #35312f",
".C c #360000",
"hA c #361631",
"ew c #383023",
"dp c #38373f",
"f# c #391527",
"eA c #3b3737",
"cR c #3b4534",
".N c #3c1518",
"do c #3c2139",
"f. c #3d5852",
"aL c #3e1400",
"f6 c #3e2130",
"h9 c #3e362e",
"fn c #3e3c45",
"ek c #3e4a43",
"iS c #3f0004",
"dn c #404a3c",
".M c #412126",
"cz c #413c3e",
".3 c #432016",
"cf c #432a38",
".m c #433c36",
"f5 c #44023a",
"hw c #452000",
"h6 c #453c2c",
"cQ c #454144",
"cm c #460000",
".K c #46292f",
"dF c #47524e",
".D c #480028",
"fm c #481641",
".L c #482924",
"hT c #48313f",
"bR c #48413d",
"ci c #4a0019",
".O c #4a2913",
".g c #4a3037",
"#9 c #4a4135",
"c# c #4a4649",
"b5 c #4c0000",
"a5 c #4c302e",
"gf c #4c4543",
"d7 c #4c5552",
"hU c #4d2147",
"b3 c #4e1526",
"aT c #4e3023",
"#6 c #4e373e",
"cd c #4e453c",
"cS c #4e4a4e",
"ba c #501417",
".k c #503736",
"#h c #504534",
"cn c #521400",
"aC c #52362d",
".Q c #542025",
"iA c #543621",
"#7 c #543c3d",
"ga c #54493b",
"fh c #562014",
"#u c #562938",
"ay c #563c35",
"ip c #573c2c",
"hC c #575153",
"ff c #575f5f",
"fU c #580031",
"fJ c #58292f",
"gw c #584143",
"bQ c #59413c",
"hq c #59514d",
"f7 c #5a0027",
"dD c #5a2923",
".e c #5a313e",
"fR c #5b0018",
"hK c #5b2812",
"cL c #5b4134",
".A c #5b4549",
"eQ c #5b5557",
"aO c #5c1539",
"eZ c #5c625f",
"bF c #5d0000",
".R c #5d1430",
".t c #5d302e",
"iG c #5d3745",
"c5 c #5d4543",
"fq c #5d5860",
"hr c #5e3022",
"cM c #5e453c",
"cC c #5e4a4e",
"d5 c #5e585b",
"#a c #5f1425",
".P c #601315",
"fS c #602038",
"dj c #603636",
".z c #604a48",
"cx c #606462",
".2 c #61362c",
"d8 c #615c5f",
"fp c #61676a",
"aQ c #620147",
"es c #621300",
"#. c #62202f",
".h c #623c44",
"#T c #632024",
"iJ c #633620",
"eJ c #633c3d",
"at c #634e4d",
"h2 c #63584c",
"g3 c #636766",
"#I c #644d48",
"aB c #645846",
"dm c #645b56",
"#S c #651f13",
".S c #652937",
"#J c #653b35",
"g# c #654149",
"b4 c #660000",
"#t c #66292e",
".4 c #663b2b",
"iP c #664143",
"h0 c #664d41",
"#8 c #665152",
"gm c #665b51",
"cT c #666a6a",
"## c #670031",
"aP c #671547",
"cs c #67514d",
"hM c #675b4b",
"bc c #681540",
"bU c #682923",
"dS c #68413c",
".d c #68454e",
"hy c #690017",
"ag c #691438",
"b1 c #692810",
"#U c #693036",
"#l c #694549",
"#v c #6a214c",
"hv c #6a4542",
".j c #6a4a53",
"it c #6a5140",
"if c #6b0000",
"bC c #6b1430",
"hB c #6b302d",
"dV c #6b766f",
"aR c #6c203f",
"gY c #6c363d",
"f4 c #6c453b",
".i c #6c4a4e",
"hN c #6c554c",
"ec c #6d1314",
"bd c #6d2038",
"ef c #6d3635",
".B c #6d4533",
".c c #6d4948",
"ct c #6d4e58",
"eP c #6d6f6c",
"fd c #6d7277",
"iD c #6e4942",
"c7 c #6e5b5f",
"fv c #6e7273",
"eb c #6f362c",
"ic c #6f3c43",
".b c #6f4d53",
"gx c #6f584c",
"iN c #701f23",
"gg c #70493a",
".a c #704d4d",
"bL c #705b5a",
"iR c #710017",
"cD c #711f12",
".5 c #713b34",
"Qt c #715157",
"br c #715b56",
".# c #725152",
"hg c #72675d",
"d6 c #727473",
"ch c #73282d",
"fH c #733044",
"az c #735e5a",
"hL c #742822",
"fT c #74303e",
"fe c #747f7e",
"bB c #750015",
"hR c #75280f",
"bE c #753036",
"bD c #75364a",
"i# c #755147",
"hZ c #756c6d",
"df c #760000",
"eW c #762f2c",
"#C c #764542",
"#k c #76615e",
"ah c #772046",
"hs c #77554c",
"a0 c #77585b",
"e1 c #777879",
".9 c #781324",
".1 c #785446",
"cr c #786155",
"as c #786462",
"bV c #791213",
"dC c #793635",
"bS c #794948",
"eK c #794d57",
"gn c #79645e",
"e7 c #797b7c",
"h3 c #7a1f2e",
".6 c #7a352b",
"i. c #7a3b43",
"#Z c #7a6c58",
"e4 c #7a7b78",
"iK c #7b1f22",
".E c #7b293e",
"bv c #7b584b",
"gB c #7b5b5a",
"af c #7c1f10",
"#b c #7c2836",
"ev c #7c3b34",
"al c #7c4d47",
"d. c #7c7d7e",
"fK c #7d0038",
"cA c #7d7d7b",
"bh c #7e2821",
"cg c #7e3044",
"#D c #7e403b",
"ij c #7e514c",
"a7 c #7e5b4b",
"#H c #7e5e5a",
"iu c #7f5b44",
"el c #7f7f7e",
"dy c #800014",
"gN c #804548",
".Z c #805e50",
"c. c #80615e",
"ik c #80695c",
"aw c #808783",
".q c #816c65",
"cW c #816f70",
"gV c #821223",
"#m c #822f1f",
"bg c #82363c",
"eG c #82453a",
"gl c #826c60",
"h8 c #828985",
"dx c #831111",
"fw c #834947",
"il c #83614f",
".y c #836f68",
"#f c #837667",
"iq c #843b43",
"gk c #844941",
"#5 c #84645d",
".W c #846f64",
"hm c #847663",
"e9 c #848380",
"cB c #848b88",
"hk c #851e22",
".7 c #85351e",
"fb c #853b3b",
"cq c #856459",
"bm c #856765",
"cj c #861e0e",
"bT c #864d47",
".u c #865b55",
"ib c #867867",
"gu c #874d40",
"aA c #877168",
"cH c #882720",
"hl c #885e59",
"#g c #887a6a",
"d9 c #888786",
"hY c #888788",
"ej c #888f8d",
"aK c #89270b",
".0 c #895146",
"#0 c #895e55",
"gK c #8a2f2b",
"gZ c #8a4952",
"ie c #8a7c6d",
"im c #8b1122",
"hb c #8b2f1e",
"#w c #8b3b4e",
"gA c #8b6c64",
"dH c #8b8988",
"de c #8c1010",
"hO c #8c766b",
"eB c #8c8b8b",
"hc c #8d4940",
".H c #8d7667",
"gX c #8d7e6d",
"b# c #8e1e21",
"gL c #8e6458",
"hd c #8e6f64",
"ia c #8e786a",
".n c #8e8174",
"ex c #8e8d8d",
"iI c #8f1e0c",
"h1 c #8f8170",
"ey c #8f9491",
"iy c #904552",
"gO c #90675c",
"a6 c #907a6e",
".v c #90806d",
"ez c #90948f",
"hV c #909696",
"cG c #91271f",
".8 c #922709",
"ai c #924957",
"#B c #928370",
"ca c #929798",
"#Y c #935450",
"dU c #93908f",
"gR c #939296",
"b0 c #941021",
"dN c #942e1d",
".T c #94494c",
"dJ c #946465",
"bu c #94766a",
"bK c #948573",
"hD c #949294",
"db c #95100e",
"is c #954947",
"#A c #957667",
"au c #959291",
"hu c #96716f",
"gy c #968776",
"c0 c #971e20",
"iz c #973b3b",
"be c #97404d",
"#z c #975156",
"g0 c #976761",
"aZ c #978174",
"ap c #978673",
"dO c #981d0a",
"#V c #984552",
"g4 c #989698",
"dw c #99271e",
"h7 c #999696",
"dK c #9a2606",
".G c #9a6161",
"dq c #9a9e9e",
"#L c #9b2e2a",
"am c #9b3542",
"fs c #9c284f",
"bW c #9c2e1c",
"hP c #9c7e74",
"#E c #9c8473",
"bM c #9c999a",
"#s c #9d0f0c",
"bt c #9d8679",
"e. c #9d9f9e",
"fB c #9e1355",
"#3 c #9e8676",
"c6 c #9ea1a0",
"gb c #9f003e",
"#R c #9f1d1f",
"iv c #9f3a32",
"#e c #9f5156",
"#i c #9f8070",
"#j c #9f8879",
"cu c #9f9ca1",
"dR c #a03f41",
".F c #a0545e",
"b9 c #a07163",
"dM c #a1261d",
"ii c #a1545a",
"g1 c #a18a7c",
"e8 c #a19ea0",
"hJ c #a1a2a0",
"aS c #a24956",
"he c #a2927d",
"bs c #a29281",
"cU c #a2aaa7",
"e3 c #a2aea7",
"cK c #a3544a",
".V c #a3575e",
"aX c #a38c7b",
"ar c #a38c7e",
"hE c #a3a6a8",
".Y c #a49380",
"cc c #a4a5a4",
"g5 c #a4a7aa",
"ih c #a5483f",
"bf c #a55b5d",
"hn c #a5a7a8",
"cZ c #a61c1e",
"dX c #a6878d",
"bl c #a69580",
"hH c #a6ada9",
"h4 c #a71c06",
"fV c #a71f59",
"#c c #a7545e",
"gQ c #a79081",
"eV c #a7a59b",
"bX c #a8261c",
"bw c #a8262a",
"fx c #a8545a",
"gv c #a89783",
"ha c #a9000c",
"id c #a95455",
"hQ c #a9736a",
"gP c #a99280",
"bN c #a9aaa9",
"c1 c #aa2e1a",
"iM c #aa3f25",
"fz c #aa575e",
".x c #aa9885",
"ds c #aaa49f",
"eN c #aaabab",
"hS c #ab0e1f",
"ao c #ab4845",
"bJ c #ab6c5f",
"#G c #ab9380",
".p c #ab9a88",
"gS c #abadaf",
"cV c #abb1af",
"ak c #ac5b5d",
".I c #ac9a85",
"g6 c #acb2b2",
"cF c #ad1c1d",
"di c #ad4c45",
"#2 c #ad4c4b",
"#x c #ad5a59",
"fy c #ad5e65",
"aW c #ad6357",
".w c #ad9c87",
"dg c #ae1c04",
"fL c #ae1f59",
"iB c #ae2629",
"#n c #ae3f40",
"fl c #ae5462",
"da c #aeb4b2",
"dL c #af261b",
"aD c #af3916",
".X c #af9d8a",
"fu c #afb0b1",
"aj c #b0575d",
"bk c #b05d53",
"ea c #b09e9e",
"hW c #b0b0af",
"ei c #b0b5b2",
"aU c #b14437",
".U c #b15b65",
".J c #b19a8a",
"gz c #b19f89",
"e2 c #b1b1b1",
"dv c #b20c06",
"ir c #b25b61",
"ht c #b28e81",
"d# c #b2b6b4",
"fI c #b3505e",
"#W c #b35a5d",
"#X c #b35e65",
"er c #b3a8ac",
"h. c #b41b02",
"gt c #b41c1c",
"eF c #b4ada9",
"dW c #b4b4b4",
"dI c #b4b9b9",
"aY c #b5a391",
"hX c #b5b4b2",
"eO c #b5b5b6",
"dP c #b6251a",
"iH c #b62d31",
"d2 c #b6444b",
"hF c #b6b6b9",
"f8 c #b71366",
"a. c #b72d27",
"#y c #b76368",
"g2 c #b79f8c",
".o c #b7a590",
"eg c #b7b6b6",
"dr c #b7bbbb",
"et c #b80c1d",
"a8 c #b82d18",
"h5 c #b90b04",
"hf c #b9a690",
"e# c #b9bdbc",
"eX c #ba1b1b",
"#d c #ba5d65",
"fk c #bab9bb",
"#1 c #bb3f3f",
"hj c #bb3f46",
"aq c #bba890",
"#4 c #bba892",
"bn c #bbbebc",
"bA c #bc2519",
"hp c #bcbabb",
"bP c #bcbfbe",
"fW c #bd1266",
"b6 c #bd2d26",
"#F c #bda593",
"a3 c #bdbbbc",
"ed c #be2c17",
"iQ c #bf3325",
"gM c #bfac96",
"eh c #bfc2c1",
"a2 c #bfc7c4",
"e5 c #c01a1a",
"bG c #c03938",
"cp c #c05054",
"gT c #c0c3c4",
"iF c #c13e3f",
"io c #c14350",
"dB c #c15a4d",
"gW c #c1ae99",
"eU c #c1c8c5",
"#r c #c22418",
"ck c #c23912",
"#o c #c24f49",
"cN c #c3c2c4",
"a4 c #c3c5c4",
"aJ c #c40a1b",
"gh c #c41b3a",
"cX c #c42c16",
"cv c #c4c7c7",
"h# c #c50900",
"fg c #c51a27",
"hI c #c5c3c4",
"bZ c #c61a19",
"dz c #c63313",
"em c #c6c8c7",
"av c #c7c9c8",
"ae c #c82417",
"ee c #c84344",
"eR c #c8c5c7",
"dY c #c92c14",
"c4 c #c9484f",
"gF c #cacbcb",
"eq c #cad0ce",
"fF c #cb1a18",
"eI c #cb3323",
"ix c #cb4b4f",
"a1 c #cbcccb",
"bi c #cc4f4e",
"#M c #cc4f53",
"ho c #cccdce",
"hG c #ccd1ce",
"cl c #cd2415",
"hx c #ce2c2f",
"hh c #ce4344",
"#p c #ce4754",
"du c #cf0819",
"d0 c #cf2c13",
"eu c #cf422b",
"iL c #d03222",
"gU c #d0d0ce",
"g7 c #d0d1d3",
"ig c #d11917",
"fC c #d11f7d",
"an c #d14b49",
"e6 c #d1d1cf",
"fX c #d21070",
"dc c #d22424",
"bx c #d23821",
"eS c #d2d2d1",
"fM c #d31e73",
"cY c #d32314",
"aV c #d35353",
"fa c #d3d3d2",
"dd c #d42b12",
"bY c #d42b23",
"bj c #d45657",
"eE c #d4d4d4",
"eT c #d4d4d5",
"ft c #d52446",
"by c #d53222",
"#q c #d5322d",
"bI c #d54b4e",
"hi c #d54b53",
"dQ c #d64b48",
"gC c #d6dada",
"dZ c #d72324",
"eH c #d73820",
"a# c #d74f4d",
"gc c #d81e76",
"cE c #d82313",
"d1 c #d92b22",
"dt c #d93d1e",
"#Q c #da1930",
"gi c #da2773",
"f9 c #da2f79",
"b. c #da3221",
"bH c #da595b",
"fP c #db1c60",
"fO c #db1f80",
"gd c #db2668",
"fE c #db2c4b",
"cJ c #db4f57",
"aI c #dc2323",
"ge c #dc232e",
"gI c #dc2c3e",
"bz c #dc381f",
"gj c #dd1a4c",
"f0 c #dd1d73",
"fN c #dd1e76",
"gH c #dd255b",
"fZ c #dd277c",
"gJ c #dd2b2d",
"fQ c #dd2b36",
"aa c #dd5252",
"co c #dd5357",
"bq c #ddd7d8",
"f1 c #de193f",
"gq c #de1c6c",
"fY c #de2779",
"a9 c #de2b21",
"gp c #de2d63",
"#N c #de5656",
"gG c #df1938",
"g. c #df1f86",
"gr c #df244b",
"aH c #df3220",
"dh c #df4b4d",
"eC c #dfe2e1",
"gs c #e01824",
"fD c #e01e83",
"ad c #e0382b",
"b7 c #e04b41",
"ab c #e04b47",
"f3 c #e12222",
"f2 c #e1232e",
"d3 c #e1e0e1",
"aE c #e22b2d",
"#O c #e25252",
"b8 c #e25257",
"c3 c #e3474e",
"en c #e3e5e3",
"aG c #e4312b",
"dA c #e4463a",
"#P c #e44641",
"eY c #e4e5e4",
"iE c #e5372a",
"aF c #e53834",
"ep c #e5e6e6",
"in c #e63d3b",
"iC c #e73d29",
"c2 c #e8312b",
"cP c #e8e8e7",
"ac c #e93733",
"eo c #eaeae9",
"iw c #ec3134",
"dE c #eeeeed",
"go c #eef2f0",
"bo c #efefee",
"g8 c #eff3f1",
"gD c #f1f1f0",
"fj c #f1f4f2",
"cb c #f2f5f4",
"eD c #f3f6f5",
"dk c #f5f4f5",
"cO c #f5f8f7",
"eM c #f6f5f5",
"dT c #f7f6f6",
"g9 c #f8faf8",
"cw c #f9fbf9",
"fi c #faf9f9",
"bO c #fbfdfd",
"gE c #fcfbfa",
"eL c #fffeff",
"bp c #ffffff",
"QtQtQtQtQtQtQtQtQtQtQtQtQt.#.aQtQtQtQtQtQtQtQtQtQtQtQtQtQtQtQtQtQtQtQtQtQtQtQtQtQtQtQtQtQtQtQtQtQtQt.b.cQtQtQtQtQtQtQtQtQtQtQtQt",
".b.b.b.b.b.b.b.b.b.b.b.b.b.a.c.b.b.b.b.b.b.b.b.b.b.b.b.b.b.b.b.b.b.b.b.b.b.b.b.b.b.b.b.b.b.b.b.b.b.b.a.c.b.b.b.b.b.b.b.b.b.b.b.b",
".b.b.b.b.b.b.b.b.b.b.b.b.b.b.b.b.c.a.b.b.b.b.b.b.d.e.f.g.h.i.b.b.b.b.b.b.b.b.b.b.b.b.b.b.b.b.b.b.b.b.b.b.b.b.b.b.c.b.b.b.b.b.b.b",
"QtQtQtQtQtQtQtQtQtQtQtQtQtQtQtQt.i.bQtQtQtQtQt.j.k.l.m.n.o.p.qQtQtQtQtQtQtQtQtQtQtQtQtQtQtQtQtQtQtQtQtQtQtQtQtQt.cQtQtQtQtQtQtQt",
"QtQtQtQtQtQtQtQtQtQtQtQtQtQtQtQt.i.bQtQtQtQt.b.g.r.s.t.u.v.w.x.yQtQtQtQtQtQtQtQtQtQtQtQtQtQtQtQtQtQtQtQtQtQtQtQt.cQtQtQtQtQtQtQt",
"QtQtQtQtQtQtQtQtQtQtQtQtQtQtQtQt.i.d.d.z.A.z.B.C.C.D.E.F.G.H.I.J.yQtQtQtQtQtQtQtQtQtQtQtQtQtQtQtQtQtQtQtQtQtQtQt.cQtQtQtQtQtQtQt",
"QtQtQtQtQtQtQtQtQtQtQtQtQtQtQt.d.k.f.K.L.M.N.O.P.Q.R.S.T.U.V.W.X.Y.Z.0.1.iQtQtQtQtQtQtQtQtQtQtQtQtQtQtQtQtQtQtQt.cQtQtQtQtQtQtQt",
"QtQtQtQtQtQtQtQtQtQtQtQtQt.b.c.2.s.3.4.5.6.7.8.9#.###a#b#c#d#e#f.x#g.N#h#i#j#kQtQtQtQtQtQtQtQtQtQtQtQtQtQtQtQtQt.cQtQtQtQtQtQtQt",
".a.a.a.a.a.a.a.a.a.a.a.a#l.B.O.C#m#n#o#p#q#r#s#t#u#..R#v#w#x#y#z#A#B#C#D#E#F#G#H.a.a.a.a.a.a.a.a.a.a.a.a.a.a.a.a.c.a.a.a.a.a.a.a",
".#.#.#.#.#.c.#.#.#.#.##I#J#K.3#L#M#N#O#P#Q#R#S#a#.#.#T.R#U#V#W#X#Y#Z#0#1#2#3#4.Y#5.#.#.#.#.#.#.#.#.#.#.#.#.#.#.#Qt.#.#.#.#.#.#.#",
"QtQt.d#6#7#lQtQtQtQt#8#9.s#Sa.a#aaabacadaeaf.C.N.f#u#.#uagahaiajakal#9amanaoapaqarasQtQtQtQtQtQtQtQtQtQtQtQtQtQtQtQtQtQtQtQtQtQt",
"atauavawaxayQtQtazaAaAaBaCaDaEacaFaGaHaIaJaKaLaMaNaO#.#.aPaQaR.TajaSaT.3aUaVaWaXaYaZa0QtQtQtQtQtQtQtQtQtQtQtQtQtQtQtQtQtQtQtQtQt",
"a1a2a3a4axa5QtQta6.XaY#ja7a8a9b.a9b.aHb.aJb#ba.Cbb.fbc#.#.#u.Rbdbebfbg.rbhbibjbkbl.pbmQtQtQtQtQtQtQtQtQtQtQtQtQtQtQtQtQtQtQtQtQt",
"bnbobpbqax.k.bbraZbsbtbubvbwbxbyb.bzaHaIbAb#bB.s.NaN.f###.#.#..RbCbDbEbFbFbGbHbIbJ.YbKbLQtQtQtQtQtQtQtQtQtQtQtQtQtQtQtQtQtQtQtQt",
"bMbNbObPaxbQ#7a5bRbSbTbU.CbVbWbXbAbYaHb.bZb0b1.C.s.Db2.f.L.R#.#.#ubab3b4b5b6b7b8bib9apc..d.b.b.b.b.b.b.b.b.b.b.b.b.b.b.b.b.b.b.b",
"c#cacbccaxcdce.rcfcgchaLaxaxaxaxcicjcka9cl#Rbh.P.r.scmce.f.L.L.L.L.Lbbb5cna8adb7cocpcqcrcsctQtQtQt.a.a.b.b.b.b.b.b.b.b.b.b.b.b.b",
"cucvcwcx.l#u.scyaM.g.laxaxczcAcBcCaxcD#rcEcFcGcHbVaLax.Ccyce.f.f.f.fcIaxbVcla9aG#PcJcKcLcMatQtQtQt.a.bQtQtQtQtQtQtQtQtQtQtQtQtQt",
"cNcOcPax.g.g.scy.l.lcQcRcS.fcTcUcVcW.sbVcXcYcZc0cGaK#S.rax.CaMaMcycyaxcmc1bza9a9c2c3c4bgaTc5ctQtQt.a.bQtQtQtQtQtQtQtQtQtQtQtQtQt",
"bObpc6ax.zc7czaxc8b2ceaxc9c#c8d.d#da#H.CdbdcddaJ#RcGcGdedfaL.s.s.raxb5dga9bzbza9aHacdhdiaTdjatQtQt.a.bQtQtQtQtQtQtQtQtQtQtQtQtQt",
"bpdkdl.fdmdnc8docecyaxaxaxaMdpc#dqdrds.5.Pa8dtaIdudvdwcGc0cGdxcDdyafb0dzbzaHbzbzb.aEdAdBdCdD.zQtQt.a.bQtQtQtQtQtQtQtQtQtQtQtQtQt",
"dEcwdF#7.gdGcyaxaxaxaxaxaxaxcIbbdHdrdIdJcndKbYaHa9cEaedLdMbWdNb0dO#RdPcEaHbzbzbza9bzacdQdR.LdS.c.a.c.c.i.i.i.i.i.i.i.i.i.i.i.i.i",
"dTbpdUcIceaxaxaxaxaxaxaxaxaxax.fdVdWdrdX#SdydYaHaHaHa9dZddcYclbZcXd0d1a9bzbzbzbzbza9aGc3d2aCcM.iQtQtQtQtQtQtQtQtQtQtQtQtQtQtQtQt",
"bpbpd3dlcyd4d5d6d7cyaxaxaxced8d9e.e#e#eaebecedbzbzbzaHaHaHbza9b.a9a9aHaHbzbzbzbzbza9aHaceeef#9.dQtQtQtQtQtQtQtQtQtQtQtQtQtQtQtQt",
"bpbpbpegc6eheiejekaxaxaxdGelemeneoepeqer#Desetb.bzbzbzbzaHaHaHaHaHaHbzbzbzbzbzbzbzbzbzadeuevew.AQtQtQtQtQtQtQtQtQtQtQtQtQtQtQtQt",
"bpbpcwexeleyezekeAdGaxaxcyeBeCbpbpeDeEeFeGbFdLeHbzbzbzbzbzbzbzbzbzbzbzbzbzbzbzbzbzbzbzbzeIbh.NeJeKQtQtQtQtQtQtQtQtQtQtQtQtQtQtQt",
"bpbpeLeMemeNeObMePceaxaxaxeQe.eReSeTeUeVeWbFeXb.bzbzbzbzbzbzbzbzbzbzbzbzbzbzbzbzbzbzaHa9aebV.C.4.#QtQtQtQtQtQtQtQtQtQtQtQtQtQtQt",
"bpbpbpbpeYeZaxeAaxaxaxaxaxaxe0cSe1e2e3e4b3bVdYaHbzbzbzbzbzbzbzbzbzbzbzbzbzbzbzbzbzbzaHaIe5b1.C.2.c.i.i.i.i.i.i.i.i.i.i.i.i.i.i.i",
"bpbpbpbpe6d4.f.s.NaxaxaxaxaxcQ.fe7e8e9f.f#dwbybzbzbzbzbzbzbzbzbzbzbzbzbzbzbzbzbzbzaHaHdZcF#S.Cdj.bQtQtQtQtQtQtQtQtQtQtQtQtQtQtQt",
"bpbpbpfadGewfb.N.Caxaxaxaxcefcb2fdfeffd4.gfga9bzbzbzbzbzbzbzbzbzbzbzbzbzbzbzbzbzbzaHb.clb0fh#KbQctQtQtQtQtQtQtQtQtQtQtQtQtQtQtQt",
"fifjfkcy.3fl#WdC.s.saxaxfmfn.lfofpfqbbfrfsfta9bzbzbzbzbzbzbzbzbzbzbzbzbzbzbzbzbzaHaHdZdLafaL.L#lQtQtQtQtQtQtQtQtQtQtQtQtQtQtQtQt",
"fufvaxcyfwfxfyfz#UaxaxcyfAc8axeA.gcyf#fBfCfDfEa9bzbzbzbzbzbzbzbzbzbzbzbzbzbzbzbzaHb.fFb#ba.CeJ.bQtQtQtQtQtQtQtQtQtQtQtQtQtQtQtQt",
".fax.lfG#UfHbefI#zfJ.saxaxax.scy.DfKfLfMfNfOfPfQa9bzbzbzbzbzbzbzbzbzbzbzbzbzbzaHaHcY#Rec.CaT.c.#.#.#.#.#.#.#.#.#.#.#.#.#.#.#.#.#",
".l#7.h.3.3fRfSfT#UfJfUce.C.C.9fVfWfXfNfYfYfZf0f1f2f3bzbzbzbzbzbzbzbzbzbzbzbzaHaHdddLafaL.Nf4.a.a.a.a.a.a.a.a.a.a.a.a.a.a.a.a.a.c",
".zQt.b#6.saL.3f5f5.ff6.laMf7f8f9fYfYfYfYfYg.f0f1a9f3bzbzbzbzbzbzbzbzbzbzbzaHa9cYbXcHb5.CeJ.bQtQtQtQtQtQtQtQtQtQtQtQtQtQtQtQtQt.c",
"dG.Kg##8ga.3.r.s.scy.rax.CgbgcfYfYfYfYfYfYg.gdgebzbzbzbzbzbzbzbzbzbzbzaHaHd1bZ#RbVb5.N#J.bQtQtQtQtQtQtQtQtQtQtQtQtQtQtQtQtQtQt.c",
"ccdlaxc8gf.cgg#Kax.s.CescjghgifYfYfYfYfYfZfZgjaIbzbzbzbzbzbzbzbzbzaHaHb.clbXc0gkglgmcL.iQtQtQtQtQt.baz.qgnQtQtQtQtQtQtQtQtQtQt.c",
"bpgodWdFax.l.Kewbacjb#cGc1dcgpf0fZfDfDfYgqgrgsa9bzbzbzbzbzbzaHaHb.dZdugtdwb#gugv#4#f.LcM.z.j.b#8gwaTgxgygzgvgAgBQtQtQtQtQtQtQt.c",
"gCgDbpgEgFeZaxaxaMafb0bXd0a9a9gGfEgHgHgIgJa9aHaHbzbzbza9b.d1ddcldPcZdwcGgKgL.XgMgycL.s.lfG.M.K.K.l.saTgNgOgP.xgQ.jQtQtQtQtQtQt.c",
"gRgSgTd3eDgEgUcxax.CgVbXcld1b.a9f3f3f3aEaHaHaHa9b.d1cYcla8dLcZdwdN.8bh.Z.YgW#4gXcR.sbFgKeG.2.N.r.s.N.KgYgZg0g1g2.h.a.a.a.a.a.a.i",
"axg3g4g5g6g7g8g9egax#Kb#cZh.h#fFd0dddddZbycYclaebAdLhadwhbb#cH.7hchdhehf#Fbshga5.raLc0hhhihjhkaL.saMcy.sc8alhlhm#6QtQtQtQtQtQtQt",
".g.saxd8cahngShohpaudHhqbBcjb#c0dMbXcFdLdLcZdMc0hk.6cD.PbahrhsgX.Ygzg2hthuhvhw.raLbVeXaGachxdwhy.saxcyhzhAhB#J.KeAQtQtQtQtQtQtQt",
"Qt.j.m.saxhChDhEhFhGhHhIhJ.kfhhKbUcDcDcDbB.9hLhr.LhM.WhN.l.KbrhOaZhPhQ.VdC.N.rcnhRhSd0bzaHddcFhkbaaxbahThU.Q.N.N.gQtQtQtQtQtQtQt",
"QtQtQt.i.gaxaxcxhVhWhXhChYhZc8.s.s.s.s.sax.r.sax#Kh0#gh1h2.N#tdCeWh3hB.3ax.Chybhh4claIaHbzaIcldwafbVh4h5dxfh.Nh6.AQtQtQtQtQtQtQt",
"QtQtQtQtQtat.gcyaxdlh7h8atc5gw#7.ma5h9h9a5.g.f.saCi.i#iaibayhwb5.C.s.CaLfRbVcGdPd0b.aHbzaHaHb.duh5aJbYb.dNax#uatctQtQtQtQtQtQtQt",
".a.a.a.a.a.a.a#IbQ.ga5.h.a#l.i.b.b.j.i.i.j.b.Ah9icid.TcriegxcnfRfRifcDcjdMeXigd1bzaHbzbzbzbzf3b.d1d1bzacihaMcM.c.a.a.a.a.a.a.a.a",
".a.a.a.a.a.a.a.c.i.a.a.a.a.b.b.b.b.b.b.b.b.bg#.MaCiiajijikilcHimdNcZgtbZd0b.aHaHf3bzbzbzbzbzbzbzaHbzaHinio.tip#l.i.a.a.a.a.a.a.a",
"QtQtQtQtQtQtQt.a.bQtQtQtQtQtQtQtQtQtQtQtQtQt.dc8.liqirisitiuivbAfFcYbya9aHaHaHbzbzbzbzbzbzbzaHaHbza9aHiwixeW.s.c.iQtQtQtQtQtQtQt",
"QtQtQtQtQtQtQt.a.bQtQtQtQtQtQtQtQtQtQtQtQtQtatc8ax.LiyiziA.5iBd1aHaHaHaHaHaHaHaHaHaHaHaHaHaHbzbzaHbza9iCeechaxiD.AQtQtQtQtQtQtQt",
"QtQtQtQtQtQtQt.a.bQtQtQtQtQtQtQtQtQtQtQtQtQtat.faxcy.fbU.3bUgtd1aHdtb.b.d1aIa9bzaHaHaHaHa9dZd0ddd1a9a9iEiF#TaxcMiGQtQtQtQtQtQtQt",
"QtQtQtQtQtQtQt.a.bQtQtQtQtQtQtQtQtQtQtQtQtQtcC.Lax.s.lciaLbVcFcEa9aee5a8gtdPe5aeclcligigbZdM#mcGcFigb.adiH.3axaC#6QtQtQtQtQtQtQt",
"QtQtQtQtQtQtQt.a.bQtQtQtQtQtQtQtQtQtQtQtQtQt.Ab3#KaL.sax.s#SiIfFdciIbBdehbcGcGcGdNc0cHhkaf.Pb5fhbhcFddd1c0.s.l.M.KQtQtQtQtQtQtQt",
".c.i.i.i.i.i.i.c.c.i.i.i.i.i.i.i.i.i.i.i.i.i#7.3iJiKfhhKbU#KfhetbyiIax.Nbafh.P.PfRb5aL.C.saxaxhwcjh4igcXhyes#S.Oc8.i.i.i.i.i.i.i",
".a.b.b.b.b.b.b.#.#.b.b.b.b.b.b.b.b.b.b.b.b.i.kce.M.P.3#J.zaT.sdxiLiM.scycyaxaxaxaxax.s.NaChv#J.3.PcGigbX.CdxiN.N.lQtQtQtQtQtQtQt",
".aQtQtQtQtQtQtQtQtQtQtQtQtQtQtQtQtQtQtQtQt.i.KiO.laM.L.aQtiP.OaLdLiQdD.Kc5.zc5hv.c.i.i.b.#QtiD.N.N.gdbiRaxaMcecycyQtQtQtQtQtQtQt",
".aQtQtQtQtQtQtQtQtQtQtQtQtQtQtQtQtQtQtQtQt.zf6.saxcybR#8Qt.bdj.N#SdbiJewc5QtQtQtQtQtQtQtQtQt.c.3aLfh.M.scyceaxaxcyQtQtQtQtQtQtQt",
".aQtQtQtQtQtQtQtQtQtQtQtQtQtQtQtQtQtQtQtQt.b.A#6.g#7.jQtQtQt#liA.C.DciiS#7QtQtQtQtQtQtQtQtQt.a.2.saL.scy#6.z.Kf#.fQtQtQtQtQtQtQt",
".aQtQtQtQtQtQtQtQtQtQtQtQtQtQtQtQtQtQtQtQtQtct.b.b.bQtQtQtQt.j.gaxaM.N.r#6QtQtQtQtQtQtQtQtQtQtiD.Laxcy.k#8Qt#8.i.jQtQtQtQtQtQtQt",
".a.#.#.#.#.#.#.#.#.#.#.#.#.#.#.#.#.#.#.#.#.#.#.#.#.#.#.#.#.#.ac5a5.Mc8.K.hQtQtQtQtQtQtQtQtQtQt.bg##7.h#8QtQtQtQtQtQtQtQtQtQtQtQt",
".c.c.c.c.c.c.c.c.c.c.c.c.c.c.c.c.c.c.c.c.c.c.c.c.c.c.c.c.c.c.c.c.c.c.c.c.c.i.i.i.i.i.i.i.i.i.i.i.i.i.i.c.i.i.i.i.i.i.i.i.i.i.i.i",
"QtQtQtQtQtQtQtQtQtQtQtQtQt.#.aQtQtQtQtQtQtQtQtQtQtQtQtQtQtQtQtQtQtQtQtQtQtQtQtQtQtQtQtQtQtQtQtQtQtQt.b.cQtQtQtQtQtQtQtQtQtQtQtQt",
"QtQtQtQtQtQtQtQtQtQtQtQtQt.#.aQtQtQtQtQtQtQtQtQtQtQtQtQtQtQtQtQtQtQtQtQtQtQtQtQtQtQtQtQtQtQtQtQtQtQt.b.cQtQtQtQtQtQtQtQtQtQtQtQt",
"QtQtQtQtQtQtQtQtQtQtQtQtQt.#.aQtQtQtQtQtQtQtQtQtQtQtQtQtQtQtQtQtQtQtQtQtQtQtQtQtQtQtQtQtQtQtQtQtQtQt.b.cQtQtQtQtQtQtQtQtQtQtQtQt",
"QtQtQtQtQtQtQtQtQtQtQtQtQt.#.aQtQtQtQtQtQtQtQtQtQtQtQtQtQtQtQtQtQtQtQtQtQtQtQtQtQtQtQtQtQtQtQtQtQtQt.b.cQtQtQtQtQtQtQtQtQtQtQtQt",
"QtQtQtQtQtQtQtQtQtQtQtQtQt.#.aQtQtQtQtQtQtQtQtQtQtQtQtQtQtQtQtQtQtQtQtQtQtQtQtQtQtQtQtQtQtQtQtQtQtQt.b.cQtQtQtQtQtQtQtQtQtQtQtQt"};
