/* XPM */
static char *dummy[]={
"64 64 677 2",
".v c #000000",
"dp c #002100",
"er c #0c3124",
"g7 c #0d1628",
".n c #161519",
"#y c #1c1500",
"ce c #222126",
"iG c #263611",
"eJ c #263c36",
"af c #272117",
"eC c #2b0002",
"fM c #2b2000",
"b2 c #2b2a30",
"dD c #2e413d",
".o c #2f2925",
"a6 c #314135",
"a7 c #322915",
"eU c #323138",
"d9 c #33001a",
".f c #35312f",
"a5 c #354644",
"iH c #360000",
".F c #383023",
"b1 c #38373f",
"fX c #391527",
".X c #3b3012",
"bq c #3b3737",
"fu c #3c1518",
"fW c #3e2130",
".g c #3e362e",
"cK c #3e3c45",
".Z c #403622",
".Y c #412126",
"aL c #413c3e",
"gs c #432016",
"aA c #433c36",
"ed c #434e48",
"eh c #453c2c",
"cs c #454144",
"bC c #46292f",
"a8 c #473c20",
"cJ c #47524e",
"br c #482924",
"bM c #48413d",
".0 c #4a3037",
"bU c #4a4135",
"cL c #4a4649",
"fN c #4c302e",
"es c #4c412b",
"ap c #4c4543",
"cI c #4c5552",
"fI c #4e3023",
"bT c #4e373e",
"#8 c #4e453c",
"co c #4e4a4e",
"c. c #503736",
"eK c #504534",
".G c #52362d",
"dS c #523c44",
".W c #52452a",
"bp c #524a42",
"fg c #525852",
".e c #543c3d",
".5 c #54493b",
"eI c #545c5b",
".V c #554933",
"bn c #563c35",
"fL c #573c2c",
"bz c #574929",
"bo c #574d42",
".I c #584143",
"cP c #59413c",
"aI c #594d3a",
"cM c #59514d",
"cr c #595f5b",
"#f c #5b4134",
".h c #5b4549",
"#x c #5b4d32",
"hx c #5b5147",
"cD c #5c4d28",
"#L c #5c5141",
"do c #5c625f",
".U c #5d4543",
"e7 c #5d4a53",
".K c #5e4a4e",
"hf c #5e5139",
"i# c #5e554d",
"cq c #5e585b",
"hb c #5f5131",
"ck c #5f6155",
"f4 c #604533",
".w c #604a48",
"he c #605547",
"ft c #61362c",
".E c #614942",
"c9 c #614e53",
"bS c #615540",
"cp c #615c5f",
".1 c #623c44",
".T c #63493b",
".L c #634e4d",
"eY c #635439",
"cH c #635c5b",
".H c #644d48",
"b3 c #645430",
"#1 c #645846",
"eB c #645f63",
".J c #654149",
"fY c #65583f",
"#p c #664143",
"#K c #664d41",
"cO c #665152",
"#z c #67514d",
"#2 c #675b4b",
"e4 c #676267",
"ee c #676a66",
"bD c #68454e",
"it c #68582f",
"#e c #685b45",
".d c #694549",
"## c #695147",
".x c #695557",
".m c #695e55",
"ao c #6a4542",
"hB c #6a4a53",
"eL c #6a5140",
"f6 c #6a5552",
"ix c #6a5b3f",
"bB c #6a5e50",
"aq c #6b5b37",
"d. c #6b5e4b",
"gO c #6b615a",
".i c #6c4a4e",
"bE c #6c554c",
".c c #6d4948",
"cN c #6d4e58",
"iz c #6d5130",
"#. c #6d5446",
"#U c #6d5856",
"a2 c #6d5e45",
"fJ c #6d6155",
"#7 c #6e4942",
"ff c #6e5b5f",
"ht c #6e5e3e",
"ig c #6e6150",
".b c #6f4d53",
"fK c #6f584c",
"dk c #6f5e36",
"#d c #6f614a",
".a c #704d4d",
"fO c #706144",
"Qt c #715157",
"gr c #716454",
"eT c #717476",
".# c #725152",
"iI c #725b51",
"hz c #72613d",
"gD c #72644f",
"d6 c #727473",
".M c #735b4b",
"gG c #736449",
"bF c #736759",
"hA c #746443",
"eV c #746754",
".p c #755557",
"cy c #75643c",
"dR c #756c6d",
"ia c #765e50",
"aB c #766a5d",
"ga c #776159",
"bN c #776749",
".4 c #776958",
".N c #785446",
"#A c #785856",
"g# c #785e44",
"cW c #786642",
"aW c #786c61",
"ex c #787875",
"#c c #79663b",
"hN c #796c5c",
"eq c #797b7c",
"iF c #7a614a",
"aM c #7a6948",
"bj c #7a6f64",
"dQ c #7a7b78",
"a4 c #7b6459",
"hy c #7b6f60",
"ag c #7c6761",
"iv c #7c693a",
"e6 c #7c7d7e",
"aV c #7d5e5e",
"hI c #7d675d",
"#T c #7d6c4d",
"#k c #7d6f5c",
"bg c #7e6c47",
"fj c #7e7164",
"aD c #7f6162",
"#q c #80674e",
"f5 c #816c65",
"cf c #816e47",
"ak c #817157",
"hd c #817363",
"#M c #826642",
"az c #826e40",
"iC c #83663b",
"hg c #83694d",
"#a c #83714c",
"hH c #83735b",
".O c #837667",
"#o c #84645d",
"hE c #847146",
"gt c #847356",
"f7 c #847663",
"bs c #857351",
"b9 c #858586",
"a9 c #86734b",
"#E c #867867",
".2 c #877168",
"ij c #877555",
"fw c #887164",
"gV c #887550",
"gU c #88785e",
"an c #887a6a",
"#V c #89736b",
"bh c #897a66",
"hO c #8a7367",
"hn c #8a7855",
"#i c #8a7a62",
"iB c #8b7151",
"cX c #8b7850",
"#F c #8b7c6a",
"aC c #8c766b",
"#j c #8c7c66",
"a3 c #8c7f71",
"dP c #8c8b8b",
".u c #8d7667",
"fZ c #8d7a54",
"gF c #8d7e6d",
"gX c #8d8053",
"h9 c #8d8260",
"eF c #8d9496",
"hs c #8e7351",
"#g c #8e786a",
"gW c #8e7a4f",
"gT c #8e8174",
"#J c #8f7866",
"in c #8f7c59",
"eX c #8f8170",
"ct c #907862",
"cz c #907c54",
"#l c #90806d",
"e5 c #908990",
"eR c #909696",
"ai c #918069",
".6 c #918373",
"fV c #925045",
"#b c #92754a",
"hG c #927e58",
"al c #928370",
"cg c #937e53",
"gb c #938576",
"#6 c #94766a",
"ha c #947e4e",
"is c #94805c",
".t c #948573",
"et c #948656",
"bm c #95774a",
"cY c #958053",
"de c #958058",
"aS c #96804d",
"bO c #96825c",
"#Y c #96846c",
".A c #968776",
"hm c #977c58",
"cZ c #978257",
".Q c #978673",
"e# c #987a43",
"ae c #988252",
"c0 c #988460",
".q c #988879",
"gn c #988a5f",
"bL c #99824d",
".j c #998377",
"ch c #99845b",
"aE c #998872",
"eZ c #9a7e58",
"dd c #9a8456",
"hw c #9a8579",
".y c #9a8a79",
"gH c #9b865f",
"gq c #9b8a75",
"h0 c #9b8c59",
"eQ c #9c8268",
"c4 c #9c844c",
"b4 c #9c865b",
".B c #9c8c7b",
"hC c #9d8052",
"hl c #9d885f",
"gp c #9d8c78",
"fv c #9e8676",
"a1 c #9e885a",
"f. c #9e8e7b",
"dZ c #9f8047",
"gY c #9f8855",
"by c #a08252",
"df c #a08a5e",
"iA c #a08f58",
".s c #a0907e",
"hu c #a0957d",
"c8 c #a0a2a2",
"fs c #a15a49",
"el c #a1824c",
"c1 c #a18a5a",
".D c #a1907b",
"dz c #a19783",
"ar c #a28c5e",
"hV c #a29074",
"bi c #a2927d",
"go c #a29281",
"ii c #a38c59",
"aU c #a38c7e",
"aX c #a39383",
"bA c #a49380",
"ef c #a4a5a4",
"b. c #a58260",
"aN c #a5885e",
"#9 c #a58d5d",
"eW c #a59586",
"iE c #a6885a",
".9 c #a68e7b",
"hk c #a68f61",
"gP c #a69170",
"gd c #a69583",
"b7 c #a6a7a6",
"gZ c #a78f5d",
"bG c #a7957d",
"e9 c #a79785",
"fH c #a85a49",
"ei c #a88a59",
"#w c #a88e71",
"gc c #a89783",
"dg c #a98c62",
"dL c #a98f4e",
"g6 c #a9915c",
"f# c #a99161",
".3 c #a99280",
"d5 c #a9aaa9",
"bx c #aa8e69",
"hZ c #aa9364",
"dE c #aa9679",
"ah c #aa9885",
"gC c #aa9a8a",
"eS c #aaabad",
"hh c #ab9360",
"hc c #ab9a88",
"b6 c #ac8b4f",
"iu c #ac8d5d",
".l c #ac9a85",
"eg c #acadad",
"cA c #ad8f61",
"hi c #ad9460",
"aT c #ad9c87",
"e. c #ae945b",
"hj c #af9160",
"bP c #af965f",
"f0 c #af9663",
"dT c #af986b",
"h1 c #af9d87",
"gB c #af9d8a",
"iD c #b0965b",
"#D c #b09b7b",
"#3 c #b09f8c",
"bR c #b19656",
"eM c #b19863",
"e8 c #b19f89",
"#r c #b2935b",
".r c #b2a08c",
"hL c #b4945f",
"ew c #b4995a",
"g5 c #b4995e",
"#W c #b4a28e",
"cQ c #b4a583",
"cj c #b59456",
"gI c #b59663",
"im c #b59b62",
"#X c #b5a28c",
"d7 c #b5b5b6",
"ci c #b69d66",
"ik c #b69d6a",
"#h c #b6a38e",
"gN c #b79d62",
"hv c #b79f8c",
".z c #b7a590",
"fi c #b7a593",
"bw c #b8985e",
"fk c #b89e65",
"gE c #b8a58e",
"em c #b8b7a7",
"c2 c #b99962",
"aK c #b9a690",
"dh c #ba9b6a",
"b0 c #ba9e5d",
"fP c #baa069",
"#B c #baa291",
"fG c #bb6e5a",
"hY c #bb9b66",
".P c #bba892",
"hD c #bca164",
"gu c #bca667",
"aJ c #bca995",
"dy c #bd9b59",
"hr c #bd9d65",
"g8 c #bd9e70",
".k c #bda593",
"c# c #bda888",
"ec c #bdbbbc",
"gm c #bea368",
"hM c #bea767",
"#5 c #beab94",
"ge c #bf9e65",
"ir c #bfa96a",
"g0 c #c0a065",
"hT c #c0a069",
"h8 c #c0a463",
"gJ c #c0a467",
"#N c #c1a170",
"b5 c #c1a66b",
"am c #c1ae96",
"#I c #c1ae99",
"c5 c #c1bbaf",
"il c #c2a168",
"bk c #c2ac8c",
"iy c #c3a160",
"du c #c3a76a",
"aH c #c3ac87",
".S c #c3af98",
"d8 c #c3c0c1",
"b8 c #c3c5c5",
"fx c #c4a368",
".C c #c4ac9b",
"#G c #c4b09b",
"ho c #c5a46b",
"gS c #c5a77f",
"dc c #c5a96a",
"fh c #c5b29d",
"hU c #c5b69c",
"dM c #c5b8a9",
"i. c #c6b29a",
"g1 c #c7a66b",
"eD c #c7aa6a",
"h3 c #c7b08e",
"fe c #c87265",
"e0 c #c9a76a",
"g4 c #c9ab69",
"#S c #c9b18e",
"cC c #caa762",
"cn c #cac6c7",
"ep c #cacbcb",
"hK c #cba866",
"cB c #cba96a",
"#m c #cbb7a0",
"h7 c #ccaa6d",
"gK c #ccae6c",
"#v c #ccb490",
"ic c #cdab6d",
"dj c #cdae64",
".7 c #cdb8a0",
"eG c #cdcdcd",
"e3 c #ce8d6c",
".R c #cebaa4",
"f3 c #cf7b67",
"g2 c #cfad6c",
"dv c #cfad70",
"eE c #cfb16b",
"ey c #cfd4d4",
"hJ c #d0ae73",
"dw c #d0b26f",
"fr c #d17768",
"di c #d1ae6c",
".8 c #d1bca6",
"gf c #d2b06f",
"#4 c #d2bda6",
"d0 c #d2cbc1",
"fF c #d37968",
"bv c #d3af68",
"#C c #d3bb96",
"b# c #d4b16f",
"dt c #d4b56e",
"aY c #d4ba91",
"h2 c #d4bfa8",
"eH c #d4d4d5",
"#s c #d5b272",
"eu c #d5b66d",
"h# c #d5b87b",
"d# c #d5bd9a",
"#H c #d5c0a7",
"#n c #d5c3a9",
"f1 c #d6b26e",
"as c #d7af6f",
"g3 c #d7b76d",
"ea c #d7cec2",
"bt c #d8b571",
"cl c #d8dbda",
"hS c #d9b172",
"c3 c #d9b56e",
"aF c #d9c09a",
"eA c #d9d8d8",
"dY c #daba6c",
"ad c #dabf92",
"#0 c #dac199",
"#Z c #dac19c",
"cE c #dad8d6",
"g. c #db8670",
"bf c #dbb669",
"dx c #dbb66d",
"a. c #dbb774",
"gQ c #dbc29e",
"h6 c #dcb471",
"cx c #dcb770",
"eN c #dcbb6f",
"bV c #dcc39e",
"#u c #dcc3a0",
"ek c #ddb970",
"ay c #deba73",
"gA c #debe72",
"d4 c #dedcdd",
"fU c #df7d71",
"hF c #dfb671",
"if c #dfbf75",
"cd c #e0bb6f",
"bQ c #e0bb73",
"hq c #e0bf72",
"#t c #e0c197",
"dO c #e0dfde",
"iw c #e1c075",
"cG c #e1e3e1",
"dK c #e2bc72",
"be c #e3bc6b",
"ej c #e3be72",
"cV c #e3be75",
"bl c #e3c98e",
"eP c #e4bb76",
"bK c #e4be6e",
"aR c #e4bf75",
"fo c #e58277",
"gj c #e58776",
"f9 c #e58d79",
"fQ c #e5bb72",
"hp c #e5c078",
"io c #e5c389",
"g9 c #e5c491",
"hP c #e5c99a",
"cu c #e5cba5",
"fE c #e68170",
"fS c #e69977",
"hR c #e6c071",
"ds c #e6c075",
"dC c #e6e4e5",
"d3 c #e6e6e4",
"fp c #e78377",
"gh c #e78976",
"gx c #e79b79",
"bd c #e7c06e",
"bu c #e7c174",
"dI c #e7c178",
"iq c #e7c573",
"e1 c #e7c577",
"fD c #e88576",
"fc c #e89178",
"fB c #e89674",
"gz c #e8aa76",
"bZ c #e8c171",
"bc c #e8c377",
"dJ c #e8c676",
"dV c #e8c67a",
"id c #e8cea7",
"fd c #e97978",
"fC c #e97f77",
"fq c #e98573",
"gy c #e99c79",
"fn c #e9a175",
"fb c #e9b378",
"f2 c #e9bf75",
"aQ c #e9c270",
"aP c #e9c374",
"au c #e9c47a",
"gR c #e9cfa6",
"a0 c #e9d2a8",
"fT c #ea7b78",
"gi c #ea8177",
"gk c #ea8d75",
"gl c #eaa278",
"f8 c #eaaf75",
"gw c #eab374",
"dH c #eac074",
"bY c #eac473",
"bb c #eac477",
"ip c #eac57d",
"dq c #eacba7",
"aj c #ead0a8",
"eo c #eaeae9",
"fR c #ebb976",
"gv c #ebbe78",
"cT c #ebc071",
"fa c #ebc177",
"cU c #ebc576",
"dX c #ebc57a",
"db c #ebc680",
"dU c #ebc788",
"eO c #ebc876",
"#O c #ebc992",
"av c #ebcb8a",
"gg c #ec9677",
"fA c #ecb677",
"at c #ecc573",
"aO c #ecc679",
"dl c #ecebe6",
"fz c #edc377",
"dW c #edc676",
"hX c #edc985",
"ih c #edca8d",
"bJ c #edcd8f",
"e2 c #eeaf78",
"ev c #eec477",
"cc c #eec47a",
"cw c #eec583",
"ba c #eec776",
"fl c #eec779",
"hQ c #eec87f",
"fm c #efb976",
"dG c #efc685",
"ax c #efcb8d",
"dF c #efcfa0",
"ie c #efd198",
"aa c #efd29f",
"cR c #efd7ab",
"gM c #f0c177",
"fy c #f0c576",
"h5 c #f0c67f",
"ib c #f0c875",
"cS c #f0cc8c",
"bX c #f0cd94",
"aw c #f0cd96",
"bH c #f0d5ad",
"gL c #f1c27a",
"dr c #f1cb97",
"a# c #f1cd8f",
"cb c #f1d09d",
"cv c #f2d4a1",
"bI c #f2d6ab",
"ca c #f2d6ad",
"d2 c #f2f5f4",
"da c #f3d2a1",
"hW c #f3d3aa",
"ab c #f3d6a9",
"ac c #f3d7ad",
"#R c #f3d7af",
"aZ c #f3dcb2",
"h. c #f4d195",
"h4 c #f4d3a5",
"#Q c #f4d8af",
"bW c #f5d5ab",
"#P c #f5d8ab",
"dn c #f5f4f5",
"ez c #f5f8f7",
"aG c #f7d7b1",
"cm c #f7f6f6",
"eb c #f9fbf9",
"en c #fafcfd",
"c7 c #fdfefc",
"c6 c #fdffff",
"d1 c #fefffe",
"dm c #feffff",
"dA c #fffafb",
"dN c #fffdff",
"cF c #fffeff",
"dB c #ffffff",
"QtQtQtQtQtQtQtQtQtQtQtQtQt.#.aQtQtQtQtQtQtQtQtQtQtQtQtQtQtQtQtQtQtQtQtQtQtQtQtQtQtQtQtQtQtQtQtQtQtQt.b.cQtQtQtQtQtQtQtQtQtQtQtQt",
".b.b.b.b.b.b.b.b.b.b.b.b.b.a.c.b.b.b.b.b.b.b.b.b.b.b.b.b.b.b.b.b.b.b.b.b.b.b.b.b.b.b.b.b.b.b.b.b.b.b.a.c.b.b.b.b.b.b.b.b.b.b.b.b",
".b.b.b.b.b.b.b.b.b.b.b.b.b.b.b.b.c.a.b.b.b.b.b.b.b.b.b.b.b.b.b.b.b.b.b.d.e.f.g.h.b.b.b.b.b.b.b.b.b.b.b.b.b.b.b.b.c.b.b.b.b.b.b.b",
"QtQtQtQtQtQtQtQtQtQtQtQtQtQtQtQt.i.bQtQtQtQtQtQtQtQtQtQtQtQtQtQtQtQt.j.k.l.m.n.o.hQtQtQtQtQtQtQtQtQtQtQtQtQtQtQt.cQtQtQtQtQtQtQt",
"QtQtQtQtQtQtQtQtQtQtQtQtQtQtQtQt.i.bQtQtQtQtQtQtQtQtQtQtQtQtQtQt.p.q.r.s.t.u.g.v.o.wQtQtQtQtQtQtQtQtQtQtQtQtQtQt.cQtQtQtQtQtQtQt",
"QtQtQtQtQtQtQtQtQtQtQtQtQtQtQtQt.i.bQtQtQtQtQtQtQtQtQtQtQtQtQt.x.y.z.A.B.C.D.E.F.v.G.H.I.J.K.L.bQtQtQtQtQtQtQtQt.cQtQtQtQtQtQtQt",
"QtQtQtQtQtQtQtQtQtQtQtQtQtQtQtQt.i.bQtQtQtQtQtQtQtQtQt.b.L.M.N.O.P.Q.B.R.S.u.T.U.V.W.X.o.Y.Z.F.0.1.bQtQtQtQtQtQt.cQtQtQtQtQtQtQt",
"QtQtQtQtQtQtQtQtQtQtQtQtQtQtQtQt.i.bQtQtQtQtQtQtQtQt.2.3.4.F.5.l.B.6.7.8.9#..T###.#a#b#c#d#e#f.n.F.T.LQtQtQtQtQt.cQtQtQtQtQtQtQt",
".a.a.a.a.a.a.a.a.a.a.a.a.a.a.a.a.c.i.a.a.a.a.a.a.##g#h.r#i#j#k.s#l#m#n#h#o#p#######q#r#s#t#u#v#w#x#y.W.E#z.a.a.a.c.a.a.a.a.a.a.a",
".#.#.#.#.#.c.#.#.#.#.#.#.#.#.#.#QtQt.#.#.#.#.##A#g#B.r.Q#C#D#E#F#G#H#I#J.H#K####.E#L#M#N#O#P#Q#R#S#T#y.Z.U.a.#.#Qt.#.#.#.#.#.#.#",
"QtQtQtQtQt.cQtQtQtQtQtQtQtQtQtQtQtQtQtQtQtQt#U#V#W#X#Y#Z#0#1#2#3#4#5#6#7.E####.w#8.o#x#9a.a#aaabacadaeaf.Y.hQtQtQtQtQtQtQtQtQtQt",
"QtQtQtQtQt.cQtQtQtQtQtQtQtQtQtQtQtQtQtQtQtQtagah.zai#Zajakafal.7aman#pao####.Hap.gafaqarasatauavawaxayazaAaBaCaDQtQtQtQtQtQtQtQt",
"QtQtQtQtQt.cQtQtQtQtQtQtQtQtQtQtQtQtQtQtQtQt.A.zaEaFaGaHafaIaJaK.u.E.E####.c.UaL.gafaMaN#saOaPaQaPaQaRaS#EaT.zaUaVQtQtQtQtQtQtQt",
"QtQtQtQtQt.cQtQtQtQtQtQtQtQtQtQtQtQtQtQtQtaWaX.DaYaZa0a1.va2a3a4.T.H######.Ua5a6a7a8a9b.b#babbbcbdbebfbgbh.ybi.sbj.iQtQtQtQtQtQt",
".b.b.b.b.b.c.b.b.b.b.b.b.b.b.b.b.b.b.b.b.d#F.jbk#Qabblbm#ybn#fbo####.Hbobpapbqbr.v.Vbs#9btaObubvbwbxbybz.F.QbAbB.gbC.L.b.b.b.b.b",
".b.b.b.b.b.b.b.b.b.b.b.b.b.b.b.b.b.b.bbDbEbFbGbHbIbJbKbL.vaA.IbobobpbpapbM.o.X.v.ZbNbObPbQaPbRaq.o.v.v.v.vbS#Ja4.o.vbT.b.b.b.b.b",
"QtQtQtQtQtQtQtQtQtQtQtQtQtQtQtQtQtQtQt.IbU#kbVbWbXbYbZb0af.nb1apapapaLb2a7af.vb3bsbOb4b5bKb6.Xafb7b8b9.o.v.vapbMaf.n.o.LQtQtQtQt",
"QtQtQtQtQtQtQtQtQtQtQtQtQtQtQtQtQtQt.ic..Zc#cacbccbYbbcd#c.v.nce.o.Fa7af.va8cfcgchb4cia.cj.Xckclcmcncocpcqcrcs.o.f.nce.JQtQtQtQt",
"QtQtQtQtQtQtQtQtQtQtQtQtQtQtQtQtQtQt.IafctcucvcwaPbbbbbbcxcy.n#yafafa7.V#MczbOchcAcBbQcCcD#8cEcFcGcHcIcJ.n.ncKcLceafcMcNQtQtQtQt",
"QtQtQtQtQtQtQtQtQtQtQtQtQtQtQtQtQtcOcP.FcQcRcScTbbbbbbcUcV#9bsbgcWaMcXcYcZc0c1c2c3bYcdc4a7c5c6c7c8aLcs.v.v.v.v.obqcsb2c9QtQtQtQt",
".i.i.i.i.i.i.i.i.i.i.i.i.i.c.a.a.a.UaAd.d#dadbaPbbbbbbbbbcdc#9dddecZb4dfdgdhdicVcUbbdjdk#ddldmdndobq.v.v.v.v.v.v.v.ndp.o.L.i.i.i",
"QtQtQtQtQtQtQtQtQtQtQtQtQt.iQtQtQt.I.o#YdqdrbcbbbbbbbbbbbbdsdtcBb5dudvdwdxcVbbcUcUdsdy.ZdzdAdBdCdD.o.v.v.v.v.v.v.v.v.v.n.JQtQtQt",
"QtQtQtQtQtQtQtQtQtQtQtQtQt.iQtQtQt.eafdEdFdGdHbbbbbbbbbbbbcUcUaPdIbubbdJcUcUcUbbbbdKdLa7dMdBdNdOdPdQdDdp.v.v.v.v.v.vdp.fdodRdScO",
"QtQtQtQtQtQtQtQtQtQtQtQtQt.iQtQt.b.0a7dTdUdVbbbbbbbbbbbbbbbbcUdWaOdWdXcUcUbbbbbbbbdYdZ.Fd0dBd1d2d3d4d5cs.v.v.v.v.v.v.nd6d7d8d9bT",
"QtQtQtQtQtQtQtQtQtQtQtQtQt.iQtQt.#.g.Fe.bcbbbbbbbbbbbbbbbbbbbbbbbbbbbbbbbbbbbbbbbbbfe#.ZeadBcFdBdBebeced.v.v.v.v.v.v.neeefeg.v.n",
"QtQtQtQtQtQtQtQtQtQtQtQtQt.iQtQt.#breheiejdWbbbbbbbbbbbbbbbbbbbbbbbbbbbbbbbbbbbbbbekelafemendBeoepeceq.o.v.v.v.v.v.v.vercsbM.v.n",
".i.i.i.i.i.i.c.c.a.a.a.a.a.i.a.a##a7eseteuevbbbbbbbbbbbbbbbbbbbbbbbbbbbbbbbbbbbbbbdsew.FexeyezeAcIeBer.v.v.v.v.v#yeC.n.n#y.v.Yc.",
"QtQtQtQtQtQt.#.aQtQtQtQtQtQtQtQt.L.XescXeDaPcUbbbbbbbbbbbbbbbbbbbbbbbbbbbbbbbbbbbbbYeE#2dDeFeGeHcqeIeJ.v.v.v.v.v.X.nbpcoeK#yeLQt",
"QtQtQtQtQtQt.#.aQtQtQtQtQtQtQtQt.ibra7aMeMeNeObbbbbbbbbbbbbbbbbbbbbbbbbbbbbbbbbbbbatePeQ.ncpeReSeTeUa5.v.v.v.v#yafeVbieWeX#y.eQt",
"QtQtQtQtQtQt.#.aQtQtQtQtQtQtQtQtcNcP#yeYeZe0e1evbbbbbbbbbbbbbbbbbbbbbbbbbbbbbbbbbbbce2e3.i.ve4e5e6b2cLe7.o.v.v#y.5e8aJe9f..n.eQt",
"QtQtQtQtQtQt.#.aQtQtQtQtQtQtQtQtQtbD.ga7bNf#dxbacUbbbbbbbbbbbbbbbbbbbbbbbbbbbbbbfafbfcfdfe#7.nbqff.o.vfgaL#y.v.F.yfhfi.sfj#y.1Qt",
".#.#.#.#.#.#.#.a.#.#.#.#.#.#.#.#.#.#.EafescXfkaRflbbbbbbbbbbbbbbbbbbbbbbbbbbbbbbfmfnfofpfqfrfsftaffu.v.v.veC.g.O.qfvfw#2#8fu.d.#",
".a.a.a.a.a.a.a.a.a.a.a.a.a.a.a.a.a.a.ceK#yeYbOfxdsfybbbbbbbbbbbbbbbbbbbbbbbbbbfzfAfBfCfDfDfDfEfFfGfHfIaf.oaA.UfJbFfK.TfLfMfN.i.c",
"QtQtQtQtQtQtQtQtQtQtQtQtQtQtQtQtQtQtQt.LfN#yfOdffPfQbacUbbbbbbbbbbbbbbbbbbbbbbfzfRfSfTfDfDfDfDfDfDfUfVaf.obqcscsfWfNes#yfXbDQt.c",
"QtQtQtQtQtQtQtQtQtQtQtQtQtQtQtQtQtQtQtQt.Leha7fYfZf0f1bYdWbbbbbbbbbbbbbbbbbbbbdJf2fnfofDfDfDfDfDfDfDf3f4#y.n.n.nafaf#yeh.JQtQt.c",
"QtQtQtQtQtQtQtQtQtQtQt.pf5agf6QtQtQtQtQtQt.U.5#kf7cXa1fkcxbbdWbbbbbbbbbbbbbbbbbbbcf8f9fpfDfDfDfDfDfDg.ddg#esa7af.veh##.bQtQtQt.c",
"QtQtQtQtQtQtQtQtQtgagb#hgc.Obnc.bD.b.bbD.1bU.5gd#I#jcXchargegfcVbYcUcUbbbbbbbbbbbbdIfbggghfDgigigjgkglgmgndefZcy.vbnQtQtQtQtQt.c",
"QtQtQtQtQtQtQtQtQtgo.zgpgqgrgs#y.FfNfW.oa7.n.obF.r#I.QgtczcZdff0gudicxejdIbbbbbbbbcUbbgvgwglgxgygzfAcUgAfka1cXbzaf.IQtQtQtQtQt.c",
".a.a.a.a.a.a.a.a.agBf.gC.6fJbUfX#y.nehgDai#Ta7.FfJah#GgEgFgGa9chgHdff#gIgJgKbtbQdsbbdWbaflgLfzgMfabcejbtgNb4fO#y.F.d.a.a.a.a.a.i",
"QtQtQtQtQtQtQtQtQtfjeWgOaf.nfXafafeYgPgQgRgSaq.v.FcMgT.r#5gB.tgUgtgVgWgXbOgYgZgIg0g1g2g3ekcxeudtg4fxg5g6b4bg.Faf.IQtQtQtQtQtQtQt",
"QtQtQtQtQtQtQtQtQt.f#g#8ceg7eC.veh#ag8g9h.h#hahbafa7.5aCgB.z#hhcgphdhe#fhffYgGhgfZa1arhhhihjf#hkhlhmhnbgfYa7#y.e.bQtQtQtQtQtQtQt",
"QtQtQtQtQtQtQtQtQt.v#fapdS#Ka7a7bNdehohpflhqhrhsht.X.n#2huaJhvhw.6fjhx.obUhyhy.5bn#ehzhAhAbNbNfOfY.Vehaf.vce.ehBQtQtQtQtQtQtQtQt",
"QtQtQtQtQtQtQtQtQt.Y.FeYhChDhEcWfZeMcxbYbYbbhFc2hGaMeK#y.obBhH#d.MfOeK.fhd.thIbU.v#y#y.v.v#y#y#y#yce.YbCbT.h.bQtQtQtQtQtQtQtQtQt",
"QtQtQtQtQtQtQtQtQt.JafafhJe1hKhLc2btbccUbbcUfzeNhMhkcXfY.W.Faf#y.F.W.ZfJ.thNf7hO.nce.0fNfNfNbC.0bT.I.UbD.bQtQtQtQtQtQtQtQtQtQtQt",
".a.a.a.a.a.a.a.a.a.d.f.5hPhQhRbQejfzfzbbbbbbbbcUbuhShThhhGbghthb.Vbzesbh.Of7hUah.o.0.bcOhB.i.i.b.b.b.c.i.a.a.a.a.a.a.a.a.a.a.a.a",
".a.a.a.a.a.a.a.c.i.E.ohVhWhXatbacUbbbbbbbbbbbbbbevfybccxeDhYhZh0cghngt#EhNh1h2gT.nc..c.c.a.a.a.a.a.a.a.a.a.a.a.a.a.a.a.a.a.a.a.a",
"QtQtQtQtQtQtQt.a.bbE#yh3h4h5bYbbbbcUcUbbbbbbbbbbbbbbdWbadWhRh6h7h8bPh9gr#ki.#5i#.vbT.a.aQtQtQtQtQtQtQtQtQtQtQtQtQtQtQtQtQtQtQtQt",
"QtQtQtQtQtQtQt.a.bia.o#ucvdXbbcUcUbbcUcUcUcUcUcUcUcUcUcUdWflibaOdWichn.Vak#h#E.ofM.U.a.aQtQtQtQtQtQtQtQtQtQtQtQtQtQtQtQtQtQtQtQt",
"QtQtQtQtQtQtQt.a.bheeKidiebbbcaRayg2b#aRcUdXaucUbbbcaRdKejifbubbdWdicXeh#LbBb2#yfWhB.a.aQtQtQtQtQtQtQtQtQtQtQtQtQtQtQtQtQtQtQtQt",
"QtQtQtQtQtQtQt.a.b#8igajihbbayfkiiijbOikeDgKicg4dcilimbPeMiih8bcaPhoinf4.Zeh.o#y.eQt.a.aQtQtQtQtQtQtQtQtQtQtQtQtQtQtQtQtQtQtQtQt",
"QtQtQtQtQtQtQt.a.b.gaMioipiqirfZhf.F.VhAa9fZisddbOishGishna8itbQbQiugVaq.v.v.vbC.LQt.a.aQtQtQtQtQtQtQtQtQtQtQtQtQtQtQtQtQtQtQtQt",
".c.i.i.i.i.i.i.c.cehivejbbiwg6ix.Xa7.n.na7.Fa8.WhbeYeY.W.o.vafiydth0cW.Zaqb3#ybCbD.i.c.c.i.i.i.i.i.i.i.i.i.i.i.i.i.i.i.i.i.i.i.i",
".a.b.b.b.b.b.b.#.##fizcxdXaRiA.X.Vix.o#y.oa7.v.v.v.v.v.vfX.0#yivh7cZix.Fcfht#yc.QtQtQtQtQtQtQtQtQtQtQtQtQtQtQtQtQtQtQtQtQtQtQtQt",
".aQtQtQtQtQtQtQtQt.Va7iBhjh7iC.XfY#x#y.e.b.b.i.d.w.U.h.w.b.b.Ya7iDiE#xa8hA#x.F.hQtQtQtQtQtQtQtQtQtQtQtQtQtQtQtQtQtQtQtQtQtQtQtQt",
".aQtQtQtQtQtQtQtQteh.vbo#K.Vd9a8eYa7.gbDQtQtQtQtQtQtQtQtQtQt.e#ycyiF.Yaf.F#ybUhBQtQtQtQtQtQtQtQtQtQtQtQtQtQtQtQtQtQtQtQtQtQtQtQt",
".aQtQtQtQtQtQtQtQtc..v.g.o.vd9a7#yfu.UcNQtQtQtQtQtQtQtQtQtQt.L.n.nfNd9d9iGeh.HQtQtQtQtQtQtQtQtQtQtQtQtQtQtQtQtQtQtQtQtQtQtQtQtQt",
".aQtQtQtQtQtQtQtQt.Jaf#yiH.F.w#..T.H.bQtQtQtQtQtQtQtQtQtQtQtQt.efX#yeCc.##iIQtQtQtQtQtQtQtQtQtQtQtQtQtQtQtQtQtQtQtQtQtQtQtQtQtQt",
".a.#.#.#.#.#.#.#.#.#.#.#.#.#.#.#.#.#.#.#.#.#.#.#.#.#.#.#.#.#.#.#.#.#.#.a.iQtQtQtQtQtQtQtQtQtQtQtQtQtQtQtQtQtQtQtQtQtQtQtQtQtQtQt",
".c.c.c.c.c.c.c.c.c.c.c.c.c.c.c.c.c.c.c.c.c.c.c.c.c.c.c.c.c.c.c.c.c.c.c.c.c.i.i.i.i.i.i.i.i.i.i.i.i.i.i.c.i.i.i.i.i.i.i.i.i.i.i.i",
"QtQtQtQtQtQtQtQtQtQtQtQtQt.#.aQtQtQtQtQtQtQtQtQtQtQtQtQtQtQtQtQtQtQtQtQtQtQtQtQtQtQtQtQtQtQtQtQtQtQt.b.cQtQtQtQtQtQtQtQtQtQtQtQt",
"QtQtQtQtQtQtQtQtQtQtQtQtQt.#.aQtQtQtQtQtQtQtQtQtQtQtQtQtQtQtQtQtQtQtQtQtQtQtQtQtQtQtQtQtQtQtQtQtQtQt.b.cQtQtQtQtQtQtQtQtQtQtQtQt",
"QtQtQtQtQtQtQtQtQtQtQtQtQt.#.aQtQtQtQtQtQtQtQtQtQtQtQtQtQtQtQtQtQtQtQtQtQtQtQtQtQtQtQtQtQtQtQtQtQtQt.b.cQtQtQtQtQtQtQtQtQtQtQtQt",
"QtQtQtQtQtQtQtQtQtQtQtQtQt.#.aQtQtQtQtQtQtQtQtQtQtQtQtQtQtQtQtQtQtQtQtQtQtQtQtQtQtQtQtQtQtQtQtQtQtQt.b.cQtQtQtQtQtQtQtQtQtQtQtQt",
"QtQtQtQtQtQtQtQtQtQtQtQtQt.#.aQtQtQtQtQtQtQtQtQtQtQtQtQtQtQtQtQtQtQtQtQtQtQtQtQtQtQtQtQtQtQtQtQtQtQt.b.cQtQtQtQtQtQtQtQtQtQtQtQt"};
