/* XPM */
static char *dummy[]={
"64 64 682 2",
".v c #000000",
"dp c #002100",
"er c #0c3124",
"g9 c #0d1628",
".n c #161519",
"#y c #1c1500",
"ce c #222126",
"eJ c #263c36",
"af c #272117",
"eC c #2b0002",
"fP c #2b2000",
"b2 c #2b2a30",
"dD c #2e413d",
".o c #2f2925",
"a6 c #314135",
"a7 c #322915",
"eT c #323138",
"d9 c #33001a",
".f c #35312f",
"a5 c #354644",
"iG c #360000",
".F c #383023",
"b1 c #38373f",
"f0 c #391527",
".X c #3b3012",
"bq c #3b3737",
"fv c #3c1518",
"fZ c #3e2130",
".g c #3e362e",
"cK c #3e3c45",
".Z c #403622",
".Y c #412126",
"aL c #413c3e",
"gt c #432016",
"iK c #43360f",
"aA c #433c36",
"ed c #434e48",
"eh c #453c2c",
"cs c #454144",
"bC c #46292f",
"a8 c #473c20",
"cJ c #47524e",
"br c #482924",
"bM c #48413d",
"iy c #4a2913",
".0 c #4a3037",
"bU c #4a4135",
"cL c #4a4649",
"fQ c #4c302e",
"es c #4c412b",
"ap c #4c4543",
"cI c #4c5552",
"fL c #4e3023",
"bT c #4e373e",
"#8 c #4e453c",
"co c #4e4a4e",
"c. c #503736",
"eK c #504534",
".G c #52362d",
"dS c #523c44",
".W c #52452a",
"bp c #524a42",
"ff c #525852",
".e c #543c3d",
".5 c #54493b",
"eI c #545c5b",
".V c #554933",
"bn c #563c35",
"fO c #573c2c",
"bz c #574929",
"bo c #574d42",
".I c #584143",
"cP c #59413c",
"aI c #594d3a",
"cM c #59514d",
"cr c #595f5b",
"#f c #5b4134",
".h c #5b4549",
"#x c #5b4d32",
"hz c #5b5147",
"cD c #5c4d28",
"#L c #5c5141",
"do c #5c625f",
".U c #5d4543",
"e6 c #5d4a53",
".K c #5e4a4e",
"hh c #5e5139",
"ib c #5e554d",
"cq c #5e585b",
"hd c #5f5131",
"ck c #5f6155",
"f7 c #604533",
".w c #604a48",
"hg c #605547",
"fu c #61362c",
".E c #614942",
"c9 c #614e53",
"bS c #615540",
"cp c #615c5f",
".1 c #623c44",
".T c #63493b",
".L c #634e4d",
"eX c #635439",
"cH c #635c5b",
".H c #644d48",
"b3 c #645430",
"#1 c #645846",
"eB c #645f63",
".J c #654149",
"f1 c #65583f",
"#p c #664143",
"#K c #664d41",
"cO c #665152",
"#z c #67514d",
"#2 c #675b4b",
"e3 c #676267",
"ee c #676a66",
"bD c #68454e",
"#e c #685b45",
".d c #694549",
"## c #695147",
".x c #695557",
".m c #695e55",
"ao c #6a4542",
"hD c #6a4a53",
"f9 c #6a5552",
"iA c #6a5b3f",
"bB c #6a5e50",
"aq c #6b5b37",
"d. c #6b5e4b",
"gQ c #6b615a",
".i c #6c4a4e",
"bE c #6c554c",
".c c #6d4948",
"cN c #6d4e58",
"iD c #6d5130",
"#. c #6d5446",
"#U c #6d5856",
"a2 c #6d5e45",
"fM c #6d6155",
"#7 c #6e4942",
"iN c #6e5440",
"fe c #6e5b5f",
"hv c #6e5e3e",
"ii c #6e6150",
".b c #6f4d53",
"dk c #6f5e36",
"#d c #6f614a",
".a c #704d4d",
"fR c #706144",
"Qt c #715157",
"gs c #716454",
"eS c #717476",
".# c #725152",
"hB c #72613d",
"gF c #72644f",
"d6 c #727473",
".M c #735b4b",
"gH c #736449",
"bF c #736759",
"iB c #745b45",
"hC c #746443",
".p c #755557",
"cy c #75643c",
"dR c #756c6d",
"ic c #765e50",
"aB c #766a5d",
"gd c #776159",
"bN c #776749",
".4 c #776958",
".N c #785446",
"#A c #785856",
"gc c #785e44",
"fN c #786155",
"cW c #786642",
"aW c #786c61",
"ex c #787875",
"#c c #79663b",
"hP c #796c5c",
"eq c #797b7c",
"aM c #7a6948",
"bj c #7a6f64",
"dQ c #7a7b78",
"iC c #7b584b",
"a4 c #7b6459",
"iF c #7b6942",
"eU c #7b6c53",
"hA c #7b6f60",
"ag c #7c6761",
"iz c #7c693a",
"e5 c #7c7d7e",
"aV c #7d5e5e",
"hK c #7d675d",
"#T c #7d6c4d",
"#k c #7d6f5c",
"fz c #7e6758",
"bg c #7e6c47",
"fk c #7e7164",
"aD c #7f6162",
"iJ c #7f6c41",
"#q c #80674e",
"f8 c #816c65",
"cf c #816e47",
"ak c #817157",
"hf c #817363",
"#M c #826642",
"az c #826e40",
"hi c #83694d",
"#a c #83714c",
"hJ c #83735b",
".O c #837667",
"#o c #84645d",
"hG c #847146",
"gu c #847356",
"g. c #847663",
"iv c #856941",
"bs c #857351",
"b9 c #858586",
"a9 c #86734b",
"#E c #867867",
".2 c #877168",
"il c #877555",
"gX c #887550",
"gW c #88785e",
"an c #887a6a",
"iL c #896e4c",
"#V c #89736b",
"bh c #897a66",
"hQ c #8a7367",
"hp c #8a7855",
"#i c #8a7a62",
"iH c #8b7151",
"cX c #8b7850",
"#F c #8b7c6a",
"aC c #8c766b",
"#j c #8c7c66",
"a3 c #8c7f71",
"dP c #8c8b8b",
".u c #8d7667",
"f2 c #8d7a54",
"gG c #8d7e6d",
"gZ c #8d8053",
"i# c #8d8260",
"eF c #8d9496",
"hu c #8e7351",
"#g c #8e786a",
"gY c #8e7a4f",
"gV c #8e8174",
"ix c #8f734b",
"#J c #8f7866",
"iM c #907555",
"ct c #907862",
"cz c #907c54",
"#l c #90806d",
"e4 c #908990",
"eQ c #909696",
"fy c #917a6a",
"ai c #918069",
".6 c #918373",
"fY c #925045",
"#b c #92754a",
"hI c #927e58",
"al c #928370",
"ip c #937855",
"cg c #937e53",
"ge c #938576",
"#6 c #94766a",
"hc c #947e4e",
"iu c #94805c",
".t c #948573",
"et c #948656",
"bm c #95774a",
"cY c #958053",
"de c #958058",
"aS c #96804d",
"bO c #96825c",
"#Y c #96846c",
".A c #968776",
"ho c #977c58",
"cZ c #978257",
".Q c #978673",
"e# c #987a43",
"ae c #988252",
"c0 c #988460",
".q c #988879",
"gp c #988a5f",
"bL c #99824d",
".j c #998377",
"ch c #99845b",
"aE c #998872",
"eY c #9a7e58",
"dd c #9a8456",
"hy c #9a8579",
".y c #9a8a79",
"gI c #9b865f",
"gr c #9b8a75",
"h2 c #9b8c59",
"eP c #9c8268",
"c4 c #9c844c",
"b4 c #9c865b",
".B c #9c8c7b",
"hE c #9d8052",
"hn c #9d885f",
"e9 c #9d8c78",
"a1 c #9e885a",
"gD c #9e8e7b",
"dZ c #9f8047",
"g0 c #9f8855",
"by c #a08252",
"df c #a08a5e",
"iE c #a08f58",
".s c #a0907e",
"hw c #a0957d",
"c8 c #a0a2a2",
"ft c #a15a49",
"el c #a1824c",
"c1 c #a18a5a",
".D c #a1907b",
"dz c #a19783",
"ar c #a28c5e",
"hX c #a29074",
"bi c #a2927d",
"gq c #a29281",
"ik c #a38c59",
"aU c #a38c7e",
"aX c #a39383",
"bA c #a49380",
"ef c #a4a5a4",
"b. c #a58260",
"aN c #a5885e",
"#9 c #a58d5d",
"gP c #a59586",
".9 c #a68e7b",
"hm c #a68f61",
"gR c #a69170",
"gf c #a69583",
"b7 c #a6a7a6",
"g1 c #a78f5d",
"bG c #a7957d",
"fK c #a85a49",
"ei c #a88a59",
"#w c #a88e71",
"fg c #a89783",
"dg c #a98c62",
"dL c #a98f4e",
"g8 c #a9915c",
"f. c #a99161",
".3 c #a99280",
"d5 c #a9aaa9",
"bx c #aa8e69",
"h1 c #aa9364",
"dE c #aa9679",
"ah c #aa9885",
"gE c #aa9a8a",
"eR c #aaabad",
"hj c #ab9360",
"he c #ab9a88",
"b6 c #ac8b4f",
".l c #ac9a85",
"eg c #acadad",
"cA c #ad8f61",
"hk c #ad9460",
"aT c #ad9c87",
"iI c #ae8f5c",
"e. c #ae945b",
"hl c #af9160",
"bP c #af965f",
"f3 c #af9663",
"dT c #af986b",
"h3 c #af9d87",
"gC c #af9d8a",
"#D c #b09b7b",
"#3 c #b09f8c",
"bR c #b19656",
"eL c #b19863",
"eV c #b19f89",
"#r c #b2935b",
".r c #b2a08c",
"eW c #b3a291",
"hN c #b4945f",
"ew c #b4995a",
"g7 c #b4995e",
"#W c #b4a28e",
"cQ c #b4a583",
"cj c #b59456",
"gJ c #b59663",
"in c #b59b62",
"#X c #b5a28c",
"d7 c #b5b5b6",
"ci c #b69d66",
"#h c #b6a38e",
"gO c #b79d62",
"hx c #b79f8c",
".z c #b7a590",
"bw c #b8985e",
"fl c #b89e65",
"e7 c #b8a58e",
"em c #b8b7a7",
"c2 c #b99962",
"aK c #b9a690",
"fj c #b9a693",
"dh c #ba9b6a",
"b0 c #ba9e5d",
"fS c #baa069",
"#B c #baa291",
"fJ c #bb6e5a",
"h0 c #bb9b66",
".P c #bba892",
"hF c #bca164",
"fx c #bca38e",
"gv c #bca667",
"aJ c #bca995",
"dy c #bd9b59",
"ht c #bd9d65",
"h. c #bd9e70",
".k c #bda593",
"c# c #bda888",
"ec c #bdbbbc",
"go c #bea368",
"hO c #bea767",
"#5 c #beab94",
"gg c #bf9e65",
"it c #bfa96a",
"g2 c #c0a065",
"hV c #c0a069",
"i. c #c0a463",
"gK c #c0a467",
"#N c #c1a170",
"b5 c #c1a66b",
"am c #c1ae96",
"#I c #c1ae99",
"c5 c #c1bbaf",
"im c #c2a168",
"bk c #c2ac8c",
"du c #c3a76a",
"aH c #c3ac87",
".S c #c3af98",
"d8 c #c3c0c1",
"b8 c #c3c5c5",
"fA c #c4a368",
".C c #c4ac9b",
"#G c #c4b09b",
"hq c #c5a46b",
"gU c #c5a77f",
"dc c #c5a96a",
"fi c #c5b29d",
"hW c #c5b69c",
"dM c #c5b8a9",
"ia c #c6b29a",
"g3 c #c7a66b",
"eD c #c7aa6a",
"h5 c #c7b08e",
"fw c #c7b39c",
"fd c #c87265",
"eZ c #c9a76a",
"g6 c #c9ab69",
"#S c #c9b18e",
"cC c #caa762",
"cn c #cac6c7",
"ep c #cacbcb",
"hM c #cba866",
"cB c #cba96a",
"#m c #cbb7a0",
"h9 c #ccaa6d",
"gL c #ccae6c",
"#v c #ccb490",
"ie c #cdab6d",
"dj c #cdae64",
".7 c #cdb8a0",
"eG c #cdcdcd",
"e2 c #ce8d6c",
".R c #cebaa4",
"f6 c #cf7b67",
"g4 c #cfad6c",
"dv c #cfad70",
"eE c #cfb16b",
"fh c #cfbba6",
"ey c #cfd4d4",
"hL c #d0ae73",
"dw c #d0b26f",
"fs c #d17768",
"di c #d1ae6c",
".8 c #d1bca6",
"gh c #d2b06f",
"#4 c #d2bda6",
"d0 c #d2cbc1",
"fI c #d37968",
"bv c #d3af68",
"#C c #d3bb96",
"b# c #d4b16f",
"dt c #d4b56e",
"aY c #d4ba91",
"h4 c #d4bfa8",
"eH c #d4d4d5",
"#s c #d5b272",
"eu c #d5b66d",
"hb c #d5b87b",
"d# c #d5bd9a",
"#H c #d5c0a7",
"#n c #d5c3a9",
"f4 c #d6b26e",
"as c #d7af6f",
"io c #d7b46e",
"g5 c #d7b76d",
"ea c #d7cec2",
"bt c #d8b571",
"cl c #d8dbda",
"hU c #d9b172",
"c3 c #d9b56e",
"aF c #d9c09a",
"e8 c #d9c3ad",
"eA c #d9d8d8",
"dY c #daba6c",
"iw c #daba70",
"ad c #dabf92",
"#0 c #dac199",
"#Z c #dac19c",
"cE c #dad8d6",
"gb c #db8670",
"bf c #dbb669",
"dx c #dbb66d",
"a. c #dbb774",
"gS c #dbc29e",
"h8 c #dcb471",
"cx c #dcb770",
"eM c #dcbb6f",
"bV c #dcc39e",
"#u c #dcc3a0",
"ek c #ddb970",
"ay c #deba73",
"gB c #debe72",
"d4 c #dedcdd",
"fX c #df7d71",
"hH c #dfb671",
"cd c #e0bb6f",
"bQ c #e0bb73",
"hs c #e0bf72",
"#t c #e0c197",
"dO c #e0dfde",
"ih c #e1c075",
"cG c #e1e3e1",
"dK c #e2bc72",
"be c #e3bc6b",
"ej c #e3be72",
"cV c #e3be75",
"bl c #e3c98e",
"eO c #e4bb76",
"bK c #e4be6e",
"aR c #e4bf75",
"fp c #e58277",
"gl c #e58776",
"ga c #e58d79",
"fT c #e5bb72",
"hr c #e5c078",
"iq c #e5c389",
"h# c #e5c491",
"hR c #e5c99a",
"cu c #e5cba5",
"fH c #e68170",
"fV c #e69977",
"hT c #e6c071",
"ds c #e6c075",
"dC c #e6e4e5",
"d3 c #e6e6e4",
"fq c #e78377",
"gj c #e78976",
"gy c #e79b79",
"bd c #e7c06e",
"bu c #e7c174",
"dI c #e7c178",
"is c #e7c573",
"e0 c #e7c577",
"fG c #e88576",
"fb c #e89178",
"fE c #e89674",
"gA c #e8aa76",
"bZ c #e8c171",
"bc c #e8c377",
"dJ c #e8c676",
"dV c #e8c67a",
"if c #e8cea7",
"fc c #e97978",
"fF c #e97f77",
"fr c #e98573",
"gz c #e99c79",
"fo c #e9a175",
"fa c #e9b378",
"f5 c #e9bf75",
"aQ c #e9c270",
"aP c #e9c374",
"au c #e9c47a",
"gT c #e9cfa6",
"a0 c #e9d2a8",
"fW c #ea7b78",
"gk c #ea8177",
"gm c #ea8d75",
"gn c #eaa278",
"g# c #eaaf75",
"gx c #eab374",
"dH c #eac074",
"bY c #eac473",
"bb c #eac477",
"ir c #eac57d",
"dq c #eacba7",
"aj c #ead0a8",
"eo c #eaeae9",
"fU c #ebb976",
"gw c #ebbe78",
"cT c #ebc071",
"f# c #ebc177",
"cU c #ebc576",
"dX c #ebc57a",
"db c #ebc680",
"dU c #ebc788",
"eN c #ebc876",
"#O c #ebc992",
"av c #ebcb8a",
"gi c #ec9677",
"fD c #ecb677",
"at c #ecc573",
"aO c #ecc679",
"dl c #ecebe6",
"fC c #edc377",
"dW c #edc676",
"hZ c #edc985",
"ij c #edca8d",
"bJ c #edcd8f",
"e1 c #eeaf78",
"ev c #eec477",
"cc c #eec47a",
"cw c #eec583",
"ba c #eec776",
"fm c #eec779",
"hS c #eec87f",
"fn c #efb976",
"dG c #efc685",
"ax c #efcb8d",
"dF c #efcfa0",
"ig c #efd198",
"aa c #efd29f",
"cR c #efd7ab",
"gN c #f0c177",
"fB c #f0c576",
"h7 c #f0c67f",
"id c #f0c875",
"cS c #f0cc8c",
"bX c #f0cd94",
"aw c #f0cd96",
"bH c #f0d5ad",
"gM c #f1c27a",
"dr c #f1cb97",
"a# c #f1cd8f",
"cb c #f1d09d",
"cv c #f2d4a1",
"bI c #f2d6ab",
"ca c #f2d6ad",
"d2 c #f2f5f4",
"da c #f3d2a1",
"hY c #f3d3aa",
"ab c #f3d6a9",
"ac c #f3d7ad",
"#R c #f3d7af",
"aZ c #f3dcb2",
"ha c #f4d195",
"h6 c #f4d3a5",
"#Q c #f4d8af",
"bW c #f5d5ab",
"#P c #f5d8ab",
"dn c #f5f4f5",
"ez c #f5f8f7",
"aG c #f7d7b1",
"cm c #f7f6f6",
"eb c #f9fbf9",
"en c #fafcfd",
"c7 c #fdfefc",
"c6 c #fdffff",
"d1 c #fefffe",
"dm c #feffff",
"dA c #fffafb",
"dN c #fffdff",
"cF c #fffeff",
"dB c #ffffff",
"QtQtQtQtQtQtQtQtQtQtQtQtQt.#.aQtQtQtQtQtQtQtQtQtQtQtQtQtQtQtQtQtQtQtQtQtQtQtQtQtQtQtQtQtQtQtQtQtQtQt.b.cQtQtQtQtQtQtQtQtQtQtQtQt",
".b.b.b.b.b.b.b.b.b.b.b.b.b.a.c.b.b.b.b.b.b.b.b.b.b.b.b.b.b.b.b.b.b.b.b.b.b.b.b.b.b.b.b.b.b.b.b.b.b.b.a.c.b.b.b.b.b.b.b.b.b.b.b.b",
".b.b.b.b.b.b.b.b.b.b.b.b.b.b.b.b.c.a.b.b.b.b.b.b.b.b.b.b.b.b.b.b.b.b.b.d.e.f.g.h.b.b.b.b.b.b.b.b.b.b.b.b.b.b.b.b.c.b.b.b.b.b.b.b",
"QtQtQtQtQtQtQtQtQtQtQtQtQtQtQtQt.i.bQtQtQtQtQtQtQtQtQtQtQtQtQtQtQtQt.j.k.l.m.n.o.hQtQtQtQtQtQtQtQtQtQtQtQtQtQtQt.cQtQtQtQtQtQtQt",
"QtQtQtQtQtQtQtQtQtQtQtQtQtQtQtQt.i.bQtQtQtQtQtQtQtQtQtQtQtQtQtQt.p.q.r.s.t.u.g.v.o.wQtQtQtQtQtQtQtQtQtQtQtQtQtQt.cQtQtQtQtQtQtQt",
"QtQtQtQtQtQtQtQtQtQtQtQtQtQtQtQt.i.bQtQtQtQtQtQtQtQtQtQtQtQtQt.x.y.z.A.B.C.D.E.F.v.G.H.I.J.K.L.bQtQtQtQtQtQtQtQt.cQtQtQtQtQtQtQt",
"QtQtQtQtQtQtQtQtQtQtQtQtQtQtQtQt.i.bQtQtQtQtQtQtQtQtQt.b.L.M.N.O.P.Q.B.R.S.u.T.U.V.W.X.o.Y.Z.F.0.1.bQtQtQtQtQtQt.cQtQtQtQtQtQtQt",
"QtQtQtQtQtQtQtQtQtQtQtQtQtQtQtQt.i.bQtQtQtQtQtQtQtQt.2.3.4.F.5.l.B.6.7.8.9#..T###.#a#b#c#d#e#f.n.F.T.LQtQtQtQtQt.cQtQtQtQtQtQtQt",
".a.a.a.a.a.a.a.a.a.a.a.a.a.a.a.a.c.i.a.a.a.a.a.a.##g#h.r#i#j#k.s#l#m#n#h#o#p#######q#r#s#t#u#v#w#x#y.W.E#z.a.a.a.c.a.a.a.a.a.a.a",
".#.#.#.#.#.c.#.#.#.#.#.#.#.#.#.#QtQt.#.#.#.#.##A#g#B.r.Q#C#D#E#F#G#H#I#J.H#K####.E#L#M#N#O#P#Q#R#S#T#y.Z.U.a.#.#Qt.#.#.#.#.#.#.#",
"QtQtQtQtQt.cQtQtQtQtQtQtQtQtQtQtQtQtQtQtQtQt#U#V#W#X#Y#Z#0#1#2#3#4#5#6#7.E####.w#8.o#x#9a.a#aaabacadaeaf.Y.hQtQtQtQtQtQtQtQtQtQt",
"QtQtQtQtQt.cQtQtQtQtQtQtQtQtQtQtQtQtQtQtQtQtagah.zai#Zajakafal.7aman#pao####.Hap.gafaqarasatauavawaxayazaAaBaCaDQtQtQtQtQtQtQtQt",
"QtQtQtQtQt.cQtQtQtQtQtQtQtQtQtQtQtQtQtQtQtQt.A.zaEaFaGaHafaIaJaK.u.E.E####.c.UaL.gafaMaN#saOaPaQaPaQaRaS#EaT.zaUaVQtQtQtQtQtQtQt",
"QtQtQtQtQt.cQtQtQtQtQtQtQtQtQtQtQtQtQtQtQtaWaX.DaYaZa0a1.va2a3a4.T.H######.Ua5a6a7a8a9b.b#babbbcbdbebfbgbh.ybi.sbj.iQtQtQtQtQtQt",
".b.b.b.b.b.c.b.b.b.b.b.b.b.b.b.b.b.b.b.b.d#F.jbk#Qabblbm#ybn#fbo####.Hbobpapbqbr.v.Vbs#9btaObubvbwbxbybz.F.QbAbB.gbC.L.b.b.b.b.b",
".b.b.b.b.b.b.b.b.b.b.b.b.b.b.b.b.b.b.bbDbEbFbGbHbIbJbKbL.vaA.IbobobpbpapbM.o.X.v.ZbNbObPbQaPbRaq.o.v.v.v.vbS#Ja4.o.vbT.b.b.b.b.b",
"QtQtQtQtQtQtQtQtQtQtQtQtQtQtQtQtQtQtQt.IbU#kbVbWbXbYbZb0af.nb1apapapaLb2a7af.vb3bsbOb4b5bKb6.Xafb7b8b9.o.v.vapbMaf.n.o.LQtQtQtQt",
"QtQtQtQtQtQtQtQtQtQtQtQtQtQtQtQtQtQt.ic..Zc#cacbccbYbbcd#c.v.nce.o.Fa7af.va8cfcgchb4cia.cj.Xckclcmcncocpcqcrcs.o.f.nce.JQtQtQtQt",
"QtQtQtQtQtQtQtQtQtQtQtQtQtQtQtQtQtQt.IafctcucvcwaPbbbbbbcxcy.n#yafafa7.V#MczbOchcAcBbQcCcD#8cEcFcGcHcIcJ.n.ncKcLceafcMcNQtQtQtQt",
"QtQtQtQtQtQtQtQtQtQtQtQtQtQtQtQtQtcOcP.FcQcRcScTbbbbbbcUcV#9bsbgcWaMcXcYcZc0c1c2c3bYcdc4a7c5c6c7c8aLcs.v.v.v.v.obqcsb2c9QtQtQtQt",
".i.i.i.i.i.i.i.i.i.i.i.i.i.c.a.a.a.UaAd.d#dadbaPbbbbbbbbbcdc#9dddecZb4dfdgdhdicVcUbbdjdk#ddldmdndobq.v.v.v.v.v.v.v.ndp.o.L.i.i.i",
"QtQtQtQtQtQtQtQtQtQtQtQtQt.iQtQtQt.I.o#YdqdrbcbbbbbbbbbbbbdsdtcBb5dudvdwdxcVbbcUcUdsdy.ZdzdAdBdCdD.o.v.v.v.v.v.v.v.v.v.n.JQtQtQt",
"QtQtQtQtQtQtQtQtQtQtQtQtQt.iQtQtQt.eafdEdFdGdHbbbbbbbbbbbbcUcUaPdIbubbdJcUcUcUbbbbdKdLa7dMdBdNdOdPdQdDdp.v.v.v.v.v.vdp.fdodRdScO",
"QtQtQtQtQtQtQtQtQtQtQtQtQt.iQtQt.b.0a7dTdUdVbbbbbbbbbbbbbbbbcUdWaOdWdXcUcUbbbbbbbbdYdZ.Fd0dBd1d2d3d4d5cs.v.v.v.v.v.v.nd6d7d8d9bT",
"QtQtQtQtQtQtQtQtQtQtQtQtQt.iQtQt.#.g.Fe.bcbbbbbbbbbbbbbbbbbbbbbbbbbbbbbbbbbbbbbbbbbfe#.ZeadBcFdBdBebeced.v.v.v.v.v.v.neeefeg.v.n",
"QtQtQtQtQtQtQtQtQtQtQtQtQt.iQtQt.#breheiejdWbbbbbbbbbbbbbbbbbbbbbbbbbbbbbbbbbbbbbbekelafemendBeoepeceq.o.v.v.v.v.v.v.vercsbM.v#y",
".i.i.i.i.i.i.c.c.a.a.a.a.a.i.a.a##a7eseteuevbbbbbbbbbbbbbbbbbbbbbbbbbbbbbbbbbbbbbbdsew.FexeyezeAcIeBer.v.v.v.v.v#yeC#y.n#y.v.o.0",
"QtQtQtQtQtQt.#.aQtQtQtQtQtQtQtQt.L.XescXeDaPcUbbbbbbbbbbbbbbbbbbbbbbbbbbbbbbbbbbbbbYeE#2dDeFeGeHcqeIeJ.v.v.v.v.v.X.nbpcoeK#y#KQt",
"QtQtQtQtQtQt.#.aQtQtQtQtQtQtQtQt.ibra7aMeLeMeNbbbbbbbbbbbbbbbbbbbbbbbbbbbbbbbbbbbbateOeP.ncpeQeReSeTa5.v.v.v.v#y#yeUeVeWa3#y.eQt",
"QtQtQtQtQtQt.#.aQtQtQtQtQtQtQtQtcNcP#yeXeYeZe0evbbbbbbbbbbbbbbbbbbbbbbbbbbbbbbbbbbbce1e2.i.ve3e4e5b2cLe6.o.v.v.neKe7e8#He9#y.eQt",
"QtQtQtQtQtQt.#.aQtQtQtQtQtQtQtQtQtbD.ga7bNf.dxbacUbbbbbbbbbbbbbbbbbbbbbbbbbbbbbbf#fafbfcfd#7.nbqfe.o.vffaL#y.v.gfgfhfifjfk#y.1Qt",
".#.#.#.#.#.#.#.a.#.#.#.#.#.#.#.#.#.#.EafescXflaRfmbbbbbbbbbbbbbbbbbbbbbbbbbbbbbbfnfofpfqfrfsftfuaffv.v.v.veCbra3fwfxfyfzeKfv.d.#",
".a.a.a.a.a.a.a.a.a.a.a.a.a.a.a.a.a.a.ceK#yeXbOfAdsfBbbbbbbbbbbbbbbbbbbbbbbbbbbfCfDfEfFfGfGfGfHfIfJfKfLaf.oaA.UfMfkfN.TfOfPfQ.i.c",
"QtQtQtQtQtQtQtQtQtQtQtQtQtQtQtQtQtQtQt.LfQ#yfRdffSfTbacUbbbbbbbbbbbbbbbbbbbbbbfCfUfVfWfGfGfGfGfGfGfXfYaf.obqcscsfZ.ges#yf0bDQt.c",
"QtQtQtQtQtQtQtQtQtQtQtQtQtQtQtQtQtQtQtQt.Leha7f1f2f3f4bYdWbbbbbbbbbbbbbbbbbbbbdJf5fofpfGfGfGfGfGfGfGf6f7#y.n.n.nafaf#yeh.JQtQt.c",
"QtQtQtQtQtQtQtQtQtQtQt.pf8agf9QtQtQtQtQtQt.U.5#kg.cXa1flcxbbdWbbbbbbbbbbbbbbbbbbbcg#gafqfGfGfGfGfGfGgbddgcesa7af.veh##.bQtQtQt.c",
"QtQtQtQtQtQtQtQtQtgdge#hfg.Obnc.bD.b.bbD.1bU.5gf#I#jcXcharggghcVbYcUcUbbbbbbbbbbbbdIfagigjfGgkgkglgmgngogpdef2cy.vbnQtQtQtQtQt.c",
"QtQtQtQtQtQtQtQtQtgq.ze9grgsgt#y.FfQfZ.oa7.n.obF.r#I.QguczcZdff3gvdicxejdIbbbbbbbbcUbbgwgxgngygzgAfDcUgBfla1cXbzaf.IQtQtQtQtQt.c",
".a.a.a.a.a.a.a.a.agCgDgE.6fMbUf0#y.nehgFai#Ta7.FfMah#Ge7gGgHa9chgIdff.gJgKgLbtbQdsbbdWbafmgMfCgNf#bcejbtgOb4fR#y.F.d.a.a.a.a.a.i",
"QtQtQtQtQtQtQtQtQtfkgPgQaf.nf0afafeXgRgSgTgUaq.v.FcMgV.r#5gC.tgWgugXgYgZbOg0g1gJg2g3g4g5ekcxeudtg6fAg7g8b4bg.Faf.IQtQtQtQtQtQtQt",
"QtQtQtQtQtQtQtQtQt.f#g#8ceg9eC.veh#ah.h#hahbhchdafa7.5aCgC.z#hhee9hfhg#fhhf1gHhif2a1arhjhkhlf.hmhnhohpbgf1a7#y.e.bQtQtQtQtQtQtQt",
"QtQtQtQtQtQtQtQtQt.v#fapdS#Ka7a7bNdehqhrfmhshthuhv.X.n#2hwaJhxhy.6fkhz.obUhAhA.5bn#ehBhChCbNbNfRf1.Vehaf.vce.ehDQtQtQtQtQtQtQtQt",
"QtQtQtQtQtQtQtQtQt.Y.FeXhEhFhGcWf2eLcxbYbYbbhHc2hIaMeK#y.obBhJ#d.MfReK.fhf.thKbU.v#y#y.v.v#y#y#y#yce.YbCbT.h.bQtQtQtQtQtQtQtQtQt",
"QtQtQtQtQtQtQtQtQt.JafafhLe0hMhNc2btbccUbbcUfCeMhOhmcXf1.W.Faf#y.F.W.ZfM.thPg.hQ.nce.0fQfQfQbC.0bT.I.UbD.bQtQtQtQtQtQtQtQtQtQtQt",
".a.a.a.a.a.a.a.a.a.d.f.5hRhShTbQejfCfCbbbbbbbbcUbuhUhVhjhIbghvhd.Vbzesbh.Og.hWah.o.0.bcOhD.i.i.b.b.b.c.i.a.a.a.a.a.a.a.a.a.a.a.a",
".a.a.a.a.a.a.a.c.i.E.ohXhYhZatbacUbbbbbbbbbbbbbbevfBbccxeDh0h1h2cghpgu#EhPh3h4gV.nc..c.c.a.a.a.a.a.a.a.a.a.a.a.a.a.a.a.a.a.a.a.a",
"QtQtQtQtQtQtQt.a.bbE#yh5h6h7bYbbbbcUcUbbbbbbbbbbbbbbdWbadWhTh8h9i.bPi#gs#kia#5ib.vbT.a.aQtQtQtQtQtQtQtQtQtQtQtQtQtQtQtQtQtQtQtQt",
"QtQtQtQtQtQtQt.a.bic.o#ucvdXbbcUcUbbcUcUcUcUcUcUcUcUcUcUdWfmidaOdWiehp.Vak#h#E.ofP.U.a.aQtQtQtQtQtQtQtQtQtQtQtQtQtQtQtQtQtQtQtQt",
"QtQtQtQtQtQtQt.a.bhgeKifigbbbcaRayg4b#aRcUdXaucUbbbcaRdKejihbbbbdWdicXeh#LbBb2#yfZhD.a.aQtQtQtQtQtQtQtQtQtQtQtQtQtQtQtQtQtQtQtQt",
"QtQtQtQtQtQtQt.a.b#8iiajijbbayflikilbOcieDgLieg6dciminbPbPikiobcaPhqip.V.Zeh.o#y.eQt.a.aQtQtQtQtQtQtQtQtQtQtQtQtQtQtQtQtQtQtQtQt",
"QtQtQtQtQtQtQt.a.b.gaMiqirisitf2hh.F.VfRa9f2iuddbOiuhIhI#Ta8iviwbQf.iuixbz.viy.I.bQt.a.aQtQtQtQtQtQtQtQtQtQtQtQtQtQtQtQtQtQtQtQt",
".c.i.i.i.i.i.i.c.cehizejbbihg8iA.Fa7.n.na7.Fa8.WhdeXeXesa7.v.vc4gharchcziAiBiC.i.i.i.c.c.i.i.i.i.i.i.i.i.i.i.i.i.i.i.i.i.i.i.i.i",
".a.b.b.b.b.b.b.#.##fiDcxdXaRiE.Fesa9iFa7.viG#y.v.v.v.v.vf0c.a7.Xhcddcha9brcPQtQtQtQtQtQtQtQtQtQtQtQtQtQtQtQtQtQtQtQtQtQtQtQtQtQt",
".aQtQtQtQtQtQtQtQt.Va7iHiIh9iJ#y.vhva9bUb2.J.i.H.w.U.h.w.b.w#y.viKiLiMiNa7#8f9QtQtQtQtQtQtQtQtQtQtQtQtQtQtQtQtQtQtQtQtQtQtQtQtQt",
".aQtQtQtQtQtQtQtQteh.v.e#8.VaffQ.g.F.V.Y.o.JQtQtQtQtQtQtQt.I.v.F#y.F.E.5a7bn.bQtQtQtQtQtQtQtQtQtQtQtQtQtQtQtQtQtQtQtQtQtQtQtQtQt",
".aQtQtQtQtQtQtQtQtc..v.F.o.vbr.i.i.gfv#yf0.JQtQtQtQtQtQtQtdS.v.g#y.v.FbUafbn.bQtQtQtQtQtQtQtQtQtQtQtQtQtQtQtQtQtQtQtQtQtQtQtQtQt",
".aQtQtQtQtQtQtQtQt.Jce#yd9.F.wQtQtbDeK.XbU.LQtQtQtQtQtQtQt.hd9ce.fbCf0afaf.IQtQtQtQtQtQtQtQtQtQtQtQtQtQtQtQtQtQtQtQtQtQtQtQtQtQt",
".a.#.#.#.#.#.#.#.#.#.#.#.#.#.#.#.#.#.#.#.#.#.#.#.#.#.#.#.#.#.#.#.#.#.#.a.iQtQtQtQtQtQtQtQtQtQtQtQtQtQtQtQtQtQtQtQtQtQtQtQtQtQtQt",
".c.c.c.c.c.c.c.c.c.c.c.c.c.c.c.c.c.c.c.c.c.c.c.c.c.c.c.c.c.c.c.c.c.c.c.c.c.i.i.i.i.i.i.i.i.i.i.i.i.i.i.c.i.i.i.i.i.i.i.i.i.i.i.i",
"QtQtQtQtQtQtQtQtQtQtQtQtQt.#.aQtQtQtQtQtQtQtQtQtQtQtQtQtQtQtQtQtQtQtQtQtQtQtQtQtQtQtQtQtQtQtQtQtQtQt.b.cQtQtQtQtQtQtQtQtQtQtQtQt",
"QtQtQtQtQtQtQtQtQtQtQtQtQt.#.aQtQtQtQtQtQtQtQtQtQtQtQtQtQtQtQtQtQtQtQtQtQtQtQtQtQtQtQtQtQtQtQtQtQtQt.b.cQtQtQtQtQtQtQtQtQtQtQtQt",
"QtQtQtQtQtQtQtQtQtQtQtQtQt.#.aQtQtQtQtQtQtQtQtQtQtQtQtQtQtQtQtQtQtQtQtQtQtQtQtQtQtQtQtQtQtQtQtQtQtQt.b.cQtQtQtQtQtQtQtQtQtQtQtQt",
"QtQtQtQtQtQtQtQtQtQtQtQtQt.#.aQtQtQtQtQtQtQtQtQtQtQtQtQtQtQtQtQtQtQtQtQtQtQtQtQtQtQtQtQtQtQtQtQtQtQt.b.cQtQtQtQtQtQtQtQtQtQtQtQt",
"QtQtQtQtQtQtQtQtQtQtQtQtQt.#.aQtQtQtQtQtQtQtQtQtQtQtQtQtQtQtQtQtQtQtQtQtQtQtQtQtQtQtQtQtQtQtQtQtQtQt.b.cQtQtQtQtQtQtQtQtQtQtQtQt"};
