/* XPM */
static char *dummy[]={
"64 64 469 2",
".u c #000000",
"dQ c #00011b",
"dy c #000229",
"dK c #0c3124",
"dL c #0d1628",
".s c #161519",
"dM c #17223a",
".N c #1c1500",
"b2 c #1d2131",
".8 c #222126",
".j c #272117",
".4 c #2b0002",
"#C c #2b2000",
"cf c #2b2a30",
".0 c #2f2925",
"ca c #2f313f",
"bW c #300028",
".V c #322915",
"cn c #323138",
".1 c #33001a",
".k c #35312f",
"fr c #360000",
".O c #383023",
"b5 c #38373f",
".i c #391527",
".t c #3b3012",
"bU c #3b3737",
"f. c #3c1518",
"c# c #3e2130",
"#y c #3e362e",
"#g c #403622",
".v c #412126",
"bV c #413c3e",
"du c #432016",
"#d c #432a38",
"aa c #433c36",
".U c #453c2c",
"bK c #454144",
"dv c #46292f",
"c. c #473c20",
"ba c #48413d",
"#B c #4a3037",
".S c #4a4135",
".M c #4c302e",
".W c #4c412b",
"b3 c #4c4543",
"#2 c #4e3023",
".p c #4e373e",
".D c #4e401f",
"bR c #4e453c",
".2 c #503736",
".5 c #504534",
"e6 c #504a49",
"#1 c #52362d",
".o c #523c44",
".C c #52452a",
"b4 c #524a42",
".h c #543c3d",
".Z c #54493b",
".I c #554933",
".K c #563c35",
"e3 c #56414a",
".B c #573c2c",
".A c #574929",
"#c c #574d42",
".6 c #584143",
"bB c #59413c",
".X c #594d3a",
".z c #5b4134",
".7 c #5b4549",
".E c #5b4d32",
"aF c #5b5147",
"bb c #5c5141",
"dc c #5d3745",
".J c #5d4543",
".r c #5e363e",
".y c #5e453c",
".f c #5e4a4e",
".Y c #5e5139",
".F c #5f5131",
"cs c #603c4a",
"dU c #604533",
"#D c #604a48",
"bA c #605547",
"#A c #614942",
"fk c #615540",
".3 c #623c44",
".R c #63493b",
".n c #634e4d",
"dz c #63584c",
".T c #644d48",
"cF c #645430",
".q c #654149",
"dk c #65583f",
".w c #664143",
"#b c #664d41",
".g c #665152",
".H c #674d3a",
".L c #67514d",
".G c #675838",
".l c #68454e",
"dR c #68582f",
"eP c #685b45",
".x c #694549",
"d2 c #694d31",
"#N c #695147",
"aG c #695e55",
".e c #6a4a53",
"fo c #6a5140",
"c0 c #6a5b3f",
"dS c #6a643d",
"dJ c #6b5b37",
"#x c #6b5e4b",
".d c #6c4a4e",
".c c #6d4948",
".m c #6d4e58",
"cW c #6e5440",
"#H c #6e5851",
"cD c #6e5e3e",
".b c #6f4d53",
"#h c #6f614a",
".a c #704d4d",
"bQ c #706144",
"Qt c #715157",
".9 c #716454",
".# c #725152",
"cL c #72583f",
"cg c #72613d",
"fp c #72644f",
"#9 c #735e5a",
"cB c #736135",
"#I c #74555b",
"#O c #746443",
"fs c #755557",
"a# c #77585b",
"bG c #776159",
"bX c #776749",
"#a c #786155",
"ct c #786642",
"br c #79645e",
"b# c #796c5c",
"d3 c #7a6948",
"bv c #7b6459",
"cJ c #7b6942",
"do c #7d613c",
"#f c #7e6449",
"a. c #7e6a65",
"dT c #7e6c47",
"bH c #7f7160",
"fc c #806e4d",
"dV c #816e47",
"ea c #826642",
"eV c #826953",
"#J c #82766b",
"cT c #83714c",
"e4 c #837667",
"eq c #856941",
"bC c #856f60",
"dh c #85713f",
"eK c #857351",
"dP c #857a4f",
"er c #86693a",
"cm c #86734b",
"#8 c #867867",
"bn c #876e57",
"ey c #877345",
"dH c #877555",
"bf c #886e52",
"ce c #887550",
".Q c #887a6a",
"ay c #89754b",
"#z c #897a66",
"b9 c #8a7855",
"dr c #8a7a62",
"bS c #8a7c6d",
"be c #8b6c64",
"cx c #8b7850",
"c7 c #8d7046",
"bo c #8d7667",
"cb c #8d7a54",
"eD c #8d7c62",
"fq c #8e7351",
"#M c #8f7866",
"ff c #8f7a49",
"aH c #8f7a71",
"d4 c #8f7c59",
".P c #8f8170",
"#0 c #907c54",
"#w c #907e61",
"eC c #908377",
"aL c #91736b",
"cI c #917c4e",
"bq c #918373",
"#e c #92715b",
"a7 c #927c71",
"cQ c #927e58",
"#3 c #937c6d",
"dW c #937e53",
"dl c #94805c",
"ch c #957a59",
"c8 c #957e48",
"eG c #958264",
"b6 c #96825c",
"e5 c #968776",
"c6 c #977a49",
"ad c #978174",
"b1 c #978257",
"ej c #99824d",
"cl c #99845b",
"#i c #9b886b",
"dq c #9b8a75",
"c9 c #9c844c",
"ec c #9c8656",
"dg c #9d8651",
"dj c #9d885f",
"ab c #9d8c78",
"fm c #9e885a",
"bT c #9f8879",
"#Z c #9f8c6e",
"dp c #9f8e78",
"cr c #a08a5e",
"#E c #a0907e",
"d5 c #a18a5a",
"az c #a18a7c",
"fn c #a28456",
"ds c #a28a50",
"#R c #a28c5e",
"ae c #a3865a",
"e# c #a38c59",
"bJ c #a38c7e",
"fe c #a58b4f",
"cP c #a68855",
"c5 c #a68d54",
"dD c #a69084",
"bD c #a69580",
"dA c #a69583",
"c1 c #a78f5d",
"ex c #a98a55",
"d1 c #a98c5d",
"fi c #a9915c",
"ci c #a99161",
"#v c #a99576",
"eB c #aa9158",
"aE c #aa9885",
"eM c #ab8b54",
"et c #ab9676",
"dX c #ac885e",
"fd c #ac8d58",
"bw c #ad8f61",
"bz c #ae8f5c",
"cG c #af8f58",
"bL c #af9160",
"d0 c #af965f",
"bY c #af9663",
"d. c #b0965b",
"ef c #b09a72",
"eX c #b19157",
"cu c #b19364",
"aM c #b29360",
"#G c #b2a08c",
"eW c #b2a08f",
"cO c #b39963",
"aI c #b39c8a",
"fh c #b4945b",
"ax c #b59456",
"dw c #b59663",
"dY c #b59b62",
"bu c #b59d8c",
"dB c #b5a28c",
"dn c #b6965a",
"dO c #b69d66",
"cc c #b79863",
"bP c #b79d62",
"#7 c #b7a590",
"eL c #b7a593",
"bc c #b7ab97",
"cE c #b8985e",
"c4 c #b89c5d",
"dZ c #b89e65",
"dI c #b99e61",
"cA c #ba995e",
"dd c #baa065",
"cZ c #baa069",
"eu c #baa37d",
"#j c #baa585",
"dC c #baa895",
"b8 c #bb9b66",
"#Q c #bc9b5d",
"eU c #bca164",
"cy c #bca168",
"#. c #bca995",
"cC c #bd9c61",
"bE c #beab94",
"e. c #bfa46b",
"em c #bfa882",
"bI c #bfac96",
"b. c #bfac99",
"bs c #bfb098",
"ee c #c0a467",
"fb c #c0a77c",
"eE c #c2a164",
"bd c #c2a994",
"## c #c2af9b",
"ez c #c3a76a",
"a6 c #c4a368",
"#S c #c4ad89",
"eA c #c5a966",
"aK c #c5b29d",
"dG c #c6a467",
"bp c #c6b29a",
"fj c #c7a667",
"cS c #c7a66b",
"cR c #c7aa6a",
"ck c #c7ae69",
"#u c #c7b08e",
"bF c #c7b39c",
"b7 c #c8ab6d",
"d6 c #c8b068",
"aA c #c9baa2",
"dN c #caad69",
"cq c #caad6d",
"#L c #cab69e",
"d# c #cba866",
"db c #ccaa69",
"eF c #ccb490",
"#t c #ccb595",
"dE c #cda667",
"#4 c #cdb4a1",
"#F c #cdb8a2",
"c3 c #ceab69",
"e9 c #cead73",
"a8 c #ceb49e",
"av c #ceb797",
"#K c #cebaa2",
"e7 c #cfab65",
"c2 c #cfad6c",
"di c #cfb16b",
"df c #d0ad69",
"#6 c #d0bba4",
"fl c #d1ae6c",
"ac c #d1bdaa",
"cN c #d2ae68",
"b0 c #d2b06f",
"a9 c #d2bda6",
"aC c #d2c1a7",
"d9 c #d3b571",
"#k c #d4bc98",
"aD c #d4bfa5",
"dx c #d5b167",
"aB c #d5c0a7",
"bt c #d5c0a9",
"ei c #d6b26b",
"cz c #d6b26e",
"#5 c #d6c1a9",
"bg c #d7b472",
"d7 c #d7b771",
"ek c #d8af67",
"co c #d8b571",
"aJ c #d8c2a9",
"#s c #d9c19e",
"cd c #dab671",
"cX c #daba70",
"eO c #dac49b",
"da c #dbb66d",
"bm c #dbb774",
"e0 c #dbb97d",
"ed c #dbbb76",
"cK c #dcb76d",
"cw c #dcb770",
"cV c #ddb571",
"cj c #ddb970",
"de c #ddbd73",
"#Y c #ddc4a0",
"bM c #deba73",
"eb c #debe72",
"ep c #dfba70",
"cv c #e0bb73",
"dF c #e0bf72",
"eT c #e0c389",
"#T c #e0c7a1",
"es c #e1b977",
"d8 c #e2b973",
"#P c #e2bc72",
"eZ c #e2c79a",
"bZ c #e3be72",
"#X c #e3c9a1",
"cH c #e4bf75",
"by c #e4c377",
"#l c #e4caa3",
"#r c #e4caa5",
"dm c #e5bf72",
"fa c #e5c389",
"bx c #e5c477",
"au c #e5cba5",
"af c #e6c075",
"cM c #e7be75",
"bO c #e7c174",
"cY c #e7c178",
"aY c #e7c577",
"cp c #e8c377",
"aW c #e8c676",
"aw c #e8c690",
"bi c #e8c77f",
"#q c #e8cea7",
"bj c #e9c270",
"aX c #e9c374",
"eJ c #e9c47a",
"eQ c #e9caa1",
"#m c #e9cfa8",
"bk c #eac473",
"aN c #eac477",
"aZ c #eac57d",
"e8 c #eac87c",
"f# c #eac87f",
"a5 c #eaca88",
"dt c #ebc177",
"aO c #ebc576",
"aV c #ebc57a",
"aU c #ebc680",
"a1 c #ebc788",
"el c #ebcfa0",
"bl c #ecc174",
"ag c #ecc67d",
"a0 c #ecc782",
"aT c #ecc785",
"#o c #ecd5ab",
"bN c #edc676",
"eI c #edc985",
"aP c #edce96",
"eY c #edd09b",
"#p c #edd2aa",
"bh c #eec779",
"eh c #eeca87",
"a2 c #eecb92",
"ap c #eed19d",
"fg c #efc879",
"aS c #efcc92",
"eo c #efcc94",
"a3 c #efd198",
"ar c #efd29f",
"#U c #efd4ab",
"cU c #f0c576",
"ao c #f0d3a1",
"aQ c #f0d7a9",
"aq c #f1d09d",
"eg c #f1d1a6",
"#n c #f1d2ac",
"an c #f1d4a5",
"ew c #f2cf9b",
"as c #f2d19f",
"eS c #f2d49e",
"ah c #f2d5a5",
"aR c #f2d5a7",
"at c #f2d6ab",
"ai c #f2dab0",
"eH c #f3d6a7",
"al c #f3d6a9",
"eR c #f3d7ad",
"e2 c #f3d7af",
"eN c #f4d3a3",
"ak c #f4d7ab",
"#V c #f4d8af",
"aj c #f4d8b1",
"am c #f5d4a7",
"a4 c #f6d5a9",
"#W c #f6d6af",
"e1 c #f6d9ae",
"ev c #f6deb2",
"en c #f7dbb2",
"QtQtQtQtQtQtQtQtQtQtQtQtQt.#.aQtQtQtQtQtQtQtQtQtQtQtQtQtQtQtQtQtQtQtQtQtQtQtQtQtQtQtQtQtQtQtQtQtQtQt.b.cQtQtQtQtQtQtQtQtQtQtQtQt",
".b.b.b.b.b.b.b.b.b.b.b.b.b.a.c.b.b.b.b.b.b.b.b.b.b.b.b.b.b.b.b.b.b.b.b.b.b.b.b.b.b.b.b.b.b.b.b.b.b.b.a.c.b.b.b.b.b.b.b.b.b.b.b.b",
".b.b.b.b.b.b.b.b.b.b.b.b.b.b.b.b.c.a.b.b.b.b.b.b.b.b.b.b.b.b.b.b.b.b.b.b.b.b.b.b.b.b.b.b.b.b.b.b.b.b.b.b.b.b.b.b.c.b.b.b.b.b.b.b",
"QtQtQtQtQtQtQtQtQtQtQtQtQtQtQtQt.d.bQtQtQtQtQtQtQtQtQtQtQtQtQtQtQtQtQtQtQtQtQtQtQtQtQtQtQtQtQtQtQtQtQtQtQtQtQtQt.cQtQtQtQtQtQtQt",
"QtQtQtQtQtQtQtQtQtQtQtQtQtQtQtQt.d.bQtQtQtQtQtQtQtQtQtQtQtQtQtQtQtQtQtQtQtQtQtQtQtQtQtQtQtQtQtQtQtQtQtQtQtQtQtQt.cQtQtQtQtQtQtQt",
"QtQtQtQtQtQtQtQtQtQtQtQtQtQtQtQt.d.bQtQtQtQtQtQtQtQtQtQtQtQtQtQtQtQtQtQtQtQtQtQtQtQtQtQtQtQtQtQtQtQtQtQtQtQtQtQt.cQtQtQtQtQtQtQt",
"QtQtQtQtQtQtQtQtQtQtQtQt.e.f.bQt.d.bQtQtQtQtQtQtQtQtQtQtQtQtQtQtQtQtQtQtQtQtQtQtQtQtQtQtQtQtQtQtQtQtQtQtQtQtQtQt.cQtQtQtQtQtQtQt",
"QtQtQtQtQtQtQtQtQtQt.g.h.i.j.k.l.d.bQtQtQtQtQtQtQtQtQt.m.b.b.b.m.mQtQtQtQtQtQtQtQtQtQtQtQtQtQtQt.n.o.p.h.q.bQtQt.cQtQtQtQtQtQtQt",
".a.a.a.a.a.a.a.a.a.r.k.j.s.t.u.v.w.d.a.a.a.a.x.y.z.A.B.C.D.D.C.E.A.F.G.H.I.z.J.x.d.a.a.a.a.a.a.K.s.u.u.u.s.i.h.c.c.a.a.a.a.a.a.a",
".#.#.#.#.#.c.#.L.M.N.O.P.Q.R.S.u.pQt.#.T.E.U.V.V.j.s.j.W.X.Y.Y.Z.U.0.N.s.j.j.j.1.V.M.L.x.2.q.3.u.4.M.W.y.5.N.u.V.6.a.#.#.#.#.#.#",
"QtQtQtQtQt.c.7.8.u.9#.###a#b#c.j#d#e#f.j.V#g#h#i#j#k#l#m#n#o#p#p#q#r#s#t#u#v#w#x#y.0#z#A.u#B#y#C.R#D#A#E#F#G.9.0.s#y#H#IQtQtQtQt",
"QtQtQtQt.b.M.N.j#J#K#L#M#A#N#N.M#O#P#Q#R#S#T#U#V#V#V#V#V#V#V#W#V#W#V#V#V#V#V#V#U#X#Y#U#Z.W#0#1#2.J#N.R#3#4#5#6#7#8#y.j#9a.a#QtQt",
"QtQtQt.baa.u.iabac#Lad#A#N#N#N.Jaeafagahaiaj#V#Vakalamanaoapaqaqaqarasanamalat#Vaj#Vajauavawaxay.6#N#b#NazaAaBaCaDaEaF.NaGaHQtQt",
"QtQt.b#B.u.SaIaJaKaL.y#N#N#N.T#AaMaNaOaPaQaRaraSaTaUaVaWaWaXaXaXaXaYaNaVaZa0a1a2a3aoaha4aRa5aNa6.J#N#N#b#Aa7#.a8a9aBb.b#.Nba.dQt",
".b.b.2.ubbbcaJbdbe#A#N#N#N#N.JbfbgbhaNaNaUbiaNbjaXaXbkbkaNaNaNaNaNaNaNaNbkaXaXbjblaNaVaTaUbkaNbmbn.3#A#N#b.y#HboaEbpa9aAbq.Naabr",
".b.7.N.Sbsbtbubv.R#N#N#N.T#A#NbwbxaVaNaNaXaXaNaNaNaNaNaNaNaNaNaNaNaNaNaNaNaNaNaNaNbkaXaXbkaNaNbybz.U.0.obA#N#bbB#bbCbDbEbFbq.ubG",
"Qt.2.ubHbIbJ#H#A#N#N#N#AbK#y#ObLbMbNaNaNaNaNaNaNaNaNaNaNaNaNaNaNaNaNaNaNaNaNaNaNaNaNaNaNaNaNaNbObPbQ.u.8bR.T#N#N#b.y#D#abSbT#A.s",
"QtbU#C.TbG.T#A#N#N#N#cbVbW.NbXbYbZaOaNaNaNaNaNaNaNaNaNaNaNaNaNaNaNaNaNaNaNaNaNaNaNaNaNaNaNaNaNaNb0b1.I.ub2b3aF#N#N#N.T#A.J#A.S.u",
"Qt.p.u.h#A.T#N#N.Tb4b5.O.u.5b6b7aVaNaNaNaNaNaNaNaNaNaNaNaNaNaNaNaNaNaNaNaNaNaNaNaNaNaNaNaNaNaNaNafb8b9c..Nc#bK#A.T#N#N#N#N#N.Z.4",
"Qt.7.u#y#N.T#D#c.6ca.O.N.FcbccafaOaNaNaNaNaNaNaNaNaNaNaNaNaNaNaNaNaNaNaNaNaNaNaNaNaNaNaNaNaNaNaNaOcd#Rcec..s.kbKb3b4#c#A#A.T.2.u",
".d.x.0.u#g.hbKbVcf.j.ucgchcicjbNaNaNaNaNaNaNaNaNaNaNaNaNaNaNaNaNaNaNaNaNaNaNaNaNaNaNaNaNaNaNaNaNaNaNckclcm#g.N.j.kb5bUcn.k.V.u.N",
"QtQt.l.0.u.u.N.u.u.Ocmb6cicobNaNaNaNaNaNaNaNaNaNaNaNaNaNaNaNaNaNaNaNaNaNaNaNaNaNaNaNaNaNaNaNaNaNaNaOcpcqcrce.I.u.N.N.N.N.u.u.0cs",
"QtQtQt.g.h.v.k.0.uctclcucvbNaNaNaNaNaNaNaNaNaNaNaNaNaNaNaNaNaNaNaNaNaNaNaNaNaNaNaNaNaNaNaNaNaNaNaNaNaNaOcwb8cl.U.u#2.h.J.J.q.bQt",
"QtQtQtQtQtQtQt.p.ucxcybZbNaNaNaNaNaNaNaNaNaNaNaNaNaNaNaNaNaNaNaNaNaNaNaNaNaNaNaNaNaNaNaNaNaNaNaNaNaNaNaNaOaOcz.E.u.nQtQtQtQtQtQt",
"QtQtQtQtQtQtQt#B.ucAaOaOaNaNaNaNaNaNaNaNaNaNaNaNaNaNaNaNaNaNaNaNaNaNaNaNaNaNaNaNaNaNaNaNaNaNaNaNaNaNaNaNaNaObNcB.u.lQtQtQtQtQtQt",
"QtQtQtQtQtQtQtaa.ucCaNaNaNaNaNaNaNaNaNaNaNaNaNaNaNaNaNaNaNaNaNaNaNaNaNaNaNaNaNaNaNaNaNaNaNaNaNaNaNaNaNaNaNaNaNcD.u.fQtQtQtQtQtQt",
".d.d.d.d.d.d.c.M.ucEaNaNaNaNaNaNaNaNaNaNaNaNaNaNaNaNaNaNaNaNaNaNaNaNaNaNaNaNaNaNaNaNaNaNaNaNaNaNaNaNaNaNaNaNcpcF.u.3.d.d.d.d.d.d",
"QtQtQtQtQtQt.#.K.ucGaNaNaNaNaNaNaNaNaNaNaNaNaNaNaNaNaNaNaNaNaNaNaNaNaNaNaNaNaNaNaNaNaNaNaNaNaNaNaNaNaNaNaNaNcH.A.u.dQtQtQtQtQtQt",
"QtQtQtQtQtQt.#.r.NcIcpaNaNaNaNaNaNaNaNaNaNaNaNaNaNaNaNaNaNaNaNaNaNaNaNaNaNaNaNaNaNaNaNaNaNaNaNaNaNaNaNaNaNaNcjc..s.bQtQtQtQtQtQt",
"QtQtQtQtQtQt.#.3.scJaNaNaNaNaNaNaNaNaNaNaNaNaNaNaNaNaNaNaNaNaNaNaNaNaNaNaNaNaNaNaNaNaNaNaNaNaNaNaNaNaNaNaNaNcK#2.8.mQtQtQtQtQtQt",
"QtQtQtQtQtQt.#.w.scLcMaOaNaNaNaNaNaNaNaNaNaNaNaNaNaNaNaNaNaNaNaNaNaNaNaNaNaNaNaNaNaNaNaNaNaNaNaNaNaNaNaNaNaOcN.t.0QtQtQtQtQtQtQt",
".#.#.#.#.#.#.#.w.sc.cObOaOaNaNaNaNaNaNaNaNaNaNaNaNaNaNaNaNaNaNaNaNaNaNaNaNaNaNaNaNaNaNaNaNaNaNaNaNaNaNaNaObkcP.1.M.#.#.#.#.#.#.#",
".a.a.a.a.a.a.a.c.j.jcQcRbNaNaNaNaNaNaNaNaNaNaNaNaNaNaNaNaNaNaNaNaNaNaNaNaNaNaNaNaNaNaNaNaNaNaNaNaNaNaNaOaOcS.G.u.h.a.a.a.a.a.a.c",
"QtQtQtQtQtQtQtQt.k.ucT#RcobNaNaNaNaNaNaNaNaNaNaNaNaNaNaNaNaNaNaNaNaNaNaNaNaNaNaNaNaNaNaNaNaNaNaNaNaNaNcUcVcQ.O#C.dQtQtQtQtQtQt.c",
"QtQtQtQtQtQtQtQt.o.4cWb6cicXaOaNaNaNaNaNaNaNaNaNaNaNaNaNcpbOafcHcHcHcHbOcpaNaNaNaNaNaNaNaNaNaNaNaNaNaOcYcZc0.ubaQtQtQtQtQtQtQt.c",
"QtQtQtQtQtQtQtQt.e.8.Ncmclc1c2afaOaNaNaNaNaNaNaNaNcpbZcwc3c4c5c6c7c8c9d.d#dacvafaNaNaNaNaNaNaNaNaNaNbkdbcb#g.j.nQtQtQtQtQtQtQt.c",
"QtQtQtQtQtQtQtQtQtdc.uc.#0b6cldddeaOaOaNaNaNaNaN#Pdfdg.F.u.u.j.t#g#g.V.N.uc.dhcCcdafaNaNaNaNaNaNaOaOdidjdk.u.p.mQtQtQtQtQtQtQt.c",
"QtQtQtQtQtQtQtQtQtQt#B.u.OcTb6dlcib0dmaOaOaNcXdndo.j.N.j.8#y.Z.RbAdpbDdqdr.R.t.u.DdsczaNaNaOaOaOdtc2crcTdu.s.lQtQtQtQtQtQtQtQt.c",
".a.a.a.a.a.a.a.a.a.a.cdv.u.NcD#0b6djdwdfbOdxdo.u.V.sdyaa.Zaaba.5dzdAdBdCb.dD.J.M#g.u.EdEaNaXaNdFdGdjdH#2.u.2.a.a.a.a.a.a.a.a.a.d",
"QtQtQtQtQtQtQtQtQtQtQt.b.h.j.u#y#Ocbdlb6dIdJ.NdKdL.S.G.E.V.u.u.u.u.u.u.u.ObbbR#ddM.8.N.AdNdddGdOb1cb.W.u#y.bQtQtQtQtQtQtQtQtQtQt",
"QtQtQtQtQtQtQtQtQtQtQtQtQt.J#B.u.u.UcDdPcJ.udQ.O.t.u.tdRcgdSctdT#Oc0.Gc0dU.j.u.j#ybU.s.uayb1clb1dT.U.u.k.eQtQtQtQtQtQtQtQtQtQtQt",
"QtQtQtQtQtQtQtQtQtQtQtQtQt.d.d.7#y.u.u.0.j.u.N.u.FdVcedPdWdXdwdYbPdZd0d1clcebQ.U.u.V.0.Nd2b9d3.E.j.udv.lQtQtQtQtQtQtQtQtQtQtQtQt",
"QtQtQtQtQtQtQtQtQtQtQtQtQt.d.bQt.b.f.p.1.u.uc.cTd4d5cOd6d7cvafcYcYcYaf#Pd8d9e.e#ea.j.u.u.s.O.s.u.v.6.c.bQtQtQtQtQtQtQtQtQtQtQtQt",
"QtQtQtQtQtQtQtQtQtQtQtQtQt.d.bQtQtQt.m.h.N.u.GcrdbebbOaOaOaOaOaOaOaOaOaOaOaOcpafdaec.V.u.u.8aa.J.gQt.a.bQtQtQtQtQtQtQtQtQtQtQtQt",
".a.a.a.a.a.a.a.a.a.a.a.a.a.x.d.b.b.b.bdv.u.u.Fd5edbhaOaNaNaNaNaNaNaNaNcp#P#PbOaOaOcYee.Vdv.d.e.b.b.b.c.d.a.a.a.a.a.a.a.a.a.a.a.a",
".a.a.a.a.a.a.a.c.d.a.a.a.a.b.b.b.b.b.q.0.t.N.WefegehaXaNaNaNaNaNaNaNcpei.F.AdJejekaZelcW.j.T.a.a.a.a.a.a.a.a.a.a.a.a.a.a.a.a.a.a",
"QtQtQtQtQtQtQt.a.bQtQtQtQtQtQtQtQtQt.6.N.5.V.VemeneobjaNaNaNaNaNcHdmbkepeq.u.V.jeresalet.u.6QtQtQtQtQtQtQtQtQtQtQtQtQtQtQtQtQtQt",
"QtQtQtQtQtQtQt.a.bQtQtQtQtQtQtQtQtQt.7.N.j.N.jeuevewbjaNaNaNaNbNexeyezeAeB.seCeD.ueEaheF.saaQtQtQtQtQtQtQtQtQtQtQtQtQtQtQtQtQtQt",
"QtQtQtQtQtQtQt.a.bQtQtQtQtQtQtQtQtQt.b.k.j.j.seG#VeHeIeJcpcpcpcKdR.jdTeKbQ#yeL#v.ueMeNeO.VdvQtQtQtQtQtQtQtQtQtQtQtQtQtQtQtQtQtQt",
"QtQtQtQtQtQtQt.a.bQtQtQtQtQtQtQtQtQtQt.g.q.h.uePeQeneReSeTeUcGeV.R.j.u.u.0bqeWbQ.ueXeYeZ.t.vQtQtQtQtQtQtQtQtQtQtQtQtQtQtQtQtQtQt",
"QtQtQtQtQtQtQt.a.bQtQtQtQtQtQtQtQtQtQtQtQtcs.uc.e0eNe1e2#u.G.W.Je3.K.U#Ae4e5e6.O#ge7e8e9f..0QtQtQtQtQtQtQtQtQtQtQtQtQtQtQtQtQtQt",
".c.d.d.d.d.d.d.c.c.d.d.d.d.d.d.d.d.d.d.d.d.2.udR#Pf#fafbfc.V.Nba#A#c#cba.2.0dQ.NfdcYaOfe.uc#.d.d.d.d.d.d.d.d.d.d.d.d.d.d.d.d.d.d",
".a.b.b.b.b.b.b.#.#.b.b.b.b.b.b.b.b.b.b.b.b.y.Nfffg#Pfhcx.C.u.u.jbUaabU.k.8.u.u.VficYfj.C.u.7QtQtQtQtQtQtQtQtQtQtQtQtQtQtQtQtQtQt",
".aQtQtQtQtQtQtQtQtQtQtQtQtQtQtQtQtQtQtQtQtfk.jffcdflfmcJ.u.k.k.u.u.N.u.u.uc#.h.j.Hfnfo.Ncf.mQtQtQtQtQtQtQtQtQtQtQtQtQtQtQtQtQtQt",
".aQtQtQtQtQtQtQtQtQtQtQtQtQtQtQtQtQtQtQtQt#y.ubRfpfqctfr.j#D.b.6#B.k#y.2.6.b.g.U.Ndv.j.u.qQtQtQtQtQtQtQtQtQtQtQtQtQtQtQtQtQtQtQt",
".aQtQtQtQtQtQtQtQtQtQtQtQtQtQtQtQtQtQtQtQtdv.u.O.8.j.u.s.3QtQtQt.m.b.b.a.dQtQt.T.s.u.u.hQtQtQtQtQtQtQtQtQtQtQtQtQtQtQtQtQtQtQtQt",
".aQtQtQtQtQtQtQtQtQtQtQtQtQtQtQtQtQtQtQtQt.f.j.N.u.udv.fQtQtQtQtQtQtQt.a.dQtQtfs#Daa.qQtQtQtQtQtQtQtQtQtQtQtQtQtQtQtQtQtQtQtQtQt",
".a.#.#.#.#.#.#.#.#.#.#.#.#.#.#.#.#.#.#.#.#.#.x.h.J.T.#.#.#.#.#.#.#.#.#.a.dQtQtQtQtQtQtQtQtQtQtQtQtQtQtQtQtQtQtQtQtQtQtQtQtQtQtQt",
".c.c.c.c.c.c.c.c.c.c.c.c.c.c.c.c.c.c.c.c.c.c.c.c.c.c.c.c.c.c.c.c.c.c.c.c.c.d.d.d.d.d.d.d.d.d.d.d.d.d.d.c.d.d.d.d.d.d.d.d.d.d.d.d",
"QtQtQtQtQtQtQtQtQtQtQtQtQt.#.aQtQtQtQtQtQtQtQtQtQtQtQtQtQtQtQtQtQtQtQtQtQtQtQtQtQtQtQtQtQtQtQtQtQtQt.b.cQtQtQtQtQtQtQtQtQtQtQtQt",
"QtQtQtQtQtQtQtQtQtQtQtQtQt.#.aQtQtQtQtQtQtQtQtQtQtQtQtQtQtQtQtQtQtQtQtQtQtQtQtQtQtQtQtQtQtQtQtQtQtQt.b.cQtQtQtQtQtQtQtQtQtQtQtQt",
"QtQtQtQtQtQtQtQtQtQtQtQtQt.#.aQtQtQtQtQtQtQtQtQtQtQtQtQtQtQtQtQtQtQtQtQtQtQtQtQtQtQtQtQtQtQtQtQtQtQt.b.cQtQtQtQtQtQtQtQtQtQtQtQt",
"QtQtQtQtQtQtQtQtQtQtQtQtQt.#.aQtQtQtQtQtQtQtQtQtQtQtQtQtQtQtQtQtQtQtQtQtQtQtQtQtQtQtQtQtQtQtQtQtQtQt.b.cQtQtQtQtQtQtQtQtQtQtQtQt",
"QtQtQtQtQtQtQtQtQtQtQtQtQt.#.aQtQtQtQtQtQtQtQtQtQtQtQtQtQtQtQtQtQtQtQtQtQtQtQtQtQtQtQtQtQtQtQtQtQtQt.b.cQtQtQtQtQtQtQtQtQtQtQtQt"};
