/* XPM */
static char *dummy[]={
"64 64 515 2",
".w c #000000",
"eo c #00011b",
"d8 c #000229",
"eh c #0c3124",
"ei c #0d1628",
".R c #161519",
"ek c #17223a",
"bU c #1c1500",
"cq c #1d2131",
"ce c #222126",
".j c #272117",
"#j c #2b0002",
"#W c #2b2000",
"cK c #2b2a30",
"#S c #2f2925",
"cD c #2f313f",
"cj c #300028",
"#e c #322915",
"cS c #323138",
"#f c #33001a",
".k c #35312f",
"cv c #383023",
"cu c #38373f",
".i c #391527",
".v c #3b3012",
"ch c #3b3737",
"fr c #3c1518",
"cC c #3e2130",
"#R c #3e362e",
"cJ c #403622",
".x c #412126",
"ci c #413c3e",
"d4 c #432016",
"#w c #432a38",
"bV c #433c36",
"b5 c #453c2c",
"b9 c #454144",
"d5 c #46292f",
"cB c #473c20",
"g# c #482924",
".u c #48413d",
"#V c #4a3037",
".1 c #4a4135",
"#g c #4c302e",
"al c #4c412b",
"cr c #4c4543",
"ao c #4e3023",
".p c #4e373e",
"cf c #4e453c",
"#h c #503736",
"cw c #504534",
"fN c #504a49",
"an c #52362d",
".o c #523c44",
"ct c #524a42",
"ga c #542025",
"fL c #543621",
".h c #543c3d",
".3 c #54493b",
"cp c #554933",
".Q c #563c35",
"fM c #56414a",
"db c #574929",
"#v c #574d42",
"aZ c #584143",
".O c #59413c",
"bC c #594d3a",
".B c #5b4134",
"bW c #5b4549",
".2 c #5b4d32",
"cs c #5b5147",
"ej c #5c5141",
"dI c #5d3745",
".P c #5d4543",
".r c #5e363e",
".A c #5e453c",
".f c #5e4a4e",
"f7 c #5e5139",
"cE c #5f5131",
"cX c #603c4a",
"es c #604533",
"#X c #604a48",
"#d c #605547",
"fF c #614529",
"#U c #614942",
"#i c #623c44",
".0 c #63493b",
".n c #634e4d",
"d9 c #63584c",
".W c #644d48",
"d. c #645430",
"dY c #645846",
".q c #654149",
"dT c #65583f",
".y c #664143",
"#u c #664d41",
".g c #665152",
"bX c #665b51",
".V c #67514d",
"dn c #675838",
"d1 c #675b4b",
".l c #68454e",
"ep c #68582f",
"fs c #685b45",
".z c #694549",
"eA c #694d31",
"a. c #695147",
"#4 c #695557",
".s c #695e55",
".e c #6a4a53",
"dv c #6a5b3f",
"eq c #6a643d",
"eg c #6b5b37",
"#Q c #6b5e4b",
"az c #6b615a",
".d c #6c4a4e",
".c c #6d4948",
".m c #6d4e58",
"fE c #6d5e45",
"dr c #6e5440",
"bQ c #6e5851",
"c8 c #6e5e3e",
".4 c #6e6150",
".b c #6f4d53",
".a c #704d4d",
"cd c #706144",
"Qt c #715157",
".C c #715846",
".# c #725152",
"df c #72583f",
"cL c #72613d",
".N c #72644f",
"c6 c #736135",
"a7 c #736759",
"#3 c #74555b",
"a# c #746443",
"a5 c #746a61",
"fK c #75643c",
"eT c #76674e",
"ay c #77585b",
"#2 c #776159",
"ck c #776749",
"dN c #776958",
"#t c #786155",
"cY c #786642",
"#o c #79645e",
"eB c #7a6948",
"#p c #7a6f64",
"b0 c #7b6459",
"dd c #7b6942",
"dX c #7d613c",
".D c #7d6f5c",
"#y c #7e6449",
"ax c #7e6a65",
"er c #7e6c47",
".S c #7e7164",
"#z c #7f7160",
"aw c #816c65",
"et c #816e47",
"#c c #817363",
"eJ c #826642",
"fz c #826953",
"do c #83714c",
"#a c #837667",
"## c #847663",
"e2 c #856941",
"b6 c #856f60",
"fl c #857351",
".U c #85786b",
"en c #857a4f",
"f5 c #866c4d",
"cR c #86734b",
"bP c #876e57",
"f# c #877345",
"ee c #877555",
"bH c #886e52",
"cI c #887550",
".t c #887a6a",
"aY c #89754b",
"#T c #897a66",
"cA c #8a7855",
"cg c #8a7c6d",
"bG c #8b6c64",
"c2 c #8b7850",
".5 c #8b7c6a",
"bR c #8d7667",
"cF c #8d7a54",
"#b c #8d7e6d",
"#. c #8e7e69",
"#9 c #8f7866",
"f9 c #8f7a49",
"a6 c #8f7a71",
"eC c #8f7c59",
"bD c #8f8170",
"#Z c #907a6e",
"am c #907c54",
"#P c #907e61",
".E c #90806d",
"fd c #908377",
"bb c #91736b",
"dc c #917c4e",
"#A c #918069",
"bT c #918373",
"#x c #92715b",
"dC c #92754a",
"bx c #927c71",
"dk c #927e58",
"au c #928370",
"g. c #937855",
"ap c #937c6d",
"eu c #937e53",
"dU c #94805c",
"cM c #957a59",
"f6 c #958053",
"fW c #958058",
"fh c #958264",
"cx c #96825c",
"#k c #968776",
"dB c #977a49",
"aD c #978174",
"co c #978257",
".9 c #978673",
"dP c #988460",
"fn c #988876",
"#1 c #988879",
"fR c #99824d",
"d0 c #998373",
"cQ c #99845b",
".M c #9a8270",
"dD c #9a8456",
"eU c #9a886f",
"f0 c #9b8451",
".8 c #9b8a75",
"eM c #9c8656",
"dM c #9d8651",
"dS c #9d885f",
".F c #9d8c78",
".7 c #9e8e7b",
"#5 c #9f8879",
"ak c #9f8c6e",
"cW c #a08a5e",
".6 c #a0907e",
"dE c #a18a5a",
"a0 c #a18a7c",
"dO c #a1907b",
"d2 c #a28a50",
"ac c #a28c5e",
"av c #a2927d",
".Z c #a29281",
"aE c #a3865a",
"eI c #a38c59",
"a9 c #a38c7e",
"dZ c #a3917a",
".X c #a49380",
"eV c #a58f65",
"dj c #a68855",
"dA c #a68d54",
"ea c #a69084",
"#B c #a69377",
"fe c #a6937a",
"aB c #a69580",
"e. c #a69583",
"dw c #a78f5d",
".T c #a79785",
"#n c #a89783",
"f. c #a98a55",
"ez c #a98c5d",
"cN c #a99161",
"#O c #a99576",
".G c #a99780",
"fc c #aa9158",
".L c #aa9882",
"#0 c #aa9885",
"e6 c #ab9676",
"ev c #ac885e",
"fX c #ac8d58",
"fy c #ac9357",
"a8 c #ac9a85",
"b1 c #ad8f61",
".H c #ad9c87",
"b4 c #ae8f5c",
"d# c #af8f58",
"c. c #af9160",
"ey c #af965f",
"cl c #af9663",
"eP c #b09a72",
"cZ c #b19364",
"f3 c #b1985f",
"aA c #b19a8a",
".J c #b19f89",
"f2 c #b2935b",
"bc c #b29360",
"e4 c #b2987f",
".Y c #b2a08c",
"fA c #b2a08f",
"di c #b39963",
".K c #b3a089",
"dF c #b49b66",
"fB c #b49b6a",
"aX c #b59456",
"d6 c #b59663",
"ew c #b59b62",
"b. c #b59d8c",
".I c #b5a28c",
"dW c #b6965a",
"em c #b69d66",
"#l c #b6a38e",
"cG c #b79863",
"cc c #b79d62",
"at c #b7a590",
"fm c #b7a593",
"bE c #b7ab97",
"c9 c #b8985e",
"dz c #b89c5d",
"ex c #b89e65",
"ef c #b99e61",
"#q c #b9a690",
"c5 c #ba995e",
"f4 c #ba9e5d",
"dJ c #baa065",
"du c #baa069",
"e7 c #baa37d",
"e# c #baa895",
"cz c #bb9b66",
"fo c #bb9e7a",
"fx c #bba061",
"#6 c #bba892",
"ab c #bc9b5d",
"c3 c #bca168",
"by c #bca995",
"c7 c #bd9c61",
"#C c #bda888",
"#r c #bdab97",
"dQ c #be9e69",
"#m c #beab94",
"eH c #bfa46b",
"eY c #bfa882",
"b8 c #bfac96",
"bB c #bfac99",
"bY c #bfb098",
"eO c #c0a467",
"fV c #c0a77c",
"bF c #c2a994",
"#s c #c2af9b",
"fa c #c3a76a",
"e3 c #c3af98",
"bw c #c4a368",
"ad c #c4ad89",
"fb c #c5a966",
"ba c #c5b29d",
"ed c #c6a467",
"bS c #c6b29a",
"dm c #c7a66b",
"dl c #c7aa6a",
"cP c #c7ae69",
"#N c #c7b08e",
"b7 c #c7b39c",
"cy c #c8ab6d",
"eD c #c8b068",
"ff c #c9aa7e",
"a1 c #c9baa2",
"el c #caad69",
"cV c #caad6d",
"#8 c #cab69e",
"dH c #ccaa69",
"dG c #ccaa6d",
"fO c #ccae68",
"fg c #ccb490",
"#M c #ccb595",
"eb c #cda667",
"aq c #cdb4a1",
"fJ c #cdb592",
"#Y c #cdb8a2",
"dy c #ceab69",
"bz c #ceb49e",
"aV c #ceb797",
"#7 c #cebaa2",
"dx c #cfad6c",
"dR c #cfb16b",
"dL c #d0ad69",
"as c #d0bba4",
"aC c #d1bdaa",
"fZ c #d2aa65",
"dh c #d2ae68",
"cn c #d2b06f",
"bA c #d2bda6",
"a3 c #d2c1a7",
"eG c #d3b571",
"#D c #d4bc98",
"a4 c #d4bfa5",
"d7 c #d5b167",
"a2 c #d5c0a7",
"bZ c #d5c0a9",
"eS c #d6b26b",
"c4 c #d6b26e",
"ar c #d6c1a9",
"f8 c #d7b46e",
"bI c #d7b472",
"eE c #d7b771",
"eW c #d8af67",
"cT c #d8b571",
"b# c #d8c2a9",
"fq c #d8c39b",
"#L c #d9c19e",
"cH c #dab671",
"ds c #daba70",
"eL c #dbb66d",
"bO c #dbb774",
"eN c #dbbb76",
"de c #dcb76d",
"c1 c #dcb770",
"dq c #ddb571",
"fQ c #ddb67b",
"cO c #ddb970",
"dK c #ddbd73",
"aj c #ddc4a0",
"c# c #deba73",
"eK c #debe72",
"e1 c #dfba70",
"c0 c #e0bb73",
"ec c #e0bf72",
"fw c #e0c389",
"ae c #e0c7a1",
"e5 c #e1b97a",
"eF c #e2b973",
"f1 c #e2bc6f",
"aa c #e2bc72",
"fG c #e2bf85",
"fD c #e2c79a",
"cm c #e3be72",
"ai c #e3c9a1",
"da c #e4bf75",
"b3 c #e4c377",
"#E c #e4caa3",
"#K c #e4caa5",
"dV c #e5bf72",
"fY c #e5c078",
"fU c #e5c389",
"b2 c #e5c477",
"aU c #e5cba5",
"aF c #e6c075",
"dg c #e7be75",
"cb c #e7c174",
"dt c #e7c178",
"bo c #e7c577",
"cU c #e8c377",
"bm c #e8c676",
"aW c #e8c690",
"bK c #e8c77f",
"#J c #e8cea7",
"bL c #e9c270",
"bn c #e9c374",
"fk c #e9c47a",
"fP c #e9c77c",
"ft c #e9caa1",
"#F c #e9cfa8",
"bM c #eac473",
"bd c #eac477",
"bp c #eac57d",
"fT c #eac87c",
"bv c #eaca88",
"d3 c #ebc177",
"be c #ebc576",
"bl c #ebc57a",
"bk c #ebc680",
"br c #ebc788",
"eX c #ebcfa0",
"bN c #ecc174",
"aG c #ecc67d",
"bq c #ecc782",
"bj c #ecc785",
"#H c #ecd5ab",
"ca c #edc676",
"fj c #edc985",
"bf c #edce96",
"fC c #edd09b",
"#I c #edd2aa",
"bJ c #eec779",
"eR c #eeca87",
"bs c #eecb92",
"aP c #eed19d",
"fS c #efc879",
"bi c #efcc92",
"e0 c #efcc94",
"bt c #efd198",
"aR c #efd29f",
"af c #efd4ab",
"dp c #f0c576",
"aO c #f0d3a1",
"bg c #f0d7a9",
"aQ c #f1d09d",
"eQ c #f1d1a6",
"#G c #f1d2ac",
"aN c #f1d4a5",
"e9 c #f2cf9b",
"aS c #f2d19f",
"fv c #f2d49e",
"aH c #f2d5a5",
"bh c #f2d5a7",
"aT c #f2d6ab",
"aI c #f2dab0",
"fi c #f3d6a7",
"aL c #f3d6a9",
"fu c #f3d7ad",
"fI c #f3d7af",
"fp c #f4d3a3",
"aK c #f4d7ab",
"ag c #f4d8af",
"aJ c #f4d8b1",
"aM c #f5d4a7",
"bu c #f6d5a9",
"ah c #f6d6af",
"fH c #f6d9ae",
"e8 c #f6deb2",
"eZ c #f7dbb2",
"QtQtQtQtQtQtQtQtQtQtQtQtQt.#.aQtQtQtQtQtQtQtQtQtQtQtQtQtQtQtQtQtQtQtQtQtQtQtQtQtQtQtQtQtQtQtQtQtQtQt.b.cQtQtQtQtQtQtQtQtQtQtQtQt",
".b.b.b.b.b.b.b.b.b.b.b.b.b.a.c.b.b.b.b.b.b.b.b.b.b.b.b.b.b.b.b.b.b.b.b.b.b.b.b.b.b.b.b.b.b.b.b.b.b.b.a.c.b.b.b.b.b.b.b.b.b.b.b.b",
".b.b.b.b.b.b.b.b.b.b.b.b.b.b.b.b.c.a.b.b.b.b.b.b.b.b.b.b.b.b.b.b.b.b.b.b.b.b.b.b.b.b.b.b.b.b.b.b.b.b.b.b.b.b.b.b.c.b.b.b.b.b.b.b",
"QtQtQtQtQtQtQtQtQtQtQtQtQtQtQtQt.d.bQtQtQtQtQtQtQtQtQtQtQtQtQtQtQtQtQtQtQtQtQtQtQtQtQtQtQtQtQtQtQtQtQtQtQtQtQtQt.cQtQtQtQtQtQtQt",
"QtQtQtQtQtQtQtQtQtQtQtQtQtQtQtQt.d.bQtQtQtQtQtQtQtQtQtQtQtQtQtQtQtQtQtQtQtQtQtQtQtQtQtQtQtQtQtQtQtQtQtQtQtQtQtQt.cQtQtQtQtQtQtQt",
"QtQtQtQtQtQtQtQtQtQtQtQtQtQtQtQt.d.bQtQtQtQtQtQtQtQtQtQtQtQtQtQtQtQtQtQtQtQtQtQtQtQtQtQtQtQtQtQtQtQtQtQtQtQtQtQt.cQtQtQtQtQtQtQt",
"QtQtQtQtQtQtQtQtQtQtQtQt.e.f.bQt.d.bQtQtQtQtQtQtQtQtQtQtQtQtQtQtQtQtQtQtQtQtQtQtQtQtQtQtQtQtQtQtQtQtQtQtQtQtQtQt.cQtQtQtQtQtQtQt",
"QtQtQtQtQtQtQtQtQtQt.g.h.i.j.k.l.d.bQtQtQtQtQtQtQtQtQt.m.b.b.b.m.mQtQtQtQtQtQtQtQtQtQtQtQtQtQtQt.n.o.p.h.q.bQtQt.cQtQtQtQtQtQtQt",
".a.a.a.a.a.a.a.a.a.r.s.t.u.v.w.x.y.d.a.a.a.a.z.A.B.C.D.E.F.G.H.I.J.K.L.M.N.O.P.z.d.a.a.a.a.a.a.Q.R.j.S.H.T.U.V.c.c.a.a.a.a.a.a.a",
".#.#.#.#.#.c.#.a.W.X.Y.Z.t.0.1.w.pQt.#.W.2.3.4.5.6.X.7.8.9.E#..t###a.t#b#c#d#e#f#e#g.V.z#h.q#i.w#j#g.Q.4#k#l#m#n#o.b.#.#.#.#.#.#",
"QtQtQtQtQt.c.l#p#q.J#r#s#t#u#v.j#w#x#y.j.3#z#A#B#C#D#E#F#G#H#I#I#J#K#L#M#N#O#P#Q#R#S#T#U.w#V#R#W.0#X#U.6#Y.I#Z#0#m#1#2#3QtQtQtQt",
"QtQtQtQt#4.W#5#6.X#7#8#9#Ua.a.#ga#aaabacadaeafagagagagagagagahagahagagagagagagafaiajafakalamanao.Pa..0apaqarasatauav.7awaxayQtQt",
"QtQtQt.baz.HaAaBaC#8aD#Ua.a.a..PaEaFaGaHaIaJagagaKaLaMaNaOaPaQaQaQaRaSaNaMaLaTagaJagaJaUaVaWaXaYaZa.#ua.a0a1a2a3a4#0#a#ca5a6QtQt",
"QtQt.ba7a8a9b.b#babb.Aa.a.a..W#UbcbdbebfbgbhaRbibjbkblbmbmbnbnbnbnbobdblbpbqbrbsbtaOaHbubhbvbdbw.Pa.a.#u#UbxbybzbAa2bB#zbC.u.dQt",
".b.b#hbDaDbEb#bFbG#Ua.a.a.a..PbHbIbJbdbdbkbKbdbLbnbnbMbMbdbdbdbdbdbdbdbdbMbnbnbLbNbdblbjbkbMbdbObP#i#Ua.#u.AbQbR#0bSbAa1bTbUbV#o",
".bbWbUbXbYbZb.b0.0a.a.a..W#Ua.b1b2blbdbdbnbnbdbdbdbdbdbdbdbdbdbdbdbdbdbdbdbdbdbdbdbMbnbnbMbdbdb3b4b5#S.o#da.#u.O#ub6aB#mb7bT.w#2",
"Qt#h.w#zb8a9bQ#Ua.a.a.#Ub9#Ra#c.c#cabdbdbdbdbdbdbdbdbdbdbdbdbdbdbdbdbdbdbdbdbdbdbdbdbdbdbdbdbdcbcccd.wcecf.Wa.a.#u.A#X#tcg#5#U.R",
"Qtch#W.W#2.W#Ua.a.a.#vcicjbUckclcmbebdbdbdbdbdbdbdbdbdbdbdbdbdbdbdbdbdbdbdbdbdbdbdbdbdbdbdbdbdbdcncocp.wcqcrcsa.a.a..W#U.P#U.1.w",
"Qt.p.w.h#U.Wa.a..Wctcucv.wcwcxcyblbdbdbdbdbdbdbdbdbdbdbdbdbdbdbdbdbdbdbdbdbdbdbdbdbdbdbdbdbdbdbdaFczcAcBbUcCb9#U.Wa.a.a.a.a..3#j",
"QtbW.w#Ra..W#X#vaZcDcvbUcEcFcGaFbebdbdbdbdbdbdbdbdbdbdbdbdbdbdbdbdbdbdbdbdbdbdbdbdbdbdbdbdbdbdbdbecHaccIcB.R.kb9crct#v#U#U.W#h.w",
".d.z#S.wcJ.hb9cicK.j.wcLcMcNcOcabdbdbdbdbdbdbdbdbdbdbdbdbdbdbdbdbdbdbdbdbdbdbdbdbdbdbdbdbdbdbdbdbdbdcPcQcRcJbU.j.kcuchcS.k#e.wbU",
"QtQt.l#S.w.wbU.w.wcvcRcxcNcTcabdbdbdbdbdbdbdbdbdbdbdbdbdbdbdbdbdbdbdbdbdbdbdbdbdbdbdbdbdbdbdbdbdbdbecUcVcWcIcp.wbUbUbUbU.w.w#ScX",
"QtQtQt.g.h.x.k#S.wcYcQcZc0cabdbdbdbdbdbdbdbdbdbdbdbdbdbdbdbdbdbdbdbdbdbdbdbdbdbdbdbdbdbdbdbdbdbdbdbdbdbec1czcQb5.wao.h.P.P.q.bQt",
"QtQtQtQtQtQtQt.p.wc2c3cmcabdbdbdbdbdbdbdbdbdbdbdbdbdbdbdbdbdbdbdbdbdbdbdbdbdbdbdbdbdbdbdbdbdbdbdbdbdbdbdbebec4.2.w.nQtQtQtQtQtQt",
"QtQtQtQtQtQtQt#V.wc5bebebdbdbdbdbdbdbdbdbdbdbdbdbdbdbdbdbdbdbdbdbdbdbdbdbdbdbdbdbdbdbdbdbdbdbdbdbdbdbdbdbdbecac6.w.lQtQtQtQtQtQt",
"QtQtQtQtQtQtQtbV.wc7bdbdbdbdbdbdbdbdbdbdbdbdbdbdbdbdbdbdbdbdbdbdbdbdbdbdbdbdbdbdbdbdbdbdbdbdbdbdbdbdbdbdbdbdbdc8.w.fQtQtQtQtQtQt",
".d.d.d.d.d.d.c#g.wc9bdbdbdbdbdbdbdbdbdbdbdbdbdbdbdbdbdbdbdbdbdbdbdbdbdbdbdbdbdbdbdbdbdbdbdbdbdbdbdbdbdbdbdbdcUd..w#i.d.d.d.d.d.d",
"QtQtQtQtQtQt.#.Q.wd#bdbdbdbdbdbdbdbdbdbdbdbdbdbdbdbdbdbdbdbdbdbdbdbdbdbdbdbdbdbdbdbdbdbdbdbdbdbdbdbdbdbdbdbddadb.w.dQtQtQtQtQtQt",
"QtQtQtQtQtQt.#.rbUdccUbdbdbdbdbdbdbdbdbdbdbdbdbdbdbdbdbdbdbdbdbdbdbdbdbdbdbdbdbdbdbdbdbdbdbdbdbdbdbdbdbdbdbdcOcB.R.bQtQtQtQtQtQt",
"QtQtQtQtQtQt.##i.Rddbdbdbdbdbdbdbdbdbdbdbdbdbdbdbdbdbdbdbdbdbdbdbdbdbdbdbdbdbdbdbdbdbdbdbdbdbdbdbdbdbdbdbdbddeaoce.mQtQtQtQtQtQt",
"QtQtQtQtQtQt.#.y.Rdfdgbebdbdbdbdbdbdbdbdbdbdbdbdbdbdbdbdbdbdbdbdbdbdbdbdbdbdbdbdbdbdbdbdbdbdbdbdbdbdbdbdbdbedh.v#SQtQtQtQtQtQtQt",
".#.#.#.#.#.#.#.y.RcBdicbbebdbdbdbdbdbdbdbdbdbdbdbdbdbdbdbdbdbdbdbdbdbdbdbdbdbdbdbdbdbdbdbdbdbdbdbdbdbdbdbebMdj#f#g.#.#.#.#.#.#.#",
".a.a.a.a.a.a.a.c.j.jdkdlcabdbdbdbdbdbdbdbdbdbdbdbdbdbdbdbdbdbdbdbdbdbdbdbdbdbdbdbdbdbdbdbdbdbdbdbdbdbdbebedmdn.w.h.a.a.a.a.a.a.c",
"QtQtQtQtQtQtQtQt.k.wdoaccTcabdbdbdbdbdbdbdbdbdbdbdbdbdbdbdbdbdbdbdbdbdbdbdbdbdbdbdbdbdbdbdbdbdbdbdbdbddpdqdkcv#W.dQtQtQtQtQtQt.c",
"QtQtQtQtQtQtQtQt.o#jdrcxcNdsbebdbdbdbdbdbdbdbdbdbdbdbdbdcUcbaFdadadadacbcUbdbdbdbdbdbdbdbdbdbdbdbdbdbedtdudv.w.uQtQtQtQtQtQtQt.c",
"QtQtQtQtQtQtQtQt.ecebUcRcQdwdxaFbebdbdbdbdbdbdbdbdcUcmc1dydzdAdBdCdDdEdFdGcHc0aFbdbdbdbdbdbdbdbdbdbdbMdHcFcJ.j.nQtQtQtQtQtQtQt.c",
"QtQtQtQtQtQtQtQtQtdI.wcBamcxcQdJdKbebebdbdbdbdbdaadLdMcE.w.w.jcBdN.9.7dO#k.EdPdQcHaFbdbdbdbdbdbdbebedRdSdT.w.p.mQtQtQtQtQtQtQt.c",
"QtQtQtQtQtQtQtQtQtQt#V.wcvdocxdUcNcndVbebebddsdWdX.jbU.jce#R.3.0dYdOa8aBdZd0#.d1dbd2c4bdbdbebebed3dxcWdod4.R.lQtQtQtQtQtQtQtQt.c",
".a.a.a.a.a.a.a.a.a.a.cd5.wbUc8amcxdSd6dLcbd7dX.w#e.Rd8bV.3bV.ucwd9e..Ie#bBea.P#hb5.w.2ebbdbnbdeceddSeeao.w#h.a.a.a.a.a.a.a.a.a.d",
"QtQtQtQtQtQtQtQtQtQtQt.b.h.j.w#Ra#cFdUcxefegbUehei.1dn.2#e.w.w.w.w.w.w.wcvejcf#wekcebUdbeldJedemcocFal.w#R.bQtQtQtQtQtQtQtQtQtQt",
"QtQtQtQtQtQtQtQtQtQtQtQtQt.P#V.w.wb5c8endd.weocv.v.w.vepcLeqcYera#dvdndves.j.w.j#Rch.R.waYcocQcoerb5.w.k.eQtQtQtQtQtQtQtQtQtQtQt",
"QtQtQtQtQtQtQtQtQtQtQtQtQt.d.dbW#R.w.w#S.j.wbU.wcEetcIeneuevd6ewccexeyezcQcIcdb5.w#e#SbUeAcAeB.2.j.wd5.lQtQtQtQtQtQtQtQtQtQtQtQt",
"QtQtQtQtQtQtQtQtQtQtQtQtQt.d.bQt.b.f.p.R.w.wcBdoeCdEdieDeEc0aFdtdtdtaFaaeFeGeHeIeJ.j.w.w.Rcv.R.w.xaZ.c.bQtQtQtQtQtQtQtQtQtQtQtQt",
"QtQtQtQtQtQtQtQtQtQtQtQtQt.d.bQtQtQt.m.d.p.wdncWdHeKcbbebebebebebebebebebebecUaFeLeM#e.w.wcebV.P.gQt.a.bQtQtQtQtQtQtQtQtQtQtQtQt",
".a.a.a.a.a.a.a.a.a.a.a.a.a.z.d.b.b.b.b.bd5.wcEdEeNbJbebdbdbdbdbdbdbdbdcUaaaacbbebedteO#ed5.d.e.b.b.b.c.d.a.a.a.a.a.a.a.a.a.a.a.a",
".a.a.a.a.a.a.a.c.d.a.a.a.a.b.b.b.b.b.b.l#f.walePeQeRbnbdbdbdbdbdbdbdcUeScEeTeUeVeWbpeXdr.j.W.a.a.a.a.a.a.a.a.a.a.a.a.a.a.a.a.a.a",
"QtQtQtQtQtQtQt.a.bQtQtQtQtQtQtQtQtQtQtbW.R.w.veYeZe0bLbdbdbdbdbddadVbMe1e2d9#ne3e4e5aLe6.waZQtQtQtQtQtQtQtQtQtQtQtQtQtQtQtQtQtQt",
"QtQtQtQtQtQtQt.a.bQtQtQtQtQtQtQtQtQtQt.h.w.w.je7e8e9bLbdbdbdbdcaf.f#fafbfc.Rfdfeb8ffaHfg.RbVQtQtQtQtQtQtQtQtQtQtQtQtQtQtQtQtQtQt",
"QtQtQtQtQtQtQt.a.bQtQtQtQtQtQtQtQtQtQt#h.wcJ.RfhagfifjfkcUcUcUdeep.jerflcd#Rfm#Ofnfofpfqfrd5QtQtQtQtQtQtQtQtQtQtQtQtQtQtQtQtQtQt",
"QtQtQtQtQtQtQt.a.bQtQtQtQtQtQtQtQtQtQt#V.Rdv.RfsfteZfufvfwfxfyfz.0.j.w.w#SbTfAcd.sfBfCfD.v.xQtQtQtQtQtQtQtQtQtQtQtQtQtQtQtQtQtQt",
"QtQtQtQtQtQtQt.a.bQtQtQtQtQtQtQtQtQtQtb5.vfE.RfFfGfpfHfIfJfKfL.PfM.Qb5#U#a#kfNcJbCfOfPfQ#e#SQtQtQtQtQtQtQtQtQtQtQtQtQtQtQtQtQtQt",
".c.d.d.d.d.d.d.c.c.d.d.d.d.d.d.d.d.d.db5#ecqbUfRfSfTfUfVfW.2bU.1#U#v#v.u#h#SeobUfXfYbnfZ#W#S.d.d.d.d.d.d.d.d.d.d.d.d.d.d.d.d.d.d",
".a.b.b.b.b.b.b.#.#.b.b.b.b.b.b.b.b.b.b#ibU.R.Rf0bIf1f2a#cB.w.w.jchbVch.kce.w.wb5f3aFfSf4bU#VQtQtQtQtQtQtQtQtQtQtQtQtQtQtQtQtQtQt",
".aQtQtQtQtQtQtQtQtQtQtQtQtQtQtQtQtQtQt.b#U#S.j#uf5f6f7.j.w#V.k.w.wbU.w.w.w#Scv.RcFcTf8f9.w#iQtQtQtQtQtQtQtQtQtQtQtQtQtQtQtQtQtQt",
".aQtQtQtQtQtQtQtQtQtQtQtQtQtQtQtQtQtQtQtQt#h.w.v#e#e.wcJ.q.b.gaZ#V.k#R#haZ.gaZ.wcLg.#yg#.R.eQtQtQtQtQtQtQtQtQtQtQtQtQtQtQtQtQtQt",
".aQtQtQtQtQtQtQtQtQtQtQtQtQtQtQtQtQtQtQtQtbW#f.w.wb5a..bQtQtQtQt.m.b.b.a.dQt#X.wga.3b5.w#S.mQtQtQtQtQtQtQtQtQtQtQtQtQtQtQtQtQtQt",
".aQtQtQtQtQtQtQtQtQtQtQtQtQtQtQtQtQtQtQtQtQt.e.l.e.bQtQtQtQtQtQtQtQtQt.a.dQt.gd5.w.RbU.w.hQtQtQtQtQtQtQtQtQtQtQtQtQtQtQtQtQtQtQt",
".a.#.#.#.#.#.#.#.#.#.#.#.#.#.#.#.#.#.#.#.#.#.#.#.#.#.#.#.#.#.#.#.#.#.#.a.dQtQt#Xce.w.w.j.dQtQtQtQtQtQtQtQtQtQtQtQtQtQtQtQtQtQtQt",
".c.c.c.c.c.c.c.c.c.c.c.c.c.c.c.c.c.c.c.c.c.c.c.c.c.c.c.c.c.c.c.c.c.c.c.c.c.d.d.d.d.d.d.d.d.d.d.d.d.d.d.c.d.d.d.d.d.d.d.d.d.d.d.d",
"QtQtQtQtQtQtQtQtQtQtQtQtQt.#.aQtQtQtQtQtQtQtQtQtQtQtQtQtQtQtQtQtQtQtQtQtQtQtQtQtQtQtQtQtQtQtQtQtQtQt.b.cQtQtQtQtQtQtQtQtQtQtQtQt",
"QtQtQtQtQtQtQtQtQtQtQtQtQt.#.aQtQtQtQtQtQtQtQtQtQtQtQtQtQtQtQtQtQtQtQtQtQtQtQtQtQtQtQtQtQtQtQtQtQtQt.b.cQtQtQtQtQtQtQtQtQtQtQtQt",
"QtQtQtQtQtQtQtQtQtQtQtQtQt.#.aQtQtQtQtQtQtQtQtQtQtQtQtQtQtQtQtQtQtQtQtQtQtQtQtQtQtQtQtQtQtQtQtQtQtQt.b.cQtQtQtQtQtQtQtQtQtQtQtQt",
"QtQtQtQtQtQtQtQtQtQtQtQtQt.#.aQtQtQtQtQtQtQtQtQtQtQtQtQtQtQtQtQtQtQtQtQtQtQtQtQtQtQtQtQtQtQtQtQtQtQt.b.cQtQtQtQtQtQtQtQtQtQtQtQt",
"QtQtQtQtQtQtQtQtQtQtQtQtQt.#.aQtQtQtQtQtQtQtQtQtQtQtQtQtQtQtQtQtQtQtQtQtQtQtQtQtQtQtQtQtQtQtQtQtQtQt.b.cQtQtQtQtQtQtQtQtQtQtQtQt"};
