/* XPM */
static char *dummy[]={
"64 64 714 2",
"bZ c #000000",
"et c #002100",
"dH c #0c3124",
".1 c #161519",
"#0 c #1c1500",
"c0 c #1c372e",
"cr c #222126",
"dh c #263c36",
".l c #272117",
".s c #2b0002",
".C c #2b2000",
"cB c #2b2a30",
"bm c #2e413d",
".L c #2f2925",
"hQ c #300028",
"#j c #322915",
"cs c #323138",
"dG c #33001a",
".f c #35312f",
"hZ c #360000",
".K c #383023",
"a1 c #38373f",
"fJ c #38463c",
"bX c #391527",
"cS c #3b3012",
"bz c #3b3737",
"fr c #3c1518",
"iE c #3e2130",
"aJ c #3e362e",
"eJ c #3e4a43",
"aB c #403622",
"eG c #412126",
"aC c #413c3e",
".M c #432016",
"ge c #432a38",
".m c #433c36",
"ed c #434e48",
".D c #453c2c",
"di c #454144",
"cD c #455c51",
"dX c #46292f",
".N c #473c20",
"eZ c #47524e",
"fS c #482924",
"ct c #48413d",
".g c #4a3037",
"ar c #4a4135",
"cF c #4a4649",
"h8 c #4c302e",
"b7 c #4c412b",
"a2 c #4c4543",
"dj c #4c5552",
"jh c #4e1526",
"#i c #4e3023",
".r c #4e373e",
"bP c #4e401f",
"af c #4e453c",
"cZ c #4e4a4e",
".k c #503736",
".0 c #504534",
"es c #504a49",
"bN c #52362d",
"hY c #523c44",
"hF c #52452a",
"a. c #524a42",
"cf c #543c3d",
"bM c #54493b",
".O c #554933",
"e9 c #564e48",
"a0 c #574929",
"b6 c #574d42",
"fI c #575153",
"cC c #575f5f",
"by c #584143",
".Q c #59413c",
"#d c #594d3a",
"cg c #59514d",
"ch c #595f5b",
".e c #5a313e",
"#C c #5b4134",
".A c #5b4549",
"bO c #5b4d32",
"fs c #5b5147",
"eR c #5b5557",
"bq c #5c4d28",
".2 c #5c5141",
"iQ c #5d3745",
"aD c #5d4543",
".P c #5e453c",
"iR c #5e4a4e",
"hR c #5e5139",
"e0 c #5e6566",
"fb c #5e6f70",
"fq c #5f5131",
"he c #604533",
".z c #604a48",
"aI c #605547",
"dk c #606462",
"bp c #614529",
"#s c #614942",
"eO c #615126",
"ee c #615c5f",
".h c #623c44",
"aE c #633c3d",
".B c #63493b",
"cA c #634e4d",
"b5 c #635439",
"aq c #63584c",
"cY c #635c5b",
".Z c #644d48",
"#1 c #645430",
"iv c #645846",
"bW c #654149",
"i7 c #65583f",
".9 c #664d41",
"#Z c #665152",
"gz c #665b51",
"cd c #67514d",
"if c #675838",
".t c #675b4b",
"a# c #68413c",
".d c #68454e",
"d1 c #685b45",
"#h c #694549",
"eW c #694d31",
".8 c #695147",
"dg c #695557",
"cE c #696d6d",
"a3 c #6a4542",
".j c #6a4a53",
"#L c #6a5140",
"hP c #6a5b3f",
"hS c #6a5e50",
"cR c #6b5b37",
".3 c #6b5e4b",
"c1 c #6b6466",
".i c #6c4a4e",
".Y c #6c554c",
"e8 c #6c6743",
".c c #6d4948",
"ce c #6d4e58",
"dp c #6d5130",
"bn c #6d5446",
"f2 c #6d5e45",
"#K c #6e5440",
"fh c #6e5e3e",
"hL c #6e6150",
".b c #6f4d53",
"#r c #6f584c",
"ek c #6f5e36",
"h0 c #6f614a",
"ic c #6f6459",
".a c #704d4d",
"bx c #705b5a",
".4 c #706144",
"Qt c #715157",
"ba c #715b56",
"hK c #716454",
".# c #725152",
".R c #725b51",
"bl c #72613d",
"iJ c #72644f",
"da c #735837",
"an c #735e5a",
"eF c #736449",
"cc c #736759",
"bL c #746443",
"aF c #755e55",
"a4 c #765e50",
"bB c #76674e",
"fH c #766a5d",
"aP c #77585b",
".X c #776159",
"dx c #776749",
"h9 c #776958",
"#M c #786155",
"am c #786462",
"cq c #786642",
"hy c #786c61",
"bV c #79645e",
"cl c #79663b",
"f4 c #796c5c",
"#g c #7a5b5f",
".7 c #7a614a",
"aS c #7a6c58",
"fm c #7a7d81",
"dy c #7b6942",
"ck c #7b716f",
"iS c #7c6143",
"bo c #7d6f5c",
"#B c #7e5e5a",
"hJ c #7e6449",
"bc c #7e6758",
"fC c #7e6c47",
"#x c #7e6e57",
"#R c #7e7863",
"fy c #7e7f81",
"aa c #7f5e55",
"im c #7f7160",
"eu c #7f7f7e",
"cu c #80643c",
"f3 c #80695c",
"bC c #806c3a",
"dz c #806e4d",
"cX c #80715b",
"f5 c #815138",
"h1 c #816958",
".q c #816c65",
"#9 c #816e47",
"ix c #817157",
"gy c #817363",
"do c #817a62",
"fT c #82453a",
"fP c #826c60",
"cb c #82735f",
"h2 c #827850",
"cK c #83663b",
".y c #836f68",
"dw c #83714c",
"ej c #83735b",
"gL c #837667",
"#Y c #84645d",
".5 c #847146",
"#k c #847356",
"b# c #856765",
".E c #856f60",
"hC c #857351",
"hg c #85765f",
"i. c #85786b",
"gA c #86734b",
"in c #86765a",
"hV c #867867",
"fw c #867e66",
"ap c #877168",
"a6 c #877555",
".U c #877a6e",
"#. c #88715f",
"g0 c #887550",
"#c c #887a6a",
"hv c #887c4f",
"d2 c #896b39",
"d# c #89754b",
"hw c #89785a",
"hd c #898370",
"fx c #89898e",
"ao c #8a6c68",
"bY c #8a7363",
"#y c #8a7a62",
"hT c #8a7c6d",
"hu c #8a7e53",
"cQ c #8b7850",
"bA c #8b7c6a",
"hE c #8c766b",
"aA c #8c774a",
"eI c #8c8b8b",
"ib c #8d7a54",
"ae c #8d7e6d",
"i3 c #8e7351",
"aQ c #8e786e",
"hf c #8e7c5d",
"hx c #8e7e69",
".n c #8e8174",
"ef c #8e8d8d",
".6 c #8f7a49",
"cp c #8f7c59",
".H c #8f8170",
"ht c #8f8257",
"b0 c #907a43",
"aZ c #907c54",
"#S c #90806d",
"jf c #917550",
"jg c #917c4e",
"bK c #927e58",
"#w c #928370",
"gB c #928457",
"dA c #937e53",
"hD c #938576",
"i6 c #94805c",
"bw c #948573",
"io c #948656",
"eN c #948a72",
"d. c #958058",
".u c #95856f",
"bk c #967a54",
"co c #96825c",
"dv c #968260",
".v c #968776",
"aO c #978174",
"cP c #978257",
"#e c #978673",
"cG c #979494",
"bb c #988170",
"dT c #988252",
"aj c #988876",
"gY c #988879",
"i5 c #997c4e",
"cO c #99845b",
"fk c #99979d",
"c6 c #9a8247",
"hs c #9a8456",
"#z c #9a8a79",
"#q c #9b7e53",
"hc c #9b865f",
"dS c #9b8c59",
"j. c #9c7e4d",
"#J c #9c8656",
"du c #9c865b",
"iy c #9c8e62",
"er c #9c999a",
"#f c #9d8679",
"hb c #9d885f",
"bU c #9d8c75",
"#V c #9d8c78",
"dY c #9d9f9e",
"#t c #9e8676",
"gq c #9e885a",
"aN c #9e8e7b",
"e1 c #9ea1a0",
"fc c #9f8a63",
"fj c #9f8e78",
"gk c #a0634d",
"b4 c #a08a5e",
"hG c #a08f5d",
"hi c #a0907e",
"c5 c #a0998e",
"hr c #a18a55",
"hI c #a18a5a",
"dR c #a28c5e",
"fD c #a2927d",
"hh c #a29281",
"e4 c #a2aaa7",
"fK c #a36158",
"h6 c #a38c59",
"al c #a38c7e",
"ip c #a48e62",
"iF c #a49177",
".W c #a49380",
"fz c #a56e63",
"ha c #a58d5d",
"i0 c #a58f65",
"iw c #a5937d",
"fl c #a5a3a8",
"cN c #a68f61",
"#D c #a69170",
"dW c #a6937a",
"#A c #a69580",
"b. c #a69583",
"bD c #a78a5e",
"g1 c #a78f5d",
"#X c #a7907e",
"bv c #a79081",
"gN c #a79785",
"f. c #a7a8aa",
"hW c #a8845b",
"dM c #a8884a",
"gZ c #a89283",
"gC c #a89664",
".S c #a89783",
"cJ c #a8a79f",
"gx c #a99161",
"ag c #a99576",
"#Q c #a99780",
"gj c #aa9364",
"ab c #aa9383",
"ie c #aa9882",
".x c #aa9885",
"eH c #aaabab",
"fg c #ab9360",
".p c #ab9a88",
"db c #ac9357",
"bE c #ac9464",
".I c #ac9a85",
"hH c #ad8f61",
"h# c #ad9460",
"#N c #ad9583",
".w c #ad9c87",
".J c #ad9c8a",
"ci c #adaeaf",
"dt c #ae8f5c",
"hj c #ae945b",
"c2 c #aeaead",
"jb c #af8f58",
"gJ c #af965f",
"ij c #af9a75",
"bu c #af9a79",
".V c #af9d8a",
"fR c #b09f8c",
"fa c #b0b5b4",
"dQ c #b19364",
"iV c #b1985f",
"iq c #b19863",
"aR c #b19a8a",
"eg c #b1b1b1",
"iK c #b2935b",
"jc c #b2985a",
"a9 c #b29d7b",
"gM c #b2a08c",
".G c #b2a08f",
"dU c #b39963",
"cz c #b39f81",
"f6 c #b46352",
"h7 c #b4945f",
"bd c #b59456",
"ig c #b59b62",
"hU c #b5a28c",
"fi c #b5a391",
"cT c #b69b59",
"aM c #b69b7e",
"gW c #b69d66",
"aH c #b6a38e",
"#b c #b79f8c",
".o c #b7a590",
"dL c #b7ac9e",
"jd c #b8985e",
"h. c #b89e65",
"iz c #b99e61",
"#U c #b9a383",
"ak c #b9a690",
".F c #b9a693",
"dI c #b9bdba",
"as c #ba995e",
"e7 c #baa065",
"#W c #baa895",
"bj c #bb9b66",
"i# c #bba061",
"ai c #bba688",
"gK c #bba892",
"cj c #bbbfbf",
"#2 c #bca373",
"#l c #bca685",
"ik c #bca995",
"fU c #bd695a",
"eP c #bd9b59",
"hk c #bd9c61",
"iW c #bd9d65",
"c9 c #bf9966",
"az c #bf9e65",
"iZ c #bfa46b",
"gX c #bfac96",
"gf c #c06e62",
"gr c #c08462",
"aY c #c09b6a",
"iU c #c0a065",
"## c #c0a895",
"eq c #c0bebe",
"i2 c #c1a57f",
"d9 c #c1a66b",
"df c #c1ab8a",
"fE c #c1ae99",
"id c #c1b298",
"eA c #c29f57",
"bJ c #c2a168",
"aT c #c2a663",
"bQ c #c3a76a",
"ft c #c3ab99",
"aK c #c3ac87",
"a5 c #c3af98",
"je c #c4a364",
"#8 c #c4a368",
"hB c #c4ad8c",
"fG c #c4b09b",
"dq c #c5a35f",
"dP c #c5a46b",
"iA c #c5a966",
"#p c #c6a467",
"dB c #c6aa6d",
"ad c #c6b39f",
"ev c #c6c8c7",
"eX c #c79f60",
"bF c #c7a45f",
"hl c #c7a66b",
"gV c #c7aa6a",
"fn c #c8a372",
"#u c #c8b89e",
"f7 c #c97261",
"b8 c #c9a65e",
"ds c #c9a76a",
"b3 c #c9ab69",
"d8 c #caa96e",
"el c #caab61",
"iX c #caad69",
"gw c #caad6d",
"ec c #caaf91",
"fQ c #cab09a",
"#T c #cab390",
"il c #cab69e",
"eS c #cacbca",
"i4 c #cba467",
"eY c #cba866",
"g2 c #cba96a",
"aG c #cbb7a0",
"fF c #cbb7a2",
"h3 c #ccaa69",
"cm c #ccad61",
"iY c #ccae6c",
"br c #ccb388",
"ac c #ccb79e",
"i1 c #cdab6d",
"e. c #cdb06c",
"ih c #cea76e",
"#O c #cebaa2",
".T c #cebaa4",
"j# c #cfad6c",
"cM c #cfad70",
"cL c #cfaf64",
"hm c #cfb16b",
"d7 c #cfb16f",
"ja c #d0ad69",
"gi c #d0ae70",
"b1 c #d0b167",
"fv c #d0bba2",
"iL c #d1ae6c",
"e5 c #d1b26b",
"iP c #d1b88f",
"#P c #d1bca6",
"iT c #d2ae68",
"f1 c #d2b06f",
"hq c #d2b46e",
"eQ c #d3af6b",
"d3 c #d4b16b",
"g9 c #d4b16f",
"hO c #d4b482",
"d6 c #d4b56e",
"eE c #d4b881",
"ca c #d4bc98",
"hn c #d5b66d",
"iu c #d5b896",
"ep c #d5bc96",
"#a c #d5c0a7",
"#m c #d5c19a",
"gD c #d6a671",
"iM c #d6b26e",
"#v c #d6c1a9",
"gd c #d7b46e",
"hX c #d7b472",
"ho c #d7b76d",
"i8 c #d7b771",
"dF c #d7c79d",
"c8 c #d8b571",
"dl c #d8dbda",
"#o c #d9bd88",
"iI c #d9c097",
"fu c #d9c3ad",
"d0 c #d9cdc7",
"f# c #d9d8d9",
"cn c #dab671",
"hp c #daba70",
"eT c #dad9d9",
"#I c #dbb581",
"cv c #dbb669",
"gI c #dbb774",
"fL c #dc796f",
"f8 c #dc7f6e",
"c7 c #dcb76d",
"ff c #dcb770",
"hz c #dcc297",
"bG c #ddb970",
"g8 c #ddb973",
"cW c #ddc4a0",
"ia c #deb96c",
"e# c #deba73",
"d5 c #dfba70",
"dN c #dfbe6f",
"iD c #dfc19c",
"eV c #dfdfda",
"eK c #dfe2e1",
"iB c #e0bb6f",
"gU c #e0bb73",
"fV c #e17f6d",
"iN c #e1bc76",
"#n c #e1c39d",
"#E c #e1c8a3",
"gp c #e2bc72",
"gl c #e38474",
"fA c #e39f72",
"be c #e3bc6b",
"ay c #e3be72",
"g7 c #e3be75",
"ah c #e3c9a1",
"bT c #e3c9a3",
"gs c #e48573",
"fd c #e4be6e",
"gv c #e4bf75",
"aX c #e4bf78",
"a7 c #e4caa3",
"ew c #e4e5e4",
"fX c #e58277",
"fY c #e59274",
"bi c #e5bf72",
"bI c #e5c078",
"dn c #e5e5e0",
"e3 c #e5eae9",
"bf c #e6bf6a",
"i9 c #e6c071",
"eB c #e6c075",
"fp c #e6c474",
"cH c #e6e7e7",
"g. c #e78377",
"g# c #e78976",
"gm c #e78f75",
"gP c #e79b79",
"gt c #e79f75",
"fN c #e7a478",
"h4 c #e7be75",
"en c #e7c174",
"d4 c #e7c178",
"dr c #e7c573",
"go c #e7c577",
"hA c #e7cca5",
"f9 c #e88576",
"gh c #e8aa76",
"gn c #e8b275",
"gH c #e8bb79",
"h5 c #e8be72",
"fO c #e8c171",
"b2 c #e8c377",
"em c #e8c676",
"gg c #e97f77",
"fW c #e98573",
"gQ c #e99c79",
"gu c #e9bb76",
"aV c #e9c270",
"aW c #e9c374",
"dc c #e9c47a",
"#7 c #e9c583",
"hM c #e9c68b",
"dV c #e9cea2",
"#3 c #e9cfa6",
"ei c #e9e4df",
"fM c #ea8177",
"gF c #ea8d75",
"ga c #eaa774",
"gR c #eaab76",
"gO c #eaaf75",
"fB c #eabc79",
"aU c #eac473",
"bg c #eac477",
"at c #eac580",
"b9 c #eac87f",
"bt c #eacfa4",
"gG c #eba477",
"gS c #ebb976",
"dC c #ebc071",
"gT c #ebc177",
"cw c #ebc470",
"ax c #ebc576",
"eC c #ebc57a",
"eD c #ebc680",
"aw c #ebc683",
"iO c #ebcb87",
"eo c #ecc37a",
"fe c #ecc573",
"bH c #ecc679",
"dD c #ecc67d",
"cx c #ecc782",
"av c #eccd91",
"aL c #ecd1a8",
"fZ c #edae75",
"f0 c #edbf78",
"fo c #edc274",
"gc c #edc377",
"ea c #edc586",
"is c #edc673",
"dO c #edc676",
"iH c #edcd8f",
"ex c #ededed",
"gE c #ee9777",
"gb c #eebc78",
"g3 c #eec078",
"e6 c #eec477",
"bh c #eec776",
"g6 c #eec779",
"cy c #eed0aa",
"a8 c #eed3ac",
"bR c #eed49e",
"g5 c #efc57a",
"dd c #efcc92",
"c. c #efd29f",
"cI c #eff3f3",
"g4 c #f0c177",
"ir c #f0c576",
"iG c #f0c875",
"cU c #f0c98d",
"ii c #f0cd94",
"ez c #f0efed",
"e2 c #f0f0ef",
"hN c #f1ce96",
"dE c #f1d39c",
"#5 c #f1d4a5",
"eh c #f1f4f2",
"au c #f2cb94",
"#6 c #f2cf98",
"it c #f2cf9b",
"de c #f2d5a7",
"bs c #f2dab2",
"c4 c #f2f5f5",
"iC c #f3cc94",
"eb c #f3cfa4",
"#H c #f3d2a1",
"cV c #f3d3a7",
"#4 c #f3d7ad",
"c# c #f4d8af",
"eM c #f4f2ec",
"#F c #f5d9b0",
"eU c #f5f7f5",
"bS c #f6d6ad",
"#G c #f6d9ae",
"c3 c #f6f9f8",
"ey c #f8faf8",
"dZ c #fbfafb",
"eL c #fcfdfb",
"dK c #fefcfd",
"dJ c #feffff",
"dm c #ffffff",
"QtQtQtQtQtQtQtQtQtQtQtQtQt.#.aQtQtQtQtQtQtQtQtQtQtQtQtQtQtQtQtQtQtQtQtQtQtQtQtQtQtQtQtQtQtQtQtQtQtQt.b.cQtQtQtQtQtQtQtQtQtQtQtQt",
".b.b.b.b.b.b.b.b.b.b.b.b.b.a.c.b.b.b.b.b.b.b.b.b.b.b.b.b.b.b.b.b.b.b.b.b.b.b.b.b.b.b.b.b.b.b.b.b.b.b.a.c.b.b.b.b.b.b.b.b.b.b.b.b",
".b.b.b.b.b.b.b.b.b.b.b.b.b.b.b.b.c.a.b.b.b.b.b.b.d.e.f.g.h.i.b.b.b.b.b.b.b.b.b.b.b.b.b.b.b.b.b.b.b.b.b.b.b.b.b.b.c.b.b.b.b.b.b.b",
"QtQtQtQtQtQtQtQtQtQtQtQtQtQtQtQt.i.bQtQtQtQtQt.j.k.l.m.n.o.p.qQtQtQtQtQtQtQtQtQtQtQtQtQtQtQtQtQtQtQtQtQtQtQtQtQt.cQtQtQtQtQtQtQt",
"QtQtQtQtQtQtQtQtQtQtQtQtQtQtQtQt.i.bQtQtQtQt.b.r.s.l.t.u.v.w.x.yQtQtQtQtQtQtQtQtQtQtQtQtQtQtQtQtQtQtQtQtQtQtQtQt.cQtQtQtQtQtQtQt",
"QtQtQtQtQtQtQtQtQtQtQtQtQtQtQtQt.i.d.d.z.A.z.B.C.l.D.E.F.G.H.I.J.yQtQtQtQtQtQtQtQtQtQtQtQtQtQtQtQtQtQtQtQtQtQtQt.cQtQtQtQtQtQtQt",
"QtQtQtQtQtQtQtQtQtQtQtQtQtQtQt.d.k.f.f.K.L.M.N.O.P.Q.R.S.T.F.U.V.W.X.R.Y.iQtQtQtQtQtQtQtQtQtQtQtQtQtQtQtQtQtQtQt.cQtQtQtQtQtQtQt",
"QtQtQtQtQtQtQtQtQtQtQtQtQt.b.Z.0.1.L.2.3.4.5.6.7.8.9.B#.###a#b.U.x#c.K#d#e#f#gQtQtQtQtQtQtQtQtQtQtQtQtQtQtQtQtQt.cQtQtQtQtQtQtQt",
".a.a.a.a.a.a.a.a.a.a.a.a#h.B#i#j#k#l#m#n#o#p#q#r.Z.8#s.a#t#u#v.I.u#w#x#y#z.F#A#B.a.a.a.a.a.a.a.a.a.a.a.a.a.a.a.a.c.a.a.a.a.a.a.a",
".#.#.#.#.#.c.#.#.#.#.#.Z#C.l.D#D#E#F#G#H#I#J#K#s.Z.8#L#s#M#N#O#P#Q#R#S#T#U#V#W#X#Y.#.#.#.#.#.#.#.#.#.#.#.#.#.#.#Qt.#.#.#.#.#.#.#",
"QtQtQtQtQt.cQtQtQtQt#Z.k#0#1#2#3#4#5#6#7#8#9.K.Da..Z.8.Za#aaabacadaeafagahaiajakalamQtQtQtQtQtQtQtQtQtQtQtQtQtQtQtQtQtQtQtQtQtQt",
"QtQtQtQtQt.cQtQtanaoapaqarasatauavawaxayazaAaB.KaCaD.8.8.caEaF.SaGaHaIaJaKaLaMaNaHaOaPQtQtQtQtQtQtQtQtQtQtQtQtQtQtQtQtQtQtQtQtQt",
"QtQtQtQtQt.cQtQtaQaRaH#VaSaTaUaVaWaVaxaXaYaZa0.La1a2a3.8.8.Z.Pa4#Xa5.u#0a6a7a8a9b..wb#QtQtQtQtQtQtQtQtQtQtQtQtQtQtQtQtQtQtQtQtQt",
"QtQtQtQtQt.c.bbabb.WaN#wbcbdbebfaWbgbhbibjbkbl.l.Dbma2.9.8.8.8#sbnapbobpbqbrbsbtbubvbwbxQtQtQtQtQtQtQtQtQtQtQtQtQtQtQtQtQtQtQtQt",
".b.b.b.b.b.cbybzafbA.WbB#jbCbDbEbFbGbHbIbJbKbL#j.l.maCa2a.#s.8.8.ZbMbNbObPbQbRbSbTbU#ebV.d.b.b.b.b.b.b.b.b.b.b.b.b.b.b.b.b.b.b.b",
".b.b.b.b.bbWbX#0a.bY#xaBbZbZbZ.1arb0b1b2b3b4a6b5.1.l.K.fa2a.a.a.b6a.aCb7a0b8b9c.c#cacbcccdceQtQtQt.a.a.b.b.b.b.b.b.b.b.b.b.b.b.b",
"QtQtQtQt.bcf.1.1.Lcg.fbZbZchcicjckbZclcmcnbEcocpcqaBbZ#jcrcsa2a2a2ctcr#0cucvcwcx#HcyczbMbycAQtQtQt.a.bQtQtQtQtQtQtQtQtQtQtQtQtQt",
"QtQtQtQt#Z.g.lcr.fcBcCcDcEcFcGcHcIcJ#jcKcLcMcNcOcPcQcR.1#0#j.L.K.L.1bZcScTbgaUaUcUcVcWcX.DbyceQtQt.a.bQtQtQtQtQtQtQtQtQtQtQtQtQt",
"QtQtQtQt.bcYaCbZaCcZcBbZc0c1bmc2c3c4c5#jc6c7c8c9b4cod.d#daaB.l.l.1#0.Ndbb2bgbgaWdcdddedf.0ctcAQtQt.a.bQtQtQtQtQtQtQtQtQtQtQtQtQt",
"QtQtQtQtdgcFdhdi.L.1bZbZbZcrdjdkdldmdndodpdqdraydsdtdudvcPaZdwdxdydzdAdBbgaxbgbgdCdDdEdFaS.m.zQtQt.a.bQtQtQtQtQtQtQtQtQtQtQtQtQt",
".i.i.i.i.rdG.1bZbZbZbZbZbZbZdHaCdIdJdKdL.OdMdNdOb2cndPdQdRdScOd.dTdudUcnaxbgbgbgaWbgdddVdW.D.P.c.a.c.c.i.i.i.i.i.i.i.i.i.i.i.i.i",
"QtQtQt.bdXbZbZbZbZbZbZbZbZbZbZdidYdZdmd0d1d2d3axaxaxd4d5d6d7d8d9bQe.e#b2bgbgbgbgbgaWeaebec#d.P.iQtQtQtQtQtQtQtQtQtQtQtQtQtQtQtQt",
"Qt.z.rc1edcrbZbZbZbZbZbZbZcreeefegehdmeiejekelb2bgbgaxaxaxemaWend4aUaxaxbgbgbgbgbgaWeoauep.t.k.dQtQtQtQtQtQtQtQtQtQtQtQtQtQtQtQt",
"QtdX.1eqeresbZbZbZbZbZbZeteuevewexeydmezbw#1eAeBbgbgbgbgaxeCeCdObHdObgbgbgbgbgbgbgbgbgeDeEeFeG.AQtQtQtQtQtQtQtQtQtQtQtQtQtQtQtQt",
"QtdGbZeHeIeJbZbZbZbZbZbZ.1eIeKdmdmeLdmeMeNeOePeBbgbgbgbgbgbgbgbgbgbgbgbgbgbgbgbgbgbgbgbgeQcl.LaDQtQtQtQtQtQtQtQtQtQtQtQtQtQtQtQt",
"Qt.1.sdibz.1#0bZbZbZbZbZbZeRdYeSeTeUdmeVcbeWeXenbgbgbgbgbgbgbgbgbgbgbgbgbgbgbgbgbgbgaxaUeYbL#j#sQtQtQtQtQtQtQtQtQtQtQtQtQtQtQtQt",
".idX#0bZ.1.1bZ#0bZbZbZbZbZbZeZe0e1e2e3e4b6dye5axbgbgbgbgbgbgbgbgbgbgbgbgbgbgbgbgbgbge6bie7e8#j.O.i.i.i.i.i.i.i.i.i.i.i.i.i.i.i.i",
"Qt.dbN.Lese9.D.l.MbZbZbZbZbZcCcFf.f#fafbbzfcfdfebgbgbgbgbgbgbgbgbgbgbgbgbgbgbgbgbgaxaxfffgfh#j#C.bQtQtQtQtQtQtQtQtQtQtQtQtQtQtQt",
"QtcAbzb6.xfifj.D#jbZbZbZbZcrcZedfkflfmdhcdfnfofebgbgbgbgbgbgbgbgbgbgbgbgbgbgbgbgbgdOfpb3d.fqfraDceQtQtQtQtQtQtQtQtQtQtQtQtQtQtQt",
"Qt.daJfsftfufvfw.l.lbZ#0.reR.fcCfxfyaCeGfzfAfBbgbgbgbgbgbgbgbgbgbgbgbgbgbgbgbgbgaxdOffdQfCaB.K.dQtQtQtQtQtQtQtQtQtQtQtQtQtQtQtQt",
"Qt.jaJarfDfEfFfGfH#0bZcrfIfJbZcgcg.ldXfKfLfMfNfBbgbgbgbgbgbgbgbgbgbgbgbgbgbgbgbgbhfO#paZ.O.l.Q.bQtQtQtQtQtQtQtQtQtQtQtQtQtQtQtQt",
".#.a.m.L#rfP#XfQfR.tdGbZbZbZ.l.lfSfTfUfVfWfXfYfZf0bgbgbgbgbgbgbgbgbgbgbgbgbgbgbHeCf1b4f2.lb7.i.#.#.#.#.#.#.#.#.#.#.#.#.#.#.#.#.#",
".a.a.h#jfS.Pcdf3f4aqcf.f#j.lf5f6f7f8fWf9f9g.g#gagbgcbgbgbgbgbgbgbgbgbgbgbgbge6e6gddQdzaBcS#s.a.a.a.a.a.a.a.a.a.a.a.a.a.a.a.a.a.c",
"QtQt.b.r.CcSar.fgea2.mcB.LbNgfg.f9f9f9f9f9ggg#ghf0gcbgbgbgbgbgbgbgbgbgbgbgbhfogigjcQb7.laD.bQtQtQtQtQtQtQtQtQtQtQtQtQtQtQtQtQt.c",
"QtQtQt#Z.Q.K#0.l.l.1.1#0#jgkglf9f9f9f9f9f9gggmgngoembgbgbgbgbgbgbgbgbgaxdOgpd9gqfCb7cSaD.bQtQtQtQtQtQtQtQtQtQtQtQtQtQtQtQtQtQt.c",
"QtQtQtQtdgcd.B.lbZ.l.Kfqd#grgsf9f9f9f9f9g.g.gtgubgbgbgbgbgbgbgbgbgaxdOgvgwgxcP#kgygz.Q.iQtQtQtQtQt.ban.qbVQtQtQtQtQtQtQtQtQtQt.c",
"QtQtQtQtQtQtbW.K.NgAbKgBgCgDgEg#g.fMfMf9gFgGgHb2bgbgbgbgbgbgaxaxengIdsgJdubK#k.xgKgLbNbM.z.j.b#ZbyaJ.tajgMgNapaPQtQtQtQtQtQtQt.c",
"QtQtQtQtQtQtcA.D.Mcqd.gxe.aWf0gOfNgPgQgRgSgTaxaxbgbgbgb2eBgUgdgVgWcNdud.cQ#y.VgXgY.2#0.l.LeGdXaJfr#0bM#c#z.x.pgZ.jQtQtQtQtQtQt.c",
".a.a.a.a.a.a.acf.C.Dg0g1g2e#eBgTg3g4g4g5g6bhaxb2g7g8g9gVh.h#hahbhcdAdxbo.WfEgKhdaf.lhehfhg.2#j#0.1dXfsgyhhb.hifi.h.a.a.a.a.a.a.i",
"QtQtQtQtQtQtQtcA.g#0b5aZhahjhkhlhmhnhobGhphqd8#8bjh#hrhshthuhvg0hwhxfD.FgK.Whyaf.1aBcOhzhAhBhCaB.lbX.l.1.mhDhE.U.rQtQtQtQtQtQtQt",
"QtQtQtQtQtQtQtQt.z.f#0hFbLgAcpcOhGgxhHh#h#cNhId.hChJfhb5.ObOhK#S#AgM.oaHalhLaB.1aBcqgWhMhNhOhbhP.lbZ.1hQ.ffHgz.mbzQtQtQtQtQtQtQt",
"QtQtQtQtQtQtQtQtce.AaJ#0#0.KhFhRfhbLdxdxbLbLblhRb7hSgygz.L.mhKhThDbvgKhUhV.D#0a0fChWeQembHhXbEg0bO#0.OaDhY.P.K.l.gQtQtQtQtQtQtQt",
"QtQtQtQtQtQtQtQtQtQt.dcf.g.K.L.l#0#0#0#0bZ#0hZbZ#j.tbA.HaqaJ#Lh0.4h1aSbM#0.KhPh2bDh3h4axfeh5gVhcfCcqh6h7fCb7cr.k.AQtQtQtQtQtQtQt",
"QtQtQtQtQtQtQtQtQtQtQtQt#ZaDbycf.kdXaJh8h8.g.f.lfsbAh9hTi.#db7bP#j.l#j.DbOdxcodUhmeBe6emaxaxg7dsh7i#iaaXibbZ.DcAceQtQtQtQtQtQtQt",
".a.a.a.a.a.a.a.a.a.a.a.a.a#h.i.b.b.j.i.i.j.b.AdXicidiebohThLhF.ObOifbLg0hIigihgUbgaxbgbgbgbggcengUgpbgiiij.l.Q.c.a.a.a.a.a.a.a.a",
".a.a.a.a.a.a.a.c.i.a.a.a.a.b.b.b.b.b.b.b.b.bbW.Kb6ikilbAimina6ibioipiqbJeQg7e6irgcbgbgbgbgbgbgbgdOisbHitiuivara3.i.a.a.a.a.a.a.a",
"QtQtQtQtQtQtQt.a.bQtQtQtQtQtQtQtQtQtQtQtQtQt.dbXeGbwaGiwhSixiyiziAf1iBaUbhbhaxbgbgbgbgbgbgbgaxaxbgaUaxiCiDcX.1.Z.iQtQtQtQtQtQtQt",
"QtQtQtQtQtQtQt.a.bQtQtQtQtQtQtQtQtQtQtQtQtQtcAiE.1b6b.iFhRbLhHgUg6g6iGg6axaxaxaxaxaxaxaxaxaxbgbgaxbgaUiHiI#xbZaI.AQtQtQtQtQtQtQt",
"QtQtQtQtQtQtQt.a.bQtQtQtQtQtQtQtQtQtQtQtQtQtcA.fbZ.LdiiJb7hPiKgpdOb2d4gvgpayd4bgaxaxdceCb2gIiLiMiNd4aWiOiPh0bZbMiQQtQtQtQtQtQtQt",
"QtQtQtQtQtQtQt.a.bQtQtQtQtQtQtQtQtQtQtQtQtQtiR.fbZ.laJb7fSiShHcnaUiTiUh.gJiViWdPgViXiYgwiZi0ibdAfgi1eBeDi2.0bZ.D.rQtQtQtQtQtQtQt",
"QtQtQtQtQtQtQt.a.bQtQtQtQtQtQtQtQtQtQtQtQtQt.A.K#jcS.lbZ.lifi3i4ffi5ekg0dAbKbKi6cOcPcpa6fCi7.DhR#kbEi8i9#Jfr#j.KdXQtQtQtQtQtQtQt",
".c.i.i.i.i.i.i.c.c.i.i.i.i.i.i.i.i.i.i.i.i.icf#j.BcqhFbP#C#jhRdUe#j.bZ#j.DbOb5b5.Ob7aB#j.l#0bZb7gAh6j#jadaeOfqb7.L.i.i.i.i.i.i.i",
".a.b.b.b.b.b.b.#.#.b.b.b.b.b.b.b.b.b.b.b.b.i.k.LarhR#ia..z.D#0.5ffjb#0.1.1bZbZbZbZbZ#0.L.0.Z#d#ib5bKiYjc#j#9f2.D.lQtQtQtQtQtQtQt",
".aQtQtQtQtQtQtQtQtQtQtQtQtQtQtQtQtQtQtQtQt.idX.l.f.KaBcdQt.zaJfSjdjeb7dXaDbWaD.z#hcA.j.bQtQt.Z.K.D#sjfifbZ#jeGcr.1QtQtQtQtQtQtQt",
".aQtQtQtQtQtQtQtQtQtQtQtQtQtQtQtQtQtQtQtQt.ziE#0bZ.1.r#ZQt.baD.KcRjg.BjhaDQtQtQtQtQtQtQtQtQt.ZaJaB#dardG.lcrbZbZ.1QtQtQtQtQtQtQt",
".aQtQtQtQtQtQtQtQtQtQtQtQtQtQtQtQtQtQtQtQt.b.A.r.ghY.jQtQtQtcAar#j.kh8hZcfQtQtQtQtQtQtQtQtQt.b.Q.l.KdGdGa2.zdX.L.fQtQtQtQtQtQtQt",
".aQtQtQtQtQtQtQtQtQtQtQtQtQtQtQtQtQtQtQtQtQtce.b.b.bQtQtQtQt#Z.mbZ.L.KbZ.rQtQtQtQtQtQtQtQtQtQt.8fSbZ.1.r.bQt#Z.i.jQtQtQtQtQtQtQt",
".a.#.#.#.#.#.#.#.#.#.#.#.#.#.#.#.#.#.#.#.#.#.#.#.#.#.#.#.#.#.aaDh8eG.LdX.hQtQtQtQtQtQtQtQtQtQt.bbWcf.h#ZQtQtQtQtQtQtQtQtQtQtQtQt",
".c.c.c.c.c.c.c.c.c.c.c.c.c.c.c.c.c.c.c.c.c.c.c.c.c.c.c.c.c.c.c.c.c.c.c.c.c.i.i.i.i.i.i.i.i.i.i.i.i.i.i.c.i.i.i.i.i.i.i.i.i.i.i.i",
"QtQtQtQtQtQtQtQtQtQtQtQtQt.#.aQtQtQtQtQtQtQtQtQtQtQtQtQtQtQtQtQtQtQtQtQtQtQtQtQtQtQtQtQtQtQtQtQtQtQt.b.cQtQtQtQtQtQtQtQtQtQtQtQt",
"QtQtQtQtQtQtQtQtQtQtQtQtQt.#.aQtQtQtQtQtQtQtQtQtQtQtQtQtQtQtQtQtQtQtQtQtQtQtQtQtQtQtQtQtQtQtQtQtQtQt.b.cQtQtQtQtQtQtQtQtQtQtQtQt",
"QtQtQtQtQtQtQtQtQtQtQtQtQt.#.aQtQtQtQtQtQtQtQtQtQtQtQtQtQtQtQtQtQtQtQtQtQtQtQtQtQtQtQtQtQtQtQtQtQtQt.b.cQtQtQtQtQtQtQtQtQtQtQtQt",
"QtQtQtQtQtQtQtQtQtQtQtQtQt.#.aQtQtQtQtQtQtQtQtQtQtQtQtQtQtQtQtQtQtQtQtQtQtQtQtQtQtQtQtQtQtQtQtQtQtQt.b.cQtQtQtQtQtQtQtQtQtQtQtQt",
"QtQtQtQtQtQtQtQtQtQtQtQtQt.#.aQtQtQtQtQtQtQtQtQtQtQtQtQtQtQtQtQtQtQtQtQtQtQtQtQtQtQtQtQtQtQtQtQtQtQt.b.cQtQtQtQtQtQtQtQtQtQtQtQt"};
