/* XPM */
static char *dummy[]={
"64 64 468 2",
".u c #000000",
"dN c #00011b",
"dv c #000229",
"dH c #0c3124",
"dI c #0d1628",
".s c #161519",
"dJ c #17223a",
".N c #1c1500",
"bY c #1d2131",
".8 c #222126",
".j c #272117",
".4 c #2b0002",
"#C c #2b2000",
"cb c #2b2a30",
".0 c #2f2925",
"b8 c #2f313f",
"bS c #300028",
".V c #322915",
"cj c #323138",
".1 c #33001a",
".k c #35312f",
".O c #383023",
"b1 c #38373f",
".i c #391527",
".t c #3b3012",
"bQ c #3b3737",
"eM c #3c1518",
"b7 c #3e2130",
"#y c #3e362e",
"#g c #403622",
".v c #412126",
"bR c #413c3e",
"dr c #432016",
"#d c #432a38",
"a# c #433c36",
".U c #453c2c",
"bG c #454144",
"ds c #46292f",
"b6 c #473c20",
"cX c #48413d",
"#B c #4a3037",
".S c #4a4135",
".M c #4c302e",
".W c #4c412b",
"bZ c #4c4543",
"#2 c #4e3023",
".p c #4e373e",
".D c #4e401f",
"bN c #4e453c",
".2 c #503736",
".5 c #504534",
"e4 c #504a49",
"#1 c #52362d",
".o c #523c44",
".C c #52452a",
"b0 c #524a42",
".h c #543c3d",
".Z c #54493b",
".I c #554933",
".K c #563c35",
"e1 c #56414a",
".B c #573c2c",
".A c #574929",
"#c c #574d42",
".6 c #584143",
"bx c #59413c",
".X c #594d3a",
".z c #5b4134",
".7 c #5b4549",
".E c #5b4d32",
"aE c #5b5147",
"a9 c #5c5141",
"d# c #5d3745",
".J c #5d4543",
".r c #5e363e",
".y c #5e453c",
".f c #5e4a4e",
".Y c #5e5139",
".F c #5f5131",
"co c #603c4a",
"dR c #604533",
"#D c #604a48",
"bw c #605547",
"#A c #614942",
".3 c #623c44",
".R c #63493b",
".n c #634e4d",
"dw c #63584c",
".T c #644d48",
"cB c #645430",
".q c #654149",
"dh c #65583f",
".w c #664143",
"#b c #664d41",
".g c #665152",
".H c #674d3a",
".L c #67514d",
".G c #675838",
".l c #68454e",
"dO c #68582f",
"eN c #685b45",
".x c #694549",
"dZ c #694d31",
"#N c #695147",
".e c #6a4a53",
"fi c #6a5140",
"cW c #6a5b3f",
"dP c #6a643d",
"dG c #6b5b37",
"#x c #6b5e4b",
".d c #6c4a4e",
".c c #6d4948",
".m c #6d4e58",
"e8 c #6d5130",
"cS c #6e5440",
"#H c #6e5851",
"cz c #6e5e3e",
".b c #6f4d53",
"#h c #6f614a",
".a c #704d4d",
"a. c #705b5a",
"bM c #706144",
"Qt c #715157",
".9 c #716454",
".# c #725152",
"cH c #72583f",
"cc c #72613d",
"fo c #72644f",
"cx c #736135",
"#I c #74555b",
"#O c #746443",
"#9 c #755e55",
"a8 c #766a5d",
"fc c #77554c",
"fr c #775e4a",
"bC c #776159",
"bT c #776749",
"#a c #786155",
"cp c #786642",
"bn c #79645e",
"d0 c #7a6948",
"br c #7b6459",
"cF c #7b6942",
"dl c #7d613c",
"#f c #7e6449",
"dQ c #7e6c47",
"bD c #7f7160",
"fa c #806e4d",
"dS c #816e47",
"d9 c #826642",
"eT c #826953",
"#J c #82766b",
"cP c #83714c",
"e2 c #837667",
"fn c #846948",
"en c #856941",
"by c #856f60",
"de c #85713f",
"eH c #857351",
"dM c #857a4f",
"eo c #86693a",
"ci c #86734b",
"#8 c #867867",
"bj c #876e57",
"ev c #877345",
"dE c #877555",
"bb c #886e52",
"ca c #887550",
".Q c #887a6a",
"ax c #89754b",
"#z c #897a66",
"b5 c #8a7855",
"do c #8a7a62",
"bO c #8a7c6d",
"ba c #8b6c64",
"ct c #8b7850",
"c4 c #8d7046",
"bk c #8d7667",
"b9 c #8d7a54",
"eA c #8d7c62",
"fp c #8e7351",
"fq c #8f755a",
"#M c #8f7866",
"d1 c #8f7c59",
".P c #8f8170",
"#0 c #907c54",
"#w c #907e61",
"ez c #908377",
"aI c #91736b",
"cE c #917c4e",
"bm c #918373",
"#e c #92715b",
"fd c #92754a",
"a4 c #927c71",
"cM c #927e58",
"#3 c #937c6d",
"dT c #937e53",
"di c #94805c",
"fj c #95774a",
"cd c #957a59",
"c5 c #957e48",
"eD c #958264",
"b2 c #96825c",
"e3 c #968776",
"c3 c #977a49",
"ac c #978174",
"bX c #978257",
"eg c #99824d",
"ch c #99845b",
"#i c #9b886b",
"dn c #9b8a75",
"c6 c #9c844c",
"e# c #9c8656",
"fl c #9c865b",
"dd c #9d8651",
"dg c #9d885f",
"aa c #9d8c78",
"bP c #9f8879",
"#Z c #9f8c6e",
"dm c #9f8e78",
"cn c #a08a5e",
"#E c #a0907e",
"d2 c #a18a5a",
"ay c #a18a7c",
"dp c #a28a50",
"#R c #a28c5e",
"ad c #a3865a",
"d8 c #a38c59",
"bF c #a38c7e",
"cL c #a68855",
"c2 c #a68d54",
"dA c #a69084",
"bz c #a69580",
"dx c #a69583",
"cY c #a78f5d",
"eu c #a98a55",
"dY c #a98c5d",
"ce c #a99161",
"#v c #a99576",
"ey c #aa9158",
"aD c #aa9885",
"eJ c #ab8b54",
"eq c #ab9676",
"dU c #ac885e",
"fb c #ac8d58",
"bs c #ad8f61",
"bv c #ae8f5c",
"cC c #af8f58",
"bH c #af9160",
"dX c #af965f",
"bU c #af9663",
"c7 c #b0965b",
"ec c #b09a72",
"eV c #b19157",
"cq c #b19364",
"aJ c #b29360",
"#G c #b2a08c",
"eU c #b2a08f",
"cK c #b39963",
"aF c #b39c8a",
"ff c #b4945b",
"aw c #b59456",
"dt c #b59663",
"dV c #b59b62",
"bq c #b59d8c",
"dy c #b5a28c",
"dk c #b6965a",
"dL c #b69d66",
"c. c #b79863",
"bL c #b79d62",
"#7 c #b7a590",
"eI c #b7a593",
"b. c #b7ab97",
"cA c #b8985e",
"c1 c #b89c5d",
"dW c #b89e65",
"dF c #b99e61",
"cw c #ba995e",
"fh c #ba9e5d",
"da c #baa065",
"cV c #baa069",
"er c #baa37d",
"#j c #baa585",
"dz c #baa895",
"b4 c #bb9b66",
"#Q c #bc9b5d",
"eS c #bca164",
"cu c #bca168",
"#. c #bca995",
"cy c #bd9c61",
"bA c #beab94",
"d7 c #bfa46b",
"ej c #bfa882",
"bE c #bfac96",
"a7 c #bfac99",
"bo c #bfb098",
"eb c #c0a467",
"f# c #c0a77c",
"eB c #c2a164",
"b# c #c2a994",
"## c #c2af9b",
"ew c #c3a76a",
"a3 c #c4a368",
"#S c #c4ad89",
"ex c #c5a966",
"aH c #c5b29d",
"dD c #c6a467",
"bl c #c6b29a",
"cO c #c7a66b",
"cN c #c7aa6a",
"cg c #c7ae69",
"#u c #c7b08e",
"bB c #c7b39c",
"b3 c #c8ab6d",
"d3 c #c8b068",
"az c #c9baa2",
"dK c #caad69",
"cm c #caad6d",
"#L c #cab69e",
"c8 c #cba866",
"d. c #ccaa69",
"eC c #ccb490",
"#t c #ccb595",
"dB c #cda667",
"fk c #cdab6d",
"#4 c #cdb4a1",
"#F c #cdb8a2",
"c0 c #ceab69",
"a5 c #ceb49e",
"au c #ceb797",
"#K c #cebaa2",
"e5 c #cfab65",
"cZ c #cfad6c",
"df c #cfb16b",
"dc c #d0ad69",
"fm c #d0ae70",
"#6 c #d0bba4",
"ab c #d1bdaa",
"cJ c #d2ae68",
"bW c #d2b06f",
"a6 c #d2bda6",
"aB c #d2c1a7",
"d6 c #d3b571",
"#k c #d4bc98",
"aC c #d4bfa5",
"du c #d5b167",
"aA c #d5c0a7",
"bp c #d5c0a9",
"ef c #d6b26b",
"cv c #d6b26e",
"#5 c #d6c1a9",
"bc c #d7b472",
"d4 c #d7b771",
"eh c #d8af67",
"ck c #d8b571",
"aG c #d8c2a9",
"eL c #d8c39b",
"#s c #d9c19e",
"c# c #dab671",
"cT c #daba70",
"c9 c #dbb66d",
"bi c #dbb774",
"eY c #dbb97d",
"ea c #dbbb76",
"cG c #dcb76d",
"cs c #dcb770",
"cR c #ddb571",
"cf c #ddb970",
"e7 c #ddba7a",
"db c #ddbd73",
"#Y c #ddc4a0",
"bI c #deba73",
"e. c #debe72",
"em c #dfba70",
"cr c #e0bb73",
"dC c #e0bf72",
"eR c #e0c389",
"#T c #e0c7a1",
"ep c #e1b977",
"fg c #e1c071",
"d5 c #e2b973",
"#P c #e2bc72",
"eX c #e2c79a",
"bV c #e3be72",
"#X c #e3c9a1",
"cD c #e4bf75",
"bu c #e4c377",
"#l c #e4caa3",
"#r c #e4caa5",
"dj c #e5bf72",
"f. c #e5c389",
"bt c #e5c477",
"at c #e5cba5",
"ae c #e6c075",
"cI c #e7be75",
"bK c #e7c174",
"cU c #e7c178",
"aV c #e7c577",
"cl c #e8c377",
"aT c #e8c676",
"av c #e8c690",
"be c #e8c77f",
"#q c #e8cea7",
"bf c #e9c270",
"aU c #e9c374",
"eG c #e9c47a",
"eO c #e9caa1",
"#m c #e9cfa8",
"bg c #eac473",
"aK c #eac477",
"aW c #eac57d",
"e6 c #eac87c",
"e9 c #eac87f",
"a2 c #eaca88",
"dq c #ebc177",
"aL c #ebc576",
"aS c #ebc57a",
"aR c #ebc680",
"aY c #ebc788",
"ei c #ebcfa0",
"bh c #ecc174",
"af c #ecc67d",
"aX c #ecc782",
"aQ c #ecc785",
"#o c #ecd5ab",
"bJ c #edc676",
"eF c #edc985",
"aM c #edce96",
"eW c #edd09b",
"#p c #edd2aa",
"bd c #eec779",
"ee c #eeca87",
"aZ c #eecb92",
"ao c #eed19d",
"fe c #efc879",
"aP c #efcc92",
"el c #efcc94",
"a0 c #efd198",
"aq c #efd29f",
"#U c #efd4ab",
"cQ c #f0c576",
"an c #f0d3a1",
"aN c #f0d7a9",
"ap c #f1d09d",
"ed c #f1d1a6",
"#n c #f1d2ac",
"am c #f1d4a5",
"et c #f2cf9b",
"ar c #f2d19f",
"eQ c #f2d49e",
"ag c #f2d5a5",
"aO c #f2d5a7",
"as c #f2d6ab",
"ah c #f2dab0",
"eE c #f3d6a7",
"ak c #f3d6a9",
"eP c #f3d7ad",
"e0 c #f3d7af",
"eK c #f4d3a3",
"aj c #f4d7ab",
"#V c #f4d8af",
"ai c #f4d8b1",
"al c #f5d4a7",
"a1 c #f6d5a9",
"#W c #f6d6af",
"eZ c #f6d9ae",
"es c #f6deb2",
"ek c #f7dbb2",
"QtQtQtQtQtQtQtQtQtQtQtQtQt.#.aQtQtQtQtQtQtQtQtQtQtQtQtQtQtQtQtQtQtQtQtQtQtQtQtQtQtQtQtQtQtQtQtQtQtQt.b.cQtQtQtQtQtQtQtQtQtQtQtQt",
".b.b.b.b.b.b.b.b.b.b.b.b.b.a.c.b.b.b.b.b.b.b.b.b.b.b.b.b.b.b.b.b.b.b.b.b.b.b.b.b.b.b.b.b.b.b.b.b.b.b.a.c.b.b.b.b.b.b.b.b.b.b.b.b",
".b.b.b.b.b.b.b.b.b.b.b.b.b.b.b.b.c.a.b.b.b.b.b.b.b.b.b.b.b.b.b.b.b.b.b.b.b.b.b.b.b.b.b.b.b.b.b.b.b.b.b.b.b.b.b.b.c.b.b.b.b.b.b.b",
"QtQtQtQtQtQtQtQtQtQtQtQtQtQtQtQt.d.bQtQtQtQtQtQtQtQtQtQtQtQtQtQtQtQtQtQtQtQtQtQtQtQtQtQtQtQtQtQtQtQtQtQtQtQtQtQt.cQtQtQtQtQtQtQt",
"QtQtQtQtQtQtQtQtQtQtQtQtQtQtQtQt.d.bQtQtQtQtQtQtQtQtQtQtQtQtQtQtQtQtQtQtQtQtQtQtQtQtQtQtQtQtQtQtQtQtQtQtQtQtQtQt.cQtQtQtQtQtQtQt",
"QtQtQtQtQtQtQtQtQtQtQtQtQtQtQtQt.d.bQtQtQtQtQtQtQtQtQtQtQtQtQtQtQtQtQtQtQtQtQtQtQtQtQtQtQtQtQtQtQtQtQtQtQtQtQtQt.cQtQtQtQtQtQtQt",
"QtQtQtQtQtQtQtQtQtQtQtQt.e.f.bQt.d.bQtQtQtQtQtQtQtQtQtQtQtQtQtQtQtQtQtQtQtQtQtQtQtQtQtQtQtQtQtQtQtQtQtQtQtQtQtQt.cQtQtQtQtQtQtQt",
"QtQtQtQtQtQtQtQtQtQt.g.h.i.j.k.l.d.bQtQtQtQtQtQtQtQtQt.m.b.b.b.m.mQtQtQtQtQtQtQtQtQtQtQtQtQtQtQt.n.o.p.h.q.bQtQt.cQtQtQtQtQtQtQt",
".a.a.a.a.a.a.a.a.a.r.k.j.s.t.u.v.w.d.a.a.a.a.x.y.z.A.B.C.D.D.C.E.A.F.G.H.I.z.J.x.d.a.a.a.a.a.a.K.s.u.u.u.s.i.h.c.c.a.a.a.a.a.a.a",
".#.#.#.#.#.c.#.L.M.N.O.P.Q.R.S.u.pQt.#.T.E.U.V.V.j.s.j.W.X.Y.Y.Z.U.0.N.s.j.j.j.1.V.M.L.x.2.q.3.u.4.M.W.y.5.N.u.V.6.a.#.#.#.#.#.#",
"QtQtQtQtQt.c.7.8.u.9#.###a#b#c.j#d#e#f.j.V#g#h#i#j#k#l#m#n#o#p#p#q#r#s#t#u#v#w#x#y.0#z#A.u#B#y#C.R#D#A#E#F#G.9.0.s#y#H#IQtQtQtQt",
"QtQtQtQt.b.M.N.j#J#K#L#M#A#N#N.M#O#P#Q#R#S#T#U#V#V#V#V#V#V#V#W#V#W#V#V#V#V#V#V#U#X#Y#U#Z.W#0#1#2.J#N.R#3#4#5#6#7#8#y.j#9a.QtQtQt",
"QtQtQt.ba#.u.iaaab#Lac#A#N#N#N.Jadaeafagahai#V#Vajakalamanaoapapapaqaramalakas#Vai#Vaiatauavawax.6#N#b#NayazaAaBaCaDaE.N.h.lQtQt",
"QtQt.b#B.u.SaFaGaHaI.y#N#N#N.T#AaJaKaLaMaNaOaqaPaQaRaSaTaTaUaUaUaUaVaKaSaWaXaYaZa0anaga1aOa2aKa3.J#N#N#b#Aa4#.a5a6aAa7a8.N.k.qQt",
".b.b.2.ua9b.aGb#ba#A#N#N#N#N.JbbbcbdaKaKaRbeaKbfaUaUbgbgaKaKaKaKaKaKaKaKbgaUaUbfbhaKaSaQaRbgaKbibj.3#A#N#b.y#HbkaDbla6azbm.Na#bn",
".b.7.N.Sbobpbqbr.R#N#N#N.T#A#NbsbtaSaKaKaUaUaKaKaKaKaKaKaKaKaKaKaKaKaKaKaKaKaKaKaKbgaUaUbgaKaKbubv.U.0.obw#N#bbx#bbybzbAbBbm.ubC",
"Qt.2.ubDbEbF#H#A#N#N#N#AbG#y#ObHbIbJaKaKaKaKaKaKaKaKaKaKaKaKaKaKaKaKaKaKaKaKaKaKaKaKaKaKaKaKaKbKbLbM.u.8bN.T#N#N#b.y#D#abObP#A.s",
"QtbQ#C.TbC.T#A#N#N#N#cbRbS.NbTbUbVaLaKaKaKaKaKaKaKaKaKaKaKaKaKaKaKaKaKaKaKaKaKaKaKaKaKaKaKaKaKaKbWbX.I.ubYbZaE#N#N#N.T#A.J#A.S.u",
"Qt.p.u.h#A.T#N#N.Tb0b1.O.u.5b2b3aSaKaKaKaKaKaKaKaKaKaKaKaKaKaKaKaKaKaKaKaKaKaKaKaKaKaKaKaKaKaKaKaeb4b5b6.Nb7bG#A.T#N#N#N#N#N.Z.4",
"Qt.7.u#y#N.T#D#c.6b8.O.N.Fb9c.aeaLaKaKaKaKaKaKaKaKaKaKaKaKaKaKaKaKaKaKaKaKaKaKaKaKaKaKaKaKaKaKaKaLc##Rcab6.s.kbGbZb0#c#A#A.T.2.u",
".d.x.0.u#g.hbGbRcb.j.ucccdcecfbJaKaKaKaKaKaKaKaKaKaKaKaKaKaKaKaKaKaKaKaKaKaKaKaKaKaKaKaKaKaKaKaKaKaKcgchci#g.N.j.kb1bQcj.k.V.u.N",
"QtQt.l.0.u.u.N.u.u.Ocib2ceckbJaKaKaKaKaKaKaKaKaKaKaKaKaKaKaKaKaKaKaKaKaKaKaKaKaKaKaKaKaKaKaKaKaKaKaLclcmcnca.I.u.N.N.N.N.u.u.0co",
"QtQtQt.g.h.v.k.0.ucpchcqcrbJaKaKaKaKaKaKaKaKaKaKaKaKaKaKaKaKaKaKaKaKaKaKaKaKaKaKaKaKaKaKaKaKaKaKaKaKaKaLcsb4ch.U.u#2.h.J.J.q.bQt",
"QtQtQtQtQtQtQt.p.uctcubVbJaKaKaKaKaKaKaKaKaKaKaKaKaKaKaKaKaKaKaKaKaKaKaKaKaKaKaKaKaKaKaKaKaKaKaKaKaKaKaKaLaLcv.E.u.nQtQtQtQtQtQt",
"QtQtQtQtQtQtQt#B.ucwaLaLaKaKaKaKaKaKaKaKaKaKaKaKaKaKaKaKaKaKaKaKaKaKaKaKaKaKaKaKaKaKaKaKaKaKaKaKaKaKaKaKaKaLbJcx.u.lQtQtQtQtQtQt",
"QtQtQtQtQtQtQta#.ucyaKaKaKaKaKaKaKaKaKaKaKaKaKaKaKaKaKaKaKaKaKaKaKaKaKaKaKaKaKaKaKaKaKaKaKaKaKaKaKaKaKaKaKaKaKcz.u.fQtQtQtQtQtQt",
".d.d.d.d.d.d.c.M.ucAaKaKaKaKaKaKaKaKaKaKaKaKaKaKaKaKaKaKaKaKaKaKaKaKaKaKaKaKaKaKaKaKaKaKaKaKaKaKaKaKaKaKaKaKclcB.u.3.d.d.d.d.d.d",
"QtQtQtQtQtQt.#.K.ucCaKaKaKaKaKaKaKaKaKaKaKaKaKaKaKaKaKaKaKaKaKaKaKaKaKaKaKaKaKaKaKaKaKaKaKaKaKaKaKaKaKaKaKaKcD.A.u.dQtQtQtQtQtQt",
"QtQtQtQtQtQt.#.r.NcEclaKaKaKaKaKaKaKaKaKaKaKaKaKaKaKaKaKaKaKaKaKaKaKaKaKaKaKaKaKaKaKaKaKaKaKaKaKaKaKaKaKaKaKcfb6.s.bQtQtQtQtQtQt",
"QtQtQtQtQtQt.#.3.scFaKaKaKaKaKaKaKaKaKaKaKaKaKaKaKaKaKaKaKaKaKaKaKaKaKaKaKaKaKaKaKaKaKaKaKaKaKaKaKaKaKaKaKaKcG#2.8.mQtQtQtQtQtQt",
"QtQtQtQtQtQt.#.w.scHcIaLaKaKaKaKaKaKaKaKaKaKaKaKaKaKaKaKaKaKaKaKaKaKaKaKaKaKaKaKaKaKaKaKaKaKaKaKaKaKaKaKaKaLcJ.t.0QtQtQtQtQtQtQt",
".#.#.#.#.#.#.#.w.sb6cKbKaLaKaKaKaKaKaKaKaKaKaKaKaKaKaKaKaKaKaKaKaKaKaKaKaKaKaKaKaKaKaKaKaKaKaKaKaKaKaKaKaLbgcL.1.M.#.#.#.#.#.#.#",
".a.a.a.a.a.a.a.c.j.jcMcNbJaKaKaKaKaKaKaKaKaKaKaKaKaKaKaKaKaKaKaKaKaKaKaKaKaKaKaKaKaKaKaKaKaKaKaKaKaKaKaLaLcO.G.u.h.a.a.a.a.a.a.c",
"QtQtQtQtQtQtQtQt.k.ucP#RckbJaKaKaKaKaKaKaKaKaKaKaKaKaKaKaKaKaKaKaKaKaKaKaKaKaKaKaKaKaKaKaKaKaKaKaKaKaKcQcRcM.O#C.dQtQtQtQtQtQt.c",
"QtQtQtQtQtQtQtQt.o.4cSb2cecTaLaKaKaKaKaKaKaKaKaKaKaKaKaKclbKaecDcDcDcDbKclaKaKaKaKaKaKaKaKaKaKaKaKaKaLcUcVcW.ucXQtQtQtQtQtQtQt.c",
"QtQtQtQtQtQtQtQt.e.8.NcichcYcZaeaLaKaKaKaKaKaKaKaKclbVcsc0c1c2c3c4c5c6c7c8c9craeaKaKaKaKaKaKaKaKaKaKbgd.b9#g.j.nQtQtQtQtQtQtQt.c",
"QtQtQtQtQtQtQtQtQtd#.ub6#0b2chdadbaLaLaKaKaKaKaK#Pdcdd.F.u.u.j.t#g#g.V.N.ub6decyc#aeaKaKaKaKaKaKaLaLdfdgdh.u.p.mQtQtQtQtQtQtQt.c",
"QtQtQtQtQtQtQtQtQtQt#B.u.OcPb2dicebWdjaLaLaKcTdkdl.j.N.j.8#y.Z.Rbwdmbzdndo.R.t.u.DdpcvaKaKaLaLaLdqcZcncPdr.s.lQtQtQtQtQtQtQtQt.c",
".a.a.a.a.a.a.a.a.a.a.cds.u.Ncz#0b2dgdtdcbKdudl.u.V.sdva#.Za#cX.5dwdxdydza7dA.J.M#g.u.EdBaKaUaKdCdDdgdE#2.u.2.a.a.a.a.a.a.a.a.a.d",
"QtQtQtQtQtQtQtQtQtQtQt.b.h.j.u#y#Ob9dib2dFdG.NdHdI.S.G.E.V.u.u.u.u.u.u.u.Oa9bN#ddJ.8.N.AdKdadDdLbXb9.W.u#y.bQtQtQtQtQtQtQtQtQtQt",
"QtQtQtQtQtQtQtQtQtQtQtQtQt.J#B.u.u.UczdMcF.udN.O.t.u.tdOccdPcpdQ#OcW.GcWdR.j.u.j#ybQ.s.uaxbXchbXdQ.U.u.k.eQtQtQtQtQtQtQtQtQtQtQt",
"QtQtQtQtQtQtQtQtQtQtQtQtQt.d.d.7#y.u.u.0.j.u.N.u.FdScadMdTdUdtdVbLdWdXdYchcabM.U.u.V.0.NdZb5d0.E.j.uds.lQtQtQtQtQtQtQtQtQtQtQtQt",
"QtQtQtQtQtQtQtQtQtQtQtQtQt.d.bQt.b.f.p.s.u.ub6cPd1d2cKd3d4craecUcUcUae#Pd5d6d7d8d9.j.u.u.s.O.s.u.v.6.c.bQtQtQtQtQtQtQtQtQtQtQtQt",
"QtQtQtQtQtQtQtQtQtQtQtQtQt.d.bQtQtQt.m.d.p.u.Gcnd.e.bKaLaLaLaLaLaLaLaLaLaLaLclaec9e#.V.u.u.8a#.J.gQt.a.bQtQtQtQtQtQtQtQtQtQtQtQt",
".a.a.a.a.a.a.a.a.a.a.a.a.a.x.d.b.b.b.b.b#N.N.Fd2eabdaLaKaKaKaKaKaKaKaKcl#P#PbKaLaLcUeb.Vds.d.e.b.b.b.c.d.a.a.a.a.a.a.a.a.a.a.a.a",
".a.a.a.a.a.a.a.c.d.a.a.a.a.b.b.b.b.b.b.b.y.N.WecedeeaUaKaKaKaKaKaKaKclef.F.AdGegehaWeicS.j.T.a.a.a.a.a.a.a.a.a.a.a.a.a.a.a.a.a.a",
"QtQtQtQtQtQtQt.a.bQtQtQtQtQtQtQtQtQtQt.g.j.u.OejekelbfaKaKaKaKaKcDdjbgemen.u.V.jeoepakeq.u.6QtQtQtQtQtQtQtQtQtQtQtQtQtQtQtQtQtQt",
"QtQtQtQtQtQtQt.a.bQtQtQtQtQtQtQtQtQtQt.6.N.u.jeresetbfaKaKaKaKbJeuevewexey.sezeA.ueBageC.sa#QtQtQtQtQtQtQtQtQtQtQtQtQtQtQtQtQtQt",
"QtQtQtQtQtQtQt.a.bQtQtQtQtQtQtQtQtQt.m.k.j.W.seD#VeEeFeGclclclcGdO.jdQeHbM#yeI#v.ueJeKeLeMdsQtQtQtQtQtQtQtQtQtQtQtQtQtQtQtQtQtQt",
"QtQtQtQtQtQtQt.a.bQtQtQtQtQtQtQtQtQt.n.V.V.5.jeNeOekePeQeReScCeT.R.j.u.u.0bmeUbM.ueVeWeX.t.vQtQtQtQtQtQtQtQtQtQtQtQtQtQtQtQtQtQt",
"QtQtQtQtQtQtQt.a.bQtQtQtQtQtQtQtQtQt.b#y.u.s.0b6eYeKeZe0#u.G.W.Je1.K.U#Ae2e3e4.O#ge5e6e7.V.0QtQtQtQtQtQtQtQtQtQtQtQtQtQtQtQtQtQt",
".c.d.d.d.d.d.d.c.c.d.d.d.d.d.d.d.d.d.d.3.2.hdre8#Pe9f.f#fa.V.NcX#A#c#ccX.2.0dN.NfbcUaKe5#C.0.d.d.d.d.d.d.d.d.d.d.d.d.d.d.d.d.d.d",
".a.b.b.b.b.b.b.#.#.b.b.b.b.b.b.b.b.b.b.b.bfc.Vfdfe#Pffct.C.u.u.jbQa#bQ.k.8.u.u#2d8fgfefh.u#BQtQtQtQtQtQtQtQtQtQtQtQtQtQtQtQtQtQt",
".aQtQtQtQtQtQtQtQtQtQtQtQtQtQtQtQtQtQtQtQtfi.jfjc#fkflcp.u.k.k.u.u.N.u.u.u.0.O.jcicZfmfn.u.3QtQtQtQtQtQtQtQtQtQtQtQtQtQtQtQtQtQt",
".aQtQtQtQtQtQtQtQtQtQtQtQtQtQtQtQtQtQtQtQt#y.ubNfofpcc.j.j#D.b.6#B.k#y.2.6.g.6.ubMfqfr.0.s.eQtQtQtQtQtQtQtQtQtQtQtQtQtQtQtQtQtQt",
".aQtQtQtQtQtQtQtQtQtQtQtQtQtQtQtQtQtQtQtQtds.u.O.8.j.u.s.JQtQtQt.m.b.b.a.dQt#D.u.U#b.2.u.0.mQtQtQtQtQtQtQtQtQtQtQtQtQtQtQtQtQtQt",
".aQtQtQtQtQtQtQtQtQtQtQtQtQtQtQtQtQtQtQtQt.f.j.N.u.uds.fQtQtQtQtQtQtQt.a.dQt.g#y.u.j.N.u.hQtQtQtQtQtQtQtQtQtQtQtQtQtQtQtQtQtQtQt",
".a.#.#.#.#.#.#.#.#.#.#.#.#.#.#.#.#.#.#.#.#.#.x.h.J.T.#.#.#.#.#.#.#.#.#.a.dQtQt#D.i.u.u.j.dQtQtQtQtQtQtQtQtQtQtQtQtQtQtQtQtQtQtQt",
".c.c.c.c.c.c.c.c.c.c.c.c.c.c.c.c.c.c.c.c.c.c.c.c.c.c.c.c.c.c.c.c.c.c.c.c.c.d.d.d.d.d.d.d.d.d.d.d.d.d.d.c.d.d.d.d.d.d.d.d.d.d.d.d",
"QtQtQtQtQtQtQtQtQtQtQtQtQt.#.aQtQtQtQtQtQtQtQtQtQtQtQtQtQtQtQtQtQtQtQtQtQtQtQtQtQtQtQtQtQtQtQtQtQtQt.b.cQtQtQtQtQtQtQtQtQtQtQtQt",
"QtQtQtQtQtQtQtQtQtQtQtQtQt.#.aQtQtQtQtQtQtQtQtQtQtQtQtQtQtQtQtQtQtQtQtQtQtQtQtQtQtQtQtQtQtQtQtQtQtQt.b.cQtQtQtQtQtQtQtQtQtQtQtQt",
"QtQtQtQtQtQtQtQtQtQtQtQtQt.#.aQtQtQtQtQtQtQtQtQtQtQtQtQtQtQtQtQtQtQtQtQtQtQtQtQtQtQtQtQtQtQtQtQtQtQt.b.cQtQtQtQtQtQtQtQtQtQtQtQt",
"QtQtQtQtQtQtQtQtQtQtQtQtQt.#.aQtQtQtQtQtQtQtQtQtQtQtQtQtQtQtQtQtQtQtQtQtQtQtQtQtQtQtQtQtQtQtQtQtQtQt.b.cQtQtQtQtQtQtQtQtQtQtQtQt",
"QtQtQtQtQtQtQtQtQtQtQtQtQt.#.aQtQtQtQtQtQtQtQtQtQtQtQtQtQtQtQtQtQtQtQtQtQtQtQtQtQtQtQtQtQtQtQtQtQtQt.b.cQtQtQtQtQtQtQtQtQtQtQtQt"};
