/* XPM */
static char *dummy[]={
"64 64 663 2",
".v c #000000",
"fz c #002100",
"fA c #002a16",
"ek c #0c3124",
"cY c #153737",
".x c #161519",
".w c #1c1500",
"eh c #1c372e",
".P c #222126",
"dC c #263c36",
".2 c #272117",
"er c #2b0002",
"dg c #2b2000",
"hz c #2b2a30",
".E c #2f2925",
".R c #322915",
"dd c #323138",
".y c #33001a",
"eC c #352900",
"#7 c #35312f",
"fp c #35412c",
"f4 c #354644",
"eT c #360000",
"#B c #383023",
"f2 c #38373f",
"bd c #38463c",
".z c #391527",
"eG c #3b3012",
"am c #3b3737",
"eN c #3c1518",
"cU c #3c2139",
"gD c #3e2130",
".3 c #3e362e",
"gg c #3e3c45",
"cD c #403622",
"gb c #412126",
"dc c #413c3e",
"eH c #432016",
"c4 c #432a38",
"aW c #433c36",
"ej c #434e48",
"eM c #453600",
".1 c #453c2c",
"a3 c #454144",
".A c #46292f",
"bC c #473c20",
"gt c #482924",
"bS c #48413d",
"#e c #4a3037",
"do c #4a4135",
"#P c #4c302e",
"bc c #4c412b",
"aX c #4c4543",
"ei c #4c5552",
"eS c #4e3023",
"bU c #4e373e",
"cq c #4e401f",
"d5 c #4e453c",
".B c #503736",
".4 c #504534",
"ch c #515541",
"#A c #52362d",
"ap c #523c44",
"bZ c #52452a",
"aY c #524a42",
"b1 c #53451d",
"fS c #543621",
".i c #543c3d",
"aL c #54493b",
"cv c #544e4e",
"hw c #554933",
"dU c #563c35",
"cc c #564e48",
"fR c #565258",
"ff c #573c2c",
"b0 c #574929",
"#d c #574d42",
"by c #584143",
".t c #59413c",
"ik c #594d3a",
"cE c #59514d",
"e# c #5b3037",
"il c #5b4134",
".f c #5b4549",
"cO c #5b4d32",
".F c #5b5147",
"f5 c #5b5557",
"gf c #5b6263",
"b7 c #5c4d28",
"fu c #5c5141",
"c5 c #5d3745",
"bT c #5d4543",
"aj c #5e453c",
"aK c #5e4a4e",
"cZ c #5e5139",
"ex c #5f5131",
"dn c #604533",
".h c #604a48",
"fM c #605547",
"dv c #605857",
".D c #614942",
"hN c #615540",
"cr c #616150",
"gc c #61645e",
"cx c #623c44",
"fD c #633c3d",
".j c #634e4d",
"hv c #635439",
".G c #63584c",
"c# c #644932",
".u c #644d48",
"eO c #645430",
"ep c #645846",
".g c #654149",
".Z c #65583f",
".C c #664143",
"gM c #664928",
"#C c #664d41",
".k c #665152",
"#6 c #665b51",
"dr c #665f5f",
"im c #67514d",
"aa c #675838",
".l c #68454e",
"ai c #68582f",
"#f c #685b45",
"eU c #686754",
".s c #694549",
"gq c #694d31",
"#c c #695147",
".Q c #695557",
"e5 c #696d6d",
"bw c #6a4542",
".e c #6a4a53",
"it c #6a5140",
".0 c #6a5b3f",
"a# c #6a5e50",
"ge c #6a6f74",
"fE c #6b302d",
"hU c #6b5e4b",
".d c #6c4a4e",
"aN c #6c554c",
"fY c #6d3635",
"fj c #6d4533",
".c c #6d4948",
".m c #6d4e58",
".6 c #6d6155",
"dS c #6d6462",
"ak c #6e5851",
".S c #6e5e3e",
"hS c #6e6150",
"gd c #6e7273",
".b c #6f4d53",
"cQ c #6f5438",
"fm c #6f584c",
"h1 c #6f5e36",
"hZ c #6f614a",
"h0 c #6f6459",
".a c #704d4d",
"#z c #706144",
"Qt c #715157",
"bL c #716454",
"fN c #717476",
".# c #725152",
"fe c #725b51",
"e1 c #72613d",
"hM c #72644f",
"#K c #72675d",
"fL c #726a69",
"gu c #735837",
"is c #735b4b",
"cV c #736135",
"dT c #736759",
"g. c #74403b",
"e2 c #745b45",
".Y c #746443",
"dP c #746754",
"bh c #755e55",
"gl c #75643c",
"dN c #766e47",
"dD c #767672",
"aG c #775e4a",
"c6 c #776749",
"g1 c #776958",
"ce c #77766f",
"dI c #786642",
"iu c #786c61",
"dF c #787875",
"h4 c #795e3d",
".H c #79645e",
"#0 c #79694e",
"g2 c #7a4941",
"dG c #7a6948",
"#J c #7a6f64",
"ew c #7b6459",
"hG c #7b6f60",
"dJ c #7b786b",
"gk c #7c765a",
"ga c #7d4d40",
"dl c #7d613c",
"cw c #7e6c47",
"hy c #7e6e57",
"dK c #7e7d78",
".O c #7f6a61",
"bJ c #7f6c41",
".9 c #7f7160",
"fH c #7f8786",
"h6 c #80674e",
"hA c #80715b",
".X c #816648",
"hu c #816e47",
"bY c #826e40",
"cg c #82766b",
"hC c #83694d",
"h7 c #83714c",
"#. c #837667",
"ir c #846948",
".5 c #846f64",
".W c #847146",
"ia c #856f60",
"cl c #85713f",
"ic c #857351",
"dM c #85765f",
"bD c #85786b",
"d# c #858174",
"hp c #86734b",
"bE c #86765a",
"aJ c #867867",
"dy c #868170",
"dL c #877a6e",
"e8 c #878d88",
"#h c #886b40",
"if c #886e52",
"e3 c #887164",
"id c #887550",
"an c #887a6a",
"ht c #89754b",
"ij c #897a66",
"cX c #8a7367",
"c2 c #8a7544",
"ib c #8a7855",
"## c #8a7c6d",
"fO c #8a898b",
"fy c #8a908f",
".n c #8b6c64",
"aO c #8b7850",
"cH c #8b7a5e",
"hH c #8b7c6a",
"ds c #8b8988",
"f6 c #8c5445",
"cF c #8c766b",
"hq c #8c774a",
"#y c #8c7a59",
"hW c #8c7f71",
"fQ c #8c9292",
"da c #8d7046",
"cI c #8d7667",
"bI c #8d7744",
"cN c #8d7a54",
".N c #8d7e6d",
"c. c #8e8174",
"eg c #8e8773",
"cf c #8e897c",
"fG c #8f4d46",
"hO c #8f755a",
"d3 c #8f7a49",
"hx c #8f7e65",
"ck c #907345",
"ig c #907555",
"ie c #907c54",
"h8 c #917c4e",
".7 c #918373",
"cz c #918e8d",
"hT c #927e58",
"bl c #928065",
"fZ c #929299",
"#Q c #937544",
"g3 c #937855",
"be c #937c6d",
"b4 c #937e53",
"gH c #938452",
"cM c #939796",
"f1 c #93999d",
"fa c #94544b",
"hj c #94865b",
"bo c #957e48",
"aH c #957e70",
"bV c #958058",
"e4 c #95856f",
"hr c #96804d",
"g9 c #96825c",
"i# c #968260",
"a1 c #968776",
"gV c #96885a",
"bM c #977a49",
"hQ c #977c58",
"ho c #978257",
"eA c #97866f",
"#O c #978673",
"hV c #988170",
"#G c #988876",
"al c #988879",
"bp c #99824d",
"aZ c #998373",
"cd c #99845b",
"cy c #9a8456",
"#5 c #9a8a79",
"#T c #9b8451",
"#4 c #9b8c7f",
"fq c #9b927e",
"cT c #9b9c95",
"gh c #9c844c",
"g4 c #9c865b",
"fn c #9d574f",
"bt c #9d8052",
"cP c #9d8057",
".M c #9d8679",
"hE c #9d8c78",
"bi c #9d937d",
"ca c #9e864b",
"c3 c #9e885a",
"f3 c #9e8a67",
"#H c #9e8e7b",
"fP c #9ea1a2",
"hs c #9f8257",
"hI c #9f866f",
"dh c #9f8855",
"dR c #9fa19e",
"eB c #a08252",
"c8 c #a08850",
"#x c #a08c6a",
".I c #a0907e",
"fg c #a0a4a8",
"h. c #a18a5a",
"cp c #a18a7c",
"hP c #a1907b",
"#g c #a28456",
"gN c #a28a50",
"g5 c #a28c5e",
".8 c #a2927d",
"#I c #a29281",
"d2 c #a29e9e",
"fv c #a2aaaa",
"ev c #a39c95",
"f0 c #a3a6a8",
"b5 c #a48c54",
"eQ c #a49380",
"ah c #a58b4f",
"hl c #a58d5d",
"eI c #a58e7e",
"gj c #a6916d",
"e0 c #a69580",
"ci c #a69583",
"eb c #a6a7a6",
"e9 c #a7665c",
"bF c #a78850",
"hk c #a78a5e",
"hm c #a78f5d",
"es c #a7a7a1",
"fx c #a7a8aa",
"fI c #a7aaae",
"fK c #a7aead",
"bK c #a88f53",
"hB c #a89783",
"fh c #a8aaac",
"#S c #a98a55",
"aV c #a98c5d",
"h# c #a99161",
"g8 c #aa865f",
"b2 c #aa9386",
"fd c #aa9882",
"#D c #aa9885",
"fw c #aaabad",
"go c #ab6053",
"b6 c #ab8b54",
"g0 c #ab8c7b",
"hi c #ab9153",
"gT c #ab9a88",
"ez c #ababa9",
"db c #ac8d58",
"bq c #ac9357",
".o c #ac9586",
"hn c #ad8f61",
"bf c #ad9c87",
"e. c #adadab",
"fi c #adb4b4",
"a6 c #ae9456",
"gI c #ae945b",
"b8 c #af9165",
"bz c #af965f",
".r c #af9d8a",
"cG c #b0965b",
"bj c #b09888",
"#Z c #b09b7b",
".L c #b09f8c",
"eq c #b1985f",
"#w c #b19b78",
"eP c #b19f89",
"gU c #b2635c",
"eR c #b26b5a",
"#L c #b2a08c",
"b9 c #b2a08f",
"fc c #b2afa6",
"dO c #b39855",
"i. c #b39963",
"#1 c #b39c8a",
"gG c #b48463",
"cb c #b4945b",
"dH c #b4995a",
"hF c #b49d74",
"#8 c #b4a28e",
"f# c #b5665b",
"c7 c #b59663",
"hX c #b59d8c",
"b3 c #b5a391",
"fJ c #b5b5b8",
"ab c #b6965a",
"a7 c #b69b59",
"#b c #b6a38e",
"ea c #b7915c",
"ha c #b79863",
"aM c #b79f8c",
"hD c #b7a091",
"a2 c #b7a590",
"dj c #b7bbbb",
"em c #b89650",
"bR c #b8985e",
"bB c #b89c5d",
"#F c #b8a58e",
"cK c #b8b1ae",
"e6 c #b8b8bb",
"cu c #babebe",
"h5 c #bb9959",
"hJ c #bb9b62",
".T c #bb9b66",
"b. c #bba061",
"a. c #bba892",
"dE c #bbb9b7",
"bX c #bc9b5d",
"#v c #bca685",
"dA c #bcbfbe",
"h9 c #bd9d65",
"gC c #bda992",
"gE c #be6b5e",
"gO c #bea15c",
"hb c #bea368",
"#a c #beab94",
"cs c #bec2c3",
"aq c #bf9e65",
"gr c #bfa360",
"bg c #bfa692",
"aI c #bfac96",
"gp c #c06e62",
"d4 c #c09e58",
"gs c #c09e5c",
"fW c #c17062",
"bv c #c1a060",
".K c #c1ae99",
"bW c #c2a168",
"bk c #c2a663",
"bx c #c2a994",
"fo c #c37361",
".J c #c3af98",
"gn c #c49a87",
"cW c #c4a364",
"f. c #c4b09b",
"fV c #c5ac96",
"#3 c #c5b29d",
"f9 c #c6b29a",
"gS c #c78275",
"iq c #c7a667",
"hc c #c7aa6a",
"eY c #c7b39c",
"bG c #c8a663",
"in c #c8ab6d",
"cJ c #c8b4a1",
"fC c #c99f8c",
"bP c #c9a65e",
"g6 c #c9a76a",
"#u c #c9b18e",
"fl c #c9b49c",
"c1 c #c9c7c9",
"bO c #caa75e",
"eF c #cab6a0",
"fk c #cb887b",
"a4 c #cba866",
".p c #cbb7a0",
"co c #cbb7a2",
"cR c #cbc0b8",
"eo c #cbcccb",
"cn c #ccaa6d",
"ii c #ccab74",
"gW c #ccae6c",
"fT c #cd7968",
"gm c #cda168",
"hd c #cdb06c",
"hK c #cdb179",
"eX c #cdb8a2",
"ct c #cdcfd0",
"dB c #ceab69",
"bs c #ceb068",
"ao c #cebaa2",
"eJ c #ced0d1",
".U c #cfad6c",
"cm c #cfb16b",
"gJ c #d0ad69",
".V c #d0ae70",
"gL c #d0b167",
"#M c #d0bba4",
"#9 c #d1bca4",
"eZ c #d1bca6",
"ip c #d2b46e",
".q c #d2bda6",
"gP c #d3af68",
"dm c #d3af6b",
"io c #d3b172",
"#E c #d4bfa5",
"a0 c #d4bfa8",
"fb c #d4ccc1",
"f8 c #d58d7d",
"bm c #d5b66d",
"#N c #d5c0a7",
"g7 c #d6b26e",
"ag c #d6bc8e",
"#t c #d6bd98",
"#2 c #d6c1a9",
"dY c #d6d9d8",
"fB c #d7796f",
"cj c #d7b267",
"eW c #d7d4ca",
"dp c #d7d5d2",
"el c #d8b36a",
"ih c #d8b970",
"b# c #d9b56e",
"f7 c #da7d6e",
"bQ c #daba6c",
"#Y c #dac199",
"de c #dad6cb",
"df c #dadede",
"a9 c #dcb770",
"gi c #dcb97a",
"#s c #dcc39e",
"br c #ddb970",
"he c #ddb973",
"di c #ddbd73",
"eD c #dddbda",
"e7 c #ddddde",
"bN c #deb56a",
"hf c #deba73",
"bu c #debe72",
"ey c #dedbd9",
"cL c #dee1df",
"eL c #dee1e1",
"gZ c #df8674",
"bA c #dfba70",
"fX c #e08071",
"h2 c #e0bb6f",
"#R c #e0bb73",
"hh c #e0bf72",
"d1 c #e0e2df",
"aS c #e1c071",
"dX c #e2b970",
"a8 c #e2bc72",
"hg c #e2c174",
"dx c #e3be75",
"fF c #e48573",
"gK c #e4be6e",
"ac c #e4bf75",
"#U c #e4c496",
"aT c #e5bf72",
"cC c #e5e6e6",
"ft c #e5e7e7",
"gB c #e68174",
"bb c #e6c071",
"bn c #e6c075",
"g# c #e78377",
"bH c #e7c174",
"dw c #e7c178",
"gw c #e7c573",
"#r c #e7cca5",
"fU c #e88576",
"gA c #e88b76",
"ba c #e8c377",
"gy c #e8c676",
"ec c #e8e8e7",
"dz c #e8e9e9",
"gQ c #e99777",
"gY c #e9b777",
"aP c #e9c374",
"as c #e9c47a",
"cA c #e9eaec",
"gR c #ea8177",
"gz c #eabc75",
"gx c #eac074",
"aR c #eac473",
"ad c #eac477",
"d0 c #eaeae9",
"aU c #ebc576",
"dV c #ebebea",
"gF c #ec8377",
"aQ c #ecc174",
"gv c #ecc573",
"ar c #ecc679",
"hY c #ecc782",
"#i c #ecc98a",
"h3 c #eccd94",
"fs c #ecf0ee",
"a5 c #edc676",
"at c #edce94",
"#X c #edd2a8",
"#q c #edd2aa",
"d9 c #ededed",
"c9 c #edf1ef",
"gX c #eec477",
"az c #eecf96",
"dZ c #eeeeee",
"aD c #efcc92",
"aC c #efcc94",
"ay c #efd198",
"ax c #efd19a",
"en c #eff3f1",
"hR c #f0cb87",
"aB c #f0cd94",
"aA c #f0cd96",
"aE c #f0d29d",
"ae c #f0d3a1",
"c0 c #f0f3f0",
"au c #f1d09d",
"#j c #f1d39f",
"av c #f1d4a3",
"hL c #f1d5ab",
"#p c #f1d6af",
"d. c #f1f8f6",
"aw c #f2d19f",
"aF c #f2d5a7",
"#o c #f2d6ad",
"#k c #f3d6a9",
"#n c #f3d7af",
"#l c #f4d7ab",
"#m c #f4d8af",
"#W c #f4d8b1",
"ed c #f4f4f3",
"#V c #f5d9b0",
"af c #f6dab2",
"ee c #f6f5f5",
"d8 c #f7f6f6",
"d6 c #f7faf9",
"fr c #f9f7f6",
"dq c #f9f9fc",
"d7 c #f9fbf9",
"eu c #faf9f9",
"dk c #faf9fb",
"eK c #fafcfa",
"dQ c #fbfdfe",
"dW c #fcfdfb",
"eV c #fdfcfd",
"eE c #fefcfd",
"dt c #fefffc",
"et c #fefffe",
"cS c #feffff",
"du c #fffdff",
"ef c #fffefe",
"cB c #ffffff",
"QtQtQtQtQtQtQtQtQtQtQtQtQt.#.aQtQtQtQtQtQtQtQtQtQtQtQtQtQtQtQtQtQtQtQtQtQtQtQtQtQtQtQtQtQtQtQtQtQtQt.b.cQtQtQtQtQtQtQtQtQtQtQtQt",
".b.b.b.b.b.b.b.b.b.b.b.b.b.a.c.b.b.b.b.b.b.b.b.b.b.b.b.b.b.b.b.b.b.b.b.b.b.b.b.b.b.b.b.b.b.b.b.b.b.b.a.c.b.b.b.b.b.b.b.b.b.b.b.b",
".b.b.b.b.b.b.b.b.b.b.b.b.b.b.b.b.c.a.b.b.b.b.b.b.b.b.b.b.b.b.b.b.b.b.b.b.b.b.b.b.b.b.b.b.b.b.b.b.b.b.b.b.b.b.b.b.c.b.b.b.b.b.b.b",
"QtQtQtQtQtQtQtQtQtQtQtQtQtQtQtQt.d.bQtQtQtQtQtQtQtQtQtQtQtQtQtQtQtQtQtQtQtQtQtQtQtQtQtQtQtQtQtQtQtQtQtQtQtQtQtQt.cQtQtQtQtQtQtQt",
"QtQtQtQtQtQtQtQtQtQtQtQtQtQtQtQt.d.bQtQtQtQtQtQtQtQtQtQtQtQtQtQtQtQtQtQtQtQtQtQtQtQtQtQtQtQtQtQtQtQtQtQtQtQtQtQt.cQtQtQtQtQtQtQt",
"QtQtQtQtQtQtQtQtQtQtQtQtQtQtQtQt.d.bQtQtQtQtQtQtQtQtQtQtQtQtQtQtQtQtQtQtQtQtQtQtQtQtQtQtQtQtQtQtQtQtQtQtQtQtQtQt.cQtQtQtQtQtQtQt",
"QtQtQtQtQtQtQtQtQtQtQtQtQtQtQtQt.d.bQtQtQtQtQtQtQtQtQtQtQtQtQtQtQtQtQtQtQtQtQtQtQtQtQtQtQtQtQtQtQtQtQtQtQtQtQtQt.cQtQtQtQtQtQtQt",
"QtQtQtQtQtQtQtQtQtQtQt.e.f.g.bQt.d.bQtQtQtQtQtQtQtQt.h.i.f.j.k.e.l.l.l.e.bQtQtQtQtQtQtQtQtQtQtQtQt.j.h.j.mQtQtQt.cQtQtQtQtQtQtQt",
".a.a.a.a.a.a.a.a.a.n.o.p.q.q.r.h.c.d.a.a.s.t.u.a.a.u.v.v.v.v.w.v.v.v.v.x.y.z.A.B.C.d.a.a.a.a.a.D.E.v.v.v.F.G.C.a.c.a.a.a.a.a.a.a",
".#.#.#.#.#.c.#.H.I.J.K.L.M.N.O.P.b.Q.#.d.R.v.S.T.U.V.W.X.Y.Z.0.1.R.v.v.v.v.v.v.v.v.2.A.i.h.a.b.2.v.3.4.5.6.7.8.9.f.a.#.#.#.#.#.#",
"QtQtQtQtQt.C.h#..N###a#b.D#c#d.y#e.E#f#g.v.v#h#i#j#k#l#m#n#o#p#q#r#s#t#u#v#w#x#y#z#A.v.v.v#B#A.v.B#c#C#D#E#F#G#H#I#J.l.mQtQtQtQt",
"QtQtQt.m.B.w.v#K#L#M#N#O.D#c#c#P.v.v#Q#R#S#T#U#m#V#m#m#m#m#m#m#m#m#m#m#m#m#m#W#V#n#X#Y#Z#0.v.v.v.t#c#c#c#1#2.q#3#4#5#G#6.fQtQtQt",
"QtQt.b#7.v.G#8#9.q#Na.a#.u#c.u.uaaabacadadaeaf#V#V#V#V#V#V#V#V#V#V#V#V#V#V#V#V#V#V#V#V#V#Wagahaiaj#c#c#Cak#L#N#N.q.pal#6.vam.dQt",
"QtQt.i.vanao.q.q#N#bak#C#c.hapaqaradadadasatauaeavaeawaxayazazazaAaBaCaDaCaDaDataAaxaEavaFatad#RaG.u#c#c.u#caHaI.q#N.q.JaJ.v.2aK",
".b.j.xaL#9.q.q#NaMaN#C#c.hamaOadadadadadadaPaQadadadaRaSaTaPaPaPaPaPaPaPaPaPaPaPaPaPaRadadadadaUaVaWaXaY.u#c.DaNaZ.Ja0#N#N.r.2.x",
".b.f.va1.q.q#Na2aN.u#c#da3.3a4a5adadadadadaca6a7a8adada9b.adadadadadadadadadadb#baadadadadadadaUbbbc.EbdaX#d#c#c.DaNbebfa2bgbh.v",
"Qt.g.vbi#Na0bjaN.u.uaYa3#B.0baadadadadadadbk.v#6blbmadbnboa8adadadadadadadbnbpbqadbrbsbtbqbuadadaUbv.v.xaWaXaY.u#c#cbw.D#C.u.D.2",
"Qt.d.w#6bxaZ#c.u.ubyaX.3bcbzadadadacbrbAbnbBbCbD#bbEa8adbFbGadadadadadadbHbIbJbnbKbL.G.x.vbMbNbObPbQbR.2.v#7bSaXbT.u#c#c#c#c#c#7",
"QtQtbU.v#Baj#c.haXaXaWbcbVbWbHbXbYbZ.2.Rb0b1#Bb2b3#Db4aPa4b5adadadadadadb6b7a8b8#L#Db9c.c#.w#B.v.v.1cacbbZ.v.xamaXaXaY#dccaYaX.2",
"QtQtQt#e.v.w#Bamam#7bcb4cda4#h.v.3cecfcfcgch.wccaIci.Fcjacckacadadadadbaclcmcna2#IcocpbTcqcrcsctcucv.vbCbqcw.x.v.2#7aWbSbSam.E.v",
".d.d.d.dcx.P.v.v.v.wb4cdcyb0.v.vczcAcBcBcBcC.2cDcEcFaLbqadcGb#adadadadbaa8bHcHcIcJ#1.i.1.vcKcBcLcM.v.v.v.vbocN.4.w.v.v.v.v.v.v.A",
"QtQtQtQtQt.m.j.i.vcOcdcPcQ.v.v.v.v.3cRcBcBcScT.vcDcU.RcVadbrbAadadadadadadcW.x#zcX.FcY.2cZc0c1.x.E.R.v.v.2.vc2c3.0.v.Ac4#ec5.jQt",
"QtQtQtQtQtQtQt.f.vc6c7c8.v.v.v.v.v.vamc9cBcBd.d#.v.2.vdaadadadadadadadadaddb.v.Bdcdd.2.2dedf.v#ddg.v.v.v.v.w.vdh#z.v.lQtQtQtQtQt",
"QtQtQtQtQtQtQtap.vbvdibC.R.v.v.v.v.v.vdjcScBcBdkcK.xdldmadadadadadadadadadbB.v.4dn.wdodpdqdr.1.v.v.v.v.v.v.v.Rai.W.v.gQtQtQtQtQt",
"QtQtQtQtQtQtQtc5.vdmbX.v.2.v.v.v.v.v.wdscBcBcBdtdudvbXaRadadaUdwdxadaUaUad#Rdl.v.vdydzcBdA.v.v.v.v.v.v.v.v.v.R.vcV.v.gQtQtQtQtQt",
"QtQtQtQtQtQtQtby.vdBbY.2.v.v.v.v.vdCdDdEcBcBcBcBcBdFdGaPacdHdIdJdKdLdMdNbqbnacdOdPdQcBcBdRdSdc.v.v.v.v.v.v.v.v.vcDdTaKQtQtQtQtQt",
".d.d.d.d.d.d.cdU.vb.cD.2.v.v.v.vcMdVdWcBcBcBcBcBcBcTcDdXbI.vccdYdZd0d1d2.vd3aUd4d5d6cBcBd7d8d9e..v.v.v.v.v.v.v.v.1.I.g.d.d.d.d.d",
"QtQtQtQtQtQt.#e#.vea.w.v.v.v.v.vebecedeecBcBefcBcBeg.vb7.v.2.veheieiejek.w.2elem.xencBcBcBcBcBeo.v.v.v.v.v.v.v.vep#L.dQtQtQtQtQt",
"QtQtQtQtQtQt.#.B.veq.v.v.v.v.v.v.ver.vescBetefeuev.vdUew.xaY.4.v.v.v.v.R.2exdMcD.2eycBcBez.v.v.v.v.v.v.v.v.vdg.ReA#b.eQtQtQtQtQt",
"QtQtQtQtQtQt.#.B.veB.w.R.v.v.v.v.veC.veDcBcBeEa1.v.NeF#N.I.x.veG.2eH.w.vbZeIa0al.vaYeJeKeL.veM.v.v.v.v.v.v.veNeOePeQ.bQtQtQtQtQt",
"QtQtQtQtQtQt.#.i.veReS.R.v.v.v.v.veTeUeVcBcBeW.vdPeXeY#NeZe0ajcO#Bb0e1e2bye3an#2e4.ve5e6e7e8.2.w.v.v.v.v.veS.ve9f..nQtQtQtQtQtQt",
".#.#.#.#.#.#.#bT.vf#fa.w.v.v.v.v.2.vfbcBcBcBfc.vakaJbLfd.3#d#C.D.u.u.D.tdU.Dfe#OewffaWfgfhfidcaX.2.v.v.veNerfjfkflfm.#.#.#.#.#.#",
".a.a.a.a.a.a.a.h.vfnfo.vfffp.2.3.vfqfrd6fsftds.2.tfu.D.D.Aaj#c#c#c.4#C.ufu#c.t.x.tc#amfvfwfxfyfzfA.2eG.2.yeSfBfC#LfD.a.a.a.a.a.c",
"QtQtQtQtQtQtQtQt.RfEfFfG.v.v.v#7fHfIfJfJfKfxfL.xaj#cajbT#cfM.u#dbU.2aY.DaW#P.uaL.i#B#7fNfOfPfxfQfR.v.v.vfSfTfUfVbD.kQtQtQtQtQt.c",
"QtQtQtQtQtQtQtQt.B.vfWfXfY.vaYfZfIfwfhfhf0f1a#.v.B.FaYaYaYaXa3.t#B.Ea3a3aWaWa3f2cD.vf3cv.v.xf4f5aW.v.2f6f7fUf8f9#dQtQtQtQtQtQt.c",
"QtQtQtQtQtQtQtQt.l.vg.g#f7ga.vgbgcgdgegfdd.xdacDeNcYgggga3f2.ib0.vbCaLaLaXaWbc.R.vghaUgigjgkfucOglghgmfUfUfUgn#DbyQtQtQtQtQtQt.c",
"QtQtQtQtQtQtQtQtQt.t.vgofUfFgpgqbC.2.R.1cwgradgs.R.vgtff#7ff.v.2cbc2.v.v.v.v.vgubkbaadadgvgvgwgxadgygzgAfUgBgCbL.bQtQtQtQtQtQt.c",
"QtQtQtQtQtQtQtQtQt.bgD.vgEfUgFgGgHgIgJgKa5aUadadgLc2bC.R.2gMghbsadbngrgNbqgOgPbHadadadadadadadadadadadgQgRgSgTbUQtQtQtQtQtQtQt.c",
".a.a.a.a.a.a.a.a.a.a.s.2.wgUg#gGgVcdc3c7gWa8ada5gXaUa8bAbAacadadadadadadadadadadadadadadadadadadadadgygYgZg0g1.s.a.a.a.a.a.a.a.d",
"QtQtQtQtQtQtQtQtQtQtQt.j.2.vg2g3g4g4g4cdcdg5c7g6g7budwadgXara5gXaUaUaUaUaUaUaUaUaUaUaUadaUaUaUaUaUaUaUaUg8.7.iQtQtQtQtQtQtQtQtQt",
"QtQtQtQtQtQtQtQtQtQtQtQt.b.3.v.v#Ac6bVg4g4g4cdg9cdh.h#hahbhchdg7a9hehf#RdxacacbnbnbnbnbHhgacbnacdxhh#Rhia#.jQtQtQtQtQtQtQtQtQtQt",
"QtQtQtQtQtQtQtQtQtQtQtQtQt.d.l#e.v.veNaaaOcdcdg4g4g4cdcdhjg9cdcdg4c3c3c3g5hkhlhmhmhlh#hnhlhlhmhlhodIcO.v.3.eQtQtQtQtQtQtQtQtQtQt",
"QtQtQtQtQtQtQtQtQtQtQtQtQt.d.bQt.dbU.2.v.vcDglhphog4cdcdcdg4g4g4g4g4g4cdcdcdcdcdcdcdcdcdbVaO#zbc.w.v.E.t.bQtQtQtQtQtQtQtQtQtQtQt",
"QtQtQtQtQtQtQtQtQtQtQtQtQt.d.bQtQtQt.b.haW.x.v.vcDaahqhrhscPcdc3cycdcdcdcyhocNhthu.Yhvbc.R.v.v.xgDby.c.bQtQtQtQtQtQtQtQtQtQtQtQt",
".a.a.a.a.a.a.a.a.a.a.a.a.a.s.d.b.b.b.b.b.d.2hw.2.x.2.v.v.v.wbC#BgtcO.ZhxhyeG.v.v.v.v.v.R.3c5.g.d.b.b.c.d.a.a.a.a.a.a.a.a.a.a.a.a",
".a.a.a.a.a.a.a.c.d.a.a.a.a.b.b.b.b.b.b.bbU.vbVhv.2bcehhzhz.E.v.v.R.1.GhAhBci.Bdo.2.Rhp.Y.D.a.a.a.a.a.a.a.a.a.a.a.a.a.a.a.a.a.a.a",
"QtQtQtQtQtQtQt.a.bQtQtQtQtQtQtQtQtQtQtQtbU.Rcdhohv.v.xgb.4bc.RhC.Jco.qeXhDhE#DhwhwaOhFdMfeQtQtQtQtQtQtQtQtQtQtQtQtQtQtQtQtQtQtQt",
"QtQtQtQtQtQtQt.a.bQtQtQtQtQtQtQtQtQtQtQt.lbChog4g4aO.YexeO.vhx.h#6#9flhGa.b3hHhIhJhKhLhM.uQtQtQtQtQtQtQtQtQtQtQtQtQtQtQtQtQtQtQt",
"QtQtQtQtQtQtQt.a.bQtQtQtQtQtQtQtQtQtQtQtQthNbVg4g4g4g4g4hp.vhO#..A#6hPe0ala0cZhQa5hR#WhS.tQtQtQtQtQtQtQtQtQtQtQtQtQtQtQtQtQtQtQt",
"QtQtQtQtQtQtQt.a.bQtQtQtQtQtQtQtQtQtQtQt.bbchTg4g4g4g4g4aO.vaa.F#IhUhV.KhWhX.RcaaRhY#nhZcOQtQtQtQtQtQtQtQtQtQtQtQtQtQtQtQtQtQtQt",
"QtQtQtQtQtQtQt.a.bQtQtQtQtQtQtQtQtQtQtQtQthwhTg4g4g4g4g4cdhw.2.4.9h0bU#.##bch1h2adadh3cQh4QtQtQtQtQtQtQtQtQtQtQtQtQtQtQtQtQtQtQt",
".c.d.d.d.d.d.d.c.c.d.d.d.d.d.d.d.d.d.d.d.s#BaOg4g4g4b4hTg4bVbc.v#B#B.3cDguh5dxbndwbabaaah6.d.d.d.d.d.d.d.d.d.d.d.d.d.d.d.d.d.d.d",
".a.b.b.b.b.b.b.#.#.b.b.b.b.b.b.b.b.b.b.b.deTh7g4g4g4e1hpb4g4c3h7excqcOh8h9bzh#hli.hfh2i#iaQtQtQtQtQtQtQtQtQtQtQtQtQtQtQtQtQtQtQt",
".aQtQtQtQtQtQtQtQtQtQtQtQtQtQtQtQtQtQtQt.Q#B.SibbVic.R.2e1dIh7ididaOieieidifigg5ihaUbaiiij.mQtQtQtQtQtQtQtQtQtQtQtQtQtQtQtQtQtQt",
".aQtQtQtQtQtQtQtQtQtQtQtQtQtQtQtQtQtQtQtQt.SbZbTikeN.tbyaN.3cD.2eTeN#Bbcilim.ub4inaUaUioij.lQtQtQtQtQtQtQtQtQtQtQtQtQtQtQtQtQtQt",
".aQtQtQtQtQtQtQtQtQtQtQtQtQtQtQtQtQtQtQtQtfm.v.2.v#7QtQtQtQt.b.e.d.e.b.a.dQt.f.3bViphfiq.NbTQtQtQtQtQtQtQtQtQtQtQtQtQtQtQtQtQtQt",
".aQtQtQtQtQtQtQtQtQtQtQtQtQtQtQtQtQtQtQtQtQtby#BbS.mQtQtQtQtQtQtQtQtQt.a.dQt.mgD.4irisitiubyQtQtQtQtQtQtQtQtQtQtQtQtQtQtQtQtQtQt",
".a.#.#.#.#.#.#.#.#.#.#.#.#.#.#.#.#.#.#.#.#.#.#.#.#.#.#.#.#.#.#.#.#.#.#.a.dQtQt.b.3.weN.2.v.iQtQtQtQtQtQtQtQtQtQtQtQtQtQtQtQtQtQt",
".c.c.c.c.c.c.c.c.c.c.c.c.c.c.c.c.c.c.c.c.c.c.c.c.c.c.c.c.c.c.c.c.c.c.c.c.c.d.d.d.s#egDgb.B.l.d.d.d.d.d.c.d.d.d.d.d.d.d.d.d.d.d.d",
"QtQtQtQtQtQtQtQtQtQtQtQtQt.#.aQtQtQtQtQtQtQtQtQtQtQtQtQtQtQtQtQtQtQtQtQtQtQtQtQtQtQtQtQtQtQtQtQtQtQt.b.cQtQtQtQtQtQtQtQtQtQtQtQt",
"QtQtQtQtQtQtQtQtQtQtQtQtQt.#.aQtQtQtQtQtQtQtQtQtQtQtQtQtQtQtQtQtQtQtQtQtQtQtQtQtQtQtQtQtQtQtQtQtQtQt.b.cQtQtQtQtQtQtQtQtQtQtQtQt",
"QtQtQtQtQtQtQtQtQtQtQtQtQt.#.aQtQtQtQtQtQtQtQtQtQtQtQtQtQtQtQtQtQtQtQtQtQtQtQtQtQtQtQtQtQtQtQtQtQtQt.b.cQtQtQtQtQtQtQtQtQtQtQtQt",
"QtQtQtQtQtQtQtQtQtQtQtQtQt.#.aQtQtQtQtQtQtQtQtQtQtQtQtQtQtQtQtQtQtQtQtQtQtQtQtQtQtQtQtQtQtQtQtQtQtQt.b.cQtQtQtQtQtQtQtQtQtQtQtQt",
"QtQtQtQtQtQtQtQtQtQtQtQtQt.#.aQtQtQtQtQtQtQtQtQtQtQtQtQtQtQtQtQtQtQtQtQtQtQtQtQtQtQtQtQtQtQtQtQtQtQt.b.cQtQtQtQtQtQtQtQtQtQtQtQt"};
