/* XPM */
static char *dummy[]={
"64 64 679 2",
".v c #000000",
"dp c #002100",
"er c #0c3124",
"g9 c #0d1628",
".n c #161519",
"#y c #1c1500",
"ce c #222126",
"eJ c #263c36",
"af c #272117",
"eC c #2b0002",
"fQ c #2b2000",
"b2 c #2b2a30",
"dD c #2e413d",
".o c #2f2925",
"a6 c #314135",
"a7 c #322915",
"eU c #323138",
"d9 c #33001a",
".f c #35312f",
"a5 c #354644",
"is c #360000",
".F c #383023",
"b1 c #38373f",
"f1 c #391527",
".X c #3b3012",
"bq c #3b3737",
"fw c #3c1518",
"f0 c #3e2130",
".g c #3e362e",
"cK c #3e3c45",
".Z c #403622",
".Y c #412126",
"aL c #413c3e",
"gt c #432016",
"aA c #433c36",
"ed c #434e48",
"eh c #453c2c",
"cs c #454144",
"bC c #46292f",
"a8 c #473c20",
"cJ c #47524e",
"br c #482924",
"bM c #48413d",
".0 c #4a3037",
"bU c #4a4135",
"cL c #4a4649",
"fR c #4c302e",
"es c #4c412b",
"ap c #4c4543",
"cI c #4c5552",
"fM c #4e3023",
"bT c #4e373e",
"#8 c #4e453c",
"co c #4e4a4e",
"c. c #503736",
"eK c #504534",
".G c #52362d",
"dS c #523c44",
".W c #52452a",
"bp c #524a42",
"fg c #525852",
".e c #543c3d",
".5 c #54493b",
"eI c #545c5b",
".V c #554933",
"bn c #563c35",
"fP c #573c2c",
"bz c #574929",
"bo c #574d42",
".I c #584143",
"cP c #59413c",
"aI c #594d3a",
"cM c #59514d",
"cr c #595f5b",
"#f c #5b4134",
".h c #5b4549",
"#x c #5b4d32",
"hz c #5b5147",
"cD c #5c4d28",
"#L c #5c5141",
"do c #5c625f",
".U c #5d4543",
"e7 c #5d4a53",
"iF c #5e453c",
".K c #5e4a4e",
"hh c #5e5139",
"ib c #5e554d",
"cq c #5e585b",
"hd c #5f5131",
"ck c #5f6155",
"f8 c #604533",
".w c #604a48",
"hg c #605547",
"fv c #61362c",
".E c #614942",
"c9 c #614e53",
"bS c #615540",
"cp c #615c5f",
".1 c #623c44",
".T c #63493b",
".L c #634e4d",
"eY c #635439",
"cH c #635c5b",
".H c #644d48",
"b3 c #645430",
"#1 c #645846",
"eB c #645f63",
".J c #654149",
"f2 c #65583f",
"#p c #664143",
"#K c #664d41",
"cO c #665152",
"#z c #67514d",
"#2 c #675b4b",
"e4 c #676267",
"ee c #676a66",
"bD c #68454e",
"iD c #68582f",
"#e c #685b45",
".d c #694549",
"## c #695147",
".x c #695557",
".m c #695e55",
"ao c #6a4542",
"hD c #6a4a53",
"eL c #6a5140",
"g. c #6a5552",
"iA c #6a5b3f",
"bB c #6a5e50",
"aq c #6b5b37",
"d. c #6b5e4b",
"gP c #6b615a",
".i c #6c4a4e",
"bE c #6c554c",
".c c #6d4948",
"cN c #6d4e58",
"#. c #6d5446",
"#U c #6d5856",
"a2 c #6d5e45",
"fN c #6d6155",
"#7 c #6e4942",
"ff c #6e5b5f",
"hv c #6e5e3e",
".b c #6f4d53",
"dk c #6f5e36",
"#d c #6f614a",
".a c #704d4d",
"fS c #706144",
"Qt c #715157",
"gs c #716454",
"eT c #717476",
".# c #725152",
"hB c #72613d",
"gE c #72644f",
"d6 c #727473",
".M c #735b4b",
"gG c #736449",
"bF c #736759",
"hC c #746443",
".p c #755557",
"cy c #75643c",
"dR c #756c6d",
"aB c #766a5d",
"ge c #77585b",
"bN c #776749",
".4 c #776958",
".N c #785446",
"#A c #785856",
"gd c #785e44",
"fO c #786155",
"cW c #786642",
"aW c #786c61",
"ex c #787875",
"iI c #79614f",
"#c c #79663b",
"hP c #796c5c",
"eq c #797b7c",
"aM c #7a6948",
"bj c #7a6f64",
"dQ c #7a7b78",
"a4 c #7b6459",
"eV c #7b6c53",
"hA c #7b6f60",
"ag c #7c6761",
"e6 c #7c7d7e",
"aV c #7d5e5e",
"hK c #7d675d",
"#T c #7d6c4d",
"#k c #7d6f5c",
"fA c #7e6758",
"bg c #7e6c47",
"fl c #7e7164",
"aD c #7f6162",
"#q c #80674e",
"ii c #80715b",
"f9 c #816c65",
"cf c #816e47",
"ak c #817157",
"hf c #817363",
"#M c #826642",
"az c #826e40",
"hi c #83694d",
"#a c #83714c",
"hJ c #83735b",
".O c #837667",
"#o c #84645d",
"hG c #847146",
"gu c #847356",
"g# c #847663",
"bs c #857351",
"if c #85786b",
"b9 c #858586",
"a9 c #86734b",
"#E c #867867",
".2 c #877168",
"il c #877555",
"gX c #887550",
"gW c #88785e",
"an c #887a6a",
"#V c #89736b",
"bh c #897a66",
"hQ c #8a7367",
"hp c #8a7855",
"#i c #8a7a62",
"cX c #8b7850",
"#F c #8b7c6a",
"aC c #8c766b",
"iJ c #8c774a",
"#j c #8c7c66",
"a3 c #8c7f71",
"dP c #8c8b8b",
".u c #8d7667",
"f3 c #8d7a54",
"gF c #8d7e6d",
"gZ c #8d8053",
"i# c #8d8260",
"eF c #8d9496",
"hu c #8e7351",
"#g c #8e786a",
"gY c #8e7a4f",
"gU c #8e8174",
"#J c #8f7866",
"iH c #8f7a49",
"iv c #8f7c59",
"ct c #907862",
"cz c #907c54",
"#l c #90806d",
"e5 c #908990",
"eR c #909696",
"fz c #917a6a",
"iK c #917c4e",
"ai c #918069",
".6 c #918373",
"fZ c #925045",
"#b c #92754a",
"hI c #927e58",
"al c #928370",
"ir c #937855",
"cg c #937e53",
"gf c #938576",
"#6 c #94766a",
"hc c #947e4e",
"iu c #94805c",
".t c #948573",
"et c #948656",
"bm c #95774a",
"cY c #958053",
"de c #958058",
"aS c #96804d",
"bO c #96825c",
"#Y c #96846c",
".A c #968776",
"ho c #977c58",
"cZ c #978257",
".Q c #978673",
"e# c #987a43",
"ae c #988252",
"c0 c #988460",
".q c #988879",
"gq c #988a5f",
"bL c #99824d",
".j c #998377",
"ch c #99845b",
"aE c #998872",
"eZ c #9a7e58",
"dd c #9a8456",
"hy c #9a8579",
".y c #9a8a79",
"gH c #9b865f",
"gr c #9b8a75",
"h2 c #9b8c59",
"eQ c #9c8268",
"c4 c #9c844c",
"b4 c #9c865b",
".B c #9c8c7b",
"hE c #9d8052",
"hn c #9d885f",
"f. c #9d8c78",
"a1 c #9e885a",
"gC c #9e8e7b",
"dZ c #9f8047",
"g0 c #9f8855",
"by c #a08252",
"df c #a08a5e",
".s c #a0907e",
"hw c #a0957d",
"c8 c #a0a2a2",
"fu c #a15a49",
"el c #a1824c",
"c1 c #a18a5a",
".D c #a1907b",
"dz c #a19783",
"ar c #a28c5e",
"hX c #a29074",
"bi c #a2927d",
"ik c #a38c59",
"aU c #a38c7e",
"aX c #a39383",
"bA c #a49380",
"ef c #a4a5a4",
"b. c #a58260",
"aN c #a5885e",
"#9 c #a58d5d",
"gO c #a59586",
".9 c #a68e7b",
"hm c #a68f61",
"gQ c #a69170",
"gg c #a69583",
"b7 c #a6a7a6",
"g1 c #a78f5d",
"bG c #a7957d",
"fL c #a85a49",
"ei c #a88a59",
"#w c #a88e71",
"fh c #a89783",
"iy c #a98a4f",
"ix c #a98c5d",
"dg c #a98c62",
"dL c #a98f4e",
"g8 c #a9915c",
"f# c #a99161",
".3 c #a99280",
"d5 c #a9aaa9",
"bx c #aa8e69",
"h1 c #aa9364",
"dE c #aa9679",
"ah c #aa9885",
"gD c #aa9a8a",
"eS c #aaabad",
"hj c #ab9360",
"he c #ab9a88",
"b6 c #ac8b4f",
".l c #ac9a85",
"eg c #acadad",
"cA c #ad8f61",
"hk c #ad9460",
"aT c #ad9c87",
"e. c #ae945b",
"hl c #af9160",
"bP c #af965f",
"f4 c #af9663",
"dT c #af986b",
"h3 c #af9d87",
"gV c #af9d8a",
"#D c #b09b7b",
"#3 c #b09f8c",
"bR c #b19656",
"iz c #b1985f",
"eM c #b19863",
"eW c #b19f89",
"#r c #b2935b",
".r c #b2a08c",
"ip c #b39963",
"ic c #b39f81",
"eX c #b3a291",
"hN c #b4945f",
"ew c #b4995a",
"g7 c #b4995e",
"#W c #b4a28e",
"cQ c #b4a583",
"cj c #b59456",
"gI c #b59663",
"io c #b59b62",
"#X c #b5a28c",
"d7 c #b5b5b6",
"ci c #b69d66",
"im c #b69d6a",
"#h c #b6a38e",
"gN c #b79d62",
"hx c #b79f8c",
".z c #b7a590",
"bw c #b8985e",
"fm c #b89e65",
"e8 c #b8a58e",
"em c #b8b7a7",
"c2 c #b99962",
"aK c #b9a690",
"fk c #b9a693",
"dh c #ba9b6a",
"b0 c #ba9e5d",
"fT c #baa069",
"#B c #baa291",
"fK c #bb6e5a",
"h0 c #bb9b66",
".P c #bba892",
"hF c #bca164",
"fy c #bca38e",
"gv c #bca667",
"h5 c #bca685",
"aJ c #bca995",
"dy c #bd9b59",
"ht c #bd9d65",
"h. c #bd9e70",
"iq c #bda160",
".k c #bda593",
"c# c #bda888",
"ec c #bdbbbc",
"gp c #bea368",
"hO c #bea767",
"#5 c #beab94",
"gh c #bf9e65",
"it c #bfa96a",
"g2 c #c0a065",
"hV c #c0a069",
"i. c #c0a463",
"gJ c #c0a467",
"#N c #c1a170",
"b5 c #c1a66b",
"am c #c1ae96",
"#I c #c1ae99",
"c5 c #c1bbaf",
"in c #c2a168",
"bk c #c2ac8c",
"du c #c3a76a",
"aH c #c3ac87",
".S c #c3af98",
"d8 c #c3c0c1",
"b8 c #c3c5c5",
"fB c #c4a368",
".C c #c4ac9b",
"#G c #c4b09b",
"hq c #c5a46b",
"gT c #c5a77f",
"dc c #c5a96a",
"fj c #c5b29d",
"hW c #c5b69c",
"dM c #c5b8a9",
"ia c #c6b29a",
"g3 c #c7a66b",
"eD c #c7aa6a",
"fx c #c7b39c",
"fe c #c87265",
"iw c #c9a766",
"e0 c #c9a76a",
"g6 c #c9ab69",
"#S c #c9b18e",
"cC c #caa762",
"cn c #cac6c7",
"ep c #cacbcb",
"hM c #cba866",
"cB c #cba96a",
"#m c #cbb7a0",
"h9 c #ccaa6d",
"gK c #ccae6c",
"#v c #ccb490",
"ie c #cdab6d",
"dj c #cdae64",
".7 c #cdb8a0",
"eG c #cdcdcd",
"e3 c #ce8d6c",
".R c #cebaa4",
"f7 c #cf7b67",
"g4 c #cfad6c",
"dv c #cfad70",
"eE c #cfb16b",
"fi c #cfbba6",
"ey c #cfd4d4",
"iB c #d0ad69",
"hL c #d0ae73",
"dw c #d0b26f",
"ft c #d17768",
"di c #d1ae6c",
".8 c #d1bca6",
"gi c #d2b06f",
"#4 c #d2bda6",
"d0 c #d2cbc1",
"fJ c #d37968",
"bv c #d3af68",
"#C c #d3bb96",
"b# c #d4b16f",
"dt c #d4b56e",
"aY c #d4ba91",
"h4 c #d4bfa8",
"eH c #d4d4d5",
"#s c #d5b272",
"eu c #d5b66d",
"iC c #d5b671",
"hb c #d5b87b",
"d# c #d5bd9a",
"#H c #d5c0a7",
"#n c #d5c3a9",
"f5 c #d6b26e",
"as c #d7af6f",
"g5 c #d7b76d",
"ea c #d7cec2",
"bt c #d8b571",
"cl c #d8dbda",
"hU c #d9b172",
"c3 c #d9b56e",
"aF c #d9c09a",
"e9 c #d9c3ad",
"eA c #d9d8d8",
"dY c #daba6c",
"iE c #daba70",
"ad c #dabf92",
"#0 c #dac199",
"#Z c #dac19c",
"cE c #dad8d6",
"gc c #db8670",
"bf c #dbb669",
"dx c #dbb66d",
"a. c #dbb774",
"gR c #dbc29e",
"h8 c #dcb471",
"cx c #dcb770",
"eN c #dcbb6f",
"bV c #dcc39e",
"#u c #dcc3a0",
"ek c #ddb970",
"ih c #ddb973",
"ay c #deba73",
"gB c #debe72",
"d4 c #dedcdd",
"fY c #df7d71",
"hH c #dfb671",
"iG c #dfba70",
"cd c #e0bb6f",
"bQ c #e0bb73",
"hs c #e0bf72",
"#t c #e0c197",
"dO c #e0dfde",
"cG c #e1e3e1",
"dK c #e2bc72",
"be c #e3bc6b",
"ej c #e3be72",
"cV c #e3be75",
"bl c #e3c98e",
"eP c #e4bb76",
"bK c #e4be6e",
"aR c #e4bf75",
"fq c #e58277",
"gm c #e58776",
"gb c #e58d79",
"fU c #e5bb72",
"hr c #e5c078",
"h# c #e5c491",
"hR c #e5c99a",
"cu c #e5cba5",
"fI c #e68170",
"fW c #e69977",
"hT c #e6c071",
"ds c #e6c075",
"dC c #e6e4e5",
"d3 c #e6e6e4",
"fr c #e78377",
"gk c #e78976",
"gy c #e79b79",
"bd c #e7c06e",
"bu c #e7c174",
"dI c #e7c178",
"ij c #e7c489",
"e1 c #e7c577",
"fH c #e88576",
"fc c #e89178",
"fF c #e89674",
"gA c #e8aa76",
"bZ c #e8c171",
"bc c #e8c377",
"dJ c #e8c676",
"dV c #e8c67a",
"fd c #e97978",
"fG c #e97f77",
"fs c #e98573",
"gz c #e99c79",
"fp c #e9a175",
"fb c #e9b378",
"f6 c #e9bf75",
"aQ c #e9c270",
"aP c #e9c374",
"au c #e9c47a",
"gS c #e9cfa6",
"a0 c #e9d2a8",
"fX c #ea7b78",
"gl c #ea8177",
"gn c #ea8d75",
"go c #eaa278",
"ga c #eaaf75",
"gx c #eab374",
"dH c #eac074",
"bY c #eac473",
"bb c #eac477",
"dq c #eacba7",
"aj c #ead0a8",
"eo c #eaeae9",
"fV c #ebb976",
"gw c #ebbe78",
"cT c #ebc071",
"fa c #ebc177",
"cU c #ebc576",
"dX c #ebc57a",
"db c #ebc680",
"dU c #ebc788",
"eO c #ebc876",
"#O c #ebc992",
"av c #ebcb8a",
"ig c #ebcd96",
"gj c #ec9677",
"fE c #ecb677",
"at c #ecc573",
"aO c #ecc679",
"dl c #ecebe6",
"fD c #edc377",
"dW c #edc676",
"hZ c #edc985",
"bJ c #edcd8f",
"e2 c #eeaf78",
"ev c #eec477",
"cc c #eec47a",
"cw c #eec583",
"ba c #eec776",
"fn c #eec779",
"hS c #eec87f",
"fo c #efb976",
"dG c #efc685",
"ax c #efcb8d",
"dF c #efcfa0",
"aa c #efd29f",
"cR c #efd7ab",
"gM c #f0c177",
"fC c #f0c576",
"h7 c #f0c67f",
"id c #f0c875",
"cS c #f0cc8c",
"bX c #f0cd94",
"aw c #f0cd96",
"bH c #f0d5ad",
"gL c #f1c27a",
"dr c #f1cb97",
"a# c #f1cd8f",
"cb c #f1d09d",
"h6 c #f2d2a5",
"cv c #f2d4a1",
"bI c #f2d6ab",
"ca c #f2d6ad",
"d2 c #f2f5f4",
"da c #f3d2a1",
"hY c #f3d3aa",
"ab c #f3d6a9",
"ac c #f3d7ad",
"#R c #f3d7af",
"aZ c #f3dcb2",
"ha c #f4d195",
"#Q c #f4d8af",
"bW c #f5d5ab",
"#P c #f5d8ab",
"dn c #f5f4f5",
"ez c #f5f8f7",
"aG c #f7d7b1",
"cm c #f7f6f6",
"eb c #f9fbf9",
"en c #fafcfd",
"c7 c #fdfefc",
"c6 c #fdffff",
"d1 c #fefffe",
"dm c #feffff",
"dA c #fffafb",
"dN c #fffdff",
"cF c #fffeff",
"dB c #ffffff",
"QtQtQtQtQtQtQtQtQtQtQtQtQt.#.aQtQtQtQtQtQtQtQtQtQtQtQtQtQtQtQtQtQtQtQtQtQtQtQtQtQtQtQtQtQtQtQtQtQtQt.b.cQtQtQtQtQtQtQtQtQtQtQtQt",
".b.b.b.b.b.b.b.b.b.b.b.b.b.a.c.b.b.b.b.b.b.b.b.b.b.b.b.b.b.b.b.b.b.b.b.b.b.b.b.b.b.b.b.b.b.b.b.b.b.b.a.c.b.b.b.b.b.b.b.b.b.b.b.b",
".b.b.b.b.b.b.b.b.b.b.b.b.b.b.b.b.c.a.b.b.b.b.b.b.b.b.b.b.b.b.b.b.b.b.b.d.e.f.g.h.b.b.b.b.b.b.b.b.b.b.b.b.b.b.b.b.c.b.b.b.b.b.b.b",
"QtQtQtQtQtQtQtQtQtQtQtQtQtQtQtQt.i.bQtQtQtQtQtQtQtQtQtQtQtQtQtQtQtQt.j.k.l.m.n.o.hQtQtQtQtQtQtQtQtQtQtQtQtQtQtQt.cQtQtQtQtQtQtQt",
"QtQtQtQtQtQtQtQtQtQtQtQtQtQtQtQt.i.bQtQtQtQtQtQtQtQtQtQtQtQtQtQt.p.q.r.s.t.u.g.v.o.wQtQtQtQtQtQtQtQtQtQtQtQtQtQt.cQtQtQtQtQtQtQt",
"QtQtQtQtQtQtQtQtQtQtQtQtQtQtQtQt.i.bQtQtQtQtQtQtQtQtQtQtQtQtQt.x.y.z.A.B.C.D.E.F.v.G.H.I.J.K.L.bQtQtQtQtQtQtQtQt.cQtQtQtQtQtQtQt",
"QtQtQtQtQtQtQtQtQtQtQtQtQtQtQtQt.i.bQtQtQtQtQtQtQtQtQt.b.L.M.N.O.P.Q.B.R.S.u.T.U.V.W.X.o.Y.Z.F.0.1.bQtQtQtQtQtQt.cQtQtQtQtQtQtQt",
"QtQtQtQtQtQtQtQtQtQtQtQtQtQtQtQt.i.bQtQtQtQtQtQtQtQt.2.3.4.F.5.l.B.6.7.8.9#..T###.#a#b#c#d#e#f.n.F.T.LQtQtQtQtQt.cQtQtQtQtQtQtQt",
".a.a.a.a.a.a.a.a.a.a.a.a.a.a.a.a.c.i.a.a.a.a.a.a.##g#h.r#i#j#k.s#l#m#n#h#o#p#######q#r#s#t#u#v#w#x#y.W.E#z.a.a.a.c.a.a.a.a.a.a.a",
".#.#.#.#.#.c.#.#.#.#.#.#.#.#.#.#QtQt.#.#.#.#.##A#g#B.r.Q#C#D#E#F#G#H#I#J.H#K####.E#L#M#N#O#P#Q#R#S#T#y.Z.U.a.#.#Qt.#.#.#.#.#.#.#",
"QtQtQtQtQt.cQtQtQtQtQtQtQtQtQtQtQtQtQtQtQtQt#U#V#W#X#Y#Z#0#1#2#3#4#5#6#7.E####.w#8.o#x#9a.a#aaabacadaeaf.Y.hQtQtQtQtQtQtQtQtQtQt",
"QtQtQtQtQt.cQtQtQtQtQtQtQtQtQtQtQtQtQtQtQtQtagah.zai#Zajakafal.7aman#pao####.Hap.gafaqarasatauavawaxayazaAaBaCaDQtQtQtQtQtQtQtQt",
"QtQtQtQtQt.cQtQtQtQtQtQtQtQtQtQtQtQtQtQtQtQt.A.zaEaFaGaHafaIaJaK.u.E.E####.c.UaL.gafaMaN#saOaPaQaPaQaRaS#EaT.zaUaVQtQtQtQtQtQtQt",
"QtQtQtQtQt.cQtQtQtQtQtQtQtQtQtQtQtQtQtQtQtaWaX.DaYaZa0a1.va2a3a4.T.H######.Ua5a6a7a8a9b.b#babbbcbdbebfbgbh.ybi.sbj.iQtQtQtQtQtQt",
".b.b.b.b.b.c.b.b.b.b.b.b.b.b.b.b.b.b.b.b.d#F.jbk#Qabblbm#ybn#fbo####.Hbobpapbqbr.v.Vbs#9btaObubvbwbxbybz.F.QbAbB.gbC.L.b.b.b.b.b",
".b.b.b.b.b.b.b.b.b.b.b.b.b.b.b.b.b.b.bbDbEbFbGbHbIbJbKbL.vaA.IbobobpbpapbM.o.X.v.ZbNbObPbQaPbRaq.o.v.v.v.vbS#Ja4.o.vbT.b.b.b.b.b",
"QtQtQtQtQtQtQtQtQtQtQtQtQtQtQtQtQtQtQt.IbU#kbVbWbXbYbZb0af.nb1apapapaLb2a7af.vb3bsbOb4b5bKb6.Xafb7b8b9.o.v.vapbMaf.n.o.LQtQtQtQt",
"QtQtQtQtQtQtQtQtQtQtQtQtQtQtQtQtQtQt.ic..Zc#cacbccbYbbcd#c.v.nce.o.Fa7af.va8cfcgchb4cia.cj.Xckclcmcncocpcqcrcs.o.f.nce.JQtQtQtQt",
"QtQtQtQtQtQtQtQtQtQtQtQtQtQtQtQtQtQt.IafctcucvcwaPbbbbbbcxcy.n#yafafa7.V#MczbOchcAcBbQcCcD#8cEcFcGcHcIcJ.n.ncKcLceafcMcNQtQtQtQt",
"QtQtQtQtQtQtQtQtQtQtQtQtQtQtQtQtQtcOcP.FcQcRcScTbbbbbbcUcV#9bsbgcWaMcXcYcZc0c1c2c3bYcdc4a7c5c6c7c8aLcs.v.v.v.v.obqcsb2c9QtQtQtQt",
".i.i.i.i.i.i.i.i.i.i.i.i.i.c.a.a.a.UaAd.d#dadbaPbbbbbbbbbcdc#9dddecZb4dfdgdhdicVcUbbdjdk#ddldmdndobq.v.v.v.v.v.v.v.ndp.o.L.i.i.i",
"QtQtQtQtQtQtQtQtQtQtQtQtQt.iQtQtQt.I.o#YdqdrbcbbbbbbbbbbbbdsdtcBb5dudvdwdxcVbbcUcUdsdy.ZdzdAdBdCdD.o.v.v.v.v.v.v.v.v.v.n.JQtQtQt",
"QtQtQtQtQtQtQtQtQtQtQtQtQt.iQtQtQt.eafdEdFdGdHbbbbbbbbbbbbcUcUaPdIbubbdJcUcUcUbbbbdKdLa7dMdBdNdOdPdQdDdp.v.v.v.v.v.vdp.fdodRdScO",
"QtQtQtQtQtQtQtQtQtQtQtQtQt.iQtQt.b.0a7dTdUdVbbbbbbbbbbbbbbbbcUdWaOdWdXcUcUbbbbbbbbdYdZ.Fd0dBd1d2d3d4d5cs.v.v.v.v.v.v.nd6d7d8d9bT",
"QtQtQtQtQtQtQtQtQtQtQtQtQt.iQtQt.#.g.Fe.bcbbbbbbbbbbbbbbbbbbbbbbbbbbbbbbbbbbbbbbbbbfe#.ZeadBcFdBdBebeced.v.v.v.v.v.v.neeefeg.v.n",
"QtQtQtQtQtQtQtQtQtQtQtQtQt.iQtQt.#breheiejdWbbbbbbbbbbbbbbbbbbbbbbbbbbbbbbbbbbbbbbekelafemendBeoepeceq.o.v.v.v.v.v.v.vercsbM.v.n",
".i.i.i.i.i.i.c.c.a.a.a.a.a.i.a.a##a7eseteuevbbbbbbbbbbbbbbbbbbbbbbbbbbbbbbbbbbbbbbdsew.FexeyezeAcIeBer.v.v.v.v.v#yeC#y.n#y.v.Yc.",
"QtQtQtQtQtQt.#.aQtQtQtQtQtQtQtQt.L.XescXeDaPcUbbbbbbbbbbbbbbbbbbbbbbbbbbbbbbbbbbbbbYeE#2dDeFeGeHcqeIeJ.v.v.v.v.v.X.nbpcoeK#yeLQt",
"QtQtQtQtQtQt.#.aQtQtQtQtQtQtQtQt.ibra7aMeMeNeObbbbbbbbbbbbbbbbbbbbbbbbbbbbbbbbbbbbatePeQ.ncpeReSeTeUa5.v.v.v.v#y#yeVeWeXa3#y.eQt",
"QtQtQtQtQtQt.#.aQtQtQtQtQtQtQtQtcNcP#yeYeZe0e1evbbbbbbbbbbbbbbbbbbbbbbbbbbbbbbbbbbbce2e3.i.ve4e5e6b2cLe7.o.v.v.neKe8e9#Hf.#y.eQt",
"QtQtQtQtQtQt.#.aQtQtQtQtQtQtQtQtQtbD.ga7bNf#dxbacUbbbbbbbbbbbbbbbbbbbbbbbbbbbbbbfafbfcfdfe#7.nbqff.o.vfgaL#y.v.gfhfifjfkfl#y.1Qt",
".#.#.#.#.#.#.#.a.#.#.#.#.#.#.#.#.#.#.EafescXfmaRfnbbbbbbbbbbbbbbbbbbbbbbbbbbbbbbfofpfqfrfsftfufvaffw.v.v.veCbra3fxfyfzfAeKfw.d.#",
".a.a.a.a.a.a.a.a.a.a.a.a.a.a.a.a.a.a.ceK#yeYbOfBdsfCbbbbbbbbbbbbbbbbbbbbbbbbbbfDfEfFfGfHfHfHfIfJfKfLfMaf.oaA.UfNflfO.TfPfQfR.i.c",
"QtQtQtQtQtQtQtQtQtQtQtQtQtQtQtQtQtQtQt.LfR#yfSdffTfUbacUbbbbbbbbbbbbbbbbbbbbbbfDfVfWfXfHfHfHfHfHfHfYfZaf.obqcscsf0.ges#yf1bDQt.c",
"QtQtQtQtQtQtQtQtQtQtQtQtQtQtQtQtQtQtQtQt.Leha7f2f3f4f5bYdWbbbbbbbbbbbbbbbbbbbbdJf6fpfqfHfHfHfHfHfHfHf7f8#y.n.n.nafaf#yeh.JQtQt.c",
"QtQtQtQtQtQtQtQtQtQtQt.pf9agg.QtQtQtQtQtQt.U.5#kg#cXa1fmcxbbdWbbbbbbbbbbbbbbbbbbbcgagbfrfHfHfHfHfHfHgcddgdesa7af.veh##.bQtQtQt.c",
"QtQtQtQtQtQtQtQtQtgegf#hfh.Obnc.bD.b.bbD.1bU.5gg#I#jcXcharghgicVbYcUcUbbbbbbbbbbbbdIfbgjgkfHglglgmgngogpgqdef3cy.vbnQtQtQtQtQt.c",
"QtQtQtQtQtQtQtQt.i.B.zf.grgsgt#y.FfRf0.oa7.n.obF.r#I.QguczcZdff4gvdicxejdIbbbbbbbbcUbbgwgxgogygzgAfEcUgBfma1cXbzaf.IQtQtQtQtQt.c",
".a.a.a.a.a.a.a.acPaTgCgD.6fNbUf1#y.nehgEai#Ta7.FfNah#Ge8gFgGa9chgHdff#gIgJgKbtbQdsbbdWbafngLfDgMfabcejbtgNb4fS#y.F.d.a.a.a.a.a.i",
"QtQtQtQtQtQtQtQtbTaBgOgPaf.nf1afafeYgQgRgSgTaq.v.FcMgU.r#5gV.tgWgugXgYgZbOg0g1gIg2g3g4g5ekcxeudtg6fBg7g8b4bg.Faf.IQtQtQtQtQtQtQt",
"QtQtQtQtQtQtQtQtbCce#F#8ceg9eC.veh#ah.h#hahbhchdafa7.5aCgV.z#hhef.hfhg#fhhf2gGhif3a1arhjhkhlf#hmhnhohpbgf2a7#y.e.bQtQtQtQtQtQtQt",
"QtQtQtQtQtQtQtQt.g.vf8apdS#Ka7a7bNdehqhrfnhshthuhv.X.n#2hwaJhxhy.6flhz.obUhAhA.5bn#ehBhChCbNbNfSf2.Vehaf.vce.ehDQtQtQtQtQtQtQtQt",
"QtQtQtQtQtQtQtQt.I.o.FeYhEhFhGcWf3eMcxbYbYbbhHc2hIaMeK#y.obBhJ#d.MfSeK.fhf.thKbU.v#y#y.v.v#y#y#y#yce.YbCbT.h.bQtQtQtQtQtQtQtQtQt",
"QtQtQtQtQtQtQtQt.b.UafafhLe1hMhNc2btbccUbbcUfDeNhOhmcXf2.W.Faf#y.F.W.ZfN.thPg#hQ.nce.0fRfRfRbC.0bT.I.UbD.bQtQtQtQtQtQtQtQtQtQtQt",
".a.a.a.a.a.a.a.a.a.d.faIhRhShTbQejfDfDbbbbbbbbcUbuhUhVhjhIbghvhd.Vbzesbh.Og#hWah.o.0.bcOhD.i.i.b.b.b.c.i.a.a.a.a.a.a.a.a.a.a.a.a",
".a.a.a.a.a.a.a.c.d.eafhXhYhZatbacUbbbbbbbbbbbbbbevfCbccxeDh0h1h2cghpgu#EhPh3h4gU.nc..c.c.a.a.a.a.a.a.a.a.a.a.a.a.a.a.a.a.a.a.a.a",
"QtQtQtQtQtQtQt.a.wbC.nh5h6h7bYbbbbcUcUbbbbbbbbbbbbbbdWbadWhTh8h9i.bPi#gs#kia#5ib.vbT.a.aQtQtQtQtQtQtQtQtQtQtQtQtQtQtQtQtQtQtQtQt",
"QtQtQtQtQtQtQt.a.Ia7.nicaadXbbcUcUbbcUcUcUcUcUcUcUcUcUcUdWfnidaOdWiehp.Vak#hif.o.vdS.a.aQtQtQtQtQtQtQtQtQtQtQtQtQtQtQtQtQtQtQtQt",
"QtQtQtQtQtQtQt.abT.v.nhXigbbbcaRihg4b#aRcUdXaucUbbbcaRdKejdIbubbdWdicXeh#LbBb2.nfQdS.a.aQtQtQtQtQtQtQtQtQtQtQtQtQtQtQtQtQtQtQtQt",
"QtQtQtQtQtQtQt.a.0.v.niiijbbayfmikilbOimeDgKieg6dciniobPipg2iqdKaPhqir.W.ZaA.F.v#ybT.a.aQtQtQtQtQtQtQtQtQtQtQtQtQtQtQtQtQtQtQtQt",
"QtQtQtQtQtQtQt.a.fiseh.Fb#buitchgGa8.VhCa9f3iuddbOiuhIdeivcfbziwayixhCa8.v.va7.Fa7.0.i.aQtQtQtQtQtQtQtQtQtQtQtQtQtQtQtQtQtQtQtQt",
".c.i.i.i.i.i.i.c.obndkfwiyejizcZiAaf.v.na7.Fa8.WhdeYeY.W.Fafa7iBiCbs.FfMhh.XaqhCbrf0ao.c.i.i.i.i.i.i.i.i.i.i.i.i.i.i.i.i.i.i.i.i",
".a.b.b.b.b.b.b.#af.5bsa8iDiEhj#Ta8es.HiF.Faf.v.v.v.v.v.vd9.vbziGgha8.niF.UehesaI.F.obDQtQtQtQtQtQtQtQtQtQtQtQtQtQtQtQtQtQtQtQtQt",
".aQtQtQtQtQtQtQtd9.o.F.v#yiHiIbUafbUg.Qtg..b.i.d.w.U.hbD.h.niJdx#c#y.e.c.iiFa7.F.Yd9.IQtQtQtQtQtQtQtQtQtQtQtQtQtQtQtQtQtQtQtQtQt",
".aQtQtQtQtQtQtQt.n.v#y.o#y.F.5aI#y.5.bQtQtQtQtQtQtQtQtcN.eisiKa9a7bU.i.a.i.w.Y.v#yd9bTQtQtQtQtQtQtQtQtQtQtQtQtQtQtQtQtQtQtQtQtQt",
".aQtQtQtQtQtQtQt.ff1.e.L.F.v.Fa7a7.HQtQtQtQtQtQtQtQtQt.b.f.v.5.Faf.E.b.a.iQt.Jc..0.ebDQtQtQtQtQtQtQtQtQtQtQtQtQtQtQtQtQtQtQtQtQt",
".aQtQtQtQtQtQtQthD.i.bQt.K.Y#y#y.5g.QtQtQtQtQtQtQtQtQt.b.o.vbreC.n.wQt.a.iQtQt.b.b.bQtQtQtQtQtQtQtQtQtQtQtQtQtQtQtQtQtQtQtQtQtQt",
".a.#.#.#.#.#.#.#.#.#.#.#.#.d.ecP.i.#.#.#.#.#.#.#.#.#.#.b.e.Y.Y.F.e.i.#.a.iQtQtQtQtQtQtQtQtQtQtQtQtQtQtQtQtQtQtQtQtQtQtQtQtQtQtQt",
".c.c.c.c.c.c.c.c.c.c.c.c.c.c.c.c.c.c.c.c.c.c.c.c.c.c.c.c.c.c.c.c.c.c.c.c.c.i.i.i.i.i.i.i.i.i.i.i.i.i.i.c.i.i.i.i.i.i.i.i.i.i.i.i",
"QtQtQtQtQtQtQtQtQtQtQtQtQt.#.aQtQtQtQtQtQtQtQtQtQtQtQtQtQtQtQtQtQtQtQtQtQtQtQtQtQtQtQtQtQtQtQtQtQtQt.b.cQtQtQtQtQtQtQtQtQtQtQtQt",
"QtQtQtQtQtQtQtQtQtQtQtQtQt.#.aQtQtQtQtQtQtQtQtQtQtQtQtQtQtQtQtQtQtQtQtQtQtQtQtQtQtQtQtQtQtQtQtQtQtQt.b.cQtQtQtQtQtQtQtQtQtQtQtQt",
"QtQtQtQtQtQtQtQtQtQtQtQtQt.#.aQtQtQtQtQtQtQtQtQtQtQtQtQtQtQtQtQtQtQtQtQtQtQtQtQtQtQtQtQtQtQtQtQtQtQt.b.cQtQtQtQtQtQtQtQtQtQtQtQt",
"QtQtQtQtQtQtQtQtQtQtQtQtQt.#.aQtQtQtQtQtQtQtQtQtQtQtQtQtQtQtQtQtQtQtQtQtQtQtQtQtQtQtQtQtQtQtQtQtQtQt.b.cQtQtQtQtQtQtQtQtQtQtQtQt",
"QtQtQtQtQtQtQtQtQtQtQtQtQt.#.aQtQtQtQtQtQtQtQtQtQtQtQtQtQtQtQtQtQtQtQtQtQtQtQtQtQtQtQtQtQtQtQtQtQtQt.b.cQtQtQtQtQtQtQtQtQtQtQtQt"};
