/* XPM */
static char *dummy[]={
"64 64 638 2",
".m c #000000",
"d9 c #002100",
"cY c #002a16",
".o c #161519",
".p c #1c1500",
"hh c #1d2131",
"bn c #222126",
".n c #272117",
"cm c #2b0002",
"db c #2b2000",
"a5 c #2b2a30",
".q c #2f2925",
".G c #322915",
"cU c #323138",
"df c #33001a",
".0 c #35312f",
"dk c #35412c",
"fH c #354644",
"eD c #360000",
".w c #383023",
"fX c #38373f",
"ec c #38463c",
"c1 c #391527",
"bX c #3b3012",
"#q c #3b3737",
"b0 c #3c1518",
"b1 c #3e362e",
"fZ c #3e3c45",
"bs c #3e4a43",
"do c #403622",
".Q c #412126",
"aX c #413c3e",
"fz c #432016",
"c2 c #432a38",
"bG c #433c36",
"bP c #453c2c",
"bb c #454144",
".r c #46292f",
".O c #473c20",
"dS c #47524e",
"e2 c #482924",
"aS c #48413d",
"bF c #4a3037",
".1 c #4a4135",
"fV c #4a4649",
"#p c #4c302e",
"#o c #4c412b",
"a6 c #4c4543",
".P c #4e3023",
"#z c #4e373e",
"cf c #4e401f",
".S c #4e453c",
".s c #503736",
"#2 c #504534",
"dD c #504a49",
".N c #52452a",
"aT c #524a42",
"dn c #525852",
"bM c #53451d",
"g. c #543621",
".y c #543c3d",
".x c #54493b",
"fI c #545c5b",
"c0 c #554933",
".6 c #563c35",
"ei c #564e48",
"ac c #573c2c",
"#3 c #574929",
"ap c #574d42",
"e. c #575153",
"a7 c #584143",
".t c #59413c",
"c9 c #594d3a",
"f3 c #595b4c",
"eO c #595f5b",
"gu c #5a2923",
"aY c #5b4134",
"cI c #5b4549",
"g9 c #5b4d32",
"#Y c #5b5147",
"fA c #5b5557",
"bN c #5c4d28",
"bV c #5c5141",
"eZ c #5c5552",
"fR c #5d302e",
".R c #5d4543",
"h7 c #5e363e",
"f# c #5e453c",
"dd c #5e5139",
"b5 c #5e554d",
"cV c #5e5e4b",
".L c #5f5131",
"fO c #603c4a",
"cB c #604533",
"aq c #604a48",
"b7 c #605547",
"fp c #605857",
".v c #614942",
"fG c #615540",
"gY c #623c44",
"h6 c #633c3d",
"eK c #63493b",
"b# c #634e4d",
".M c #635439",
"ak c #63584c",
"fY c #644932",
".u c #644d48",
"eI c #645430",
"d2 c #654149",
"dp c #65583f",
".l c #664143",
"#E c #664d41",
"#x c #665152",
"#A c #665b51",
".W c #67514d",
"cJ c #675838",
"eR c #68413c",
".X c #68454e",
"dz c #68582f",
"hV c #685b45",
"cN c #686754",
".k c #694549",
"bU c #694d31",
".5 c #695147",
".Y c #6a4542",
"cH c #6a4a53",
"hF c #6a5140",
".Z c #6a5552",
"#n c #6a5b3f",
"hi c #6a5e50",
"eb c #6a6c69",
"fU c #6a6f74",
"fi c #6b302d",
"h0 c #6b5139",
"bY c #6b5b37",
"cg c #6b615a",
".d c #6c4a4e",
"bL c #6c5b2e",
".c c #6d4948",
"#y c #6d4e58",
"cM c #6d5130",
"ao c #6d5446",
"hU c #6d5e45",
"fJ c #6d676d",
"ej c #6d6f6c",
"eJ c #6e5e3e",
"hj c #6e6150",
"b6 c #6e6c5d",
"dM c #6e6f69",
".b c #6f4d53",
"bo c #6f584c",
"ca c #6f5e36",
".T c #6f6459",
"dY c #6f6f65",
"ea c #6f7170",
".a c #704d4d",
"hx c #706144",
"ba c #714d47",
"Qt c #715157",
"fN c #715b56",
"hC c #716454",
".# c #725152",
"#r c #725b51",
"c5 c #726a69",
"e# c #727473",
"eB c #736135",
"cG c #736449",
".2 c #736759",
"ey c #73746f",
"eT c #74403b",
"hP c #746443",
"cR c #746a61",
"fS c #747676",
"hX c #765551",
"eY c #765e50",
"cd c #766a5d",
"e3 c #77453b",
"ck c #775b36",
".e c #785856",
"h1 c #786155",
"hf c #786642",
"f. c #786f6c",
"bp c #79645e",
"fW c #79663b",
"ex c #796c5c",
"bO c #7a6633",
"gZ c #7a6948",
"fj c #7a7d81",
"aE c #7b6459",
"gF c #7c6454",
"hH c #7c693a",
"ft c #7c8586",
".z c #7d675d",
"hW c #7d6c4d",
"fT c #7d7f84",
"he c #7e6c47",
"d8 c #7e6e57",
"aj c #7e7164",
"dR c #7e746f",
"eE c #7e7a6e",
"aR c #7f6753",
"ha c #7f6c41",
"eG c #7f7160",
"b8 c #7f746b",
".7 c #80674e",
"#S c #80695c",
"dG c #806c3a",
"fd c #808184",
".H c #816648",
"#w c #816c65",
"bc c #816e47",
".f c #817363",
"cx c #82735f",
"eL c #828386",
"cw c #836f68",
"hk c #83714c",
"hv c #837667",
"dO c #838383",
"bW c #846f64",
"#D c #856f60",
"by c #85713f",
"eW c #85786b",
"fq c #858586",
"ai c #867867",
"eo c #876e57",
"hR c #877168",
"di c #878b7f",
"ab c #886b40",
"b4 c #88733e",
"gP c #887550",
"h3 c #88785e",
"bq c #887a6a",
"g8 c #89754b",
"fK c #8a4441",
"#m c #8a7156",
"hw c #8a7363",
"ad c #8a7367",
"dF c #8a7544",
"hT c #8a7855",
"f2 c #8a7a62",
".U c #8a7c6d",
"hd c #8b7850",
"hp c #8b7c6a",
"eX c #8c766b",
"bE c #8c774a",
".A c #8c7f71",
"bx c #8d7744",
"hq c #8d7a54",
"hg c #8d7c62",
"cT c #8d7e6d",
"#H c #8e703f",
"hl c #8e755e",
"ht c #8e786a",
"hK c #8e786e",
"h. c #8e7a4f",
"fg c #8f4d46",
".8 c #8f734b",
"hs c #8f7866",
".9 c #8f7a49",
"eH c #8f8170",
"gl c #907345",
"bf c #907a43",
"h# c #907c54",
"ev c #90806d",
"hy c #917550",
"fB c #91979b",
"#I c #92754a",
"g0 c #927e58",
"#R c #928065",
"b2 c #937e53",
"hS c #938061",
"gG c #938576",
"hL c #947e4e",
"aW c #948573",
"cK c #94865b",
"bv c #95774a",
"cn c #958053",
"bH c #958058",
"fP c #96574a",
"co c #96825c",
"#W c #968776",
"bw c #977a49",
"hc c #978257",
"hB c #978673",
"bK c #987a43",
"br c #988170",
"cZ c #988252",
"et c #988876",
"fr c #989698",
"fF c #989ea3",
"bh c #99824d",
"hG c #998373",
"eh c #998377",
"gy c #99845b",
"d. c #9a7c48",
"dc c #9a8456",
"h2 c #9a8a79",
"gH c #9b5e4f",
"bZ c #9b8451",
"gf c #9b8576",
"hD c #9b8a75",
"#F c #9c7e4d",
"f0 c #9c844c",
"ce c #9c8473",
"hb c #9c8656",
"gI c #9c865b",
".B c #9c8c7b",
"eV c #9c9383",
"gi c #9d8057",
"#l c #9d8264",
"g7 c #9d885f",
".4 c #9d8c78",
"es c #9d9f9e",
"c4 c #9e804d",
"cL c #9e885a",
"hJ c #9e8e7e",
"dX c #9e9b9a",
"cE c #9e9b9c",
"dJ c #9f8047",
"dB c #9f9a97",
"bi c #a08850",
"hA c #a08a5e",
"gO c #a16e51",
"en c #a19f92",
"cF c #a28451",
"hY c #a28663",
"b3 c #a28c5e",
"cA c #a2927d",
"#v c #a29281",
"cj c #a2a4a4",
"hQ c #a3865a",
"h5 c #a38c59",
"ho c #a38c7e",
"#k c #a39071",
"fE c #a3a7ac",
"bu c #a48c54",
".V c #a49380",
"e0 c #a4a7aa",
"eP c #a56357",
"bT c #a58650",
"g1 c #a5885e",
"ee c #a58b49",
"g2 c #a58d5d",
"fc c #a5a7a8",
"aI c #a6885a",
"a8 c #a69580",
"#X c #a69583",
"fC c #a6a9ac",
"f9 c #a75a4f",
"gx c #a7845f",
"cp c #a78f5d",
"fs c #a7a8aa",
"fo c #a7aaae",
"ch c #a7aead",
"ga c #a88f53",
".j c #a89783",
"fb c #a8aaac",
"gQ c #a99161",
".E c #a99280",
".g c #a99888",
"e7 c #a99f8c",
"cq c #a9aaa9",
".F c #aa9885",
"fD c #aaa7ac",
"fa c #aaabad",
"gz c #ab8d61",
"g4 c #ab9360",
"gt c #ab9a88",
"cl c #ac9357",
"#u c #ac9a85",
"ds c #acb1ad",
"gm c #ad8d53",
"g3 c #ad8f61",
"bz c #ad9352",
"gJ c #ad9460",
".D c #ad9c87",
"fn c #adaeb1",
"gn c #ae9456",
"aF c #ae9785",
"dy c #aeb2ac",
"e6 c #af6657",
"#4 c #af8f58",
"g5 c #af965f",
"#j c #af9b7f",
"aU c #af9d87",
".C c #af9d8a",
"aH c #b09f8c",
"fk c #b0b1b4",
"dr c #b19157",
"c3 c #b19863",
"#1 c #b19f89",
"d4 c #b1b1b1",
"f6 c #b27871",
"g6 c #b29360",
"an c #b29a87",
"e1 c #b2b2b4",
"bA c #b4945b",
"bR c #b4995e",
"fw c #b49c87",
"e5 c #b5665b",
"gR c #b59b62",
"er c #b5b4b2",
".I c #b69160",
"bS c #b69b5e",
"h4 c #b79863",
".3 c #b7a590",
"gj c #b8985e",
"cS c #b89c5d",
"gs c #b96e62",
"bj c #b9985a",
"hz c #b99966",
"#V c #b9a690",
"eQ c #b9a693",
"fm c #b9bdbc",
"eC c #ba6e5e",
"ff c #ba8e7a",
"be c #ba995e",
".K c #baa065",
"g# c #bc9b5d",
"ci c #bcbabb",
"fl c #bdc1c1",
"aZ c #be9c5d",
"ah c #beab94",
"d3 c #bf9e61",
"a9 c #bfa692",
"hO c #c0a069",
"gK c #c0a467",
"aa c #c0a779",
"e4 c #c1806f",
"gb c #c1a060",
"bJ c #c1a45f",
"hr c #c1a66b",
"#Q c #c1aa87",
"dE c #c2a164",
"bl c #c2a663",
"gA c #c2a667",
"#i c #c2ac8c",
"bQ c #c2af9b",
"eS c #c36b62",
"f7 c #c37361",
"b. c #c3ab97",
"hm c #c3af98",
"hn c #c3b09d",
"bt c #c4a368",
"#s c #c4b09b",
"cC c #c5c3c4",
"cc c #c6a463",
".J c #c6a467",
"f1 c #c6ac7b",
"ew c #c6b39f",
"dH c #c7a667",
".h c #c7b39c",
"ek c #c7c8c5",
"fQ c #c87265",
".i c #c8b49e",
"eA c #c8c5c5",
"f4 c #c99263",
"go c #c9a766",
"aD c #c9a76a",
"a2 c #c9ab65",
"hu c #c9b49c",
"eq c #c9cac8",
"dv c #caa75e",
"#t c #cab69e",
"b9 c #cab6a0",
"eM c #cacbcb",
"de c #cba96a",
"ae c #cbb29c",
"cz c #cbb7a2",
"eF c #cbc3b1",
"gv c #cc7065",
"gS c #ccaa6d",
"cX c #ccc9ca",
"fy c #cd7968",
"a0 c #cdaa65",
"ar c #cdab6d",
"#h c #cdb592",
"al c #cdb8a2",
"cv c #cdc8c1",
"dN c #ceab69",
"#Z c #cebaa2",
"aV c #cebaa4",
"fu c #cf7568",
"fM c #cf7b6b",
"a4 c #cfad6c",
"gT c #d0b26f",
"#B c #d0bba2",
"#C c #d0bba4",
"bI c #d1ae6c",
"#U c #d1bca6",
"gg c #d2796b",
"gk c #d2ae64",
"hZ c #d2b06f",
"#0 c #d2bda6",
"am c #d2c1a7",
"dw c #d3af6b",
"cb c #d3b46a",
"eg c #d3d3d2",
"a1 c #d4b16b",
"hM c #d4b16f",
"aG c #d4bfa5",
"ag c #d4bfa8",
"fx c #d57e6e",
"bC c #d5b167",
"bD c #d5b566",
"#T c #d5c0a7",
"dg c #d5d5d7",
"dj c #d6b26b",
"gL c #d6b26e",
"af c #d6c1a9",
"#G c #d7b46e",
"gU c #d7b771",
"da c #d7d6d6",
"fe c #d87b6e",
"gC c #d8b36a",
"dl c #d8d3d2",
"eU c #d8d9d1",
"c# c #d9b56e",
"dT c #d9dbd9",
"hN c #dab671",
"f8 c #db8071",
"dI c #dbb66d",
"#g c #dbc29c",
"cy c #dcb770",
"dA c #ddb970",
"gM c #deba73",
"dq c #debe72",
"dP c #dedcdd",
"gE c #df7d71",
"bg c #dfba70",
"d# c #dfdbd6",
"d1 c #dfe2e1",
"a3 c #e0bb73",
"dW c #e0dfde",
"cO c #e0e0db",
"gw c #e18773",
"c. c #e2bc6f",
"aQ c #e2bc72",
"#P c #e2c89f",
"bk c #e3be72",
"gV c #e3be75",
"#J c #e3c796",
"#f c #e3c9a1",
"c8 c #e3e4e2",
"dx c #e3e8e7",
"fh c #e47f74",
"gh c #e48573",
"bB c #e4ba6f",
"#5 c #e4bf75",
"f5 c #e58277",
"ed c #e5bf72",
"gX c #e5c477",
"cD c #e5e7e7",
"aK c #e6c075",
"fv c #e78377",
"bm c #e7c174",
"gW c #e7c178",
"fL c #e88576",
"gD c #e8a577",
"gd c #e8b278",
"aL c #e8c377",
"gp c #e8c676",
"aN c #e9c374",
"aJ c #e9c47a",
"#e c #e9cfa6",
"dV c #e9e9e8",
"ge c #ea8177",
"gr c #ea8776",
"gq c #eabc75",
"as c #eac473",
"#6 c #eac477",
"aO c #eac57d",
"a# c #ead0a8",
"eN c #eae7e8",
"ez c #eaebec",
"gN c #ebc177",
"aP c #ebc576",
"#7 c #ebc57a",
"at c #ebc680",
"d0 c #ebefed",
"aM c #ecc174",
"gc c #ecc573",
"bd c #ecc679",
"#d c #ecd1a8",
"dh c #ececea",
"e9 c #ecedee",
"dU c #ecf0ee",
"hE c #edc377",
"aC c #edc676",
"#O c #edd2a8",
"gB c #eec477",
"hI c #eec779",
"#. c #eeca8a",
"#b c #eed2a6",
"az c #efd19a",
"## c #f0d29d",
"ax c #f0d3a1",
"#c c #f0d4a9",
"#N c #f0d5ad",
"aA c #f1ce98",
"av c #f1d4a3",
"dZ c #f1f1f0",
"ep c #f1f4f2",
"du c #f1f5f5",
"ay c #f2cf9b",
"au c #f2d19f",
"aw c #f2d5a5",
"#8 c #f2d5a7",
"a. c #f2dab0",
"cr c #f2f3f5",
"dQ c #f2f5f4",
"aB c #f3d6a9",
"dm c #f3faf8",
"#a c #f4d3a5",
"#K c #f4d8af",
"#M c #f4d8b1",
"d5 c #f4f4f4",
"cW c #f4f7f7",
"#L c #f5d9b0",
"#9 c #f5d9b2",
"dC c #f8fbfc",
"eu c #f9fbf8",
"c6 c #f9fbf9",
"cQ c #f9fcfd",
"ef c #faf9f9",
"em c #faf9fb",
"e8 c #fafcfc",
"cu c #fafcfe",
"dK c #fbfeff",
"d7 c #fcfdfb",
"dL c #fcfefe",
"d6 c #fdfbfc",
"cP c #fdffff",
"dt c #fefffe",
"c7 c #feffff",
"el c #fffdfd",
"ct c #fffeff",
"cs c #ffffff",
"QtQtQtQtQtQtQtQtQtQtQtQtQt.#.aQtQtQtQtQtQtQtQtQtQtQtQtQtQtQtQtQtQtQtQtQtQtQtQtQtQtQtQtQtQtQtQtQtQtQt.b.cQtQtQtQtQtQtQtQtQtQtQtQt",
".b.b.b.b.b.b.b.b.b.b.b.b.b.a.c.b.b.b.b.b.b.b.b.b.b.b.b.b.b.b.b.b.b.b.b.b.b.b.b.b.b.b.b.b.b.b.b.b.b.b.a.c.b.b.b.b.b.b.b.b.b.b.b.b",
".b.b.b.b.b.b.b.b.b.b.b.b.b.b.b.b.c.a.b.b.b.b.b.b.b.b.b.b.b.b.b.b.b.b.b.b.b.b.b.b.b.b.b.b.b.b.b.b.b.b.b.b.b.b.b.b.c.b.b.b.b.b.b.b",
"QtQtQtQtQtQtQtQtQtQtQtQtQtQtQtQt.d.bQtQtQtQtQtQtQtQtQtQtQtQtQtQtQtQtQtQtQtQtQtQtQtQtQtQtQtQtQtQtQtQtQtQtQtQtQtQt.cQtQtQtQtQtQtQt",
"QtQtQtQtQtQtQtQtQtQtQtQtQtQtQtQt.d.bQtQtQtQtQtQtQtQtQtQtQtQtQtQtQtQtQtQtQtQtQtQtQtQtQtQtQtQtQtQtQtQtQtQtQtQtQtQt.cQtQtQtQtQtQtQt",
"QtQtQtQtQtQtQtQtQtQtQtQtQtQtQtQt.d.bQtQtQtQtQtQtQtQtQtQtQtQtQtQtQtQtQtQtQtQtQtQtQtQtQtQtQtQtQtQtQtQtQtQtQtQtQtQt.cQtQtQtQtQtQtQt",
"QtQtQtQtQtQtQtQtQtQtQtQtQtQtQtQt.d.bQtQtQtQtQtQtQtQtQtQtQtQtQtQtQtQtQtQtQtQtQtQtQtQtQtQtQtQtQtQtQtQtQtQtQtQtQtQt.cQtQtQtQtQtQtQt",
"QtQtQtQtQtQtQtQtQtQtQtQtQtQtQtQt.d.bQtQtQtQtQtQtQtQtQtQtQtQtQtQtQtQtQtQtQtQtQtQtQtQtQtQtQtQtQtQtQtQtQtQtQtQtQtQt.cQtQtQtQtQtQtQt",
".a.a.a.a.a.a.a.a.a.e.f.g.h.i.j.a.c.d.a.a.k.l.d.a.a.l.m.m.m.n.n.o.o.p.o.n.q.r.s.t.u.a.a.a.a.a.a.v.w.m.m.w.x.y.u.a.c.a.a.a.a.a.a.a",
".#.#.#.#.#.c.#.z.A.B.C.D.E.B.F.uQtQt.#.d.G.m.H.I.J.K.L.M.N.O.P.p.m.m.m.m.m.m.m.m.o.Q.s.R.d.#.a.n.m.w.S.T.U.V.U.W.X.#.#.#.#.#.#.#",
"QtQtQtQtQt.Y.Z.0.1.2.3.4.v.5.6.o.y.0.7.8.m.m.9#.###a#b#c#d#e#d#f#g#h#i#j#k#l#m#n#o.p.m.m.p#p#q.m.1.u#r#s#t#u#v.C#v#w#xQtQtQtQtQt",
"QtQtQt#y#z.n.m#A.F#B#C#D#E.5.5.n.m.m#F#G#H#I#J#K#L#M#K#K#K#K#K#K#K#K#K#K#K#M#L#N#O#P#Q#R#o.m.m.p.v.5#E#S.h#T#U#V#W.j#X.f#xQtQtQt",
"QtQt.b.0.m#Y.D#Z#0#T#1.5.5.5.u#2#3#4#5#6#7#8#9#M#M#Ma.#L#L#L#L#L#L#L#L#L#L#L#L#L#L#L#L#La#aaabac.R.5.5.vadaeafag#0ahaiajak#z.bQt",
"QtQt#z.m.Ual#0#0amanao.u.5apaqar#6#6#6asatauav#8#8awavaxau######ayazaAaAaAaAaAaz##axavaBaB#.aCaD.v.5.5.5.vaEaFal#TaG#UaHak.m.Q#x",
".b.X.pak#U#0#0aG#u.u.u.5ap#qaIaC#6#6#6#6#6as#6#7#7aJ#6aKaLasasasaMaNaNaNaNaNaNaNas#6#6aO#7#6aPaQaRaSaTap.5#E.v.zaU#Z#T#TaVaW.m.Q",
".b.y.m.V#0#0#T.D#E.5.5apaXaY#GaP#6#6#6#6#6#5aZa0aL#6#6a1a2#6#6#6#6#6#6#6#6#6#6a3#6#6#6#6#6#6#6aCa4.Ga5a6a7.u.5#E.v#Sa8a9#sb..x.m",
"Qtb#.maH#TaG.Vba.5.uaTbb.wbcbd#6#6#6#6#6#6be.m.mbf#5#6bgbhaL#6#6#6#6#6#6#6aKbibj#6bk#G#4blbm#6#6aCbh.mbnaSa6ap.5.5#E.v.uboao.R.m",
"Qtbp.mbq#sbr.u.5.ua6bs#q.NbtaC#6#6aL#5aKaPbu#o.2.mbvaL#6bw#G#6#6#6#6#6#6bmbxby#5bz#o.o.m.mbAbBbCbDbkbE.m.o#qa6aT.v.5.5.5.5.5.5bn",
"Qt#ybF.m.1.v.5aqa6bbbG.NbHbIasbJbKbLbMbNbObNbPbQ.U.mbR#6bjbS#6#6#6#6#6#6bTbUaQbi.mbV#vbW.NbX.x.m.mbYbjbZ.n.mbnaXa6a7.RaqaqaTa6.n",
"QtQt#x.q.mb0b1bG#qbG#ob2b3#Gb4.m.nb5b6.2b7.G.Gb8b9.SbPc.c#bwaL#6#6#6#6#5cacbcc.mcd.hce.vcfcgchcicj.q.mckcl#2.m.m.qbGaSaSaSbG.q.m",
".d.d.d.X.scm.m.m.m.ncncocpbN.m.pcqcrcsctcucv.m.Gcwcx.mccaLbuaQ#6#6#6#6bmcy#5.LapczcAbFcB.mcCcscDcE.m.m.m.GcFcG.w.m.m.m.p.p.m.m.r",
"QtQtQtQtQtcHcI.r.mcJcKcLcM.m.m.n.mcNcOcPcscQcR.pa5bF.pbw#6a1aQ#6#6#6#6#6#6cS.maEcTcIcU.ncVcWcX.ocY.m.m.m.G.mcZcoc0.m.qc1c2#zaqQt",
"QtQtQtQtQtQtQta7.mbcc3c4.m.m.m.m.m.mc5c6csc7c8c9.m.G.mbh#6#6#6#6#6#6#6#6#6d..m.s#q#q.G.nd#da.m.Sdb.m.m.m.m.n.ndcdd.m#xQtQtQtQtQt",
"QtQtQtQtQtQtQt.s.mdecy.Gdf.m.m.m.m.m.mdgcscsc7dhdi.mbLdj#6#6#6#6#6#6#6#6#6bi.m.1.L.ndkdldmdndo.m.m.m.m.m.m.m.pbydp.mb#QtQtQtQtQt",
"QtQtQtQtQtQtQt.s.mdqdr.m.m.m.m.m.m.m.mdscPcscsdtduaSdv#6#6#6aP#6aNaP#6#6#6dwcf.m.mb8dxcsdy.m.m.m.m.m.m.m.m.m.O.Gdz.mb#QtQtQtQtQt",
"QtQtQtQtQtQtQt#zdbdAbYb0.m.m.m.m.m.m.ndBcscscscsdCdD#F#6#5dEdFbLbNdGbxd.dH#6dIdJ.UdKcsdLdM.w.m.m.m.m.m.m.m.m.O.m.w.w.dQtQtQtQtQt",
".d.d.d.d.d.d.c#p.ndN.p.m.m.m.m.mdOdPdQcscscscscscsdRcMaKdF.mdSdTdUdVdWdX.mbA#6bzdYc7csdtdZd0d1cE.m.m.m.m.m.m.G.m.1ajd2.d.d.d.d.d",
"QtQtQtQtQtQt.##p.nd3.m.m.m.m.m.md4d5d6d7cscscsc7csd8.Gca.m.md9e.e#eaebec.nbNedeeaSefcscscscscseg.m.m.m.m.m.m.o.makehcHQtQtQtQtQt",
"QtQtQtQtQtQt.##p.ncS.m.m.m.m.m.m.meiejekcPelcsemen.mdob5.map.n.m.m.m.m.G.nddeo#o.Sepcscseqerese..m.m.m.m.m.mbXdobqet.bQtQtQtQtQt",
"QtQtQtQtQtQt.#.r.p#4.m.m.m.m.m.m.mcf.mcDcsc7euev.mbqew#0.f.m.pdo.n.ObX.mcf#1czex.meyezcseA.m.m.m.m.m.m.m.m.m.neB.V.UQtQtQtQtQtQt",
"QtQtQtQtQtQt.#bF.peC.p.p.m.m.m.m.meDeEcPcscseF.meG#Cal#T#0eHc0do.n.OeIeJeK#Wa8#0aR.meLeMeNeO.0.m.m.m.m.m.mac.mePeQ.TQtQtQtQtQtQt",
".#.#.#.#.#.#.#eR.meSeT.n.m.m.m.m.G.peUcscscseV.peWajeX.F.S.u.vcI.v.u.v.y.t.uex.VeY.weZe0e1e1.ma6.m.m.m.me2.me3e4ah.a.#.#.#.#.#.#",
".a.a.a.a.a.a.a.l.me5e6.m.P.ndbbG.me7dte8epe9f..w.v.u.5eK.qf#.5.5.5.t.5.v.v.u.6.n.R#2dSfafbfcfd.ma5dbdo.Gb0.Pfeff.D.l.a.a.a.a.a.c",
"QtQtQtQtQtQtQt#x.pfgfhfi.m.o.mbnfjfkflfmfnfofp.qbV.5f#.v.5.5b7aq.y.qaq#Y.s#2#E.6eR.nbbfqfrfse0ftaX.m.m.m.Pfufvfw.U.bQtQtQtQtQt.c",
"QtQtQtQtQtQtQtQt.r.pfxfyfz.mfAfBfafbfCfDfEfFfG.p.y.u.t.RaTaTbbap.Ga5a6a6b1#qa6aXbP.mbq.q.mfHfIfJ.1.m.mfKfxfLfMeQfNQtQtQtQtQtQt.c",
"QtQtQtQtQtQtQtQtfO.mfPfLfQfR.meifSfTfjfUfV.qfW.m.q#qbbbbbbfXc9fY.mbP.SaSfZfX.1e2.mf0#6f1f2f3b1.w.Lbxf4f5fLfLf6#VaqQtQtQtQtQtQt.c",
"QtQtQtQtQtQtQtQtQtfR.pf7fLf8f9g..p.m.m.n#ng#aKbi.m.pbPbGbP.L.m.pga.L.m.p.n.m.mbNgbaL#6gcgcgcc.aQaKaPgdgefLfh.4gf.bQtQtQtQtQtQt.c",
"QtQtQtQtQtQtQtQtQtb#.ne2ggfLghgicZgjgkbg#6#6#6aLaZdz.m.m.m.Ogla0#6dAgmdFc4gngobk#6#6#6#6#6#6#6#6#6gpgqgrfLgsgtfNQtQtQtQtQtQtQt.c",
".a.a.a.a.a.a.a.a.a.a.t.pgugvgwgxgycogzgAcyaLaPgBaPbmgCa1cbbg#6#6#6#6#6#6#6#6#6#6#6#6#6#6#6#6#6#6#6#6#6gDgEgFgG.u.a.a.a.a.a.a.a.d",
"QtQtQtQtQtQtQtQtQtQtQtd2.m.pgHbHgIgIgycogIgJgKgLgMbmaPaCaCaCaPaPaPaPaPaP#6#6#6#6#6#6#6#6#6#6#6#6aP#6aPgNgOex.WQtQtQtQtQtQtQtQtQt",
"QtQtQtQtQtQtQtQtQtQtQtQt.X.Q.mbn#EgPgIgIgIgycogycLgQgRgKgSgTgUgMaQgV#5#5gWgXaL#6aLaL#6#6aLaLaLgXbmbmaK#4.p.tQtQtQtQtQtQtQtQtQtQt",
"QtQtQtQtQtQtQtQtQtQtQtQtQt.dgY.q.m.m#ogZg0gIgygIgIgygycogygygIcLg1b3g2g2g3g4g4g5g6gJc3c3gJg6gJg4g7g8eB.mbncHQtQtQtQtQtQtQtQtQtQt",
"QtQtQtQtQtQtQtQtQtQtQtQtQt.d.bQtcI.r.m.m.ng9bch.gygygygygIgIgIgIgygygygygygygygygygycKgycoh#gZg9.n.mdb.s.bQtQtQtQtQtQtQtQtQtQtQt",
"QtQtQtQtQtQtQtQtQtQtQtQtQt.d.bQtQtQtcHa7.r.m.m.pg9hacZdchbdcgycLgIdcgygygIhcbHh#hdhehf.Ldo.p.m.mc1.y.k.bQtQtQtQtQtQtQtQtQtQtQtQt",
".a.a.a.a.a.a.a.a.a.a.a.a.a.k.d.b.b.b.b.b.X.nc0.m.p.p.m.m.n.Og9#oaY#mhgheeI#o.n.m.m.m.m.o.r#za7.X.b.b.c.d.a.a.a.a.a.a.a.a.a.a.a.a",
".a.a.a.a.a.a.a.c.d.a.a.a.a.b.b.b.b.b.b.b.sbXg0bP.wb1hha5.wbX.m.m.mhiaW.V.Bhj.n.0.o.Ghk.L.R.a.a.a.a.a.a.a.a.a.a.a.a.a.a.a.a.a.a.a",
"QtQtQtQtQtQtQt.a.bQtQtQtQtQtQtQtQtQtQtQt.rg9cLh##o.m.wbG#2bP.GhlhmhnaV#thohpex#o.NhqgI#oaqQtQtQtQtQtQtQtQtQtQtQtQtQtQtQtQtQtQtQt",
"QtQtQtQtQtQtQt.a.bQtQtQtQtQtQtQtQtQtQtQta7eJhrgyg0he.M#o.O.mhs.tht#0huhv#shw.nhxgygIhc.Gc9QtQtQtQtQtQtQtQtQtQtQtQtQtQtQtQtQtQtQt",
"QtQtQtQtQtQtQt.a.bQtQtQtQtQtQtQtQtQtQtQt#yhyaKgLhzg2b3hAhk.mhB.2.nhC.BhD.FalbP#ngIgIhc.G.vQtQtQtQtQtQtQtQtQtQtQtQtQtQtQtQtQtQtQt",
"QtQtQtQtQtQtQt.a.bQtQtQtQtQtQtQtQtQtQtQt.bca#5aPhE#5bkbIhe.mhFapeh.6hG.3#Whn.oeJgIgIhcdo.#QtQtQtQtQtQtQtQtQtQtQtQtQtQtQtQtQtQtQt",
"QtQtQtQtQtQtQt.a.bQtQtQtQtQtQtQtQtQtQtQt.ZhHaK#6aPbdhIgVgI.wdobPhJbq.yhKcdb1.ObHgIgIgIg9.5QtQtQtQtQtQtQtQtQtQtQtQtQtQtQtQtQtQtQt",
".c.d.d.d.d.d.d.c.c.d.d.d.d.d.d.d.d.d.d.d.khL#6#6cyhMhMhNhOgP.n.o.waSa6b0dohPgZgIgIgIgIdo.s.d.d.d.d.d.d.d.d.d.d.d.d.d.d.d.d.d.d.d",
".a.b.b.b.b.b.b.#.#.b.b.b.b.b.b.b.b.b.b.baqhe#6#6bIb3cKgIhQcLb2hPdo.nbPeJh#hf.MhkgIcLhc.Ga7QtQtQtQtQtQtQtQtQtQtQtQtQtQtQtQtQtQtQt",
".aQtQtQtQtQtQtQtQtQtQtQtQtQtQtQtQtQtQtQthRhS#6#6aC.JhTcGhUeJhPhV.Mc0g9#3bY.6.q.PhyhWhV.mhXQtQtQtQtQtQtQtQtQtQtQtQtQtQtQtQtQtQtQt",
".aQtQtQtQtQtQtQtQtQtQtQtQtQtQtQtQtQtQtQtgGhYbdhIhZhcc0.bcHd2.SbF.rbGdph0.v.bcH.s.n.yac.Oh1QtQtQtQtQtQtQtQtQtQtQtQtQtQtQtQtQtQtQt",
".aQtQtQtQtQtQtQtQtQtQtQtQtQtQtQtQtQtQt#xh2h3h4bth5#obGQtQtQtQtQtQtQtQt.a.dQtQtcH.q.m.m.RQtQtQtQtQtQtQtQtQtQtQtQtQtQtQtQtQtQtQtQt",
".aQtQtQtQtQtQtQtQtQtQtQtQtQtQtQtQtQtQtb#aiaq.S.t#o.Q.bQtQtQtQtQtQtQtQt.a.dQtQtQt.bd2aqQtQtQtQtQtQtQtQtQtQtQtQtQtQtQtQtQtQtQtQtQt",
".a.#.#.#.#.#.#.#.#.#.#.#.#.#.#.#.#.#.#.a.Q.m.m.mb1.a.#.#.#.#.#.#.#.#.#.a.dQtQtQtQtQtQtQtQtQtQtQtQtQtQtQtQtQtQtQtQtQtQtQtQtQtQtQt",
".c.c.c.c.c.c.c.c.c.c.c.c.c.c.c.c.c.c.c.c.kh6h7h6.k.c.c.c.c.c.c.c.c.c.c.c.c.d.d.d.d.d.d.d.d.d.d.d.d.d.d.c.d.d.d.d.d.d.d.d.d.d.d.d",
"QtQtQtQtQtQtQtQtQtQtQtQtQt.#.aQtQtQtQtQtQtQtQtQtQtQtQtQtQtQtQtQtQtQtQtQtQtQtQtQtQtQtQtQtQtQtQtQtQtQt.b.cQtQtQtQtQtQtQtQtQtQtQtQt",
"QtQtQtQtQtQtQtQtQtQtQtQtQt.#.aQtQtQtQtQtQtQtQtQtQtQtQtQtQtQtQtQtQtQtQtQtQtQtQtQtQtQtQtQtQtQtQtQtQtQt.b.cQtQtQtQtQtQtQtQtQtQtQtQt",
"QtQtQtQtQtQtQtQtQtQtQtQtQt.#.aQtQtQtQtQtQtQtQtQtQtQtQtQtQtQtQtQtQtQtQtQtQtQtQtQtQtQtQtQtQtQtQtQtQtQt.b.cQtQtQtQtQtQtQtQtQtQtQtQt",
"QtQtQtQtQtQtQtQtQtQtQtQtQt.#.aQtQtQtQtQtQtQtQtQtQtQtQtQtQtQtQtQtQtQtQtQtQtQtQtQtQtQtQtQtQtQtQtQtQtQt.b.cQtQtQtQtQtQtQtQtQtQtQtQt",
"QtQtQtQtQtQtQtQtQtQtQtQtQt.#.aQtQtQtQtQtQtQtQtQtQtQtQtQtQtQtQtQtQtQtQtQtQtQtQtQtQtQtQtQtQtQtQtQtQtQt.b.cQtQtQtQtQtQtQtQtQtQtQtQt"};
