/* XPM */
static char *dummy[]={
"64 64 34 1",
"# c #000000",
"F c #161519",
". c #3c1518",
"c c #412126",
"d c #432016",
"b c #482924",
"e c #4a0019",
"a c #4e1526",
"q c #522030",
"j c #5d302e",
"B c #603636",
"w c #652937",
"i c #68413c",
"o c #6c363d",
"m c #703b3c",
"l c #724143",
"n c #74403b",
"k c #764542",
"f c #794948",
"p c #7a4941",
"h c #7b4d4d",
"g c #7c4d47",
"u c #7d5152",
"t c #7e514c",
"r c #815451",
"x c #835856",
"v c #844d52",
"y c #845850",
"z c #865b55",
"A c #885e59",
"C c #895456",
"s c #8b585a",
"E c #905e5e",
"D c #93615d",
"..............................##################################",
"aaaabacaacaaaabaaabbababadde..##################################",
"fgfhhgffgfhggghgghhhhhghfiij..##################################",
"kkkkkkkkkkkkkkkkkkkkkkkklimj..##################################",
"kkkkkkkkkkkkkkkkkkkkkkkklimj..##################################",
"kkkkkkkkkkkkkkkkkkkkkkkknimj..##################################",
"kkkkkkkkkkkkkkkkkkkkkkkknimj..##################################",
"kkkkkkkkkkkkkkkkkkkkkkkknimj..##################################",
"jdopkkkkkkkkkkkkkkkkkkkknimj..##################################",
"e.qrkkkkkkkkkkkkkkkkkkkknimj..##################################",
"..cskkkkkkkkkkkkkkkkkkkknimj..##################################",
"..ctkkkkkkkkkkkkkkkkkkkknimj..##################################",
"..cukkkkkkkkkkkkkkkkkkkknimj..##################################",
"..cvkkkkkkkkkkkkkkkkkkkknimj..##################################",
"..crkkkkkkkkkkkkkkkkkkkknimj..##################################",
"..crkkkkkkkkkkkkkkkkkkkknimj..##################################",
"..cukkkkkkkkkkkkkkkkkkkknimj..##################################",
"..cvkkkkkkkkkkkkkkkkkkkknimj..##################################",
"..crkkkkkkkkkkkkkkkkkkkknimj..##################################",
"..dtkkkkkkkkkkkkkkkkkkkknimj..##################################",
"..cvkkkkkkkkkkkkkkkkkkkknimj..##################################",
"..crkkkkkkkkkkkkkkkkkkkknimj..##################################",
"..dtkkkkkkkkkkkkkkkkkkkknimw..##################################",
"..dtkkkkkkkkkkkkkkkkkkkknimw..##################################",
"..dtkkkkkkkkkkkkkkkkkkkknimw..##################################",
"..dtkkkkkkkkkkkkkkkkkkkknimw..##################################",
"..cukkkkkkkkkkkkkkkkkkkknimw..##################################",
"..cukkkkkkkkkkkkkkkkkkkknimw..##################################",
"..cukkkkkkkkkkkkkkkkkkkknimw..##################################",
"..dtkkkkkkkkkkkkkkkkkkkknimw..##################################",
"..dtkkkkkkkkkkkkkkkkkkkknimw..##################################",
"..ctkkkkkkkkkkkkkkkkkkkknimw..##################################",
"..dtkkkkkkkkkkkkkkkkkkkknimw..##################################",
"..dtkkkkkkkkkkkkkkkkkkkknimw..##################################",
"..dtkkkkkkkkkkkkkkkkkkkknimw..##################################",
"..dtkkkkkkkkkkkkkkkkkkkknimw..##################################",
"..dtkkkkkkkkkkkkkkkkkkkknimw..##################################",
"..dtkkkkkkkkkkkkkkkkkkkknimw..##################################",
"..dhkkkkkkkkkkkkkkkkkkkknimw..##################################",
"..dtkkkkkkkkkkkkkkkkkkkknimw..##################################",
"..dtkkkkkkkkkkkkkkkkkkkknimw..##################################",
"..drkkkkkkkkkkkkkkkkkkkknimw..##################################",
"..cxkkkkkkkkkkkkkkkkkkkknimw..##################################",
"..cykkkkkkkkkkkkkkkkkkkknimw..##################################",
"..azkkkkkkkkkkkkkkkkkkkknimw..##################################",
"..bAkkkkkkkkkkkkkkkkkkkknimw..##################################",
"..aykkkkkkkkkkkkkkkkkkkknimw..##################################",
"..crkkkkkkkkkkkkkkkkkkkknimw..##################################",
"..dtkkkkkkkkkkkkkkkkkkkknimw..##################################",
"..dtkkkkkkkkkkkkkkkkkkkknimw..##################################",
"..dtkkkkkkkkkkkkkkkkkkkknimB..##################################",
"..dtkkkkkkkkkkkkkkkkkkkknimB..##################################",
"..dtkkkkkkkkkkkkkkkkkkkknimB..##################################",
"..drkkkkkkkkkkkkkkkkkkkknimB..##################################",
"..cCkkkkkkkkkkkkkkkkkkkknimB..##################################",
"..cCkkkkkkkkkkkkkkkkkkkknimB..##################################",
"..cxkkkkkkkkkkkkkkkkkkkknimB..##################################",
"..drkkkkkkkkkkkkkkkkkkkknimB..##################################",
"..bskkkkkkkkkkkkkkkkkkkknimB..##################################",
"..qDlkkkkkkkkkkkkkkkkkkknimB..##################################",
"..bEkkkkkkkkkkkkkkkkkkkknimB..##################################",
"..czkkkkkkkkkkkkkkkkkkkknimB..##################################",
"..bAkkkkkkkkkkkkkkkkkkkknimB..##################################",
"..bzkkkkkkkkkkkkkkkkkkkknimB..FFFFFFFFFFFFFFFFFFFFFFFFFFFFFFFFFF"};
