/* XPM */
static char *dummy[]={
"64 64 13 1",
". c #000000",
"# c #3c1518",
"f c #412126",
"k c #432016",
"a c #652937",
"i c #68413c",
"c c #6c453b",
"b c #703b3c",
"d c #764542",
"j c #835856",
"h c #855b5a",
"e c #865b55",
"g c #895456",
"..................................##abcdddddddddddddddddddddef##",
"..................................##abbdddddddddddddddddddddef##",
"..................................##abbdddddddddddddddddddddef##",
"..................................##abbdddddddddddddddddddddef##",
"..................................##abbdddddddddddddddddddddgf##",
"..................................##abbdddddddddddddddddddddef##",
"..................................##abbdddddddddddddddddddddhf##",
"..................................##abbdddddddddddddddddddddef##",
"..................................##abbdddddddddddddddddddddef##",
"..................................##abbdddddddddddddddddddddef##",
"..................................##abbdddddddddddddddddddddhf##",
"..................................##abbdddddddddddddddddddddef##",
"..................................##abbdddddddddddddddddddddef##",
"..................................##abbdddddddddddddddddddddef##",
"..................................##abbdddddddddddddddddddddgf##",
"..................................##abidddddddddddddddddddddef##",
"..................................##abidddddddddddddddddddddgf##",
"..................................##abbdddddddddddddddddddddef##",
"..................................##abbdddddddddddddddddddddef##",
"..................................##abbdddddddddddddddddddddef##",
"..................................##abbdddddddddddddddddddddef##",
"..................................##abbdddddddddddddddddddddef##",
"..................................##abbdddddddddddddddddddddjf##",
"..................................##abbdddddddddddddddddddddgf##",
"..................................##abbdddddddddddddddddddddef##",
"..................................##abbdddddddddddddddddddddgf##",
"..................................##abbdddddddddddddddddddddgf##",
"..................................##abbdddddddddddddddddddddgf##",
"..................................##abbdddddddddddddddddddddgf##",
"..................................##abbdddddddddddddddddddddjk##",
"..................................##abbdddddddddddddddddddddjk##",
"..................................##abbdddddddddddddddddddddef##",
"..................................##abbdddddddddddddddddddddgf##",
"..................................##abbdddddddddddddddddddddgk##",
"..................................##abbdddddddddddddddddddddjk##",
"..................................##abbdddddddddddddddddddddjf##",
"..................................##abbdddddddddddddddddddddjk##",
"..................................##abbdddddddddddddddddddddjk##",
"..................................##abbdddddddddddddddddddddgf##",
"..................................##abbdddddddddddddddddddddjk##",
"..................................##abbdddddddddddddddddddddjk##",
"..................................##abbdddddddddddddddddddddjk##",
"..................................##abbdddddddddddddddddddddjk##",
"..................................##abbdddddddddddddddddddddjf##",
"..................................##abbdddddddddddddddddddddjk##",
"..................................##abbdddddddddddddddddddddjk##",
"..................................##abbdddddddddddddddddddddjk##",
"..................................##abbdddddddddddddddddddddjk##",
"..................................##abbdddddddddddddddddddddjk##",
"..................................##abidddddddddddddddddddddjk##",
"..................................##abidddddddddddddddddddddjk##",
"..................................##abidddddddddddddddddddddjk##",
"..................................##abidddddddddddddddddddddjk##",
"..................................##abidddddddddddddddddddddjk##",
"..................................##abidddddddddddddddddddddjk##",
"..................................##abidddddddddddddddddddddjk##",
"..................................##abidddddddddddddddddddddgk##",
"..................................##abidddddddddddddddddddddjk##",
"..................................##abidddddddddddddddddddddjk##",
"..................................##abidddddddddddddddddddddjk##",
"..................................##abidddddddddddddddddddddjk##",
"..................................##abidddddddddddddddddddddjk##",
"..................................##abbdddddddddddddddddddddjk##",
"..................................##abidddddddddddddddddddddjk##"};
