/* XPM */
static char *dummy[]={
"64 64 16 1",
"h c #000000",
"j c #272117",
"g c #2b0002",
"# c #33001a",
". c #3c1518",
"a c #503736",
"f c #5b4134",
"e c #68413c",
"n c #6c453b",
"k c #703b3c",
"c c #74403b",
"d c #764542",
"i c #906a69",
"b c #916965",
"l c #936c68",
"m c #956769",
".#abcddddddddddddddddddddeef..ghhhhhhhhhhhhhhhhhhhhhhhhhhhhhhhhh",
".#abcddddddddddddddddddddeef..ghhhhhhhhhhhhhhhhhhhhhhhhhhhhhhhhh",
".#abcddddddddddddddddddddeef..ghhhhhhhhhhhhhhhhhhhhhhhhhhhhhhhhh",
".#aicddddddddddddddddddddeef..ghhhhhhhhhhhhhhhhhhhhhhhhhhhhhhhhh",
".#abcddddddddddddddddddddeef..ghhhhhhhhhhhhhhhhhhhhhhhhhhhhhhhhh",
".#abcddddddddddddddddddddeef..ghhhhhhhhhhhhhhhhhhhhhhhhhhhhhhhhh",
".#abcddddddddddddddddddddeef..ghhhhhhhhhhhhhhhhhhhhhhhhhhhhhhhhh",
".#abcddddddddddddddddddddeef..ghhhhhhhhhhhhhhhhhhhhhhhhhhhhhhhhh",
".#aicddddddddddddddddddddeef..ghhhhhhhhhhhhhhhhhhhhhhhhhhhhhhhhh",
".#abcddddddddddddddddddddeef..ghhhhhhhhhhhhhhhhhhhhhhhhhhhhhhhhh",
".#abcddddddddddddddddddddeef..ghhhhhhhhhhhhhhhhhhhhhhhhhhhhhhhhh",
".#abcddddddddddddddddddddeef..ghhhhhhhhhhhhhhhhhhhhhhhhhhhhhhhhh",
".#abcddddddddddddddddddddeef..ghhhhhhhhhhhhhhhhhhhhhhhhhhhhhhhhh",
".jabcddddddddddddddddddddeef..ghhhhhhhhhhhhhhhhhhhhhhhhhhhhhhhhh",
".#abcddddddddddddddddddddeef..ghhhhhhhhhhhhhhhhhhhhhhhhhhhhhhhhh",
".#abcddddddddddddddddddddeef..ghhhhhhhhhhhhhhhhhhhhhhhhhhhhhhhhh",
".#abcddddddddddddddddddddeef..ghhhhhhhhhhhhhhhhhhhhhhhhhhhhhhhhh",
".#aicddddddddddddddddddddeef..ghhhhhhhhhhhhhhhhhhhhhhhhhhhhhhhhh",
".#abcddddddddddddddddddddeef..ghhhhhhhhhhhhhhhhhhhhhhhhhhhhhhhhh",
".#abcddddddddddddddddddddeef..ghhhhhhhhhhhhhhhhhhhhhhhhhhhhhhhhh",
".#aicddddddddddddddddddddeef..ghhhhhhhhhhhhhhhhhhhhhhhhhhhhhhhhh",
".#aicddddddddddddddddddddeef..ghhhhhhhhhhhhhhhhhhhhhhhhhhhhhhhhh",
".#abcddddddddddddddddddddeef..ghhhhhhhhhhhhhhhhhhhhhhhhhhhhhhhhh",
".#abcddddddddddddddddddddeef..ghhhhhhhhhhhhhhhhhhhhhhhhhhhhhhhhh",
".#abcddddddddddddddddddddkef..ghhhhhhhhhhhhhhhhhhhhhhhhhhhhhhhhh",
".#alcddddddddddddddddddddeef..ghhhhhhhhhhhhhhhhhhhhhhhhhhhhhhhhh",
".#abcddddddddddddddddddddeef..ghhhhhhhhhhhhhhhhhhhhhhhhhhhhhhhhh",
".#abcddddddddddddddddddddkef..ghhhhhhhhhhhhhhhhhhhhhhhhhhhhhhhhh",
".#amcddddddddddddddddddddeef..ghhhhhhhhhhhhhhhhhhhhhhhhhhhhhhhhh",
".#amcddddddddddddddddddddeef..ghhhhhhhhhhhhhhhhhhhhhhhhhhhhhhhhh",
".#amcddddddddddddddddddddeef..ghhhhhhhhhhhhhhhhhhhhhhhhhhhhhhhhh",
".#alcddddddddddddddddddddeef..ghhhhhhhhhhhhhhhhhhhhhhhhhhhhhhhhh",
".#alcddddddddddddddddddddeef..ghhhhhhhhhhhhhhhhhhhhhhhhhhhhhhhhh",
".#abcddddddddddddddddddddeef..ghhhhhhhhhhhhhhhhhhhhhhhhhhhhhhhhh",
".#aicddddddddddddddddddddeef..ghhhhhhhhhhhhhhhhhhhhhhhhhhhhhhhhh",
".#alcddddddddddddddddddddeef..ghhhhhhhhhhhhhhhhhhhhhhhhhhhhhhhhh",
".#amcddddddddddddddddddddeef..ghhhhhhhhhhhhhhhhhhhhhhhhhhhhhhhhh",
".#alcddddddddddddddddddddeef..ghhhhhhhhhhhhhhhhhhhhhhhhhhhhhhhhh",
".#alcddddddddddddddddddddeef..ghhhhhhhhhhhhhhhhhhhhhhhhhhhhhhhhh",
".#alcddddddddddddddddddddeef..ghhhhhhhhhhhhhhhhhhhhhhhhhhhhhhhhh",
".#alcddddddddddddddddddddeef..ghhhhhhhhhhhhhhhhhhhhhhhhhhhhhhhhh",
".#aicddddddddddddddddddddeef..ghhhhhhhhhhhhhhhhhhhhhhhhhhhhhhhhh",
".#alcddddddddddddddddddddeef..ghhhhhhhhhhhhhhhhhhhhhhhhhhhhhhhhh",
".#alcddddddddddddddddddddeef..ghhhhhhhhhhhhhhhhhhhhhhhhhhhhhhhhh",
".#alcddddddddddddddddddddeef..ghhhhhhhhhhhhhhhhhhhhhhhhhhhhhhhhh",
".#alcddddddddddddddddddddeef..ghhhhhhhhhhhhhhhhhhhhhhhhhhhhhhhhh",
".#alcddddddddddddddddddddeef..ghhhhhhhhhhhhhhhhhhhhhhhhhhhhhhhhh",
".#alcddddddddddddddddddddeef..ghhhhhhhhhhhhhhhhhhhhhhhhhhhhhhhhh",
".#alcddddddddddddddddddddeef..ghhhhhhhhhhhhhhhhhhhhhhhhhhhhhhhhh",
".#alcddddddddddddddddddddeef..ghhhhhhhhhhhhhhhhhhhhhhhhhhhhhhhhh",
".#alcddddddddddddddddddddeef..ghhhhhhhhhhhhhhhhhhhhhhhhhhhhhhhhh",
".#alcddddddddddddddddddddeef..ghhhhhhhhhhhhhhhhhhhhhhhhhhhhhhhhh",
".#alcddddddddddddddddddddeef..ghhhhhhhhhhhhhhhhhhhhhhhhhhhhhhhhh",
".#alcddddddddddddddddddddeef..ghhhhhhhhhhhhhhhhhhhhhhhhhhhhhhhhh",
".#alcddddddddddddddddddddeef..ghhhhhhhhhhhhhhhhhhhhhhhhhhhhhhhhh",
".#alcddddddddddddddddddddeef..ghhhhhhhhhhhhhhhhhhhhhhhhhhhhhhhhh",
".#alcddddddddddddddddddddeef..ghhhhhhhhhhhhhhhhhhhhhhhhhhhhhhhhh",
".#alcddddddddddddddddddddeef..ghhhhhhhhhhhhhhhhhhhhhhhhhhhhhhhhh",
".#alcddddddddddddddddddddeef..ghhhhhhhhhhhhhhhhhhhhhhhhhhhhhhhhh",
".#alcddddddddddddddddddddeef..ghhhhhhhhhhhhhhhhhhhhhhhhhhhhhhhhh",
".#alcddddddddddddddddddddeef..ghhhhhhhhhhhhhhhhhhhhhhhhhhhhhhhhh",
".#alcddddddddddddddddddddeef..ghhhhhhhhhhhhhhhhhhhhhhhhhhhhhhhhh",
".#alcddddddddddddddddddddeef..ghhhhhhhhhhhhhhhhhhhhhhhhhhhhhhhhh",
".#alcddddddddddddddddddddnef..ghhhhhhhhhhhhhhhhhhhhhhhhhhhhhhhhh"};
