/* XPM */
static char *dummy[]={
"64 64 54 1",
"# c #000000",
"a c #161519",
"e c #1c1500",
"M c #272117",
"w c #2b0002",
"T c #33001a",
"x c #360000",
". c #3c1518",
"d c #412126",
"I c #46292f",
"c c #482924",
"K c #4a3037",
"W c #4c302e",
"b c #4e1526",
"N c #503736",
"Y c #522030",
"u c #542025",
"U c #563c35",
"n c #58292f",
"D c #5b3037",
"r c #5d302e",
"y c #5e363e",
"m c #653b35",
"q c #68413c",
"s c #6a4542",
"t c #6c453b",
"v c #703b3c",
"p c #724143",
"L c #74403b",
"o c #764542",
"h c #795851",
"l c #7a4d52",
"k c #7c5b55",
"f c #7d5152",
"i c #7f5556",
"g c #815451",
"G c #816159",
"j c #835856",
"Q c #84645d",
"z c #855b5a",
"B c #875e5e",
"F c #885e59",
"C c #8a615d",
"P c #8c6461",
"E c #8d5b5e",
"H c #8e6765",
"S c #906a69",
"J c #916965",
"A c #936c68",
"O c #946465",
"Z c #946f6c",
"R c #956769",
"V c #99736e",
"X c #9a6c6c",
"..............................#################################a",
"bcccccbccbccccccccccccccd.....#################################e",
"fghiiifhifiiiijiiikikjkklmmn..#################################e",
"oooooooooooooooooooooooopqqr..#################################e",
"oooooooooooooooooooooooopqqr..#################################e",
"oooooooooooooooooooooooosqqr..#################################e",
"ooooooooooooooooooooooootqqr..#################################e",
"ooooooooooooooooooooooootqqr..#################################e",
"muvooooooooooooooooooooosqqr..#################################w",
"cxyzoooooooooooooooooooopqqr..#################################w",
"..cAooooooooooooooooooootqqr..#################################w",
"..czoooooooooooooooooooopqqr..##################################",
"..cBooooooooooooooooooootqqr..##################################",
"..cBooooooooooooooooooootqqr..##################################",
"..cBooooooooooooooooooootqqr..##################################",
"..cCooooooooooooooooooootqqD..##################################",
"..cBooooooooooooooooooootqqD..##################################",
"..cBooooooooooooooooooootqqD..##################################",
"..cBooooooooooooooooooootqqD..##################################",
"..czooooooooooooooooooootqqD..##################################",
"..cBooooooooooooooooooootqqD..##################################",
"..cEooooooooooooooooooootqqD..##################################",
"..cFooooooooooooooooooootqqD..##################################",
"..czooooooooooooooooooootqqD..##################################",
"..cFooooooooooooooooooootqqD..##################################",
"..cFooooooooooooooooooootqqD..##################################",
"..cFooooooooooooooooooootqqD..##################################",
"..cFooooooooooooooooooootqqD..##################################",
"..cFooooooooooooooooooootqqD..##################################",
"..cGooooooooooooooooooootqqD..##################################",
"..czooooooooooooooooooootqqD..##################################",
"..czooooooooooooooooooootqqD..##################################",
"..czooooooooooooooooooootqqD..##################################",
"..czooooooooooooooooooootqqD..##################################",
"..czooooooooooooooooooootqqD..##################################",
"..czooooooooooooooooooootqqD..##################################",
"..cGooooooooooooooooooootqqD..##################################",
"..czooooooooooooooooooootqqD..##################################",
"..bzooooooooooooooooooootqqD..##################################",
"..czooooooooooooooooooootqqD..##################################",
"..cFooooooooooooooooooootqqD..##################################",
"..cHooooooooooooooooooootqqD..##################################",
"..IJooooooooooooooooooootqqD..##################################",
"..cHooooooooooooooooooootqqD..##################################",
"..KJLoooooooooooooooooootqqD..##################################",
".MNOLoooooooooooooooooootqqD..##################################",
"..IPooooooooooooooooooootqqD..##################################",
"..cQooooooooooooooooooootqqD..##################################",
"..bzooooooooooooooooooootqqD..##################################",
"..bzooooooooooooooooooootqqD..##################################",
"..czooooooooooooooooooootqqD..##################################",
"..czooooooooooooooooooootqqD..##################################",
"..bGooooooooooooooooooootqqD..##################################",
"..cHooooooooooooooooooootqqD..##################################",
"..IRooooooooooooooooooootqqD..##################################",
"..cSooooooooooooooooooootqqD..##################################",
"..cPooooooooooooooooooootqqD..##################################",
"..cPoooooooooooooooooooosqqD..##################################",
".TUALoooooooooooooooooootqqD..##################################",
".TUVLoooooooooooooooooootqqD..##################################",
"..WXpoooooooooooooooooootqqD..##################################",
"..YJpoooooooooooooooooootqqD..##################################",
".TDZLoooooooooooooooooootqqD..##################################",
"..WzooooooooooooooooooootqqD.d##################################"};
