/* XPM */
static char *dummy[]={
"64 64 33 1",
". c #000000",
"# c #3c1518",
"c c #412126",
"b c #432016",
"C c #482924",
"a c #4a0019",
"t c #4c302e",
"r c #4e1526",
"A c #542025",
"d c #5d302e",
"k c #603636",
"o c #652937",
"f c #653b35",
"p c #68413c",
"e c #6c363d",
"l c #703b3c",
"g c #714d47",
"m c #724143",
"q c #74403b",
"h c #755147",
"n c #764542",
"j c #794948",
"i c #7b4d4d",
"w c #7d5152",
"v c #7e514c",
"s c #815451",
"y c #835856",
"x c #844d52",
"z c #865b55",
"u c #885e59",
"B c #8b585a",
"E c #905e5e",
"D c #93615d",
"..................................##############################",
"..................................###aabccccccccccccccbcbbcccbcb",
"..................................##defghhihhihjhijjjhjhjgjiijhj",
"..................................##kllmnnnnnnnnnnnnnnnnnnnnnnnn",
"..................................##olpmnnnnnnnnnnnnnnnnnnnnnnnn",
"..................................##olpqnnnnnnnnnnnnnnnnnnnnnnnn",
"..................................##olpqnnnnnnnnnnnnnnnnnnnnnnnn",
"..................................##olpqnnnnnnnnnnnnnnnnnnnnnnnn",
"..................................##olpqnnnnnnnnnnnnnnnnnnnnnprk",
"..................................##olpmnnnnnnnnnnnnnnnnnnnnst#b",
"..................................##olpqnnnnnnnnnnnnnnnnnnnnuc##",
"..................................##olpqnnnnnnnnnnnnnnnnnnnnvb##",
"..................................##olpqnnnnnnnnnnnnnnnnnnnnwb##",
"..................................##olpqnnnnnnnnnnnnnnnnnnnnwb##",
"..................................##olpqnnnnnnnnnnnnnnnnnnnnxc##",
"..................................##olpqnnnnnnnnnnnnnnnnnnnnsc##",
"..................................##olpqnnnnnnnnnnnnnnnnnnnnwb##",
"..................................##olpqnnnnnnnnnnnnnnnnnnnnxc##",
"..................................##olpqnnnnnnnnnnnnnnnnnnnnxc##",
"..................................##olpqnnnnnnnnnnnnnnnnnnnnvb##",
"..................................##olpqnnnnnnnnnnnnnnnnnnnnwc##",
"..................................##olpqnnnnnnnnnnnnnnnnnnnnsc##",
"..................................##olpqnnnnnnnnnnnnnnnnnnnnvb##",
"..................................##olpqnnnnnnnnnnnnnnnnnnnnvb##",
"..................................##olpqnnnnnnnnnnnnnnnnnnnnvb##",
"..................................##olpqnnnnnnnnnnnnnnnnnnnnvb##",
"..................................##olpqnnnnnnnnnnnnnnnnnnnnwb##",
"..................................##olpqnnnnnnnnnnnnnnnnnnnnwc##",
"..................................##olpqnnnnnnnnnnnnnnnnnnnnwc##",
"..................................##olpqnnnnnnnnnnnnnnnnnnnnvb##",
"..................................##olpqnnnnnnnnnnnnnnnnnnnnvb##",
"..................................##olpqnnnnnnnnnnnnnnnnnnnnvb##",
"..................................##olpqnnnnnnnnnnnnnnnnnnnnvb##",
"..................................##olpqnnnnnnnnnnnnnnnnnnnnvb##",
"..................................##olpqnnnnnnnnnnnnnnnnnnnnib##",
"..................................##olpqnnnnnnnnnnnnnnnnnnnnvb##",
"..................................##olpqnnnnnnnnnnnnnnnnnnnnvb##",
"..................................##olpqnnnnnnnnnnnnnnnnnnnnvb##",
"..................................##olpqnnnnnnnnnnnnnnnnnnnnib##",
"..................................##olpqnnnnnnnnnnnnnnnnnnnnvb##",
"..................................##olpqnnnnnnnnnnnnnnnnnnnnvb##",
"..................................##olpqnnnnnnnnnnnnnnnnnnnnsb##",
"..................................##olpqnnnnnnnnnnnnnnnnnnnnyc##",
"..................................##olpqnnnnnnnnnnnnnnnnnnnnyc##",
"..................................##olpqnnnnnnnnnnnnnnnnnnnnzr##",
"..................................##olpqnnnnnnnnnnnnnnnnnnnnuA##",
"..................................##olpqnnnnnnnnnnnnnnnnnnnnyr##",
"..................................##olpqnnnnnnnnnnnnnnnnnnnnsc##",
"..................................##olpqnnnnnnnnnnnnnnnnnnnnvc##",
"..................................##olpqnnnnnnnnnnnnnnnnnnnnib##",
"..................................##olpqnnnnnnnnnnnnnnnnnnnnvb##",
"..................................##olpqnnnnnnnnnnnnnnnnnnnnvb##",
"..................................##olpqnnnnnnnnnnnnnnnnnnnnvb##",
"..................................##olpqnnnnnnnnnnnnnnnnnnnnsb##",
"..................................##olpqnnnnnnnnnnnnnnnnnnnnyc##",
"..................................##olpqnnnnnnnnnnnnnnnnnnnnzc##",
"..................................##olpqnnnnnnnnnnnnnnnnnnnnyc##",
"..................................##olpqnnnnnnnnnnnnnnnnnnnnsc##",
"..................................##olpqnnnnnnnnnnnnnnnnnnnnBC##",
"..................................##olpqnnnnnnnnnnnnnnnnnnnmDt##",
"..................................##olpqnnnnnnnnnnnnnnnnnnnnEC##",
"..................................##olpqnnnnnnnnnnnnnnnnnnnnzc##",
"..................................##olpqnnnnnnnnnnnnnnnnnnnnuC##",
"..................................##olpqnnnnnnnnnnnnnnnnnnnnBC##"};
