/* XPM */
static char *dummy[]={
"64 64 46 1",
". c #000000",
"# c #3c1518",
"R c #412126",
"Q c #432016",
"P c #4a0019",
"a c #542025",
"b c #5d302e",
"c c #603636",
"f c #652937",
"K c #68413c",
"D c #6c453b",
"L c #703b3c",
"d c #724143",
"g c #74403b",
"e c #764542",
"h c #845850",
"M c #946461",
"i c #966765",
"k c #996964",
"j c #9a6161",
"H c #9d6e67",
"v c #9f716b",
"I c #a06968",
"B c #a1736a",
"A c #a1736e",
"q c #a26c6b",
"C c #a46e6b",
"l c #a5716e",
"N c #b3716e",
"w c #bb7c76",
"r c #bc7c73",
"n c #bd7e76",
"o c #bd7e79",
"p c #bf8079",
"E c #c07a77",
"O c #c0827c",
"m c #c2847b",
"t c #c3867e",
"u c #c5887e",
"s c #c7847e",
"x c #c88681",
"G c #c9867e",
"F c #ca8881",
"y c #ca8e83",
"z c #cb8a83",
"J c #cd8c86",
"..................................##############################",
"..................................##############################",
"..................................##abbbbbbbbbbbbbbbbbbbbbbbbbbb",
"..................................##cdeeeeeeeeeeeeeeeeeeeeeeeeee",
"..................................##fgeeeeeeeeeeeeeeeeeeeeeeeeee",
"..................................##fgeeeeeeeeeeeeeeeeeeeeeeeeee",
"..................................##fgeeeeeeeeeeeeeeeeeeeeeeeeee",
"..................................##fgeeeeeeeeeeeeeeeeeeeeeeeeee",
"..................................##fgeeeeeeeeeeeeeeeeeeeeeeeeee",
"..................................##fgeeeeeeeeeeeeeeeeeeeeeeeeee",
"..................................##fgeeeeeeeeeeeeeeeeeeeeeeeeee",
"..................................##fgeeeeeeeeeedggggggggggggggg",
"..................................##fgeeeeeeeeeehijikkiiikkiiiki",
"..................................##fgeeeeeeeeeglmnopppooppopppo",
"..................................##fgeeeeeeeeegqrmsssstssssusss",
"..................................##fgeeeeeeeeegvwxyzyzyyyyyzzyy",
"..................................##fgeeeeeeeeegAwxzzzzzzzzzzzzz",
"..................................##fgeeeeeeeeegAnxzzzzzzzzzzzzz",
"..................................##fgeeeeeeeeegBwxzzzzzzzzzzzzz",
"..................................##fgeeeeeeeeegAwxzzzzzzzzzzzzz",
"..................................##fgeeeeeeeeegCwxzzzzzzzzzzzzz",
"..................................##fDeeeeeeeeegvwxzzzzzzzzzzzzz",
"..................................##fgeeeeeeeeegqwxzzzzzzzzzzzzz",
"..................................##fgeeeeeeeeegCwxzzzzzzzzzzzzz",
"..................................##fgeeeeeeeeegAwxzzzzzzzzzzzzz",
"..................................##fgeeeeeeeeegqwxzzzzzzzzzzzzz",
"..................................##fgeeeeeeeeegCExzzzzzzzzzzzzz",
"..................................##fgeeeeeeeeegvwxzzzzzzzzzzzzz",
"..................................##fgeeeeeeeeegqwxzzzzzzzzzzzzz",
"..................................##fgeeeeeeeeegCwxzzzzzzzzzzzzz",
"..................................##fgeeeeeeeeegvwxzzzzzzzzzzzzz",
"..................................##fDeeeeeeeeegqEFzzzzzzzzzzzzz",
"..................................##fgeeeeeeeeegqwxzzzzzzzzzzzzz",
"..................................##fgeeeeeeeeegvwxzzzzzzzzzzzzz",
"..................................##fgeeeeeeeeegvwxzzzzzzzzzzzzz",
"..................................##fDeeeeeeeeegqwxzzzzzzzzzzzzz",
"..................................##fgeeeeeeeeegCnxzzzzzzzzzzzzz",
"..................................##fDeeeeeeeeegvwxzzzzzzzzzzzzz",
"..................................##fgeeeeeeeeegCwxzzzzzzzzzzzzz",
"..................................##fgeeeeeeeeegCwGzzzzzzzzzzzzz",
"..................................##fDeeeeeeeeegCwxzzzzzzzzzzzzz",
"..................................##fgeeeeeeeeegvwxzzzzzzzzzzzzz",
"..................................##fgeeeeeeeeegvwxzzzzzzzzzzzzz",
"..................................##fgeeeeeeeeegCwxzzzzzzzzzzzzz",
"..................................##fgeeeeeeeeegCwxzzzzzzzzzzzzz",
"..................................##fDeeeeeeeeegvwGzzzzzzzzzzzzz",
"..................................##fgeeeeeeeeegvwGzzzzzzzzzzzzz",
"..................................##fgeeeeeeeeegvwxzzzzzzzzzzzzz",
"..................................##fgeeeeeeeeegvwxzzzzzzzzzzzzz",
"..................................##fgeeeeeeeeegvwGzzzzzzzzzzzzz",
"..................................##fgeeeeeeeeegCwGzzzzzzzzzzzzz",
"..................................##fgeeeeeeeeegCwGzzzzzzzzzzzzz",
"..................................##fgeeeeeeeeegCwGzzzzzzzzzzzzz",
"..................................##fDeeeeeeeeegCwxzzzzzzzzzzzzz",
"..................................##fgeeeeeeeeegvwxzzzzzzzzzzzzz",
"..................................##fDeeeeeeeeegvwGzzzzzzzzzzzzz",
"..................................##fgeeeeeeeeegvruzzzzzzzzzzzzz",
"..................................##fgeeeeeeeeegvwGzzzzzzzzzzzzz",
"..................................##fgeeeeeeeeegHwxzzzzzzzzzzzzz",
"..................................##fgeeeeeeeeegHrxzzzzzzzzzzzzz",
"..................................##fgeeeeeeeeedInFJJJJJJJJJJJJJ",
"..................................##bKgggggggggLMNoOOOOOOOOOOOOO",
"..................................###PPPPPPPPPPPQRRRRRRRRRRRRRRR",
"..................................##############################"};
