/* XPM */
static char *dummy[]={
"64 64 14 1",
"h c #000000",
"g c #161519",
". c #3c1518",
"f c #4e1526",
"l c #664143",
"d c #68413c",
"i c #6a4542",
"k c #6c453b",
"# c #6f3c43",
"e c #703b3c",
"c c #724143",
"j c #74403b",
"b c #764542",
"a c #7e514c",
"....#abbbbbbbbbbbbbbbbbbbbcdef.ghhhhhhhhhhhhhhhhhhhhhhhhhhhhhhhh",
"....iabbbbbbbbbbbbbbbbbbbbjdef.ghhhhhhhhhhhhhhhhhhhhhhhhhhhhhhhh",
"....iabbbbbbbbbbbbbbbbbbbbjdef.ghhhhhhhhhhhhhhhhhhhhhhhhhhhhhhhh",
"....iabbbbbbbbbbbbbbbbbbbbjdef.ghhhhhhhhhhhhhhhhhhhhhhhhhhhhhhhh",
"....#abbbbbbbbbbbbbbbbbbbbjdef.ghhhhhhhhhhhhhhhhhhhhhhhhhhhhhhhh",
"....iabbbbbbbbbbbbbbbbbbbbkdef.ghhhhhhhhhhhhhhhhhhhhhhhhhhhhhhhh",
"....iabbbbbbbbbbbbbbbbbbbbjdef.ghhhhhhhhhhhhhhhhhhhhhhhhhhhhhhhh",
"....iabbbbbbbbbbbbbbbbbbbbjdef.ghhhhhhhhhhhhhhhhhhhhhhhhhhhhhhhh",
"....#abbbbbbbbbbbbbbbbbbbbkdef.ghhhhhhhhhhhhhhhhhhhhhhhhhhhhhhhh",
"....iabbbbbbbbbbbbbbbbbbbbkdef.ghhhhhhhhhhhhhhhhhhhhhhhhhhhhhhhh",
"....iabbbbbbbbbbbbbbbbbbbbjdef.ghhhhhhhhhhhhhhhhhhhhhhhhhhhhhhhh",
"....#abbbbbbbbbbbbbbbbbbbbjdef.ghhhhhhhhhhhhhhhhhhhhhhhhhhhhhhhh",
"....iabbbbbbbbbbbbbbbbbbbbjdef.ghhhhhhhhhhhhhhhhhhhhhhhhhhhhhhhh",
"....iabbbbbbbbbbbbbbbbbbbbjdef.ghhhhhhhhhhhhhhhhhhhhhhhhhhhhhhhh",
"....#abbbbbbbbbbbbbbbbbbbbjdef.ghhhhhhhhhhhhhhhhhhhhhhhhhhhhhhhh",
"....iabbbbbbbbbbbbbbbbbbbbkdef.ghhhhhhhhhhhhhhhhhhhhhhhhhhhhhhhh",
"....#abbbbbbbbbbbbbbbbbbbbkdef.ghhhhhhhhhhhhhhhhhhhhhhhhhhhhhhhh",
"....iabbbbbbbbbbbbbbbbbbbbkdef.ghhhhhhhhhhhhhhhhhhhhhhhhhhhhhhhh",
"....#abbbbbbbbbbbbbbbbbbbbjdef.ghhhhhhhhhhhhhhhhhhhhhhhhhhhhhhhh",
"....iabbbbbbbbbbbbbbbbbbbbkdef.ghhhhhhhhhhhhhhhhhhhhhhhhhhhhhhhh",
"....iabbbbbbbbbbbbbbbbbbbbjdef.ghhhhhhhhhhhhhhhhhhhhhhhhhhhhhhhh",
"....#abbbbbbbbbbbbbbbbbbbbjdef.ghhhhhhhhhhhhhhhhhhhhhhhhhhhhhhhh",
"....#abbbbbbbbbbbbbbbbbbbbjdef.ghhhhhhhhhhhhhhhhhhhhhhhhhhhhhhhh",
"....#abbbbbbbbbbbbbbbbbbbbjdef.ghhhhhhhhhhhhhhhhhhhhhhhhhhhhhhhh",
"....#abbbbbbbbbbbbbbbbbbbbkdef.ghhhhhhhhhhhhhhhhhhhhhhhhhhhhhhhh",
"....#abbbbbbbbbbbbbbbbbbbbjdef.ghhhhhhhhhhhhhhhhhhhhhhhhhhhhhhhh",
"....#abbbbbbbbbbbbbbbbbbbbjdef.ghhhhhhhhhhhhhhhhhhhhhhhhhhhhhhhh",
"....#abbbbbbbbbbbbbbbbbbbbjdef.ghhhhhhhhhhhhhhhhhhhhhhhhhhhhhhhh",
"....#abbbbbbbbbbbbbbbbbbbbjdef.ghhhhhhhhhhhhhhhhhhhhhhhhhhhhhhhh",
"....#abbbbbbbbbbbbbbbbbbbbjdef.ghhhhhhhhhhhhhhhhhhhhhhhhhhhhhhhh",
"....labbbbbbbbbbbbbbbbbbbbjdef.ghhhhhhhhhhhhhhhhhhhhhhhhhhhhhhhh",
"....#abbbbbbbbbbbbbbbbbbbbjdef.ghhhhhhhhhhhhhhhhhhhhhhhhhhhhhhhh",
"....#abbbbbbbbbbbbbbbbbbbbjdef.ghhhhhhhhhhhhhhhhhhhhhhhhhhhhhhhh",
"....#abbbbbbbbbbbbbbbbbbbbjdef.ghhhhhhhhhhhhhhhhhhhhhhhhhhhhhhhh",
"....#abbbbbbbbbbbbbbbbbbbbjdef.ghhhhhhhhhhhhhhhhhhhhhhhhhhhhhhhh",
"....labbbbbbbbbbbbbbbbbbbbjdef.ghhhhhhhhhhhhhhhhhhhhhhhhhhhhhhhh",
"....labbbbbbbbbbbbbbbbbbbbjdef.ghhhhhhhhhhhhhhhhhhhhhhhhhhhhhhhh",
"....labbbbbbbbbbbbbbbbbbbbjdef.ghhhhhhhhhhhhhhhhhhhhhhhhhhhhhhhh",
"....#abbbbbbbbbbbbbbbbbbbbjdef.ghhhhhhhhhhhhhhhhhhhhhhhhhhhhhhhh",
"....labbbbbbbbbbbbbbbbbbbbjdef.ghhhhhhhhhhhhhhhhhhhhhhhhhhhhhhhh",
"....labbbbbbbbbbbbbbbbbbbbjdef.ghhhhhhhhhhhhhhhhhhhhhhhhhhhhhhhh",
"....labbbbbbbbbbbbbbbbbbbbjdef.ghhhhhhhhhhhhhhhhhhhhhhhhhhhhhhhh",
"....#abbbbbbbbbbbbbbbbbbbbjdef.ghhhhhhhhhhhhhhhhhhhhhhhhhhhhhhhh",
"....labbbbbbbbbbbbbbbbbbbbjdef.ghhhhhhhhhhhhhhhhhhhhhhhhhhhhhhhh",
"....labbbbbbbbbbbbbbbbbbbbjdef.ghhhhhhhhhhhhhhhhhhhhhhhhhhhhhhhh",
"....labbbbbbbbbbbbbbbbbbbbjdef.ghhhhhhhhhhhhhhhhhhhhhhhhhhhhhhhh",
"....#abbbbbbbbbbbbbbbbbbbbjdef.ghhhhhhhhhhhhhhhhhhhhhhhhhhhhhhhh",
"....labbbbbbbbbbbbbbbbbbbbjdef.ghhhhhhhhhhhhhhhhhhhhhhhhhhhhhhhh",
"....#abbbbbbbbbbbbbbbbbbbbjdef.ghhhhhhhhhhhhhhhhhhhhhhhhhhhhhhhh",
"....labbbbbbbbbbbbbbbbbbbbkdef.ghhhhhhhhhhhhhhhhhhhhhhhhhhhhhhhh",
"....labbbbbbbbbbbbbbbbbbbbkdef.ghhhhhhhhhhhhhhhhhhhhhhhhhhhhhhhh",
"....labbbbbbbbbbbbbbbbbbbbkdef.ghhhhhhhhhhhhhhhhhhhhhhhhhhhhhhhh",
"....labbbbbbbbbbbbbbbbbbbbkdef.ghhhhhhhhhhhhhhhhhhhhhhhhhhhhhhhh",
"....labbbbbbbbbbbbbbbbbbbbkdef.ghhhhhhhhhhhhhhhhhhhhhhhhhhhhhhhh",
"....labbbbbbbbbbbbbbbbbbbbkdef.ghhhhhhhhhhhhhhhhhhhhhhhhhhhhhhhh",
"....labbbbbbbbbbbbbbbbbbbbkdef.ghhhhhhhhhhhhhhhhhhhhhhhhhhhhhhhh",
"....#abbbbbbbbbbbbbbbbbbbbkdef.ghhhhhhhhhhhhhhhhhhhhhhhhhhhhhhhh",
"....labbbbbbbbbbbbbbbbbbbbkdef.ghhhhhhhhhhhhhhhhhhhhhhhhhhhhhhhh",
"....labbbbbbbbbbbbbbbbbbbbkdef.ghhhhhhhhhhhhhhhhhhhhhhhhhhhhhhhh",
"....labbbbbbbbbbbbbbbbbbbbkdef.ghhhhhhhhhhhhhhhhhhhhhhhhhhhhhhhh",
"....labbbbbbbbbbbbbbbbbbbbkdef.ghhhhhhhhhhhhhhhhhhhhhhhhhhhhhhhh",
"....labbbbbbbbbbbbbbbbbbbbkdef.ghhhhhhhhhhhhhhhhhhhhhhhhhhhhhhhh",
"....labbbbbbbbbbbbbbbbbbbbjdef.ghhhhhhhhhhhhhhhhhhhhhhhhhhhhhhhh",
"....labbbbbbbbbbbbbbbbbbbbkdef.ghhhhhhhhhhhhhhhhhhhhhhhhhhhhhhhh"};
