/* XPM */
static char *dummy[]={
"64 64 541 2",
".G c #000000",
"#g c #002100",
".5 c #002a16",
"aT c #0c3124",
".H c #161519",
"cD c #1c1500",
"aX c #1c372e",
".1 c #213723",
"#A c #222126",
"dz c #272117",
".o c #2a3c2d",
"gc c #2b0002",
"cP c #2b2a30",
".Y c #2e413d",
".9 c #2f2925",
"fd c #322915",
"dF c #323138",
"eD c #33001a",
".n c #35312f",
"#f c #354644",
"dt c #383023",
"bu c #38373f",
"g# c #38463c",
"eK c #391527",
".X c #3b3737",
"ds c #3c1518",
"aP c #3e2130",
"dS c #3e362e",
"bC c #3e4a43",
"#0 c #412126",
".O c #413c3e",
"#P c #433c36",
"cO c #452000",
"eE c #453c2c",
"#Z c #454144",
".8 c #46292f",
"bg c #47524e",
"cC c #482924",
"c0 c #48413d",
".C c #4a3037",
"cc c #4a4135",
"bw c #4a4649",
"eM c #4c302e",
"#. c #4c4543",
"bJ c #4c5552",
"d. c #4e3023",
"cq c #4e453c",
"#K c #4e4a4e",
"cN c #4e554d",
"ed c #503736",
"eV c #504534",
"bv c #504a49",
"cQ c #505857",
"f1 c #52362d",
"#1 c #524a42",
"dg c #524e53",
"bT c #543621",
".F c #543c3d",
"b8 c #54493b",
"ba c #544e4e",
"bS c #545c5b",
"aJ c #555c56",
"cZ c #563c35",
"ey c #56414a",
"c9 c #574d42",
"b# c #575153",
"da c #575f5f",
"al c #584143",
"aB c #59413c",
"db c #594d3a",
"ec c #59555c",
".B c #595f5b",
"bY c #5a2923",
"cl c #5b4134",
"aY c #5b4549",
"gp c #5b5147",
"aE c #5b5557",
"bU c #5c402b",
"dv c #5c5141",
"fs c #5c5552",
".D c #5d3745",
"du c #5d4543",
"fL c #5e363e",
"bW c #5e453c",
".f c #5e4a4e",
"bf c #5e585b",
"bV c #604533",
".l c #604a48",
"cX c #605857",
"dA c #606462",
"bX c #614942",
".u c #614e53",
"eG c #615540",
"bp c #615c5f",
"#O c #623c44",
"dy c #633c3d",
"cW c #63493b",
".i c #634e4d",
"c. c #63584c",
"#u c #635c5b",
"au c #636766",
"cL c #644d48",
"f0 c #645846",
"eJ c #645f63",
"ab c #654149",
"cJ c #664143",
"bN c #664d41",
".e c #665152",
"a1 c #665f5f",
"dG c #666a6a",
"e1 c #67514d",
"eW c #675b4b",
"aK c #676267",
"a7 c #676a66",
"bO c #68413c",
".m c #68454e",
"cx c #685b45",
"bP c #686a61",
"#x c #694549",
"bo c #695147",
".k c #695557",
"cd c #6a4542",
".2 c #6a4a53",
"dw c #6a656a",
"#S c #6a6c69",
"dR c #6b5e4b",
"cf c #6b6466",
".d c #6c4a4e",
"fz c #6c554c",
".c c #6d4948",
".j c #6d4e58",
"fR c #6d5446",
"fH c #6d6462",
"#V c #6d6f6c",
"fb c #6e5851",
"#C c #6e676a",
"bd c #6e7273",
".b c #6f4d53",
"ck c #6f584c",
".a c #704d4d",
"Qt c #715157",
".h c #715f63",
"bA c #716a6d",
"ay c #71716c",
".# c #725152",
"fM c #725b51",
"bM c #72644f",
".t c #726a69",
"bZ c #727473",
"eL c #735b4b",
"cp c #737679",
"ge c #74555b",
"be c #746266",
"cU c #746754",
"gA c #755557",
"fk c #765e50",
".v c #76646a",
"ce c #766c69",
"bG c #766f73",
"fa c #76797c",
"gy c #776159",
"aO c #776466",
"bx c #777879",
"gz c #785856",
"fl c #786155",
"cV c #786953",
"aU c #787875",
"gd c #795b63",
"bL c #79614f",
"ft c #796c5c",
"fE c #797173",
"df c #797b7c",
"fe c #7a6c58",
"ao c #7a7b78",
"gq c #7b5b5a",
"gx c #7c5b55",
"fK c #7c5e63",
"f8 c #7c6454",
"aM c #7c7476",
"#U c #7c7d7e",
"dh c #7d767c",
"c8 c #7e6758",
"dQ c #7e6e57",
"c1 c #7e7f81",
".W c #7e8580",
"g. c #7f6753",
"ap c #7f7f7e",
"f2 c #7f8786",
"fr c #80646a",
"fQ c #80695c",
"eb c #80715b",
"dE c #808184",
"gw c #816159",
"fN c #816958",
"f9 c #817157",
"#y c #818181",
"d1 c #82735f",
"e5 c #836c5c",
"dL c #83735b",
"#s c #838383",
"d2 c #847663",
"fO c #856f60",
"e. c #85765f",
"dr c #857d81",
"dc c #858586",
"gr c #866761",
"fF c #866a6d",
"cj c #866e5b",
"gv c #87675d",
"fG c #877d7b",
"eS c #878f8f",
"dP c #88715f",
".I c #888788",
"ea c #89715b",
"d4 c #897a66",
"fq c #897f7e",
"fj c #89898e",
"dB c #899092",
"fP c #8a7363",
"d9 c #8a7a62",
".g c #8a8184",
"cB c #8a908f",
"cy c #8b735f",
"e# c #8b7c6a",
"#e c #8b8988",
"fU c #8c735a",
"dN c #8c7c66",
"ai c #8c8b8b",
"a0 c #8c8b8d",
"b9 c #8d7663",
"dM c #8d7c62",
"d8 c #8d7e6d",
".A c #8d928f",
"eT c #8e755e",
"d3 c #8e7e69",
".w c #8e8d8d",
"d0 c #8f7866",
"fu c #8f7e65",
"fI c #8f8586",
"#B c #8f8f92",
"bn c #8f9491",
"gu c #907163",
"dO c #907862",
"d6 c #907a6e",
".3 c #908f8f",
"d5 c #917a6a",
"fW c #917f81",
"d7 c #918373",
"aN c #918e8d",
"#h c #919693",
"cK c #927a66",
".0 c #92898b",
"fh c #928e8a",
"#N c #929092",
"dI c #929798",
"dZ c #93826c",
"#H c #93908f",
".E c #939796",
"gg c #947c69",
"eU c #948268",
"fv c #94908c",
"dH c #949294",
"gs c #957667",
"dT c #957c66",
"dX c #957e70",
"dW c #95856f",
"dx c #959998",
"fm c #967e6d",
"dV c #96846c",
"fJ c #968b88",
"dD c #969b9c",
"gt c #97786a",
"dU c #977e69",
"eq c #97866f",
"eO c #978d8d",
"bH c #979b9a",
"eF c #98806c",
"dY c #988170",
"eZ c #98866b",
"f. c #988a7f",
"cM c #988e92",
"c2 c #989698",
"dJ c #989c9e",
"fS c #998069",
"ae c #999696",
"bF c #99979a",
"aW c #999c9a",
"fo c #9a8270",
"ak c #9a9e9e",
"e3 c #9b826c",
"bk c #9b9e9c",
"de c #9b9fa2",
"a4 c #9c999a",
"dd c #9c9fa0",
"em c #9d846f",
"eA c #9d8a6e",
"fp c #9d9b9f",
"bq c #9d9f9e",
"fA c #9e846c",
"ff c #9e8c71",
"a2 c #9ea1a0",
"co c #9ea1a2",
"el c #9f866f",
"go c #9f8c6e",
"dC c #9fa3a4",
"cz c #a09c9c",
"fT c #a18872",
"gh c #a18e71",
"bj c #a1a2a0",
"cb c #a1a4a6",
"e4 c #a2886e",
"fg c #a2927d",
".V c #a2a4a2",
"bm c #a2a4a4",
"fC c #a3826c",
"ep c #a38a72",
"cg c #a3a6a8",
"bt c #a3abab",
"aL c #a4a1a4",
"b0 c #a4a7aa",
"fn c #a58c75",
"eu c #a59174",
"e6 c #a5a5a1",
"cE c #a5a7a8",
"#3 c #a5adad",
"fc c #a68c71",
"eX c #a69377",
".7 c #a6a7a6",
"cR c #a6a9ac",
"dj c #a6adab",
"en c #a78e74",
"dq c #a79ea5",
".x c #a7a2a4",
"dK c #a7a4a8",
"cs c #a7a8aa",
"di c #a8aaac",
"eB c #a99077",
"gj c #a99576",
"aS c #a9aaa9",
"gi c #aa9074",
"gk c #aa917a",
"ek c #aa9679",
"cY c #aaa7ac",
"by c #aaabab",
"bR c #aaabad",
"e8 c #ab9177",
"f3 c #ab9fa0",
"eP c #ababa9",
"dk c #abadaf",
"gl c #ac987c",
".s c #aca7a8",
"aA c #acadad",
".z c #acb1ad",
"gf c #ad9376",
"eY c #ad937a",
"ez c #ad9a7f",
"fY c #adadab",
"#R c #adaeb1",
"fX c #adb2b0",
"e2 c #ae957d",
".6 c #aea8aa",
"cr c #aeaaad",
".p c #aeaead",
"eo c #af9579",
"#9 c #afb0b1",
"eC c #b0967c",
"dl c #b0b1b3",
"er c #b19679",
"eH c #b2987c",
"ej c #b2987f",
"gn c #b2aaa3",
"ei c #b2b2b4",
"eN c #b39a82",
".y c #b3aeb1",
"b6 c #b3b8b5",
"ev c #b49a7f",
"#v c #b4b4b4",
"fw c #b4b9b9",
"ee c #b59a7c",
"e9 c #b59b81",
"cm c #b5b4b2",
"bz c #b5b5b6",
"dm c #b5b5b8",
"a3 c #b5b9b7",
"eg c #b69b7e",
".U c #b6b5b4",
"aF c #b6bab9",
"ef c #b79d81",
"fB c #b79d84",
"gm c #b7a593",
".Z c #b7b1b2",
".M c #b7b6b7",
"#a c #b7bab7",
"cS c #b7bcbc",
"fx c #b8b1b0",
"b5 c #b8b8b9",
"dp c #b8b8bb",
".T c #b8bbb9",
"es c #b99f81",
"et c #b99f84",
"#b c #b9bdba",
"do c #b9bdbc",
".L c #bab9b9",
"cF c #bab9bb",
"ch c #bbbabc",
"#J c #bbbebc",
"#t c #bcb5b6",
"ag c #bcbabb",
"f7 c #bdb6b7",
"a. c #bdbbbc",
"aQ c #bdc0bf",
"dn c #bdc1c1",
"am c #bebdbe",
"c7 c #bebdc0",
"c# c #bfbdbc",
"ga c #c0bebe",
"#z c #c0bebf",
"d# c #c0bfc3",
"gb c #c1bfbf",
"#4 c #c1bfc1",
".N c #c1c3c1",
"eh c #c1c4c6",
"bB c #c2c4c2",
"f# c #c3bfba",
".4 c #c3c0c1",
"bK c #c3c5c5",
"ca c #c4c7c7",
"#5 c #c5c6c5",
"fZ c #c6c8c7",
"ct c #c7c4c6",
"aZ c #c7c9c8",
".S c #c8c5c5",
".r c #c8c9c7",
"#D c #c8caca",
".K c #c9c7c9",
"ac c #c9cac8",
"#i c #cacbca",
".q c #cbcccb",
"br c #cbd1cf",
"c3 c #cccdce",
"b. c #cdcdcd",
"as c #cecfce",
"eI c #ced3d2",
"b2 c #cfd0d0",
".R c #d0d0ce",
"fi c #d0d1d1",
"e0 c #d1d1cf",
"#T c #d1d2d2",
"#L c #d2d2d1",
"cn c #d2d6d5",
".Q c #d4d4d4",
"b1 c #d4d4d5",
".P c #d5d5d5",
"fD c #d5d5d7",
"#W c #d5d8d6",
"#Q c #d6d9d8",
"a# c #d7d3d5",
"bc c #d7d6d6",
"#d c #d7dad9",
"#w c #d8dbda",
"c6 c #d9d8d9",
"#2 c #dbdadc",
"a6 c #dbdddb",
"#M c #dcdad9",
"#8 c #dcdada",
"cG c #dcdcdd",
"a9 c #dcdfdd",
"#Y c #ddddde",
"af c #dde0de",
"fy c #dedcdd",
"aV c #dfdede",
"aI c #dfe2e1",
"#F c #e0dfde",
"bQ c #e0dfe0",
"#7 c #e1e0df",
"aq c #e1e3e1",
"#I c #e2e4e2",
"c5 c #e2e5e5",
"aC c #e3e5e3",
"fV c #e3e6e6",
"cA c #e3e8e5",
"#j c #e4e2e2",
"aD c #e4e5e4",
"#G c #e5e3e3",
"#r c #e5e6e6",
"f4 c #e6e4e3",
"cu c #e6e7e7",
"ci c #e7e8e8",
"b4 c #e8e9e9",
"bh c #eae7e8",
".J c #eaeae9",
"f6 c #ebe8e9",
"cw c #ebebea",
"a8 c #ececea",
"aw c #ececec",
"eR c #ecf0ee",
"#c c #ededed",
"ad c #edf1ef",
"aR c #eeeeed",
"bs c #eeeeee",
"bE c #eef2f0",
"f5 c #efebec",
"cH c #efefef",
"aa c #f0f4f3",
"b7 c #f1f1f0",
"eQ c #f2f2f0",
"bi c #f2f2f2",
"aH c #f3f3f3",
"#E c #f3f6f5",
"#p c #f4f4f4",
"e7 c #f4f6f4",
"ar c #f4f7f6",
"ex c #f5f4f5",
"av c #f5f8f7",
"bl c #f6f5f5",
"bb c #f6f8f6",
"ah c #f6f9f8",
"ax c #f7f6f6",
"at c #f7f9f7",
"#k c #f8f7f7",
"#X c #f8faf7",
"bI c #f8faf8",
"bD c #f9f8f8",
"c4 c #f9fbf9",
"aj c #faf9f9",
"cT c #fafcfa",
"cI c #fafcfc",
"a5 c #fbfaf9",
"cv c #fbfcfa",
"az c #fbfdfd",
"#o c #fcfbfa",
"## c #fcfdfb",
"b3 c #fcfefe",
"#6 c #fdfbfc",
"aG c #fdfefc",
"an c #fefbfa",
"#l c #fefcfd",
"#m c #fefffe",
"ew c #fffdfd",
"#n c #fffdfe",
"#q c #ffffff",
"QtQtQtQtQtQtQtQtQtQtQtQtQt.#.aQtQtQtQtQtQtQtQtQtQtQtQtQtQtQtQtQtQtQtQtQtQtQtQtQtQtQtQtQtQtQtQtQtQtQt.b.cQtQtQtQtQtQtQtQtQtQtQtQt",
".b.b.b.b.b.b.b.b.b.b.b.b.b.a.c.b.b.b.b.b.b.b.b.b.b.b.b.b.b.b.b.b.b.b.b.b.b.b.b.b.b.b.b.b.b.b.b.b.b.b.a.c.b.b.b.b.b.b.b.b.b.b.b.b",
".b.b.b.b.b.b.b.b.b.b.b.b.b.b.b.b.c.a.b.b.b.b.b.b.b.b.b.b.b.b.b.b.b.b.b.b.b.b.b.b.b.b.b.b.b.b.b.b.b.b.b.b.b.b.b.b.c.b.b.b.b.b.b.b",
"QtQtQtQtQtQtQtQtQtQtQtQtQtQtQtQt.d.bQtQtQtQtQtQtQtQtQtQtQtQtQtQtQtQtQtQtQtQtQtQtQtQtQtQtQtQtQtQtQtQtQtQtQtQtQtQt.cQtQtQtQtQtQtQt",
"QtQtQtQtQtQtQtQtQtQtQtQtQtQtQtQt.d.bQtQtQtQtQtQtQtQtQtQtQtQtQtQtQtQtQtQtQtQtQtQtQtQtQtQtQtQtQtQtQtQtQtQtQtQtQtQt.cQtQtQtQtQtQtQt",
"QtQtQtQtQtQtQtQtQtQtQtQtQtQtQtQt.d.bQtQtQtQtQtQtQtQtQtQtQtQtQtQtQtQtQtQtQtQtQtQtQtQtQtQtQtQtQtQtQtQtQtQtQtQtQtQt.cQtQtQtQtQtQtQt",
"QtQtQtQtQtQtQtQtQtQtQtQtQtQtQtQt.d.bQtQtQtQtQtQtQtQtQtQtQtQtQtQtQtQtQtQtQtQtQtQtQtQtQtQtQtQtQtQtQtQtQtQtQtQtQtQt.cQtQtQtQtQtQtQt",
"QtQtQtQtQtQtQtQtQtQtQtQtQtQtQtQt.d.bQtQtQtQtQtQtQtQtQtQtQtQtQtQtQtQtQtQtQtQtQtQtQtQtQtQtQtQtQtQtQtQtQtQtQtQtQtQt.cQtQtQtQtQtQtQt",
".a.a.a.a.a.a.a.a.a.a.a.a.a.a.a.a.c.d.a.a.a.a.a.a.a.a.a.a.a.a.a.a.a.a.a.a.a.a.a.a.a.a.a.a.a.a.a.a.a.a.a.a.a.a.a.a.c.a.a.a.a.a.a.a",
".#.#.#.#.#.c.#.#.#.#.#.#.#.#.#.#QtQt.#.#.#.#.#.#.#.#.#.#.#.#.#.#.#.#.#.#.d.b.#.#.#.#.#.#.#.#.#.#.#.#.#.#.#.#.#.#Qt.#.#.#.#.#.#.#",
"QtQtQtQtQt.cQtQtQtQtQtQtQtQtQtQtQtQtQtQtQtQtQtQtQtQtQtQtQtQtQtQtQtQtQtQt.d.bQtQtQtQtQtQtQtQtQtQtQtQtQtQtQtQtQtQtQtQtQtQtQtQtQtQt",
"QtQtQtQtQt.cQtQtQtQtQtQtQtQtQtQtQtQtQtQtQtQtQtQtQtQtQtQtQtQtQtQtQt.e.f.g.h.iQtQtQtQtQtQtQtQtQtQtQtQt.j.jQtQtQtQtQtQtQtQtQtQtQt.k",
"QtQtQtQtQt.cQtQtQtQtQtQtQtQtQtQtQtQtQt.l.mQtQtQtQtQtQtQtQtQtQtQtQt.n.o.p.q.r.s.t.iQtQtQt.b.u.v.w.x.y.z.A.B.C.D.jQtQtQtQtQtQt.u.E",
"QtQtQtQtQt.cQtQtQtQtQtQtQtQtQtQtQtQt.F.G.G.C.jQtQtQtQtQtQtQtQtQt.j.H.I.J.K.L.M.N.w.O.F.g.N.P.Q.R.S.T.U.V.W.X.Y.Z.0.1.mQt.2.3.R.4",
".b.b.b.b.b.c.b.b.b.b.b.b.b.b.b.b.b.d.5.6.7.G.8.e.b.b.b.b.b.b.b.b.b.9#.###a#b#c#d#e#f#g#h.p#i#j#k#l#m#n#l#o#p#p#q#r#s#t#u.w#v.U#w",
".b.b.b.b.b.b.b.b.b.b.b.b.b.b.b.b.b#x#y.4#q#z.G.C.a.bQtQtQtQtQtQtQt.8#A#r#B.G#C#D#o#E#F#G#n#q#q#q#q#q#q#q#q#q#q#q#q#q#q#v#H#I#J.X",
"QtQtQtQtQtQtQtQtQtQtQtQtQtQtQtQtQt.j#K#L#M#q#N.G#O.bQtQtQtQtQtQtQt#P.G#Q#R#B#S.H#T#q#q#q#q#q#q#q#q#q#q#q#q#q#q#q#q#q#q#q#q#i.X#U",
"QtQtQtQtQtQtQtQtQtQtQtQtQtQtQtQtQtQt.m#V#W#X#Y#Z#0.bQtQtQtQtQtQtQt#1.G#I#2#3#4#c#l#q#q#q#5.R#6#q#q#q#q#q#q#q#q#n.P#7#q#q#q#k#8#9",
"QtQtQtQtQtQtQtQtQtQtQtQtQtQtQtQtQtQtQt#Oa.a#aa#y.GabQtQtQtQtQtQtQt.i.Gac#qad.T#T#o#q#q#mae.Gaf#q#q#q#q#q#q#q#mag.G.p#q#q#q#q#qah",
"QtQtQtQtQtQtQtQtQtQtQtQtQtQtQtQtQtQtQtQtai#Lajak.GalQtQtQtQtQtQtQtQt.nam#qanao.Gapaq#q#qarasat#q#q#q#q#q#q#q#Eau.pav#q#q#q#6awax",
".d.d.d.d.d.d.d.d.d.d.d.d.d.c.a.a.a.a.a.aay.qazaA.GaB.b.b.b.b.b.b.d.F#AaC#q#qaDaE.G.naFax#q#q#q#q#q#q#q#q#q#qaGaH#q#q#q#maI.W.naJ",
"QtQtQtQtQtQtQtQtQtQtQtQtQt.dQtQtQtQtQt.baKamataL.GalQtQt.FaMaNaOaP.HaQ#q#q#q#qaRaSaT.GaUaV#q#q#q#q#q#q#q#q#q#q#q#q#qaRaW.5.GaXaS",
"QtQtQtQtQtQtQtQtQtQtQtQtQt.dQtQtQtQtQtaY#AaZawa0.G.fQtQt.ia1a2a3a4apa5#q#q#q#q#q#qa6a7.GaXaQ#q#q#q#ma8a9aR#q#q#q#qb.aE.GaT.7aD#m",
"QtQtQtQtQtQtQtQtQtQtQtQt.b.8#0aPaEb##Zbaa1bbbcbd.Gbebfbgb#.0aMbgb#a0bh#q#q#q#q#q#q#qbibj.G.G.4#q#6bkaE#gam#q#qblbm.G.Gbnaq#q#q#q",
"QtQtQtQtQtQtQtQtQtQtQtQtalbo.H.H.9.9bpbqbrbsbtbu.9#.#Kbvbwbxbybz#ybA#Y#q#q#q#q#q#q#q#q#qbB.GbCbDbEbFbGbHbI#q#q#b.GbJbK#m#q#q#q#q",
"QtQtQtQtQtQtQtQtQtQtQt.2bLbMbNbobObP.4#JbQbRbS.HbTbUbUbVbWbXbY#Z.5bZb0b1a5#q#q#q#q#q#q#q#qb2aF#ob3b4b5b6#q#q#qbi.Pb7#q#q#q#q#q#q",
".d.d.d.d.d.d.c.c.a.a.ab8b9bXboboc..Nc#cacbau.Gccbobobobobobocdce.XcfaLcgchciaG#q#q#q#q#q#q#q#q#q#q#q.Qag#q#q#q#q#q#q#q#q#q#q#q#q",
"QtQtQtQtQtQt.#.aQtQt.fcjckboboclbmcmcncocp.GccbobobobobobobobobWcq.GbZcrb0csctcucv#q#q#q#q#q#q#q#q#qcwaq#q#q#q#q#q#q#q#q#q#q#q#q",
"QtQtQtQtQtQt.#.aQtQtcxcybXbobo#PczcA#RcB.G#1bXbobobobobobobobobobNcCcD#Z#scEcscscFcGcHcI#q#q#q#q#q#q#q#q#q#q#q#q#q#q#q#q#q#q#q#q",
"QtQtQtQtQtQt.#.aQtcJcKcLbobobN.OcMcHcEb#cNbUbobobobobobobobobobobobocOcP.GcQa0b0cRcsbRcS.PawcT#q#q#q#q#q#q#q#q#q#q#q#q#q#q#q#qaG",
"QtQtQtQtQtQt.#.a.bcUcVcLbobocWcX#s#pcY.ObacWbobobobobobobobobobobocZc0.G#Z.9.G#Zc1c2cgcscEcsb5c3#2b4biarc4cI#nazcIc4ax#cc5c6#Dc7",
".#.#.#.#.#.#.#.aaBc8c9bobobobod..Gafd#da.nclbobobobobobobobobodb.8.G#Zdcdddedfba.G.Gdgdh#hdidjcEcgcsdkdldmcFdndodpdmdldicEb0dqdr",
".a.a.a.a.a.a.a#xdsdtdubXbXbWdvbW#Adw#ddxcD.nbWbWc9.ibXaBdydubWdz.GdAdBcbcgcgdCdDdEbpdF.G.GaXaEdG#U#edHdIbFdJdCdKcbcobF.3.IdG.8.G",
"QtQtQtQtQtQtQt#ObLdLdMdNdOdOb9dPcjdQdRdbdS.H.G.G.G.G.G.G.G.G.G.G.G.G.G.H.G.G.G.G.H.5.G.G.G.G.G.G.G.G.G.G.G.G#AcP.ndz.G.G.G.O.G.C",
"QtQtQtQtQtQtQt.ldNdMdTcKdUdVdWdXdYdZdNdNd0d1d2d0dNb9cKd3cKd4dNd3d5d6d7d8dPcyb9d9e.cyd1e.cycjd2e#eacjebdQcVbMdz.G.Gecbd#ydJdc.Ged",
"QtQtQtQtQtQtQt.ld9eeefefefefefefefefefefefefefefefefefefefefefefegegegegefefefefefefefefefefefegefefefefefefbX.G.Hdkeheib0dGdzcJ",
"QtQtQtQtQtQtQtc9d9ejefefefefefefefefefefefefefefefefefefekelemeneoenepemeqeleresetefefefefefefefeudLevefefefcc.G.Bewexdlak.Gey.c",
"QtQtQtQtQtQtQt.lb9ezefefefefefeAeBefefefefefefefefefeCdQ#0.G.G.GeD.G.G.G.G.GeEcjcVeFefefefefefefeGdzeHefefefccaX#v#qeIb0eJeK.b.c",
".a.a.a.a.a.a.abXdOeoefefefepd9eEeLefefefefefefefefeCdv.G.G.GdSdvbodvbWbWbWbWcWbNeMdteNefegdUevefdTdVefefefegeOePeQeRbReS.GaY.a.d",
"QtQtQtQtQtQtQtcLeTeoefefefeU.G.GeGefefefefefefefepdv.G#0eVbXeWcLbNcLbobobobobocWdt.9eCefeX.GcKefeYefeCb9epeZe0.q#qcadC.C.9.bQtQt",
"QtQtQtQtQtQtQte1e.eoefefefefb9boeAefefefefefenck.G.GdzdSdSdSdSdSdtdteMcZbXbocldt.Gdte2efegdLdTeU.Ge3e4.9e5e6c#e7c5cgda.G.iQtQtQt",
"QtQtQtQtQtQtQteWcje8efefefefefefefefefefe9cy.9dtcZ.H.G.GcDcDcDcDcD.HcD.G.HdtcD.G.Ge5efefefefefepbLeYefeHf.b6f#cTcFfa.G.FQtQtQtQt",
"QtQtQtQtQtQtQtfbc8fcesefefeHebeoefefefefen.GdtcqbobXaBbXcLcLcLcLduaBaB.H.G.G.GfdfeevefefenfeffefefefeffgaAfh#qfifj.G.8QtQtQtQtQt",
"QtQtQtQtQtQtQtfkflfmetfebMdN.Gd9efefefefdP.G.G.HdteMcZeVcZcceM.9dscD.G.G.G.GeWe8efefefegbXdtfnefbMdNfo.w.gc4.Jfp.9eD.kfqfr.m.Dfs",
".a.a.a.a.a.a.afkckftefcK.G.G.Gfkefefefefe3.G.G.G.G.G.G.G.G.G.G.G.G.G.G.GeVfuevefefefefefeXeCefeffk.G#.fve7cIfw#K.Gdy.afx#IfyaV#7",
".a.a.a.a.a.a.afzbWcWe3evepebbMfAesetetetfBdPccdz.G.G.G.G.G.G.G.G.HccbMe3eNetetetetetetetetetetetfC.Gc##q#qfDfE.GedfFfG.CfHfIfJfK",
"QtQtQtQtQtQtQtfL.HbNbofMfkflc8fNfOcyb9fPb9cycyfQfRdvb8b8b8dvckfke5dOcKdTfSemele3e3fAfAemelelelfTfUau.7#6fVcEdzfdQtfWcifXai#NfYfZ",
"QtQtQtQtQtQt.beMdtbXeGbNeGbof0ckfRbNdvb8cceEeEeEf1eEed#P#Pcccced#PeEeEeMdSeMeMeMeMeMdSeMeMeMeEeMbZasaectf2cQ.G.H.fQtf3f4f5f6aVf7",
"QtQtQtQtQtQtfkeGf8f9e.dLdLebfNg.dRdbeEfdcD.G.G.G.G.G.G.G.G.G.G.G.G.G.G.G.G.G.G.G.G.G.G.G.G.G.Gg#gaaib.gb.G.Ggc.G.9QtQtQtgdgeQtQt",
"QtQtQtQtQtQtd3eVeYeeeoeoeCe2gfe8fneldUggdTdUggfSfAe3fAemelfTghengieYeoeYgjgkeBgfeYeoe8gfereoekgleogmgneAeueYeBeEdzQtQtQtQtQtQtQt",
"QtQtQtQtQtQtcKdbendNdNb9ebf8bMckdbcZeEeEdScccxc8d9dUeZeZgoe8eYenepe3dPcVfNc8flc8dPd0dUe3eFe3e3e4fTdTdLe5bMckf8dt.H.jQtQtQtQtQtQt",
".c.d.d.d.d.dfOcce5eEeMdSeMeEaBbXbofzeLflfkcLcZdtdzdz.H.H.Hdzdz.9ds.H.HdzdzdtcccqclcZeM#0dzdz#0.9dzcD.G.HdzdtbXcCdz.d.d.d.d.d.d.d",
".a.b.b.b.b.bf0aBeBbobobobobocLcLcLcLbNbXcW.lgp.l.l.l.l.lbNbXeVededaBbNbobXeEdz.H.H.HdseEbXdueddSedaBdvbobobobodtdz.jQtQtQtQtQtQt",
".aQtQtQtQtQteEeVembNboboeMds.9.9dzdzds.9#0cCdtdsdz.9dtcCeEcZb8bXbXbNcLcLbobodvbWcqdS.8dS.FbWbXbNbXcLbXbWaBeEeEdz.H.jQtQtQtQtQtQt",
".aQtQtQtQtQtdseEfNcLbobobXaBcccZaBc9bNbNbNcLbNbXbWcZ.8#0dzdz.HcDcD.Hdzdzdsfddzdzdt#0.8dSeEdz.Hdz.9dS.9dzdzds.9dz.9.jQtQtQtQtQtQt",
".aQtQtQtQtQtdtdzeVededcZb8aBc9cqedf1cZeGbobXdvbXeV.Fb8cqcZcZdS#0#0dt.8dt#0#0dtdSedcccZcZedeEdSdSeMedeMeMeEcccc#P.9.bQtQtQtQtQtQt",
".aQtQtQtQtQted.G.G.G.G.G.G.G.G.G.G.G.G.G.G.G.G.G.G.G.G.G.G.G.G.G.G.G.G.G.G.G.G.G.G.G.G.G.G.G.G.G.G.G.G.G.G.G.G.HdS.bQtQtQtQtQtQt",
".a.#.#.#.#.#.#.#.#.#.#.#.#gqgrgsgtgtd0gugvgrgwgxgygqgzgAgA.#.#.#.#.#.#.a.dQtQtQtQtQtQtQtQtQtQt.#.#.#QtQtQtQtQtQtQtQtQtQtQtQtQtQt",
".c.c.c.c.c.c.c.c.c.c.c.c.c.c.c.c.c.c.c.c.c.c.c.c.c.c.c.c.c.c.c.c.c.c.c.c.c.d.d.d.d.d.d.d.d.d.d.d.d.d.d.c.d.d.d.d.d.d.d.d.d.d.d.d",
"QtQtQtQtQtQtQtQtQtQtQtQtQt.#.aQtQtQtQtQtQtQtQtQtQtQtQtQtQtQtQtQtQtQtQtQtQtQtQtQtQtQtQtQtQtQtQtQtQtQt.b.cQtQtQtQtQtQtQtQtQtQtQtQt",
"QtQtQtQtQtQtQtQtQtQtQtQtQt.#.aQtQtQtQtQtQtQtQtQtQtQtQtQtQtQtQtQtQtQtQtQtQtQtQtQtQtQtQtQtQtQtQtQtQtQt.b.cQtQtQtQtQtQtQtQtQtQtQtQt",
"QtQtQtQtQtQtQtQtQtQtQtQtQt.#.aQtQtQtQtQtQtQtQtQtQtQtQtQtQtQtQtQtQtQtQtQtQtQtQtQtQtQtQtQtQtQtQtQtQtQt.b.cQtQtQtQtQtQtQtQtQtQtQtQt",
"QtQtQtQtQtQtQtQtQtQtQtQtQt.#.aQtQtQtQtQtQtQtQtQtQtQtQtQtQtQtQtQtQtQtQtQtQtQtQtQtQtQtQtQtQtQtQtQtQtQt.b.cQtQtQtQtQtQtQtQtQtQtQtQt",
"QtQtQtQtQtQtQtQtQtQtQtQtQt.#.aQtQtQtQtQtQtQtQtQtQtQtQtQtQtQtQtQtQtQtQtQtQtQtQtQtQtQtQtQtQtQtQtQtQtQt.b.cQtQtQtQtQtQtQtQtQtQtQtQt"};
