/* XPM */
static char *dummy[]={
"64 64 492 2",
".G c #000000",
"#g c #002100",
".5 c #002a16",
"aT c #0c3124",
".H c #161519",
"cD c #1c1500",
"aX c #1c372e",
".1 c #213723",
"#A c #222126",
"dy c #272117",
".o c #2a3c2d",
"cP c #2b2a30",
".Y c #2e413d",
".9 c #2f2925",
"e9 c #322915",
"dE c #323138",
"eG c #33001a",
".n c #35312f",
"#f c #354644",
"ds c #383023",
"bu c #38373f",
"dT c #391527",
".X c #3b3737",
"dr c #3c1518",
"aP c #3e2130",
"dS c #3e362e",
"bC c #3e4a43",
"#0 c #412126",
".O c #413c3e",
"#P c #433c36",
"ey c #434e48",
"cO c #452000",
"eH c #453c2c",
"#Z c #454144",
".8 c #46292f",
"bg c #47524e",
"cC c #482924",
"eY c #48313f",
"c0 c #48413d",
".C c #4a3037",
"cc c #4a4135",
"bw c #4a4649",
"eN c #4c302e",
"#. c #4c4543",
"bJ c #4c5552",
"d. c #4e3023",
"cq c #4e453c",
"#K c #4e4a4e",
"cN c #4e554d",
"eQ c #503736",
"eP c #504534",
"bv c #504a49",
"cQ c #505857",
"fs c #52362d",
"#1 c #524a42",
"dg c #524e53",
"bT c #543621",
".F c #543c3d",
"b8 c #54493b",
"ba c #544e4e",
"bS c #545c5b",
"aJ c #555c56",
"cZ c #563c35",
"c9 c #574d42",
"b# c #575153",
"da c #575f5f",
"al c #584143",
"aB c #59413c",
"db c #594d3a",
".B c #595f5b",
"bY c #5a2923",
"cl c #5b4134",
"aY c #5b4549",
"fE c #5b5147",
"aE c #5b5557",
"bU c #5c402b",
"du c #5c5141",
".D c #5d3745",
"dt c #5d4543",
"fj c #5e363e",
"bW c #5e453c",
".f c #5e4a4e",
"bf c #5e585b",
"bV c #604533",
".l c #604a48",
"cX c #605857",
"dz c #606462",
"bX c #614942",
".u c #614e53",
"eJ c #615540",
"bp c #615c5f",
"#O c #623c44",
"dx c #633c3d",
"cW c #63493b",
".i c #634e4d",
"c. c #63584c",
"#u c #635c5b",
"au c #636766",
"cL c #644d48",
"fr c #645846",
"ab c #654149",
"cJ c #664143",
"bN c #664d41",
".e c #665152",
"a1 c #665f5f",
"dF c #666a6a",
"eZ c #67514d",
"eU c #675b4b",
"aK c #676267",
"a7 c #676a66",
"ed c #67746f",
"bO c #68413c",
".m c #68454e",
"cx c #685b45",
"bP c #686a61",
"#x c #694549",
"bo c #695147",
".k c #695557",
"cd c #6a4542",
".2 c #6a4a53",
"dv c #6a656a",
"#S c #6a6c69",
"dR c #6b5e4b",
"cf c #6b6466",
".d c #6c4a4e",
"fg c #6c554c",
".c c #6d4948",
".j c #6d4e58",
"fp c #6d5446",
"#V c #6d6f6c",
"e7 c #6e5851",
"#C c #6e676a",
"bd c #6e7273",
".b c #6f4d53",
"ck c #6f584c",
"eR c #6f7170",
".a c #704d4d",
"Qt c #715157",
".h c #715f63",
"bA c #716a6d",
"ay c #71716c",
"ee c #717476",
".# c #725152",
"fk c #725b51",
"bM c #72644f",
".t c #726a69",
"bZ c #727473",
"eM c #735b4b",
"cp c #737679",
"be c #746266",
"cU c #746754",
"fP c #755557",
"fa c #765e50",
".v c #76646a",
"ce c #766c69",
"bG c #766f73",
"fN c #776159",
"aO c #776466",
"bx c #777879",
"fO c #785856",
"fb c #786155",
"cV c #786953",
"aU c #787875",
"bL c #79614f",
"fe c #796c5c",
"df c #797b7c",
"f. c #7a6c58",
"ao c #7a7b78",
"fF c #7b5b5a",
"fM c #7c5b55",
"ft c #7c6454",
"aM c #7c7476",
"#U c #7c7d7e",
"eL c #7c8586",
"dh c #7d767c",
"c8 c #7e6758",
"dQ c #7e6e57",
"ef c #7e7679",
"c1 c #7e7f81",
".W c #7e8580",
"fv c #7f6753",
"ap c #7f7f7e",
"fo c #80695c",
"ec c #80715b",
"dD c #808184",
"fL c #816159",
"fl c #816958",
"fu c #817157",
"#y c #818181",
"d2 c #82735f",
"e6 c #836c5c",
"dL c #83735b",
"#s c #838383",
"d3 c #847663",
"fm c #856f60",
"e# c #85765f",
"dq c #857d81",
"dc c #858586",
"fG c #866761",
"cj c #866e5b",
"fK c #87675d",
"dP c #88715f",
"e3 c #88785e",
".I c #888788",
"eb c #89715b",
"d5 c #897a66",
"dA c #899092",
"fn c #8a7363",
"e. c #8a7a62",
".g c #8a8184",
"ez c #8a898b",
"cB c #8a908f",
"cy c #8b735f",
"ea c #8b7c6a",
"#e c #8b8988",
"dN c #8c7c66",
"ai c #8c8b8b",
"a0 c #8c8b8d",
"b9 c #8d7663",
"dM c #8d7c62",
"d9 c #8d7e6d",
".A c #8d928f",
"eS c #8e755e",
"d4 c #8e7e69",
"dK c #8e8589",
".w c #8e8d8d",
"d1 c #8f7866",
"ff c #8f7e65",
"#B c #8f8f92",
"bn c #8f9491",
"fJ c #907163",
"dO c #907862",
"d7 c #907a6e",
".3 c #908f8f",
"d6 c #917a6a",
"d8 c #918373",
"aN c #918e8d",
"#h c #919693",
"cK c #927a66",
".0 c #92898b",
"#N c #929092",
"dH c #929798",
"d0 c #93826c",
"#H c #93908f",
".E c #939796",
"fx c #947c69",
"eT c #948268",
"dG c #949294",
"fH c #957667",
"dU c #957c66",
"dY c #957e70",
"dX c #95856f",
"dw c #959998",
"fc c #967e6d",
"dW c #96846c",
"dC c #969b9c",
"fI c #97786a",
"dV c #977e69",
"es c #97866f",
"bH c #979b9a",
"eI c #98806c",
"dZ c #988170",
"fC c #98866b",
"cM c #988e92",
"c2 c #989698",
"dI c #989c9e",
"fq c #998069",
"ae c #999696",
"bF c #99979a",
"aW c #999c9a",
"ak c #9a9e9e",
"e1 c #9b826c",
"bk c #9b9e9c",
"de c #9b9fa2",
"a4 c #9c999a",
"dd c #9c9fa0",
"eo c #9d846f",
"eD c #9d8a6e",
"bq c #9d9f9e",
"fh c #9e846c",
"f# c #9e8c71",
"a2 c #9ea1a0",
"co c #9ea1a2",
"en c #9f866f",
"fD c #9f8c6e",
"dB c #9fa3a4",
"cz c #a09c9c",
"eX c #a18872",
"fy c #a18e71",
"bj c #a1a2a0",
"cb c #a1a4a6",
"e2 c #a2886e",
".V c #a2a4a2",
"bm c #a2a4a4",
"er c #a38a72",
"cg c #a3a6a8",
"bt c #a3abab",
"aL c #a4a1a4",
"b0 c #a4a7aa",
"fd c #a58c75",
"ew c #a59174",
"cE c #a5a7a8",
"#3 c #a5adad",
"e8 c #a68c71",
"eV c #a69377",
".7 c #a6a7a6",
"cR c #a6a9ac",
"dj c #a6adab",
"ep c #a78e74",
".x c #a7a2a4",
"dJ c #a7a4a8",
"cs c #a7a8aa",
"di c #a8aaac",
"eE c #a99077",
"fA c #a99576",
"aS c #a9aaa9",
"fz c #aa9074",
"fB c #aa917a",
"em c #aa9679",
"cY c #aaa7ac",
"by c #aaabab",
"bR c #aaabad",
"e4 c #ab9177",
"dk c #abadaf",
".s c #aca7a8",
"aA c #acadad",
".z c #acb1ad",
"fw c #ad9376",
"eW c #ad937a",
"eC c #ad9a7f",
"#R c #adaeb1",
"e0 c #ae957d",
".6 c #aea8aa",
"cr c #aeaaad",
".p c #aeaead",
"eq c #af9579",
"#9 c #afb0b1",
"eF c #b0967c",
"dl c #b0b1b3",
"et c #b19679",
"eK c #b2987c",
"el c #b2987f",
"eO c #b39a82",
".y c #b3aeb1",
"b6 c #b3b8b5",
"ex c #b49a7f",
"#v c #b4b4b4",
"eg c #b59a7c",
"e5 c #b59b81",
"cm c #b5b4b2",
"bz c #b5b5b6",
"dm c #b5b5b8",
"a3 c #b5b9b7",
"ei c #b69b7e",
".U c #b6b5b4",
"aF c #b6bab9",
"eh c #b79d81",
"fi c #b79d84",
".Z c #b7b1b2",
".M c #b7b6b7",
"#a c #b7bab7",
"cS c #b7bcbc",
"b5 c #b8b8b9",
"dp c #b8b8bb",
".T c #b8bbb9",
"eu c #b99f81",
"ev c #b99f84",
"#b c #b9bdba",
"do c #b9bdbc",
".L c #bab9b9",
"cF c #bab9bb",
"ch c #bbbabc",
"#J c #bbbebc",
"#t c #bcb5b6",
"ag c #bcbabb",
"ej c #bcbcbe",
"a. c #bdbbbc",
"aQ c #bdc0bf",
"dn c #bdc1c1",
"am c #bebdbe",
"c7 c #bebdc0",
"c# c #bfbdbc",
"#z c #c0bebf",
"d# c #c0bfc3",
"#4 c #c1bfc1",
".N c #c1c3c1",
"bB c #c2c4c2",
".4 c #c3c0c1",
"bK c #c3c5c5",
"ca c #c4c7c7",
"#5 c #c5c6c5",
"ct c #c7c4c6",
"aZ c #c7c9c8",
".S c #c8c5c5",
".r c #c8c9c7",
"#D c #c8caca",
".K c #c9c7c9",
"ac c #c9cac8",
"#i c #cacbca",
".q c #cbcccb",
"br c #cbd1cf",
"c3 c #cccdce",
"b. c #cdcdcd",
"as c #cecfce",
"b2 c #cfd0d0",
".R c #d0d0ce",
"#T c #d1d2d2",
"#L c #d2d2d1",
"cn c #d2d6d5",
".Q c #d4d4d4",
"b1 c #d4d4d5",
".P c #d5d5d5",
"eA c #d5d5d7",
"#W c #d5d8d6",
"#Q c #d6d9d8",
"a# c #d7d3d5",
"bc c #d7d6d6",
"#d c #d7dad9",
"#w c #d8dbda",
"c6 c #d9d8d9",
"#2 c #dbdadc",
"a6 c #dbdddb",
"#M c #dcdad9",
"#8 c #dcdada",
"cG c #dcdcdd",
"a9 c #dcdfdd",
"#Y c #ddddde",
"af c #dde0de",
"aV c #dfdede",
"aI c #dfe2e1",
"#F c #e0dfde",
"bQ c #e0dfe0",
"#7 c #e1e0df",
"aq c #e1e3e1",
"#I c #e2e4e2",
"c5 c #e2e5e5",
"aC c #e3e5e3",
"cA c #e3e8e5",
"#j c #e4e2e2",
"aD c #e4e5e4",
"#G c #e5e3e3",
"#r c #e5e6e6",
"cu c #e6e7e7",
"ek c #e7e7e5",
"ci c #e7e8e8",
"b4 c #e8e9e9",
"bh c #eae7e8",
".J c #eaeae9",
"cw c #ebebea",
"eB c #ebefed",
"a8 c #ececea",
"aw c #ececec",
"#c c #ededed",
"ad c #edf1ef",
"aR c #eeeeed",
"bs c #eeeeee",
"bE c #eef2f0",
"cH c #efefef",
"aa c #f0f4f3",
"b7 c #f1f1f0",
"bi c #f2f2f2",
"aH c #f3f3f3",
"#E c #f3f6f5",
"#p c #f4f4f4",
"ar c #f4f7f6",
"av c #f5f8f7",
"bl c #f6f5f5",
"bb c #f6f8f6",
"ah c #f6f9f8",
"ax c #f7f6f6",
"at c #f7f9f7",
"#k c #f8f7f7",
"#X c #f8faf7",
"bI c #f8faf8",
"bD c #f9f8f8",
"c4 c #f9fbf9",
"aj c #faf9f9",
"cT c #fafcfa",
"cI c #fafcfc",
"a5 c #fbfaf9",
"cv c #fbfcfa",
"az c #fbfdfd",
"#o c #fcfbfa",
"## c #fcfdfb",
"b3 c #fcfefe",
"#6 c #fdfbfc",
"aG c #fdfefc",
"an c #fefbfa",
"#l c #fefcfd",
"#m c #fefffe",
"#n c #fffdfe",
"#q c #ffffff",
"QtQtQtQtQtQtQtQtQtQtQtQtQt.#.aQtQtQtQtQtQtQtQtQtQtQtQtQtQtQtQtQtQtQtQtQtQtQtQtQtQtQtQtQtQtQtQtQtQtQt.b.cQtQtQtQtQtQtQtQtQtQtQtQt",
".b.b.b.b.b.b.b.b.b.b.b.b.b.a.c.b.b.b.b.b.b.b.b.b.b.b.b.b.b.b.b.b.b.b.b.b.b.b.b.b.b.b.b.b.b.b.b.b.b.b.a.c.b.b.b.b.b.b.b.b.b.b.b.b",
".b.b.b.b.b.b.b.b.b.b.b.b.b.b.b.b.c.a.b.b.b.b.b.b.b.b.b.b.b.b.b.b.b.b.b.b.b.b.b.b.b.b.b.b.b.b.b.b.b.b.b.b.b.b.b.b.c.b.b.b.b.b.b.b",
"QtQtQtQtQtQtQtQtQtQtQtQtQtQtQtQt.d.bQtQtQtQtQtQtQtQtQtQtQtQtQtQtQtQtQtQtQtQtQtQtQtQtQtQtQtQtQtQtQtQtQtQtQtQtQtQt.cQtQtQtQtQtQtQt",
"QtQtQtQtQtQtQtQtQtQtQtQtQtQtQtQt.d.bQtQtQtQtQtQtQtQtQtQtQtQtQtQtQtQtQtQtQtQtQtQtQtQtQtQtQtQtQtQtQtQtQtQtQtQtQtQt.cQtQtQtQtQtQtQt",
"QtQtQtQtQtQtQtQtQtQtQtQtQtQtQtQt.d.bQtQtQtQtQtQtQtQtQtQtQtQtQtQtQtQtQtQtQtQtQtQtQtQtQtQtQtQtQtQtQtQtQtQtQtQtQtQt.cQtQtQtQtQtQtQt",
"QtQtQtQtQtQtQtQtQtQtQtQtQtQtQtQt.d.bQtQtQtQtQtQtQtQtQtQtQtQtQtQtQtQtQtQtQtQtQtQtQtQtQtQtQtQtQtQtQtQtQtQtQtQtQtQt.cQtQtQtQtQtQtQt",
"QtQtQtQtQtQtQtQtQtQtQtQtQtQtQtQt.d.bQtQtQtQtQtQtQtQtQtQtQtQtQtQtQtQtQtQtQtQtQtQtQtQtQtQtQtQtQtQtQtQtQtQtQtQtQtQt.cQtQtQtQtQtQtQt",
".a.a.a.a.a.a.a.a.a.a.a.a.a.a.a.a.c.d.a.a.a.a.a.a.a.a.a.a.a.a.a.a.a.a.a.a.a.a.a.a.a.a.a.a.a.a.a.a.a.a.a.a.a.a.a.a.c.a.a.a.a.a.a.a",
".#.#.#.#.#.c.#.#.#.#.#.#.#.#.#.#QtQt.#.#.#.#.#.#.#.#.#.#.#.#.#.#.#.#.#.#.d.b.#.#.#.#.#.#.#.#.#.#.#.#.#.#.#.#.#.#Qt.#.#.#.#.#.#.#",
"QtQtQtQtQt.cQtQtQtQtQtQtQtQtQtQtQtQtQtQtQtQtQtQtQtQtQtQtQtQtQtQtQtQtQtQt.d.bQtQtQtQtQtQtQtQtQtQtQtQtQtQtQtQtQtQtQtQtQtQtQtQtQtQt",
"QtQtQtQtQt.cQtQtQtQtQtQtQtQtQtQtQtQtQtQtQtQtQtQtQtQtQtQtQtQtQtQtQt.e.f.g.h.iQtQtQtQtQtQtQtQtQtQtQtQt.j.jQtQtQtQtQtQtQtQtQtQtQt.k",
"QtQtQtQtQt.cQtQtQtQtQtQtQtQtQtQtQtQtQt.l.mQtQtQtQtQtQtQtQtQtQtQtQt.n.o.p.q.r.s.t.iQtQtQt.b.u.v.w.x.y.z.A.B.C.D.jQtQtQtQtQtQt.u.E",
"QtQtQtQtQt.cQtQtQtQtQtQtQtQtQtQtQtQt.F.G.G.C.jQtQtQtQtQtQtQtQtQt.j.H.I.J.K.L.M.N.w.O.F.g.N.P.Q.R.S.T.U.V.W.X.Y.Z.0.1.mQt.2.3.R.4",
".b.b.b.b.b.c.b.b.b.b.b.b.b.b.b.b.b.d.5.6.7.G.8.e.b.b.b.b.b.b.b.b.b.9#.###a#b#c#d#e#f#g#h.p#i#j#k#l#m#n#l#o#p#p#q#r#s#t#u.w#v.U#w",
".b.b.b.b.b.b.b.b.b.b.b.b.b.b.b.b.b#x#y.4#q#z.G.C.a.bQtQtQtQtQtQtQt.8#A#r#B.G#C#D#o#E#F#G#n#q#q#q#q#q#q#q#q#q#q#q#q#q#q#v#H#I#J.X",
"QtQtQtQtQtQtQtQtQtQtQtQtQtQtQtQtQt.j#K#L#M#q#N.G#O.bQtQtQtQtQtQtQt#P.G#Q#R#B#S.H#T#q#q#q#q#q#q#q#q#q#q#q#q#q#q#q#q#q#q#q#q#i.X#U",
"QtQtQtQtQtQtQtQtQtQtQtQtQtQtQtQtQtQt.m#V#W#X#Y#Z#0.bQtQtQtQtQtQtQt#1.G#I#2#3#4#c#l#q#q#q#5.R#6#q#q#q#q#q#q#q#q#n.P#7#q#q#q#k#8#9",
"QtQtQtQtQtQtQtQtQtQtQtQtQtQtQtQtQtQtQt#Oa.a#aa#y.GabQtQtQtQtQtQtQt.i.Gac#qad.T#T#o#q#q#mae.Gaf#q#q#q#q#q#q#q#mag.G.p#q#q#q#q#qah",
"QtQtQtQtQtQtQtQtQtQtQtQtQtQtQtQtQtQtQtQtai#Lajak.GalQtQtQtQtQtQtQtQt.nam#qanao.Gapaq#q#qarasat#q#q#q#q#q#q#q#Eau.pav#q#q#q#6awax",
".d.d.d.d.d.d.d.d.d.d.d.d.d.c.a.a.a.a.a.aay.qazaA.GaB.b.b.b.b.b.b.d.F#AaC#q#qaDaE.G.naFax#q#q#q#q#q#q#q#q#q#qaGaH#q#q#q#maI.W.naJ",
"QtQtQtQtQtQtQtQtQtQtQtQtQt.dQtQtQtQtQt.baKamataL.GalQtQt.FaMaNaOaP.HaQ#q#q#q#qaRaSaT.GaUaV#q#q#q#q#q#q#q#q#q#q#q#q#qaRaW.5.GaXaS",
"QtQtQtQtQtQtQtQtQtQtQtQtQt.dQtQtQtQtQtaY#AaZawa0.G.fQtQt.ia1a2a3a4apa5#q#q#q#q#q#qa6a7.GaXaQ#q#q#q#ma8a9aR#q#q#q#qb.aE.GaT.7aD#m",
"QtQtQtQtQtQtQtQtQtQtQtQt.b.8#0aPaEb##Zbaa1bbbcbd.Gbebfbgb#.0aMbgb#a0bh#q#q#q#q#q#q#qbibj.G.G.4#q#6bkaE#gam#q#qblbm.G.Gbnaq#q#q#q",
"QtQtQtQtQtQtQtQtQtQtQtQtalbo.H.H.9.9bpbqbrbsbtbu.9#.#Kbvbwbxbybz#ybA#Y#q#q#q#q#q#q#q#q#qbB.GbCbDbEbFbGbHbI#q#q#b.GbJbK#m#q#q#q#q",
"QtQtQtQtQtQtQtQtQtQtQt.2bLbMbNbobObP.4#JbQbRbS.HbTbUbUbVbWbXbY#Z.5bZb0b1a5#q#q#q#q#q#q#q#qb2aF#ob3b4b5b6#q#q#qbi.Pb7#q#q#q#q#q#q",
".d.d.d.d.d.d.c.c.a.a.ab8b9bXboboc..Nc#cacbau.Gccbobobobobobocdce.XcfaLcgchciaG#q#q#q#q#q#q#q#q#q#q#q.Qag#q#q#q#q#q#q#q#q#q#q#q#q",
"QtQtQtQtQtQt.#.aQtQt.fcjckboboclbmcmcncocp.GccbobobobobobobobobWcq.GbZcrb0csctcucv#q#q#q#q#q#q#q#q#qcwaq#q#q#q#q#q#q#q#q#q#q#q#q",
"QtQtQtQtQtQt.#.aQtQtcxcybXbobo#PczcA#RcB.G#1bXbobobobobobobobobobNcCcD#Z#scEcscscFcGcHcI#q#q#q#q#q#q#q#q#q#q#q#q#q#q#q#q#q#q#q#q",
"QtQtQtQtQtQt.#.aQtcJcKcLbobobN.OcMcHcEb#cNbUbobobobobobobobobobobobocOcP.GcQa0b0cRcsbRcS.PawcT#q#q#q#q#q#q#q#q#q#q#q#q#q#q#q#qaG",
"QtQtQtQtQtQt.#.a.bcUcVcLbobocWcX#s#pcY.ObacWbobobobobobobobobobobocZc0.G#Z.9.G#Zc1c2cgcscEcsb5c3#2b4biarc4cI#nazcIc4ax#cc5c6#Dc7",
".#.#.#.#.#.#.#.aaBc8c9bobobobod..Gafd#da.nclbobobobobobobobobodb.8.G#Zdcdddedfba.G.Gdgdh#hdidjcEcgcsdkdldmcFdndodpdmdldicEb0aLdq",
".a.a.a.a.a.a.a#xdrdsdtbXbXbWdubW#Adv#ddwcD.nbWbWc9.ibXaBdxdtbWdy.GdzdAcbcgcgdBdCdDbpdE.G.GaXaEdF#U#edGdHbFdIdBdJcbcobF.3dKa7ds.G",
"QtQtQtQtQtQtQt#ObLdLdMdNdOdOb9dPcjdQdRdbdS.H.G.G.G.G.G.G.G.G.G.G.G.G.G.H.G.G.G.G.H.5.G.G.G.G.G.G.G.G.G.G.G.GdTcP.9.H.G.G.G.G.Gdy",
"QtQtQtQtQtQtQt.ldNdMdUcKdVdWdXdYdZd0dNdNd1d2d3d1dNb9cKd4cKd5dNd4d6d7d8d9dPcyb9e.e#cyd2e#cycjd3eaebcjecdQcVbMdydrauedeec1dGakef#g",
"QtQtQtQtQtQtQt.le.egeheheheheheheheheheheheheheheheheheheheheheheieieieieheheheheheheheheheheheiehehehehehehb8dFdibRdiejb4#q#qek",
"QtQtQtQtQtQtQtc9e.elehehehehehehehehehehehehehehehehehehemeneoepeqepereoeseneteuevehehehehehehehewdLexehehehcc.H.OeyezcbcheAeB##",
"QtQtQtQtQtQtQt.lb9eCeheheheheheDeEeheheheheheheheheheFdQ#0.G.G.GeG.G.G.G.G.GeHcjcVeIeheheheheheheJdyeKehehehcc.GcP#A.G.HcQeLcoch",
".a.a.a.a.a.a.abXdOeqehehehere.eHeMeheheheheheheheheFdu.G.G.GdSdubodubWbWbWbWcWbNeNdseOeheidVexehdUdWeheheheheP#0.a.dcJeQcP.G#AeR",
"QtQtQtQtQtQtQtcLeSeqeheheheT.G.GeJeheheheheheheherdu.G#0ePbXeUcLbNcLbobobobobocWds.9eFeheV.GcKeheWeheFb9eXehcq.nQtQtQtQt.jabeY.G",
"QtQtQtQtQtQtQteZe#eqehehehehb9boeDehehehehehepck.G.GdydSdSdSdSdSdsdseNcZbXboclds.Gdse0eheidLdUeT.Ge1e2.9e3ehb8dSQtQtQtQtQtQtQt.i",
"QtQtQtQtQtQtQteUcje4ehehehehehehehehehehe5cy.9dscZ.H.G.GcDcDcDcDcD.HcD.G.HdscD.G.Ge6eheheheheherbLeWeheFeiehdb#PQtQtQtQtQtQtQtQt",
"QtQtQtQtQtQtQte7c8e8eueheheKeceqehehehehep.GdscqbobXaBbXcLcLcLcLdtaBaB.H.G.G.Ge9f.exehehepf.f#ehehehehehehehb8eHQtQtQtQtQtQtQtQt",
"QtQtQtQtQtQtQtfafbfcevf.bMdN.Ge.ehehehehdP.G.G.HdseNcZePcZcceN.9drcD.G.G.G.GeUe4eheheheibXdsfdehfadNehehehehb8eNQtQtQtQtQtQtQtQt",
".a.a.a.a.a.a.afackfeehcK.G.G.Gfaehehehehe1.G.G.G.G.G.G.G.G.G.G.G.G.G.G.GePffexeheheheheheVeFehehdRbWehehehehb8eN.a.a.a.a.a.a.a.a",
".a.a.a.a.a.a.afgbWcWe1exerecbMfheuevevevfidPccdy.G.G.G.G.G.G.G.G.HccbMe1eOeveveveveveveveveveveveFeEevevevevb8eH.a.a.a.a.a.a.a.a",
"QtQtQtQtQtQtQtfj.HbNbofkfafbc8flfmcyb9fnb9cycyfofpdub8b8b8duckfae6dOcKdUfqeoene1e1fhfheoeneneneXeXe2ene1dUe1cc.8QtQtQtQtQtQtQtQt",
"QtQtQtQtQtQt.beNdsbXeJbNeJbofrckfpbNdub8cceHeHeHfseHeQ#P#PcccceQ#PeHeHeNdSeNeNeNeNeNdSeNeNeNeNeNeNeNeNeHeNdS.H.H.fQtQtQtQtQtQtQt",
"QtQtQtQtQtQtfaeJftfue#dLdLecflfvdRdbeHe9cD.G.G.G.G.G.G.G.G.G.G.G.G.G.G.G.G.G.G.G.G.G.G.G.G.G.G.G.G.G.G.G.G.G.G.G.9QtQtQtQtQtQtQt",
"QtQtQtQtQtQtd4ePeWegeqeqeFe0fwe4fdendVfxdUdVfxfqfhe1fheoeneXfyepfzeWeqeWfAfBeEfweWeqe4fweteqememeqeqeteKeFeqeEeHdyQtQtQtQtQtQtQt",
"QtQtQtQtQtQtcKdbepdNdNb9ecftbMckdbcZeHeHdScccxc8e.dVfCfCfDe4eWepere1dPcVflc8fbc8dPd1dVe1eIe1e1e2eXdUebdQfackftds.H.jQtQtQtQtQtQt",
".c.d.d.d.d.dfmcce6eHeNdSeNeHaBbXbofgeMfbfacLcZdsdydy.H.H.Hdydy.9dr.H.HdydydscccqclcZeN#0dydy#0.9dycD.G.HdydsbXcCdy.d.d.d.d.d.d.d",
".a.b.b.b.b.bfraBeEbobobobobocLcLcLcLbNbXcW.lfE.l.l.l.l.lbNbXePeQeQaBbNbobXeHdy.H.H.HdreHbXdteQdSeQaBdubobobobodsdy.jQtQtQtQtQtQt",
".aQtQtQtQtQteHePeobNboboeNdr.9.9dydydr.9#0cCdsdrdy.9dscCeHcZb8bXbXbNcLcLbobodubWcqdS.8dS.FbWbXbNbXcLbXbWaBeHeHdy.H.jQtQtQtQtQtQt",
".aQtQtQtQtQtdreHflcLbobobXaBcccZaBc9bNbNbNcLbNbXbWcZ.8#0dydy.HcDcD.Hdydydre9dydyds#0.8dSeHdy.Hdy.9dS.9dydydr.9dy.9.jQtQtQtQtQtQt",
".aQtQtQtQtQtdsdyePeQeQcZb8aBc9cqeQfscZeJbobXdubXeP.Fb8cqcZcZdS#0#0ds.8ds#0#0dsdSeQcccZcZeQeHdSdSeNeQeNeNeHcccc#P.9.bQtQtQtQtQtQt",
".aQtQtQtQtQteQ.G.G.G.G.G.G.G.G.G.G.G.G.G.G.G.G.G.G.G.G.G.G.G.G.G.G.G.G.G.G.G.G.G.G.G.G.G.G.G.G.G.G.G.G.G.G.G.G.HdS.bQtQtQtQtQtQt",
".a.#.#.#.#.#.#.#.#.#.#.#.#fFfGfHfIfId1fJfKfGfLfMfNfFfOfPfP.#.#.#.#.#.#.a.dQtQtQtQtQtQtQtQtQtQt.#.#.#QtQtQtQtQtQtQtQtQtQtQtQtQtQt",
".c.c.c.c.c.c.c.c.c.c.c.c.c.c.c.c.c.c.c.c.c.c.c.c.c.c.c.c.c.c.c.c.c.c.c.c.c.d.d.d.d.d.d.d.d.d.d.d.d.d.d.c.d.d.d.d.d.d.d.d.d.d.d.d",
"QtQtQtQtQtQtQtQtQtQtQtQtQt.#.aQtQtQtQtQtQtQtQtQtQtQtQtQtQtQtQtQtQtQtQtQtQtQtQtQtQtQtQtQtQtQtQtQtQtQt.b.cQtQtQtQtQtQtQtQtQtQtQtQt",
"QtQtQtQtQtQtQtQtQtQtQtQtQt.#.aQtQtQtQtQtQtQtQtQtQtQtQtQtQtQtQtQtQtQtQtQtQtQtQtQtQtQtQtQtQtQtQtQtQtQt.b.cQtQtQtQtQtQtQtQtQtQtQtQt",
"QtQtQtQtQtQtQtQtQtQtQtQtQt.#.aQtQtQtQtQtQtQtQtQtQtQtQtQtQtQtQtQtQtQtQtQtQtQtQtQtQtQtQtQtQtQtQtQtQtQt.b.cQtQtQtQtQtQtQtQtQtQtQtQt",
"QtQtQtQtQtQtQtQtQtQtQtQtQt.#.aQtQtQtQtQtQtQtQtQtQtQtQtQtQtQtQtQtQtQtQtQtQtQtQtQtQtQtQtQtQtQtQtQtQtQt.b.cQtQtQtQtQtQtQtQtQtQtQtQt",
"QtQtQtQtQtQtQtQtQtQtQtQtQt.#.aQtQtQtQtQtQtQtQtQtQtQtQtQtQtQtQtQtQtQtQtQtQtQtQtQtQtQtQtQtQtQtQtQtQtQt.b.cQtQtQtQtQtQtQtQtQtQtQtQt"};
