/* XPM */
static char *dummy[]={
"64 64 573 2",
".m c #000000",
".Q c #002100",
"b2 c #002a16",
"#l c #153013",
".l c #161519",
"cK c #1c1500",
"em c #213723",
".n c #222126",
"aK c #272117",
".q c #2a3c2d",
"gt c #2b0002",
"g6 c #2b2000",
"dz c #2b2a30",
".S c #2f2925",
"c4 c #314135",
"gh c #322915",
"a3 c #323138",
"ex c #33001a",
".p c #35312f",
"g5 c #360000",
"fZ c #383023",
"ey c #38373f",
"dQ c #391527",
"cu c #3b3012",
"#. c #3b3737",
"dP c #3c1518",
"b0 c #3e2130",
"ch c #3e362e",
"fY c #403622",
"b1 c #412126",
"#m c #413c3e",
"a1 c #432a38",
"ad c #433c36",
"by c #434e48",
"c1 c #453c2c",
"at c #454144",
".k c #46292f",
"fX c #482924",
"as c #48413d",
"bb c #4a3037",
"fN c #4a4135",
"dk c #4a4649",
"dy c #4c302e",
".G c #4c4543",
"bF c #4c5552",
"f3 c #4e3023",
"aL c #4e373e",
"bf c #4e453c",
"ez c #4e4a4e",
"d1 c #503736",
"fW c #504534",
"cO c #504a49",
"fB c #52362d",
".g c #523c44",
"e4 c #524a42",
".f c #543c3d",
"cL c #54493b",
"bP c #544e4e",
"fM c #554933",
"e3 c #563c35",
"cy c #574d42",
"a. c #575153",
".j c #584143",
"d2 c #59413c",
"gE c #594d3a",
"dm c #595f5b",
"en c #5b3037",
"e2 c #5b4134",
".R c #5b4549",
"#t c #5b5557",
"cw c #5c5141",
"#b c #5c5552",
"bE c #5c625f",
"a2 c #5d3745",
"d0 c #5d4543",
"dl c #5e453c",
".H c #5e4a4e",
"eW c #5e554d",
"a# c #5e585b",
"eA c #5e6566",
"d9 c #604533",
"#Q c #604a48",
"ep c #605547",
"cn c #606462",
"cv c #614942",
"bt c #614e53",
"e1 c #615540",
"cz c #615851",
"aR c #615c5f",
"gr c #63493b",
".o c #634e4d",
"eV c #63584c",
"el c #635c5b",
"ai c #636766",
"c3 c #644d48",
"af c #645157",
"eM c #645846",
"ew c #645f63",
"ah c #646a6d",
".h c #654149",
"gA c #65583f",
"cx c #664d41",
".i c #665152",
"ct c #665f5f",
"cN c #67514d",
"eT c #675b4b",
"bx c #676a66",
".9 c #67746f",
".e c #68454e",
"fL c #685b45",
"be c #694549",
"cM c #695147",
"eX c #695e55",
"ci c #696d6d",
"c2 c #6a4542",
"ae c #6a4a53",
"eo c #6a5552",
"eS c #6a5e50",
"dR c #6a656a",
"e8 c #6b5e4b",
"e5 c #6b615a",
"cg c #6b6466",
"#T c #6b6f70",
".d c #6c4a4e",
"eU c #6c554c",
"db c #6c585b",
".c c #6d4948",
".I c #6d4e58",
"f1 c #6d5446",
".0 c #6d6462",
"gB c #6e5851",
"e0 c #6e6150",
".b c #6f4d53",
"d3 c #6f584c",
"gF c #6f614a",
"eY c #6f6459",
"c0 c #6f6766",
"bD c #6f7170",
".a c #704d4d",
"Qt c #715157",
"d8 c #715846",
"eZ c #715b56",
"bZ c #715f63",
"ac c #716a6d",
".# c #725152",
"d5 c #725b51",
"#c c #725e5e",
"eJ c #72644f",
".P c #727473",
"d7 c #735b4b",
"gu c #74514d",
".w c #74555b",
"eL c #746754",
"aQ c #747676",
"bc c #755557",
"g3 c #755e55",
".v c #756c6d",
"d4 c #765e50",
"gi c #76674e",
"bd c #77585b",
"gK c #775e4a",
".J c #776466",
"eP c #776958",
".F c #776f70",
".r c #777879",
"gL c #786155",
"bq c #78676d",
"gR c #786953",
"e6 c #786c61",
"d6 c #795851",
".x c #795b63",
"gI c #79614f",
"bW c #796769",
"gP c #79694e",
"e7 c #796c5c",
"cs c #797b7c",
"eO c #7a6c58",
"eH c #7a6f64",
"eR c #7b6459",
"eN c #7b6c53",
"eG c #7b716f",
"gQ c #7c5b55",
"gM c #7c6454",
"dS c #7c7d7e",
"gJ c #7d644f",
"eQ c #7d675d",
"g0 c #7d6f5c",
"aW c #7d7d7b",
"eF c #7d7f84",
"go c #7e5e5a",
"eI c #7e6758",
"f# c #7e6e57",
"#R c #7e7679",
"#6 c #7e8580",
"f6 c #7f6753",
"#J c #7f7676",
"ao c #7f797f",
"bC c #7f7f7e",
"cP c #7f8786",
"gm c #80615e",
"ev c #80695c",
"gk c #80715b",
"cJ c #80787c",
"da c #808184",
"eq c #816958",
"bs c #817879",
"fD c #82735f",
"ek c #82817e",
"eB c #828386",
"cY c #828985",
"gN c #836c5c",
"fV c #83735b",
"gf c #84645d",
"gv c #846c57",
"ea c #848589",
"fK c #856f60",
"fU c #85765f",
"cX c #858d8d",
"eK c #866761",
"fP c #866e5b",
"#I c #867d7e",
"f2 c #877863",
"er c #88715f",
"fJ c #887164",
"bY c #887679",
"ga c #88785e",
"eb c #888f8d",
"gO c #89715b",
"g2 c #89785a",
"es c #8a7363",
"gw c #8a7a62",
"cG c #8a898b",
"eu c #8b735f",
".1 c #8b8988",
"e. c #8b8b90",
"cZ c #8b908d",
"eD c #8b9294",
"f4 c #8c6c60",
".y c #8c7b7e",
"ft c #8c7c66",
".u c #8c8b8b",
"eC c #8c8b8d",
".Z c #8c9292",
"et c #8d7663",
"fC c #8d7667",
"dO c #8d8d90",
"bX c #8e7479",
"f9 c #8e755e",
"#U c #8e8d8d",
"c5 c #8e9494",
"e9 c #8f7866",
"fs c #8f7e65",
"#K c #8f8586",
".8 c #8f9491",
"f. c #907862",
"gZ c #907e61",
"cc c #908788",
"bI c #908f8f",
"dA c #909696",
"fu c #918069",
"## c #918e8d",
"b. c #919693",
"gp c #927a66",
"gg c #928065",
"aV c #929092",
"cm c #929798",
"#s c #929c97",
"gx c #937a62",
"ax c #939296",
"#u c #939796",
"gb c #947c69",
"fT c #948268",
"fr c #957c66",
"cd c #958d92",
"cr c #959998",
"g1 c #967c61",
"f8 c #96846c",
"#H c #968d8f",
"#M c #969496",
"ap c #969b9c",
"fq c #977e69",
"#P c #979494",
"g4 c #98806c",
"f5 c #98866b",
".K c #988e92",
"ej c #989491",
".s c #989a98",
"eE c #989c9e",
"f0 c #998069",
".T c #999696",
"cA c #99979a",
"#o c #999c9a",
"fv c #9a8270",
"ge c #9a886f",
"#d c #9a9091",
"fp c #9b826c",
"fw c #9b8a75",
"#7 c #9b9e9c",
"gG c #9c8a72",
"br c #9c9294",
"#a c #9d9998",
"ec c #9d9b9f",
"aH c #9d9ca5",
"cI c #9d9f9e",
"e# c #9da1a4",
"gy c #9e846c",
".t c #9e9b9a",
"cp c #9ea1a0",
"gV c #9f866f",
"dT c #9f9ca1",
"eg c #9fa3a4",
"bL c #a09c9c",
"ed c #a0a2a2",
"aw c #a0a4a8",
"gd c #a18872",
"gn c #a18e71",
"eh c #a19fa7",
"dB c #a1a4a6",
"fo c #a2886e",
"gj c #a29074",
"gU c #a29077",
"fx c #a2927d",
"ei c #a29e9e",
".Y c #a2a4a2",
"cq c #a2a4a4",
"dj c #a2aaaa",
"fS c #a38a72",
".E c #a39fa0",
"ef c #a3a1a6",
"ee c #a3a5a6",
"dn c #a3a6a8",
"dV c #a3a7ac",
"#9 c #a3aaa5",
"gX c #a48a6e",
"gY c #a48c78",
"fl c #a49177",
"ce c #a4a1a4",
"a8 c #a4a5a4",
"dx c #a4a7aa",
"fQ c #a58c75",
"gl c #a59174",
"co c #a5a1a2",
"dp c #a5a7a8",
"gW c #a68c71",
"g# c #a69377",
"dU c #a6a2a6",
"do c #a6a9ac",
"aJ c #a6ada9",
"c7 c #a6adab",
"fA c #a78e74",
"fO c #a78e78",
"gT c #a79373",
".z c #a7a2a2",
"ag c #a7a8a8",
"c6 c #a7a8aa",
"dN c #a7aaae",
"aa c #a7aead",
"cf c #a8a8a5",
".7 c #a8aaac",
"fm c #a99077",
"g. c #a99576",
"fy c #a9977c",
"an c #a9aaa9",
"gq c #aa9074",
"fk c #aa917a",
"dW c #aaabab",
"d# c #aaabad",
"dc c #aab1b3",
"fn c #ab9177",
".X c #aba7aa",
"#k c #aca7a8",
"dC c #aca9ae",
"bl c #acadad",
"dX c #acb2b2",
"gS c #ad9376",
"fh c #ad937a",
"fb c #ad9a7f",
"a7 c #adaeaf",
"dM c #adaeb1",
"fj c #ae957d",
"bJ c #aeaead",
"dZ c #aeb0b3",
"fg c #af9579",
"gs c #b09576",
"fe c #b0967c",
"fc c #b0977f",
"gz c #b09b7b",
"#p c #b0abad",
".N c #b0b0af",
"ay c #b0b5b4",
"fa c #b19679",
"dw c #b1b2b6",
"gD c #b29676",
"fi c #b2987c",
"fd c #b2987f",
"bK c #b2adaf",
"aG c #b2b2b4",
"bu c #b2b6b4",
"ff c #b3937d",
"gC c #b39879",
"gH c #b39a82",
"fz c #b49a7f",
"fR c #b49f7e",
"#v c #b4b4b4",
".A c #b4b8b4",
"di c #b4b9b9",
"gc c #b59a7c",
"fF c #b59b81",
".W c #b5afb1",
"#S c #b5b0b3",
".O c #b5b4b2",
"cj c #b5b5b6",
"dY c #b5b5b8",
"bQ c #b5b9b7",
"fH c #b69b7e",
"cH c #b6b1b4",
"b3 c #b6bab9",
"fE c #b79d81",
"b9 c #b7b6b6",
"dq c #b7b6b7",
".L c #b7bab7",
"f7 c #b89d7e",
"cQ c #b8b8bb",
"b6 c #b8bbb9",
"fG c #b99f81",
"fI c #b99f84",
".6 c #b9b8b7",
"dL c #b9bdbc",
"aI c #bab9bb",
"c8 c #bbbabc",
"bw c #bbbebc",
"#X c #bbbfbf",
"#Y c #bcb5b6",
"#L c #bcbab9",
"dD c #bcbcbe",
"cE c #bdbbbc",
"a4 c #bdbfbc",
".V c #bdc0bf",
"bT c #bebdbe",
".M c #bfbdbc",
".B c #bfc2bf",
"bO c #bfc2c1",
"#N c #c0bac0",
".D c #c0bebe",
"d. c #c0c3c2",
".5 c #c1bfbf",
"a9 c #c1c3c1",
"ck c #c2c0c3",
"#h c #c2c4c2",
"#e c #c3c0c1",
"bN c #c4c2c2",
"av c #c4c7c7",
"#g c #c5c2c1",
"aM c #c5c6c4",
"au c #c5c6c5",
"dv c #c5c8c9",
"#r c #c5cbc8",
"bU c #c6c8c7",
".C c #c8caca",
"dK c #c8cacc",
"aZ c #c9c2c6",
"dE c #c9c7c9",
"bz c #c9cac8",
"dh c #c9cfcd",
"bj c #cac6c7",
"cB c #cac8ca",
"bB c #cacbcb",
"#8 c #cbc8c8",
"aN c #ccc9cc",
"c9 c #cccdce",
".4 c #cdcdcd",
"#f c #cdd2cf",
"#w c #cecaca",
"bi c #cecfce",
"aq c #cfd0d0",
"aP c #cfd4d4",
"b4 c #d0cccd",
"bh c #d0d1d1",
"dd c #d0d5d5",
"#5 c #d1cdce",
"bn c #d1d1cf",
"aO c #d1d2d2",
"bm c #d1d5d2",
".U c #d2d6d3",
"aF c #d2d6d5",
".2 c #d4d4d4",
"#q c #d4d7d5",
"ar c #d5d1d2",
"cR c #d5d5d7",
".3 c #d5d9d9",
"cD c #d6d5d3",
"bo c #d7d6d6",
"bg c #d7dad9",
"#n c #d8d3d4",
"dr c #d8d7d8",
"bH c #dadcda",
"#Z c #dddbdc",
"dF c #ddddde",
"#V c #dedcdb",
"aS c #dedcdd",
"c. c #dee1df",
"aB c #dfdede",
"bk c #e0dfde",
"#i c #e0e3e2",
"#E c #e1e0df",
"a6 c #e1e0e1",
"b7 c #e1e3e1",
"aj c #e1e4e3",
"#x c #e2e1e1",
"#D c #e3e5e3",
"dJ c #e3e6e6",
"c# c #e4e2e2",
"aX c #e5e3e3",
"cb c #e5e6e6",
"a0 c #e6e1e4",
"#G c #e6e6e4",
"ab c #e6e7e7",
"b# c #e6ebeb",
"cW c #e8e6e7",
"bR c #e8ece9",
"dI c #e8ecea",
"dg c #e9e6e7",
"aU c #eaeae9",
"cC c #eaebec",
"de c #eaeeed",
"#y c #ebebea",
"dG c #ebefed",
"#C c #ececec",
"dH c #ecedee",
"#B c #ededed",
"cl c #edf0ed",
"az c #edf1ef",
"#A c #eeeeed",
"#z c #eeeeee",
"bG c #efefef",
"bM c #f0f0ef",
"#F c #f1edee",
"#O c #f1f1f0",
"aD c #f2f1ef",
"am c #f2f2f2",
"du c #f3f3f3",
"aA c #f3f6f5",
"#4 c #f4f7f6",
"#W c #f5f4f4",
"bV c #f5f4f5",
"b8 c #f5f7f5",
"b5 c #f6f8f5",
"bv c #f7f6f6",
"aE c #f7f9f7",
"#3 c #f8f7f7",
"aC c #f8faf8",
"cF c #f9f7f6",
"al c #f9fbf9",
"cV c #faf5f6",
"df c #fafbf9",
"#0 c #fafcfa",
"bA c #fafcfc",
"bS c #fbfaf9",
"a5 c #fbfdfd",
"ca c #fcfbfa",
"#j c #fcfefe",
"ds c #fcfffd",
"ak c #fdfbfc",
"aY c #fdfefc",
"ba c #fefffc",
"#2 c #fefffe",
"cU c #feffff",
"cT c #fffcfb",
"bp c #fffdfd",
"aT c #fffdfe",
"dt c #fffefe",
"cS c #fffeff",
"#1 c #ffffff",
"QtQtQtQtQtQtQtQtQtQtQtQtQt.#.aQtQtQtQtQtQtQtQtQtQtQtQtQtQtQtQtQtQtQtQtQtQtQtQtQtQtQtQtQtQtQtQtQtQtQt.b.cQtQtQtQtQtQtQtQtQtQtQtQt",
".b.b.b.b.b.b.b.b.b.b.b.b.b.a.c.b.b.b.b.b.b.b.b.b.b.b.b.b.b.b.b.b.b.b.b.b.b.b.b.b.b.b.b.b.b.b.b.b.b.b.a.c.b.b.b.b.b.b.b.b.b.b.b.b",
".b.b.b.b.b.b.b.b.b.b.b.b.b.b.b.b.c.a.b.b.b.b.b.b.b.b.b.b.b.b.b.b.b.b.b.b.b.b.b.b.b.b.b.b.b.b.b.b.b.b.b.b.b.b.b.b.c.b.b.b.b.b.b.b",
"QtQtQtQtQtQtQtQtQtQtQtQtQtQtQtQt.d.bQtQtQtQtQtQtQtQtQtQtQtQtQtQtQtQtQtQtQtQtQtQtQtQtQtQtQtQtQtQtQtQtQtQtQtQtQtQt.cQtQtQtQtQtQtQt",
"QtQtQtQtQtQtQtQtQtQtQtQtQtQtQtQt.d.bQtQtQtQtQtQtQtQtQtQtQtQtQtQtQtQtQtQtQtQtQtQtQtQtQtQtQtQtQtQtQtQtQtQtQtQtQtQt.cQtQtQtQtQtQtQt",
"QtQtQtQtQtQtQtQtQtQtQtQtQtQtQtQt.d.bQtQtQtQtQtQtQtQtQtQtQtQtQtQtQtQtQtQtQtQtQtQtQtQtQtQtQtQtQtQtQtQtQtQtQtQtQtQt.cQtQtQtQtQtQtQt",
"QtQtQtQtQtQtQtQtQtQtQtQtQtQtQtQt.d.bQtQtQtQtQtQtQtQtQtQtQtQtQtQtQtQtQtQtQtQtQtQtQtQtQtQtQtQtQtQtQtQtQtQtQtQtQtQt.cQtQtQtQtQtQtQt",
"QtQtQtQtQtQtQtQtQtQtQtQtQtQtQtQt.d.bQtQtQtQtQtQtQtQtQtQtQtQtQtQtQtQtQtQtQtQtQtQtQtQtQtQtQtQtQtQtQtQtQtQtQtQtQtQt.cQtQtQtQtQtQtQt",
".a.a.a.a.a.a.a.a.a.a.a.a.a.a.a.a.c.d.a.a.a.a.a.a.a.a.a.a.a.a.a.a.a.a.a.a.a.a.a.a.a.a.a.a.a.a.a.a.a.a.a.a.a.a.a.a.c.a.a.a.a.a.a.a",
".#.#.#.#.#.c.#.#.#.#.#.#.#.#.#.#QtQt.#.#.#.#.#.#.#.#.#.#.#.#.#.#.#.#.#.#.d.b.#.#.#.#.#.#.#.#.#.#.#.#.#.#.#.#.#.#Qt.#.#.#.#.#.#.#",
"QtQtQtQtQt.cQtQtQtQtQtQtQtQtQtQtQtQtQtQtQtQtQtQtQtQtQtQtQtQtQtQtQtQtQtQt.d.bQtQtQtQtQtQtQtQtQtQtQtQtQtQtQtQtQtQtQtQtQtQtQtQtQtQt",
"QtQtQtQtQt.cQtQtQtQtQtQtQtQtQtQtQtQtQtQtQtQt.e.f.g.h.d.bQtQtQtQtQtQtQtQt.d.d.b.i.i.bQtQtQtQtQtQtQtQtQtQtQt.d.j.k.l.m.n.eQtQtQtQt",
"QtQtQtQtQt.cQtQtQtQtQtQtQtQtQtQtQtQtQtQtQt.o.p.q.r.s.t.u.v.wQtQt.w.x.y.z.A.B.C.D.E.F.G.HQt.w.I.IQtQt.w.J.K.L.M.N.O.P.Q.RQtQtQtQt",
"QtQtQtQtQt.cQtQtQtQtQtQtQtQtQtQtQtQtQtQtQt.R.S.T.U.V.W.X.Y.Z.0.H.1.V.2.3.4.5.6.7.8.9#..G###a#b.R.I#c#d#e#f#g#h#i#j#k#l.hQtQtQtQt",
".b.b.b.b.b.c.b.b.b.b.b.b.b.b.b.b.b.b.b.b.b.R#m#k#n#o#p#q#r#s#t#.#u#v.O#w#x#y#z#A#B#C#D#E#F#G#H#I#J#K.B.6#L#v#M#N#O#P#..h.b.b.b.b",
".b.b.b.b.b.b.b.b.b.b.b.b.b.b.b.b.b.b.b.b.b#Q#.#R#S#T#m#U#V#W#E#X#Y#Z#0#1#1#1#1#1#1#1#1#1#1#2#3#4#5#6#7#8#9a.a#aaabacad.e.b.b.b.b",
"QtQtQtQtQtQtQtQtQtQtQtQtQtQtQtQtQtQtQtQtQtae.paf.Magah#maiaj#1#1#1#1#1#1#1#1#1#1#1#1#1#1#1#1#1#1akalaman#taoapaqar.kas.bQtQtQtQt",
"QtQtQtQtQtQtQtQtQtQtQtQtQtQtQtQtQtQtQtQtQt.b.katauavawaxayaz#1#1aA#qaBaC#1#1#1#1#1#1#1#1#2aDabaE#1#1#3aFaGaHaI#CaJaK.jQtQtQtQtQt",
"QtQtQtQtQtQtQtQtQtQtQtQtQtQtQtQtQtQtQtQtQtQtaL.paM#CaNaOaA#1#1#1aPaQaRaS#1#1#1#1#1#1#1aTaUaVaWaX#1#1#1aYaSaZa0#F.Pa1.oQtQtQtQtQt",
"QtQtQtQtQtQtQtQtQtQtQtQtQtQtQtQtQtQtQtQtQtQta2a3a4#1a5aT#1#1#1#1a6a7a8#i#1#1#1#1#1#1#1ala9a#b.b##1#1#1#1baak#1.4bb.j.IQtQtQtQtQt",
".d.d.d.d.d.d.d.d.d.d.d.d.d.c.a.a.abcbd.a.abebf#t.2#1#1#2#Cbgbhbibj#5bk#4#1#1#1#1#1#1#1#0bgbl.V#qbmbnbo#Cbp#1#1.5.G.j.d.d.d.d.d.d",
"QtQtQtQtQtQtQtQtQtQtQtQtQt.dQtQtQtbqbr#dbsbt.Gbubv#1#1aCbwaWbxai#tby.rbz#2#1#1#1#1#1#1#1bAbBbCbDbDbEbF.YbG#1#1bHaR#b.bQtQtQtQtQt",
"QtQtQtQtQtQtQtQtQtQtQtQtQtbeaeae.hafbIbJbK.ubLbM#1#1#1bAaSbN.D#hbObP.mbQ#2#1#3#FbRaz#2#1bSbHbT#ebUbQbD#P#C#1#1bV#o.GbtbWbXbYbZ.R",
"QtQtQtQtQtQtQtQtQtQtQtQt.e.kb0b1.nb2a#.Tb3bzb4b5#1#1#1#1#1#1aY#1akb6bIb7#1b8b9bCaca8#2#1#1#1#1#1#1#0c.c#ca#1#1#1cbcccdcecf.Tcgch",
"QtQtQtQtQtQtQtQtQtQtQt.b.p.m.Sb1b1#.ci#7cj#eck#A#1#1#1#1#1#1#1#1#1aA#Ba5#1clcmcnaia7#1#1#1#1#1#1#1#1#1#1#1#1#1#1#zcocpcqcrcsctae",
"QtQtQtQtQtQtQtQtQtQtQt.j.mcucvcwcxcycz.raQ.rcAcBcC#1#1#1#1#1#1#1#1#1#1#1#1aCcDcEbB#A#1#1#1#1#1#1#1#1#1#1#1#1#1#1cFaucGa8cHcIcJ.i",
".d.d.d.d.d.d.c.c.a.abeaKcKcLcMcMcMcMcxcNcO.lcP.7cQcRbGcS#1#1#1#1#1#1#1#1#1#1cTaEbAcU#1#1#1#1#1#1#1#1#1#1#1#1#1cVcWbhcXcYcGcZc0.R",
"QtQtQtQtQtQt.#.aQtQtaL.mc1cMcMcMcMcMcMc2c3c4atc5c6c7c8c9#i#4cU#1#1#1#1#1#1#1#1#1#1#1#1#1#1#1#1#1#1#1#1#1a5bG.3d.aGd#da.nbydb.i.I",
"QtQtQtQtQtQt.#.aQt.e.lb1cxcMcMcMcMcMcMcMcxcL.p#.dacec6c6dcbOdddedf#1#1#1#1#1#1#1#1#1#1#1#1#1#1#1#1#1#0dgdhdid#djc6.Zdk.p.hQtQtQt",
"QtQtQtQtQtQt.#.a.I.k.lcLcMcMcMcMcMcMcMcMcMcxdl.paKdmbIdndodp.7dqaudr#yaAbS#jdsdt#1#1#1#1#1#1dscadua6dvdwdodx.7d#c5dk.S.RQtQtQtQt",
"QtQtQtQtQtQt.#.a.R.ldycMcMcMcMcMcMcMcMcMcMcMc3dy.m.mdzaidAdBdpdxc6dCcHdDdEcRbgdFabdGbGdHdIdJbgdKdLdMdoc6dNd#d#dOat.S.R.IQtQtQtQt",
".#.#.#.#.#.#.#.cb1dPcvcMcMcMcMcMcMcMcMcMcMcxc1dQaL.FdRdkatbEdSaVdTdUc6dxdV.7dWd#dX#vdidYdwdZ.7doc6dodNd#.7dTcs#..pd0.b.#.#.#.#.#",
".a.a.a.a.a.a.ad1aKd2d3d4d5d6d7d8.ccvd9dldldycK#.e.dne#eaa#.S.l.S.gcgdSebdAecedeednefegceehdBdx.7d#dpeiejekelemcKen.d.a.a.a.a.a.c",
"QtQtQtQtQtQteoasepeqereseteteuevd5cvaddyad.S.m.Sdmewa#by.p.m.m.m.m.m.mex.neyezeA.reBeCeDeceEcXeF.reGeHeIeJepc1cK.f.IQtQtQtQtQt.c",
"QtQtQtQtQtQteKeLeMeNeOePeOeqeOeQeReSeTeUeVeWeVeXeYeZe0d5eTe1cvc3cLadadd1e2e3.pb0dQ.m.m.lb2.l.l.maKe4e5e6e7ePe8dPaL.bQtQtQtQtQt.c",
"QtQtQtQtQtQte9f.f#fafbfcfbfdfbfdfdfefafffgfhfgfefafgfafifefjfgfjfkflfmfmfnflfofpfqfrfsfte9fsfufvfwfxfyfjfefzfAfBd1.bQtQtQtQtQt.c",
"QtQtQtQtQtQtfCftfDfEfEfEfEfEfEfEfEfEfEfEfEfEfEfEfEfEfEfEfEfFfzfEfEfGfEfHfHfHfIfIfGfEfEfFfFfFfFfEfEfafhfEfEfEfmc1bb.bQtQtQtQtQt.c",
"QtQtQtQtQtQtfJfufKfEfEfEfEfEfEfzfzfEfEfEfEfEfEfEfEfEfEfAfDfLfMepeJepdlfNchc1cvfqfOfAfEfEfEfEfEfEfnf#fPfifEfEfQ.pbb.bQtQtQtQtQt.c",
".a.a.a.a.a.afKfqeqfRfEfEfFfdfSf#fTfEfEfEfEfEfEfEfEfzfrfUfVfW.laKaKaKfXchchchfYdlc3fZf0fEfEfzfifEfSf1f2fEfEfEfmf3dy.c.a.a.a.a.a.d",
"QtQtQtQtQtQtf4f5f6f7fEfEfeerfPftf2fHfEfEfEfEfEfHfifufUeOfNe3d0cLcvc3cMc3cMcMcMcMdlaKeqfEfHf8f9g.fzfhfzfifhfHg#c1fN.bQtQtQtQtQtQt",
"QtQtQtQtQtQteKf0eqf7fEfEfzfpeugagbfEfEfEfEfEgcgdeJe0erd3d3eIerereIeVcvcvc3cMc3cvfNcKeIfEfHfreJgefofrfefpf#fofhfN.f.bQtQtQtQtQtQt",
"QtQtQtQtQtQtgffqeqf7fEfEfEfFgdf0fifEfEfEfFfmeOch.SeJfrfrggfrfsggeteTgh.Sdye3e2fZ.mghetfEfEfdfAfQgie1gjgegkglfhfNd2.bQtQtQtQtQtQt",
"QtQtQtQtQtQtgmfreLfHfEfEfEfzfjfEfEfEfEfEfAepfZd2e2d0e8cMbfchchchc1e3fXcK.maK.m.mghd4fifEfFfefgfignfSfHfEfEfEg#fNd2.bQtQtQtQtQtQt",
"QtQtQtQtQtQtgogpe0fcfHfofnf5d7gqfEfEfEfEet.mfZfXdld0d0cvc3c3cvd0fMd2cL.S.m.m.lgrgafhfEfEfmfVeqfnfzfmfifEfEfEfmfNbf.bQtQtQtQtQtQt",
".a.a.a.a.a.ad6eteMgsfhcxeuf.cMfsfEfEfEfzeq.mgtex.SfXdyd1dyfZb1.SaKcK.m.mcKcheLglfEfEfEfEfSf6gpfzgneMftfEfEfEfmfNfW.c.a.a.a.a.a.a",
".a.a.a.a.a.agugvcxgbfzgwgaf0eqgxfGfGfGfGfpc1cK.m.m.m.m.m.m.m.m.m.m.m.Sc1d7gyfzfGfGfIfGfGfHgzfEfGfnd4f.fGfIfIfke3d2.c.a.a.a.a.a.a",
"QtQtQtQtQtQt.igAdlgBfvfQfpe9gpgdfagCgCgCgDfreJcwc1fZfZfZfZfYc1e3gEgFfUgGfjfzgHfzfzfzfzfzfzgHgHgHfFfcfcgHfzfdflfNcL.bQtQtQtQtQtQt",
"QtQtQtQtQtQt.efZfXgrgrcxc3cMd3d7d4gIgIgIgIgJd4d7epdlcLcLcLcvc3eUgKgLgMf6eIgNerfPgNgvgOfPfPerfKeresererergveRgP.Sdy.bQtQtQtQtQtQt",
"QtQtQtQtQtQtgQgIe0gId4d4d5d5d5eSeSe8e8eTf1e1cvcL.fbbdyfYchdyc1c1adc1dychchchc1dych.kfZfZ.k.k.kch.k.k.kchdydyb1.maK.RQtQtQtQtQtQt",
"QtQtQtQtQtQtfsgpfqggfqgbfrfufTfrgpfsgxeufPgRgFepd0fWadchchc1adfNfNfWfWfNfNe3fWfWbfd1adc1fNfNfNd1fNfNfNfNfWfWe3c1.mch.bQtQtQtQtQt",
"QtQtQtQtQtQterfUfggSgTfnfngUfSgVfqgwergNfVfUgwfTfpfpfpgygVfSfQfAgjfkfmgWgXgWgdfofAgYfOgqfkfhfhfkfgfgfng#g#fAfQe9fZ.kaeQtQtQtQtQt",
".c.d.d.d.d.dfUgZftg0eqeIeLgIeJgId7eTe8e8eUf1d7gieOg0gkgkfDf.frg1f.fKeLe8d3d4gIgMeqereufUgOgNfPeugwergLe8d3cMgFd5b1b1#Q.d.d.d.d.d",
".a.b.b.b.b.bgNg2g3e3fWe3cLdlcve1eMeUeSd7d3epdle3d1c1c1chchch.kfXfZ.S.Sb1fZfZ.kchdyc1chfZfX.kfXfZb1.S.S.Sb1fZfNcL.SfX.iQtQtQtQtQt",
".aQtQtQtQtQtd4g4fPd0d0d0d2d2cLd2d2bfe3e3e3bfe3fNfNe3e3e3e3e3d1fNd1e3cLcycvd2c1.kfZb1.SfZfBd2fWd1c1d1.fd0grcvc3cvaKb0aeQtQtQtQtQt",
".aQtQtQtQtQtfMfqeIc3cMcxdyfZfZfZfZfXchc1c1fNd1dych.kfZfZchc1fNe3bfd2dldldldld2d1c1fZ.SfZdycLbfbfd2cvcvd2e3c1ch.pcK.paeQtQtQtQtQt",
".aQtQtQtQtQt.leJd3cMcMcM.ffNade3d2dl.jdlcv.jdl.fe2d1chfXfZfZb1.S.S.SfZ.kfZ.kchchd1fNd1d1e3fNch.kdye3e3dy.kfXfYchaKfN.bQtQtQtQtQt",
".aQtQtQtQtQt.mfNaddychd2cLcLgre3dyfBcLeMeMcxepcwe2fWe2e3adc1fZaKaKaKaKaKaKaKaKdPfZ.kchchdyfX.S.S.SfZfZb1b1fZ.pc1aKfB.bQtQtQtQtQt",
".a.#.#.#.#.#.kex.lcKcKaKaKfZ.SdPgtg5aK.S.SaKaKaKghaKaKaKaKb1dP.lg6g6g6g6g5cKcKg5aKaK.l.l.l.l.l.l.l.l.l.l.lexaKgh.p.j.bQtQtQtQtQt",
".c.c.c.c.c.c.c.c.c.c.c.c.c.c.c.c.c.c.c.c.c.c.c.c.c.c.c.c.c.c.c.c.c.c.c.c.c.d.d.d.d.d.d.d.d.d.d.d.d.d.d.c.d.d.d.d.d.d.d.d.d.d.d.d",
"QtQtQtQtQtQtQtQtQtQtQtQtQt.#.aQtQtQtQtQtQtQtQtQtQtQtQtQtQtQtQtQtQtQtQtQtQtQtQtQtQtQtQtQtQtQtQtQtQtQt.b.cQtQtQtQtQtQtQtQtQtQtQtQt",
"QtQtQtQtQtQtQtQtQtQtQtQtQt.#.aQtQtQtQtQtQtQtQtQtQtQtQtQtQtQtQtQtQtQtQtQtQtQtQtQtQtQtQtQtQtQtQtQtQtQt.b.cQtQtQtQtQtQtQtQtQtQtQtQt",
"QtQtQtQtQtQtQtQtQtQtQtQtQt.#.aQtQtQtQtQtQtQtQtQtQtQtQtQtQtQtQtQtQtQtQtQtQtQtQtQtQtQtQtQtQtQtQtQtQtQt.b.cQtQtQtQtQtQtQtQtQtQtQtQt",
"QtQtQtQtQtQtQtQtQtQtQtQtQt.#.aQtQtQtQtQtQtQtQtQtQtQtQtQtQtQtQtQtQtQtQtQtQtQtQtQtQtQtQtQtQtQtQtQtQtQt.b.cQtQtQtQtQtQtQtQtQtQtQtQt",
"QtQtQtQtQtQtQtQtQtQtQtQtQt.#.aQtQtQtQtQtQtQtQtQtQtQtQtQtQtQtQtQtQtQtQtQtQtQtQtQtQtQtQtQtQtQtQtQtQtQt.b.cQtQtQtQtQtQtQtQtQtQtQtQt"};
