/* XPM */
static char *dummy[]={
"64 64 569 2",
".1 c #000000",
".H c #002100",
"a5 c #002a16",
"#5 c #0c3124",
".z c #153013",
"#E c #161519",
"aP c #1c1500",
".2 c #1c372e",
"#u c #213723",
"#7 c #222126",
"c8 c #263c36",
"aD c #272117",
"c9 c #2b2a30",
"#r c #2f2925",
"fL c #322915",
"as c #323138",
"gd c #33001a",
"#o c #35312f",
"bI c #383023",
"dT c #38373f",
"dU c #391527",
"cA c #3b3012",
"#F c #3b3737",
"fB c #3c1518",
"cP c #3e1400",
".Z c #3e2130",
"ft c #3e362e",
"ac c #3e4a43",
"gQ c #3f0004",
"ds c #403622",
"bp c #404e4e",
"fS c #412126",
"aE c #413c3e",
"#q c #432a38",
".0 c #433c36",
"cO c #434e48",
"dV c #453c2c",
"aw c #454144",
"#p c #46292f",
"bC c #47524e",
"fu c #482924",
"bE c #48413d",
".E c #4a3037",
"eY c #4a4135",
"#D c #4a4649",
"f8 c #4c302e",
"gR c #4c412b",
"ar c #4c4543",
"bt c #4c5552",
"dw c #4e3023",
".l c #4e373e",
"dS c #4e453c",
"bD c #4e4a4e",
"eA c #4e554d",
"bU c #501417",
"ce c #503736",
"fT c #504534",
"d# c #504a49",
"bZ c #52362d",
"aU c #523c44",
".I c #524e53",
"bT c #525852",
".k c #543c3d",
"dP c #54493b",
"bl c #544e4e",
"#i c #555c56",
"fm c #563c35",
"#R c #56414a",
"cr c #573c2c",
"dN c #574d42",
"aM c #575153",
"bm c #575f5f",
"e3 c #584143",
"ci c #59413c",
"f# c #594d3a",
"bq c #59514d",
"aL c #595f5b",
"bk c #5a464f",
"fC c #5b4134",
".h c #5b4549",
"dR c #5b5147",
"bi c #5b5557",
"bY c #5c402b",
"d. c #5c5141",
"aq c #5c625f",
"bA c #5c6d69",
"#Q c #5d3745",
"dy c #5d4543",
"bW c #5e453c",
".A c #5e4a4e",
"aa c #5e585b",
"aT c #603c4a",
"bX c #604533",
".i c #604a48",
"dx c #605547",
"an c #606462",
"bV c #614942",
"#6 c #614e53",
"bJ c #615540",
"#J c #615c5f",
".3 c #623c44",
"dO c #633c3d",
"co c #63493b",
".t c #634e4d",
"cQ c #63584c",
"de c #635c5b",
"cB c #644d48",
"aY c #645157",
"cF c #645846",
"da c #645f63",
"d4 c #654149",
"f. c #65583f",
"b7 c #664d41",
".u c #665152",
"aH c #665f5f",
"#8 c #666a6a",
"e2 c #67514d",
"g. c #675b4b",
"dI c #676267",
"cd c #68413c",
".B c #68454e",
"gS c #685b45",
"gJ c #694549",
"b6 c #695147",
"f3 c #695557",
"d7 c #696d6d",
"b5 c #6a4542",
".j c #6a4a53",
"cU c #6a5140",
"fG c #6a5552",
"aS c #6a6c69",
"d3 c #6b5e4b",
".Y c #6b6466",
".d c #6c4a4e",
"cH c #6c554c",
"go c #6c585b",
".c c #6d4948",
".e c #6d4e58",
"fl c #6d5446",
"fM c #6e5851",
"dg c #6e6150",
".m c #6e676a",
"b0 c #6e7273",
"a9 c #6e7872",
".b c #6f4d53",
"gK c #6f584c",
"b9 c #6f614a",
".a c #704d4d",
"fP c #707b75",
"Qt c #715157",
".s c #715f63",
"dd c #716a6d",
"c7 c #717476",
".# c #725152",
"fU c #725b51",
"fn c #72644f",
"ge c #726a69",
"cV c #735b4b",
"cc c #735e5a",
"fa c #746754",
"bh c #747676",
"gU c #755557",
"cs c #765e50",
"cR c #766f73",
"#I c #767672",
"gp c #77585b",
"gP c #776958",
"dz c #776f70",
"eP c #777879",
"b8 c #786155",
"f5 c #786462",
"fA c #786953",
"bw c #787276",
"ew c #79614f",
".S c #797173",
"a0 c #797b7c",
"gq c #7a5b5f",
"gs c #7a6c58",
"#N c #7a7b78",
"gV c #7b5b5a",
"gM c #7b6459",
".f c #7b6a70",
"df c #7b6c53",
"dt c #7b7479",
"d8 c #7c6454",
"gW c #7c6761",
"d6 c #7c7d7e",
"fq c #7d6c74",
"aQ c #7d7473",
"dH c #7d767c",
".g c #7d7d7b",
"ct c #7e6758",
"gt c #7e6e57",
"d9 c #7f6753",
"gc c #7f6c6c",
"gg c #7f7160",
".5 c #7f7f7e",
"fN c #806f73",
"d2 c #80715b",
"cN c #808184",
"eX c #816958",
"fF c #817157",
"g2 c #826462",
"gi c #826c60",
".6 c #827176",
"ek c #82735f",
"f0 c #827875",
"dW c #836c5c",
"cG c #83735b",
".D c #837b7b",
"dM c #838b8b",
"e. c #846c57",
"ej c #847663",
"cp c #848589",
"gX c #856765",
"dX c #85765f",
"#h c #858586",
"e# c #866e5b",
".r c #868583",
"dA c #868d8a",
"g# c #877863",
"dJ c #87878b",
"gY c #886965",
"ch c #88715f",
"fO c #887679",
"et c #88785e",
"dG c #888786",
"bn c #888788",
"ga c #888f8d",
"eb c #89715b",
"eg c #897a66",
"f4 c #897f7e",
"#t c #898e8a",
"gh c #8a7363",
"d1 c #8a7a62",
"bj c #8a8184",
"bv c #8a898b",
"cW c #8b735f",
"el c #8b7c6a",
"d0 c #8c7c66",
"a6 c #8c8b8b",
"dY c #8d7663",
"gL c #8d7667",
"eW c #8d7c62",
"fQ c #8d8b88",
"dp c #8d8d90",
"aZ c #8d928f",
"ea c #8e786a",
"ef c #8e7e69",
".J c #8e8d8d",
"c6 c #8e9494",
"ei c #8f7866",
"f2 c #8f7d7e",
"eh c #8f7e65",
"ec c #8f8170",
"fI c #8f8586",
"aR c #8f8d8a",
"ab c #8f9491",
"dZ c #907862",
"g1 c #907a6e",
"eo c #90806d",
"fv c #90878b",
"bB c #908f8f",
"#O c #909696",
"gf c #91785e",
"ee c #917a6a",
"eq c #918069",
"ed c #918373",
"#w c #918e8d",
"dB c #919094",
"e4 c #91979b",
"gZ c #927367",
"er c #927a66",
"es c #928065",
"e8 c #928c82",
"cC c #929798",
"em c #93826c",
"gb c #93908f",
"dF c #939796",
"g0 c #94766a",
"gD c #947c69",
"fD c #948268",
"b# c #949294",
"dE c #94999a",
"fi c #957c66",
"ep c #95856f",
"ev c #959998",
"bS c #959b9f",
"dK c #959f9e",
"gI c #967e6d",
"gH c #96846c",
"eT c #968d8f",
"fE c #977e69",
"f1 c #978d8d",
".7 c #979494",
"d5 c #97969b",
"fp c #98806c",
"en c #988170",
"eH c #98866b",
"dr c #989c9e",
"dL c #98a2a2",
"fc c #998069",
"gl c #998e8f",
"ak c #999696",
"fs c #999a93",
"#j c #999c9a",
"eI c #9a886f",
".n c #9a9798",
"dD c #9a999f",
"ai c #9a9e9e",
"fR c #9b826c",
"ax c #9b9e9c",
"gT c #9c8268",
"fz c #9c877c",
"gC c #9c8a72",
"bH c #9c999a",
".q c #9c9fa0",
"eG c #9d846f",
"fk c #9d8a6e",
"f7 c #9d9998",
"gm c #9d9b9f",
".T c #9d9f9e",
"dq c #9da1a4",
"eM c #9e846c",
"gE c #9e8672",
"eN c #9e8c71",
".F c #9e9b9a",
".y c #9e9b9c",
"ap c #9ea1a0",
"cz c #9ea1a2",
"fh c #9f866f",
"c5 c #9fa3a4",
"fg c #a0866b",
"aB c #a0a2a2",
"eU c #a18872",
"e0 c #a18e71",
"cb c #a1a4a6",
"gF c #a29074",
"ao c #a2a4a2",
"bc c #a2a8a3",
"ez c #a38a72",
"e9 c #a38a75",
"gv c #a38c7b",
"dC c #a39fa2",
"ba c #a3a5a6",
"cm c #a3a6a8",
"fX c #a49f9e",
"cM c #a4a1a4",
"b. c #a4a5a4",
"di c #a4a7aa",
"eJ c #a58c75",
"bd c #a5a1a2",
"cy c #a5a7a8",
"gN c #a68c71",
"fK c #a6937a",
"cL c #a6a9ac",
"gB c #a78e74",
"dh c #a7a4a8",
"a4 c #a7a8a8",
"#g c #a7a8aa",
"do c #a7aead",
"gu c #a88e71",
"cK c #a8aaac",
"aX c #a8aeab",
"eK c #a99077",
"gA c #a99576",
"f9 c #aa8a71",
"gO c #aa9074",
"fo c #aa917a",
"fJ c #aaaaa7",
"cf c #aaabad",
"eC c #ab9177",
"cn c #aba7aa",
"gz c #ac9879",
"gy c #ac987c",
".K c #aca7a8",
"eF c #ad9376",
"eD c #ad937a",
"ah c #adadab",
"dQ c #adaeaf",
"eQ c #adaeb1",
"bs c #adb2ae",
"fj c #ae957d",
".p c #aeaead",
"eL c #af9579",
"dn c #afb0b1",
"#2 c #afb5b6",
"eO c #b0967c",
".4 c #b0aaa9",
"bN c #b0b0af",
"b3 c #b0b1b3",
"aI c #b0b5b2",
".v c #b0b5b4",
"cJ c #b0b6b8",
".G c #b1a5a8",
".o c #b1b1b1",
"eV c #b2987c",
"gG c #b29d7e",
"bx c #b2adaf",
"ca c #b2b2b4",
"#l c #b2b6b4",
"fy c #b3aba7",
"#s c #b3b2b2",
"dm c #b3b4b6",
"af c #b3b8b5",
"eZ c #b49a7f",
"gw c #b4aba3",
"cx c #b4b4b4",
"cS c #b4b9b9",
"fb c #b59b81",
".V c #b5b4b2",
"be c #b5b5b6",
"#1 c #b5b5b8",
".R c #b5b9b7",
"dk c #b5babb",
"ey c #b69b7e",
"dj c #b6b6b9",
"at c #b6bab9",
"ex c #b79d81",
".L c #b7b6b6",
"#C c #b7bab7",
"b1 c #b7bcbc",
"gx c #b8a08e",
"dl c #b8b8b9",
"e1 c #b99f81",
"eE c #b99f84",
"#M c #bab9b9",
"aV c #babebe",
"#P c #babec0",
"e5 c #bbbabc",
".M c #bbbebc",
"bF c #bbbfbf",
"b4 c #bcbabb",
"db c #bcbcbe",
"aN c #bcbfbe",
"dv c #bdbbbc",
"gn c #bdc0bf",
"cl c #bebdbe",
"aG c #bfc2c1",
"#f c #c0c3c2",
"eu c #c0c3c4",
"cD c #c1bfc1",
"gr c #c1c3c1",
".U c #c2c4c2",
"#4 c #c3c5c4",
"ff c #c4c5c2",
"bz c #c4c7c7",
"fe c #c5c2c1",
".C c #c5c6c5",
".x c #c7c9c8",
"c4 c #c7c9ca",
"aF c #c8c5c7",
"#x c #c8c9c7",
"av c #c8caca",
"#m c #c8cdcb",
"fY c #c9cfcd",
"bR c #cac8ca",
".N c #cbc8c8",
"#T c #cbcccb",
"cg c #cbcccd",
"fw c #ccc9cc",
"cX c #cccdce",
".w c #cdcacb",
"a# c #cdcdcb",
"#v c #cecfce",
"cE c #ced6d2",
".O c #cfd0d0",
"du c #cfd1d4",
"am c #d0d1d1",
"ad c #d1d1cf",
"#Y c #d1d2d2",
"fd c #d2d6d5",
".Q c #d3d3d2",
".W c #d4d4d4",
"cw c #d4d4d5",
".P c #d5d5d5",
"cq c #d5d5d7",
"bg c #d7d6d6",
"c3 c #d7d7d9",
"bL c #d7dad9",
"e7 c #d8d7d8",
"#X c #d8dbda",
"#G c #d9d8d8",
"#e c #d9dddc",
"fr c #dcdad9",
"a1 c #dcdfdd",
".X c #dddbda",
"bP c #dddbdc",
"c# c #dde0de",
"eR c #dde0e0",
"#K c #dedcdd",
"#n c #dee1df",
"fV c #dfdddd",
"a3 c #dfdede",
"cj c #dfe2e1",
"fW c #e0dfde",
"b2 c #e0dfe0",
"bo c #e1e3e1",
"#3 c #e1e4e5",
"#U c #e2e4e2",
"f6 c #e3e2e3",
"a. c #e4e2e2",
"#k c #e4e5e4",
"#A c #e5e3e3",
"eB c #e5e5e3",
"c2 c #e5e6e6",
"cY c #e5e7e7",
"fZ c #e6e2e0",
"cT c #e6e4e3",
"a8 c #e6e6e4",
"cI c #e6e7e7",
"#0 c #e7e5e4",
"bu c #e7e7e5",
"a7 c #e8e9e9",
"a2 c #e9e9e8",
"dc c #eae7ea",
"cv c #eaebec",
"aj c #ebebea",
"gj c #ece9eb",
"ay c #ececec",
"bb c #ecf0ee",
"bG c #edf1ef",
"#9 c #eeeeee",
"fH c #eef1ee",
"gk c #efebec",
"bO c #efefee",
"al c #efefef",
"aW c #f0f0ef",
"c1 c #f0f0f0",
"au c #f1edee",
".8 c #f1f1f0",
"#d c #f1f4f2",
"aA c #f2f5f4",
"e6 c #f2f8f5",
"#. c #f3f3f3",
"## c #f3f6f5",
"#B c #f4f4f4",
"fx c #f4f6f4",
"ag c #f4f7f6",
"#H c #f5f1f2",
"br c #f5f4f4",
"aO c #f5f7f5",
"bQ c #f6f2f3",
"aJ c #f6f5f5",
"by c #f6f9f8",
"bM c #f7f6f6",
"ck c #f7f9f7",
"cu c #f7faf9",
"cZ c #f8f7f7",
"#z c #f8faf8",
"#V c #f8fdfa",
"c0 c #f8fdfb",
"#L c #f9f8f8",
"eS c #f9fbf8",
"c. c #f9fbf9",
"#W c #faf9f9",
"#Z c #fafcfa",
"aC c #fafcfc",
"aK c #fbfaf9",
"az c #fbfdfd",
"ae c #fcfbfa",
"#a c #fdfbfc",
"#b c #fdfefc",
"#S c #fdfffe",
"bK c #fefcfd",
".9 c #fefffe",
"#c c #fffdfe",
"bf c #fffefe",
"#y c #ffffff",
"QtQtQtQtQtQtQtQtQtQtQtQtQt.#.aQtQtQtQtQtQtQtQtQtQtQtQtQtQtQtQtQtQtQtQtQtQtQtQtQtQtQtQtQtQtQtQtQtQtQt.b.cQtQtQtQtQtQtQtQtQtQtQtQt",
".b.b.b.b.b.b.b.b.b.b.b.b.b.a.c.b.b.b.b.b.b.b.b.b.b.b.b.b.b.b.b.b.b.b.b.b.b.b.b.b.b.b.b.b.b.b.b.b.b.b.a.c.b.b.b.b.b.b.b.b.b.b.b.b",
".b.b.b.b.b.b.b.b.b.b.b.b.b.b.b.b.c.a.b.b.b.b.b.b.b.b.b.b.b.b.b.b.b.b.b.b.b.b.b.b.b.b.b.b.b.b.b.b.b.b.b.b.b.b.b.b.c.b.b.b.b.b.b.b",
"QtQtQtQtQtQtQtQtQtQtQtQtQtQtQtQt.d.bQtQtQtQtQtQtQtQtQtQtQtQtQtQtQtQtQtQtQtQtQtQtQtQtQtQtQtQtQtQtQtQtQtQtQtQtQtQt.cQtQtQtQtQtQtQt",
"QtQtQtQtQtQtQtQtQtQtQtQtQtQtQtQt.d.bQtQtQtQtQtQtQtQtQtQtQtQtQtQtQtQtQtQtQtQtQtQtQtQtQtQtQtQtQtQtQtQtQtQtQtQtQtQt.cQtQtQtQtQtQtQt",
"QtQtQtQtQtQtQtQtQtQtQtQtQtQtQtQt.d.bQtQtQtQtQtQtQtQtQtQtQtQtQtQtQtQtQtQtQtQtQtQtQtQtQtQtQtQtQtQtQtQtQtQtQtQtQtQt.cQtQtQtQtQtQtQt",
"QtQtQtQtQtQtQtQtQtQtQtQtQtQtQtQt.d.bQtQtQtQtQtQtQtQtQtQtQtQtQtQtQtQtQtQtQtQtQtQtQtQtQtQtQtQtQtQtQtQtQtQtQtQtQtQt.cQtQtQtQtQtQtQt",
"QtQtQtQtQtQtQtQtQtQtQtQtQtQtQtQt.d.bQtQtQtQtQtQtQtQtQtQtQtQtQtQtQtQtQtQtQtQtQtQtQtQtQtQtQtQtQtQtQtQtQtQtQtQtQtQt.cQtQtQtQtQtQtQt",
".a.a.a.a.a.a.a.a.a.a.a.a.a.a.a.a.c.d.a.a.a.a.a.a.a.a.a.a.a.a.a.a.a.a.a.a.a.a.a.a.a.a.a.a.a.a.a.a.a.a.a.a.a.a.a.a.c.a.a.a.a.a.a.a",
".#.#.#.#.#.c.#.#.#.#.#.#.#.#.#.#QtQt.#.#.#.#.#.#.#.#.#.#.#.#.#.#.#.#.#.#.d.b.#.#.#.#.#.#.#.#.#.#.#.#.#.#.#.#.#.#Qt.#.#.#.#.#.#.#",
"QtQtQtQtQt.cQtQtQtQtQtQtQtQtQtQtQtQtQtQtQtQtQtQtQtQtQtQtQtQtQtQtQtQtQtQt.d.bQtQtQtQtQtQtQtQtQtQtQtQtQtQtQtQtQtQtQtQtQtQtQtQtQtQt",
"QtQtQtQtQt.cQtQtQtQtQt.e.eQtQtQtQtQtQtQtQtQtQtQtQt.b.f.g.h.bQtQtQtQtQtQt.d.bQtQtQtQtQtQtQtQtQtQtQtQtQtQtQtQtQtQtQtQtQtQtQtQtQtQt",
".iQtQtQtQt.cQt.j.k.l.m.n.o.p.q.r.s.t.bQtQtQt.u.g.v.w.x.y.z.lQtQtQtQtQtQt.d.bQtQtQt.e.A.BQtQtQtQtQtQtQtQtQtQtQtQtQtQtQtQtQtQtQtQt",
".C.D.dQt.h.E.F.G.H.I.J.K.L.M.N.O.P.Q.R.S.k.A.T.U.V.M.W.X.Y.ZQtQtQtQtQtQt.d.bQtQt.j.0.1.2.3QtQtQtQtQtQtQtQtQtQtQtQtQtQtQtQtQtQtQt",
".4.o.5.6.L.7.8.9#.###a#b#c.9#a#d#e#f#g#h.H#i#j#k#k#l#m#n#o#p.b.b.b.b.b.b.d.a.b.B#q#r#s#t#u.b.b.b.b.b.b.b.b.b.b.b.b.b.b.b.b.b.b.b",
"#v.W#w#x#y#y#y#y#y#y#y#y#y#y#y#y#y#y#z#n#A#z#B#C#D#D#g.N#E.lQtQtQtQtQtQtQtQt.j#F#o#G#H.V#I.bQtQtQt.a.a.b.b.b.b.b.b.b.b.b.b.b.b.b",
"#J#K#y#y#y#y#y#y#y#y#y#y#y#y#y#y#y#y#y#y#y#L#M.1#N#O#P.L.1#QQtQtQtQtQtQtQt.b#R#E.o#S#T.U#FQtQtQtQt.a.bQtQtQtQtQtQtQtQtQtQtQtQtQt",
"#U#V#y#y#W#X#K#y#y#y#y#y#y#y#y#y#B.x#Y#y#y#y#Z#0#1#2#3#4#5.hQtQtQtQtQtQtQt#6#7#8#9a.a#aa.jQtQtQtQt.a.bQtQtQtQtQtQtQtQtQtQtQtQtQt",
"#y#y#y#y#.abacad#y#y#y#y#y#y#yae#4.1af#y#y#y#d.x.Cag#Lah#D.jQtQtQtQtQtQtQt#R#Eai#B.Nah.AQtQtQtQtQt.a.bQtQtQtQtQtQtQtQtQtQtQtQtQt",
"#9#c#y#y#yajak.J#c#y#y#y#y#y#y#yal.W#Z#yaeaman#Eao#y##apaqQtQtQtQtQtQtQt.barasatauav.gQtQtQtQtQtQt.a.bQtQtQtQtQtQtQtQtQtQtQtQtQt",
"awaxay#y#y#yazaA.9#y#y#y#y#y#y#y#y#y#yayaB.1.1#h.8#yaCavaD.l.b.b.b.b.b.b.daraEaFalaGaH.a.d.a.a.a.a.c.c.d.d.d.d.d.d.d.d.d.d.d.d.d",
".1.1#DaIaJ#y#y#y#y#y#y#y#y#y#y#y#yaK#TaL.1aMaN###y#y#yaOapaPaEaQaRaSaTQt.baU#FaVaWaXaY.b.bQtQtQtQtQtQtQtQtQtQtQtQtQtQtQtQtQtQtQt",
"#XaZ.1.Ha0a1#y#y#y#aa2a3aW#y#y#y##a4.1a5a6a7#y#y#y#y#y#ya8a9b.afb##6.jQtQt.A#rbabbbcas.i.bQtQtQtQtQtQtQtQtQtQtQtQtQtQtQtQtQtQtQt",
"#y#Z.Qa0.1#D.M#a#y##bd#r.YbebfaOa4.1ac#M#z#y#y#y#y#y#yazbgbh.Ibi.5bjbkblaHbm.2bn#Abobp.I#D#6bq.Z.Z.kQtQtQtQtQtQtQtQtQtQtQtQtQtQt",
"#y#y#ybrbs#rbtam#y#ybubvbwbxby#U.1#ibg#y#y#y#y#y#y#y#y#abzbAbB.Rao.marbCbDbE#7aabFbG#MbHbl#r#r#EbIbJ.hQtQtQtQtQtQtQtQtQtQtQtQtQt",
"#y#y#y#ybKa2bLbM#y#y#.bN#f#9#ybO.LbP#y#y#y#y#y#y#y#ybQbRbS#8a5bTbUbVbWbXbYbYbZ.1b0b1b2b3b4.hb5b6b7b8b9.bQtQtQtQtQtQtQtQtQtQtQtQt",
"#y#y#y#y#y#y#y#y#y#y#.#M#n#y#y#y#y#y#y#y#y#y#y#yc.c#cacb.qbCaLcccdb6b6b6b6b6bVce.1a0cfcg.V#MbZb6b6b6chci.d.d.d.d.d.d.d.d.d.d.d.d",
"#y#y#y#y#y#y#y#y#y#y#WcjaW#y#y#y#y#y#y#y#y#yck#nclcm#gcnaM#ocebWb6b6b6b6b6b6b6coaraDcpcfcq.K#jcrb6b6csct.jQtQtQtQtQtQtQtQtQtQtQt",
"#y#y#y#y#y#y#y#y#y#y#y#y#y#y#y#y#y#y#ycucvcwcxcy#gcza0#7#ocAb7b6b6b6b6b6b6b6b6cBcdblawcCcDcE.7aDb6b6cFcGcHQtQtQtQtQtQtQtQtQtQtQt",
"#y#y#y#y#y#y#y#y#y#y#y#y#y#y#y#yckcI#vcJcK#gcLcMcNcO.1awcPcFb6b6b6b6b6b6b6b6b6b6cocQaccRcScT#N.Eb7b6cUcVcW.iQtQtQtQtQtQtQtQtQtQt",
"cXbPcYaWcZ#ZaCbK#cc0#z##c1c2c3c4cxcycy#gc5c6c7c8.1#o#Fc9bEcrb6b6b6b6b6b6b6b6b6b6b7d.d#dadbdcdddebYb6b6b6dfdgQtQtQtQtQtQtQtQtQtQt",
"dhdicycfcadjdkaVbFdldmdncfdicma4docydpcRaw.1#7aa#hdqdra0c9#7dsbVb6b6b6b6b6b6b6b6b7bW#rdtdudvaDdwb6b6b6dxdxb8dy.#.#.#.#.#.#.#.#.#",
"aEdzdAdBdrdCcbbadCdDdEdFabdGdHdIbl#7.1.1acdIdJdKcbdicmdLdMbC.1#rdNdydOcid..tdNbWdP#raEdQcgcObIbVd.bWbVdRdS#rbI.c.a.a.a.a.a.a.a.c",
".1dT.1.1.1dU#oc9aD.1.1.1.1.1.1.1.1.1.1.1.1#E#E.1.1.1.1#E.1.1.1.1.1.1.1.1.1.1.1.1.1aDdVd.csdWcGdXdYdZdZd0d1d2d3d4QtQtQtQtQtQtQt.c",
".2bBd5d6d7bD.1.1dsd8d9e.d2e#dXeachebcWchchcWcWdZdYcWcWecedeeefefd0egehefeid1d0egejekeid0elemeneoepemeqeresetcW.hQtQtQtQtQtQtQt.c",
".1bvcbdjeuev.1#7ewexexexexexexeyexexexexexexexexexexexeyeyeyeyexexexexexexexexexexexexexexexexexexexexexexezchdyQtQtQtQtQtQtQt.c",
"eA#DbdaG#aeBc8.1cHexexexeCcWeDexexexexexexexeEexeFeGeHeIeJeKeLeJeMeNeOexexexexexexexexexexexexexexexexexexeNdXdyQtQtQtQtQtQtQt.c",
".eaDePeQeReSeT#rcFexexexeUaPd9exexexexexeVeWeXd8bI.1.1.1.1.1#E.1.1.1eYdZeZexexexexexexexexeyeJe0exexexexe1eIdX.hQtQtQtQtQtQtQt.c",
"e2e3#7e4e5e6e7a4e8exexexeVeqeHexeDeHexexe9#rdVb7bWbWbWbWdyb7f.f#bI.1.1#EfafbexexexexexexexeDd.dPeqeKexexe1fccWdy.a.a.a.a.a.a.a.d",
"Qt.B#7aLcffd#zfefffgfhfieZfbfjeVctdVeVexfk#EdVb7b6b6b6b6b6cBb7b6flf#fmaD#EfnfoexexexexexexeCeY.1dVezexexe1fpeb.iQtQtQtQtQtQtQtQt",
"QtQte3.1fqdmalfr.MfsfadSeJdXbIeHd0erexexfk.1aPdVcib6bVeYftbIfuftftftftfu#E.1aDeXeLexexexexeZficFfcexexexe1fce#e2QtQtQtQtQtQtQtQt",
"QtQt.b.E#Efvfwfxfy.ofzfbfbeUfAeKexexexexeLcV.1.1aD#raP.1aPaPaPaPaPaPaP.1.1fBfC#rdVfDexexexexexexexexexexexfEfFfGQtQtQtQtQtQtQtQt",
"QtQtQt.j.Z.Zdr#nfHfIfJfKexexexeZfpe#eDexexeCd3aP.1.1.1fLbWcidycBcBcBcBdycib7cBdSaDeYeOexexexfbeJetfbexexexd1d9fMQtQtQtQtQtQtQtQt",
".3.bfNfO.i.1bCb3#Bc2fPfQfRdXe#exeqfLfaexexexfbfkbW.1.1.1.1#EfLfSdVfmfTfTeYft#r#E.1bIfDexexexeOd8bIeWdgdZfbdWfafUQtQtQtQtQtQtQtQt",
"fVfWbPfX.a.k.1#8fY#yfZf0ftfLdXexfbeLeDexexexexexeLcGft.1.1.1.1.1.1.1.1.1.1.1.1.1.1dVeJexexexeDd..1.1ftfhfjfMcVfU.a.a.a.a.a.a.a.a",
"f1f2f3.hf4f5ft#Ea6f6#y#Lf7f8f9eEeEeEeEeEeEeEeEeEeEeEeOerg.ftaP.1.1.1.1.1.1.1.1#rdNfEeEeEeEeEeZehfng#eKeOdZbWbVcH.a.a.a.a.a.a.a.a",
"bagagbfebPgc.tgdd#dk#9al#tgegfeUfhfhfheGeMeMfRfRfheGfEfierdYeXdgflbVdPdPdPd.d3ggcWcWdYghdYcWgieXctb8csfMb6dPaDd4QtQtQtQtQtQtQtQt",
"#Ugjgk#GglQte3.1#EdIgmgnap#4gof8f8f8f8f8ftf8f8f8f8f8ftf8dVdV.0ceeYeY.0.0cebZbZdVdVdVeYdPbVdxflflb6b6b7b7b7dPbIbEQtQtQtQtQtQtQtQt",
"QtgpgqQtQt.t#E.1.1.1aLavgr.7#s#E.1.1.1.1.1.1.1.1.1.1.1.1.1.1.1.1.1.1.1.1.1.1.1.1.1.1aP#reYd.dggsgte#cGcGchgtfndxcsQtQtQtQtQtQtQt",
"QtQtQtQtQt.BaDd.eOeDgugvgwgxeLgyeLeLgzeFeCeLeLeFeKfogAeLeLeDgBgBe0gCfheGeMfReMfcgDfEehgDfcgEgFeCeFfjeOeLgygGgHd.gIQtQtQtQtQtQtQt",
"QtQtQtQtQtgJ#EcectgKfadWcWfceUfhfRfRfpfRgDgLe#gMb8eXeXctdYeGgNgOeLeKfkfRfReqcWfabJdVftdVdVfTd.cVewgPcGdZeifEeMcFfEQtQtQtQtQtQtQt",
".c.d.d.d.ddy#EdVbW#raD#E.1aPaD#r#raDaDbIdVfTfCdScebIaDaDaPaDfL#raD#EaP#E#EaDfBfucib6fnb8cVcHb6dNfTf8f8f8ftbWctdNch.d.d.d.d.d.d.d",
".a.b.b.b.bd4gQdVb6b6b6dxbVcidVfteYbVbWftaD#E#E#E#reYb7b6bVfTdVcecibVb7.i.i.i.i.i.ibVcobVb7cBcBcBcBb6b6b6cBb8ezgRgSQtQtQtQtQtQtQt",
".aQtQtQtQt.BaPdUdVcecibVbVcBbVb7bVcieYft#pf8cidNb7b6b6cBcBb7bVdNcieYf8bIfS#raD#rfubI#r#raDaDfB#r#r#reYb6cBcVgTfuftQtQtQtQtQtQtQt",
".aQtQtQtQt.d#EfB#raDaDaDfSft#raD#E#rdV#pbIbIbIaDaDfLfBaDaD#EaPaP#EaDfBbIftfTbV.ib7cBb7b7d.bWcifmeYdPb7b6b6cHct#raDQtQtQtQtQtQtQt",
".aQtQtQtQt.u#EfT.0eYdVf8dVcef8ftftdVeYfmeYeYceftbIfSfSbIfubIfSbIf8fmfmcici.kcid.d.d.b6d.eYbZcecidNcicifmceeYfmaD.ZQtQtQtQtQtQtQt",
".aQtQtQtQt.t#p.1.1.1.1.1.1.1.1.1.1.1.1.1.1.1.1.1.1.1.1.1.1.1.1.1.1.1.1.1.1.1.1.1.1.1.1.1.1.1.1.1.1.1.1.1.1.1.1#7ceQtQtQtQtQtQtQt",
".a.#.#.#.#.#.#.#.#.#.#.#.#.#.#.#.#.#.#.#.#.#.#.#.#.#.#.#.#.#.#.#.#.#gU.#.#gqgqgVgWgXgYgZg0g1eegLg2gpQtQtQtQtQtQtQtQtQtQtQtQtQtQt",
".c.c.c.c.c.c.c.c.c.c.c.c.c.c.c.c.c.c.c.c.c.c.c.c.c.c.c.c.c.c.c.c.c.c.c.c.c.d.d.d.d.d.d.d.d.d.d.d.d.d.d.c.d.d.d.d.d.d.d.d.d.d.d.d",
"QtQtQtQtQtQtQtQtQtQtQtQtQt.#.aQtQtQtQtQtQtQtQtQtQtQtQtQtQtQtQtQtQtQtQtQtQtQtQtQtQtQtQtQtQtQtQtQtQtQt.b.cQtQtQtQtQtQtQtQtQtQtQtQt",
"QtQtQtQtQtQtQtQtQtQtQtQtQt.#.aQtQtQtQtQtQtQtQtQtQtQtQtQtQtQtQtQtQtQtQtQtQtQtQtQtQtQtQtQtQtQtQtQtQtQt.b.cQtQtQtQtQtQtQtQtQtQtQtQt",
"QtQtQtQtQtQtQtQtQtQtQtQtQt.#.aQtQtQtQtQtQtQtQtQtQtQtQtQtQtQtQtQtQtQtQtQtQtQtQtQtQtQtQtQtQtQtQtQtQtQt.b.cQtQtQtQtQtQtQtQtQtQtQtQt",
"QtQtQtQtQtQtQtQtQtQtQtQtQt.#.aQtQtQtQtQtQtQtQtQtQtQtQtQtQtQtQtQtQtQtQtQtQtQtQtQtQtQtQtQtQtQtQtQtQtQt.b.cQtQtQtQtQtQtQtQtQtQtQtQt",
"QtQtQtQtQtQtQtQtQtQtQtQtQt.#.aQtQtQtQtQtQtQtQtQtQtQtQtQtQtQtQtQtQtQtQtQtQtQtQtQtQtQtQtQtQtQtQtQtQtQt.b.cQtQtQtQtQtQtQtQtQtQtQtQt"};
