/* XPM */
static char *dummy[]={
"64 64 506 2",
".l c #000000",
".f c #161519",
".g c #1c1500",
"#4 c #1c372e",
".N c #222126",
"aa c #263c36",
".D c #272117",
"dT c #2a3c2d",
".h c #2b0002",
"aW c #2b2000",
".1 c #2b2a30",
".p c #2f2925",
"bm c #314135",
"bk c #322915",
"dx c #323138",
".x c #33001a",
"aB c #35312f",
"dU c #360000",
"bG c #383023",
"#5 c #38373f",
"bK c #391527",
"#z c #3b3737",
"dw c #3c1518",
"f2 c #3e2130",
"au c #3e362e",
"#P c #3e4a43",
"bl c #403622",
"cl c #412126",
"#N c #413c3e",
"#O c #433c36",
"#D c #434e48",
"co c #453c2c",
"#E c #454144",
".q c #46292f",
"#s c #47524e",
"e0 c #482924",
".Y c #48413d",
".i c #4a3037",
"bM c #4a4135",
"#h c #4a4649",
"cm c #4c302e",
"fy c #4c412b",
"#t c #4c4543",
"#6 c #4c5552",
"f3 c #4e1526",
"b5 c #4e3023",
"aw c #4e373e",
"e9 c #4e453c",
"dO c #4e4a4e",
".Z c #503736",
"eT c #504534",
"av c #504a49",
"#C c #505857",
"b8 c #52362d",
".u c #523c44",
"ch c #524a42",
"dE c #524e53",
"ci c #543621",
".k c #543c3d",
"bL c #54493b",
"#A c #544e4e",
"de c #545c5b",
"dc c #554933",
"#T c #555c56",
"fe c #563c35",
"#. c #56414a",
"## c #564e48",
"aZ c #565258",
"cz c #573c2c",
"eU c #574d42",
"du c #575153",
"dM c #575f5f",
".t c #584143",
".e c #59413c",
"e2 c #594d3a",
"db c #59514d",
"#U c #59555c",
"bj c #595f5b",
"dd c #5b3037",
"eV c #5b4134",
".o c #5b4549",
"fG c #5b5147",
"#f c #5b5557",
"dD c #5b6263",
"cI c #5c402b",
"e4 c #5c5141",
"bJ c #5c625f",
"ff c #5d3745",
"eW c #5d4543",
"cS c #5e453c",
".s c #5e4a4e",
"cy c #5e554d",
"#g c #5e585b",
"dN c #5e6566",
".A c #603c4a",
".n c #604a48",
"fL c #605547",
"cB c #614942",
".P c #614e53",
"e6 c #615540",
"#I c #615c5f",
".z c #623c44",
"dS c #633c3d",
"fF c #63493b",
".B c #634e4d",
"cC c #63584c",
"aV c #635c5b",
"#y c #636766",
".E c #644d48",
"fi c #645846",
"#B c #645f63",
"dB c #646a6d",
".v c #654149",
".y c #664143",
"cn c #664d41",
".C c #665152",
"bo c #66626b",
"af c #666a6a",
"fM c #675b4b",
"aC c #676a66",
"f1 c #68413c",
".m c #68454e",
"fh c #685b45",
".j c #694549",
"cA c #695147",
".O c #695557",
"cg c #696263",
"bI c #696d6d",
"a# c #6a4542",
".w c #6a4a53",
"fY c #6a5140",
"cJ c #6a5552",
"fX c #6a5e50",
"a3 c #6a6c69",
"#F c #6a6f74",
"eS c #6b5e4b",
"#d c #6b6466",
"bH c #6b6f70",
".d c #6c4a4e",
"cH c #6c554c",
".c c #6d4948",
".r c #6d4e58",
"fK c #6d5446",
"#e c #6d5c63",
"dC c #6d676d",
"#x c #6e5b5f",
"#J c #6e7273",
".b c #6f4d53",
"eK c #6f584c",
"fn c #6f614a",
"#S c #6f6766",
"a. c #6f7170",
"#3 c #6f7b79",
".a c #704d4d",
"Qt c #715157",
"#c c #716a6d",
".# c #725152",
"fk c #72644f",
"aQ c #726a69",
"fx c #735b4b",
"ag c #737679",
".0 c #74555b",
"e5 c #746754",
"f0 c #755e55",
"#a c #76585f",
"e7 c #765e50",
".M c #767672",
"#b c #776466",
"bQ c #777879",
"dy c #778181",
"fJ c #786155",
".F c #78676d",
"fg c #786953",
"cR c #786f6c",
"b4 c #787875",
"aN c #78817e",
"#w c #796769",
"cD c #797173",
"eN c #7a6c58",
"cK c #7a7b78",
"fO c #7b6c53",
"fP c #7c6454",
"a2 c #7c7476",
"aO c #7c7d7e",
"eL c #7d644f",
"dV c #7d6f5c",
"dL c #7d7f84",
"f. c #7e6758",
"fH c #7e6e57",
"#H c #7e7679",
"cE c #7e7d78",
"dA c #7e7f81",
"f# c #7f6753",
"aq c #7f8786",
"fQ c #80695c",
"eO c #80715b",
".X c #807f7b",
"a0 c #808184",
"fI c #816958",
"#V c #818181",
"fW c #82735f",
"fN c #836c5c",
"eM c #846c57",
"#u c #848b88",
"em c #85765f",
"aP c #857d81",
"fv c #866e5b",
"aA c #878d88",
"eG c #88715f",
".9 c #888786",
"#G c #888788",
"fd c #89715b",
"#2 c #89898e",
"fw c #8a7363",
"fS c #8a7a62",
"ap c #8a898b",
"fj c #8b735f",
".W c #8b8988",
"cj c #8b8b90",
".V c #8b908d",
"eC c #8c7c66",
"dz c #8c8b8d",
".T c #8c9292",
"eD c #8d7663",
"eP c #8d7c62",
"#W c #8d8d90",
"dJ c #8d9496",
"fz c #8e755e",
"d5 c #8e7e69",
"fZ c #8f7866",
"ft c #8f7e65",
"bc c #8f9491",
"dF c #8f9698",
"ey c #907862",
"aM c #908f8f",
"eH c #918069",
"cL c #918e8d",
"dI c #919094",
".S c #919693",
"ex c #927a66",
"e3 c #928065",
"dP c #929092",
"dG c #929798",
"d3 c #93826c",
".2 c #938b90",
".U c #93908f",
"dK c #939296",
".Q c #939796",
"bP c #93999d",
"fm c #947c69",
"eB c #948268",
"d2 c #948573",
"bg c #949294",
"eR c #957c66",
"dZ c #95856f",
"aR c #959291",
"dH c #959499",
"ca c #959998",
"dY c #967e6d",
"ej c #96846c",
"b1 c #968f97",
"dR c #969b9c",
"dX c #977e69",
"d0 c #97866f",
"eJ c #98806c",
"d4 c #988170",
"el c #98866b",
"bF c #989491",
"dQ c #989698",
"a4 c #989a98",
"ao c #989c9c",
"ek c #998069",
"eh c #99907b",
"#1 c #99979a",
"d1 c #9a8270",
"ef c #9a886f",
"at c #9a9798",
"dW c #9b826c",
"e# c #9b8a75",
"dv c #9b999d",
"#K c #9b9e9c",
"b2 c #9b9fa2",
"e. c #9c8a72",
"#0 c #9c9fa0",
"d6 c #9d846f",
"eZ c #9d8a6e",
"d8 c #9d8c75",
"ei c #9d8c78",
".G c #9d9998",
"ee c #9e846c",
"d9 c #9e8672",
"ew c #9e8c71",
"aL c #9e9f9c",
"#Y c #9ea1a2",
"ez c #9f866f",
"ea c #9f8e78",
"#v c #9f9598",
"#X c #9f969b",
"#n c #9f9c9e",
"#7 c #9fa3a4",
"fq c #a0866b",
"#o c #a09ea3",
"d7 c #a18872",
"eE c #a18e71",
"a1 c #a1979a",
"bE c #a1a2a0",
"fl c #a2886e",
"ed c #a28a78",
"fu c #a29074",
"eb c #a2927d",
"ec c #a29281",
".R c #a2a4a2",
"fa c #a38a72",
"eg c #a38a75",
"aK c #a3a5a6",
"#m c #a3a6a8",
"#Q c #a4a1a4",
"eX c #a58c75",
"b0 c #a5a1a2",
"cf c #a5a7a8",
"fE c #a68c71",
"e8 c #a69377",
"#Z c #a6a2a6",
"#R c #a6a7a6",
"aJ c #a6ada9",
"eA c #a78e74",
"fD c #a78e78",
"bx c #a79c9e",
"dk c #a7a8aa",
"aY c #a7aead",
"dl c #a7aeaf",
"fA c #a88e71",
"fB c #a8907b",
"bw c #a89ea0",
"e1 c #a99077",
"fc c #a99576",
"aD c #a9aaa9",
"eY c #aa9074",
"fC c #aa917a",
"fs c #aa9679",
"dg c #aaa7ac",
"ae c #aaaaa7",
".L c #aaabab",
"an c #aaabad",
"eI c #ab9177",
"cM c #ababa9",
"fU c #ac937d",
"bp c #aca7a8",
"aI c #acadad",
"ah c #acb2b2",
"fT c #ad9376",
"fb c #ad937a",
"bd c #adaeaf",
"df c #adaeb1",
"dn c #adb4b4",
"fR c #ae957d",
"dj c #aeaaad",
"dm c #aeb0b3",
"eF c #af9579",
"di c #afb0b1",
"ar c #afb4b0",
"fV c #b09576",
"eQ c #b0967c",
"#9 c #b0abad",
"#p c #b0b0af",
"aH c #b0b1b3",
"bq c #b0b5b4",
"a8 c #b1abab",
"dh c #b1adb1",
"as c #b1b1b1",
"eu c #b2987c",
"do c #b2b2b4",
"dt c #b2b8b7",
"et c #b39a82",
"ai c #b3b4b6",
"dr c #b3b4b8",
"aS c #b3b8b5",
"ep c #b49a7f",
"bi c #b4aeaf",
"az c #b4b9b9",
"er c #b59a7c",
"en c #b59b81",
"ds c #b5b5b8",
"am c #b5b9b7",
"ck c #b5babb",
"eo c #b69b7e",
"es c #b79d81",
"fp c #b79d84",
"aj c #b7b6b7",
"bf c #b7bab7",
"aG c #b7bbbb",
"ba c #b8b8b9",
"#l c #b8b8bb",
"eq c #b9987c",
"ev c #b99f81",
"fo c #b99f84",
"b# c #b9b8b7",
"al c #b9bdba",
"aE c #b9bdbc",
"a9 c #bab9b9",
"dp c #babebe",
"fr c #bba080",
"ab c #bbbebc",
".H c #bcbabb",
"c# c #bcbcbe",
"ak c #bdbbbc",
"dq c #bdc0bf",
"ce c #bdc1c1",
"aF c #bebdbe",
"be c #bfbdbc",
"b7 c #bfc7c4",
"b3 c #c0bebf",
".J c #c1c3c1",
"bn c #c1c4c4",
"d# c #c1c9c8",
"aX c #c2c4c2",
"bO c #c2c5c7",
".K c #c3c0c1",
".I c #c3c5c4",
".8 c #c4c2c2",
"a5 c #c5c6c5",
"bh c #c6ccca",
"#8 c #c8c5c7",
"bD c #c9cac8",
"bb c #c9cbcd",
"bN c #c9cfcb",
"ax c #cacbca",
"cG c #cbcccd",
"#L c #ccc9ca",
"da c #ccd6d5",
"#M c #cdcacb",
"ad c #cdcdcb",
"cT c #cdcfd0",
"#q c #cecfce",
"b. c #ced3d1",
"#k c #ced3d2",
"a7 c #cfd0d0",
"b9 c #d0d0ce",
"aU c #d1d1cf",
"#r c #d1d2d2",
"#i c #d3d3d2",
".3 c #d4d4d4",
"cv c #d4d8d8",
"cx c #d5d8d6",
"b6 c #d7d3d5",
"bC c #d7d6d6",
"a6 c #d8d7d6",
"br c #d9d8d9",
"bR c #dad9da",
"cQ c #dadcda",
"cw c #dde0e0",
"by c #dedcdb",
"bv c #dedcdd",
".7 c #dee1df",
"cq c #dfdfe1",
"cV c #e0dfde",
"cF c #e0dfe0",
"bU c #e1dbdd",
"ay c #e1e6e4",
"aT c #e2e1e1",
"#j c #e3e4e2",
".6 c #e4e5e4",
"ac c #e5e6e6",
"c0 c #e6ebeb",
"cW c #e7e7e5",
"cr c #e8e8e7",
"bT c #e9e6e7",
"cZ c #e9eaeb",
"c. c #ebebea",
".4 c #ebefee",
"bV c #ece8e8",
".5 c #ececec",
"c1 c #ecf0ee",
"cd c #ede9e9",
"cX c #ededed",
"cp c #edf1ef",
"cY c #eeebed",
"cb c #eeeeed",
"cu c #eeeeee",
"cU c #efefef",
"c3 c #eff6f4",
"bs c #f1f4f2",
"c9 c #f1f4f4",
"d. c #f2eeef",
"c7 c #f2f9f7",
"c2 c #f3f4f5",
"bZ c #f3f6f5",
"c5 c #f3f9f6",
"bS c #f4f4f3",
"c4 c #f5f4f5",
"c8 c #f7f3f4",
"c6 c #f7f9f7",
"bY c #f8faf8",
"bB c #fafcfc",
"cN c #fbfcfa",
"cP c #fbfdfe",
"bt c #fcfbfa",
"bW c #fcfefe",
"ct c #fdfefc",
"bu c #fdffff",
"cc c #fefffc",
"bA c #fefffe",
"bX c #feffff",
"cs c #fffdfe",
"cO c #fffdff",
"bz c #ffffff",
"QtQtQtQtQtQtQtQtQtQtQtQtQt.#.aQtQtQtQtQtQtQtQtQtQtQtQtQtQtQtQtQtQtQtQtQtQtQtQtQtQtQtQtQtQtQtQtQtQtQt.b.cQtQtQtQtQtQtQtQtQtQtQtQt",
".b.b.b.b.b.b.b.b.b.b.b.b.b.a.c.b.b.b.b.b.b.b.b.b.b.b.b.b.b.b.b.b.b.b.b.b.b.b.b.b.b.b.b.b.b.b.b.b.b.b.a.c.b.b.b.b.b.b.b.b.b.b.b.b",
".b.b.b.b.b.b.b.b.b.b.b.b.b.b.b.b.c.a.b.b.b.b.b.b.b.b.b.b.b.b.b.b.b.b.b.b.b.b.b.b.b.b.b.b.b.b.b.b.b.b.b.b.b.b.b.b.c.b.b.b.b.b.b.b",
"QtQtQtQtQtQtQtQtQtQtQtQtQtQtQtQt.d.bQtQtQtQtQtQtQtQtQtQtQtQtQtQtQtQtQtQtQtQtQtQtQtQtQtQtQtQtQtQtQtQtQtQtQtQtQtQt.cQtQtQtQtQtQtQt",
"QtQtQtQtQtQtQtQtQtQtQtQtQtQtQtQt.d.bQtQtQtQtQtQtQtQtQtQtQtQtQtQtQtQtQtQtQtQtQtQtQtQtQtQtQtQtQtQtQtQtQtQtQtQtQtQt.cQtQtQtQtQtQtQt",
"QtQtQtQtQtQtQtQtQtQtQtQtQtQtQtQt.d.bQtQtQtQtQtQtQtQtQtQtQtQtQtQtQtQtQtQtQtQtQtQtQtQtQtQtQtQtQtQtQtQtQtQtQtQtQtQt.cQtQtQtQtQtQtQt",
"QtQtQtQtQtQtQtQtQtQtQtQtQtQtQtQt.d.bQtQtQtQtQtQtQtQtQtQtQtQtQtQtQtQtQtQtQtQtQtQtQtQtQtQtQtQtQtQtQtQtQtQtQtQtQtQt.cQtQtQtQtQtQtQt",
"QtQtQtQtQtQtQtQtQtQtQtQtQtQtQtQt.d.bQtQtQtQtQtQtQtQtQtQtQtQtQtQtQtQtQtQtQtQtQtQtQtQtQtQtQtQtQtQtQtQtQtQtQtQtQtQt.cQtQtQtQtQtQtQt",
".a.a.a.a.a.a.a.a.a.a.a.a.a.a.a.a.c.d.a.a.a.a.a.a.a.a.a.a.e.f.g.h.g.f.i.a.a.a.a.a.a.a.a.a.a.a.a.a.a.a.a.a.a.a.a.a.c.a.a.a.a.a.a.a",
".#.#.#.#.#.c.#.#.#.#.#.#.#.#.#.#QtQt.#.#.#.#.#.#.#.#.#.#.b.j.k.i.l.f.j.a.d.b.#.#.#.#.#.#.#.#.#.#.#.#.#.#.#.#.#.#Qt.#.#.#.#.#.#.#",
"QtQtQtQtQt.cQtQtQtQtQtQtQtQtQtQtQtQtQtQtQtQtQtQtQtQtQtQtQtQt.m.g.l.n.mQt.d.bQtQtQtQtQtQtQtQtQtQtQtQtQtQtQtQtQtQtQtQtQtQtQtQtQtQt",
"QtQtQtQtQt.cQtQtQtQtQtQtQtQtQtQtQtQtQtQtQtQtQtQtQtQtQtQtQt.o.h.l.l.p.qQt.m.bQtQtQtQtQtQtQtQtQtQtQtQtQtQtQtQtQtQtQtQtQtQtQtQtQtQt",
"QtQtQtQtQt.cQtQtQtQtQtQtQtQtQtQtQtQtQtQtQt.r.s.t.u.t.v.wQt.q.x.l.l.l.g.k.y.bQtQtQtQtQtQtQtQtQtQtQtQtQtQtQtQtQtQtQtQtQtQtQtQtQtQt",
"QtQtQtQtQt.cQtQtQtQtQtQtQtQtQtQtQtQtQtQtQt.u.p.f.l.l.x.zQtQt.w.o.A.v.B.r.d.bQtQtQtQtQtQtQtQtQtQtQtQtQtQtQtQtQtQtQtQtQtQtQtQtQtQt",
".b.b.b.b.b.c.b.b.b.b.b.b.b.b.b.b.b.b.b.b.b.b.C.D.l.t.w.m.b.b.b.b.b.b.w.d.j.E.d.d.d.b.b.b.b.b.b.b.b.b.b.b.b.b.b.b.b.b.b.b.b.b.b.b",
".b.b.b.b.b.b.b.b.b.b.b.b.b.b.b.b.b.b.b.b.b.k.f.f.i.n.o.w.CQtQtQtQt.F.G.H.I.J.K.L.M.t.d.rQtQtQtQtQt.a.a.b.b.b.b.b.b.b.b.b.b.b.b.b",
"QtQtQtQtQtQtQtQtQtQtQtQtQtQtQtQtQtQtQtQtQt.N.l.l.l.l.h.n.o.OQt.B.P.Q.R.S.T.U.V.W.X.Y.p.k.m.bQtQtQt.a.bQtQtQtQtQtQtQtQtQtQtQtQtQt",
"QtQtQtQtQtQtQtQtQtQtQtQtQtQtQt.r.rQtQtQtQtQt.b.m.k.Z.u.v.O.0.C.p.1.2.3.4.5.6.7.7.8.9#..g.N.k.bQtQt.a.bQtQtQtQtQtQtQtQtQtQtQtQtQt",
"QtQtQtQtQtQtQtQtQtQtQtQtQtQt.b##.P.OQtQtQtQtQt#a#b#c#d#e#f#g#h.l#f#i#j#k#l#m#n#o#p#q#r.R#s.f.k.C.b.d.bQtQtQtQtQtQtQtQtQtQtQtQtQt",
"QtQtQtQtQtQtQtQtQtQtQtQtQtQt.s#t#u#v#w.bQtQt#x#y#h.N#z#A#g#B#C#D#E#E#y#F#G#H#I#s#C#J#K#L#M#H#N.Y#O.z.bQtQtQtQtQtQtQtQtQtQtQtQtQt",
".d.d.d.d.d.d.d.d.d.d.d.d.d.c.B#P#Q.I#R#S.j.d#T.1#U#V#W#X#Y#Z#0#1#2#3#B#4#z.f.N.u#5.f#6#7#8#9a.#A.l.qa#.d.d.d.d.d.d.d.d.d.d.d.d.d",
"QtQtQtQtQtQtQtQtQtQtQtQtQt.d.Oaaabacadaeaf.i#Eag#Yahaiaj.Hakalamanaoapaq#f.D.1.t.m#t#y.Taras#9atau.Nav.C.bQtQtQtQtQtQtQtQtQtQtQt",
"QtQtQtQtQtQtQtQtQtQtQtQt.w.taw#4axayalazaAaBaCaDaEaFaGaHaIaJaKaLaMaNaO#YaP#z.lauaQaRaIaSak.JaTaU#h.l.fawaV.s.w.b.bQtQtQtQtQtQtQt",
"QtQtQtQtQtQtQtQtQtQtQt.bau.DaW#OaXaYaZa0a1a2a3a4aDasa5a6a7a8a9b.axb#babbaM#E#gaabcbdbebfbgaPbhbi.p.l.p#Abj#..uawaw.o.bQtQtQtQtQt",
"QtQtQtQtQtQtQtQtQtQtQt.t.lbkblbmbnanbo.1afbpbq.HbrbsbtbubvbwbxbybzbzbAbBbCbebD#KbqaUbEbjbj.W.IbFbGaw#zbH.HatbIbJ.Y.f.uQtQtQtQtQt",
"QtQtQtQtQtQtQtQtQtQt.wbK.DbLbMaBbNbObPbQ#h#BbRbAbzbzbzbzbSbTbUbVbWbzbzbzbzbzbXbYbtbZb0.Wb1b2b3b4.kb5.ZaB#Yb6bUbyb7.p.pQtQtQtQtQt",
".d.d.d.d.d.d.c.c.a.a.Z.l.Ya#b8.pb9c.c##YcaascbbzbzbzbzbzbzbzbzbzbzbzbzbzbzbzbzbzbzcccdcebPcf.IcgchcibLaB#Ecjanckbacl.D.d.d.d.d.d",
"QtQtQtQtQtQt.#.aQt.m.Ncm.Ecnco.DaxbzcpcqcrbYbzbzbzbzbzbzbzbzbzbzbzbzbzbzbzbzbzbzcsbzctcucvcwcx#TcyczcA.Z.f.p#O#haw.fawQtQtQtQtQt",
"QtQtQtQtQtQt.#.aQt.i.fcBcAcCcDcEcFbzbzbzbXbzbzbzbzbzbzbzbzbzbzbzbzbzbzbzbzbzbzbzbAbzbzbzbAbWcGavcHcI.EcnbG.l#z.t.u.t.bQtQtQtQtQt",
"QtQtQtQtQtQt.#.a.z.gcm.ncJcKcLcMcNbzbzbzbzbzbzbzbzbzbzbzbzbXbzbzbzbzbzbzbzbzbzbzbzbzbXbzcOcPcQcR#OcS.EcA.e.N.Z.w.bQtQtQtQtQtQtQt",
"QtQtQtQtQtQt.#.c.p.D.e.Z#A#Ha4cTcucUcVcWcXcucucXcYcZc0c0c1cpcpc2c3c4c5c6bYc6c6c7c8c9d.bCbad#daa9dbaBdc.EcA#O.N.oQtQtQtQtQtQtQtQt",
".#.#.#.#.#.#.#dd.gau.q.Dde.TaIbdajdfbHaNdgdhdidjdk#Zandldmdndo#lazckdpdqdrdsbadt.Laoa0dubjdvdkdfdv#h.1aucScS.pau.d.#.#.#.#.#.#.#",
".a.a.a.a.a.a.j.D.hdw.ldxdy#Wdz#2cjdA#N.NdedBdCdDdE#6aOdvdvdFdGdHdIdJdKdLdEdMbodNdOdx.N.fdMdzdPdQdRa3.f.f.pcobG.fdS.a.a.a.a.a.a.c",
"QtQtQtQtQtQt.o.D.f.f.f.p#N#zaBaa#z.p.D.f.l.l.l.D.D.D#Ndb.Y#z#z.Y#z#N#EaB.f.D.D.D.f.D.p.1dTauaB#z#Nau.f.g.g.p.DdU.u.OQtQtQtQtQt.c",
"QtQtQtQtQtQt.o.fdVdWdXdYdZd0d1d2d0d3d4d1d3d5dXd1d0d6d7d8d9e.e#eaeaebecedeeeed6d9efd9egd8e.dWefeheiejekeldWd6embG.k.rQtQtQtQtQt.c",
"QtQtQtQtQtQt.t.Deleneneneoeoeoeoeoeoeoeoeneneoenenenepeoeoeoeoeoeqerereoeseseoeoetepepepepepeneueoesesenenesd9au.k.rQtQtQtQtQt.c",
"QtQtQtQtQtQt.k.DdWevesesesesesesesesesesesesesesesesesepewexeyezeAd6eBeCeDeyeEeneveseseseseseseseFeGeHesesesdWclaw.rQtQtQtQtQt.c",
"QtQtQtQtQtQt.Y.feBeveseseseneIeJeFeseseseseseseseseseEeK.p.D.D.pbG.p.D.x.f.DbGeLeMeNeuesesesesesekbGeOesesesee.paw.rQtQtQtQtQt.c",
".a.a.a.a.a.a.Z.lePeveseseQeReSauejesesesesesesesesd6eT.l.g.DaucScneUeVbLbLbLeW.EeV.DekeseoeEd7eseXemeYeseoeseZe0.k.d.a.a.a.a.a.d",
"QtQtQtQtQtQt.k.leyevesese1e2.lauekeseseseseseoeFe3eT.f.pcocBcA.EcB.n.EcAcAcAcAe4bM.DeReseQe5e6eIeQeFeoeEeHeQd7bl.e.rQtQtQtQtQtQt",
"QtQtQtQtQtQt.u.geyeveseseod6cBe7e8eseseseseudWe6.g.l.De0#O#O.Z.Zcoco.Ze9cB.EcSeT.l.DeyeseodXf.eeeSeSeYf#cofaeEau.t.rQtQtQtQtQtQt",
"QtQtQtQtQtQt.k.leDevesesesesepepesesesesfbf.bGaue0.f.l.g.g.g.g.g.g.f.l.l.DaubG.l.lcSe8eseseseseIe5eOeQfceEeod7cmeW.rQtQtQtQtQtQt",
"QtQtQtQtQtQt.u.lfdeveoepepewezesesesesenem.laufe.ofecofebL.e.e.ebM.Zco.f.l.l.ldwe4eleseseQeBekeuepepeseseseseZcmeW.rQtQtQtQtQtQt",
"QtQtQtQtQtQtff.lfgesewf#eCfhe2eIeseseseIfi.l.pbG.Z.k.ebLbL.efecob8feau.g.l.fbMeDe1eseseoeHcle5eueXfje1esesesd7auch.rQtQtQtQtQtQt",
".a.a.a.a.a.a.k.lcCeueZbk.p.faud6esesesfbeK.l.l.l.l.D.p.pbK.x.g.l.l.l.l.fblfkd7eseseseseneXexeIeseHcmexesesesflcm.z.d.a.a.a.a.a.a",
".a.a.a.a.a.a.k.l.kfmeuekfnbLeSeAesfofofpd0e2au.D.l.l.l.l.l.l.l.g.paubLfgfqerevesesfrevesevevevevfsftfuevevevflcoeU.d.a.a.a.a.a.a",
"QtQtQtQtQtQt.t.le9eKfveDfweyftekfqflflflezfmemfxbLbMcob8fybLcBfhf#fzeefafAfBfCfDe1e1fBfBfBfCfCfCfbfCfCfCfDfEfmau.t.rQtQtQtQtQtQt",
"QtQtQtQtQtQtaw.lcme9bMe9.ee9.efeeVcScScScSbLcS.ee9febMbMfe.eeVcScSfFcSfFcS.nfGcBcBeWeUeUcBe4e4e4.EcBcBe4cBcSbM.f#z.wQtQtQtQtQtQt",
"QtQtQtQtQtQt.D.l.D.D.x.D.D.f.f.f.f.f.f.f.f.f.f.f.D.D.D.D.D.D.D.D.D.D.D.f.f.D.D.D.D.x.f.f.x.D.D.D.f.f.f.D.D.D.g.l.g.tQtQtQtQtQtQt",
"QtQtQtQtQtQt.ffxeGeOfHfIeNfJe7fxfKcncBfFcB.EfLcAfMfMfMeSfxe7e5e5eNfNfIeNfOfHeNfIdVfgfPfgfHfHfOf#eNfIfHfHeOfQeNfi.g.i.bQtQtQtQtQt",
"QtQtQtQtQtQt.ZeAfRfCe1eAewefd0dXfSfvfHfHfNfjeRe.eXeAfBfTeFepepeQeQfUfuezezflekdWd7eAeIfVeFeFeFeFeQeFeYfEe.ekezeGdw.i.bQtQtQtQtQt",
".c.d.d.d.d.dcofWfXcncBe2bLbLe2e4e4e6fifKcnbLeTeTbLe2e2bLe2fYfifi.EbLb8cmb8e9cSeWfYfKfKcAfFcSe4cAcnbLb8coaue0bLeW.D.q.j.d.d.d.d.d",
".a.b.b.b.b.bcofZfi.ZfefefebLcBcn.Ecn.E.Ee4e2eVfe.Z.Zcocm.qbGclcl.p.p.qcmcmbGclclbGcl.p.pbGaubG.p.p.pclauco.ZcSeW.D.i.bQtQtQtQtQt",
".aQtQtQtQtQtbMd7f0.EcAcB.ZbMbMb8cmcmcmcmcmbMb8cocob8bM.ke9e9.ebLcScB.EcA.EeUbMcm.q.p.pe0e9eUe2.e.ecS.ncncncBcSfe.g.i.bQtQtQtQtQt",
".aQtQtQtQtQtcofZeKcAcAeWaue0bG.qauco.ZbMfe.kbM#Ocm.qcl.p.pbG.qaucmco.Z.ZbMfe.ZcmcobGbGbGaucoaucobMe9e9co.qcl.p.p.l.i.bQtQtQtQtQt",
".aQtQtQtQtQt.pcAeWcBcBcBeV.kawbM.ee9bLcne4eUcS.e.Z.Z#O.qbGbGbK.D.D.D.p.pdw.p.pbGcoco.ZbMbMcoclclbGcocmbGbGaucm#O.f.i.bQtQtQtQtQt",
".aQtQtQtQtQt.lbG.p.D.p.ib8eTfeau.paubMeTeTfeeTeTb8bMbMb8coau.p.D.f.f.f.f.f.f.f.Ddw.p.p.p.pdw.D.D.D.D.D.D.Dbk.pbG.l.i.bQtQtQtQtQt",
".a.#.#.#.#.#.ZcmbG.p.p.q#OcBbLeTcmbMbLcnf1eVe9bMbM#Ocmauau.Zau.pf2f2f2cl.p.p.p.1.qaBclclcl.pf3cl.pcl.p.pbGf2.q.Y.t.mQtQtQtQtQtQt",
".c.c.c.c.c.c.c.c.c.c.c.c.c.c.c.c.c.c.c.c.c.c.c.c.c.c.c.c.c.c.c.c.c.c.c.c.c.d.d.d.d.d.d.d.d.d.d.d.d.d.d.c.d.d.d.d.d.d.d.d.d.d.d.d",
"QtQtQtQtQtQtQtQtQtQtQtQtQt.#.aQtQtQtQtQtQtQtQtQtQtQtQtQtQtQtQtQtQtQtQtQtQtQtQtQtQtQtQtQtQtQtQtQtQtQt.b.cQtQtQtQtQtQtQtQtQtQtQtQt",
"QtQtQtQtQtQtQtQtQtQtQtQtQt.#.aQtQtQtQtQtQtQtQtQtQtQtQtQtQtQtQtQtQtQtQtQtQtQtQtQtQtQtQtQtQtQtQtQtQtQt.b.cQtQtQtQtQtQtQtQtQtQtQtQt",
"QtQtQtQtQtQtQtQtQtQtQtQtQt.#.aQtQtQtQtQtQtQtQtQtQtQtQtQtQtQtQtQtQtQtQtQtQtQtQtQtQtQtQtQtQtQtQtQtQtQt.b.cQtQtQtQtQtQtQtQtQtQtQtQt",
"QtQtQtQtQtQtQtQtQtQtQtQtQt.#.aQtQtQtQtQtQtQtQtQtQtQtQtQtQtQtQtQtQtQtQtQtQtQtQtQtQtQtQtQtQtQtQtQtQtQt.b.cQtQtQtQtQtQtQtQtQtQtQtQt",
"QtQtQtQtQtQtQtQtQtQtQtQtQt.#.aQtQtQtQtQtQtQtQtQtQtQtQtQtQtQtQtQtQtQtQtQtQtQtQtQtQtQtQtQtQtQtQtQtQtQt.b.cQtQtQtQtQtQtQtQtQtQtQtQt"};
