/* XPM */
static char *dummy[]={
"64 64 570 2",
".t c #000000",
"aV c #153013",
"bL c #161519",
"eR c #1c1500",
"bS c #1c372e",
"#v c #222126",
"cL c #263c36",
".Z c #272117",
"#l c #2a3c2d",
".s c #2b0002",
"g2 c #2b2000",
"bK c #2b2a30",
"a7 c #2e413d",
".r c #2f2925",
"ds c #322915",
".w c #323138",
"cY c #33001a",
".m c #35312f",
"g3 c #360000",
"dO c #383023",
"fe c #38373f",
"eu c #38463c",
"#0 c #391527",
".h c #3b3737",
"dP c #3c1518",
"da c #3e2130",
".l c #3e362e",
"gC c #403622",
"aB c #412126",
".P c #413c3e",
"eQ c #433c36",
"#5 c #434e48",
"ei c #453c2c",
"#4 c #454144",
"br c #46292f",
"eW c #47524e",
"d9 c #482924",
"cq c #48413d",
".v c #4a3037",
"dw c #4a4135",
".O c #4a4649",
"du c #4c302e",
"ce c #4c4543",
"fZ c #4e3023",
".n c #4e373e",
"gk c #4e453c",
"ca c #4e4a4e",
".i c #503736",
"fz c #504534",
"bq c #504a49",
"aA c #505857",
"fl c #52362d",
".g c #523c44",
"gm c #524a42",
"#E c #524e53",
"#1 c #543c3d",
"db c #54493b",
"fy c #554933",
"dN c #563c35",
"de c #565258",
"fd c #573c2c",
"g0 c #574d42",
"aq c #575153",
"cM c #575f5f",
"#w c #584143",
"d2 c #59413c",
"gD c #594d3a",
"c0 c #59514d",
"#h c #595f5b",
"dS c #5b4134",
"dt c #5b4549",
"a2 c #5b5557",
"et c #5c5141",
"bI c #5c625f",
"bb c #5d4543",
"cK c #5e363e",
"d8 c #5e453c",
".k c #5e4a4e",
"dd c #5e5139",
"ah c #5e585b",
"g1 c #604533",
".q c #604a48",
"el c #605547",
"c# c #606462",
"dQ c #614942",
"fA c #615540",
"bH c #615c5f",
".o c #623c44",
"ej c #633c3d",
"fx c #63493b",
".f c #634e4d",
"fc c #635439",
"eP c #63584c",
"bR c #636766",
"cZ c #644d48",
"eF c #645846",
"eV c #645f63",
"al c #654149",
"gy c #65583f",
"bc c #664143",
"dR c #664d41",
".u c #665152",
"eO c #665b51",
"bJ c #665f5f",
"eB c #666a6a",
"cA c #67514d",
"eM c #675b4b",
"ap c #676267",
"av c #676a66",
".j c #68454e",
"bs c #694549",
"dc c #695147",
".D c #695557",
"cl c #696d6d",
"dv c #6a4542",
".p c #6a4a53",
"fw c #6a5140",
"ek c #6a5552",
"eL c #6a5e50",
"cf c #6a615e",
"bQ c #6a6c69",
"eY c #6b5e4b",
".C c #6b6466",
".d c #6c4a4e",
"eX c #6c554c",
"bC c #6c585b",
".c c #6d4948",
".e c #6d4e58",
"eh c #6d5446",
".7 c #6d6f6c",
"eN c #6e5851",
"es c #6e6150",
"bP c #6e676a",
"ee c #6e7273",
".b c #6f4d53",
"d3 c #6f584c",
"gE c #6f614a",
"#k c #6f6766",
".a c #704d4d",
"#m c #705b5a",
"Qt c #715157",
"ef c #715846",
"eS c #716a6d",
".# c #725152",
"d5 c #725b51",
"bt c #725e5e",
"ga c #72644f",
"eT c #727473",
"d7 c #735b4b",
"f4 c #735e5a",
"eZ c #736759",
"gr c #74514d",
".E c #74555b",
"eE c #746754",
"bk c #747676",
"gZ c #755e55",
".Q c #756162",
"cV c #757f7b",
"d4 c #765e50",
"gg c #76674e",
".R c #77585b",
"eg c #775e4a",
".F c #776466",
"eI c #776958",
"cb c #776f70",
"cW c #777879",
"gK c #786155",
"cX c #78676d",
"gO c #786953",
"cm c #78817e",
"d6 c #795851",
"gI c #79614f",
"cd c #796769",
"gM c #79694e",
"cu c #797b7c",
"fv c #7a614a",
"eH c #7a6c58",
"cB c #7a8381",
"eK c #7b6459",
"eG c #7b6c53",
"#W c #7b7479",
"#z c #7b837e",
"gN c #7c5b55",
"eC c #7c6454",
".S c #7c6a6d",
".0 c #7c7476",
"cv c #7c7d7e",
"gJ c #7d644f",
"eJ c #7d675d",
"gW c #7d6f5c",
"#g c #7d7d7b",
"gn c #7e5e5a",
"gb c #7e6758",
"ff c #7e6a65",
"e2 c #7e6e57",
"#S c #7e7679",
"#F c #7e8580",
"f2 c #7f6753",
"fb c #7f6e52",
"bG c #7f7f7e",
"ev c #7f8786",
"gj c #80615e",
"er c #80695c",
"gh c #80715b",
".B c #807f7b",
"aw c #808184",
"em c #816958",
".N c #817879",
"eU c #818181",
"fu c #826953",
"fo c #82735f",
"fB c #836c5c",
"fW c #83735b",
".x c #838383",
"gd c #84645d",
"gs c #846c57",
".8 c #848380",
"fH c #856f60",
"fV c #85765f",
"e. c #858586",
"d1 c #858d8d",
"eD c #866761",
"fM c #866e5b",
"cJ c #868583",
"#D c #868d8a",
"fY c #877863",
"ao c #878f8f",
"en c #88715f",
"fF c #887164",
"f9 c #88785e",
"gL c #89715b",
"gY c #89785a",
"eo c #8a7363",
"gt c #8a7a62",
"a6 c #8a898b",
"ew c #8a9796",
"eq c #8b735f",
"f0 c #8c6c60",
"fn c #8c7c66",
"#y c #8c9292",
"ep c #8d7663",
"fm c #8d7667",
"bl c #8d8d90",
"f6 c #8e755e",
"ba c #8e8589",
"dr c #8e9494",
"e0 c #8f7866",
"gf c #8f7e65",
"fg c #8f8170",
".G c #8f8586",
"df c #8f8f92",
"ak c #8f9491",
"e1 c #907862",
"gV c #907e61",
"bE c #908788",
"fG c #918069",
"bV c #918e8d",
"a1 c #919094",
".6 c #919693",
"go c #927a66",
"ge c #928065",
"b9 c #929092",
"gu c #937a62",
"dM c #939296",
"cp c #939796",
"g. c #947c69",
"fT c #948268",
"cc c #948386",
"dx c #94999a",
"fU c #957c66",
"bZ c #959291",
"gX c #967c61",
"f5 c #96846c",
"#X c #969496",
"#Q c #969995",
"fP c #977e69",
"fC c #98806c",
"f1 c #98866b",
"#3 c #988e92",
"ed c #989698",
".y c #989a98",
"fX c #998069",
".T c #999696",
"#i c #999c9a",
"cN c #999ea0",
"gz c #9a8270",
"gc c #9a886f",
".A c #9a9798",
"cU c #9a9e9e",
"ft c #9b826c",
"gF c #9c8a72",
"aW c #9c9e9a",
"ax c #9c9fa0",
"cy c #9ca4a0",
"cH c #9d9998",
"ag c #9d9f9e",
"gv c #9e846c",
"#n c #9e9496",
"cz c #9e9b9c",
"gS c #9f866f",
"#f c #9f969b",
"eA c #9f9ca1",
"bD c #9fa19e",
"dT c #9fa9aa",
"g# c #a18872",
"gl c #a18e71",
"ey c #a1a4a6",
"fa c #a2886e",
"fh c #a29074",
"gR c #a29077",
"bY c #a29e9e",
"e# c #a29fa5",
".z c #a2a4a2",
"ai c #a2a4a4",
"fS c #a38a72",
"ex c #a3a1a6",
"ez c #a3a5a6",
"gU c #a48a6e",
"fK c #a48c78",
"gH c #a49177",
"bW c #a4a1a4",
"dh c #a4a7aa",
".5 c #a4aba9",
"fO c #a58c75",
"gi c #a59174",
"dg c #a5a7a8",
".M c #a5aba7",
"gT c #a68c71",
"f8 c #a69377",
"aS c #a6a2a6",
"#6 c #a6a7a6",
"di c #a6a9ac",
"fk c #a78e74",
"fJ c #a78e78",
"gQ c #a79373",
"bv c #a7a8a8",
"c1 c #a7a8aa",
"d# c #a7aaae",
"aE c #a8aaac",
"fE c #a99077",
"f7 c #a99576",
"fi c #a9977c",
"#R c #a9a4a4",
"ea c #a9a6aa",
"bM c #a9aaa9",
"cO c #a9abaf",
"gp c #aa9074",
"gx c #aa917a",
"co c #aaa5a6",
"eb c #aaa7ac",
"#e c #aaaaa7",
"dL c #aaabad",
"fL c #ab9177",
".Y c #ababa9",
"c2 c #abadaf",
"ad c #abb1af",
"cw c #abb6b4",
"#G c #aca7a8",
"ec c #acadad",
"fs c #ad8c71",
"gP c #ad9376",
"f. c #ad937a",
"e4 c #ad9a7f",
"dy c #ada8ac",
"#2 c #adaeaf",
"aD c #adaeb1",
"ct c #adb2b0",
"e9 c #ae957d",
"dz c #aeaaad",
".H c #aeaead",
"dq c #aeb0b3",
"dA c #aeb5b8",
"f# c #af9579",
"gq c #b09576",
"e7 c #b0967c",
"e5 c #b0977f",
"gw c #b09b7b",
"bX c #b0b0af",
"e3 c #b19679",
"ae c #b1b1b1",
"gB c #b29676",
"fN c #b2987c",
"e6 c #b2987f",
"dj c #b2b2b4",
"cC c #b2b6b4",
"e8 c #b3937d",
"gA c #b39879",
"gG c #b39a82",
"cg c #b3b2b2",
"bA c #b3b8b5",
"fj c #b49a7f",
"fQ c #b49f7e",
"bz c #b4b4b4",
"dU c #b4b9b9",
"fr c #b59a7c",
"fR c #b59b81",
"am c #b5b4b2",
"bx c #b5b9b7",
"fD c #b69b7e",
"#d c #b6b5b4",
"fp c #b79d81",
".4 c #b7b1b2",
".W c #b7b6b6",
"#V c #b7b6b7",
"f3 c #b89d7e",
"d. c #b8b4ba",
"cI c #b8b8b9",
"fq c #b99f81",
"fI c #b99f84",
"by c #b9b8b7",
"aJ c #b9bdbc",
"d0 c #babebe",
"c3 c #bbbabc",
"an c #bbbfbf",
"cP c #bbc3c1",
"#Z c #bcbab9",
"#T c #bcbabb",
"cx c #bcbfbe",
"a3 c #bdc0bf",
"dp c #bdc5c4",
"aT c #bebdbe",
".U c #bfc2bf",
"ar c #bfc2c1",
"bg c #c0c3c2",
"#c c #c1babc",
"aU c #c1bfbf",
"#b c #c1bfc1",
".V c #c1c3c1",
"aN c #c1c4c4",
"dV c #c1c4c6",
"#q c #c2bbbe",
"#U c #c2c4c2",
".3 c #c3c0c1",
"#x c #c3cac8",
".9 c #c4c2c2",
"#C c #c4cac7",
"#j c #c5bebf",
"aF c #c5c8c9",
"c9 c #c5cccd",
".I c #c6c3c2",
"au c #c7c4c6",
"#P c #c7c8c5",
"dW c #c7c9c8",
".L c #c8c5c5",
"aI c #c8c5c7",
"#a c #c8c9c7",
"#o c #c8caca",
"bu c #c9cac8",
"#A c #cacbca",
"ci c #cacbcb",
"ch c #cbcccb",
"aR c #cbcccd",
"#r c #ccc4c7",
".J c #cdcacb",
"#u c #cdcdcd",
"c4 c #cdcfd0",
".X c #cecaca",
"ay c #cecfce",
"#p c #ced3d1",
".K c #cfd0d0",
"bT c #d0d1d1",
".2 c #d0d4d1",
"bj c #d2d6d3",
"c. c #d4d4d4",
"dB c #d4d8d8",
"dK c #d5d2d5",
"## c #d5d4d2",
"a8 c #d6d6d8",
"#. c #d6d9d8",
"b# c #d7d6d6",
"cT c #d7d7d9",
"aC c #d7dad9",
"cD c #d8d7d8",
"b2 c #d8dbda",
"az c #d8dcdc",
"af c #d9d4d5",
"bO c #d9d8d8",
"dk c #d9d8d9",
"b7 c #d9dddc",
"b4 c #dad8d6",
"aZ c #dadedd",
"a0 c #dbdddb",
"dZ c #dddbdc",
"bp c #dde0de",
"b8 c #dedcdd",
"b1 c #dee1df",
"aY c #dee1e1",
"bh c #dee4e0",
"dX c #dfdede",
"dY c #dfe2e2",
"a. c #e0dadc",
"#s c #e0dfde",
"cF c #e0dfe0",
"c8 c #e0e6e3",
"#H c #e1e0df",
"cj c #e1e3e1",
"b0 c #e1e4e3",
".1 c #e2e4e2",
"bw c #e5e6e6",
"c5 c #e5e7e7",
"#B c #e7e7e5",
"aj c #e7e8e8",
"dC c #e8e6e7",
"#9 c #e8e8e7",
"dJ c #e8e9e9",
"aK c #e9e9e7",
"bf c #e9e9e8",
"aM c #eaeae9",
"#Y c #eaebec",
"#7 c #ebebea",
"dl c #ebeced",
"a5 c #ebefed",
"aQ c #ebefee",
"bm c #ece6e8",
"cE c #ece9eb",
"cS c #ecedee",
"aO c #ededed",
"b. c #edf1ef",
"b3 c #eeeeee",
"cn c #eef1ee",
"aH c #eef2f0",
"b6 c #efefee",
"bU c #f0f4f1",
"cQ c #f0f4f3",
"dD c #f1f1f0",
"#N c #f1f4f2",
"do c #f2f2f0",
"bB c #f2f2f2",
"a# c #f3eff1",
"aG c #f3f3f1",
"#I c #f3f3f3",
"bF c #f3f6f5",
"cs c #f4f7f6",
"dI c #f5f4f5",
"aX c #f5f8f7",
"bN c #f6f5f5",
"ac c #f6f5f6",
"cG c #f6f8f6",
"c7 c #f6f9f8",
"#M c #f7f6f6",
"ck c #f7f9f7",
"dE c #f7fcf9",
"b5 c #f8f7f7",
"#J c #f8faf8",
"#8 c #f9f8f8",
"#L c #f9fbf9",
"dH c #f9fcfc",
"dF c #f9fefb",
"#t c #faf9f9",
"a4 c #fafbf9",
"bo c #fafcfa",
"at c #fafcfc",
"dm c #fbf6f9",
"#K c #fbfaf9",
"be c #fbfcfa",
"bn c #fbfdfd",
"#O c #fcfbfa",
"bd c #fdfbfc",
"cr c #fdfefc",
"c6 c #fdfffe",
"a9 c #fdffff",
"bi c #fefcfd",
"aP c #fefffc",
"ab c #fefffe",
"dn c #feffff",
"as c #fffbfd",
"aL c #fffdfe",
"dG c #fffefe",
"cR c #fffffd",
"aa c #ffffff",
"QtQtQtQtQtQtQtQtQtQtQtQtQt.#.aQtQtQtQtQtQtQtQtQtQtQtQtQtQtQtQtQtQtQtQtQtQtQtQtQtQtQtQtQtQtQtQtQtQtQt.b.cQtQtQtQtQtQtQtQtQtQtQtQt",
".b.b.b.b.b.b.b.b.b.b.b.b.b.a.c.b.b.b.b.b.b.b.b.b.b.b.b.b.b.b.b.b.b.b.b.b.b.b.b.b.b.b.b.b.b.b.b.b.b.b.a.c.b.b.b.b.b.b.b.b.b.b.b.b",
".b.b.b.b.b.b.b.b.b.b.b.b.b.b.b.b.c.a.b.b.b.b.b.b.b.b.b.b.b.b.b.b.b.b.b.b.b.b.b.b.b.b.b.b.b.b.b.b.b.b.b.b.b.b.b.b.c.b.b.b.b.b.b.b",
"QtQtQtQtQtQtQtQtQtQtQtQtQtQtQtQt.d.bQtQtQtQtQtQtQtQtQtQtQtQtQtQtQtQtQtQtQtQtQtQtQtQtQtQtQtQtQtQtQtQtQtQtQtQtQtQt.cQtQtQtQtQtQtQt",
"QtQtQtQtQtQtQtQtQtQtQtQtQtQtQtQt.d.bQtQtQtQtQtQtQtQtQtQtQtQtQtQtQtQtQtQtQtQtQtQtQtQtQtQtQtQtQtQtQtQtQtQtQtQtQtQt.cQtQtQtQtQtQtQt",
"QtQtQtQtQtQtQtQtQtQtQtQtQtQtQtQt.d.bQtQtQtQtQtQtQtQtQtQtQtQtQtQtQtQtQtQtQtQtQtQtQtQtQtQtQtQtQtQtQtQtQtQtQtQtQtQt.cQtQtQtQtQtQtQt",
"QtQtQtQtQtQtQtQtQtQtQtQtQtQtQtQt.d.bQtQtQtQtQtQtQtQtQtQtQtQtQtQtQtQtQtQtQtQtQtQtQtQtQtQtQtQtQtQtQtQtQtQtQtQtQtQt.cQtQtQtQtQtQtQt",
"QtQtQtQtQtQtQtQtQtQtQtQtQtQtQtQt.d.bQtQtQtQtQtQtQtQtQtQtQtQtQtQtQtQtQtQtQtQtQtQtQtQtQtQtQtQtQtQtQtQtQtQtQtQtQtQt.cQtQtQtQtQtQtQt",
".a.a.a.a.a.a.a.a.a.a.a.a.a.a.a.a.c.d.a.a.a.a.a.a.a.a.a.a.a.a.a.a.a.a.a.a.a.a.a.a.a.a.a.a.a.a.a.a.a.a.a.a.a.a.a.a.c.a.a.a.a.a.a.a",
".#.#.#.#.#.c.#.#.#.#.#.#.#.#.#.#QtQt.#.#.#.#.#.#.#.#.#.#.#.#.#.#.#.#.#.#.d.b.#.#.#.#.#.#.#.#.#.#.#.#.#.#.#.#.#.#Qt.#.#.#.#.#.#.#",
"QtQtQtQtQt.cQtQtQtQtQtQtQtQtQtQtQtQtQtQtQtQtQtQtQtQtQtQtQtQtQtQtQtQtQtQt.d.bQtQtQtQtQtQtQtQtQtQtQtQtQtQtQtQtQtQtQtQtQtQtQtQtQtQt",
"QtQtQtQtQt.cQtQtQtQtQtQtQtQtQt.b.bQtQtQtQtQtQtQtQtQtQtQtQtQtQtQtQtQtQtQt.d.bQtQtQtQtQtQtQtQt.e.f.g.h.i.jQtQtQtQtQtQtQtQtQtQtQtQt",
"QtQtQtQtQt.cQtQtQtQtQtQtQtQt.k.l.m.n.o.j.bQtQtQtQtQtQt.e.p.j.k.q.q.j.d.b.d.bQtQtQtQtQtQt.b.k.n.r.s.s.t.nQtQtQtQtQtQtQtQtQtQtQtQt",
"QtQtQtQtQt.cQtQtQtQtQtQtQt.u.v.w.x.y.z.A.B.C.D.b.E.F.G.H.I.J.K.L.M.N.O.P.f.Q.D.dQtQt.R.S.T.U.V.W.X.Y.Z.iQtQtQtQtQtQtQtQtQtQtQtQt",
".b.b.b.b.b.c.b.b.b.b.b.b.b.j.P.0.1.2.3.4.5.6.7.g.8.9#.###a#b#c#d#e#f#g#h#i#j#k#l.D#m#n#o#p#q#r#s#t#u#v.i.b.b.b.b.b.b.b.b.b.b.b.b",
".b.b.b.b.b.b.b.b.b.b.b.b.b.d#w.C#x#y#z#A#B#C#D#E#F#G#b#H#I#J#K#L#L#t#M#N#M#O#P#Q#R#S#T.4#U#V#W#X#Y#Z#0#1.b.b.b.b.b.b.b.b.b.b.b.b",
"QtQtQtQtQtQtQtQtQtQtQtQtQt.b.n.h#2#3#4#5#6#7#8#9a.a#aaaaaaaaaaaaaaaaaaaaaaaaaaabacadaeafag.Oahaiajak.ralQtQtQtQtQtQtQtQtQtQtQtQt",
"QtQtQtQtQtQtQtQtQtQtQtQtQt.e.n.ramanaoapaqaraaaaaaasataaaaaaaaaaaaaaaaaaaaaaabaaaaaa#KauavawaxayazaAaB.pQtQtQtQtQtQtQtQtQtQtQtQt",
"QtQtQtQtQtQtQtQtQtQtQtQtQtQt#w#v.HaCaDaEaFaGaaaaaHaIaJaKaLaaaaaaaaaaaaaaaaaMaNaOaaaaaPaQaRaSaTaOaUaV.vQtQtQtQtQtQtQtQtQtQtQtQtQt",
"QtQtQtQtQtQtQtQtQtQtQtQtQtQtal.raWaXaYaZaXaaaaaaa0a1a2a3a4aaaaaaaaaaaaaaa5a6a7a8aaaaaaa9b.b##9aGba#0bbQtQtQtQtQtQtQtQtQtQtQtQtQt",
".d.d.d.d.d.d.d.d.d.d.d.d.d.cbc.v.AaLaaaaaabdbe#ObfaRbgbhbiaaaaaaaaaaaaaabjbkblbmbn#Kbobiaaaaaabpbqbrbs.d.d.d.d.d.d.d.d.d.d.d.d.d",
"QtQtQtQtQtQtQtQtQt.E.SbtQtalbqaqbuaaaaaa#9a3ae.Hbvae#Pbwbnaaaaaaaaaaaaaaa5.3bxbybzaebA.KbBaaaa#s#h.gQtQtQtQtQtQtQtQtQtQtQtQtQtQt",
"QtQtQtQtQtQtQtQtQtbC.AbDbE#k.P.HbFaaaaaab#bGbHbIbJbKbLbMbNaaaaaaaaaaaaaaaabObGbPbQbRbSbIbTaaaabUbV#5alQtQtQtQt.b.eQtQtQtQtQtQtQt",
"QtQtQtQtQtQtQtQtQt.e.8bWbXbYbZb0aaaaaaaa#Nb1b2#s#sagbLbM#Maab3azbTb4b5aaaab6b7b8#sb8bzb9b8aaaabic.c#cacbcc.Gcdce#wQtQtQtQtQtQtQt",
"QtQtQtQtQtQtQtQtQt.bcfbZcgchci#9aaaaaaaaaaaaaaaaaacjbA#saackbzcl#5cmcnaaaaaaaaaaaaaaaXaO#Oaaaaaab5cg.6bvcocpbQcq#wQtQtQtQtQtQtQt",
"QtQtQtQtQtQtQtQtQt.b#k.yadbycga8aaaaaaaaaaaaaaaaaabi#Lcraacsctcucvcw#KaaaaaaaaaaaaaaaaaaaaaaaaaaaXcxcybWcz.xcl.u.bQtQtQtQtQtQtQt",
".d.d.d.d.d.d.c.c.acA.faqbIbHcBcCcDbFaaaaaaaaaaaaaaaaaaaaaaabcEcDcFcGaaaaaaaaaaaaaaaaaaaaaaaaaaaacr#scH#icIbMcJaqcK.d.d.d.d.d.d.d",
"QtQtQtQtQtQt.#.aQtQt#1.s#4cLcMcNcOcPb7cQabaaaaaaaaaaaaaaaaaaaacRaaaaaaaaaaaaaaaaaaaaaaaaaaaacrcScTaFcUcVcW.8cX.p.fQtQtQtQtQtQtQt",
"QtQtQtQtQtQt.#.aQt.jcYaBcZc0bLclcNc1c2c3c4c5b5aaaaaaaaaaaaaaaaaaaaaaaaaaaaaaaaaaaac6aaaac7c8c9d.d#c1aoa7.tda.fQtQtQtQtQtQtQtQtQt",
"QtQtQtQtQtQt.#.a.ebrbLdbdcddce#vdedfdgdhdidj.9dkdldmabaaaaaaaaaaaaaaaaaaaaaaaaaadncrdoa0dpdqdidhaEdr.O.mds.Z.n.bQtQtQtQtQtQtQtQt",
"QtQtQtQtQtQt.#.adtbLdudcdcdcdvdw#v.rbRdxdyc1dgdzdAaNdBdCdDc7dEdFabaaaaaaaadGdHdIdJdKaJc2c1c1aEdLdM#4#vdNdvdO.Z.qQtQtQtQtQtQtQtQt",
".#.#.#.#.#.#.#.caBdPdQdcdcdcdcdRdSbr.Z.mcldraidgdgdTaEaDdUdVdWchafdXdYaYdZa8#od0djbMc1didLdLc1d1#4.rdwdcdcd2bLdu.a.#.#.#.#.#.#.#",
".a.a.a.a.a.a.a.i.Zd2d3d4d5d6d7d3.cd8d9.ZbL#0ca.7e.dxe#dhaEdieadheaebececaEdic1c1diaEdLdLc1edeebK.rd2efegd7ehei.Zej.a.a.a.a.a.a.c",
"QtQtQtQtQtQtekcqelemeneoepepeqereseteu#v.t.t.t.tbL.ha2cl#Wevewaxexeyezc1didiaEdLdgeAdraweB.h.t.tbLdbd4eCeCesd2bL.nQtQtQtQtQtQt.c",
"QtQtQtQtQtQteDeEeFeGeHeIeHemeHeJeKeLeMeNeOePePeMd2eQeQ.Z.teR#v.haqc#eSeTeUeveeeBeVeW.wbLa7c0elcZdQeleXeYegeZeYds#1QtQtQtQtQtQt.c",
"QtQtQtQtQtQte0e1e2e3e4e5e4e6e4e6e6e7e3e8e9f.f#e7fafbehfcfd.l.lei.v.l.m#v#v.r#v.mfecabHfffgfhe3e9f.f#fif#e7fjfkflcqQtQtQtQtQtQt.c",
"QtQtQtQtQtQtfmfnfofpfpfpfpfpfpfpfpfpfpfpfpfpfpfpfqfrfsfteqfufveXfwfxfyd2fzd8fAd5fBfCfke7fDfqfpfpfpe7f.fpfpfpfEeieQQtQtQtQtQtQt.c",
"QtQtQtQtQtQtfFfGfHfpfpfpfpfpfpfjfjfpfpfpfpfpfpfpfpfpfIfJfHehfyetesfAd2eid9.ldbfmfKfkfqfpfpfpfpfpfLe2fMfNfpfpfO.m.vQtQtQtQtQtQt.c",
".a.a.a.a.a.afHfPemfQfpfpfRe6fSe2fTfpfpfpfpfpfpfpfpfjfUfVfWfzcY.rdOei.idu.ldududQdcdOfXfpfpfjfNfpfSehfYfpfpfpfEfZeQ.a.a.a.a.a.a.d",
"QtQtQtQtQtQtf0f1f2f3fpfpe7enfMfnfYfDfpfpfpfpfpfDfNfGfVeHdwdNeMf4eMcZdRcZdcdcdcdcd8.ZemfpfDf5f6f7fjf.fjfNf.fDf8ei#1QtQtQtQtQtQtQt",
"QtQtQtQtQtQteDfXemf3fpfpfjfteqf9g.fpfpfpfpfpfrg#gaesend3d3gbfMfMeKePdQdQcZdccZdQdweRgbfpfDfUgagcfafUe7fte2faf.dwcKQtQtQtQtQtQtQt",
"QtQtQtQtQtQtgdfPemf3fpfpfpfRg#fXfNfpfpfpfRfEeH.l.rgafUfUgefUgfgeepeMds.rdudNdSdO.tdsepfpfpe6fkfOggfAfhgcghgif.dw#wQtQtQtQtQtQtQt",
"QtQtQtQtQtQtgjfUeEfDfpfpfpfje9fpfpfpfpfpfkeldOd2dSbbeYdcgk.l.l.leidNd9eR.t.Z.t.tdsd4fNfpfRe7f#fNglfSfDfpfpfpf8dwgmQtQtQtQtQtQtQt",
"QtQtQtQtQtQtgngoese5fDfafLf1d7gpfpfpfpfpep.tdOd9d8bbbbdQcZcZdQbbfyd2db.r.t.tbLfxf9f.fpfpfEfWemfLfjfEfNfpfpfpfEdwgmQtQtQtQtQtQtQt",
".a.a.a.a.a.ad6epeFgqf.dReqe1dcgffpfpfpfjem.t.scY.rd9du.idudOaB.r.ZeR.t.teR.leEgifpfpfpfpfSf2gofjgleFfnfpfpfpfEdwd2.a.a.a.a.a.a.a",
".a.a.a.a.a.agrgsdRg.fjgtf9fXemgufqfqfqfqfteieR.t.t.t.t.t.t.t.t.t.t.t.reid7gvfjfqfqfIfqfqfDgwfpfqfLd4e1fqfIfIgxdNd8.a.a.a.a.a.a.a",
"QtQtQtQtQtQt.ugyd8eNgzfOfte0gog#e3gAgAgAgBfUgaeteidOdOdOdOgCeidNgDgEfVgFe9fjgGfjfjfjfjfjfjgGgGgGfRe5e5gGfje6gHdwgmQtQtQtQtQtQtQt",
"QtQtQtQtQtQt.jdOd9fxfxdRcZdcd3d7d4gIgIgIgIgJd4d7eld8dbdbdbdQcZeXeggKeCf2gbfBenfMfBgsgLfMfMenfHeneoenenengseKgM.r.vQtQtQtQtQtQtQt",
"QtQtQtQtQtQtgNgIesgId4d4d5d5d5eLeLeYeYeMehfAdQdb#1.vdugC.ldueieieQeidu.l.l.leidu.lbrdOdObrbrbr.lbrbrbr.lduduaB.tdsQtQtQtQtQtQtQt",
"QtQtQtQtQtQtgfgofPgefPg.fUfGfTfUgogfgueqfMgOgEelbbfzeQ.l.leieQdwdwfzfzdwdwdNfzfzgk.ieQeidwdwdw.idwdwdwdwfzfzdNeibLQtQtQtQtQtQtQt",
"QtQtQtQtQtQtenfVf#gPgQfLfLgRfSgSfPgtenfBfWfVgtfTftftftgvgSfSfOfkfhgxfEgTgUgTg#fafkfKfJgpgxf.f.gxf#f#fLf8f8fkfOe1.lQtQtQtQtQtQtQt",
".c.d.d.d.d.dfVgVfngWemgbeEgIgagId7eMeYeYeXehd7ggeHgWghghfoe1fUgXe1fHeEeYd3d4gIeCemeneqfVgLfBfMeqgtengKeYd3dcgEd5.m.d.d.d.d.d.d.d",
".a.b.b.b.b.bfBgYgZdNfzdNdbd8dQfAeFeXeLd7d3eld8dN.ieiei.l.l.lbrd9dO.r.raBdOdObr.lduei.ldOd9brd9dOaB.r.r.raBdOdwdbdOQtQtQtQtQtQtQt",
".aQtQtQtQtQtd4fCfMbbbbbbd2d2dbd2d2gkdNdNdNgkdNdwdwdNdNdNdNdN.idw.idNdbg0dQd2eibrdOaB.rdOfld2fz.iei.i#1bbfxdQcZdQdOQtQtQtQtQtQtQt",
".aQtQtQtQtQtfyfPgbcZdcdRdudOdOdOdOd9.leieidw.idu.lbrdOdO.leidwdNgkd2d8d8d8d8d2.ieidO.rdOdudbgkgkd2dQdQd2dNei.l.mbLQtQtQtQtQtQtQt",
".aQtQtQtQtQtbLgad3dcdcdc#1dweQdNd2d8d2g1d8#wd2#1dS.i.ld9dOdOaB.r.r.rdObrdObr.l.l.idw.i.idNdw.lbrdudNdNdubrd9gC.l.rQtQtQtQtQtQtQt",
".aQtQtQtQtQt.tdweQdu.ld2dbdbd8.i.ldudbdceFetetetdSfzdSdNeQeidO.Z.Z.Z.Z.Z.Z.Z.ZdPdObr.l.ldud9.r.r.rdOdOaBaBdO.meidsQtQtQtQtQtQtQt",
".a.#.#.#.#.#brcYbLeReR.Z.Z.ldOaB.Z.Z.rd9dO.r.rds.Z.Z.Z.Z.ZaBdPbLg2g2g2g2g3eReRg3.Z.ZbLbLbLbLbLbLbLbLbLbLbLcY.ZdsbrQtQtQtQtQtQtQt",
".c.c.c.c.c.c.c.c.c.c.c.c.c.c.c.c.c.c.c.c.c.c.c.c.c.c.c.c.c.c.c.c.c.c.c.c.c.d.d.d.d.d.d.d.d.d.d.d.d.d.d.c.d.d.d.d.d.d.d.d.d.d.d.d",
"QtQtQtQtQtQtQtQtQtQtQtQtQt.#.aQtQtQtQtQtQtQtQtQtQtQtQtQtQtQtQtQtQtQtQtQtQtQtQtQtQtQtQtQtQtQtQtQtQtQt.b.cQtQtQtQtQtQtQtQtQtQtQtQt",
"QtQtQtQtQtQtQtQtQtQtQtQtQt.#.aQtQtQtQtQtQtQtQtQtQtQtQtQtQtQtQtQtQtQtQtQtQtQtQtQtQtQtQtQtQtQtQtQtQtQt.b.cQtQtQtQtQtQtQtQtQtQtQtQt",
"QtQtQtQtQtQtQtQtQtQtQtQtQt.#.aQtQtQtQtQtQtQtQtQtQtQtQtQtQtQtQtQtQtQtQtQtQtQtQtQtQtQtQtQtQtQtQtQtQtQt.b.cQtQtQtQtQtQtQtQtQtQtQtQt",
"QtQtQtQtQtQtQtQtQtQtQtQtQt.#.aQtQtQtQtQtQtQtQtQtQtQtQtQtQtQtQtQtQtQtQtQtQtQtQtQtQtQtQtQtQtQtQtQtQtQt.b.cQtQtQtQtQtQtQtQtQtQtQtQt",
"QtQtQtQtQtQtQtQtQtQtQtQtQt.#.aQtQtQtQtQtQtQtQtQtQtQtQtQtQtQtQtQtQtQtQtQtQtQtQtQtQtQtQtQtQtQtQtQtQtQt.b.cQtQtQtQtQtQtQtQtQtQtQtQt"};
