/* XPM */
static char *dummy[]={
"64 64 517 2",
".h c #000000",
".q c #161519",
".i c #1c1500",
"#R c #1c372e",
".6 c #222126",
"af c #263c36",
".f c #272117",
"d6 c #2a3c2d",
"aB c #2b0002",
"b. c #2b2000",
".W c #2b2a30",
".O c #2f2925",
"bC c #314135",
"bA c #322915",
"dL c #323138",
".g c #33001a",
"#r c #35312f",
"cL c #360000",
"ac c #383023",
"#8 c #38373f",
"bY c #391527",
"#y c #3b3737",
"dK c #3c1518",
"gc c #3e2130",
"aX c #3e362e",
"#T c #3e4a43",
"bB c #403622",
".p c #412126",
"#O c #413c3e",
"#P c #433c36",
"#C c #434e48",
"cV c #44001b",
"ch c #453c2c",
"#D c #454144",
".C c #46292f",
"#I c #47524e",
"fb c #482924",
".N c #48413d",
".r c #4a3037",
"b0 c #4a4135",
"#d c #4a4649",
"cx c #4c302e",
"fK c #4c412b",
"#s c #4c4543",
"#9 c #4c5552",
"cU c #4e1526",
".k c #4e373e",
"fk c #4e453c",
"d2 c #4e4a4e",
"bX c #4e554d",
"ci c #503736",
"e6 c #504534",
"#p c #504a49",
"#B c #505857",
"ck c #52362d",
".R c #523c44",
"cu c #524a42",
"dT c #524e53",
"cv c #543621",
".P c #543c3d",
"bZ c #54493b",
"#z c #544e4e",
"dr c #545c5b",
"dp c #554933",
"#X c #555c56",
"fr c #563c35",
".5 c #56414a",
".7 c #564e48",
"ba c #565258",
"cJ c #573c2c",
"e7 c #574d42",
"dI c #575153",
"bz c #575f5f",
".e c #584143",
"#Q c #59413c",
"fd c #594d3a",
"do c #59514d",
"#Y c #59555c",
"bV c #595f5b",
"cg c #5a2923",
"dq c #5b3037",
"e8 c #5b4134",
".S c #5b4549",
"fS c #5b5147",
"#b c #5b5557",
"dS c #5b6263",
"cT c #5c402b",
"ff c #5c5141",
".B c #5d3745",
"e9 c #5d4543",
"ez c #5e363e",
"cw c #5e453c",
".s c #5e4a4e",
"cI c #5e554d",
"#c c #5e585b",
"d1 c #5e6566",
".l c #604a48",
"fX c #605547",
"cM c #614942",
".E c #614e53",
"fh c #615540",
"#H c #615c5f",
"cW c #623c44",
"fR c #63493b",
".D c #634e4d",
"cN c #63584c",
"#x c #636766",
".o c #644d48",
"fu c #645846",
"#A c #645f63",
"dQ c #646a6d",
"#q c #654149",
"cy c #664d41",
".V c #665152",
"bE c #66626b",
"ak c #666a6a",
"fY c #675b4b",
"aJ c #676a66",
"gb c #68413c",
".Q c #68454e",
"ft c #685b45",
".n c #694549",
"cK c #695147",
".T c #695557",
"ct c #696263",
"cj c #6a4542",
".m c #6a4a53",
"g. c #6a5140",
"cX c #6a5552",
"f9 c #6a5e50",
"be c #6a6c69",
"#E c #6a6f74",
"e5 c #6b5e4b",
"## c #6b6466",
"dt c #6b6f70",
".d c #6c4a4e",
"cS c #6c554c",
".c c #6d4948",
".j c #6d4e58",
"fW c #6d5446",
"#a c #6d5c63",
"dR c #6d676d",
"#w c #6e5b5f",
".b c #6f4d53",
"eX c #6f584c",
"fz c #6f614a",
"#W c #6f6766",
"ab c #6f7170",
"#7 c #6f7b79",
".a c #704d4d",
"Qt c #715157",
"#. c #716a6d",
".# c #725152",
"fw c #72644f",
"aY c #726a69",
"bx c #727473",
"fJ c #735b4b",
"al c #737679",
".U c #74555b",
"fg c #746754",
"ga c #755e55",
".8 c #76585f",
"fi c #765e50",
"#J c #766f73",
".A c #767672",
".9 c #776466",
"b4 c #777879",
"dM c #778181",
"fV c #786155",
".t c #78676d",
"fs c #786953",
"c5 c #786f6c",
"#S c #787875",
"aU c #78817e",
"#v c #796769",
"cO c #797173",
"e0 c #7a6c58",
"cY c #7a7b78",
"by c #7a8381",
"f0 c #7b6c53",
"f1 c #7c6454",
"bd c #7c7476",
"aV c #7c7d7e",
"eY c #7d644f",
"d7 c #7d6f5c",
"#N c #7d767c",
"d0 c #7d7f84",
"fl c #7e6758",
"fT c #7e6e57",
"#G c #7e7679",
"cP c #7e7d78",
"dP c #7e7f81",
"fm c #7f6753",
"av c #7f8786",
"f2 c #80695c",
"e1 c #80715b",
".M c #807f7b",
"bb c #808184",
"fU c #816958",
"#Z c #818181",
"f8 c #82735f",
"fZ c #836c5c",
"eZ c #846c57",
"#t c #848b88",
"ey c #85765f",
"aW c #857d81",
"fH c #866e5b",
"aI c #878d88",
"eT c #88715f",
".4 c #888786",
"#F c #888788",
"fq c #89715b",
"#6 c #89898e",
"fI c #8a7363",
"f4 c #8a7a62",
"au c #8a898b",
"fv c #8b735f",
".L c #8b8988",
"dO c #8b8b90",
".K c #8b908d",
"eP c #8c7c66",
"dN c #8c8b8d",
".I c #8c9292",
"eQ c #8d7663",
"e2 c #8d7c62",
"#0 c #8d8d90",
"aw c #8d928f",
"dY c #8d9496",
"fL c #8e755e",
"ef c #8e7e69",
"a9 c #8e8d8d",
"g# c #8f7866",
"fF c #8f7e65",
"bq c #8f9491",
"dU c #8f9698",
"eL c #907862",
"aT c #908f8f",
"eU c #918069",
"cZ c #918e8d",
"dX c #919094",
".H c #919693",
"eK c #927a66",
"fe c #928065",
"d3 c #929092",
"dV c #929798",
"ed c #93826c",
".X c #938b90",
".J c #93908f",
"dZ c #939296",
".F c #939796",
"b3 c #93999d",
"fy c #947c69",
"eO c #948268",
"ec c #948573",
"bu c #949294",
"e4 c #957c66",
"e# c #95856f",
"aZ c #959291",
"dW c #959499",
"co c #959998",
"e. c #967e6d",
"ev c #96846c",
"cd c #968f97",
"d5 c #969b9c",
"d9 c #977e69",
"ea c #97866f",
"a6 c #978f94",
"eW c #98806c",
"ee c #988170",
"ex c #98866b",
"bW c #989491",
"d4 c #989698",
"bf c #989a98",
"at c #989c9c",
"ew c #998069",
"et c #99907b",
"#5 c #99979a",
"eb c #9a8270",
"er c #9a886f",
"aA c #9a9798",
"#K c #9a9e9e",
"d8 c #9b826c",
"el c #9b8a75",
"dJ c #9b999d",
"bT c #9b9e9c",
"ce c #9b9fa2",
"ek c #9c8a72",
"#4 c #9c9fa0",
"eg c #9d846f",
"fa c #9d8a6e",
"ei c #9d8c75",
"eu c #9d8c78",
".u c #9d9998",
"eq c #9e846c",
"ej c #9e8672",
"eJ c #9e8c71",
"aS c #9e9f9c",
"#o c #9ea1a0",
"#2 c #9ea1a2",
"eM c #9f866f",
"em c #9f8e78",
"#u c #9f9598",
"#1 c #9f969b",
"#j c #9f9c9e",
"a. c #9fa3a4",
"fC c #a0866b",
"aC c #a09c9c",
"#k c #a09ea3",
"az c #a0a7a1",
"eh c #a18872",
"eR c #a18e71",
"bc c #a1979a",
"fx c #a2886e",
"ep c #a28a78",
"fG c #a29074",
"en c #a2927d",
"eo c #a29281",
".G c #a2a4a2",
"fn c #a38a72",
"es c #a38a75",
"aR c #a3a5a6",
"#i c #a3a6a8",
"#U c #a4a1a4",
"f. c #a58c75",
"cc c #a5a1a2",
"cs c #a5a7a8",
"fQ c #a68c71",
"fj c #a69377",
"#3 c #a6a2a6",
"#V c #a6a7a6",
"aQ c #a6ada9",
"eN c #a78e74",
"fP c #a78e78",
"bN c #a79c9e",
"dy c #a7a8aa",
"#l c #a7aead",
"dz c #a7aeaf",
"fM c #a88e71",
"fN c #a8907b",
"bM c #a89ea0",
"fc c #a99077",
"fp c #a99576",
"aK c #a9aaa9",
"f# c #aa9074",
"fO c #aa917a",
"fE c #aa9679",
"du c #aaa7ac",
"aj c #aaaaa7",
".z c #aaabab",
"as c #aaabad",
"eV c #ab9177",
"c0 c #ababa9",
"f6 c #ac937d",
"bF c #aca7a8",
"aP c #acadad",
"am c #acb2b2",
"a7 c #acb8b6",
"f5 c #ad9376",
"fo c #ad937a",
"aa c #adadab",
"br c #adaeaf",
"ds c #adaeb1",
"dB c #adb4b4",
"f3 c #ae957d",
"dx c #aeaaad",
"ay c #aeaead",
"dA c #aeb0b3",
"eS c #af9579",
"a0 c #afaeab",
"dw c #afb0b1",
"f7 c #b09576",
"e3 c #b0967c",
"aO c #b0b1b3",
"bG c #b0b5b4",
"bk c #b1abab",
"dv c #b1adb1",
"bg c #b1b1b1",
"eH c #b2987c",
"dC c #b2b2b4",
"dH c #b2b8b7",
"eG c #b39a82",
"an c #b3b4b6",
"dF c #b3b4b8",
"eC c #b49a7f",
"bw c #b4aeaf",
"aH c #b4b9b9",
"eE c #b59a7c",
"eA c #b59b81",
"ax c #b5afb1",
"a8 c #b5b5b6",
"dG c #b5b5b8",
"ar c #b5b9b7",
"dD c #b5babb",
"eB c #b69b7e",
"bt c #b6b5b4",
"eF c #b79d81",
"fB c #b79d84",
"ao c #b7b6b7",
"aN c #b7bbbb",
"a1 c #b8b2b4",
"bo c #b8b8b9",
"#h c #b8b8bb",
"eD c #b9987c",
"eI c #b99f81",
"fA c #b99f84",
"bn c #b9b8b7",
"aq c #b9bdba",
"aL c #b9bdbc",
"bl c #bab9b9",
"a2 c #bab9bb",
"dE c #babebe",
"fD c #bba080",
"ag c #bbbebc",
"bs c #bcbab9",
".v c #bcbabb",
"cn c #bcbcbe",
"ap c #bdbbbc",
"a3 c #bdc0bf",
"cf c #bdc1c1",
"aM c #bebdbe",
"bS c #bfbdbc",
".x c #c1c3c1",
"bD c #c1c4c4",
"dm c #c1c9c8",
"b# c #c2c4c2",
"b2 c #c2c5c7",
".y c #c3c0c1",
".w c #c3c5c4",
"bh c #c5c6c5",
"#L c #c6cccb",
"a# c #c8c5c7",
"bv c #c8cdcb",
"#m c #c9cac8",
"bp c #c9cbcd",
"b1 c #c9cfcb",
"aF c #cacbca",
"#M c #cbcccb",
"cR c #cbcccd",
"dn c #ccd6d5",
"ai c #cdcdcb",
"c6 c #cdcfd0",
"bm c #ced3d1",
"#g c #ced3d2",
"bj c #cfd0d0",
"cl c #d0d0ce",
"bU c #d1d1cf",
"#n c #d1d2d2",
"#e c #d3d3d2",
".Y c #d4d4d4",
"cF c #d4d8d8",
"a5 c #d5d1d1",
"cH c #d5d8d6",
"ad c #d7d6d6",
"bi c #d8d7d6",
"bH c #d9d8d9",
"b5 c #dad9da",
"c4 c #dadcda",
".3 c #dbe2df",
"cG c #dde0e0",
"bO c #dedcdb",
"bL c #dedcdd",
".2 c #dee1df",
"a4 c #dfdddd",
"cA c #dfdfe1",
"c8 c #e0dfde",
"cQ c #e0dfe0",
"b8 c #e1dbdd",
"aG c #e1e6e4",
"aD c #e2e4e2",
"#f c #e3e4e2",
"ae c #e3e5e3",
".1 c #e4e5e4",
"ah c #e5e6e6",
"db c #e6ebeb",
"c9 c #e7e7e5",
"cB c #e8e8e7",
"b7 c #e9e6e7",
"da c #e9eaeb",
"aE c #eaebec",
"cm c #ebebea",
".Z c #ebefee",
"b9 c #ece8e8",
".0 c #ececec",
"dc c #ecf0ee",
"cr c #ede9e9",
"d. c #ededed",
"cz c #edf1ef",
"d# c #eeebed",
"cp c #eeeeed",
"cE c #eeeeee",
"c7 c #efefef",
"de c #eff6f4",
"bI c #f1f4f2",
"dk c #f1f4f4",
"dl c #f2eeef",
"di c #f2f9f7",
"dd c #f3f4f5",
"cb c #f3f6f5",
"dg c #f3f9f6",
"b6 c #f4f4f3",
"df c #f5f4f5",
"dj c #f7f3f4",
"dh c #f7f9f7",
"ca c #f8faf8",
"bR c #fafcfc",
"c1 c #fbfcfa",
"c3 c #fbfdfe",
"bJ c #fcfbfa",
"c. c #fcfefe",
"cD c #fdfefc",
"bK c #fdffff",
"cq c #fefffc",
"bQ c #fefffe",
"c# c #feffff",
"cC c #fffdfe",
"c2 c #fffdff",
"bP c #ffffff",
"QtQtQtQtQtQtQtQtQtQtQtQtQt.#.aQtQtQtQtQtQtQtQtQtQtQtQtQtQtQtQtQtQtQtQtQtQtQtQtQtQtQtQtQtQtQtQtQtQtQt.b.cQtQtQtQtQtQtQtQtQtQtQtQt",
".b.b.b.b.b.b.b.b.b.b.b.b.b.a.c.b.b.b.b.b.b.b.b.b.b.b.b.b.b.b.b.b.b.b.b.b.b.b.b.b.b.b.b.b.b.b.b.b.b.b.a.c.b.b.b.b.b.b.b.b.b.b.b.b",
".b.b.b.b.b.b.b.b.b.b.b.b.b.b.b.b.c.a.b.b.b.b.b.b.b.b.b.b.b.b.b.b.b.b.b.b.b.b.b.b.b.b.b.b.b.b.b.b.b.b.b.b.b.b.b.b.c.b.b.b.b.b.b.b",
"QtQtQtQtQtQtQtQtQtQtQtQtQtQtQtQt.d.bQtQtQtQtQtQtQtQtQtQtQtQtQtQtQtQtQtQtQtQtQtQtQtQtQtQtQtQtQtQtQtQtQtQtQtQtQtQt.cQtQtQtQtQtQtQt",
"QtQtQtQtQtQtQtQtQtQtQtQtQtQtQtQt.d.bQtQtQtQtQtQtQtQtQtQtQtQtQtQtQtQtQtQtQtQtQtQtQtQtQtQtQtQtQtQtQtQtQtQtQtQtQtQt.cQtQtQtQtQtQtQt",
"QtQtQtQtQtQtQtQtQtQtQtQtQtQtQtQt.d.bQtQtQtQtQtQtQtQtQtQtQtQtQtQtQtQtQtQtQtQtQtQtQtQtQtQtQtQtQtQtQtQtQtQtQtQtQtQt.cQtQtQtQtQtQtQt",
"QtQtQtQtQtQtQtQtQtQtQtQtQtQtQtQt.d.bQtQtQtQtQtQtQtQtQtQtQtQtQtQtQtQtQtQtQtQtQtQtQtQtQtQtQtQtQtQtQtQtQtQtQtQtQtQt.cQtQtQtQtQtQtQt",
"QtQtQtQtQtQtQtQtQtQtQtQtQtQtQtQt.d.bQtQtQtQtQtQtQtQtQtQtQtQtQtQtQtQtQtQtQtQtQtQtQtQtQtQtQtQtQtQtQtQtQtQtQtQtQtQt.cQtQtQtQtQtQtQt",
".a.a.a.a.a.a.a.a.a.a.a.a.a.a.a.a.c.d.a.a.a.a.a.a.a.a.a.a.a.a.a.a.a.a.a.a.a.a.a.a.a.a.a.a.a.a.a.a.a.a.a.a.a.a.a.a.c.a.a.a.a.a.a.a",
".#.#.#.#.#.c.#.#.#.#.#.#.#.#.#.#QtQt.#.#.#.#.#.#.#.#.#.#.#.#.#.#.#.#.#.#.d.b.#.#.#.#.#.#.#.#.#.#.#.#.#.#.#.#.#.#Qt.#.#.#.#.#.#.#",
"QtQtQtQtQt.cQtQtQtQtQtQtQtQtQtQtQtQtQtQtQtQtQtQtQtQtQtQtQtQtQtQtQtQtQtQt.d.bQtQtQtQtQtQtQtQtQtQtQtQtQtQtQtQtQtQtQtQtQtQtQtQtQtQt",
"QtQtQtQtQt.cQtQtQtQtQtQtQtQtQtQtQtQtQtQtQtQtQtQtQtQtQtQtQtQtQtQtQtQtQtQt.d.bQtQtQtQtQtQtQtQtQtQtQtQtQtQtQtQtQtQtQtQtQtQtQtQtQtQt",
"QtQtQtQtQt.cQtQtQtQtQtQtQtQtQtQtQtQtQtQtQtQtQtQtQtQtQtQtQtQtQtQtQtQtQtQt.d.bQtQtQtQtQtQtQtQtQtQtQtQtQtQtQtQtQtQtQtQtQtQtQtQtQtQt",
"QtQtQtQtQt.cQtQtQtQtQtQtQtQtQtQtQtQtQtQtQtQt.e.f.g.h.i.e.jQtQtQtQtQtQtQt.d.bQtQtQtQtQtQtQtQtQtQtQtQtQtQtQtQtQtQtQtQtQtQtQtQtQtQt",
".b.b.b.b.b.c.b.b.b.b.b.b.b.b.b.b.b.b.b.b.b.b.b.b.k.g.l.d.b.b.b.b.b.b.m.d.n.o.d.d.d.b.b.b.b.b.b.b.b.b.b.b.b.b.b.b.b.b.b.b.b.b.b.b",
".b.b.b.b.b.b.b.b.b.b.b.b.b.b.b.b.b.b.b.b.b.b.b.p.q.r.s.eQtQtQtQtQt.t.u.v.w.x.y.z.A.e.d.jQtQtQtQtQt.a.a.b.b.b.b.b.b.b.b.b.b.b.b.b",
"QtQtQtQtQtQtQtQtQtQtQtQtQtQtQtQtQtQtQtQtQtQt.B.C.q.i.g.g.bQtQt.D.E.F.G.H.I.J.K.L.M.N.O.P.Q.bQtQtQt.a.bQtQtQtQtQtQtQtQtQtQtQtQtQt",
"QtQtQtQtQtQtQtQtQtQtQtQtQtQtQt.j.jQtQtQtQtQtQt.b.e.k.R.S.T.U.V.O.W.X.Y.Z.0.1.2.3.y.4.5.i.6.P.bQtQt.a.bQtQtQt.V.Q.dQtQtQtQtQtQtQt",
"QtQtQtQtQtQtQtQtQtQtQtQtQtQt.b.7.E.TQtQtQtQtQt.8.9#.###a#b#c#d.h#b#e#f#g#h#i#j#k#l#m#n#o#p.q.P.V.b.d.bQt.b#q.5.W#rQtQtQtQtQtQtQt",
"QtQtQtQtQtQtQtQtQtQtQtQtQtQt.s#s#t#u#v.bQtQt#w#x#d.6#y#z#c#A#B#C#D#D#x#E#F#G#H#I#B#J#K#L#M#N#O.N#P#Q.D#q.k#R#d#S#RQtQtQtQtQtQtQt",
".d.d.d.d.d.d.d.d.d.d.d.d.d.c.D#T#U.w#V#W.n.d#X.W#Y#Z#0#1#2#3#4#5#6#7#A#R#y.q.6.R#8.q#9a.a#aaab#z.h.fac.f.i#.adae#c.d.d.d.d.d.d.d",
"QtQtQtQtQtQtQtQtQtQtQtQtQt.d.Tafagahaiajak.r#Dal#2amanao.vapaqarasatauav#b.f.W.e.Q#s#xawaxayazaA.raB.O.RaCaDaE.z#PQtQtQtQtQtQtQt",
"QtQtQtQtQtQtQtQtQtQtQtQt.m.e.k#RaFaGaqaHaI#raJaKaLaMaNaOaPaQaRaSaTaUaV#2aW#y.haXaYaZa0a1a2a3a4a5#D.R#Za6a7a8a9#r.rQtQtQtQtQtQtQt",
"QtQtQtQtQtQtQtQtQtQtQt.baX.fb.#Pb##lbabbbcbdbebfaKbgbhbibjbkblbmaFbnbobpaT#D#cafbqbrbsbtbuaWbvbw.6#rbxbybz#O.O#r.SQtQtQtQtQtQtQt",
"QtQtQtQtQtQtQtQtQtQtQt.e.hbAbBbCbDasbE.WakbFbG.vbHbIbJbKbLbMbNbObPbPbQbRadbS#mbTbGbU#obVbV.L.wbW#r.N#y.q#CbX.s.EQtQtQtQtQtQtQtQt",
"QtQtQtQtQtQtQtQtQtQt.mbY.fbZb0#rb1b2b3b4#d#Ab5bQbPbPbPbPb6b7b8b9c.bPbPbPbPbPc#cabJcbcc.Lcdcecf#S.Pcgch.h.eQt.TQtQtQtQtQtQtQtQtQt",
".d.d.d.d.d.d.c.c.a.aci.h.Ncjck.Oclcmcn#2cobgcpbPbPbPbPbPbPbPbPbPbPbPbPbPbPbPbPbPbPcqcrcfb3cs.wctcucvcw.ObY#q.d.d.d.d.d.d.d.d.d.d",
"QtQtQtQtQtQt.#.aQt.Q.6cx.ocych.faFbPczcAcBcabPbPbPbPbPbPbPbPbPbPbPbPbPbPbPbPbPbPcCbPcDcEcFcGcH#XcIcJcKb0cL.P.jQtQtQtQtQtQtQtQtQt",
"QtQtQtQtQtQt.#.aQt.r.qcMcKcNcOcPcQbPbPbPc#bPbPbPbPbPbPbPbPbPbPbPbPbPbPbPbPbPbPbPbQbPbPbPbQc.cR#pcScT.ocycUcV.QQtQtQtQtQtQtQtQtQt",
"QtQtQtQtQtQt.#.acW.icx.lcXcYcZc0c1bPbPbPbPbPbPbPbPbPbPbPbPc#bPbPbPbPbPbPbPbPbPbPbPbPc#bPc2c3c4c5#Pcw.ocK#Q.fci.bQtQtQtQtQtQtQtQt",
"QtQtQtQtQtQt.#.c.O.f#Qci#z#Gbfc6cEc7c8c9d.cEcEd.d#dadbdbdcczczdddedfdgdhcadhdhdidjdkdladbodmdnbldo#rdp.ocK#P.f.SQtQtQtQtQtQtQtQt",
".#.#.#.#.#.#.#dq.iaX.C.fdr.IaPbraodsdtaUdudvdwdxdy#3asdzdAdBdC#haHdDdEa3dFdGbodH.zatbbdIbVdJdydsdJ#d.WaXcwcw.OaX.d.#.#.#.#.#.#.#",
".a.a.a.a.a.a.n.faBdK.hdLdM#0dN#6dOdP#O.6drdQdRdSdT#9aVdJdJdUdVdWdXdYdZd0dTbzbEd1d2dL.6.qbzdNd3d4d5be.q.q.Ochac.qcW.a.a.a.a.a.a.c",
"QtQtQtQtQtQt.S.f.q.q.q.O#O#y#raf#y.O.f.q.h.h.h.f.f.f#Odo.N#y#y.N#y#O#D#r.q.f.f.f.q.f.O.Wd6aX#r#y#OaX.q.i.i.O.fcL.eQtQtQtQtQtQt.c",
"QtQtQtQtQtQt.S.qd7d8d9e.e#eaebeceaedeeebedefd9ebeaegeheiejekelememeneoepeqeqegejerejeseiekd8ereteuevewexd8egeyacezQtQtQtQtQtQt.c",
"QtQtQtQtQtQt.e.fexeAeAeAeBeBeBeBeBeBeBeBeAeAeBeAeAeAeCeBeBeBeBeBeDeEeEeBeFeFeBeBeGeCeCeCeCeCeAeHeBeFeFeAeAeFejaX.PQtQtQtQtQtQt.c",
"QtQtQtQtQtQt.P.fd8eIeFeFeFeFeFeFeFeFeFeFeFeFeFeFeFeFeFeCeJeKeLeMeNegeOePeQeLeReAeIeFeFeFeFeFeFeFeSeTeUeFeFeFd8.p.PQtQtQtQtQtQt.c",
"QtQtQtQtQtQt.N.qeOeIeFeFeFeAeVeWeSeFeFeFeFeFeFeFeFeFeReX.O.f.f.Oac.O.f.g.q.faceYeZe0eHeFeFeFeFeFewace1eFeFeFeq.O.kQtQtQtQtQtQt.c",
".a.a.a.a.a.aci.he2eIeFeFe3e4e5aXeveFeFeFeFeFeFeFeFege6.h.i.faXcwcye7e8bZbZbZe9.oe8.feweFeBeReheFf.eyf#eFeBeFfafb.P.a.a.a.a.a.a.d",
"QtQtQtQtQtQt.P.heLeIeFeFfcfd.haXeweFeFeFeFeFeBeSfee6.q.OchcMcK.ocM.l.ocKcKcKcKffb0.fe4eFe3fgfheVe3eSeBeReUe3ehbB.eQtQtQtQtQtQtQt",
"QtQtQtQtQtQt.R.ieLeIeFeFeBegcMfifjeFeFeFeFeHd8fh.i.h.ffb#P#PcicichchcifkcM.ocwe6.h.feLeFeBd9fleqe5e5f#fmchfneRaXe9QtQtQtQtQtQtQt",
"QtQtQtQtQtQt.P.heQeIeFeFeFeFeCeCeFeFeFeFfoflacaXfb.q.h.i.i.i.i.i.i.q.h.h.faXac.h.hcwfjeFeFeFeFeVfge1e3fpeReBehcxe9QtQtQtQtQtQtQt",
"QtQtQtQtQtQt.R.hfqeIeBeCeCeJeMeFeFeFeFeAey.haXfr.SfrchfrbZ#Q#Q#Qb0cich.q.h.h.hdKffexeFeFe3eOeweHeCeCeFeFeFeFfacxe9QtQtQtQtQtQtQt",
"QtQtQtQtQtQt.B.hfseFeJfmePftfdeVeFeFeFeVfu.h.Oacci.P#QbZbZ#QfrchckfraX.i.h.qb0eQfceFeFeBeU.pfgeHf.fvfceFeFeFehaXe9QtQtQtQtQtQtQt",
".a.a.a.a.a.a.P.hcNeHfabA.O.qaXegeFeFeFfoeX.h.h.h.h.f.O.ObY.g.i.h.h.h.h.qbBfweheFeFeFeFeAf.eKeVeFeUcxeKeFeFeFfxcxe9.a.a.a.a.a.a.a",
".a.a.a.a.a.a.P.h.PfyeHewfzbZe5eNeFfAfAfBeafdaX.f.h.h.h.h.h.h.h.i.OaXbZfsfCeEeIeFeFfDeIeFeIeIeIeIfEfFfGeIeIeIfxche7.a.a.a.a.a.a.a",
"QtQtQtQtQtQt.e.hfkeXfHeQfIeLfFewfCfxfxfxeMfyeyfJbZb0chckfKbZcMftfmfLeqfnfMfNfOfPfcfcfNfNfNfOfOfOfofOfOfOfPfQfyaXcWQtQtQtQtQtQtQt",
"QtQtQtQtQtQt.k.hcxfkb0fk#Qfk#Qfre8cwcwcwcwbZcw#Qfkfrb0b0fr#Qe8cwcwfRcwfRcw.lfScMcMe9e7e7cMffffff.ocMcMffcMcwb0.q.rQtQtQtQtQtQtQt",
"QtQtQtQtQtQt.f.h.f.f.g.f.f.q.q.q.q.q.q.q.q.q.q.q.f.f.f.f.f.f.f.f.f.f.f.q.q.f.f.f.f.g.q.q.g.f.f.f.q.q.q.f.f.f.i.h.fQtQtQtQtQtQtQt",
"QtQtQtQtQtQt.qfJeTe1fTfUe0fVfifJfWcycMfRcM.ofXcKfYfYfYe5fJfifgfge0fZfUe0f0fTe0fUd7fsf1fsfTfTf0fme0fUfTfTe1f2e0fubAQtQtQtQtQtQtQt",
"QtQtQtQtQtQtcieNf3fOfceNeJeread9f4fHfTfTfZfve4ekf.eNfNf5eSeCeCe3e3f6fGeMeMfxewd8eheNeVf7eSeSeSeSe3eSf#fQekeweMeTacQtQtQtQtQtQtQt",
".c.d.d.d.d.dchf8f9cycMfdbZbZfdfffffhfufWcybZe6e6bZfdfdbZfdg.fufu.obZckcxckfkcwe9g.fWfWcKfRcwffcKcybZckchaXfbbZcu.O.d.d.d.d.d.d.d",
".a.b.b.b.b.bchg#fucifrfrfrbZcMcy.ocy.o.offfde8frcicichcx.Cac.p.p.O.O.Ccxcxac.p.pac.p.O.OacaXac.O.O.O.paXchcicwe9.pQtQtQtQtQtQtQt",
".aQtQtQtQtQtb0ehga.ocKcMcib0b0ckcxcxcxcxcxb0ckchchckb0.Pfkfk#QbZcwcM.ocK.oe7b0cx.C.O.Ofbfke7fd#Q#Qcw.lcycycMcwfr.fQtQtQtQtQtQtQt",
".aQtQtQtQtQtchg#eXcKcKe9aXfbac.CaXchcib0fr.Pb0#Pcx.C.p.O.Oac.CaXcxchcicib0frcicxchacacacaXchaXchb0fkfkch.C.p.O.O.qQtQtQtQtQtQtQt",
".aQtQtQtQtQt.OcKe9cMcMcMe8.P.kb0#QfkbZcyffe7cw#Qcici#P.CacacbY.f.f.f.O.OdK.O.Oacchchcib0b0ch.p.pacchcxacacaXcx#P.OQtQtQtQtQtQtQt",
".aQtQtQtQtQt.hac.O.f.O.rcke6fraX.OaXb0e6e6fre6e6ckb0b0ckchaX.O.f.q.q.q.q.q.q.q.fdK.O.O.O.OdK.f.f.f.f.f.f.fbA.Oac.qQtQtQtQtQtQtQt",
".a.#.#.#.#.#cicxac.O.O.C#PcMbZe6cxb0bZcygbe8fkb0b0#PcxaXaXciaX.Ogcgcgc.p.O.O.O.W.C#r.p.p.p.OcU.p.O.p.O.Oacgc.C.NcuQtQtQtQtQtQtQt",
".c.c.c.c.c.c.c.c.c.c.c.c.c.c.c.c.c.c.c.c.c.c.c.c.c.c.c.c.c.c.c.c.c.c.c.c.c.d.d.d.d.d.d.d.d.d.d.d.d.d.d.c.d.d.d.d.d.d.d.d.d.d.d.d",
"QtQtQtQtQtQtQtQtQtQtQtQtQt.#.aQtQtQtQtQtQtQtQtQtQtQtQtQtQtQtQtQtQtQtQtQtQtQtQtQtQtQtQtQtQtQtQtQtQtQt.b.cQtQtQtQtQtQtQtQtQtQtQtQt",
"QtQtQtQtQtQtQtQtQtQtQtQtQt.#.aQtQtQtQtQtQtQtQtQtQtQtQtQtQtQtQtQtQtQtQtQtQtQtQtQtQtQtQtQtQtQtQtQtQtQt.b.cQtQtQtQtQtQtQtQtQtQtQtQt",
"QtQtQtQtQtQtQtQtQtQtQtQtQt.#.aQtQtQtQtQtQtQtQtQtQtQtQtQtQtQtQtQtQtQtQtQtQtQtQtQtQtQtQtQtQtQtQtQtQtQt.b.cQtQtQtQtQtQtQtQtQtQtQtQt",
"QtQtQtQtQtQtQtQtQtQtQtQtQt.#.aQtQtQtQtQtQtQtQtQtQtQtQtQtQtQtQtQtQtQtQtQtQtQtQtQtQtQtQtQtQtQtQtQtQtQt.b.cQtQtQtQtQtQtQtQtQtQtQtQt",
"QtQtQtQtQtQtQtQtQtQtQtQtQt.#.aQtQtQtQtQtQtQtQtQtQtQtQtQtQtQtQtQtQtQtQtQtQtQtQtQtQtQtQtQtQtQtQtQtQtQt.b.cQtQtQtQtQtQtQtQtQtQtQtQt"};
