/* XPM */
static char *dummy[]={
"64 64 689 2",
"c# c #000000",
"fd c #00011b",
"hJ c #002100",
"iR c #002900",
"dA c #002a16",
"eS c #0c3124",
"iT c #0d1628",
"eX c #153013",
"ak c #161519",
"d. c #1c1500",
".g c #1d2131",
"ez c #213723",
"aW c #222126",
"hq c #27001c",
"b# c #272117",
"iL c #2a3c2d",
"d1 c #2b0002",
"ej c #2b2000",
"d3 c #2b2a30",
"iM c #2e3c21",
"aB c #2f2925",
"fe c #2f313f",
"iG c #300028",
"ai c #314135",
"cP c #322915",
"cR c #33001a",
".U c #35312f",
"iN c #35412c",
"eQ c #354644",
"fk c #360000",
"cQ c #383023",
"cE c #38373f",
"cy c #391527",
"iI c #3b3012",
"a6 c #3b3737",
"iE c #3b4534",
"ew c #3b4a49",
"fj c #3c1518",
"iF c #3d452b",
".w c #3e2130",
"dn c #3e362e",
"av c #3e3c45",
"iS c #3f0004",
"hK c #403622",
"bo c #412126",
"eP c #413c3e",
"aA c #432a38",
"fL c #433c36",
"#R c #434e48",
"iU c #44001b",
"hi c #453c2c",
"#0 c #454144",
"eF c #454e42",
".W c #46292f",
"aw c #47524e",
"dy c #482924",
"fH c #494d32",
".f c #4a3037",
"gB c #4a4135",
"gN c #4c302e",
"fI c #4c412b",
"d0 c #4c4543",
"ff c #4c4a54",
"#3 c #4c5552",
"fF c #4d513a",
"d2 c #4e3023",
".F c #4e373e",
"gA c #4e453c",
"c9 c #503736",
"gy c #504534",
"i# c #505547",
"ex c #505857",
"iO c #522030",
"eZ c #52362d",
".V c #523c44",
"hj c #524a42",
"bI c #524e53",
".6 c #543c3d",
"ek c #54493b",
".G c #544e4e",
"hr c #554933",
"iK c #555846",
"#Q c #555c56",
"fb c #556762",
"iH c #562938",
"dL c #563c35",
"e0 c #574d42",
"ap c #575153",
"fG c #575840",
"bP c #575f5f",
"eD c #58292f",
".v c #584143",
"#. c #584654",
"h4 c #59413c",
"dz c #594d3a",
"do c #5a313e",
"il c #5a5b46",
"hZ c #5b3037",
"iD c #5b4134",
".u c #5b4549",
"fc c #5b4a58",
"hA c #5b5147",
"fg c #5b6263",
"gr c #5c5141",
"fx c #5c5b3f",
"eA c #5d4543",
"iJ c #5e363e",
"gc c #5e453c",
"ba c #5e4a4e",
"fh c #5e6566",
"eW c #603636",
"cS c #603c4a",
"aX c #604a48",
"fJ c #605547",
"b3 c #605857",
".h c #605c63",
"#Z c #606462",
"c8 c #614942",
"eU c #615540",
"be c #615c5f",
"eE c #623c44",
"hz c #633c3d",
"c6 c #63493b",
".5 c #634e4d",
"ik c #63584c",
"dp c #635c5b",
"bQ c #636766",
"c5 c #644d48",
"cz c #645157",
"hh c #645846",
"el c #645f63",
"aj c #654149",
"hp c #65583f",
"hS c #65644f",
"iQ c #664143",
"c7 c #664d41",
"bY c #665152",
"eO c #665f5f",
"a3 c #666a6a",
"fw c #675b4b",
"dl c #68413c",
"bp c #68454e",
"e1 c #685b45",
"eY c #694549",
"dm c #695147",
"#j c #695557",
"bH c #696263",
"#q c #696d6d",
"hH c #6a4542",
".s c #6a4a53",
"eV c #6a5140",
"fi c #6a656a",
"ij c #6a674f",
"bR c #6a6c69",
"f# c #6a6f74",
"c3 c #6a7673",
"fv c #6b5e4b",
"bO c #6b6466",
"dx c #6b6f70",
".d c #6c4a4e",
"bE c #6c554c",
".E c #6c585b",
".c c #6d4948",
".e c #6d4e58",
"eC c #6d5446",
".r c #6d5856",
"fE c #6d5e45",
"ey c #6d676d",
"bJ c #6d6f6c",
"eT c #6e4942",
"fm c #6e5851",
".t c #6e5b5f",
"e2 c #6e6150",
"fa c #6e7273",
"ci c #6e7872",
".b c #6f4d53",
"fn c #6f584c",
"fz c #6f614a",
"c4 c #6f6766",
".9 c #6f7170",
".a c #704d4d",
"eB c #714d47",
"Qt c #715157",
"h2 c #715846",
"iu c #716454",
".# c #725152",
".P c #725e5e",
"fC c #72644f",
"#r c #726a69",
"f. c #726d74",
".T c #727473",
"dM c #727d7b",
"fD c #735b4b",
"bD c #735e5a",
"## c #737679",
"hO c #74514d",
".l c #74555b",
"fy c #745b45",
"cF c #746571",
"gz c #746754",
"hE c #755e55",
"#k c #756c6d",
"fK c #765551",
".q c #76585f",
"g4 c #765e50",
"cT c #76646a",
"fB c #76674e",
"bK c #767672",
"fA c #775e4a",
"iC c #776159",
".k c #776466",
"e3 c #776958",
".x c #776f70",
"#2 c #777879",
"cA c #78676d",
"h3 c #786953",
"d4 c #787276",
"dZ c #787b7f",
"c2 c #78817e",
"iP c #795851",
"fu c #79614f",
"hw c #79645e",
"ei c #797b7c",
".p c #7a5b5f",
"iv c #7a6c58",
".o c #7b5f67",
"iB c #7b6459",
"hM c #7b6c53",
"hL c #7c6454",
"eN c #7c7476",
"gR c #7c765a",
"db c #7c7d7e",
"g6 c #7d644f",
"it c #7d675d",
".O c #7d6a69",
"hf c #7d6f5c",
"cl c #7d7d7b",
"bf c #7d8583",
".m c #7e6166",
"h5 c #7e6758",
"hC c #7e6e57",
"cx c #7e7679",
"bV c #7e7f81",
"ev c #7e8580",
"h0 c #7f7160",
"cf c #7f7f7e",
"ia c #80615e",
"ft c #80695c",
"hy c #80715b",
".7 c #80787c",
"e9 c #807f7b",
"hI c #816958",
"fs c #817157",
"hn c #826462",
"fN c #826c60",
".D c #827176",
"g9 c #82735f",
".n c #83676d",
"fO c #836c5c",
"fo c #83735b",
".Q c #837b7b",
"fq c #846c57",
"cD c #848380",
"h6 c #856f60",
"gQ c #85765f",
"hB c #857c5e",
"da c #858586",
"#4 c #858b85",
"h. c #866761",
"fp c #866e5b",
"bZ c #867476",
"gE c #86765a",
"hx c #867867",
"fr c #876e57",
"ii c #877863",
"hP c #886758",
"ge c #88715f",
"iA c #887164",
"gI c #88785e",
".i c #887f81",
"d# c #888788",
"fl c #896961",
"e4 c #89736b",
"gt c #897a66",
"ax c #89898e",
"h8 c #8a7363",
"gu c #8a7a62",
"bn c #8a898b",
"gZ c #8b6c64",
"hW c #8b735f",
"eM c #8b8389",
"h7 c #8c735a",
"hY c #8c7c66",
".X c #8c8386",
"e8 c #8c8982",
"aC c #8c8b8b",
"ao c #8c8d92",
"gf c #8d7663",
"g0 c #8d7c62",
"e5 c #8d8177",
"gx c #8e755e",
"hT c #8e7c5d",
"ih c #8e7e69",
"cO c #8e8589",
"g2 c #8f6e5b",
"i. c #8f7866",
"b0 c #8f7d7e",
"hg c #8f7e65",
".H c #8f8586",
"#S c #8f8d8a",
"em c #8f8f92",
"gG c #907163",
"gO c #907168",
"gH c #907862",
".R c #908f8f",
"eL c #909696",
"gs c #91736b",
"h9 c #91785e",
"iy c #917a6a",
"g8 c #918069",
"g5 c #918668",
"#A c #918785",
"dK c #91979b",
"aR c #919c9a",
"gS c #927a66",
"f8 c #928065",
"cU c #929092",
"cu c #929591",
"hG c #937a62",
"gT c #937c6d",
"hb c #93826c",
".j c #938389",
"cB c #939796",
"gd c #94766a",
"gX c #947c69",
"gK c #948268",
"e6 c #948985",
"#l c #949294",
"h# c #957667",
"f7 c #957c66",
"eu c #959998",
"fM c #96786e",
"iw c #96846c",
"bW c #968588",
"e7 c #969087",
"bq c #969995",
"f6 c #977e69",
"io c #978468",
"gC c #97866f",
"eG c #979494",
"b4 c #979b9a",
"iz c #987866",
"hQ c #98806c",
"in c #988170",
"ig c #98866b",
"bS c #989a98",
"eK c #989c9c",
"f9 c #998069",
"bN c #999c9a",
"ir c #9a8270",
"#B c #9a9094",
"f5 c #9b826c",
"hR c #9b886b",
".S c #9b9296",
"dk c #9b9fa2",
"gP c #9c7c69",
"ie c #9c9071",
"ah c #9c999a",
"dY c #9c9fa0",
"hU c #9d846f",
"im c #9d8a6e",
".N c #9d9291",
"et c #9da6a4",
"ib c #9e846c",
"ix c #9e8c71",
"#a c #9e9b9a",
"cg c #9e9f9c",
"bL c #9ea1a0",
"eJ c #9ea1a2",
"dw c #9ea3a6",
"hV c #9f7e65",
"g. c #9f866f",
"if c #9f8c6e",
"f4 c #a0866b",
"aS c #a0a2a2",
"gW c #a18872",
"id c #a18e71",
"b. c #a19ea0",
"cj c #a1a2a0",
"g1 c #a2826f",
"ha c #a2886e",
"gw c #a29074",
"ch c #a2a4a2",
"bb c #a2a4a4",
"g7 c #a38a72",
"hm c #a39071",
"#W c #a39e9c",
"eR c #a39fa2",
"dB c #a3a5a6",
"aF c #a3a6a8",
"g3 c #a48a6e",
"is c #a49177",
"bX c #a49998",
"#z c #a4a5a4",
"dN c #a4a7aa",
"bC c #a4aba9",
"ht c #a58c75",
"ic c #a59174",
"eH c #a5a1a2",
"#u c #a5a7a8",
"d7 c #a5adad",
"f3 c #a68c71",
"g# c #a69377",
"he c #a6937a",
".8 c #a6a1a0",
"dq c #a6a2a6",
"au c #a6a7a6",
"dD c #a6a9ac",
"gD c #a78e74",
"gJ c #a78e78",
"ho c #a79373",
"#i c #a7a2a2",
"eh c #a7a4a8",
"cN c #a7a8a8",
"dP c #a7a8aa",
"dC c #a7aaae",
"aE c #a7aeaf",
"hu c #a88872",
"hl c #a88e71",
"ip c #a8957a",
".C c #a8a8a5",
"dJ c #a8aaac",
"f2 c #a99077",
"dv c #a9abaf",
"eo c #a9b0af",
"gF c #aa917a",
"fY c #aa9679",
"en c #aaa7ac",
"eI c #aaabab",
"dO c #aaabad",
"es c #aaadb1",
"dX c #aab1b1",
"gM c #ab9177",
"bj c #aba7aa",
"ca c #ababa9",
"eg c #abadaf",
"#m c #abb1af",
"fT c #ac9879",
"f0 c #ac987c",
"ck c #aca1a2",
"gb c #ad8c71",
"iq c #ad8e77",
"gY c #ad9376",
"f1 c #ad937a",
"dQ c #adaeaf",
"d6 c #adaeb1",
"c1 c #adb4b4",
"fX c #ae957d",
"dI c #aeaaad",
"a7 c #aeaead",
"aT c #aeb0b3",
"fZ c #af9579",
"hk c #af9b7f",
"cs c #afaaab",
"#7 c #afb0b1",
"fR c #b0967c",
"h1 c #b0977f",
".4 c #b0aaa9",
"bw c #b0abaf",
"#v c #b0b0af",
"dj c #b0b1b3",
"an c #b0b1b4",
"eq c #b0b6b8",
"fP c #b19679",
"d5 c #b1adb1",
"cV c #b1b1b1",
"d8 c #b1b6b6",
"hF c #b29676",
"fQ c #b2987c",
"fV c #b2987f",
"hN c #b29f84",
".M c #b2b1af",
"ep c #b2b2b4",
"hD c #b39582",
"hX c #b39879",
"hs c #b39a82",
"gL c #b39f81",
".I c #b3b2b0",
"#b c #b3b2b2",
"gq c #b4957f",
"fW c #b49a7f",
"er c #b4b4b4",
"fU c #b59579",
"fS c #b5957c",
"gl c #b59a7c",
"gv c #b59b81",
"hd c #b5a081",
"dr c #b5b0b3",
"#P c #b5b4b2",
"ga c #b69b7e",
"go c #b79d81",
"gp c #b79d84",
"aV c #b7b5b2",
"dH c #b7b6b6",
"#X c #b7bbbb",
"gV c #b89d7e",
"dc c #b8b8b9",
"cL c #b8bbb9",
"gg c #b99f81",
"gi c #b99f84",
"bF c #b9bdba",
"hv c #ba9a81",
"gm c #baa086",
"ds c #bab9bb",
"cM c #babebe",
"gh c #bba080",
"gj c #bba083",
"hc c #bc9b81",
"gk c #bca286",
"a2 c #bcbabb",
"az c #bcbcbe",
"gn c #bda283",
"cc c #bdc0bf",
"bi c #bdc1c1",
"al c #beb8b9",
"dR c #bebdc0",
".B c #bec0bd",
"ef c #bec2c3",
"gU c #bfa383",
".L c #c0bdba",
"#n c #c0c3c2",
"b5 c #c1bfbf",
"aG c #c1bfc1",
"ag c #c1c4c4",
"cm c #c1c8c3",
"#c c #c2c4c2",
"ay c #c2c9c7",
"cb c #c3c0c1",
"cZ c #c3c2c4",
".A c #c3c5c4",
"ad c #c4c2c2",
"di c #c4c7c7",
".y c #c5c3c4",
"#y c #c5c3c6",
"bz c #c5c6c5",
"cw c #c6c3c2",
"a4 c #c6c8c7",
"#T c #c7c4c6",
"c0 c #c7c9ca",
".J c #c8c5c5",
"#o c #c8c5c7",
"b6 c #c8caca",
"aZ c #c8cfd0",
".K c #c9c5c4",
"#5 c #c9c7c9",
"b2 c #cacbca",
"cd c #cad0ce",
"#h c #cbc8c7",
".3 c #cbc8c8",
"bk c #cbcccb",
"a0 c #cbcccd",
"#d c #cccdce",
"ee c #cdcfd0",
"#C c #cecfce",
"cC c #ced3d1",
".z c #cfcbcb",
"bd c #cfd0d0",
"cG c #d0d1d1",
"d9 c #d0d4d2",
"dS c #d0d5d7",
"bG c #d1d2d2",
"bu c #d2d6d3",
"#g c #d2d6d5",
"#O c #d3cece",
".2 c #d3d3d2",
"#w c #d4d7d5",
"aq c #d4d8d8",
"ed c #d4dbd7",
"#p c #d4dbd9",
"#V c #d5d2d5",
"aQ c #d5d5d5",
"#f c #d5d8d6",
"#6 c #d6d2d4",
"du c #d6d6d8",
"ac c #d6d9d6",
"cK c #d6d9d8",
"#e c #d7d2d2",
"cp c #d7d6d5",
"#N c #d7dad9",
"#x c #d8d7d8",
"ec c #d8dbda",
"#1 c #d8dcdc",
"aN c #d9d5d8",
".1 c #d9d8d8",
"bv c #dad9d9",
"cr c #dad9da",
"a9 c #dadedd",
".0 c #dae1de",
"e. c #dae2e1",
"dE c #dedcdd",
"bt c #dee1df",
"#Y c #dfe2e1",
"dd c #e0dfe0",
"b1 c #e0e2df",
"dh c #e0e3e3",
"dW c #e1e0e1",
"bU c #e1e6e4",
"#t c #e1e7e7",
"aU c #e2e5e5",
"#M c #e3e5e3",
"#F c #e4dfe1",
"c. c #e4e5e4",
"cW c #e4e9e8",
"#U c #e5e6e6",
"#E c #e5e7e7",
"#s c #e6eae7",
"bA c #e7e5e4",
"bT c #e7e7e5",
"am c #e7e8e8",
"bM c #e7ebe9",
"a8 c #e8e6e7",
"aK c #e8e8e7",
"#G c #e8e9e9",
"#I c #eaeae9",
"bg c #eaeeeb",
"aJ c #eaf2ee",
"eb c #ebe8eb",
"#J c #ebebe9",
"af c #ebebea",
"#K c #ebeced",
"e# c #ece6e8",
"#H c #ececec",
"b7 c #ecf0ee",
"dt c #ededec",
"aM c #ededed",
"#8 c #edf4f0",
"#L c #eeeaeb",
"ea c #eeebed",
"cv c #eeeeed",
"cJ c #eef2f0",
"ae c #efefee",
"de c #efefef",
".Y c #eff2ef",
"b8 c #f0f0ef",
"aD c #f0f0f0",
"bx c #f0f4f1",
"ce c #f0f6f2",
"dV c #f1f1f0",
"co c #f1f4f2",
"cI c #f2f5f4",
"#D c #f2f9f7",
"cq c #f3eff1",
"b9 c #f3f3f1",
".Z c #f3f6f5",
"ab c #f4f4f3",
"dG c #f4f4f4",
"aY c #f5f8f7",
"bh c #f6f5f6",
"dg c #f6f9f8",
"a5 c #f7f6f6",
"br c #f7f9f7",
"bs c #f8f7f8",
"bB c #f8faf8",
"df c #f8fbfb",
"#9 c #f9f8f8",
"bl c #f9fefa",
"ct c #faf9f9",
"aL c #fafcfa",
"a. c #fafcfc",
"dT c #fafffc",
"a1 c #fbfaf9",
"cY c #fbfcf9",
"at c #fbfdfd",
"cn c #fbfffe",
"as c #fcf7f8",
"bc c #fcfbfa",
"aa c #fcfdfb",
"aP c #fcfefe",
"aO c #fcfffd",
"dU c #fdfcfd",
"cX c #fdfffe",
"cH c #fdffff",
"bm c #fef9fb",
"aI c #fefffe",
"aH c #feffff",
"ar c #fffcfe",
"by c #fffdfe",
"dF c #fffeff",
"a# c #ffffff",
"QtQtQtQtQtQtQtQtQtQtQtQtQt.#.aQtQtQtQtQtQtQtQtQtQtQtQtQtQtQtQtQtQtQtQtQtQtQtQtQtQtQtQtQtQtQtQtQtQtQt.b.cQtQtQtQtQtQtQtQtQtQtQtQt",
".b.b.b.b.b.b.b.b.b.b.b.b.b.a.c.b.b.b.b.b.b.b.b.b.b.b.b.b.b.b.b.b.b.b.b.b.b.b.b.b.b.b.b.b.b.b.b.b.b.b.a.c.b.b.b.b.b.b.b.b.b.b.b.b",
".b.b.b.b.b.b.b.b.b.b.b.b.b.b.b.b.c.a.b.b.b.b.b.b.b.b.b.b.b.b.b.b.b.b.b.b.b.b.b.b.b.b.b.b.b.b.b.b.b.b.b.b.b.b.b.b.c.b.b.b.b.b.b.b",
"QtQtQtQtQtQtQtQtQtQtQtQtQtQtQtQt.d.bQtQtQtQtQtQtQtQtQtQtQtQtQtQtQtQtQtQtQtQtQtQtQtQtQtQtQtQtQtQtQtQtQtQtQtQtQtQt.cQtQtQtQtQtQtQt",
"QtQtQtQtQtQtQtQtQtQtQtQtQtQtQtQt.d.bQtQtQtQtQtQtQtQtQtQtQtQtQtQtQtQtQtQtQtQtQtQtQtQtQtQtQtQtQtQtQtQtQtQtQtQtQtQt.cQtQtQtQtQtQtQt",
"QtQtQtQtQtQtQtQtQtQtQtQtQtQtQtQt.d.bQtQtQtQtQtQtQtQtQtQtQtQtQtQtQtQtQtQtQtQtQtQtQtQtQtQtQtQtQtQtQtQtQtQtQtQtQtQt.cQtQtQtQtQtQtQt",
"QtQtQtQtQtQtQtQtQtQtQtQtQtQtQtQt.d.bQtQtQtQtQtQtQtQtQtQtQtQtQtQtQtQtQtQtQtQtQtQtQtQtQtQtQtQtQtQtQtQtQtQtQtQtQtQt.cQtQtQtQtQtQtQt",
"QtQtQtQtQtQtQtQtQtQtQtQtQtQtQtQt.d.bQtQtQtQtQtQtQtQtQtQtQtQtQtQtQtQtQtQtQtQtQtQtQtQtQtQtQtQtQtQtQtQtQtQtQtQtQtQt.cQtQtQtQtQtQtQt",
".a.a.a.a.a.a.a.a.a.a.a.a.a.a.a.a.c.d.a.a.a.a.a.a.a.a.a.a.a.a.a.a.a.a.a.a.a.a.a.a.a.a.a.a.a.a.a.a.a.a.a.a.a.a.a.a.c.a.a.a.a.a.a.a",
".#.#.#.#.#.c.#.#.#.#.#.#.#.#.#.#QtQt.#.#.#.#.#.#.#.#.#.#.#.#.#.#.#.#.#.#.d.b.#.#.#.#.#.#.#.#.#.#.#.#.#.#.#.#.#.#Qt.#.#.#.#.#.#.#",
"QtQtQtQtQt.cQtQtQtQtQtQtQtQtQtQtQtQtQtQtQtQtQtQtQtQtQtQtQtQtQtQtQtQtQtQt.d.bQtQtQtQtQtQtQtQtQtQtQtQtQtQtQtQtQtQtQtQtQtQtQtQtQtQt",
"QtQtQt.e.f.g.h.i.j.k.lQtQtQtQtQtQtQtQtQtQtQt.l.m.n.o.p.q.lQtQtQtQtQtQt.r.d.s.t.u.v.bQtQtQtQtQtQtQtQtQtQtQtQtQtQtQtQtQtQtQtQtQtQt",
"QtQtQt.b.w.x.y.z.A.B.C.D.pQtQtQt.eQt.E.u.F.G.H.I.J.K.L.M.N.O.PQtQtQt.t.Q.R.S.R.T.U.VQtQtQtQtQtQtQtQtQtQtQtQtQtQtQtQtQtQtQtQtQtQt",
"QtQtQt.b.W.X.Y.Z.0.1.2.3.4.DQt.5.6.7.8.9#.###a#b#c#d#e#f#g#h#i#j.6#k#l#m#n#o#d#p#q.WQtQtQtQtQtQtQtQtQtQtQtQtQtQtQtQtQtQtQtQtQtQt",
".b.b.b.s.f#r#s#t#u#v#w#x#y#z.t#A#B#C#D#E#F#G#H#I#J#K#L#M#N#O#P#Q#R#S#T#U#V#W#X#Y#Z.f.b.b.b.b.b.b.b.b.b.b.b.b.b.b.b.b.b.b.b.b.b.b",
".b.b.b.b.6#0#f#1#2#3#4#5#6#z#7#8#9a.a#a#a#a#a#a#a#a#a#a#aaabacad#gaeafag.T#0ah#Xai.6QtQtQtQtQtQtQt.a.a.b.b.b.b.b.b.b.b.b.b.b.b.b",
"QtQtQtQtajakalamanaoap.Taqarasa#a#a#a#a#a#a#a#a#a#a#a#a#a#a#a#a#a#atauavawaxayazaA.vQtQtQtQtQtQtQt.a.bQtQtQtQtQtQtQtQtQtQtQtQtQt",
"QtQtQtQt.saBaCaD#gaEaFaG#Ja#aHaIaJaKaLa#a#a#a#a#a#a#a#a#aMaNaMaOa#aPaQaRaSaTaUaVaWaXQtQtQtQtQtQtQt.a.bQtQtQtQtQtQtQtQtQtQtQtQtQt",
"QtQtQtQtQt.Faw#NaYaZa0a1a#a#a#aPa2a3a4ata#a#a#a#a#a#a#a5#ia6a7#9a#a#a#a8#oa9aLb.b#.sQtQtQtQtQtQtQt.a.bQtQtQtQtQtQtQtQtQtQtQtQtQt",
"QtQtQtQtQtbab#bbaaa#bca#aHa#a#a#bdbebfbga#a#a#a#a#a#a#bhbibjbkbla#a#a#a#bma#aIbnboQtQtQtQtQtQtQtQt.a.bQtQtQtQtQtQtQtQtQtQtQtQtQt",
".d.d.d.d.dbp.Ubqbra#a#bsbtaQbubv.zbwbibxa#a#a#a#a#a#a#by#G#ebz#Cbu#xbAbBa#a#a#bCaW.u.b.a.bbDbE.a.a.c.c.d.d.d.d.d.d.d.d.d.d.d.d.d",
"QtQtQtQtQtbaaBbFa#a#a#bGbHbIbJ.9bKbLama#a#a#a#a#a#a#a#bMbNbO#QbPbQbRbSbTa#a#a#bUbV.U.kbWbX.H.EQtQtQtQtQtQtQtQtQtQtQtQtQtQtQtQtQt",
"bYbZb0bZ#j.w#qb1a#a#a#b2b3b4bk.yb5b6b7a#a#brb8b9#9aIa#c.bec#ca.Jcbcccdcea#a#a#a#aQcfcg#bchci.u.d.sbY#jQtQtQtQtQtQtQtQtQtQtQtQtQt",
".u#4cjck#lclcmcna#a#a#cocpcqa#a#a#a#a#a#a#cr.RaCcsc.a#ct#bcub7a#a#a#a#a#a#a#a#a#cvcwcbbbcxaAcy.U.W.f.v.bQtQtQtQtQtQtQtQtQtQtQtQt",
"czcA.RcjbbcBcCa#a#a#a#a#a#a#a#a#a#a#a#a#a#btcDcEcFcGcHa#cIcJcHa#a#a#aHa#a#aHa#aHcKcLcMcNcO.ucPcQbocRcRcSQtQtQtQtQtQtQtQtQtQtQtQt",
"cTcUa7cVcU#mcWa#a#a#a#a#a#cXa#a#a#a#a#a#a#cY#YcZc0#HaHa#a#a#aHa#a#a#a#a#a#a#aY#1c1c2c3.Tc4c5c6c7c8c9d..WbYQtQtQtQtQtQtQtQtQtQtQt",
"#j.7d#dadbdcdddeaOa#a#a#a#a#a#a#a#a#a#a#a#a#aHdfaLcHa#a#a#a#a#a#a#a#a#a#dgdhdidjdkawc#.Wdldmdmdmdmc7dnd.do.d.d.d.d.d.d.d.d.d.d.d",
".b.sc9c#dpdqdrds#d#Udga#a#a#a#a#a#a#a#a#a#a#a#a#a#a#a#a#a#a#a#a#a#atdtduagandvdwdxakdyc7dmdmdmdmdmdmdzdAaBbpQtQtQtQtQtQtQtQtQtQt",
"QtQtbY.faB#2dBdCdDancZdEcIdFa#a#a#a#a#a#a#a#a#a#a#a#a#a#a#a#atdG.0b6dHdIdJdJdK#Zb#dyc7dmdmdmdmdmdmdmdmdLak.F.bQtQtQtQtQtQtQtQtQt",
"QtQtQt.s.WaBdMdNdOdPdPdQdRdS#H#9dTa#a#a#aHa#a#a#aIaOdUbrdVdWa0dRdXdJdDdDdYdZd0d1d2c7dmdmdmdmdmdmdmdmdmc5dyb#ajQtQtQtQtQtQtQtQtQt",
"QtQtQtQt.5.Ud3d4bbd5d6dCdPd7d8#yd9e.e#eaaeaeeb#YecedeeefdcdjegdOdOehb4ei.VaWc#ejc6dmdmdmdmdmdmdmdmdmdmdmekak.fbYQtQtQtQtQtQtQtQt",
".#.#.#.#.#c5.WcyelemaFegegdOdJdNeneoepeqdcdcer#7d6d6esegdOdDeteuevbQew#0exdbeyezboeAdmeBeBeCeBeCeBeBeBeCdmeDb#eE.#.#.#.#.#.#.#.#",
".a.a.a.a.a.aaXcyb#eFbKeGeHcs#7#7#7egdOd7dJdJeIdJ#ueJeKeLeMeNeOePaBakeQ##eudPeRdxc#eSc7eTeTeUc7eVeTeTeVeVc5eWeXboeY.a.a.a.a.a.a.c",
"QtQtQtQtQtQt.deZe0e1e2e3e4e5e6e7e8e9.Tf.f#faf##qfbfceQd3aWakc#c#c#fdfefffgfhfiexfdc#aBbocQaBaBboboaBfjfkd1c#c#ak.vQtQtQtQtQtQt.c",
"QtQtQtQtQtQtflfmfnfofpfpfqfrfqfsftfufnfvfwfxeVfyfzfvfAfBfCfDfEfDdmfFc8fGfne1ekfHcQakc#c#c#c#c#c#cRfIfJfvfzfBfK.UfLQtQtQtQtQtQt.c",
"QtQtQtQtQtQtfMfNfOfPfQfRfRfSfRfRfRfSfQfQfQfTfUfVfVfQfVfVfWfQfQfQfXfYfZf0fVfQf1f2f3f4f5f6f7f8f9f5g.g#fQfQfQgagbgcePQtQtQtQtQtQt.c",
"QtQtQtQtQtQtgdgegfggghgggggggggighgggggggggigigggggggggjgigagagggkgjgggaglglgggmgmgngjgogpgogggjgjgqfRgogggnfYgr.fQtQtQtQtQtQt.c",
"QtQtQtQtQtQtgsgtgugvgggogogogofWgagogogogogogogogogigigwgxbEgyc7gze1e0gAgBgBfwgCgDgDgggogogogoggfRgEgEfQgggjgFe0.fQtQtQtQtQtQt.c",
".a.a.a.a.a.agGgHgIgagggogofWgJfpf9gjgggogogogogogjgagKgIfsgBc#d1akd.cPbocQbocQdzc6dygKgmgogaglgjgDe1gugLgogjgMekgN.a.a.a.a.a.a.d",
"QtQtQtQtQtQtgOgPgHgagggofRgQgRgSgHfWgjgogogogogofQgTgIfBdyaBc9c6c8c7dmdmdmdmdmdmeAb#fsgUgVgWgXglgvgYfWgofRgogMekfLQtQtQtQtQtQtQt",
"QtQtQtQtQtQtgZf7g0gagggofWg1g2gff6gogjgogogigag3fCe2fpeCg4fpgHgffqeCeAc7dmdmdm.vboeje3gngLg5g6g7g.g8fZgDg9f3gMekfLQtQtQtQtQtQtQt",
"QtQtQtQtQtQth.h#g0gagggogogohahbfVhcgogohdhehfcQc#e2g8g8f6hggShggfhhaBezhihjdLaWc#cPgugngghkgDgwgzc8hlhmgEf2f1dz.FQtQtQtQtQtQtQt",
"QtQtQtQtQtQthngHgugagggigifVfQgjgigogogjhohphqdnhrc8fneUgydnbocQaidLaBd.c#akc#c#b#e2gqgigofWhkhshthuhvgggignf1dz.FQtQtQtQtQtQtQt",
"QtQtQtQtQtQthwhxhygafWgWf1gKbEf2gjgogpgigffdb#dLc7gcc9hzc7hAc8.vgBa6aBakc#c#ake0hBfPgigofZgxhCgMhcgFhDgigggngMekc9QtQtQtQtQtQtQt",
".a.a.a.a.a.ahEgIfDfPhFc7hGgKhHgSgngggigahIc#hJd.b#bo.WgNhKcQcPb#akfdc#c#hJcQhLgMghgjgogohlhMf8hNgwfGg0gggogjgFekgN.a.a.a.a.a.a.a",
".a.a.a.a.a.ahOhPe0f6gahGgHhQhfhggnghghgjhRgBb#c#c#c#c#c#c#c#c#c#c#akcQgBhSg.gVgngjgggggggafVgigkf1fChTgggggkgYek.f.a.a.a.a.a.a.a",
"QtQtQtQtQtQtbpc7dLbEhUgJhVhWhWgWfRhXhXfQfRhYeChZb#akakakakakb#b#fLbEh0g.h1gggpgafWfWhsfWgvgigpgvgVfRfQgvfWgof2gc.FQtQtQtQtQtQtQt",
"QtQtQtQtQtQteEfj.WeAc8.cdmeCh2fmg4g4fufBgzh3gzeCh4c9.ffL.f.Fh4gch2h5frh6h6hWgfhWgeh6hWh7h8gIgIh9gHi.gtgfh6fOh5gN.fQtQtQtQtQtQtQt",
"QtQtQtQtQtQthEfAfzhEfDfwfwfnfve1eCh2eChhhAi#fFgB.6hi.WdyhKdndngNcQbocQcyb#cyaBaBeScyeScPcPeSeSaBcycyb#cPaBcPakc#aBQtQtQtQtQtQtQt",
"QtQtQtQtQtiahgibichtidiehtf3gDgDf3htifigihiihCijikdzfFdzgrc7c7eUc7fJdmfJeUfJfJfJhhfJfJgrc7fJfJc5fJfJeUeUileUdmdzcPQtQtQtQtQtQtQt",
"QtQtQtQtQtgZgIgSfZfXf0fTfXgMf2hliminhYguh8gff7iog.ifhtgJf2f1f1ipgMg#iqf3hagWg1irhmf3isgwf2f2iqf2gYgFisisisgwf3hggyQtQtQtQtQtQtQt",
".c.d.d.d.ditgfgXf9f7f7guhfgziufneUe0hjdzgcc7g4ivgQhYf7f6iwixg3g.f5gXgfhyhIfthIhIh7gHiyg8f6gSizf6f9f6guiiiAfpfsiBhi.d.d.d.d.d.d.d",
".a.b.b.b.biCfpi.iudLgyc9eD.WhifLeD.6eke0iDgN.UaBbo.UcQ.UdniEiFdncQaBb#aWiGfjeXcQ.WhKdycQdybocPcyaBcPb#aWaBcPd2h4cQQtQtQtQtQtQtQt",
".aQtQtQtQt.rfChUh6c8c8grdlgcc6c7c6c8eAe0gceAekh4dL.6gygy.6gBhiiHc9gAdzgrhHgchihK.UiIaBcQc9iJ.6c9gNgBgcc8c7eUeTgrcQQtQtQtQtQtQtQt",
".aQtQtQtQtaXdzgKfOdmdmiKgNdycQdyiLiMhKdnhic9gBgN.Wdy.UhKiNhic9eWiJekgcc8c8e0h4c9a6iIbocQiNc9dLh4h4h4ekekgAc9iOiMb#QtQtQtQtQtQtQt",
".aQtQtQtQt.vaBfCiPdmeCdmgch4gygygAeAdzgrc7c5c7c8h4fIhicQ.U.WbocPaBaBbogN.UdndndydnhifLc9fIdndyhKhKfLiNdn.U.w.WgNb#QtQtQtQtQtQtQt",
".aQtQtQtQt.6c#hKhieDeZeZeZfLhifLhieZeZeZc9eZeZgBhihihicQ.U.WcPb#cRcRb#cyb#b#b#cPcQ.WdngNhidy.wcPcP.U.UaBaB.wdndnaWQtQtQtQtQtQtQt",
".a.#.#.#.#iQaBakakd.d.d.fkejd.ejejejejcRd.d.cRiRejfkfkd.hqb#ejd.fkfkfkiSd1d.d.b#iTiGb#aWb#fkdAejfkiUcRb#b#dAb#b#aWQtQtQtQtQtQtQt",
".c.c.c.c.c.c.c.c.c.c.c.c.c.c.c.c.c.c.c.c.c.c.c.c.c.c.c.c.c.c.c.c.c.c.c.c.c.d.d.d.d.d.d.d.d.d.d.d.d.d.d.c.d.d.d.d.d.d.d.d.d.d.d.d",
"QtQtQtQtQtQtQtQtQtQtQtQtQt.#.aQtQtQtQtQtQtQtQtQtQtQtQtQtQtQtQtQtQtQtQtQtQtQtQtQtQtQtQtQtQtQtQtQtQtQt.b.cQtQtQtQtQtQtQtQtQtQtQtQt",
"QtQtQtQtQtQtQtQtQtQtQtQtQt.#.aQtQtQtQtQtQtQtQtQtQtQtQtQtQtQtQtQtQtQtQtQtQtQtQtQtQtQtQtQtQtQtQtQtQtQt.b.cQtQtQtQtQtQtQtQtQtQtQtQt",
"QtQtQtQtQtQtQtQtQtQtQtQtQt.#.aQtQtQtQtQtQtQtQtQtQtQtQtQtQtQtQtQtQtQtQtQtQtQtQtQtQtQtQtQtQtQtQtQtQtQt.b.cQtQtQtQtQtQtQtQtQtQtQtQt",
"QtQtQtQtQtQtQtQtQtQtQtQtQt.#.aQtQtQtQtQtQtQtQtQtQtQtQtQtQtQtQtQtQtQtQtQtQtQtQtQtQtQtQtQtQtQtQtQtQtQt.b.cQtQtQtQtQtQtQtQtQtQtQtQt",
"QtQtQtQtQtQtQtQtQtQtQtQtQt.#.aQtQtQtQtQtQtQtQtQtQtQtQtQtQtQtQtQtQtQtQtQtQtQtQtQtQtQtQtQtQtQtQtQtQtQt.b.cQtQtQtQtQtQtQtQtQtQtQtQt"};
