/* XPM */
static char *dummy[]={
"64 64 437 2",
".o c #000000",
"aa c #002100",
"#2 c #002a16",
"#7 c #0c3124",
"#5 c #153013",
".n c #161519",
".B c #1c1500",
"cL c #1c372e",
"aZ c #213723",
".1 c #222126",
"cA c #263c36",
".p c #272117",
"dC c #294a2a",
".T c #2b0002",
"el c #2b2a30",
"bf c #2e3c21",
"dD c #2e413d",
".q c #2f2925",
"aC c #305830",
"cn c #314d33",
"#J c #322915",
".C c #33001a",
"cd c #344d29",
".i c #35312f",
"bg c #35412c",
"cD c #354644",
".4 c #360000",
"da c #383023",
"d1 c #384120",
"db c #38463c",
"#b c #391527",
"cC c #3a5132",
"aW c #3a5b2f",
".D c #3b3737",
"b# c #3b4a49",
".A c #3c1518",
"al c #3c673d",
".L c #3e2130",
"d# c #3e4a43",
"cM c #3f5e37",
".9 c #412126",
"cB c #413c3e",
"b7 c #425531",
".x c #432016",
"#i c #433c36",
"av c #434e48",
"aF c #44693c",
"ba c #454144",
".U c #46292f",
"aY c #466136",
"#e c #482924",
"aT c #48413d",
"bz c #487341",
"cp c #495830",
"#s c #4a0019",
".r c #4a3037",
"#6 c #4a4649",
"bS c #4a6c3b",
"#Y c #4b643d",
"eu c #4c4543",
"bA c #4c5552",
"co c #4c7646",
"ak c #4e3023",
".E c #4e373e",
"be c #4e4a4e",
"#3 c #4e6f42",
"dp c #4e7640",
".K c #501417",
"er c #503736",
"eB c #504a49",
"ce c #505857",
"aX c #507e4a",
"aD c #51673d",
".M c #523c44",
".8 c #524a42",
"cK c #524e53",
"a. c #527846",
".z c #542025",
".m c #543c3d",
"cX c #545c5b",
"es c #555c56",
"#4 c #558049",
"aS c #562014",
"a# c #567a4b",
"ck c #575153",
"b6 c #577a45",
".s c #584143",
"cN c #587347",
"#L c #595b4c",
"d0 c #595f5b",
".Y c #5a2923",
".5 c #5a313e",
".2 c #5b0018",
"ai c #5b4134",
".j c #5b4549",
"c. c #5b5557",
"aR c #5b6263",
"aE c #5b7c4a",
"af c #5c625f",
".7 c #5d302e",
"eT c #5d3745",
"ea c #5d4543",
".J c #5e3022",
"#A c #5e363e",
".N c #5e4a4e",
"b9 c #5e585b",
"#y c #5f1425",
"#U c #601315",
".t c #604a48",
"b8 c #606462",
"#B c #614942",
"aN c #615c5f",
"e# c #623c44",
".S c #632024",
"eY c #634e4d",
"cz c #636766",
".a c #644d48",
"b. c #645f63",
"#f c #651f13",
"#c c #653b35",
"cZ c #654149",
"#z c #665152",
"c# c #665f5f",
"au c #666a6a",
".e c #67514d",
"d6 c #676267",
".X c #682923",
".w c #68454e",
"#. c #690017",
".c c #694549",
"bT c #696263",
"bU c #696d6d",
".k c #6a4a53",
"#E c #6a5e50",
"cu c #6a656a",
".6 c #6b302d",
"eN c #6b6466",
"aM c #6b6f70",
"#h c #6c1325",
".# c #6c4a4e",
"#P c #6d1314",
"#T c #6d3635",
".f c #6d4948",
"cH c #6d4e58",
"ar c #6e7273",
".R c #6f362c",
".b c #6f4d53",
"dH c #6f7170",
"#r c #701f23",
".d c #704d4d",
"#k c #714d47",
"Qt c #715157",
"d9 c #716a6d",
"aO c #717476",
".l c #725152",
"cU c #727473",
".F c #73282d",
"cJ c #736d70",
"cv c #737679",
"#m c #740025",
"#F c #74403b",
".g c #74555b",
"cV c #747676",
"am c #754a58",
".h c #755557",
".y c #762f2c",
".u c #764953",
"dS c #766f73",
"as c #777879",
"#a c #781324",
"ay c #786c61",
".v c #794d57",
"ax c #795851",
"cf c #797b7c",
"#Q c #7a352b",
"cI c #7a7b78",
"## c #7b1f22",
"#M c #7b4d4d",
"ae c #7b7479",
"bb c #7c7d7e",
"#j c #7d282d",
"#d c #7e7164",
"eX c #7e7679",
"at c #7e7f81",
"#g c #7f0025",
"#O c #7f5e55",
"#D c #7f7a6a",
"aQ c #7f7f7e",
"bI c #7f8786",
".V c #802f35",
"cy c #808184",
"eb c #808783",
"bw c #818181",
".3 c #821223",
"#Z c #82453a",
"aq c #828386",
"#t c #833634",
"#1 c #837667",
"eM c #838383",
"cx c #848589",
"dm c #848b88",
"#p c #856f60",
"aP c #858586",
".0 c #863b33",
"cr c #868d8a",
"d8 c #87878b",
"#V c #88403b",
"dE c #888788",
"bJ c #888f8d",
".Q c #892f35",
"#K c #8a5451",
"cw c #8a898b",
"dT c #8b908d",
".I c #8c3534",
"ei c #8c8b8b",
"bd c #8c8b8d",
"cj c #8c9292",
"bs c #8d8d90",
"de c #8d928f",
".O c #8e3b3b",
"#l c #8e8773",
"dF c #8e8d8d",
"ad c #8e9494",
"#I c #8f3b33",
"ag c #8f5b55",
"bl c #8f8f92",
"bm c #8f9491",
"#w c #90675c",
"dl c #908f8f",
"cY c #909696",
"#u c #91403a",
"bc c #919094",
"du c #919693",
"aw c #922f34",
"dB c #929092",
"d2 c #929798",
"#8 c #935450",
"df c #939796",
".W c #94353b",
"#H c #94766a",
"a9 c #949294",
"#n c #953533",
"eO c #959291",
"bH c #959998",
"d. c #969496",
".H c #973b3b",
"#v c #974d4c",
"ah c #978e7b",
"do c #979b9a",
"bQ c #984c3f",
"eq c #989698",
"dA c #989c9c",
".P c #99403a",
"dq c #99979a",
"eh c #9a9798",
"e. c #9a9e9e",
"#x c #9b8576",
"#q c #9b927e",
"c8 c #9b999d",
"#o c #9c353b",
"#R c #9c766a",
"ev c #9c999a",
"cP c #9c9fa0",
"ej c #9d9b9f",
"bV c #9d9f9e",
".G c #9e3a3a",
".Z c #9e3b41",
"ca c #9e9b9c",
"dW c #9ea1a0",
"d7 c #9ea1a2",
"#X c #9f9580",
"aL c #9f9c9e",
"cT c #a0a2a2",
"cq c #a1a4a6",
"cg c #a1a8a6",
"bR c #a25045",
"ci c #a2a4a4",
"dk c #a2a8a3",
"#9 c #a39882",
"cE c #a39fa2",
"br c #a3a5a6",
"bx c #a45444",
"bt c #a4a7aa",
"dR c #a5a7a8",
"cG c #a6a2a6",
"dr c #a6a7a6",
"dv c #a6ada9",
"ab c #a7a8a8",
"cW c #a7aaae",
"dL c #a8a4a6",
"ac c #a8aaac",
"dd c #a9aaa9",
"az c #aa544a",
"#W c #aa8c7e",
"dK c #aaabab",
"dn c #aaabad",
"bB c #ababa9",
"ep c #abadaf",
"bh c #abb1af",
"#S c #aca08c",
"bk c #acadad",
"by c #ad5749",
"et c #adadab",
"ap c #adaeaf",
"cO c #adaeb1",
"#G c #aea28c",
"eo c #aeb0b3",
"bn c #aeb4b2",
"bv c #afb0b1",
"eW c #afb4b0",
"ct c #b0b0af",
"bu c #b0b1b3",
"eC c #b1b1b1",
"cF c #b2b2b4",
"bG c #b2b8b7",
"aU c #b35749",
"#0 c #b39c8a",
"bK c #b3b2b2",
"ez c #b3b4b6",
"dt c #b3b8b5",
"#N c #b4a892",
"d5 c #b4b4b4",
"em c #b5b4b2",
"ek c #b5b5b6",
"bP c #b5b5b8",
"a4 c #b5b9b7",
"bO c #b5babb",
"eA c #b6b6b9",
"aV c #b75d4d",
"c9 c #b7b6b7",
"dg c #b7bab7",
"c7 c #b7bcbc",
"aA c #b86052",
"eS c #b8b8b9",
"eQ c #b9b8b7",
"ec c #b9bdba",
"a0 c #b9bdbc",
"eL c #babec0",
"eg c #bbbebc",
"aB c #bc5d52",
"eP c #bcbabb",
"dM c #bcbfbe",
"en c #bdbbbc",
"dz c #bdc0bf",
"b5 c #bebdbe",
"a3 c #bfc2c1",
"#C c #c0b29a",
"cm c #c0bebe",
"a8 c #c0c3c2",
"dj c #c1c3c1",
"cb c #c2c4c2",
"dJ c #c3c5c4",
"aj c #c46057",
"bq c #c5c3c6",
"eE c #c5c6c5",
"bW c #c6c8c7",
"aG c #c7c4c6",
"aK c #c8cacc",
"a5 c #c8cdcb",
"c6 c #c9c7c9",
"bj c #c9cbcd",
"cS c #cac8ca",
"c1 c #cacbca",
"dG c #cacbcb",
"ew c #cbcccb",
"an c #cbcccd",
"dI c #cccdce",
"bo c #cdcdcd",
"bN c #cdcfd0",
"c5 c #cdd2cf",
"dw c #cfd0d0",
"bF c #d0d1d3",
"ao c #d1d2d2",
"bL c #d3d3d2",
"dX c #d4d4d4",
"eH c #d5d8d6",
"dc c #d6d9d8",
"bM c #d8d7d8",
"eI c #d8dad7",
"ds c #d9d8d8",
"a2 c #d9d8d9",
"bp c #dad9da",
"c4 c #dbdddb",
"a6 c #dcdada",
"eV c #dde0de",
"a7 c #dde0e0",
"eD c #dedcdd",
"di c #dee1df",
"dh c #dfdede",
"dN c #dfe2e1",
"ef c #e0dfe0",
"d3 c #e0e3e2",
"dy c #e1e0df",
"cs c #e1e4e3",
"ey c #e2e5e5",
"aJ c #e3e2e3",
"b1 c #e4e5e4",
"b0 c #e5e6e6",
"dV c #e6e7e7",
"bE c #e6e7e8",
"cc c #e7e7e5",
"eG c #e8e8e7",
"eK c #e8e9e9",
"eJ c #e9eaeb",
"bi c #eaebec",
"eF c #ebebea",
"ed c #ececea",
"ch c #ecedee",
"cR c #ededed",
"bX c #eeeeee",
"bZ c #eeeff1",
"c3 c #f0f0ef",
"d4 c #f1f1f0",
"dQ c #f1f1f2",
"dY c #f2f2f2",
"dx c #f3f3f3",
"eR c #f3f4f5",
"c0 c #f4f4f4",
"b4 c #f4f7f6",
"bC c #f5f4f4",
"cl c #f5f4f5",
"ex c #f6f9f8",
"aI c #f7f6f7",
"dP c #f7faf9",
"eU c #f8fbfb",
"dZ c #fafcfa",
"dO c #fafcfc",
"b2 c #fbfafb",
"bD c #fbfdfd",
"a1 c #fcfbfa",
"bY c #fcfbfc",
"c2 c #fdfbfc",
"dU c #fefcfd",
"cQ c #fefcfe",
"ee c #fefffe",
"b3 c #fffdfe",
"aH c #ffffff",
"QtQtQtQtQtQtQtQtQtQtQtQtQtQt.#QtQtQtQtQtQtQtQtQtQtQtQtQtQtQtQtQtQtQtQtQtQtQtQtQtQtQtQtQtQtQtQtQtQtQtQt.aQtQtQtQtQtQtQtQtQtQtQtQt",
".b.b.b.b.b.b.b.b.b.b.b.b.b.b.#.b.b.b.b.b.b.b.b.b.b.b.b.b.b.b.b.b.b.b.b.b.b.b.b.b.b.b.b.b.b.b.b.b.b.b.b.c.b.b.b.b.b.b.b.b.b.b.b.b",
".d.d.d.d.d.d.d.d.d.d.d.d.d.d.d.b.#.#.b.b.b.b.b.b.b.b.b.b.b.b.b.b.b.b.b.b.b.b.b.b.b.b.b.b.b.b.b.b.b.b.b.b.b.b.b.b.a.e.d.d.d.d.d.d",
"QtQtQtQtQtQtQtQtQtQtQtQtQtQtQtQt.e.eQtQtQtQtQtQtQtQtQtQtQtQtQtQtQtQtQtQtQtQtQtQtQtQtQtQtQtQtQtQtQtQtQtQtQtQtQtQt.fQtQtQtQtQtQtQt",
"QtQtQtQtQtQtQtQtQtQtQtQtQtQtQtQt.e.eQtQtQtQtQtQtQtQtQtQtQtQtQtQtQtQtQtQtQtQtQtQtQtQtQtQtQtQtQtQtQtQtQtQtQtQtQtQt.fQtQtQtQtQtQtQt",
"QtQtQtQtQtQtQtQtQtQtQtQtQtQtQtQt.e.eQtQtQtQtQtQtQtQtQtQtQtQtQtQtQtQtQtQtQtQtQtQtQtQtQtQtQtQtQtQtQtQtQtQtQtQtQtQt.fQtQtQtQtQtQtQt",
"QtQtQtQtQtQtQtQtQtQtQtQtQtQtQtQt.e.eQtQtQtQtQtQtQtQtQtQtQtQtQtQtQt.g.g.hQtQtQtQtQtQtQtQtQtQtQtQtQtQtQtQtQtQtQtQt.fQtQtQtQtQtQtQt",
"QtQtQtQtQtQtQtQtQtQtQtQtQtQtQtQt.e.eQtQtQtQtQtQtQtQtQtQtQtQtQt.gQt.i.i.j.kQt.g.g.g.g.hQtQtQtQtQtQtQtQtQtQtQtQtQt.fQtQtQtQtQtQtQt",
".d.d.d.d.d.d.d.d.d.d.d.d.d.d.d.b.#.#.b.d.d.d.d.d.d.d.d.d.d.b.l.m.n.o.o.o.o.n.p.q.r.s.t.e.u.l.l.u.b.b.d.d.d.d.d.d.a.e.d.d.d.d.d.d",
".b.b.b.b.b.f.d.b.b.b.b.b.b.b.b.b.b.b.b.b.b.b.b.b.b.b.b.b.v.w.p.o.o.x.y.z.A.B.o.o.o.o.o.B.C.q.D.s.c.bQt.vQtQtQt.b.b.b.b.b.b.b.b.b",
"QtQtQtQtQt.#.bQtQtQtQtQtQtQtQtQtQtQtQtQtQtQtQtQtQtQt.g.g.E.o.o.B.F.G.G.G.G.H.I.y.J.K.p.B.o.o.o.o.o.n.C.L.M.s.wQtQtQtQtQtQtQtQtQt",
"QtQtQtQtQt.#.bQtQtQtQtQtQtQtQtQtQtQtQtQtQtQtQtQtQt.g.N.p.o.o.K.O.G.H.H.H.H.H.P.P.G.G.G.H.Q.R.S.x.C.T.o.o.o.o.o.U.gQtQtQtQtQtQtQt",
"QtQtQtQtQt.#.bQtQtQtQtQtQtQtQtQtQtQtQtQtQtQtQt.hQt.U.o.o.C.V.G.P.H.H.H.H.H.H.H.H.H.H.H.H.P.P.G.G.P.W.I.X.o.o.o.o.kQtQtQtQtQtQtQt",
"QtQtQtQtQt.#.bQtQtQtQtQtQtQtQtQtQtQtQtQtQtQt.g.j.n.o.o.Y.P.P.H.H.H.H.H.H.H.H.H.H.H.H.H.H.H.H.H.H.H.Z.y.B.o.K.B.o.j.gQtQtQtQtQtQt",
".b.b.b.b.b.f.e.b.b.b.b.b.b.b.b.b.b.b.b.bQt.b.L.o.o.A.0.G.H.H.H.H.H.H.H.H.H.H.H.H.H.H.H.H.H.H.H.H.P.S.1.n.2.3.4.o.s.u.b.b.b.b.b.b",
".b.b.b.b.b.b.b.b.b.b.b.b.b.b.b.b.b.b.b.l.5.n.o.B.6.G.P.H.H.H.H.H.H.H.H.H.H.H.H.H.H.H.H.H.H.H.P.H.7.8.9#.###a.T.o.c.b.b.b.b.b.b.b",
"QtQtQtQtQtQtQtQtQtQtQtQtQtQtQtQtQt.g.k#b.o.o.z.O.G.H.H.H.H.H.H.H.H.H.H.H.H.H.H.H.H.H.H.H.H.P.Q#c#d#e#f###g#h.o.nQtQtQtQtQtQtQtQt",
"QtQtQtQtQtQtQtQtQtQtQtQtQtQtQt.hQt#i.o.o.C#j.Z.P.H.H.H.H.H.H.H.H.H.H.H.H.H.H.H.H.H.H.H.H.P#j#k#l.z#m#g#a#a.B.o.U.gQtQtQtQtQtQtQt",
"QtQtQtQtQtQtQtQtQtQtQtQtQtQt.g.#.p.o.o.Y.P.P.H.H.H.H.H#n.W.H.H.H.H.H.H.H.H.H.H.H.H.H.H#o.y#p#q.z#r#a#a###s.o.n.bQtQtQtQtQtQtQtQt",
"QtQtQtQtQtQtQtQtQtQtQtQt.gQt.r.o.o.A#t.Z.H.H.H.H.H#u#v#w.q.C.W.H.H.H.H.H.H.H.H.H.H.P#n.F#x#x#y#a#a#g#a.A.o.p#z.hQtQtQtQtQtQtQtQt",
".#.#.#.#.#.#.#.#.#.#.#.b#A.n.o.B.F.P.P.H.H.H.H.H.Q#B#C#D#E.q.6.P.H.H.H.H.H.H.H.H.P.I#F#G#H#.#a#a###h.B.o.q.d.d.#.#.#.#.#.#.#.#.#",
"QtQtQtQtQtQtQtQtQtQt.b.9.o.o.x#I.G.H.H.H.H.H.H.H.O#J#e#y#K#L.6.P.H.H.H.H.H.H.H#o.Q#M#N#O#P#a#a###..o.o.L.vQtQtQtQtQtQtQtQtQtQtQt",
"QtQtQtQtQtQtQtQtQt.b.n.o.C#Q.G.P.H.H.H.H.H.H.H.H.H.H.W.G#I.6.W.H.H.H.H.H.H.H.H.I#R#S#T#P#a#a###U.o.o.o.i.gQtQtQtQtQtQtQtQtQtQtQt",
"QtQtQtQtQtQtQtQtQt#z.o.p#I.G.G.G.P.H.H.H.H.H.H.H.H.H.H.H.H.P.H.H.H.H.H.H.H.H#V#W#X.z#m#a#a#g#s.o.n#Y.B.o.bQtQtQtQtQtQtQtQtQtQtQt",
"QtQtQtQtQtQtQtQtQt.g.1.o.o.B.A.S.V.H.G.G.G.P.H.H.H.H.H.H.H.H.H.H.H.H.H.H#n#Z#0#1.o.A###g#a.C.o#2#3#4#5.o.t.hQtQtQtQtQtQtQtQtQtQt",
"QtQtQtQtQtQtQtQtQt.g.q.o#6#7.o.o.o.T.C.K.6.I.H.G.G.P.H.H.H.H.H.H.H.H#o#I#8#9.a#V.p.o#a#r.B.o#2a.a#a#.p.o.w.hQtQtQtQtQtQtQtQtQtQt",
".#.#.#.#.#.#.#.#.#.b.qaaabacadaeaf.D.n.o.o.o.B#s.6.0.W.G.G.P.P.H.H.P.Iagahai.Pajak.o.K.T.o.naaala#a..B.o.c.#.#.#.#.#.#.#.#.#.#.#",
"QtQtQtQtQtQtam.#Qt.g.i.oanaoapaqarasatasauav.1.o.o.o.T.p.z.yaw.P.Z.Qaxay.zazaAaBak.o.o.oaCaD.o#5aEaF.o.p.hQtQtQtQtQtQtQtQtQtQtQt",
"QtQtQtQtQtQtQt.#Qt.g.r.oaGaHaIaJaKaLaM#6#6aNaOaPaQaR.D.n.o.o.o.BaS.9aT.YaUaVaVaB.x.o.oaWaXa##2.oaYaZ.o.r.gQtQtQtQtQtQtQtQtQtQtQt",
"QtQtQtQtQtQtQt.#Qt.g.E.oa0a1a2a3a4a5a6a7a8a9b.b#baaRbbbcbdaube.q.o.o.AaAaVaVaV.Y.o#2aFaXa.aXbf.obg.B.o.m.gQtQtQtQtQtQtQtQtQtQtQt",
"QtQtQtQtQtQtQt.#Qt.g.s.obhaHbibjbkblbbaQbmbnbobpbqbrbsbbbsbtbubvbw.o.obxaBby.x.o.obzaXa.a.aXbf.oaa.o.o.D.gQtQtQtQtQtQtQtQtQtQtQt",
"QtQtQtQtQtQtam.#Qt.w.U.obAbBbobCbDaIbEbFbGbHbIaQbJbKbLbMbNbObvbPbv.o.obQbR.C.o.o#5aXa.a.a.bS#2.o.obT.n.i.gQtQtQtQtQtQtQtQtQtQtQt",
".#.#.#.#.#.#.#.#.d.n.o.o.o.o.o.1babUbVbWbXaHaHbYbZb0b1bXb2b3b4aIb5.o.oak.B.o.o.o.oaFb6a.aDb7.B.ob8bt.B.9.b.#.#.#.#.#.#.#.#.#.#.f",
".bQtQtQtQtQtQtQtQt.s.ob9c..i.n.o.o.o.o.o.navc#cacbccb3aHaHaHaHaHa0.o.o.o.o.ocdb7.obf#4aDb7.p.ocecfa9.B.q.gQtQtQtQtQtQtQtQtQtQt.#",
".bQtQtQtQtQtQtQtQt.k.ocgchcicjaqauba.q.o.o.o.o.o.o.n.ickaPaGbpclcm.o.o.o.ocnaEco.o.n#3cp#5.obebbarcq.n.q.gQtQtQtQtQtQtQtQtQtQt.#",
".bQtQtQtQtQtQtQtQt#z.ocraHcsctbbcucvcwcxcyczcA.n.o.o.o.o.o.o.o#7cB.o.o.ocCaEa.b6.n.ob7#5.ocDcEadcFcG.n.q.gQtQtQtQtQtQtQtQtQtQt.#",
".bQtQtQtQtQtQtQtQtcH.ocIaHaHaHb2anbHcJck#6c.aMcfatarcKcL.n.o.o.o.o.o.ocMaXa.a.cN.n.oaZ.ocAaccOcPbscP.o.L.gQtQtQtQtQtQtQtQtQtQt.#",
".bQtQtQtQtQtQtQtQtQt.ob8aHaHaHaHaHaHcQcRcScTasce#6beb.cUaqcVce.D.p.o.nb6a.a.bzaW.B.o.ocAbtcWcGcXcYba.ocZ.hQtQtQtQtQtQtQtQtQtQt.#",
".#.#.#.#.#.#.#.e.d.U.oc.aHc0c1csc2aHaHaHc3c4c5c6c7accYatasbbc8bvc9b9.ob7aX#3cpcC.o.o.icPcfbHczd.d#.oda.d.#.#.#.#.#.#.#.#.#.#.#.f",
"QtQtQtQtQtQtQt.g.U.o.odbb2aHdcdddedfdgdhb4b4didjdkdlbwdmbHbtdndncOdo.o.pdpaWcpbg.o.qcwbecwcfdqc..o.q.l.dQtQtQtQtQtQtQtQtQtQtQtQt",
"QtQtQtQtQtQt.h.j.o.o.o.o.qcUdra2bXdsdtdubwdmdvdwcRdxdydzdAdBdfacbudn.1.ob7cpdC.o.1asdDdEcYcTcz.o.1.h.b.eQtQtQtQtQtQtQtQtQtQtQtQt",
"QtQtQtQtQtQt.g.p.odFdGdm#6.n.o.o.nbadHdddIdsdJdKbVdLdMdNdOaHdPdQdxbXaT.ocdcd.o.ndHcBa9dRacdS.o.nQt.h.b.eQtQtQtQtQtQtQtQtQtQtQtQt",
"QtQtQtQtQtQt#z.o.odTaHaHdUdVdWcucB.n.o.o.o.ib8cadXdYdZb2b3aHaHaHaHaHd0.od1aa.odHcKcYa9bkat.o.n#z.hQt.b.eQtQtQtQtQtQtQtQtQtQtQtQt",
"QtQtQtQtQt.h.w.o.ocfaHaHbLdTducrd2cEdqcfck.1.o.o.o.pckcra8d3aHaHaHd4.1.o.B.oarczbsc.cwcj.B.o.w.gQtQt.b.eQtQtQtQtQtQtQtQtQtQtQtQt",
".b.b.b.b.b.b.t.o.ocUaHaHaHaHdyd5dEczd6aQdqbtd7cyd0.D.n.o.o.od#bTbrdf.o.o.odHd8cy.id9e..n.oe#Qt.b.b.b.#.#.b.b.b.b.b.b.b.b.b.b.b.b",
".f.f.f.f.f.#ea.o.oczebaPecedaHaHaHeeefegeheicwd.btapdRaddSd#.1.o.o.o.o.Baeejcw.nb9ekel.o.5.d.#.#.#.#.#.f.f.f.f.f.f.f.f.f.f.f.f.f",
"QtQtQtQtQt.h.#.o.obTaocV.D.ibadHemccaHaHaHaHcldhdIenbubkapeoepc8atcu#2.qbteq.qb9dncA.oer.gQtQtQtQtQtQtQtQtQtQtQtQtQtQtQtQtQtQtQt",
"QtQtQtQtQtQtQt.n.oesaHaHaHccetcUeucBafevewdxaHaHaHaHexeyaKezaccWapeAcD.pdneBafezcB.o.i.bQtQtQtQtQtQtQtQtQtQtQtQtQtQtQtQtQtQtQtQt",
"QtQtQtQtQtQt.g.D.o#2aQeCbpc0aHaHaHdZeDa8eCeEeFb3b2eGeHeIeJc0eKbNeLbPbe.ncPeMbPbA.o.L.l.#QtQtQtQtQtQtQtQtQtQtQtQtQtQtQtQtQtQtQtQt",
"QtQtQtQtQtQtQt.#.p.B.o.o.o.ncBeNeOePbXaHaHaHaHaHaHdUbXbLeQctbLb3aHeRb8aabreSaN.o#b.g.b.#QtQtQtQtQtQtQtQtQtQtQtQtQtQtQtQtQtQtQtQt",
"QtQtQtQtQtQtQt.b.bQt.weT.i.p.o.o.o.o.neld0deekbMdPaHaHaHaHaHeUb3aHaHaQ.oaccv.o.CQt.g.b.#QtQtQtQtQtQtQtQtQtQtQtQtQtQtQtQtQtQtQtQt",
".#.#.#.#.#.#.#.f.f.#.d.b.b.b.#ea#i.q.C.o.o.o.o.o.qeBbbbBeVdYaHaHaHaHde.Bas.o.n.c.d.#.f.a.#.#.#.#.#.#.#.#.#.#.#.#.#.#.#.#.#.#.#.#",
".f.b.b.b.b.b.b.b.b.b.b.b.b.b.b.b.lQt.l.b.w.m.U.p.B.o.o.o.o.navaseWeVeX.o.o.n.#Qt.b.b.b.b.b.b.b.b.b.b.b.b.b.b.b.b.b.b.b.b.b.b.b.b",
".#QtQtQtQtQtQtQtQtQtQtQtQtQtQtQtQtQtQtQt.h.g.g.gQteY.j.r.q.n.o.o.o.o.o.o.n.k.hQtQtQtQtQtQtQtQtQtQtQtQtQtQtQtQtQtQtQtQtQtQtQtQtQt",
".#QtQtQtQtQtQtQtQtQtQtQtQtQtQtQtQtQtQtQtQtQtQtQtQtQt.h.g.gQt.k.j.E.q.U.j.a.vQtQtQtQtQtQtQtQtQtQtQtQtQtQtQtQtQtQtQtQtQtQtQtQtQtQt",
".#QtQtQtQtQtQtQtQtQtQtQtQtQtQtQtQtQtQtQtQtQtQtQtQtQtQtQtQtQtQt.h.g.g.g.b.fQtQtQtQtQtQtQtQtQtQtQtQtQtQtQtQtQtQtQtQtQtQtQtQtQtQtQt",
".#QtQtQtQtQtQtQtQtQtQtQtQtQtQtQtQtQtQtQtQtQtQtQtQtQtQtQtQtQtQtQtQtQtQt.b.aQtQtQtQtQtQtQtQtQtQtQtQtQtQtQtQtQtQtQtQtQtQtQtQtQtQtQt",
".#QtQtQtQtQtQtQtQtQtQtQtQtQtQtQtQtQtQtQtQtQtQtQtQtQtQtQtQtQtQtQtQtQtQt.d.aQtQtQtQtQtQtQtQtQtQtQtQtQtQtQtQtQtQtQtQtQtQtQtQtQtQtQt",
".c.a.a.a.a.a.a.a.a.a.a.a.a.a.c.a.a.a.a.a.a.a.a.a.a.a.a.a.a.a.a.a.a.a.a.c.c.#.#.#.#.#.#.#.#.#.#.#.#.#.#.#.#.#.#.#.#.#.#.#.#.#.#.#",
"QtQtQtQtQtQtQtQtQtQtQtQtQt.b.#QtQtQtQtQtQtQtQtQtQtQtQtQtQtQtQtQtQtQtQtQtQtQtQtQtQtQtQtQtQtQtQtQtQtQt.b.c.lQtQtQtQtQtQtQtQtQtQtQt",
"QtQtQtQtQtQtQtQtQtQtQtQtQtQt.#QtQtQtQtQtQtQtQtQtQtQtQtQtQtQtQtQtQtQtQtQtQtQtQtQtQtQtQtQtQtQtQtQtQtQtQt.aQtQtQtQtQtQtQtQtQtQtQtQt",
"QtQtQtQtQtQtQtQtQtQtQtQtQtQt.#QtQtQtQtQtQtQtQtQtQtQtQtQtQtQtQtQtQtQtQtQtQtQtQtQtQtQtQtQtQtQtQtQtQtQtQt.aQtQtQtQtQtQtQtQtQtQtQtQt",
"QtQtQtQtQtQtQtQtQtQtQtQtQtQt.#QtQtQtQtQtQtQtQtQtQtQtQtQtQtQtQtQtQtQtQtQtQtQtQtQtQtQtQtQtQtQtQtQtQtQtQt.aQtQtQtQtQtQtQtQtQtQtQtQt",
"QtQtQtQtQtQtQtQtQtQtQtQtQtQt.#QtQtQtQtQtQtQtQtQtQtQtQtQtQtQtQtQtQtQtQtQtQtQtQtQtQtQtQtQtQtQtQtQtQtQtQt.aQtQtQtQtQtQtQtQtQtQtQtQt"};
