/* XPM */
static char *dummy[]={
"64 64 373 2",
".o c #000000",
"b. c #002100",
"bW c #002a16",
"cp c #0c3124",
".t c #161519",
"#4 c #1c1500",
"bS c #213723",
".P c #222126",
".C c #272117",
"cy c #2a3c2d",
"a5 c #2b0002",
"b4 c #2e3c21",
".p c #2f2925",
"d# c #314135",
"bH c #322915",
"#o c #33001a",
".n c #35312f",
"b9 c #35412c",
"c. c #37513a",
"cx c #375b38",
"#d c #383023",
"ct c #384120",
".w c #391527",
"cs c #3a5132",
"cZ c #3a5b2f",
".4 c #3b3737",
"#M c #3e2130",
"#e c #3e362e",
"b2 c #3f5e37",
"bo c #403622",
"c2 c #404a3c",
"cM c #404e4e",
".6 c #412126",
"#2 c #413c3e",
"c0 c #425531",
"bx c #432a38",
"#p c #433c36",
"ck c #445840",
"cq c #44693c",
"bs c #453c2c",
"dc c #45492a",
".D c #46292f",
"bX c #474d3b",
"#z c #48413d",
"cJ c #495b46",
".s c #4a3037",
".x c #4a4135",
"dz c #4a4649",
"cb c #4b5141",
"c1 c #4b5b3f",
"#q c #4c302e",
"bj c #4c412b",
"af c #4c4543",
"cI c #4c6f48",
"ci c #4c7646",
"cz c #4c7c45",
"cK c #4d5b38",
"bZ c #4d5e4b",
".R c #4e373e",
".F c #4e453c",
"d. c #4e4a4e",
".O c #503736",
"#m c #504534",
"cC c #505547",
"#3 c #512139",
"ch c #51673d",
"#L c #522030",
"bd c #52362d",
"#N c #523c44",
"#f c #524a42",
"cl c #527846",
"b5 c #53614b",
".i c #543c3d",
"bc c #54493b",
"cH c #547141",
"bK c #554933",
"bO c #563c35",
"aP c #564e48",
"cr c #567a4b",
"aU c #574d42",
"cu c #575153",
"c8 c #575f5f",
"cn c #577a45",
"cA c #578354",
".v c #584143",
"b8 c #587347",
"bV c #587657",
"bb c #59413c",
"cL c #595b4c",
"ce c #5a7652",
"aQ c #5b4134",
".u c #5b4549",
"bD c #5b4d32",
".7 c #5b5147",
"c9 c #5b6263",
"aB c #5c5141",
"dA c #5c625f",
"bJ c #5d3745",
".1 c #5d4543",
"cB c #5d7157",
"bB c #5e363e",
"be c #5e453c",
"#n c #5e4a4e",
"#I c #5e554d",
"dY c #5e585b",
"bT c #5f7a5f",
"#5 c #603c4a",
"bI c #604533",
".j c #604a48",
".S c #605547",
"bi c #614942",
"dK c #615c5f",
"co c #61694e",
".5 c #623c44",
".Q c #634e4d",
"#O c #63584c",
"dJ c #636766",
".a c #644d48",
"#w c #645846",
"c7 c #645f63",
".m c #654149",
"bp c #65583f",
".3 c #664143",
"bw c #664d41",
".q c #665152",
"#r c #665b51",
"dS c #666a6a",
"b3 c #667f62",
"bt c #674d3a",
".f c #67514d",
".0 c #675b4b",
".E c #68454e",
"cP c #686754",
"cc c #686c42",
".c c #694549",
"b# c #695147",
"a6 c #695557",
"a9 c #695e55",
"c3 c #696d6d",
"b1 c #697c4a",
".r c #6a4a53",
"br c #6a5140",
"aF c #6a5552",
"#x c #6a5e50",
"dV c #6b6466",
".# c #6c4a4e",
"a8 c #6c554c",
"b0 c #6c7e4f",
".l c #6d4948",
"aG c #6d4e58",
"a1 c #6d5446",
"#y c #6d6155",
"by c #6e5851",
"bk c #6e5e3e",
".b c #6f4d53",
"a7 c #6f584c",
"aA c #6f6459",
".d c #704d4d",
"bL c #706144",
"c6 c #706a71",
"bY c #708569",
"Qt c #715157",
"bm c #715846",
"ae c #715b56",
"bf c #716454",
"dy c #716a6d",
"c# c #717a4a",
"bQ c #724d41",
".e c #725152",
"bg c #72583f",
"#H c #725b51",
"#1 c #72675d",
"cg c #728561",
"cd c #728852",
"cj c #728c6b",
"bG c #735b4b",
".G c #736759",
"db c #736d70",
"dR c #74514d",
".h c #74555b",
"bh c #745b45",
"bM c #746443",
".y c #746754",
"ca c #748c63",
".g c #755557",
"aN c #755e55",
"bU c #758e6f",
".2 c #764953",
"aX c #765e50",
"#J c #766a5d",
"bN c #775e4a",
"cV c #776159",
"bA c #776749",
"dL c #777879",
"b6 c #777e4f",
"bF c #785e44",
"a# c #786155",
"dv c #787b7f",
".k c #794d57",
"aa c #796c5c",
"cF c #797b7c",
"bv c #7a614a",
"#A c #7a7663",
"bR c #7b515b",
"#W c #7b6459",
"ba c #7b6f60",
"bE c #7c6143",
"cf c #7c8e55",
"a4 c #7d675d",
"bl c #7e6449",
"an c #7e6758",
".T c #7e7164",
"dr c #7e7f81",
"ao c #7f7160",
"bP c #80674e",
"am c #80695c",
"cO c #808184",
"bq c #816648",
"ab c #817363",
"bC c #826154",
"a0 c #826c60",
"ag c #82735f",
"bu c #83694d",
"a. c #836c5c",
"#g c #837667",
"dM c #838383",
"#C c #847663",
"a3 c #856c52",
"#Q c #856f60",
"bn c #85786b",
"aH c #866e5b",
"aD c #867867",
"da c #868d8a",
"aV c #876e57",
"aZ c #877863",
"#X c #877a6e",
"dq c #87878b",
"al c #88715f",
"aT c #887164",
"#P c #887a6a",
"dT c #888786",
"a2 c #896653",
"aW c #897a66",
"cw c #897f7e",
"b7 c #89965c",
"aC c #8a7363",
"#c c #8a7a62",
".8 c #8a7c6d",
"c5 c #8a898b",
".H c #8b7c6a",
"#R c #8c7c66",
"az c #8c8570",
"ds c #8c8b8d",
"#9 c #8d7663",
"av c #8d7667",
"cU c #8d7e6d",
"bz c #8e6c57",
"#s c #8e8773",
"cW c #8e8d8d",
"aY c #8f755a",
"#D c #8f7866",
"#K c #8f8170",
"#. c #90806d",
"#h c #917a6a",
"#i c #918069",
"#B c #918373",
"#6 c #928370",
"aO c #938a75",
".z c #947c69",
"#0 c #948573",
".U c #95856f",
"ak c #967e6d",
".B c #96846c",
".9 c #968776",
"do c #969b9c",
"#u c #977e69",
"## c #97866f",
"#t c #978673",
"aS c #98806c",
"aw c #988876",
"ac c #988879",
"dB c #989698",
"de c #989c9e",
".V c #998872",
"au c #9a8270",
"aE c #9c8c7b",
".I c #9d846f",
"#8 c #9e8672",
"#j c #9e8c71",
"cQ c #9e8e7b",
"ar c #9e8e7e",
"dn c #9ea1a2",
"aM c #9f866f",
"dp c #9f9ca1",
"aL c #a0907e",
"aJ c #a18872",
"ah c #a2886e",
"#Y c #a2927d",
"ap c #a29281",
"#E c #a38a72",
"#G c #a48473",
"aj c #a58c75",
"at c #a68672",
"cR c #a69580",
"#Z c #a69583",
"#7 c #a78e74",
".W c #a78e78",
"ad c #a79785",
"dm c #a7a4a8",
"cD c #a7a8aa",
"dC c #a8aaac",
"#V c #a99077",
"cE c #a9abaf",
"aR c #aa917a",
"ay c #aa9885",
"cm c #aa9c92",
"dN c #aab0ad",
".J c #ab9177",
"aq c #ab9a88",
"dl c #abadaf",
"cT c #ac9586",
"#a c #ac987c",
"#v c #ad9376",
"as c #ad937a",
"ax c #ad9c87",
"cN c #adaeaf",
"dk c #adb4b4",
"aI c #ae957d",
"#S c #af9579",
"aK c #af9d8a",
".A c #b0967c",
"dD c #b0b1b3",
"dU c #b0b5b2",
"ai c #b2987c",
"#U c #b2987f",
"c4 c #b2b2b4",
"du c #b3b2b2",
"dx c #b3b4b6",
"dj c #b3b4b8",
".X c #b49a7f",
"#F c #b59b81",
"#T c #b5a081",
"cS c #b5a28c",
"dd c #b5a890",
"df c #b5b5b8",
"dh c #b5babb",
"#k c #b69b7e",
"di c #b6b6b9",
".Z c #b79d81",
"dg c #b8b8b9",
".M c #b99f81",
".Y c #b99f84",
".K c #bba083",
".N c #bca286",
".L c #bda283",
"#l c #bea386",
"#b c #c0a585",
"dH c #c5c3c6",
"dw c #c5c8c9",
"dE c #c8cacc",
"dW c #cecfce",
"cv c #d0cdd1",
"dO c #d1d1cf",
"cY c #d8dbda",
"dX c #e0dfde",
"dG c #e1e0df",
"cG c #ededec",
"dP c #eeeeee",
"dQ c #f3f3f3",
"dI c #f6f9f8",
"dt c #f7faf9",
"dF c #fcfefe",
"cX c #ffffff",
"QtQtQtQtQtQtQtQtQtQtQtQtQtQt.#QtQtQtQtQtQtQtQtQtQtQtQtQtQtQtQtQtQtQtQtQtQtQtQtQtQtQtQtQtQtQtQtQtQtQtQt.aQtQtQtQtQtQtQtQtQtQtQtQt",
".b.b.b.b.b.b.b.b.b.b.b.b.b.b.#.b.b.b.b.b.b.b.b.b.b.b.b.b.b.b.b.b.b.b.b.b.b.b.b.b.b.b.b.b.b.b.b.b.b.b.b.c.b.b.b.b.b.b.b.b.b.b.b.b",
".d.d.d.d.d.d.d.d.d.d.d.d.d.d.d.b.#.#.b.b.b.b.b.b.b.b.b.b.b.b.b.b.b.bQt.e.b.b.b.b.b.b.b.b.b.b.b.b.b.b.b.b.b.b.b.b.a.f.d.d.d.d.d.d",
"QtQtQtQtQtQtQtQtQtQtQtQtQtQtQtQt.f.fQtQtQtQtQtQtQtQtQtQtQtQtQt.g.h.b.i.j.h.kQtQtQtQtQtQtQtQtQtQtQtQtQtQtQtQtQtQt.lQtQtQtQtQtQtQt",
"QtQtQtQtQtQtQtQtQtQtQtQtQtQtQtQt.f.fQtQtQtQtQtQtQtQtQtQtQt.hQt.m.n.o.o.o.p.q.hQtQtQtQtQtQtQtQtQtQtQtQtQtQtQtQtQt.lQtQtQtQtQtQtQt",
"QtQtQtQtQtQtQtQtQtQtQtQtQtQtQtQt.f.fQtQtQtQtQtQtQtQt.g.h.r.s.t.o.o.o.t.o.o.t.u.hQtQtQtQtQtQtQtQtQtQtQtQtQtQtQtQt.lQtQtQtQtQtQtQt",
"QtQtQtQtQtQtQtQtQtQtQtQtQtQtQtQt.f.fQtQtQtQtQtQt.hQt.v.w.o.t.p.x.y.z.A.B.C.o.o.D.g.kQtQtQtQtQtQtQtQtQtQtQtQtQtQt.lQtQtQtQtQtQtQt",
"QtQtQtQtQtQtQtQtQtQtQtQtQtQtQtQt.f.fQtQtQt.h.h.E.D.t.C.F.G.H.I.J.K.L.M.N.A.O.o.o.P.q.hQtQtQtQtQtQtQtQtQtQtQtQtQt.#Qt.gQt.hQtQtQt",
".d.d.d.d.d.d.d.d.d.d.d.d.d.d.d.b.#.#.b.e.Q.R.p.n.S.T.U.V.W.X.Y.Y.Z.Z.Z.Z.K.Y.0.o.o.t.1.e.d.d.d.d.d.d.d.d.d.b.2.2.3.i.4.p.p.m.b.d",
".b.b.b.b.b.l.d.b.b.b.b.b.b.b.b.bQt.b.5.D.6.7.8.9#.###a.Z.M.M.Z.Z.Z.Z.Z.Z.Z.M#b#c.t.o.o.sQt.e.b.b.b.bQtQtQt.c.R.C.t.C#d#e.C.iQt.b",
"QtQtQtQtQt.#.bQtQtQtQtQtQt.g.h.Q.s.n#f#g.9#h#i#j#k.Y.M.Z.Z.Z.Z.Z.Z.Z.Z.Z.Z.Z.Z#l.J#m.o.o.w.bQt.g.hQt#n.4#o.o.t.p.x.O#p#e#q.EQtQt",
"QtQtQtQtQt.#.bQtQtQtQt.hQt.v.p#e#r#s#t.H#u#v.M.Y.Z.Z.Z.Z.Z.Z.Z.Z.Z.Z.Z.Z.Z.Z.Z.Z.L.K#w.o.t.4.u.v.D.P.p#p#x.G#y.7#z.R.D.t.nQtQtQt",
"QtQtQtQtQt.#.bQt.g.h.Q.s.p.F#A#B#C#D#E#F.K.M.Z.Z.Z.Z.Z.Z.Z.Z.Z.Z.Z.Z.Z.Z.M.M.M#F.A.W#G#H#e#e.F#I#J#B#K#J.Q#z.s.s.s#L#o.o#M.hQtQt",
"QtQtQtQtQt.#QtQt#N.p.p#O#K#P#Q#R#S.K.Y.Z.Z.Z.Z.Z.Z.Z.Z.Z.Z.Z.Z.Z#T.M.M.Z#U#V.I#h#Q#W#x#J#X#Y#Z#0#1.u#2.s.s#3.D.D.D.D#4.o#5.hQtQt",
".b.b.b.b.e.a.s.t.C#x#6.H.I#7.Z.K.M.Z.Z.Z.Z.Z.Z.Z.Z.Z.Z.Z.Z.M.M#T.X.J#8#u#9a.a#aaabacad#Y.8aeaf.s.s.s.D.D.D.D.D.D.D.6.o#4.b.b.b.b",
".b.b.b.e.R.t.t.F.Gagahai.Y.Y.Z.Z.Z.Z.Z.Z.Z.Z.Z.Z.Z.Z.M.M.M#Uajak#Dalamanao#6apaqar.T#I.R.s.s.s.D.D.D.D.D.D.D.D.D.D.C.o.nQt.b.b.b",
"QtQtQt.h.s.o#o#Das.M.Y.M.Z.Z.Z.Z.Z.Z.Z.Z.Z.Z.Z.M.M#Fasatauav#Qam#WabawaxayazaA#f#p.s.s.s.D.D.D.D.D.D.D.D.D.D.D.D.D#4.o.v.hQtQtQt",
"QtQtQt.g.u.o.oaB#l#T.Z.Z.Z.Z.Z.Z.Z.Z.Z.Z.M.M#Fas#8#haC#Qan#QaDaEay#Z#PaF#z.s.s.s#3.D.D.D.D.D.D.D.D.D.D.D.D.D.D.D.6.o#4aGQtQtQtQt",
"QtQtQt.g.u.o.o.oaH.N.Z.Z.Z.Z.Z.Z.Z.M.M.ZaIaJ.zav#Qana#aa#taKaL.T.7.O.s.s.s.D.D.D.D.D.D.D.D.D.D.D.D.D.D.D.D.D.D.D.C.o.6.hQtQtQtQt",
"QtQtQt.g.u.o.C.o#eaM.K.Z.Z.Z.Z.M.Mai#E.zaCaCa.aN#r#CaLaO#1aP#p.s.s.s.D.D.D.D.D.D.D.D.D.D.D.D.D.D.D.D.D.D.D.D.D.D#4.o.v.hQtQtQtQt",
".#.#.#.d.i.o.paQ.o.G#V.Y.Z.M.ZaRaS#9aTaC#D#O.C.naU#I#f.s.s.s.s.D.D.D.D.D.D.D.D.D.D.D.D.D.D.D.D.D.D.D.D.D.D.D.D.6.o#4.a.#.#.#.#.#",
"QtQtQtQt.m.o.CaV#q.CaWai.M#V#haCaTaCavaT.S.p.C.p.n.s.s.s.D.D.D.D.D.D.D.D.D.D.D.D.D.D.D.D.D.D.D.D.D.D.D.D.D.D#L.C.o.p.gQtQtQtQtQt",
"QtQtQt.g.m.o.CaXaY.C.xaZ.zaCaTaCava0.0.n.C#e#p.R.R.D.D.D.D.D.D.D.D.D.D.D.D.D.D.D.D.D.D.D.D.D.D.D.D.D.D.D.D.D.6#4.o.i.hQtQtQtQtQt",
"QtQtQt.g.v.o.Ca1a2a3#d#Ia4aCava..7#d.t.o.o#d.n.s.D.D.D.D.D.D.D.D.D.D.D.D.D.D.D.D.D.D.D.D.D.D.D.D.D.D.D.6#oa5.o.o.Ca6QtQtQtQtQtQt",
"QtQtQt.g.u.o.Ca1a7aYa8#pa9.G.7.pb..o.o.o.o.o.t.D.D.D.D.D.D.D.D.D.D.D.D.D.D.D.D.D.D.D.D.D.D.D.D.D.6.Ca5.o.o.o.o.o.i.hQtQtQtQtQtQt",
"QtQtQt.g.v.o.Ca1b#a7aNaB#zba.t.o.o.o.o.o.o.o#4.D.D.D.D.D.D.D.D.D.D.D.D.D.D.D.D.D.D.D.D.D.D#M.C#4.o.o.o.o.t.w.C.o.i.hQtQtQtQtQtQt",
".#.#.#.dbb.o.Ca8b#aBa8#Wbc#O#r.o.o.o.o.o.o.o#4.D.D.D.D.D.D.D.D.D.D.D.D.D.D.D.D.D.D.D#M.C.t.o.o.o.o.Cbdbebb.R#o.o.i.d.#.#.#.#.#.#",
"QtQtQtQt.u.o.Ca8b#aB#ObfaN.x#1bc.o.o.o.o.o.o#4.D.D.D.D.D.D.D.D.D.D.D.D.D.D.D.D.n.w.t.o.o.o.o.tbdbgbhbi.O.s.s.t.o.uQtQtQtQtQtQtQt",
"QtQtQt.h.v.o.Ca1b#bi#x#yaNa7.x#g#d.o.o.o.o.o.t.D.D.D.D.D.D.D.D.D.D.D.D.D.D.w.t.o.o.o.o.tbjbkblbmbb.s.s.s.s.s#4.o.j.gQtQtQtQtQtQt",
"QtQtQt.g.v.o#oa1b#bi.0#y#r.0a8.pbn.t.o.o.o.o.t.D.D.D.D.D.D.D.D.D.D.D.p.C.o.o.o.o#4bobpbqblbr.i.s.s.s.s.s.s.s.o.o.QQtQtQtQtQtQtQt",
"QtQtQt.h.v.o.Ca8b#bi.Sbf#xaU.ybr#dab.o.o.o.o.t.D.D.D.D.D.D.D.D.p.t.o.o.o.o#4bsbtblbubvbw.O.s.s.s.s.s.s.s.sbx.o.o.rQtQtQtQtQtQtQt",
"QtQtQtQt.5.o.Ca8b#aBaUby#xaUb#bzaQ#p.G.o.o.o.t.D.D.D.D.D.6.C.o.o.o.o#4#dbpbAbubqbmbb.s.s.s.s.s.s.s.s.s.s.s.D.o.tQtQtQtQtQtQtQtQt",
".#.#.#.bbB.o.Ca8b#.aaU.7#O.7.ab#bC.6#f#f.o.o.t#q.D.6.Ca5.o.o.o#4.pbDbEbububFbi.i.s.s.s.s.s.s.s.s.s.s.s.s.s.D.o.t.d.#.#.#.#.#.#.l",
".bQtQt.h.v.o.Ca8b#.SaUaU.7.7b#b#b#bGbHaP.p.o#4.w.t.o.o.o.obHbIbFbububva1bb.s.s.s.s.s.s.s.s.s.s.s.s.s.s.s.s.p.o#o.gQtQtQtQtQtQt.#",
".bQtQt.hbJ.o.Ca1b#b#.SaUaU.ab#b#b#b#a1.t.x.t.o.o.o#4bHbKbLbububqbhbe.O.s.s.s.s.s.s.s.s.s.s.s.s.s.s.s.s.s.s.P.o.C.hQtQtQtQtQtQt.#",
".bQtQt.h.v.o#oa1b#b#b#b#b#b#b#b#b#b#b#.1.t.t.o.pbIbMbububqbNbw.i.s.s.s.s.s.s.s.s.s.s.s.s.s.s.s.s.s.s.s.s.s.C.o.w.hQtQtQtQtQtQt.#",
".bQtQt.g.5.o.Ca8b#b#b#b#b#b#b#b#b#b#b#a8bO.o#dbPbublbFbQbb.O.s.s.s.s.s.s.s.s.s.s.s.s.s.s.s.s.s.s.s.s.s.s.s#o.o.p.hQtQtQtQtQtQt.#",
".bQtQt.g.v.o.Ca8b#b#b#b#b#b#b#b#b#b#b#a1.O.o#o.R.i.i.O.s.s.s.s.s.s.s.s.s.s.s.s.s.s.s.s.s.s.s.s.s.s.s.s.s.s.t.o.n.hQtQtQtQtQtQt.#",
".#.#.#.b.v.o.Ca8b#b#b#b#b#b#b#b#b#b#b#a1.x.o.t.s.s.s.s.s.s.s.s.s.s.s.s.s.s.s.s.s.s.s.s.s.s.s.s.s.s.s.s.s.s.t.o.6.b.#.#.#.#.#.#.l",
"QtQtQt.g.u.o.Ca8b#b#b#b#b#b#b#b#b#b#b#b#bc.t.t.s.s.s.s.s.s.s.s.s.s.s.s.s.s.s.s.s.s.s.s.s.s.s.s.s.s.s.s.s.s.t.o.n.hQtQtQtQtQtQtQt",
"QtQtQtQt.#.o.obia1a1a1a1b#b#b#b#b#b#b#b#aB.C#o.s.s.s.s.s.s.s.s.s.s.s.s.s.s.s.s.s.s.s.s.s.s.s.s.s.s.s.s.s.s.t.o.s.hQtQtQtQtQtQtQt",
"QtQtQtQt.h.n.o.Cb#bb.O.Fbwa8b#b#b#b#b#b#a8.P.t.s.s.s.s.s.s.s.s.s.s.s.s.s.s.s.s.s.s.s.s.s.s.s.s.s.s.s.s.s.s.t.o.s.hQtQtQtQtQtQtQt",
"QtQtQtQtQta6.t.o.t.t#4.oa5.Da8a1b#b#b#b##O.p.t.s.s.s.s.s.s.s.s.s.s.s.s.s.s.s.s.s.s.s.s.s.s.s.s.s.s.s.s.s.s.t.o.R.hQtQtQtQtQtQtQt",
"QtQtQtQtQtbR#MbSbTbUbVbW.o.o.pbca1b#b#b##H.n.t.s.s.s.s.s.s.s.s.s.s.s.s.s.s.s.s.s.s.s.s.s.s.s.s.s.s.s.s.s.s.t.o.5.hQtQtQtQtQtQtQt",
".b.b.b.b.e.ObXbYbZ.pb0b1b2#4.o.o.Fa1b#b#a##e.t.s.s.s.s.s.s.s.s.s.s.s.s.s.s.s.s.s.s.s.s.s.s.s.s.s.s.s.s.s.s.t.o.R.e.b.b.b.b.b.b.b",
".l.l.l.#.j.pb3b4b5.pb6b7b8b9.t.o.tb#b#.a#W#p.t.s.s.s.s.s.s.s.s.s.s.s.s.s.D.t.t.w.s.s.s.s.s.s.s.s.s.s.s.s.s.o.obB.#.l.#.d.d.#.l.l",
"QtQtQt.hbJbXc.c#cacbcccdceb3b9#4.obOa1.a#W#z.t.s.s.s.s.s.s.s.s.s.s.s.sbx.o.PbX.t.t.s.s.s.s.s.s.s.s.s.n#o.o.o#4aG.k.h.r.s.4.m.gQt",
"QtQtQt.h.Oc.b9cfcgc.chcicjckclbS.o.pa8.a#W#f.t.s.s.s.s.s.s.s.s.s.s.s.s.w.o.pcmax#e.P.s.s.s.s.s.s#M.t.o.o.o.P.5.g.h.ia5.o.o#4.qQt",
"QtQtQt.h#pbSbScncocpcqcrcjcsclct.o.Ca1b##W#f.t.s.s.s.s.s.s.s.s.s.s.s.s#o.ocucvcw#P.C.n.sbxbx.w#4.o.o.o.C.ubR.h.g.D.o.o.P.t.o#N.h",
"QtQtQt.h.i.tbWcxcy.CczcAcBbSb2bS.o.Ca8b##WcC.t.s.s.s.s.s.s.s.s.s.s.s.s.w.o.CcDcEcu.t.P.s.F#z.n.p.C.C#p.m.m.EQt.s.o.ocFcG.p.o.i.h",
"QtQtQt.k.q#4.o#4.ob9cHcIcJ.CcK.C.o.pa8.a#WcL.t.s.s.s.s.s.s.s.s.s.s.s.s.D.o.ocMcNcO.t.naUcP#CcQcRaKcScTcUcVaU#e#4.ocWcXcY.o.o.Q.g",
".#.#.#.#.2.6.o.o#4cZc0c1c2bScZ#4.obsa1b#aN#I.t.s.s.s.s.s.s.s.s.s.s.s.s.D#Oao.oc3c4c5c6c7c8c9d.#2.n.4d##z#p#p.p#4dacXcXdb.o.t.d.f",
".l.b.b.b.b.Q.t.o.obHdcc0cy#4#4.o.tb#b#b##H#O.t.s.s.s.s.s.s.s.s.s.s.s.s#fdd.F#2dec4dfdgdhdidjdkdldmdndodpdqdrdscNdtcXdu.o.o.iQt.b",
".#QtQtQtQt.h.#.t.o.o.o#4.o.o.o.o.tb#b#b#a8.7.t.s.s.s.s.s.s.s.s.s.s.sbx.j.Gdvdwdxdydzd.dAdrdBdCdDc4c4c4dDdxdEdFcXcXdG#4.o#4.r.gQt",
".#QtQtQtQtQt.gQt.n.o.o.o.o.o.C#4.o.pa1b#bwaU#o.s.s.s.s.s.s.s.s.s.s.s.s.w.FdHdIdJ.o.o.o.o.o.o.P#2dKdLdMcWdNdOdPcXcXdQc8.o.o.CQtQt",
".#QtQtQtQtQtQtQt.h.r.i.i#N#n.h.5.o.o#pdRaU#p#o.s.s.s.s.s.s.s.s.s.D#oa5.o.odS#2.o.o.4.R.P#4.o.o.o.o.o.o.o.o.o.PdTcXcXcXdU.t.o.R.h",
".#QtQtQtQtQtQtQtQtQt.h.h.h.gQt.h.4.o.obe.F.C.t.s.s.s.s.s.s.s#M.t.o.o.o.o.o.o.o.o.R.h.h.h.b#n.R.n.C.t.o.o.o.o.o.odVdWcXdX.p.o.R.h",
".#QtQtQtQtQtQtQtQtQtQtQtQtQtQtQt.g.w.o.t.O.o.C.s.s.s.s.s.6.t.o.o.o.t.O.1.C.t.p.u.hQtQtQtQt.g.h.h.hQt.b.baG.E.D.o.o#4dY.t.o.t.bQt",
".c.a.a.a.a.a.a.a.a.a.a.a.a.a.c.a.l.c.t.o.o.o#o.O.s.s.p#4.o.o.o.t#q.c.#.l.l.d.b.d.#.#.#.#.#.#.#.#.#.#.#.#.#.d.d#q.t#4.o.o#o.c.d.#",
"QtQtQtQtQtQtQtQtQtQtQtQtQt.b.#QtQtQt.m.o.o.o.C.s.C.o.o.o.o.w.uQt.gQtQtQtQtQtQtQtQtQtQtQtQtQtQtQtQtQt.b.c.eQtQt.kQtQt.u.uQtQtQtQt",
"QtQtQtQtQtQtQtQtQtQtQtQtQtQt.#QtQtQt.h.v.o.o.o.o.o.o#4#M.m.h.gQtQtQtQtQtQtQtQtQtQtQtQtQtQtQtQtQtQtQtQt.aQtQtQtQtQtQt.g.gQtQtQtQt",
"QtQtQtQtQtQtQtQtQtQtQtQtQtQt.#QtQtQtQt.h.v.o.o.o.t.D.r.h.gQtQtQtQtQtQtQtQtQtQtQtQtQtQtQtQtQtQtQtQtQtQt.aQtQtQtQtQtQtQtQtQtQtQtQt",
"QtQtQtQtQtQtQtQtQtQtQtQtQtQt.#QtQtQtQtQtQt.v.p.RaG.hQtQtQtQtQtQtQtQtQtQtQtQtQtQtQtQtQtQtQtQtQtQtQtQtQt.aQtQtQtQtQtQtQtQtQtQtQtQt",
"QtQtQtQtQtQtQtQtQtQtQtQtQtQt.#QtQtQtQtQtQt.g.h.hQtQtQtQtQtQtQtQtQtQtQtQtQtQtQtQtQtQtQtQtQtQtQtQtQtQtQt.aQtQtQtQtQtQtQtQtQtQtQtQt"};
