/* XPM */
static char *dummy[]={
"64 64 164 2",
".C c #000000",
"ae c #002100",
".A c #161519",
".B c #1c1500",
".S c #222126",
".T c #272117",
"#E c #2b0002",
".o c #2f2925",
"#q c #314135",
".Z c #322915",
"#V c #33001a",
".l c #35312f",
".0 c #383023",
".U c #391527",
"#c c #3b3737",
"#W c #3b4534",
".n c #3e2130",
".Y c #3e362e",
".1 c #403622",
".m c #412126",
"#g c #432a38",
".z c #433c36",
"#j c #453c2c",
"#o c #46292f",
"ad c #474d3b",
".y c #48413d",
".k c #4a3037",
".R c #4a4135",
"#r c #4c302e",
".p c #4e373e",
"#n c #4e453c",
".7 c #503736",
"#s c #52362d",
"#m c #523c44",
".2 c #52452a",
"#N c #524a42",
".j c #543c3d",
"aH c #563c35",
"#l c #573c2c",
"#U c #574d42",
"#w c #584143",
".6 c #59413c",
"aD c #5b3037",
".8 c #5b4134",
".D c #5b4549",
"#X c #5b4d32",
".x c #5b5147",
"#u c #5d3745",
"#M c #5d4543",
"#b c #5e453c",
"ay c #5e4a4e",
"#f c #5e5139",
"aj c #5e554d",
".i c #603c4a",
".t c #604a48",
".Q c #605547",
"#2 c #614942",
"#v c #623c44",
"aC c #633c3d",
"aA c #63414f",
".5 c #63493b",
".q c #634e4d",
".X c #63584c",
".d c #644d48",
".h c #654149",
"#Z c #65583f",
"#e c #664d41",
".F c #665152",
".w c #665b51",
".3 c #674d3a",
".E c #67514d",
".g c #68454e",
".r c #694549",
"ac c #695557",
"ah c #695e55",
".V c #6a4a53",
"#0 c #6a5140",
".u c #6a5e50",
".O c #6b5e4b",
".# c #6c4a4e",
".W c #6d4948",
"#p c #6d4e58",
"#a c #6d5446",
"at c #6d5856",
"#z c #6d6155",
".4 c #6e5440",
".P c #6e6150",
".e c #6f4d53",
"ab c #6f6459",
".s c #704d4d",
"Qt c #715157",
".v c #715b56",
".f c #725152",
"#Y c #72583f",
"aG c #735e5a",
"ak c #736759",
".c c #74555b",
".9 c #745b45",
"#B c #754a58",
"#1 c #755147",
".b c #755557",
"#h c #764953",
"al c #76585f",
"ax c #76615e",
"#k c #766a5d",
"aF c #77585b",
"## c #775e4a",
"#x c #776159",
".M c #786c61",
".a c #794d57",
"#3 c #79645e",
"ag c #796c5c",
"#d c #7a614a",
"#O c #7a6f64",
"#t c #7b515b",
".N c #7b6459",
"#i c #7b6f60",
"#. c #7e6449",
"#H c #7e7164",
"#y c #7f6162",
".G c #7f6a61",
"aw c #807368",
"#J c #816466",
"aa c #836f68",
".L c #837667",
"aE c #845b5e",
"av c #85786b",
"#P c #887a6a",
"an c #896c6c",
"#T c #8a7c6d",
"#4 c #8c766b",
".K c #8c7f71",
"#Q c #8e8773",
"au c #916c70",
"#G c #91736f",
"#S c #918373",
"a# c #947e74",
".J c #968776",
"#C c #977a74",
"#R c #988879",
"ap c #997c77",
"a. c #998377",
"#K c #9b8576",
"az c #9c877c",
"#L c #9d817a",
"#A c #9d8679",
"#F c #a08580",
".H c #a0907e",
"#D c #a28c81",
"#I c #a3877f",
"#8 c #a39383",
"aB c #a5887f",
"af c #a6887c",
".I c #a69583",
"#7 c #a79081",
"#5 c #a89283",
"#9 c #aa9383",
"aq c #ab8e84",
"#6 c #ad9788",
"ao c #b59d8c",
"ar c #b69f8f",
"as c #bda593",
"ai c #bea695",
"am c #c0a897",
"QtQtQtQtQtQtQtQtQtQtQtQtQtQt.#QtQtQtQtQtQtQtQtQtQtQtQt.a.b.c.c.c.c.c.c.c.c.c.c.c.c.c.cQtQtQtQtQtQtQtQt.dQtQtQtQtQtQtQtQtQtQtQtQt",
".e.e.e.e.e.e.e.e.e.e.e.e.e.e.#.e.e.e.e.e.f.e.e.e.#.g.h.i.j.k.k.k.l.m.l.n.o.o.o.m.l.p.p.qQt.e.e.e.e.e.e.r.e.e.e.e.e.e.e.e.e.e.e.e",
".s.s.s.s.s.s.s.s.s.s.s.s.s.s.s.e.#.#.e.#.h.h.t.d.u.v.w.x.y.z.l.o.A.B.C.C.C.C.C.C.C.C.C.B.DQt.e.e.e.e.e.e.e.e.e.e.d.E.s.s.s.s.s.s",
"QtQtQtQtQtQtQtQtQtQtQtQtQtQtQtQt.s.s.F.G.H.I.I.J.K.L.M.N.u.O.P.Q.R.l.S.A.A.A.A.T.T.U.A.C.A.V.bQtQtQtQtQtQtQtQtQt.WQtQtQtQtQtQtQt",
"QtQtQtQtQtQtQtQtQtQtQtQtQtQtQtQt.#.t.G.X.Y.o.Z.0.1.2.3.4.4.3.5.6.7.k.k.k.k.k.k.k.k.k.k.B.C.TQtQtQtQtQtQtQtQtQtQt.WQtQtQtQtQtQtQt",
"QtQtQtQtQtQtQtQtQtQtQtQtQtQtQt.c.p.x.C.B.8.9#.#.###a#b.j.7.k.k.k.k.k.k.k.k.k.k.k.k.k.k.m.C.C#c.cQtQtQtQtQtQtQtQt.WQtQtQtQtQtQtQt",
"QtQtQtQtQtQtQtQtQtQtQtQtQtQtQt.e.z.X.A#.#d#e.6.7.k.k.k.k.k.k.k.k.k.k.k.k.k.k.k.k.k.k.k#c.T.C.C.qQtQtQtQtQtQtQtQt.WQtQtQtQtQtQtQt",
"QtQtQtQtQtQtQtQtQtQtQtQtQtQt.c.p.u.z#f##.7#g.k.k.k.k.k.k.k.k.k.k.k.k.k.k.k.k.k.k.k.k.k.k.o.C.C.o.cQtQtQtQtQtQtQt.WQtQtQtQtQtQtQt",
".s.s.s.s.s.s.s.s.s.s.s.s.s.s#h.S#i#j#..j.k.k.k.k.k.k.k.k.k.k.k.k.k.k.k.k.k.k.k.k.k.k.k.k.m.T.C.C.q.e.s.s.s.s.s.s.d.E.s.s.s.s.s.s",
".e.e.e.e.e.W.s.e.e.e.e.e.e.e.e.o#k#l#a.k.k.k.k.k.k.k.k.k.k.k.k.k.k.k.k.k.k.k.k.k.k.k.k.k.0.o.C.C.7Qt.e.e.e.e.e.e.e.e.e.e.e.e.e.e",
"QtQtQtQtQt.#.eQtQtQtQtQtQt.b.g.0.u.3.6.k.k.k.k.k#g.k.k.k.k.k.k.k.k.k.k.k.A.A.k.k.k.k.k.k.l.o.B.C.U.cQtQtQtQtQtQtQtQtQtQtQtQtQtQt",
"QtQtQtQtQt.#.eQtQtQtQtQtQt.b#m.Y#n.3.k.k.k.k.k.T.C.o.k.k.k.k.k.k.k.k.k#o.C.C#o.k.k.k.k.k.l.o.A.C.A#pQtQtQtQtQtQtQtQtQtQtQtQtQtQt",
"QtQtQtQtQt.#.eQtQtQtQtQtQt.c.k#q#r.5.k.k.k.k.k.C.C.A.k.k.k.k.k.k.k.k.k.n.C.C#o.k.k.k.k.k.l.o.T.C.C.qQtQtQtQtQtQtQtQtQtQtQtQtQtQt",
"QtQtQtQtQt.#.eQtQtQtQtQtQt.c.l.Y.0.6.k.k.k.k.k.A.C.A.k.k.k.k.k.k.k.k.k.n.C.C#o.k.k.k.k.k#o.o.o.C.C.j.cQtQtQtQtQtQtQtQtQtQtQtQtQt",
".e.e.e.e.e.W.E.e.e.e.e.e.eQt.S.o.0.j.k.k.k.k.k.A.C.A.k.k.k.k.k.k.k.k.k.n.C.C#o.k.k.k.k.k#o.o.o.C.C.kQt.e.e.e.e.e.e.e.e.e.e.e.e.e",
".e.e.e.e.e.e.e.e.e.e.e.e.e.e.A.T#s.7.k.k.k.k.k.A.C.A.k.k.k.k.k.k.k.k.k.k.B.A.k.k.k.k.k.k#o.o.o.B.C.m.e.e.e.e.e.e.e.e.e.e.e.e.e.e",
"QtQtQtQtQtQtQtQtQtQtQtQtQt.e.C.C.n.k.k.k.k.k.k.U.B.l.k.k.k.k.k.k.k.k.k.k.k.k.k.k.k.k.k.k#o.o.o.A.C.T.fQtQtQtQtQtQtQtQtQtQtQtQtQt",
"QtQtQtQtQtQtQtQtQtQtQtQt.b.g.C.C.l.k.k.k.k.k.k.k.k.k.k.k.k.k.k.k.k.k.k.k.k.k.k.k.k.k.k.k#o.o.o.A.C.T#hQtQtQtQtQtQtQtQtQtQtQtQtQt",
"QtQtQtQtQtQtQtQtQtQtQtQt.b.t.C.C#o.k.k.k.k.k.k.k.k.k.k.k.k.k.k.k.k.k.k.k.k.k.k.k.k.k.k#o.l.o.o.T.C.T.eQtQtQtQtQtQtQtQtQtQtQtQtQt",
"QtQtQtQtQtQtQtQtQtQtQtQt.b.D.C.C#o.k.k.k.k.k.k.k.k.k.k.k.k.k.k.k.k.k.k.k.k.k.k#o#o.l.o.o.o.o.o.A.C.T.fQtQtQtQtQtQtQtQtQtQtQtQtQt",
".#.#.#.#.#.#.#.#.#.#.#.#.s.6.C.C#o.k.k.k.k.k.k.k.k.k.k.k.k.k.k#g#o#o.l.l.m.o.o.o.o.o.o.o.T.A.C.C.C.j.#.#.#.#.#.#.#.#.#.#.#.#.#.#",
"QtQtQtQtQtQtQtQtQtQtQtQtQt.r.B.C.T.p.Y.l.l.l.m.m.l.m.m.m.o.o.o.o.o.o.o.o.o.o.o.o.S.T.A.C.C.C.C.B.pQtQtQtQtQtQtQtQtQtQtQtQtQtQtQt",
"QtQtQtQtQtQtQtQtQtQtQtQtQt.e.Y.C.C.A.A.T.T.S.T.S.o.S.o.o.o.o.o.U.S.T.T.A.A.B.B.C.C.C.C.C.C.C#o.V.cQtQtQtQtQtQtQtQtQtQtQtQtQtQtQt",
"QtQtQtQtQtQtQtQtQtQtQtQtQt.#Qt.o.C.C.C.C.C.C.C.C.C.C.C.C.C.C.C.C.C.C.C.C.C.C.C.C.C.C.A.A.U.D#tQtQtQtQtQtQtQtQtQtQtQtQtQtQtQtQtQt",
"QtQtQtQtQtQtQtQtQtQtQtQtQt.#QtQt.j.o.A.B.B.C.C.C.C.C.C.C.C.C.C.C.C.C.B.A.S.l.p.A.C#uQtQt.f.cQtQtQtQtQtQtQtQtQtQtQtQtQtQtQtQtQtQt",
"QtQtQtQtQtQtQtQtQtQtQtQtQt.#QtQt.c.cQt.e.eQt.y.C.D#v#v.D#w#v.D.h.g.V.eQt.c.c.c#x.C.z.c.e.sQtQtQtQtQtQtQtQtQtQtQtQtQtQtQtQtQtQtQt",
".#.#.#.#.#.#.#.#.#.#.#.#.#.W.#.#.#.#.E.s.##y#z.C.s.e.e.e.e.e.e.s.s.s.s.E.#.#.##A.T.S.s.W.W.#.#.#.#.#.#.#.#.#.#.#.#.#.#.#.#.#.#.#",
"QtQtQtQtQtQt#B.#QtQtQtQtQtQtQtQtQtQtQtQt.e#C.u.AQtQtQtQtQtQtQtQtQtQtQtQtQtQt.e#D#n#E.#.eQtQtQtQtQtQtQtQtQtQtQtQtQtQtQtQtQtQtQtQt",
"QtQtQtQtQtQtQt.#QtQtQtQtQtQtQtQtQtQtQtQt.e#F.x.S.cQtQtQtQtQtQtQtQtQtQtQtQtQt.e#G#H.C.hQtQtQtQtQtQtQtQtQtQtQtQtQtQtQtQtQtQtQtQtQt",
"QtQtQtQtQtQtQt.#QtQtQtQtQtQtQtQtQtQtQtQt.e#I.Y.T.cQtQtQtQtQtQtQtQtQtQtQtQtQtQt#J#K.C.j.c.c.bQtQtQtQtQtQtQtQtQtQtQtQtQtQtQtQtQtQt",
"QtQtQtQtQtQtQt.#QtQtQtQtQtQtQtQtQtQtQtQt#B#L.A.U#t.b.b.c.c.c.bQt#p.F.V.q.#.#.h#w#n.C.T#c#c#wQtQtQtQtQtQtQtQtQtQtQtQtQtQtQtQtQtQt",
"QtQtQtQtQtQt#B.#QtQtQtQtQtQtQtQtQtQtQt.e.V.k.C.S#w.j.z.l.n.S.A.A.B.C.C.C.C.C.C.C.C.C.C.C.C.C.T.eQtQtQtQtQtQtQtQtQtQtQtQtQtQtQtQt",
".#.#.#.#.#.#.#.#.#.#.#.#.#.#.#.E.s#M.j#N#z#O#P#Q#R#S#T#i.u#U#q.T.C.C.C.C.C.C.C.C.C#E.B.A.B.C.C#V.#.s.#.#.#.#.#.#.#.#.#.#.#.#.#.W",
".eQtQtQtQtQtQtQtQtQtQtQtQtQtQtQt.q#N#q#W.z.z#o.0.Y.1.m.o.U.o.U.o.m.n.l.n.l#o#c.k.k.k.k.k.k.m.C.C#o.cQtQtQtQtQtQtQtQtQtQtQtQtQt.#",
".eQtQtQtQtQtQtQtQtQtQtQtQtQt.a.g.M.o.A#j#X#Y#Z#0.5.j.7.k.k.k.k.k.k.k.k.k.k.k.k.k.k.k.k.k.k.7.T.C.C.eQtQtQtQtQtQtQtQtQtQtQtQtQt.#",
".eQtQtQtQtQtQtQtQtQtQtQtQtQt.#.x#n.A.9#1#2.j.k.k.k.k.k.k.k.k.k.k.k.k.k.k.k.k.k.k.k.k.k.k.k.k#g.C.C.j.cQtQtQtQtQtQtQtQtQtQtQtQt.#",
".eQtQtQtQtQtQtQtQtQtQtQtQt.c.n.o.C#o.7.k.k.k.k.k.k#g#o#o#g.k.k.k.7.p.p.k.k.k.k.k.k.k.k.k.k#c.k.A.C.o.cQtQtQtQtQtQtQtQtQtQtQtQt.#",
".eQtQtQtQtQtQtQtQtQtQtQtQt.#.C.C.U.7.l.U.T#V.T.o.7.t#3#4#A#5#6#7#8#9#8a.a#aaab.x.7.n.U.o.T.S.o.T.C.BacQtQtQtQtQtQtQtQtQtQtQtQt.#",
".#.#.#.#.#.#.#.#.#.#.#.#.e#o.C.C#g.l.B.C.C.T.Y.yad.y#W.Y.0.o.T.A.A.A.Bae.B.B.A.A.A.B.C.B.A.T.o.S.C.C.j.s.#.#.#.#.#.#.#.#.#.#.#.W",
"QtQtQtQtQtQtQtQtQtQtQtQtQt.A.C.T.m.o.o.o.o.S.T.A.A.A.A.A.A.A.A.A.A.A.A.A.T.T.T.T.T.S.o.o.o.o.o.o.C.C.A.eQtQtQtQtQtQtQtQtQtQtQtQt",
"QtQtQtQtQtQtQtQtQtQtQt.b.t.C.C.o.o.o.o.o.o.o.o.o.o.o.o.o.o.o.o.o.o.o.o.o.o.o.o.o.o.o.o.o.o.o.o.o.S.C.C#w.cQtQtQtQtQtQtQtQtQtQtQt",
"QtQtQtQtQtQtQtQtQtQtQtQt.q.C.C.C.B.A.A.T.T.T.T.T.S.S.U.U.o.o.o.o.o.o.o.o.o.o.S.S.T.T.T.T.T.A.A.A.C.C.C.p.cQtQtQtQtQtQtQtQtQtQtQt",
"QtQtQtQtQtQtQtQtQtQtQtQt.b.k.C.C.C.C.C.C.C.C.C.C.C.C.C.C.C.C.C.C.C.C.C.C.C.C.C.C.C.C.C.C.C.C.C.C.C.C.A.qQtQtQtQtQtQtQtQtQtQtQtQt",
"QtQtQtQtQtQtQtQtQtQtQtQtQt#h.h.z.U.B.C.C.C.C.C.C.B.C.C.C.C.C.C.C.C.C.C.C.C.C.C.C.C.C.C.C.C.C.C.B#o.j.#.sQtQtQtQtQtQtQtQtQtQtQtQt",
".e.e.e.e.e.e.e.e.e.e.e.e.e.#.sQt#yab.C.C.l.C.C.A#v#w.j.j#w#w.j#w#w#w#w#w#w#M.D.r#v.C.C.C#o.y.C.BQt.a.s.#.e.e.e.e.e.e.e.e.e.e.e.e",
".W.W.W.W.W.W.W.d.d.#.#.#.#.#.#.rafag.C.C.o.C.C.C.C.C.C.C.B.A.A.T.T.T.T.U.o.m.m.0.o.C.C.C#oah.z.C#v.#.#.W.W.W.W.W.W.W.W.W.W.W.W.W",
"QtQtQtQtQtQtQt.e.EQtQtQtQtQtQtQtai#W.C#E.l.C.C.C.C.C.C.C.C.C.C.C.C.C.C.C.C.C.C.C.C.C.C.C.najak.C.p.cQtQtQtQtQtQtQtQtQtQtQtQtQtQt",
"QtQtQtQtQtQtQt.e.EQtQtQtQtQtQtalam.A.C.C.A.C.C.C.C.C.C.C.C.C.C.C.C.C.C.C.C.C.C.C.C.C.C.C.C.Aab.C.o.cQtQtQtQtQtQtQtQtQtQtQtQtQtQt",
"QtQtQtQtQtQtQt.e.EQtQtQtQtQt.eanao.C.C.C.C.C.C.C.C#E.C.C.C.C.C.C.C.C.C.C.C.C.C.C.C.C.C.A.B.C.T.C.A.bQtQtQtQtQtQtQtQtQtQtQtQtQtQt",
"QtQtQtQtQtQtQt.e.EQtQtQtQtQt.eap.J.C.C.A.T.T.T.T.T.S.U.o.o.o.m.o.U.U.S.T.T.U.U.o.n.l#o#o#o.m.C.C.C.VQtQtQtQtQtQtQtQtQtQtQtQtQtQt",
"QtQtQtQtQtQtQt.e.EQtQtQtQtQt.eaqak.C.C.C.C.C.C.C.C.C.C.C.C.C.C.C.C.C.C.C.C.C.C.C.C.C.C.C.C.C.l.C.C#v.cQtQtQtQtQtQtQtQtQtQtQtQtQt",
".#.#.#.#.#.#.#.W.d.#.#.#.#.#.rar#n.C.C.A.C.C.A#V.A.A.A.A.A.B.A.A.A.A.A.A.A.A.A.A.B.A.C.C.C.A.w.B.C#o.e.#.#.#.#.#.#.#.#.#.#.#.#.#",
".W.e.e.e.e.e.e.e.e.e.e.e.e.e.eas.o.C#V.U.C.C.7.b.f#h.f.e.e.e.e.e.f.f.f.s.WQtQt.e.e.a.T.C.C.pap.l.C.U.a.e.e.e.e.e.e.e.e.e.e.e.e.e",
".#QtQtQtQtQtQtQtQtQtQtQtQtQtat#5.C.C.l.A.C.C.q.bQtQtQtQtQtQtQtQtQtQtQt.e.dQtQtQtQt#t.l.C.C.nau.x.C.A.aQtQtQtQtQtQtQtQtQtQtQtQtQt",
".#QtQtQtQtQtQtQtQtQtQtQtQtQtatav.C.C.j.B.C.A.bQtQtQtQtQtQtQtQtQtQtQtQt.e.dQtQtQtQt.c.j.C.C.T#yaw.C.C.eQtQtQtQtQtQtQtQtQtQtQtQtQt",
".#QtQtQtQtQtQtQtQtQtQtQtQt.eax.u.C.A.j.C.C.U.cQtQtQtQtQtQtQtQtQtQtQtQt.e.dQtQtQtQt.bay.C.C.C#pazae.C#u.cQtQtQtQtQtQtQtQtQtQtQtQt",
".#QtQtQtQtQtQtQtQtQtQtQtQtay#k.Y.C.S#o.C.C.k.cQtQtQtQtQtQtQtQtQtQtQtQt.e.dQtQtQtQtQtQt.A.C.CaAaB.o.C.l.cQtQtQtQtQtQtQtQtQtQtQtQt",
".#QtQtQtQtQtQtQtQtQtQtQtQt#w.M.A.C.z.o.C.C.hQtQtQtQtQtQtQtQtQtQtQtQtQt.s.dQtQtQtQtQt.c#V.C.C.p#C.y.C.T.cQtQtQtQtQtQtQtQtQtQtQtQt",
".r.d.d.d.d.d.d.d.d.d.d.d.##r.x.C.CaCaD.C.A.d.W.d.d.d.d.d.d.d.d.d.d.d.d.r.r.#.#.#.#.#.s.m.C.A.haE.w.C.C#M.s.#.#.#.#.#.#.#.#.#.#.#",
"QtQtQtQtQtQtQtQtQtQtQtQtQt.z.Y.C.AQtQt.g.VQtQtQtQtQtQtQtQtQtQtQtQtQtQtQtQtQtQtQtQtQtQt.V.z.eQtaF#x.C.C.zQtQtQtQtQtQtQtQtQtQtQtQt",
"QtQtQtQtQtQtQtQtQtQtQtQtQt.z.A.C.k.cQtQtQtQtQtQtQtQtQtQtQtQtQtQtQtQtQtQtQtQtQtQtQtQtQtQt.cQtQt.aaG.C.C.m.cQtQtQtQtQtQtQtQtQtQtQt",
"QtQtQtQtQtQtQtQtQtQtQtQt.b.l.C.C.VQtQtQtQtQtQtQtQtQtQtQtQtQtQtQtQtQtQtQtQtQtQtQtQtQtQtQtQtQtQtQt.c.A.C.S.bQtQtQtQtQtQtQtQtQtQtQt",
"QtQtQtQtQtQtQtQtQtQtQtQtQtay#o.D.bQtQtQtQtQtQtQtQtQtQtQtQtQtQtQtQtQtQtQtQtQtQtQtQtQtQtQtQtQtQtQt.b.y.TaHQtQtQtQtQtQtQtQtQtQtQtQt",
"QtQtQtQtQtQtQtQtQtQtQtQtQtQt.e.bQtQtQtQtQtQtQtQtQtQtQtQtQtQtQtQtQtQtQtQtQtQtQtQtQtQtQtQtQtQtQtQtQt.aQt.WQtQtQtQtQtQtQtQtQtQtQtQt"};
