/* XPM */
static char *dummy[]={
"64 64 328 2",
".o c #000000",
"bF c #002100",
"#1 c #002a16",
".L c #0c3124",
".n c #161519",
".2 c #1c1500",
"c7 c #1c372e",
"#a c #222126",
"#I c #263c36",
"#r c #272117",
"#q c #2a3c2d",
".p c #2b0002",
".y c #2b2a30",
"bE c #2e413d",
".z c #2f2925",
"bt c #314135",
".q c #33001a",
".r c #35312f",
"c5 c #383023",
"#F c #38373f",
"#J c #38554d",
"#b c #391527",
".x c #3b3737",
"d. c #3d5852",
"#G c #3e2130",
"ah c #3e362e",
"#x c #3e4a43",
"#w c #412126",
"a. c #413c3e",
"a4 c #433c36",
"#C c #434e48",
"#j c #454144",
"bf c #46292f",
".w c #48413d",
".M c #4a3037",
"db c #4a4135",
"#p c #4b5f51",
"cW c #4c302e",
"#5 c #4c5552",
".P c #4e373e",
"bo c #4e4a4e",
"bs c #4f6256",
".3 c #503736",
"aF c #504a49",
"#V c #505857",
"#N c #51655e",
".s c #523c44",
"#B c #536f65",
".O c #543c3d",
"d# c #54493b",
"cF c #563c35",
"de c #564e48",
"cd c #574d42",
"cV c #575153",
".A c #584143",
".K c #595f5b",
"bD c #5a746c",
"df c #5b3037",
".j c #5b4549",
".1 c #5b6263",
".v c #5c5552",
"bX c #5d4543",
"cc c #5e363e",
".t c #5e4a4e",
"#2 c #5e6d65",
"#K c #5f766c",
"bn c #603c4a",
".i c #604a48",
".u c #605857",
"#y c #607f72",
"#A c #60877a",
"#s c #615c5f",
"cK c #623c44",
"dd c #626f65",
".l c #634e4d",
"ci c #63897d",
".a c #644d48",
"b4 c #645b56",
"cx c #645f63",
"bB c #64786b",
".k c #654149",
"bC c #65897a",
"bm c #664143",
".h c #665152",
"cp c #666a6a",
"c. c #668b80",
".e c #67514d",
"aa c #675f5a",
"a# c #68454e",
"dc c #687b6b",
".c c #694549",
"cy c #695147",
"#i c #696d6d",
"#z c #698d82",
"#W c #6a4a53",
"cq c #6a5e50",
"be c #6a615e",
"bP c #6a8d7f",
"da c #6b8577",
".# c #6c4a4e",
"bY c #6c554c",
"#S c #6c585b",
".f c #6d4948",
".4 c #6d4e58",
"#k c #6d6f6c",
"#H c #6e645e",
"bA c #6e7668",
".b c #6f4d53",
"b5 c #6f584c",
"cA c #6f6459",
".d c #704d4d",
"#M c #709085",
"Qt c #715157",
"bL c #716454",
"ap c #716a6d",
".N c #725152",
"cu c #725b51",
"c4 c #74454e",
".m c #74555b",
"#9 c #747676",
"aP c #754a58",
".g c #755557",
"cL c #755e55",
"bg c #756162",
"c8 c #765e50",
"#L c #769b8e",
"ch c #76a594",
"cZ c #777879",
"b8 c #77a192",
"bR c #786155",
"#O c #794d57",
"aZ c #796f68",
"#o c #797b7c",
".B c #7a5b5f",
"cb c #7a6f64",
"cn c #7a9c8e",
"b2 c #7aa898",
"bz c #7b515b",
"bK c #7b6459",
"b# c #7b716f",
"c9 c #7c5b55",
"c1 c #7c6454",
"cg c #7c9e90",
"b9 c #7da494",
"cR c #7e6758",
"## c #7e7679",
"bM c #7e8377",
"bZ c #7f5e55",
"cm c #7f6a61",
".5 c #7f6c6c",
"#c c #7f8786",
"cS c #80695c",
"#X c #807672",
"b1 c #809b8e",
"cz c #816159",
"#v c #818181",
"cM c #826c60",
"ag c #828386",
"aB c #838383",
"cv c #846f64",
"cs c #84786e",
"aO c #857a75",
"cG c #866761",
"bO c #86a497",
"c2 c #877168",
"bN c #879f95",
"#U c #889b93",
"bS c #889f92",
"br c #897c71",
"cH c #8a7367",
"cf c #8a9487",
"bl c #8b766e",
".J c #8d8d90",
"b7 c #8d9087",
"b6 c #8e897c",
"#D c #8e8d8d",
"cN c #8f7a71",
"a3 c #8f7a75",
"#P c #907d7b",
"c0 c #908f8f",
"bp c #909696",
"bI c #917c74",
"cI c #947875",
"as c #947e74",
"ce c #94877c",
"c# c #95817a",
"at c #968177",
"#R c #968380",
"bQ c #96897f",
"bT c #969496",
"#T c #96b5aa",
"cP c #977a74",
"#l c #979b9a",
"a9 c #98837a",
"b0 c #99857d",
"an c #998580",
"ai c #9a8785",
"a8 c #9a8c82",
"aN c #9b877f",
"a5 c #9b8988",
"aY c #9c877c",
"ct c #9c999a",
"aM c #9d8982",
"#3 c #9eb1ab",
"ca c #9f8a82",
"aT c #9f8b85",
"cr c #a08580",
"au c #a08c87",
"aQ c #a0948e",
"bc c #a1948c",
".Q c #a28e8a",
"#t c #a2a4a4",
"am c #a3958e",
"#d c #a39fa2",
"#6 c #a5928e",
".0 c #a5a7a8",
"a1 c #a69993",
".S c #a79491",
"ck c #a79990",
"cC c #a79a95",
"bi c #a79a97",
".R c #a89593",
"bh c #a8a2a0",
"ay c #a99590",
"cB c #a99c97",
".C c #aa9795",
"aW c #aa9e99",
"#8 c #aaabab",
"bu c #aab1b1",
"#Y c #ab9793",
".E c #ac9995",
"cT c #ac9f9b",
"af c #acadad",
"ar c #ad9f99",
"c6 c #ada1a0",
".D c #ae9a97",
"cw c #aea19d",
"cU c #aea7a1",
"aJ c #aea8a7",
"#Q c #af9c99",
"aI c #afa29f",
"bx c #b0a29d",
"cX c #b0a4a1",
"bW c #b0a8a3",
"c3 c #b0b1b3",
"aG c #b19795",
"ab c #b19fa0",
"bj c #b1aaa5",
"#4 c #b1c4bd",
".7 c #b29f9e",
"a0 c #b2a5a3",
".6 c #b39f9b",
"bV c #b3a7a5",
"bH c #b3aba5",
".I c #b3b4b6",
"aK c #b4ada9",
"ba c #b59c9c",
"cJ c #b5aeab",
"bG c #b5babb",
"aC c #b6aaa9",
"bd c #b6aea9",
"aq c #b7aaa7",
"aE c #b7afad",
"al c #b7b5b0",
"a6 c #b8abab",
"#7 c #b8b1ae",
"aU c #b9adad",
"az c #bab2b0",
"a2 c #bab7b3",
"aR c #bab8b5",
"#e c #bab9bb",
"#0 c #babebe",
"aV c #bbb4b2",
"cD c #bcb5b4",
"aw c #bcbab9",
"cl c #bcbabb",
"bk c #bdbab7",
"bw c #beb8b9",
"#h c #bec2c3",
".F c #bfb8b7",
"by c #bfc2bf",
"b3 c #c0bdba",
".T c #c0bebe",
"#m c #c0c3c2",
"bJ c #c1bebc",
"#. c #c1bfc1",
"#Z c #c2bfbd",
"ad c #c3c0bf",
"ax c #c3c0c1",
"aS c #c3c5c4",
"a7 c #c4c2c2",
"aL c #c5c2c1",
"cO c #c5c3c4",
"cQ c #c5c8c9",
"aj c #c6c3c2",
"aX c #c6c8c7",
"aH c #c7c4c4",
"aD c #c7c4c6",
"#f c #c7c9c8",
"co c #c8c5c5",
"aA c #c8c5c7",
"bb c #c8caca",
"#E c #c8cacc",
"ac c #c8cfce",
"cE c #c9c7c9",
".Z c #cacbcb",
"b. c #caccce",
"bU c #cbc8c8",
".H c #cbcccd",
"ak c #cbcdd0",
"av c #ccc9cc",
".V c #cccdce",
"cY c #ccd2d2",
"ae c #cdc9c8",
"cj c #cdcacb",
".U c #cdcfd0",
".W c #ced0d1",
"bq c #ced0d3",
".8 c #cfd0d0",
".9 c #d0d1d3",
"bv c #d0d5d5",
".G c #d1d2d2",
".X c #d3d3d4",
"#u c #d3d7d6",
".Y c #d4d4d5",
"#g c #d5d5d7",
"#n c #d7d7d9",
"ao c #dcdcdd",
"QtQtQtQtQtQtQtQtQtQtQtQtQtQt.#QtQtQtQtQtQtQtQtQtQtQtQtQtQtQtQtQtQtQtQtQtQtQtQtQtQtQtQtQtQtQtQtQtQtQtQt.aQtQtQtQtQtQtQtQtQtQtQtQt",
".b.b.b.b.b.b.b.b.b.b.b.b.b.b.#.b.b.b.b.b.b.b.b.b.b.b.b.b.b.b.b.b.b.b.b.b.b.b.b.b.b.b.b.b.b.b.b.b.b.b.b.c.b.b.b.b.b.b.b.b.b.b.b.b",
".d.d.d.d.d.d.d.d.d.d.d.d.d.d.d.b.#.#.b.b.b.b.b.b.b.b.b.b.b.b.b.b.b.b.b.b.b.b.b.b.b.b.b.b.b.b.b.b.b.b.b.b.b.b.b.b.a.e.d.d.d.d.d.d",
"QtQtQtQtQtQtQtQtQtQtQtQtQtQtQtQt.e.eQtQtQtQtQtQtQtQtQtQtQtQtQtQtQtQtQtQtQtQtQtQtQtQtQtQtQtQtQtQtQtQtQtQtQtQtQtQt.fQtQtQtQtQtQtQt",
"QtQtQtQtQtQtQtQtQtQtQtQtQtQtQtQt.e.eQtQtQtQtQtQtQtQt.g.g.gQtQtQtQtQtQtQtQtQtQtQtQtQtQtQtQtQtQtQtQtQtQtQtQtQtQtQt.fQtQtQtQtQtQtQt",
"QtQtQtQtQtQtQtQtQtQtQtQtQtQtQtQt.e.eQtQtQtQtQtQtQt.h.i.j.k.lQt.m.m.m.gQtQtQtQtQtQtQtQtQtQtQtQtQtQtQtQtQtQtQtQtQt.fQtQtQtQtQtQtQt",
"QtQtQtQtQtQtQtQtQtQtQtQtQtQtQtQt.e.eQtQtQtQtQtQt.h.n.o.o.o.o.p.q.r.s.tQt.m.gQtQtQtQtQtQtQtQtQtQtQtQtQtQtQtQtQtQt.fQtQtQtQtQtQtQt",
"QtQtQtQtQtQtQtQtQtQtQtQtQtQtQtQt.e.eQtQtQtQtQtQtQt.u.v.w.x.x.y.o.o.o.o.n.z.AQt.mQtQtQtQtQtQtQtQtQtQtQtQtQtQtQtQt.fQtQtQtQtQtQtQt",
".d.d.d.d.d.d.d.d.d.d.d.d.d.d.d.b.#.#.b.d.d.d.d.b.B.C.D.E.F.G.H.I.J.K.L.o.o.o.n.M.#.N.d.d.d.d.d.d.d.d.d.d.d.d.d.d.a.e.d.d.d.d.d.d",
".b.b.b.b.b.f.d.b.b.b.b.b.b.b.b.b.b.b.b.b.b.bQt.O.P.Q.R.S.T.U.V.W.X.Y.Z.0.1.n.o.o.2.3Qt.N.b.b.b.b.b.b.b.b.b.b.b.b.b.b.b.b.b.b.b.b",
"QtQtQtQtQt.#.bQtQtQtQtQtQtQtQtQtQtQtQtQtQtQt.4.2.o.5.6.7.8.G.U.U.H.H.V.9.Y#.###a.o.o#b.hQtQtQtQtQtQtQtQtQtQtQtQtQtQtQtQtQtQtQtQt",
"QtQtQtQtQt.#.bQtQtQtQtQtQtQtQtQtQtQtQtQtQt.g.j.o.o.z.P.v#c#d#e#f.G.Y.G.U.H.U#g#h#i.o.o#b.mQtQtQtQtQtQtQtQtQtQtQtQtQtQtQtQtQtQtQt",
"QtQtQtQtQt.#.bQtQtQtQtQtQtQtQtQtQtQtQtQtQt.m.r.o.o.o.o.o.o.o.2#a#j#k#l#m.Y.G.V.U#n#o.o.q.gQtQtQtQtQtQtQtQtQtQtQtQtQtQtQtQtQtQtQt",
"QtQtQtQtQt.#.bQtQtQtQtQtQtQtQtQtQtQtQtQtQt.g.n.o.z#p#q#a.n.o.o.o.o.o.o#r#s#t.V.X#u#v.o#r.mQtQtQtQtQtQtQtQtQtQtQtQtQtQtQtQtQtQtQt",
".b.b.b.b.b.f.e.b.b.b.b.b.b.b.b.b.b.b.b.b.b.N#w.o.n.r#x#p#y#z#A#B#C.y.o.o.o.o.r#D#E#F.o#GQt.b.b.b.b.b.b.b.b.b.b.b.b.b.b.b.b.b.b.b",
".b.b.b.b.b.b.b.b.b.b.b.b.b.b.b.b.b.b.b.b.b.l.m#H.y.o.o.o.o.n#I#J#K#L#M#N.y.o.o.o#a.o.o.OQt.b.b.b.b.e.#.b.b.b.b.b.b.b.b.b.b.b.b.b",
"QtQtQtQtQtQtQtQtQtQtQtQtQtQtQtQtQtQtQtQt#O#a.o#P#Q#R#S.y.n.o.o.o.o.n#x#z#T#U#V.n.o.o.o#WQtQtQtQtQt.b.eQtQtQtQtQtQtQtQtQtQtQtQtQt",
"QtQtQtQtQtQtQtQtQtQtQtQtQtQtQtQtQtQtQt.m.O.o.o#X.E#Y.E#Z#0#l#i.y.o.o.o.o#1#2#3#4#5.o.nQtQtQtQtQtQt.b.eQtQtQtQtQtQtQtQtQtQtQtQtQt",
"QtQtQtQtQtQtQtQtQtQtQtQtQtQtQtQtQtQtQt.g.q.o.z.S.R#6#7.U.U.G#g.V#8#9a.#a.o.o.o#I.n.o.x.mQtQtQtQtQt.b.eQtQtQtQtQtQtQtQtQtQtQtQtQt",
"QtQtQtQtQtQtQtQtQtQtQtQtQtQtQtQtQtQt.ga#.o.oaa.D#6ab.Zac.H.V.Vadae#g.9#fafag#5#a.o.o.j.mQtQtQtQtQt.b.eQtQtQtQtQtQtQtQtQtQtQtQtQt",
".#.#.#.#.#.#.#.#.#.#.#.#.#.#.#.#.#.#.bah.o.nai.R#Yajak.Hakalamanam.Z.V.U.9.Xaoap.o.n.d.d.e.e.e.e.e.#.a.#.#.#.#.#.#.#.#.#.#.#.#.#",
"QtQtQtQtQtQtQtQtQtQtQtQtQt.#.bQtQtQtQt.n.o.x.D#6aqak.H.H.Uarasatauavac.H.H.V.V.r.o#G.m.b.eQtQtQtQtQtQtQtQtQtQtQtQtQtQtQtQtQtQtQt",
"QtQtQtQtQtQtQtQtQtQtQtQtQt.#QtQtQt.g.t.o.o#H.E#6awak.H.H.Vaxayayazac.H.H.H.9af.o.o.s.m.b.dQtQtQtQtQtQtQtQtQtQtQtQtQtQtQtQtQtQtQt",
"QtQtQtQtQtQtQtQtQtQtQtQtQt.#QtQtQt.m.M.o.2ai.R#YaA.V.H.H.H.V.Hac.U.H.H.V.U.YaB.o.o.bQt.b.dQtQtQtQtQtQtQtQtQtQtQtQtQtQtQtQtQtQtQt",
"QtQtQtQtQtQtQtQtQtQtQtQtQt.#QtQtQt.m#r.o.r.E#6aC.V.H.H.H.H.H.H.H.H.H.VaDaE.GaF.o#a.mQt.b.dQtQtQtQtQtQtQtQtQtQtQtQtQtQtQtQtQtQtQt",
"QtQtQtQtQtQtQtQtQtQtQtQtQt.#QtQtQt.b.o.o.vaG#YaH.V.H.H.H.H.H.H.H.H.H.UaIataJ#r.o.P.mQt.b.dQtQtQtQtQtQtQtQtQtQtQtQtQtQtQtQtQtQtQt",
".#.#.#.#.#.#.#.#.#.#.#.#.#.f.#.#.b.O.o.o#P.RaKak.H.H.H.H.H.H.H.H.H.VaLaMaNaO.o.o.i.d.#.f.f.#.#.#.#.#.#.#.#.#.#.#.#.#.#.#.#.#.#.#",
"QtQtQtQtQtQtaP.#QtQtQtQtQtQtQtQt.m.z.o.naQ.SaRak.H.H.H.H.Uakac.H.H.VaSaTaM.A.o#r.mQt.#.bQtQtQtQtQtQtQtQtQtQtQtQtQtQtQtQtQtQtQtQt",
"QtQtQtQtQtQtQt.#QtQtQtQtQtQtQtQtQt.n.o.s.D#6aUak.H.H.H.VaVaWaX.V.H.H.HamaY.z.o.r.mQt.#.bQtQtQtQtQtQtQtQtQtQtQtQtQtQtQtQtQtQtQtQt",
"QtQtQtQtQtQtQt.#QtQtQtQtQtQtQt.g.i.o.oaZ.E#6a0.V.H.H.Haka1asaE.U.H.Haka2a3.o.o.A.mQt.#.bQtQtQtQtQtQtQtQtQtQtQtQtQtQtQtQtQtQtQtQt",
"QtQtQtQtQtQtQt.#QtQtQtQtQtQtQt.ma4.o.2a5.R#6a6ak.H.H.Va7a8a9#6.Z.V.Hb.#gb#.o.o.bQtQt.#.bQtQtQtQtQtQtQtQtQtQtQtQtQtQtQtQtQtQtQtQt",
"QtQtQtQtQtQtaP.#QtQtQtQtQtQtQt.g#a.o.xba.E.Cadak.H.HacbbbcataMaA.V.Havbdbe.obf.gQtQt.#.bQtQtQtQtQtQtQtQtQtQtQtQtQtQtQtQtQtQtQtQt",
".#.#.#.#.#.#.#.#.#.#.#.#.#.#.d.#.p.o#aaFbgbh.Y.X.V.H.Hakaxbibj.H.H.Ubkbl#r.obm.d.#.#.#.#.#.#.#.#.#.#.#.#.#.#.#.#.#.#.#.#.#.#.#.f",
".bQtQtQtQtQtQtQtQtQtQtQtQtQt.gbn.o.o.o.o.o.nbobp.H.9.H.Vbq.W.U.H.Hak#Zbr.n.o.j.mQtQtQtQtQtQtQtQtQtQtQtQtQtQtQtQtQtQtQtQtQtQtQt.#",
".bQtQtQtQtQtQtQtQtQtQtQtQtQt.mbf.o.nbsbt.n.o.o.o#Ibubvbwbxby.U.H.H.H.UaV.3.o.ObzQtQtQtQtQtQtQtQtQtQtQtQtQtQtQtQtQtQtQtQtQtQtQt.#",
".bQtQtQtQtQtQtQtQtQtQtQtQtQtQt.n.o.zbAbBbCbDbEbF.o#abGbHbIaTbJak.H.H.Hbv#i.o.obfQt.gQtQtQtQtQtQtQtQtQtQtQtQtQtQtQtQtQtQtQtQtQt.#",
".bQtQtQtQtQtQtQtQtQtQtQtQtQt.b.p.o.3bKbLbMbNbObP#1.o#C.ZauatbQaE.U.H.H.V.U#5.o.o.n.t.mQtQtQtQtQtQtQtQtQtQtQtQtQtQtQtQtQtQtQtQt.#",
".bQtQtQtQtQtQtQtQtQtQtQtQt#O.e.o.o.abKbRasbQanbS#A.o.obTbUamatbV.U.H.H.H.9bW.w.o.o.o.O.mQtQtQtQtQtQtQtQtQtQtQtQtQtQtQtQtQtQtQt.#",
".#.#.#.#.#.#.#.#.#.#.#.#.#.dbX.o.obYbZbKa9b0anb1b2bE.obo#uaXb3av.H.H.H.H.UaKaNb4.o.o.o.r.d.#.#.#.#.#.f.#.#.#.#.#.#.#.#.#.#.#.#.f",
"QtQtQtQtQtQtQtQtQtQtQtQtQt.b.3.o.ob5bRbKb6b7b1b8b9c.#1#v.G.Vak.H.H.H.H.H.Ubjc#cacb#r.o.o#b.4QtQtQtQt.d.eQtQtQtQtQtQtQtQtQtQtQtQt",
"QtQtQtQtQtQtQtQtQtQtQtQtQt.bcc.o.ocdbKbKcecfcgb8chcibDcj.V.H.H.H.H.H.H.Hak#ZaTb0ckclbo.o.o#r.b.gQtQt.b.eQtQtQtQtQtQtQtQtQtQtQtQt",
"QtQtQtQtQtQtQtQtQtQtQtQtQt.d.#.n.o.nbRbRcmasaNcfcn#r.o#l.G.H.H.H.H.H.H.H.H.Vco#Zav.9.Vcp.o.o.nQtQtQt.b.eQtQtQtQtQtQtQtQtQtQtQtQt",
"QtQtQtQtQtQtQtQtQtQtQtQtQt.e.b.k.o.ocqbKbRbKblcrcs.o.oct.X.H.H.H.H.H.H.H.H.H.Vakac.H.U#uap.o.o#G.mQt.b.eQtQtQtQtQtQtQtQtQtQtQtQt",
"QtQtQtQtQtQtQtQtQtQtQtQtQt.e.e.m.O.z#r.zcubKbRcva9.xbfcw.V.U.H.H.H.Vak.U.V.H.H.H.H.H.H.V.Gcx.o.o.P.m.b.eQtQtQtQtQtQtQtQtQtQtQtQt",
".b.b.b.b.b.b.b.b.b.b.b.b.b.#.#.b.g.P.o.o.ncyczbRa4cAaMb0cBax.UacakazcCcDcE.H.V.H.H.H.H.H.W#h.n.o.oa#.d.#.b.b.b.b.b.b.b.b.b.b.b.b",
".f.f.f.f.f.f.f.a.a.#.#.#.#.#.#.#.#.dbf.o.o.o.OcF.o.ncGcHcIaMcJ.V.WcCasa9aTam.Tak.H.H.H.H.YbT.o.o.o#r.#.#.f.f.f.f.f.f.f.f.f.f.f.f",
"QtQtQtQtQtQtQt.b.eQtQtQtQtQtQtQtQtQt.mcK.2.o.o.o.o.rbKcLbRcMcNcCcOaSa1ceatcPbj.U.H.H.H.UcQ.y.o.o.o.obf.mQtQtQtQtQtQtQtQtQtQtQtQt",
"QtQtQtQtQtQtQt.b.eQtQtQtQtQtQtQtQtQtQt.ma#.q.o.o.ocFcRbRbRbRbRcSa9a2.WawcTcUaj.V.H.H.V.YcV.o.o.n#W#W.jQtQtQtQtQtQtQtQtQtQtQtQtQt",
"QtQtQtQtQtQtQt.b.eQtQtQtQtQtQtQtQtQtQtQt.gQt.r.o.o.ocWbZbKbRbRbRbRcNcX.HcY.U.V.H.H.H#ucZ.o.o.o#bbzQt#OQtQtQtQtQtQtQtQtQtQtQtQtQt",
"QtQtQtQtQtQtQt.b.eQtQtQtQtQtQtQtQtQtQtQtQtQt.m.k.n.o.o#rb5bKbRbRbRbKbIa1aH.U.H.H.H.Xc0.o.o.o.obf.mQtQtQtQtQtQtQtQtQtQtQtQtQtQtQt",
"QtQtQtQtQtQtQt.b.eQtQtQtQtQtQtQtQtQtQtQtQtQtQt.m#W#r.o.o.2bXbKc1bRbRbKc2aN.Fbqac.Gc3.n.o.o.o.2.4QtQtQtQtQtQtQtQtQtQtQtQtQtQtQtQt",
".#.#.#.#.#.#.#.f.a.#.#.#.#.#.#.#.#.#.#.#.#.#.#.#.dc4#w.o.o.oc5cuczbRbRcLbKc2c6.UcQa..o#ac7.o.obX.d.#.#.#.#.#.#.#.#.#.#.#.#.#.#.#",
".f.b.b.b.b.b.b.b.b.b.b.b.b.b.b.b.b.b.b.b.b.b.b.b.b.bQt.A.n.o.o.oa4cLbKbRbRc8c9an#j.o.o#Kd..o.o.rQt.b.b.b.b.b.b.b.b.b.b.b.b.b.b.b",
".#QtQtQtQtQtQtQtQtQtQtQtQtQtQtQtQtQtQtQtQtQtQtQtQtQtQt.m.b.r.o.o.o.nd#bKbKbRczah.o.obtda#K.o.o.o#W#OQtQtQtQtQtQtQtQtQtQtQtQtQtQt",
".#QtQtQtQtQtQtQtQtQtQtQtQtQtQtQtQtQtQtQtQtQtQtQtQtQtQtQtQt.m.k#a.o.o.o#rbXczdb.o.o.rdcdcdd.n.o.o.j.gQtQtQtQtQtQtQtQtQtQtQtQtQtQt",
".#QtQtQtQtQtQtQtQtQtQtQtQtQtQtQtQtQtQtQtQtQtQtQtQtQtQtQtQtQt.g.mcK#r.o.o.o.n.o.oc5cude.r.2.o.o.na#QtQtQtQtQtQtQtQtQtQtQtQtQtQtQt",
".#QtQtQtQtQtQtQtQtQtQtQtQtQtQtQtQtQtQtQtQtQtQtQtQtQtQtQtQtQtQtQt.m.g.O.n.o.o.o.o.o.o.o.o.o.o.z#W.gQtQtQtQtQtQtQtQtQtQtQtQtQtQtQt",
".#QtQtQtQtQtQtQtQtQtQtQtQtQtQtQtQtQtQtQtQtQtQtQtQtQtQtQtQtQtQtQtQtQt.m.bdf#a.o.o.o.o.o.nbfa#.m#OQtQtQtQtQtQtQtQtQtQtQtQtQtQtQtQt",
".c.a.a.a.a.a.a.a.a.a.a.a.a.a.c.a.a.a.a.a.a.a.a.a.a.a.a.a.a.a.a.a.a.a.a.c.f.d.c.O.M.O.d.d.b.d.#.#.#.#.#.#.#.#.#.#.#.#.#.#.#.#.#.#",
"QtQtQtQtQtQtQtQtQtQtQtQtQt.b.#QtQtQtQtQtQtQtQtQtQtQtQtQtQtQtQtQtQtQtQtQtQtQtQtQt#OQtQtQtQtQtQtQtQtQt.b.c.NQtQtQtQtQtQtQtQtQtQtQt",
"QtQtQtQtQtQtQtQtQtQtQtQtQtQt.#QtQtQtQtQtQtQtQtQtQtQtQtQtQtQtQtQtQtQtQtQtQtQtQtQtQtQtQtQtQtQtQtQtQtQtQt.aQtQtQtQtQtQtQtQtQtQtQtQt",
"QtQtQtQtQtQtQtQtQtQtQtQtQtQt.#QtQtQtQtQtQtQtQtQtQtQtQtQtQtQtQtQtQtQtQtQtQtQtQtQtQtQtQtQtQtQtQtQtQtQtQt.aQtQtQtQtQtQtQtQtQtQtQtQt",
"QtQtQtQtQtQtQtQtQtQtQtQtQtQt.#QtQtQtQtQtQtQtQtQtQtQtQtQtQtQtQtQtQtQtQtQtQtQtQtQtQtQtQtQtQtQtQtQtQtQtQt.aQtQtQtQtQtQtQtQtQtQtQtQt",
"QtQtQtQtQtQtQtQtQtQtQtQtQtQt.#QtQtQtQtQtQtQtQtQtQtQtQtQtQtQtQtQtQtQtQtQtQtQtQtQtQtQtQtQtQtQtQtQtQtQtQt.aQtQtQtQtQtQtQtQtQtQtQtQt"};
