/* XPM */
static char *dummy[]={
"64 64 320 2",
".p c #000000",
"#l c #00011b",
"#m c #0c3124",
"#3 c #0d1628",
"#w c #0f2241",
"bD c #0f2b52",
".M c #161519",
"#h c #17223a",
"#v c #183868",
".o c #1c1500",
"#L c #1c372e",
"b0 c #1d2131",
"#j c #1e2b47",
"#N c #222126",
"b9 c #23385f",
".z c #263c36",
"a9 c #27001c",
".X c #272117",
"cm c #272a39",
"a0 c #2b0002",
"#K c #2b2a30",
"#k c #2c0132",
"#E c #2c1748",
"bg c #2c2357",
"#S c #2d2c64",
".A c #2f2925",
"ad c #2f313f",
"#p c #301741",
"c0 c #302352",
"#q c #302b60",
".q c #33001a",
"b. c #33224d",
"bj c #332b5c",
"#F c #343268",
"cG c #343972",
".r c #35312f",
"#u c #35488d",
"#G c #35519b",
"b8 c #373264",
"c8 c #37396f",
"cW c #38488a",
"cU c #384c92",
".5 c #391527",
"ch c #393d50",
"c3 c #3954a0",
"#i c #3a3e75",
".6 c #3b3737",
"cI c #3b5096",
"b5 c #3d437c",
"#o c #3e2130",
"an c #3e362e",
"c6 c #404c8a",
"cK c #412126",
"#x c #413c3e",
"bf c #414999",
"#J c #42477e",
"#t c #4255ac",
"#D c #433c36",
"cx c #434997",
"#A c #434e48",
"#7 c #444b66",
"bN c #453373",
".y c #454144",
"#I c #455fbb",
"aZ c #46292f",
"#r c #4651a2",
"bp c #465cb4",
"bs c #473979",
"bA c #473e82",
"ac c #47524e",
"cu c #48413d",
"c7 c #48448a",
"bx c #4858ac",
"#H c #4968c7",
".N c #4a3037",
"bH c #4a4387",
"bQ c #4b51b1",
"#4 c #4b5a83",
"bY c #4b5fb6",
".x c #4c4543",
"bB c #4c4c94",
"bT c #4c54a2",
"be c #4d58a8",
"#T c #4d5fb4",
"aG c #4e373e",
"b1 c #4e488a",
"bt c #4e4c91",
"bO c #4e5099",
"#W c #4f466a",
"bJ c #4f55b2",
"#s c #4f59b8",
".Y c #503736",
"aP c #504a49",
"bl c #504c8f",
"bk c #505096",
".s c #523c44",
"bd c #525094",
"bC c #5265cb",
"bv c #5268d0",
"bo c #526ed9",
".P c #543c3d",
".7 c #544e4e",
"bU c #5462c4",
"bw c #5468ce",
"bI c #546bd3",
"bn c #546ed7",
"bu c #5562c2",
"bV c #5668cc",
"cH c #566ed6",
"cV c #5670da",
"#c c #575153",
"bm c #575cb6",
"c1 c #575fbb",
".B c #584143",
"bc c #584d9b",
"cr c #5864b3",
"c2 c #586bcf",
".w c #59514d",
"bq c #595f5b",
"c9 c #5b3037",
".j c #5b4549",
"bP c #5b66d1",
"cy c #5b69d6",
"aN c #5c5552",
"a5 c #5d4543",
"bM c #5e363e",
".t c #5e4a4e",
"a6 c #603c4a",
".i c #604a48",
"cL c #605857",
"aD c #615c5f",
"ct c #615d82",
"cc c #623c44",
"bR c #626b8f",
".l c #634e4d",
".a c #644d48",
"am c #646762",
".k c #654149",
".h c #665152",
"bE c #665f5f",
".e c #67514d",
"a1 c #675f5a",
"b2 c #676a66",
"ae c #68454e",
".c c #694549",
".n c #6a4a53",
"cl c #6a6c69",
"br c #6b6f70",
".# c #6c4a4e",
".f c #6d4948",
".Z c #6d4e58",
".8 c #6e6f69",
".b c #6f4d53",
".d c #704d4d",
"Qt c #715157",
".O c #725152",
".L c #727473",
"cJ c #74454e",
".m c #74555b",
"ba c #747676",
"aJ c #754a58",
".g c #755557",
"bG c #764953",
".v c #766c69",
"aE c #776c65",
".W c #787875",
"#M c #794d57",
"b4 c #7a7b78",
"bb c #7b515b",
"cZ c #7b6766",
"cR c #7c716c",
".u c #7d6a69",
"#B c #7e6a65",
".C c #7f6162",
"#V c #807eb7",
"#R c #81766f",
"bz c #818181",
"cA c #8181ba",
"#2 c #828985",
"bX c #838383",
"b6 c #8388aa",
"#U c #8389db",
"#d c #848b88",
"c5 c #857a75",
"#b c #858586",
"af c #877472",
"aM c #878d88",
"cz c #878fe3",
"bi c #888788",
"at c #8b7f77",
"a2 c #8c817a",
"#C c #8e7a78",
"#5 c #9294d1",
".4 c #939796",
"ab c #959291",
"cq c #959998",
"aQ c #978b85",
"cX c #988b82",
"#g c #989a98",
".0 c #998c84",
"cB c #9d9089",
"cn c #9da1e2",
"c4 c #a28e8a",
"bK c #a2a4a2",
"aA c #a2a4a4",
"#n c #a39fa0",
"#6 c #a3a3e7",
".9 c #a3a5a6",
"#X c #a5928e",
"bF c #a6ada9",
"aY c #a7a8aa",
"al c #a8a4a6",
"#y c #adaeaf",
"cs c #adb0fa",
"aV c #aeb4b2",
"#O c #afa199",
"cw c #b0b5b2",
".K c #b1b1b1",
"by c #b7bab7",
"a7 c #b9b8b7",
"#Q c #bba7a1",
"ao c #bcaca4",
"cb c #bcbabb",
"bZ c #bdc0bf",
"#e c #bebdbe",
"ay c #bfaba7",
"aT c #bfafa6",
"bW c #c1bfbf",
"cM c #c5b1aa",
"#. c #c8caca",
".Q c #cab5ad",
"cS c #cbb6af",
".V c #cbd0cc",
"aK c #ccb7b1",
"#9 c #ceb9b1",
".S c #cfbab3",
"#8 c #d0bbb4",
"av c #d1b7b3",
"aI c #d1d1cf",
"cj c #d2b9b5",
".R c #d2bcb4",
"cN c #d2bcb6",
"bL c #d2d2d1",
"ap c #d3beb6",
"aq c #d3beb8",
"aa c #d3d3d2",
"co c #d4bfb8",
"aW c #d4bfb9",
"#Y c #d4c3b9",
"a3 c #d4cac6",
".D c #d6bcb8",
"aB c #d6c0b9",
"cC c #d6c1bd",
"ax c #d6d9d8",
"#Z c #d7c1b9",
"au c #d7c1bb",
".F c #d8beb8",
"ag c #d8c3bb",
"ak c #d8d7d6",
"cd c #d9bfb9",
".E c #d9c4bc",
"b# c #d9d8d9",
"cY c #dbc1bd",
"#P c #dbc5bc",
"ah c #dbcbc6",
"ci c #dcc6be",
".2 c #dccbc2",
"cT c #dccbc4",
".1 c #ddc7bf",
"aR c #ddd1ca",
"cF c #dddbdc",
"ck c #dececa",
"ce c #dfd3cd",
"c. c #e0cbc6",
".J c #e1e0df",
"aC c #e2d6d1",
"aU c #e2dad6",
"bh c #e2e1e1",
"aH c #e3d7d3",
"as c #e4d4d2",
"aO c #e4dbd5",
"cO c #e5d9d6",
"a. c #e7dbd8",
"a8 c #e7e7e5",
"c# c #e8dcda",
"## c #e8e8e7",
"aS c #e8e9e9",
"cD c #e9dddb",
"aL c #eae5e1",
"#1 c #ebebea",
"a4 c #ececea",
"aw c #eee6e5",
".3 c #eeeeee",
"b7 c #f0f4f1",
".G c #f2e5e3",
"#f c #f2f2f2",
"cP c #f3ebec",
"cp c #f4ebea",
"#0 c #f4efec",
"aX c #f4f0ef",
"cQ c #f4f4f4",
".T c #f5ecec",
"cf c #f5eded",
"ca c #f5f1f0",
"#z c #f5f4f5",
"b3 c #f5f8f7",
"ar c #f6f4f2",
"cg c #f6f5f6",
"aj c #f7faf9",
"cE c #f9f8f8",
"aF c #faf4f4",
"az c #faf8f7",
"cv c #fbf5f5",
"#a c #fbfafb",
".U c #fdfbfc",
"ai c #fdfefc",
"a# c #fefcfd",
"bS c #fffdfd",
".I c #fffdfe",
".H c #ffffff",
"QtQtQtQtQtQtQtQtQtQtQtQtQtQt.#QtQtQtQtQtQtQtQtQtQtQtQtQtQtQtQtQtQtQtQtQtQtQtQtQtQtQtQtQtQtQtQtQtQtQtQt.aQtQtQtQtQtQtQtQtQtQtQtQt",
".b.b.b.b.b.b.b.b.b.b.b.b.b.b.#.b.b.b.b.b.b.b.b.b.b.b.b.b.b.b.b.b.b.b.b.b.b.b.b.b.b.b.b.b.b.b.b.b.b.b.b.c.b.b.b.b.b.b.b.b.b.b.b.b",
".d.d.d.d.d.d.d.d.d.d.d.d.d.d.d.b.#.#.b.b.b.b.b.b.b.b.b.b.b.b.b.b.b.b.b.b.b.b.b.b.b.b.b.b.b.b.b.b.b.b.b.b.b.b.b.b.a.e.d.d.d.d.d.d",
"QtQtQtQtQtQtQtQtQtQtQtQtQtQtQtQt.e.eQtQtQtQtQtQtQtQtQtQtQtQtQtQtQtQtQtQtQtQtQtQtQtQtQtQtQtQtQtQtQtQtQtQtQtQtQtQt.fQtQtQtQtQtQtQt",
"QtQtQtQtQtQtQtQtQtQtQtQtQtQtQtQt.e.eQtQtQtQtQtQtQtQt.g.g.gQtQtQtQtQtQtQtQtQtQtQtQtQtQtQtQtQtQtQtQtQtQtQtQtQtQtQt.fQtQtQtQtQtQtQt",
"QtQtQtQtQtQtQtQtQtQtQtQtQtQtQtQt.e.eQtQtQtQtQtQtQt.h.i.j.k.lQt.m.m.m.gQtQtQtQtQtQtQtQtQtQtQtQtQtQtQtQtQtQtQtQtQt.fQtQtQtQtQtQtQt",
"QtQtQtQtQtQtQtQtQtQtQtQtQtQtQtQt.e.eQtQtQtQtQtQt.n.o.p.p.p.p.p.q.r.s.tQt.m.gQtQtQtQtQtQtQtQtQtQtQtQtQtQtQtQtQtQt.fQtQtQtQtQtQtQt",
"QtQtQtQtQtQtQtQtQtQtQtQtQtQtQtQt.e.eQtQtQtQtQtQtQt.u.v.w.x.y.z.p.p.p.p.o.A.BQt.mQtQtQtQtQtQtQtQtQtQtQtQtQtQtQtQt.fQtQtQtQtQtQtQt",
".d.d.d.d.d.d.d.d.d.d.d.d.d.d.d.b.#.#.b.d.d.d.d.d.C.D.E.F.G.H.I.J.K.L.r.p.p.p.M.N.#.O.d.d.d.d.d.d.d.d.d.d.d.d.d.d.a.e.d.d.d.d.d.d",
".b.b.b.b.b.f.d.b.b.b.b.b.b.b.b.b.b.b.b.b.b.bQt.P.x.Q.R.S.T.H.H.H.H.H.U.V.W.X.p.p.o.YQt.O.b.b.b.b.b.b.b.b.b.b.b.b.b.b.b.b.b.b.b.b",
"QtQtQtQtQt.#.bQtQtQtQtQtQtQtQtQtQtQtQtQtQtQt.Z.o.p.0.1.2.H.H.H.H.H.H.H.H.H.3.4.A.p.p.5.hQtQtQtQtQtQtQtQtQtQtQtQtQtQtQtQtQtQtQtQt",
"QtQtQtQtQt.#.bQtQtQtQtQtQtQtQtQtQtQtQtQtQt.g.j.p.p.6.7.8.9#.###a.H.H.H.H.H.H.H.3#b.p.p.5.mQtQtQtQtQtQtQtQtQtQtQtQtQtQtQtQtQtQtQt",
"QtQtQtQtQt.#.bQtQtQtQtQtQtQtQtQtQtQtQtQtQt.m.r.p.p.p.p.p.p.p.M.r#c#d#e#f.H.H.H.H.H#g.p.q.gQtQtQtQtQtQtQtQtQtQtQtQtQtQtQtQtQtQtQt",
"QtQtQtQtQt.#.bQtQtQtQtQtQtQtQtQtQtQtQtQtQt.g.M.p#h#i#j#k.M#l.p.p.p.p.p#m.L#..I.H.H#n.p.X.mQtQtQtQtQtQtQtQtQtQtQtQtQtQtQtQtQtQtQt",
".b.b.b.b.b.f.e.b.b.b.b.b.b.b.b.b.b.b.b.b.b.O#o.p#l#p#q#i#r#s#t#u#v#w.p.p.p.p#x#y#z#A.p#oQt.b.b.b.b.b.b.b.b.b.b.b.b.b.b.b.b.b.b.b",
".b.b.b.b.b.b.b.b.b.b.b.b.b.b.b.b.b.b.b.b.b.c#B#C#D.p.p.p.p.M#E#F#G#H#I#J#K.p.p.p#L.o.p.PQt.b.b.b.b.e.#.b.b.b.b.b.b.b.b.b.b.b.b.b",
"QtQtQtQtQtQtQtQtQtQtQtQtQtQtQtQtQtQtQtQt#M#N.p#O#P#Q#R.6.M.p.p.p.p.M#S#T#U#V#W.M.p.p.p.nQtQtQtQtQt.b.eQtQtQtQtQtQtQtQtQtQtQtQtQt",
"QtQtQtQtQtQtQtQtQtQtQtQtQtQtQtQtQtQtQt.m.P.p.p#X#Y.D#Z#0#1#e#2.6.p.p.p.p#3#4#5#6#7.p.MQtQtQtQtQtQt.b.eQtQtQtQtQtQtQtQtQtQtQtQtQt",
"QtQtQtQtQtQtQtQtQtQtQtQtQtQtQtQtQtQtQt.g.q.p.r#8.R#9a..H.H.H.Ha#aaabac.A.p.p.pad.M.p.6.mQtQtQtQtQt.b.eQtQtQtQtQtQtQtQtQtQtQtQtQt",
"QtQtQtQtQtQtQtQtQtQtQtQtQtQtQtQtQtQt.gae.p.pafag#9ahai.H.H.H.H.H.H.H.Hajakalam.r.p.p.j.mQtQtQtQtQt.b.eQtQtQtQtQtQtQtQtQtQtQtQtQt",
".#.#.#.#.#.#.#.#.#.#.#.#.#.#.#.#.#.#.ban.p.Maoapaqar.H.H.H.H.H.H.H.H.H.H.H.H.H#d.p.M.d.d.e.e.e.e.e.#.a.#.#.#.#.#.#.#.#.#.#.#.#.#",
"QtQtQtQtQtQtQtQtQtQtQtQtQt.#.bQtQtQtQt.M.p.xag#9as.H.H.H.H.H.H.H.H.H.H.H.H.Ha##x.p#o.m.b.eQtQtQtQtQtQtQtQtQtQtQtQtQtQtQtQtQtQtQt",
"QtQtQtQtQtQtQtQtQtQtQtQtQt.#QtQtQt.g.t.p.patauavaw.H.H.H.H.H.H.H.H.H.H.H.H.Hax.p.p.s.m.b.dQtQtQtQtQtQtQtQtQtQtQtQtQtQtQtQtQtQtQt",
"QtQtQtQtQtQtQtQtQtQtQtQtQt.#QtQtQt.m.N.p.Mayapaqaz.H.H.H.H.H.H.H.H.H.H.H.H.HaA.p.p.bQt.b.dQtQtQtQtQtQtQtQtQtQtQtQtQtQtQtQtQtQtQt",
"QtQtQtQtQtQtQtQtQtQtQtQtQt.#QtQtQt.m.X.p#xaB#9aC.H.H.H.H.H.H.H.H.H.H.H.H.H.HaD.p#N.mQt.b.dQtQtQtQtQtQtQtQtQtQtQtQtQtQtQtQtQtQtQt",
"QtQtQtQtQtQtQtQtQtQtQtQtQt.#QtQtQt.b.p.paEagaqaF.H.H.H.H.H.H.H.H.H.H.H.H.H#f#N.paG.mQt.b.dQtQtQtQtQtQtQtQtQtQtQtQtQtQtQtQtQtQtQt",
".#.#.#.#.#.#.#.#.#.#.#.#.#.f.#.#.b.P.p.p#OapaH.H.H.H.H.H.H.H.H.H.H.H.H.H.HaI.p.p.i.d.#.f.f.#.#.#.#.#.#.#.#.#.#.#.#.#.#.#.#.#.#.#",
"QtQtQtQtQtQtaJ.#QtQtQtQtQtQtQtQt.m.A.p#NaK.SaL.H.H.H.H.H.H.H.H.H.H.H.H.H.HaM.p.X.mQt.#.bQtQtQtQtQtQtQtQtQtQtQtQtQtQtQtQtQtQtQtQt",
"QtQtQtQtQtQtQt.#QtQtQtQtQtQtQtQtQt.M.paNag#9aO.H.H.H.H.H.H.H.H.H.H.H.H.H.HaP.p.r.mQt.#.bQtQtQtQtQtQtQtQtQtQtQtQtQtQtQtQtQtQtQtQt",
"QtQtQtQtQtQtQt.#QtQtQtQtQtQtQt.g.i.p.paQ#Z#9aR.H.H.H.H.H.H.H.H.H.H.H.H.HaS.M.p.B.mQt.#.bQtQtQtQtQtQtQtQtQtQtQtQtQtQtQtQtQtQtQtQt",
"QtQtQtQtQtQtQt.#QtQtQtQtQtQtQt.m#D.p.MaTaq#9aU.H.H.H.H.H.H.H.H.H.H.H.H.HaV.p.p.bQtQt.#.bQtQtQtQtQtQtQtQtQtQtQtQtQtQtQtQtQtQtQtQt",
"QtQtQtQtQtQtaJ.#QtQtQtQtQtQtQt.g#N.p.x.1#ZaWaX.H.H.H.H.H.H.H.H.H.H.H.H.HaY.paZ.gQtQt.#.bQtQtQtQtQtQtQtQtQtQtQtQtQtQtQtQtQtQtQtQt",
".#.#.#.#.#.#.#.#.#.#.#.#.#.#.d.#a0.p.Aa1a2a3.H.H.H.H.H.H.H.H.H.H.H.H.Ha4#x.pa5.d.#.#.#.#.#.#.#.#.#.#.#.#.#.#.#.#.#.#.#.#.#.#.#.f",
".bQtQtQtQtQtQtQtQtQtQtQtQtQt.ga6.p.p.p.p.p.MaDa7a#.H.H.H.H.H.H.H.H.H.Ha8.A.p.j.mQtQtQtQtQtQtQtQtQtQtQtQtQtQtQtQtQtQtQtQtQtQtQt.#",
".bQtQtQtQtQtQtQtQtQtQtQtQtQt.maZ.pa9#ib..M.p.p.p.yb#.H.H.H.H.H.H.H.H.H.Hba.p.PbbQtQtQtQtQtQtQtQtQtQtQtQtQtQtQtQtQtQtQtQtQtQtQt.#",
".bQtQtQtQtQtQtQtQtQtQtQtQtQtQt.M.p#hbcbdbebfbg#l.p.Abh.H.H.H.H.H.H.H.H.Hbi.p.paZQt.gQtQtQtQtQtQtQtQtQtQtQtQtQtQtQtQtQtQtQtQtQt.#",
".bQtQtQtQtQtQtQtQtQtQtQtQtQt.ba0.pbjbkblbmbnbobp#3.pbq.I.H.H.H.H.H.H.H.H.Ubr.p.p.M.t.mQtQtQtQtQtQtQtQtQtQtQtQtQtQtQtQtQtQtQtQt.#",
".bQtQtQtQtQtQtQtQtQtQtQtQt.gae.p.pbsbdbtbubvbwbnbx.p.pby.H.H.H.H.H.H.H.H.H.Ibz.p.p.p.P.mQtQtQtQtQtQtQtQtQtQtQtQtQtQtQtQtQtQtQt.#",
".#.#.#.#.#.#.#.#.#.#.#.#.#.d.P.p.pbAbBbkbCbvbwbwbnbD.pbE.H.H.H.H.H.H.H.H.H.H.HbF.M.p.p.r.d.#.#.#.#.#.f.#.#.#.#.#.#.#.#.#.#.#.#.f",
"QtQtQtQtQtQtQtQtQtQtQtQtQtbG.Y.p.pbHbtbkbCbvbwbwbIbJ#3bK.H.H.H.H.H.H.H.H.H.H.H.HbL.6.p.p.5.ZQtQtQtQt.d.eQtQtQtQtQtQtQtQtQtQtQtQt",
"QtQtQtQtQtQtQtQtQtQtQtQtQt.bbM.p.pbNbdbObCbvbwbwbPbQbRbS.H.H.H.H.H.H.H.H.H.H.H.H.H#faD.p.p.X.b.gQtQt.b.eQtQtQtQtQtQtQtQtQtQtQtQt",
"QtQtQtQtQtQtQtQtQtQtQtQtQt.d.#.M.p#3blbtbTbUbPbvbV#3.pbW.H.H.H.H.H.H.H.H.H.H.H.H.H.H.UbX.p.p.MQtQtQt.b.eQtQtQtQtQtQtQtQtQtQtQtQt",
"QtQtQtQtQtQtQtQtQtQtQtQtQt.e.b.k.p.pbHbkbtbBbYbI#s.p.pbZ.H.H.H.H.H.H.H.H.H.H.H.H.H.H.H.H#d.p.p#o.mQt.b.eQtQtQtQtQtQtQtQtQtQtQtQt",
"QtQtQtQtQtQtQtQtQtQtQtQtQt.e.e.m.Pb0#3#wb1bdblbebCbjb2b3.H.H.H.H.H.H.H.H.H.H.H.H.H.H.H.H.Hb4.p.paG.m.b.eQtQtQtQtQtQtQtQtQtQtQtQt",
".b.b.b.b.b.b.b.b.b.b.b.b.b.#.#.b.gaG.p.p#3b5bkbtbgb6.H.H.H.H.H.H.H.H.H.H.H.H.H.H.H.H.H.H.Hb7.M.p.pae.d.#.b.b.b.b.b.b.b.b.b.b.b.b",
".f.f.f.f.f.f.f.a.a.#.#.#.#.#.#.#.#.daZ.p.p.pb8b9.panc.c#ca.H.H.H.H.H.H.H.H.H.H.H.H.H.H.H.Hcb.p.p.p.X.d.f.f.f.f.f.f.f.f.f.f.f.f.f",
"QtQtQtQtQtQtQt.b.eQtQtQtQtQtQtQtQtQt.mcc.o.p.p.p.pa1cd#9.Rcecf.H.H.H.H.H.H.H.H.H.H.H.H.Hcg.6.pch.p.p.j.mQtQtQtQtQtQtQtQtQtQtQtQt",
"QtQtQtQtQtQtQt.b.eQtQtQtQtQtQtQtQtQtQt.mae.q.p.p.pafci.R.S#9cjckar.H.H.H.H.H.H.H.H.H.H.Hcl.pcmcn#N.p.X.gQtQtQtQtQtQtQtQtQtQtQtQt",
"QtQtQtQtQtQtQt.b.eQtQtQtQtQtQtQtQtQtQtQt.gQt.r.p.p.p.uaqco#8#8#9aqcp.H.H.H.H.H.H.H.H.Hcq.p#lcrcsct.p.p.nQtQtQtQtQtQtQtQtQtQtQtQt",
"QtQtQtQtQtQtQt.b.eQtQtQtQtQtQtQtQtQtQtQtQtQt.m.k.M.p.pcuaoag#8#8avaucv.H.H.H.H.H.H.Hcw.p.pcxcyczcA.p.p.i.gQtQtQtQtQtQtQtQtQtQtQt",
"QtQtQtQtQtQtQt.b.eQtQtQtQtQtQtQtQtQtQtQtQtQtQt.m.n.X.p.p.XcBauaq#8avcCcDcE.H.H.H.HcF.M.pcGbnbwcHcI.p.p.t.gQtQtQtQtQtQtQtQtQtQtQt",
".#.#.#.#.#.#.#.f.a.#.#.#.#.#.#.#.#.#.#.#.#.#.#.#.dcJcK.p.p.pcLcMagcN.S#9cCcOcP.HcQac.p#3bVbvbvbP#h.p.M.#.e.#.#.#.#.#.#.#.#.#.#.#",
".f.b.b.b.b.b.b.b.b.b.b.b.b.b.b.b.b.b.b.b.b.b.b.b.b.bQt.B.M.p.p.McRcSau.R.S#9#8cTaN.p.pcUbnbvcVcW.p.p.YQt.b.b.b.b.b.b.b.b.b.b.b.b",
".#QtQtQtQtQtQtQtQtQtQtQtQtQtQtQtQtQtQtQtQtQtQtQtQtQtQt.m.b.r.p.p.p.5cXaB#Z.RcYcZ.p.pc0bTc1c2c3a9.p.5.mQtQtQtQtQtQtQtQtQtQtQtQtQt",
".#QtQtQtQtQtQtQtQtQtQtQtQtQtQtQtQtQtQtQtQtQtQtQtQtQtQtQtQt.m.k#N.p.p.p#Dc4agc5.p.p#jbcbkc6b8.p.p.M.ZQtQtQtQtQtQtQtQtQtQtQtQtQtQt",
".#QtQtQtQtQtQtQtQtQtQtQtQtQtQtQtQtQtQtQtQtQtQtQtQtQtQtQtQtQt.g.mcc.X.p.p.p.r.M.p#jc7c8#p#l.p.p.M.l.gQtQtQtQtQtQtQtQtQtQtQtQtQtQt",
".#QtQtQtQtQtQtQtQtQtQtQtQtQtQtQtQtQtQtQtQtQtQtQtQtQtQtQtQtQtQtQt.m.g.P.M.p.p.p.p.p.p.p.p.p.p.A.n.gQtQtQtQtQtQtQtQtQtQtQtQtQtQtQt",
".#QtQtQtQtQtQtQtQtQtQtQtQtQtQtQtQtQtQtQtQtQtQtQtQtQtQtQtQtQtQtQtQtQt.m.bc9#N.p.p.p.p.p.MaZae.m#MQtQtQtQtQtQtQtQtQtQtQtQtQtQtQtQt",
".c.a.a.a.a.a.a.a.a.a.a.a.a.a.c.a.a.a.a.a.a.a.a.a.a.a.a.a.a.a.a.a.a.a.a.c.f.d.c.P.N.Ycc.#.b.d.#.#.#.#.#.#.#.#.#.#.#.#.#.#.#.#.#.#",
"QtQtQtQtQtQtQtQtQtQtQtQtQt.b.#QtQtQtQtQtQtQtQtQtQtQtQtQtQtQtQtQtQtQtQtQtQtQtQtQt#MQtQtQtQtQtQtQtQtQt.b.c.OQtQtQtQtQtQtQtQtQtQtQt",
"QtQtQtQtQtQtQtQtQtQtQtQtQtQt.#QtQtQtQtQtQtQtQtQtQtQtQtQtQtQtQtQtQtQtQtQtQtQtQtQtQtQtQtQtQtQtQtQtQtQtQt.aQtQtQtQtQtQtQtQtQtQtQtQt",
"QtQtQtQtQtQtQtQtQtQtQtQtQtQt.#QtQtQtQtQtQtQtQtQtQtQtQtQtQtQtQtQtQtQtQtQtQtQtQtQtQtQtQtQtQtQtQtQtQtQtQt.aQtQtQtQtQtQtQtQtQtQtQtQt",
"QtQtQtQtQtQtQtQtQtQtQtQtQtQt.#QtQtQtQtQtQtQtQtQtQtQtQtQtQtQtQtQtQtQtQtQtQtQtQtQtQtQtQtQtQtQtQtQtQtQtQt.aQtQtQtQtQtQtQtQtQtQtQtQt",
"QtQtQtQtQtQtQtQtQtQtQtQtQtQt.#QtQtQtQtQtQtQtQtQtQtQtQtQtQtQtQtQtQtQtQtQtQtQtQtQtQtQtQtQtQtQtQtQtQtQtQt.aQtQtQtQtQtQtQtQtQtQtQtQt"};
