/* XPM */
static char *dummy[]={
"64 64 502 2",
".o c #000000",
".P c #161519",
".u c #1c1500",
".3 c #222126",
".D c #272117",
"#z c #2b0002",
".R c #2f2925",
"#K c #322915",
".Q c #33001a",
"ao c #35312f",
"#7 c #383023",
".V c #391527",
"be c #3b3012",
"aM c #3b3737",
"aT c #3c1518",
"co c #3d452b",
"al c #3e2130",
".S c #3e362e",
"#J c #403622",
"aB c #412126",
"bZ c #432016",
".5 c #453c2c",
".v c #46292f",
"bs c #473c20",
"cp c #482924",
".k c #48413d",
".U c #4a3037",
"ak c #4a4135",
"#T c #4c302e",
"aS c #4c412b",
"e4 c #4e1526",
"fa c #4e3023",
".p c #4e373e",
"fj c #4e401f",
"aj c #4e453c",
"aV c #503736",
"#2 c #504534",
"dJ c #52362d",
".j c #523c44",
"bi c #52452a",
"bQ c #543c3d",
"a7 c #54493b",
".n c #554933",
"b. c #563c35",
"aG c #564e48",
".6 c #574929",
"aA c #574d42",
".4 c #584143",
"aY c #59413c",
"aR c #594d3a",
"b0 c #5a2923",
".E c #5a313e",
"#e c #5b4134",
".m c #5b4549",
".s c #5b4d32",
"aH c #5b5147",
"bt c #5c4d28",
"a4 c #5c5141",
"cM c #5d302e",
".T c #5d4543",
"aU c #5e453c",
".H c #5e4a4e",
"aF c #5e5139",
"c# c #5f5131",
"cu c #604a48",
"fi c #61362c",
"aJ c #614942",
".i c #614e53",
".l c #634e4d",
"fO c #635439",
".a c #644d48",
"bk c #645430",
"d2 c #653b35",
"a8 c #654149",
"eY c #66292e",
"fZ c #664143",
"aK c #664d41",
".G c #665152",
"ap c #665b51",
".y c #674d3a",
".e c #67514d",
"fy c #675838",
".x c #68454e",
"ee c #68582f",
"eE c #685b45",
"cF c #694034",
".c c #694549",
"aI c #695147",
"ed c #695557",
"dg c #6a4a53",
"fb c #6b302d",
".t c #6b5b37",
"#6 c #6b5e4b",
"e9 c #6c453b",
".# c #6c4a4e",
"aW c #6c554c",
"dP c #6d4533",
".f c #6d4948",
"#f c #6d4e58",
"aQ c #6d5446",
"aD c #6d5e45",
"fr c #6e5e3e",
"d9 c #6e6150",
"eR c #6f362c",
".b c #6f4d53",
"c9 c #6f5438",
"aX c #6f584c",
"a9 c #6f5e36",
"aN c #6f614a",
".d c #704d4d",
".O c #706144",
"fl c #713b34",
"Qt c #715157",
"#d c #724d41",
".w c #725152",
"e1 c #725b51",
".r c #72613d",
"cw c #734d39",
"aC c #735b4b",
"#l c #736449",
"do c #74403b",
".g c #74555b",
"an c #745b45",
"fB c #746443",
"cf c #754a58",
".F c #755557",
"eD c #75643c",
"aL c #764953",
"eI c #765e50",
"#g c #76674e",
"dW c #77453b",
"a6 c #77554c",
"#1 c #776958",
"#y c #785446",
".h c #794d57",
"a5 c #795851",
"aZ c #79614f",
"dK c #79663b",
"dR c #7a4941",
"bP c #7a6948",
"fF c #7b6942",
"bY c #7c6143",
"eh c #7c693a",
"ef c #7d4d40",
"ch c #7d613c",
"cG c #7e403b",
"bO c #7e6c47",
"#I c #7e6e57",
"c7 c #7f4033",
".J c #7f6443",
"bA c #7f6c41",
"b5 c #805140",
"dw c #814542",
"cb c #82453a",
"bu c #826e40",
"fz c #83714c",
"dp c #844941",
"a0 c #846c57",
".W c #847146",
"am c #856c52",
"dV c #85713f",
"ek c #857351",
"eA c #85765f",
"e. c #864d47",
"c8 c #866c4d",
"cg c #86734b",
"fq c #874d40",
"eT c #886758",
"eS c #88715f",
"ba c #887550",
"fm c #895146",
"#c c #896653",
"a3 c #89715b",
"bU c #89754b",
"bj c #8a6e46",
".I c #8a7544",
"eG c #8b443a",
"#A c #8b735f",
".2 c #8b7850",
"cE c #8c4947",
"a2 c #8c735a",
"fN c #8c774a",
"bl c #8d7046",
"fs c #8d7a54",
"az c #8d7e6d",
"#S c #8e6c57",
"a1 c #8e755e",
"fR c #8e7a4f",
".z c #8f7a49",
"ai c #907862",
"aP c #91785e",
"d1 c #917e5d",
"#L c #918069",
"b6 c #92754a",
"df c #934441",
"cn c #935e49",
"#x c #936957",
"cO c #94544b",
"f. c #946154",
"bR c #947e4e",
".q c #95774a",
"fE c #957e48",
"#a c #958058",
"#8 c #958c78",
"eQ c #96574a",
"bb c #96804d",
"aE c #977c5d",
"cN c #978047",
"#q c #978257",
"ev c #984c3f",
"bS c #986b4c",
"eP c #987866",
"aO c #987e61",
"aq c #988879",
"el c #995b4a",
"#w c #996e56",
"bc c #997c4e",
"bN c #99824d",
"#v c #9a715a",
"e5 c #9b5e4f",
"ei c #9b826c",
"dr c #9c5444",
"#u c #9c735e",
".1 c #9c865b",
"dn c #9d574f",
"eW c #9d846f",
"bf c #9d8651",
"bg c #9d885f",
"bv c #9e804d",
"eB c #9e846c",
"fH c #9e885a",
"b2 c #a05a4f",
"#m c #a08252",
"fx c #a08850",
"## c #a08a5e",
"#3 c #a18872",
"#. c #a18a5a",
"dG c #a25e54",
"ca c #a28451",
"b1 c #a28a50",
"bh c #a28c5e",
"af c #a29074",
"#b c #a38a72",
"eo c #a45444",
"en c #a46153",
"#t c #a47c65",
"#h c #a48a6e",
"dM c #a48c54",
"fM c #a48e62",
"#5 c #a58c75",
"#p c #a58d5d",
"fp c #a65a54",
"dh c #a6885a",
"bX c #a68d54",
"fA c #a68f61",
"eV c #a78e74",
"eq c #a78e78",
"dB c #a8504a",
"dU c #a86657",
"cv c #a88f53",
"br c #a98a55",
"b# c #a98c62",
".0 c #a99161",
"dI c #aa544a",
"f# c #aa6058",
"#Q c #aa9074",
"dC c #aa9158",
"ae c #aa917a",
"#U c #aa9885",
"fS c #ab8b54",
".N c #ab9360",
"#R c #ac846b",
"fk c #ac8d58",
"eO c #ac987c",
"ec c #ad5749",
"cZ c #ad6357",
"ce c #ae5a4e",
"bz c #ae9456",
"c0 c #af6657",
"c6 c #b05d4e",
"ds c #b0915c",
"fI c #b0965b",
"ag c #b0967c",
"cD c #b2635c",
"fP c #b2985a",
"#P c #b2987c",
"dz c #b3574e",
"cH c #b36357",
"eJ c #b49a7f",
"ct c #b55a4e",
"dF c #b5665b",
"#0 c #b59b81",
"ay c #b59d8a",
"bd c #b69b5e",
"dA c #b75d4d",
"#O c #b79d81",
"cc c #b86052",
"fn c #b86b5f",
"dZ c #b8985e",
"#s c #b8987f",
"e8 c #b9574e",
"e6 c #b96e62",
"#N c #b99f81",
"ad c #b99f84",
"eu c #ba5a53",
"cL c #ba6352",
"bT c #ba665f",
"fw c #ba9e5d",
"eU c #baa086",
"ar c #baa895",
"de c #bb5a4e",
"fY c #bba061",
"#M c #bba083",
"cd c #bc5d52",
"cY c #bc695f",
"#4 c #bca286",
".C c #bd9c61",
"bw c #bda160",
"eK c #bda283",
"cs c #be6052",
"dO c #be6057",
"fo c #be6b5e",
"#i c #be9d7e",
"eN c #bea073",
".X c #bea364",
"#Z c #bfa383",
"#H c #bfa588",
"ac c #bfa58b",
"ab c #bfab8f",
"dd c #c06356",
"cX c #c06e62",
"e7 c #c1665b",
"ez c #c1a376",
"#r c #c1a688",
"ah c #c1a68b",
"dH c #c26656",
"bq c #c2a663",
"dq c #c3685a",
"#B c #c3a682",
"fD c #c4a364",
"eZ c #c56e62",
"c1 c #c56e66",
"fT c #c6a463",
"di c #c77066",
"#Y c #c7a688",
"dm c #c87265",
"ax c #c8af98",
"aa c #c9af96",
"dy c #ca6b5e",
"e2 c #ca7569",
"#X c #caa98a",
"fL c #caad6d",
"es c #cba866",
"as c #cbb7a0",
"cW c #cc7065",
"ea c #cc7768",
"#G c #ccaa89",
"ff c #cd796c",
"d0 c #cdab6d",
"#j c #ceac89",
"c2 c #cf7568",
"a# c #cfb9a0",
"ci c #d0776c",
"b7 c #d0ad69",
"#k c #d0af8e",
"eC c #d0b07d",
"aw c #d0bba2",
"fX c #d1ae6c",
"ej c #d1b38b",
"c5 c #d27065",
"fc c #d2796b",
"eH c #d37b6f",
".7 c #d3af6b",
"#W c #d3b193",
"e3 c #d47568",
"dx c #d47b6b",
"#F c #d4ad8b",
"#C c #d4b18b",
"#E c #d4b18d",
"c. c #d4b56e",
"#9 c #d4bfa8",
"cV c #d57e6e",
"at c #d5c0a7",
"dL c #d6b26e",
"fh c #d7796b",
"dt c #d7796f",
"ft c #d7b46e",
"#D c #d7b48d",
"fv c #d7b76d",
"by c #d7b771",
"cC c #d87b6e",
"av c #d8c2a9",
"bp c #d9b56e",
"au c #d9c3ab",
"eb c #da7d6e",
".M c #dab671",
"a. c #dac0a9",
"em c #db8071",
"fU c #dbb66d",
"eL c #dbb97d",
"fd c #dc7f6e",
"ew c #dc8274",
"cm c #dc8d72",
"b8 c #dcb770",
"fC c #ddb970",
"eX c #df7d6e",
"c3 c #df7d71",
"#V c #dfc3a6",
"cr c #e08071",
"dY c #e0bb73",
"er c #e0bd7f",
".9 c #e1bc76",
"bJ c #e2bc72",
"b9 c #e2c174",
"cI c #e38474",
"fQ c #e3be75",
"eM c #e3bf7c",
"et c #e47f74",
"dD c #e48573",
"fe c #e48577",
"fW c #e4bf75",
"bI c #e4c374",
"dl c #e58776",
"bK c #e5bf72",
"d3 c #e68174",
"cq c #e68773",
"b4 c #e69477",
"#o c #e6c075",
"cK c #e78373",
"d7 c #e78377",
"fV c #e7c174",
"fG c #e7c178",
"cS c #e88576",
"e0 c #e88b79",
".Z c #e8c377",
"cJ c #e98779",
"cR c #e98d79",
"dv c #ea8177",
"c4 c #ea8776",
"bL c #eac477",
"dc c #eb8979",
"bV c #ebc576",
"eF c #ec8b79",
"ey c #ec917b",
"#n c #ecc679",
"bH c #ecca78",
"cT c #ed857a",
"ex c #ed8d7c",
"dQ c #ed927b",
"bM c #edc377",
"bB c #edc77c",
"cB c #ee8779",
".L c #eec779",
"cU c #ef8979",
"d6 c #ef8f7b",
"bE c #efc879",
"cx c #f08b7c",
"dE c #f0907b",
"du c #f0967d",
"fK c #f0ca7b",
"ep c #f18579",
"dk c #f18b79",
"dj c #f1977d",
"bF c #f1c978",
"d8 c #f28d7b",
"dX c #f2997f",
"cQ c #f29e7f",
"bx c #f2cb7b",
"fg c #f3897c",
"eg c #f3947d",
"d4 c #f3997c",
"fJ c #f3c87c",
"bG c #f3cc7b",
"e# c #f48b7f",
"cy c #f49b7f",
".8 c #f4cd7e",
"dN c #f58b7c",
"d5 c #f59c7f",
"d# c #f68d7e",
"cj c #f6977d",
"ck c #f69e82",
".A c #f6cb7b",
".K c #f6cf80",
"da c #f78f7e",
"cP c #f7947d",
"d. c #f7997f",
"cz c #f79f81",
"fu c #f8d07d",
"bD c #f8d080",
"db c #f98b7e",
".B c #f9d17f",
"bn c #f9d182",
"cA c #fa9982",
"bm c #fad27f",
"bo c #fad282",
"bW c #fbcf80",
".Y c #fbd382",
"b3 c #fc9580",
"dS c #fdd581",
"dT c #fed681",
"cl c #ff9f84",
"bC c #ffd886",
"QtQtQtQtQtQtQtQtQtQtQtQtQtQt.#QtQtQtQtQtQtQtQtQtQtQtQtQtQtQtQtQtQtQtQtQtQtQtQtQtQtQtQtQtQtQtQtQtQtQtQt.aQtQtQtQtQtQtQtQtQtQtQtQt",
".b.b.b.b.b.b.b.b.b.b.b.b.b.b.#.b.b.b.b.b.b.b.b.b.b.b.b.b.b.b.b.b.b.b.b.b.b.b.b.b.b.b.b.b.b.b.b.b.b.b.b.c.b.b.b.b.b.b.b.b.b.b.b.b",
".d.d.d.d.d.d.d.d.d.d.d.d.d.d.d.b.#.#.b.b.b.b.b.b.b.b.b.b.b.b.b.b.b.b.b.b.b.b.b.b.b.b.b.b.b.b.b.b.b.b.b.b.b.b.b.b.a.e.d.d.d.d.d.d",
"QtQtQtQtQtQtQtQtQtQtQtQtQtQtQtQt.e.eQtQtQtQtQtQtQtQtQtQtQtQtQtQtQtQtQtQtQtQtQtQtQtQtQtQtQtQtQtQtQtQtQtQtQtQtQtQt.fQtQtQtQtQtQtQt",
"QtQtQtQtQtQtQtQtQtQtQtQtQtQtQtQt.e.eQtQtQtQtQtQtQtQtQtQtQtQtQtQtQtQtQtQtQtQtQtQtQtQtQtQtQtQtQtQtQtQtQtQtQtQtQtQt.fQtQtQtQtQtQtQt",
"QtQtQtQtQtQtQtQtQtQtQtQtQtQtQtQt.e.eQtQtQtQtQtQtQtQtQtQtQtQtQtQt.g.gQtQtQtQtQtQtQtQtQtQtQtQtQtQtQtQtQtQtQtQtQtQt.fQtQtQtQtQtQtQt",
"QtQtQtQtQtQtQtQtQtQtQtQtQtQtQtQt.e.eQtQtQtQtQtQtQtQtQtQtQtQt.h.i.j.k.l.gQtQtQtQtQtQtQtQtQtQtQtQtQtQtQtQtQtQtQtQt.fQtQtQtQtQtQtQt",
"QtQtQtQtQtQtQtQtQtQtQtQtQtQtQtQt.e.eQtQtQtQtQtQtQtQtQtQtQtQt.m.n.o.o.o.p.gQtQtQtQtQtQtQtQtQtQtQtQtQtQtQtQtQtQtQt.fQtQtQtQtQtQtQt",
".d.d.d.d.d.d.d.d.d.d.d.d.d.d.d.b.#.#.b.d.d.d.d.d.d.d.d.d.b.j.q.r.s.t.u.o.v.w.b.d.d.d.d.d.d.d.d.d.d.d.d.d.d.d.d.d.a.e.d.d.d.d.d.d",
".b.b.b.b.b.f.d.b.b.b.b.b.b.b.b.b.b.b.b.b.b.b.b.b.b.b.wQt.x.y.z.q.A.B.C.D.o.E.hQt.h.hQt.b.b.b.b.b.b.b.b.b.b.b.b.b.b.b.b.b.b.b.b.b",
"QtQtQtQtQt.#.bQtQtQtQtQtQtQtQtQtQtQtQtQtQtQt.g.g.g.F.G.H.v.I.J.K.L.M.N.O.o.o.P.Q.R.S.T.wQt.g.gQtQtQtQtQtQtQtQtQtQtQtQtQtQtQtQtQt",
"QtQtQtQtQt.#.bQtQtQtQtQtQtQtQtQtQtQtQt.F.g.G.m.U.V.P.o.o.u.W.X.Y.Z.0.1.2.o.o.o.o.o.o.o.o.u.3.4QtQtQtQtQtQtQtQtQtQtQtQtQtQtQtQtQt",
"QtQtQtQtQt.#.bQtQtQtQtQtQtQtQtQtQtQt.g.x.V.o.o.o.o.u.D.5.5.6.7.8.9#.###a.o.D#b#c#d#e.5.D.u.o.o.3#fQtQtQtQtQtQtQtQtQtQtQtQtQtQtQt",
"QtQtQtQtQt.#.bQtQtQtQtQtQtQtQtQtQt.g.4.o.o.P.5#g#h#i#j#k#l.D#m#n#o#p#q.s.o.5#r#s#t#u#v#w#x#y.u.o.j.gQtQtQtQtQtQtQtQtQtQtQtQtQtQt",
".b.b.b.b.b.f.e.b.b.b.b.b.b.b.b.b.b.l#z.o#A#B#C#D#E#F#G#H#I.o.o.D#J#K.u.o.P#L#M#N#O#P#Q#R#S#T.o.o.vQt.b.b.b.b.b.b.b.b.b.b.b.b.b.b",
".b.b.b.b.b.b.b.b.b.b.b.b.b.b.b.bQt.v.o.o#U#V#W#X#Y#Z#O#0#O#1.S.D.o.o.P#2#3#4#0#N#4#H#5#6.u.o.u.o.R.w.#.b.b.b.b.b.b.b.b.b.b.b.b.b",
"QtQtQtQtQtQtQtQtQtQtQtQtQtQtQtQt.g.D.o#7.D#8#9a.a#aaabac#4#r#Hadaeafag#H#H#Hah#Oaiaj.o.o.o#7ak.oalQt.eQtQtQtQtQtQtQtQtQtQtQtQtQt",
"QtQtQtQtQtQtQtQtQtQtQtQtQtQtQtQt.F.P.oaman#Kaoapaqaras#9atauava.avavawaxayazaA.D.o.o.oaB.SaCaB.o.p.w.eQtQtQtQtQtQtQtQtQtQtQtQtQt",
"QtQtQtQtQtQtQtQtQtQtQtQtQtQtQtQt.g.D.oaDaEaFaD#J.P.D.D#7.SaGaHaHaAaj.R.P.o.o.o.o.D.5aIaJ.RaK.u.o.HaL.eQtQtQtQtQtQtQtQtQtQtQtQtQt",
"QtQtQtQtQtQtQtQtQtQtQtQtQtQtQtQt.gaM.o.Pam#7aNaOaP#lanaQaRaS#JaTaT.D.D.D#7.5aUaVaQaWaXaY.P.u.o.oao.w.dQtQtQtQtQtQtQtQtQtQtQtQtQt",
".#.#.#.#.#.#.#.#.#.#.#.#.#.#.#.#.w.U.o.o.P.D.RaZa0aRaRa1a2a3a4aCa5aXa6.Sa7aXaW.SaQaIaj.D.o.o.5#7.o.U.d.#.#.#.#.#.#.#.#.#.#.#.#.#",
"QtQtQtQtQtQtQtQtQtQtQtQtQt.#.bQta8.D.Da9.o.o.o.u.D.Q.DajaUaA.Ra7.aaIaI.R.vaJb..Q.D.u.o.o.u.Ob#ba.o.o.#QtQtQtQtQtQtQtQtQtQtQtQtQt",
"QtQtQtQtQtQtQtQtQtQtQtQtQt.#QtQt#7bbbc.Abd.tbe.u.o.o.o.o.o.o.o.o.o.o.o.o.o.o.o.o.o.D.sbf#.bg.1bhbi.oao.gQtQtQtQtQtQtQtQtQtQtQtQt",
"QtQtQtQtQtQtQtQtQtQtQtQtQt.#Qt.pbjbkblbmbnbo.Lbpbqbr.Ia9.6#J#J.D.P.D.D#Kbsbtbubvbw#obx.Aby.N####aF.o.u.bQtQtQtQtQtQtQtQtQtQtQtQt",
"QtQtQtQtQtQtQtQtQtQtQtQtQt.#.Gb.bz#z.obAbBbCbDbEbFbxbG.AbxbEbHbIbJ#obK.ZbFbx.AbxbF#nbLbMbHbNbObP.o.o.obQ.gQtQtQtQtQtQtQtQtQtQtQt",
"QtQtQtQtQtQtQtQtQtQtQtQtQt.dbQbRbSbT.Q.o.DbU.MbVbGbGbFbH.L#nbV#n#n#n#n#nbVbV#n.LbFbxbGbWbX.o#7bYbZb0.o.R.gQtQtQtQtQtQtQtQtQtQtQt",
".#.#.#.#.#.#.#.#.#.#.#.#.#.c#eb1b2b3b4b5#z.o.o#Kbkb6bwb7b8#o.LbxbG.AbGbx.L#nb9c.bqbvc#.sca.Dcbcccdce#z.P.d.#.#.#.#.#.#.#.#.#.#.#",
"QtQtQtQtQtQtcf.#QtQtQtQtQt.Hcgchcicjckclcmcn#7.o.o.o.o.o.u.D#7aSc#a9bk.sco.S.D.u.o.o.ocpcqcrcsctctcdaT.ocuQtQtQtQtQtQtQtQtQtQtQt",
"QtQtQtQtQtQtQt.#QtQtQtQtQta8cvcwcxcycycyczcAcBcCcDcEcFcp.Q.D.o.o.o.o.o.o.o.o.o.ucpcGcHcIcJcKcLctctcdcM.o.p.gQtQtQtQtQtQtQtQtQtQt",
"QtQtQtQtQtQtQt.#QtQtQtQtcfaQcNcOcPcQcycycycRcScTcUcxcxcUcKcKcVcWcXcYcZc0c0c1c2c3cBcxcUc4cSc4c5c6ctcdc7.oao.gQtQtQtQtQtQtQtQtQtQt",
"QtQtQtQtQtQtQt.#QtQtQtQt.bc8c9cDd.cQcycycyc4cScScScScScSc4cTcUd#dadbdacUcUcBdcc4cScScScScScScKddctdedf.o.R.gQtQtQtQtQtQtQtQtQtQt",
"QtQtQtQtQtQtcf.#QtQtQtQtdgdhbidid.cQcycQdjcScScScScScSc4dkdldmdndocMdpcIcScScScScScScScScScScSdqc6dedr.o.D.FQtQtQtQtQtQtQtQtQtQt",
".#.#.#.#.#.#.#.#.#.#.#.e.xdscpdtd.cycycQdudvcScScScScUcrdw.D.o.o.o.o.odxcTcScScScScScScScScScJdydzdAdB.o.P.d.e.#.#.#.#.#.#.#.#.f",
".bQtQtQtQtQtQtQtQtQtQtQt.bdC#JdDcycycycQdEdvcScScScUdF.D.o.o.5.D.o.QdGcTcScScScScScScScScScScSdHctdAdI.o.PQtQtQtQtQtQtQtQtQtQt.#",
".bQtQtQtQtQtQtQtQtQtQtQt.#bfdJcBcycycycQdEdvcScScTcC.u.odKdLdM.oaBcVdNcScScScScScScScScScScScKdOctdAce.u.PQtQtQtQtQtQtQtQtQtQt.#",
".bQtQtQtQtQtQtQtQtQtQtQt.#bbdPcxcycycycQdQdvcScSdkdR.objdSdTa9.odUcrcrcScScScScScScScScScScScKcsctdAce.u.u#fQtQtQtQtQtQtQtQtQt.#",
".bQtQtQtQtQtQtQtQtQtQt.ha8dVdWcxdXcycycQdEdvcScSc4.D.udYdZd0d1.o#z.ud2cUcBc4cScUcBcScScScScSd3cdctdAdz.u.o#fQtQtQtQtQtQtQtQtQt.#",
".bQtQtQtQtQtQtQtQtQtQt.h.4dKcFcUd4cycyd5d6d7cSc4d8aTbsbz.o.Pagd9.P.oe.e#eaebcSb2dmcBcScScScSd3cdctdAec.u.uedQtQtQtQtQtQtQtQtQt.#",
".#.#.#.#.#.#.#.#.#.#.#.dbQeeefcUegcQcycQdEdvc4c3do.DehbA.o.oeiejek.oelem.ucpdp.o.oencUcScScSd3ccctdAeo.o.P.e.e.#.#.#.#.#.#.#.#.f",
"QtQtQtQtQtQtQtQtQtQtQt.F.4aSdPepdEcQcyd5d6d7cUdG.o.obkbf.o.ueqeres.o.P.P.o.o.o.o.o.DcKc4cScSeteuctdeev.o.P.FQtQtQtQtQtQtQtQtQtQt",
"QtQtQtQtQtQtQtQtQtQtQt.Fa8#K#TewexcQcycQeydvcBdm.u.o.DezeAeBadeCbFeD.u.ua4eE.Rb..V.ocYeFcScScIccctcdeG.o.V.gQtQtQtQtQtQtQtQtQtQt",
"QtQtQtQtQtQtQtQtQtQtQtQt.G.P.DeHdcdjd5cycRdvcScBdi#eeI#H#4#MeJeKeLeMeNeO#rePak.R#7.oeQdkcScSetccctcdeR.oao.gQtQtQtQtQtQtQtQtQtQt",
"QtQtQtQtQtQtQtQtQtQtQtQtQt.P.ucVc4eFcydXcScScScSc4aB.DeSeTaA.D.S#5#4eUeVeWaJ.o.o.D.oeQdkcScSeXctctcdeY.o.p.gQtQtQtQtQtQtQtQtQtQt",
"QtQtQtQtQtQtQtQtQtQtQtQt.g.R.oeZcBdve0dccScScScScBdJ.o.DaI#7.o.De1eVa7.oaBaI.D.u.o.ue2cTcScJe3dzctcde4.oa8.gQtQtQtQtQtQtQtQtQtQt",
".b.b.b.b.b.b.b.b.b.b.b.bQtaB.oe5cUcSdvdvcScScScScBe6.u.o.PakaJaWaXa7.o.o.DaIb..o.ocOcxcScScSe7c6e8ct.u.o.#.b.b.b.b.b.b.b.b.b.b.b",
".f.f.f.f.f.f.f.a.a.#.#.#.baV.oe9d#cScScScScScScScSd3f.aT.o.o.P.D#7.D.o.o#T.o.o.odRcUcScSc4e3ctctccec.o.P.#.#.f.f.f.f.f.f.f.f.f.f",
"QtQtQtQtQtQtQt.b.eQtQtQt.F.x.o.Dcid8cUcTcScScScScScScTcIf#fa.u.ocpb..o#TaIaT#7cZeFcScScSdldddecddIfb.o.R.gQtQtQtQtQtQtQtQtQtQtQt",
"QtQtQtQtQtQtQt.b.eQtQtQtQtQt.P.o.ucFcZfccSdkcxcUcBc4cSc4cUeFfddmcSfec2ffemcSdccUc4cTcUcxfgcccbcp#z.o.o.U.gQtQtQtQtQtQtQtQtQtQtQt",
"QtQtQtQtQtQtQt.b.eQtQtQtQt.g.R.o.o.o.o.o.DcMefcZdmcrc4dkfgfgd8d8cUcUfgcxcxd8fgcUc4fhc0e.fi.u.o.o.u.o.o.m.FQtQtQtQtQtQtQtQtQtQtQt",
"QtQtQtQtQtQtQt.b.eQtQtQtQt.g.j.ofjfk.t#K.u.o.o.o.o.uaTcMflfmdGfncXfofobTfpfqcFfaaT.o.o.o.o.P#Jfrfs.u#z#fQtQtQtQtQtQtQtQtQtQtQtQt",
"QtQtQtQtQtQtQt.b.eQtQtQtQtQtQt.P.uftfu#nfvfwfxdV.6be.u.o.o.o.o.o.o.o.o.o.o.o.o.o#Kbsfyfrfz.1bhfAfB.o.R.gQtQtQtQtQtQtQtQtQtQtQtQt",
".#.#.#.#.#.#.#.f.a.#.#.#.#.#.b.v.oc#.AbV.LbFbxbGbG.LfCfDfkfEfF.I.tfyc9bu.I#mdZft#nbxfGbh##fH.1bh#7.oaV.b.#.#.#.#.#.#.#.#.#.#.#.#",
".f.b.b.b.b.b.b.b.b.b.b.b.b.b.b.#.u.ofI.B#nbLbLbLbLbV.LbEfJbG.AbG.A.A.AbGbGbxfK.LbV#nfL.1.1bgfM#a.u.u.b.b.b.b.b.b.b.b.b.b.b.b.b.b",
".#QtQtQtQtQtQtQtQtQtQtQtQtQtQt.gbQ.o.PfN#o.8fJ.LbVbLbLbLbLbLbLbLbLbLbLbLbLbLbLbLbV#o#p####fsfO.D.oao.gQtQtQtQtQtQtQtQtQtQtQtQtQt",
".#QtQtQtQtQtQtQtQtQtQtQtQtQtQtQt.F.S.o.o.DdKfPft#nbGbGbGbxbE.L#nbVbVbV#n#nbHbFbG.8fQfRfO#K.o.o.o.V.#QtQtQtQtQtQtQtQtQtQtQtQtQtQt",
".#QtQtQtQtQtQtQtQtQtQtQtQtQtQtQtQt.gcu.3.o.o.o.ube.sdVbNfSfTfUbJbL.ZfVbIfWfXfY.Ibk#K.o.o.o.Pao.x.gQtQtQtQtQtQtQtQtQtQtQtQtQtQtQt",
".#QtQtQtQtQtQtQtQtQtQtQtQtQtQtQtQtQt.F.g.xbQ.R.P.o.o.o.o.o.o.u.P#KaT.D.D.D.o.o.o.o.o.P.va8Qt.gQtQtQtQtQtQtQtQtQtQtQtQtQtQtQtQtQt",
".#QtQtQtQtQtQtQtQtQtQtQtQtQtQtQtQtQtQtQtQt.F.gQt.x.4.paMal.D.P.u.o.o.o.o.o.P.3aMa8.G.h.g.FQtQtQtQtQtQtQtQtQtQtQtQtQtQtQtQtQtQtQt",
".c.a.a.a.a.a.a.a.a.a.a.a.a.a.c.a.a.a.a.a.a.a.a.f.f.#.#.d.d.#.f.a.cfZfZaJ.c.d.b.b.d.#.#.#.#.#.#.#.#.#.#.#.#.#.#.#.#.#.#.#.#.#.#.#",
"QtQtQtQtQtQtQtQtQtQtQtQtQt.b.#QtQtQtQtQtQtQtQtQtQtQtQtQtQtQtQtQtQtQtQtQtQtQtQtQtQtQtQtQtQtQtQtQtQtQt.b.c.wQtQtQtQtQtQtQtQtQtQtQt",
"QtQtQtQtQtQtQtQtQtQtQtQtQtQt.#QtQtQtQtQtQtQtQtQtQtQtQtQtQtQtQtQtQtQtQtQtQtQtQtQtQtQtQtQtQtQtQtQtQtQtQt.aQtQtQtQtQtQtQtQtQtQtQtQt",
"QtQtQtQtQtQtQtQtQtQtQtQtQtQt.#QtQtQtQtQtQtQtQtQtQtQtQtQtQtQtQtQtQtQtQtQtQtQtQtQtQtQtQtQtQtQtQtQtQtQtQt.aQtQtQtQtQtQtQtQtQtQtQtQt",
"QtQtQtQtQtQtQtQtQtQtQtQtQtQt.#QtQtQtQtQtQtQtQtQtQtQtQtQtQtQtQtQtQtQtQtQtQtQtQtQtQtQtQtQtQtQtQtQtQtQtQt.aQtQtQtQtQtQtQtQtQtQtQtQt",
"QtQtQtQtQtQtQtQtQtQtQtQtQtQt.#QtQtQtQtQtQtQtQtQtQtQtQtQtQtQtQtQtQtQtQtQtQtQtQtQtQtQtQtQtQtQtQtQtQtQtQt.aQtQtQtQtQtQtQtQtQtQtQtQt"};
