/* XPM */
static char *dummy[]={
"64 64 257 2",
".q c #000000",
".s c #002100",
"bH c #002a16",
".Q c #0c3124",
".p c #161519",
"#W c #1c1500",
"aA c #1c372e",
".X c #222126",
"#8 c #263c36",
".w c #272117",
".W c #2b2a30",
"a9 c #2e413d",
".2 c #2f2925",
"aH c #323138",
".P c #33001a",
".r c #35312f",
"#h c #354644",
"c. c #383023",
"aX c #38463c",
"#P c #391527",
"at c #3b3737",
".l c #3e2130",
"#j c #3e362e",
"#Z c #3e4a43",
"#H c #412126",
"aD c #413c3e",
".j c #433c36",
"#y c #454144",
"a. c #46292f",
".F c #47524e",
"#X c #48413d",
".k c #4a3037",
"#T c #4a4649",
"ay c #4c4543",
"af c #4c5552",
".E c #4e373e",
"ap c #4e4a4e",
"ao c #503736",
".v c #523c44",
"bL c #524e53",
".t c #543c3d",
"#p c #545c5b",
"bf c #574d42",
"aL c #575153",
"a3 c #575f5f",
"b# c #584143",
"#N c #595f5b",
"#q c #5b4549",
"bt c #5b5557",
".x c #5c625f",
"aI c #5d4543",
"a6 c #5e4a4e",
"an c #5e554d",
".o c #604a48",
"a7 c #606462",
".N c #614942",
"#V c #615c5f",
"am c #623c44",
"b8 c #633c3d",
"as c #634e4d",
"#s c #63584c",
"aG c #636766",
".a c #644d48",
"a1 c #645f63",
".Y c #654149",
"#4 c #666a6a",
".f c #67514d",
"#9 c #676267",
"bi c #676759",
".i c #68454e",
".c c #694549",
"#C c #695557",
"bd c #696d6d",
".O c #6a4a53",
"#Y c #6a5e50",
"#O c #6a656a",
".C c #6a6a5d",
".U c #6b615a",
".3 c #6b6f70",
".# c #6c4a4e",
".n c #6d4948",
".u c #6d4e58",
"b5 c #6e676a",
"b6 c #6e7273",
".b c #6f4d53",
"#. c #6f7170",
".d c #704d4d",
"Qt c #715157",
".e c #725152",
"ah c #727473",
"#I c #736759",
".h c #74555b",
"bS c #746a61",
"#t c #747676",
"aJ c #754a58",
".m c #755557",
".g c #764953",
"bA c #765551",
".A c #766c69",
"ac c #77585b",
"bC c #77766f",
"b3 c #777879",
"ak c #787276",
"## c #794d57",
"#J c #797b7c",
"bc c #7b515b",
"#G c #7c7d7e",
"bF c #7d5e5e",
"bj c #7d7a72",
"aE c #7d7d7b",
"bU c #7d8583",
"bs c #7e7f81",
".V c #808184",
".R c #818181",
"bT c #818988",
"bx c #828985",
"bb c #838383",
"#U c #848589",
"ad c #848b88",
"a4 c #858586",
"#w c #876a69",
"bh c #877a6e",
"a2 c #888788",
"bM c #898370",
"b1 c #8a898b",
"bk c #8b8988",
"#5 c #8c8b8d",
"bR c #8d8d90",
".Z c #8d928f",
"a0 c #8e8d8d",
"bq c #909696",
"ai c #919094",
"bZ c #929092",
"ag c #938a75",
"ba c #939796",
"#x c #948573",
"br c #949294",
"av c #959998",
"aR c #979b9a",
"bv c #988879",
"aW c #989698",
"#D c #9a8a79",
".4 c #9a9e9e",
"b9 c #9e9b9c",
"aZ c #9ea1a0",
"#r c #9f837d",
"#g c #9f9ca1",
"b0 c #9fa3a4",
".K c #a0907e",
".G c #a0a2a2",
"aP c #a29e9e",
"aF c #a2a4a4",
".5 c #a38c7e",
"b2 c #a39fa2",
"bK c #a3a5a6",
".D c #a49380",
"aq c #a4a5a4",
"#d c #a4a7aa",
"bQ c #a5a7a8",
"bG c #a69583",
"#A c #a6a9ac",
"#k c #a6adab",
"#3 c #a7a8aa",
"bu c #a89283",
"#Q c #a89783",
"#e c #a8aaac",
"bY c #a9aaa9",
"#n c #aaabad",
"#7 c #abadaf",
"#v c #acadad",
"#B c #adaeaf",
"#f c #aeb0b3",
"a# c #af9d8a",
"bz c #afb0b1",
"#i c #b09389",
"b4 c #b0b1b3",
".M c #b1aea4",
"bE c #b1b1b1",
"#o c #b1b2b6",
"#M c #b2b2b4",
".L c #b2b6b4",
"#L c #b2b8b7",
".9 c #b3b4b6",
"bl c #b4b4b4",
"aU c #b5b5b6",
"by c #b5b5b8",
"b7 c #b6b6b9",
"#a c #b79a8d",
"aw c #b7bab7",
"aj c #bab9bb",
"#m c #bbbabc",
"bB c #bda593",
".1 c #bdb2a6",
"aS c #bdc0bf",
"bP c #bec2c3",
"#z c #bfbec1",
".y c #bfc2c1",
"bX c #c0c3c2",
"a5 c #c2c4c2",
"aB c #c3c5c4",
"aK c #c5c3c4",
"bI c #c5c6c5",
"#2 c #c5c8c9",
".B c #c6cccb",
"a8 c #c8c9c7",
"bp c #c8caca",
"#b c #c8cdcb",
"bJ c #cac8ca",
"ab c #cacbcb",
".8 c #caccce",
"bW c #cccdce",
"bm c #cdcfd0",
"bV c #d0d1d1",
"bD c #d1d5d4",
"aQ c #d2d3d5",
"aV c #d2d6d5",
"be c #d3d3d2",
".S c #d4d4d4",
"ae c #d5d5d5",
"aM c #d7d6d6",
"b. c #d8d7d8",
".z c #d9d0c5",
"aC c #d9d8d9",
"#E c #d9dddc",
"#c c #dadedd",
"au c #dbdfde",
"#F c #dcdcdd",
"ar c #dcdfdd",
"ax c #dde0de",
"bN c #dee1df",
"aa c #dfe2e1",
"bg c #e0dfe0",
"al c #e1e3e1",
"#R c #e1e4e3",
"bO c #e2e5e5",
"aT c #e3e6e6",
".6 c #e4e5e4",
".H c #e7e7e5",
"#S c #e7e8e8",
".T c #e9ded3",
"bn c #ececea",
"#u c #ededed",
"az c #f0f0ef",
".0 c #f1f1f0",
"#0 c #f3f3f3",
"#6 c #f4f4f4",
"aY c #f7f6f6",
"aN c #f7faf9",
"bo c #fbfdfd",
"#K c #fcfbfa",
"bw c #fcfefe",
".7 c #fdfbfc",
"#1 c #fefcfd",
"aO c #fefffe",
".J c #fffbf6",
"#l c #fffdfe",
".I c #ffffff",
"QtQtQtQtQtQtQtQtQtQtQtQtQtQt.#QtQtQtQtQtQtQtQtQtQtQtQtQtQtQtQtQtQtQtQtQtQtQtQtQtQtQtQtQtQtQtQtQtQtQtQt.aQtQtQtQtQtQtQtQtQtQtQtQt",
".b.b.b.b.b.b.b.b.b.b.b.b.b.b.#.b.b.b.b.b.b.b.b.b.b.b.b.b.b.b.b.b.b.b.b.b.b.b.b.b.b.b.b.b.b.b.b.b.b.b.b.c.b.b.b.b.b.b.b.b.b.b.b.b",
".d.d.d.d.d.d.d.d.d.d.d.d.d.d.d.b.#.#.b.eQtQtQtQt.b.b.b.b.b.b.b.b.b.b.b.b.b.b.b.b.b.b.b.b.b.b.b.b.b.b.b.b.b.b.b.b.a.f.d.d.d.d.d.d",
"QtQtQtQtQtQtQtQtQtQtQtQtQtQtQtQt.d.g.h.i.j.k.l.k.b.m.hQtQtQtQtQtQtQtQtQtQtQtQtQtQtQtQtQtQtQtQtQtQtQtQtQtQtQtQtQt.nQtQtQtQtQtQtQt",
"QtQtQtQtQtQtQtQtQtQtQtQtQtQt.h.h.o.k.p.q.q.r.s.q.p.t.k.uQtQtQtQtQtQtQtQtQtQtQtQtQtQtQtQtQtQtQtQtQtQtQtQtQtQtQtQt.nQtQtQtQtQtQtQt",
"QtQtQtQtQtQtQtQtQtQtQtQt.hQt.v.w.q.q.p.x.y.z.A.B.C.D.q.E.hQtQtQtQtQtQtQtQtQtQtQtQtQtQtQtQtQtQtQtQtQtQtQtQtQtQtQt.nQtQtQtQtQtQtQt",
"QtQtQtQtQtQtQtQtQtQtQt.u.E.p.q.q.F.G.H.I.I.J.K.L.M.N.q.r.hQtQtQtQtQtQtQtQtQtQtQtQtQtQtQtQtQtQtQtQtQtQtQtQtQtQtQt.nQtQtQtQtQtQtQt",
"QtQtQtQtQtQtQtQtQtQt.O.P.q.Q.R.S.I.I.I.I.I.I.T.U.V.W.X.q.Y.mQtQtQtQtQtQtQtQtQtQtQtQtQtQtQtQtQtQtQtQtQtQtQtQtQtQt.nQtQtQtQtQtQtQt",
".d.d.d.d.d.d.d.d.d.b.e.q.Z.0.I.I.I.I.I.I.I.I.I.1.2.3.4.p.2.e.d.d.d.d.d.d.d.d.d.d.d.d.d.d.d.d.d.d.d.d.d.d.d.d.d.d.a.f.d.d.d.d.d.d",
".b.b.b.b.b.n.d.b.b.b.5.w.6.I.I.I.I.I.I.I.I.7.8.9#..p.p.q.2##.b.b.b.b.b.b.#.#.b.b.b.b.b.b.b.b.b.b.b.b.b.b.b.b.b.b.b.b.b.b.b.b.b.b",
"QtQtQtQtQt.#.bQtQtQt#a.2#b.I.I.I.I.I.I.I.I#c#d#e#f#g#h.q.v.hQtQtQtQtQtQt.#.bQtQtQtQtQtQtQtQtQtQtQtQtQtQtQtQtQtQtQtQtQtQtQtQtQtQt",
"QtQtQtQtQt.#.bQtQt.b#i#j#k.I.I.I.I.I.I.I#l#m#e#n#n#o#p.q#q.mQtQtQtQtQtQt.#.bQtQtQtQtQtQtQtQtQtQtQtQtQtQtQtQtQtQtQtQtQtQtQtQtQtQt",
"QtQtQtQtQt.#.bQtQt.b#r#s#t.I.I.I.I.I.I.I#u#n#n#n#n#v.2.q.uQtQtQtQtQtQtQt.#.bQtQtQtQtQtQtQtQtQtQtQtQtQtQtQtQtQtQtQtQtQtQtQtQtQtQt",
"QtQtQtQtQt.#.bQtQt.u#w#x#y#l.I.I.I.I.I.7#z#A#n#n#B.4.q.p#C.hQtQtQtQtQtQt.#.bQtQtQtQtQtQtQtQtQtQtQtQtQtQtQtQtQtQtQtQtQtQtQtQtQtQt",
".b.b.b.b.b.n.f.b.b.b.t#D.X#E.I.I.I.I.I#F#d#n#n#n#f#G.q.q.p.v##.b.b.b.b.b.#.#.b.b.b.b.b.b.b.b.b.b.b.b.b.b.b.b.b.b.b.b.b.b.b.b.b.b",
".b.b.b.b.b.b.b.b.bQt#H#I#s#J.I.I.I.I#K#L#e#n#n#n#M#N.q#O.W.q#P.###.b.b.b.b.b.b.b.b.b.b.b.b.b.b.b.b.f.#.b.b.b.b.b.b.b.b.b.b.b.b.b",
"QtQtQtQtQtQtQtQtQt.h.k.p#Q.X#R.I.I.I#S#e#n#n#n#n#M#T.q.W#U#V.q#W#X.h.mQtQtQtQtQtQtQtQtQtQtQtQtQtQt.b.fQtQtQtQtQtQtQtQtQtQtQtQtQt",
"QtQtQtQtQtQtQtQtQtQt.i.q#I#Y#Z#0.I#1#2#3#n#n#n#v#v.X.q#W.q#4#5.Q.q.X.#.hQtQtQtQtQtQtQtQtQtQtQtQtQt.b.fQtQtQtQtQtQtQtQtQtQtQtQtQt",
"QtQtQtQtQtQtQtQtQtQt.h.r.q#D.r#T#6.7#7#e#n#n#n#B.4.q.w#C.w.q#8#5#9#W.qa..m.mQtQtQtQtQtQtQtQtQtQtQt.b.fQtQtQtQtQtQtQtQtQtQtQtQtQt",
"QtQtQtQtQtQtQtQtQtQtQt.m.w.wa#.2#yaaab#7#v#v#n#f#5.q.lacQta..q#Wadaeaf.q.p.Y.hQtQtQtQtQtQtQtQtQtQt.b.fQtQtQtQtQtQtQtQtQtQtQtQtQt",
".#.#.#.#.#.#.#.#.#.#.#.#.##P.2ag#X.Xahai#e#v#Majak.q.k.e.b.e.t.p.q.xal#B.p.qa..b.b.d.d.d.f.f.f.f.f.#.a.#.#.#.#.#.#.#.#.#.#.#.#.#",
"QtQtQtQtQtQtQtQtQtQtQtQtQt.dama.anao.q.q.w.2#Zap.w.q.oQtQtQt.m.u#H.q.paqar#y.q.pas.hQt.b.fQtQtQtQtQtQtQtQtQtQtQtQtQtQtQtQtQtQtQt",
"QtQtQtQtQtQtQtQtQtQtQtQtQt.#QtQt.i.##X#H#W.q.q.q.qat.mQtQtQtQtQt.ham.p.q.xauav.p.q.j##Qt.dQtQtQtQtQtQtQtQtQtQtQtQtQtQtQtQtQtQtQt",
"QtQtQtQtQtQtQtQtQtQtQtQtQt.#QtQtQtQt.h.hQt.bas.o.O.mQtQtQtQtQtQtQt.h#C.2.q.Xawaxay.q.P.Y.eQtQtQtQtQtQtQtQtQtQtQtQtQtQtQtQtQtQtQt",
"QtQtQtQtQtQtQtQtQtQtQtQtQt.#QtQtQtQtQtQtQtQt##.mQtQtQtQtQtQtQtQtQtQtQt.h.t.q.q#tazav.q.q.k.m.m.m.bQt.hQtQtQtQtQtQtQtQtQtQtQtQtQt",
"QtQtQtQtQtQtQtQtQtQtQtQtQt.#QtQtQtQtQtQtQtQtQtQtQtQtQtQtQtQtQtQtQtQtQtQt.has.w.qaAaBaCaD.q.X.Y.p.q.p.k.b.mQtQtQtQtQtQtQtQtQtQtQt",
".#.#.#.#.#.#.#.#.#.#.#.#.#.n.#.#.#.#.#.#.#.#.#.#.#.#.#.#.#.#.#.#.#.#.#.#.#.d.b.k.q.qaE#SaF.w.q.2aGaH.q#WaI.#.#.#.#.#.#.#.#.#.#.#",
"QtQtQtQtQtQtaJ.#QtQtQtQtQtQtQtQtQtQtQtQtQtQtQtQtQtQtQtQtQtQtQtQtQtQtQtQtQtQtQt.h.#.w.qaHaKaL.paMaNaOaP.q.X.hQtQtQtQtQtQtQtQtQtQt",
"QtQtQtQtQtQtQt.#QtQtQtQtQtQtQtQtQtQtQtQtQtQtQtQtQtQtQtQtQtQtQtQtQtQtQtQtQtQtQtQt.m##a..q.q.q#taQ#OaR.I#N.q.bQtQtQtQtQtQtQtQtQtQt",
"QtQtQtQtQtQtQt.#QtQtQtQtQtQtQtQtQtQtQtQtQtQtQtQtQtQtQtQtQtQtQtQtQtQtQtQtQtQtQtQtQtQt.g.c.p.qaSaT#t.w.I#..q.i##QtQtQtQtQtQtQtQtQt",
"QtQtQtQtQtQtQt.#QtQtQtQtQtQtQtQtQtQtQtQtQtQtQtQtQtQtQtQtQtQtQtQtQtQtQtQtQtQtQtQtQtQt.#.m.E.qaU.IaVaW.IaX.q.###QtQtQtQtQtQtQtQtQt",
"QtQtQtQtQtQtaJ.#QtQtQtQtQtQtQtQtQtQtQtQtQtQtQtQtQtQtQtQtQtQtQtQtQtQtQtQtQtQtQtQtQtQt.#.e.i.qayaY.I.IaZ.q.X.mQtQtQtQtQtQtQtQtQtQt",
".#.#.#.#.#.#.#.#.#.#.#.#.#.#.#.#.#.#.#.#.#.#.#.#.#.n.#.#.#.#.#.#.#.#.#.#.#.#.#.#.#.#.#.#.b.w.qaDa0a1.q.q.Y.d.#.#.#.#.#.#.#.#.#.n",
".bQtQtQtQtQtQtQtQtQtQtQtQtQtQtQtQtQtQtQtQtQtQtQtQt.#.bQtQtQtQtQtQtQtQtQtQtQtQtQtQtQtQt.m.#.q.p#W.q.q.p#q.hQtQtQtQtQtQtQtQtQtQt.#",
".bQtQtQtQtQtQtQtQtQtQtQtQtQtQtQtQtQtQtQtQtQtQtQtQt.#.bQtQtQtQtQtQtQtQtQtQtQtQtQtQtQtQt.hat.q#t.W.q.YQt.mQtQtQtQtQtQtQtQtQtQtQt.#",
".bQtQtQtQtQtQtQtQtQtQtQtQtQtQtQtQtQtQtQtQtQtQtQtQt.#.bQtQtQtQtQtQtQtQtQtQtQtQtQtQtQtQtQt.p.wa2.q.racQtQtQtQtQtQtQtQtQtQtQtQtQt.#",
".bQtQtQtQtQtQtQtQtQtQtQtQtQtQtQtQtQtQtQtQtQtQtQtQt.#.bQtQtQtQtQtQtQtQtQtQtQtQtQtQtQt.h.v.qa3#T.q.#QtQtQtQtQtQtQtQtQtQtQtQtQtQt.#",
".bQtQtQtQtQtQtQtQtQtQtQtQtQtQtQtQtQtQtQtQtQtQtQtQt.#.bQtQtQtQtQtQtQtQtQtQtQtQtQtQtQtQt.p.sa4.q.X.hQtQtQtQtQtQtQtQtQtQtQtQtQtQt.#",
".#.#.#.#.#.#.#.#.#.#.#.#.#.#.n.#.#.#.#.#.#.#.#.#.#.a.n.#.#.#.#.#.#.#.#.#.#.#.#.#.#.dao.qaL#O.q.t.d.#.n.#.#.#.#.#.#.#.#.#.#.#.#.n",
"QtQtQtQtQtQtQtQtQtQtQtQtQt.f.#QtQtQtQtQtQtQtQtQtQtQtQtQtQtQtQtQtQtQtQtQtQtQtQtQtQt.m.P.qa5.2#WQtQtQt.d.fQtQtQtQtQtQtQtQtQtQtQtQt",
"QtQtQtQtQtQtQtQtQtQtQtQtQt.f.fQtQtQtQtQtQtQtQtQtQtQtQtQtQtQtQtQtQtQtQtQtQtQtQtQt.ma6.qa7a5.qa..hQtQt.b.fQtQtQtQtQtQtQtQtQtQtQtQt",
"QtQtQtQtQtQtQtQtQtQtQtQtQt.f.fQtQtQtQtQtQtQtQtQtQtQtQtQtQtQtQtQtQtQtQtQtQtQtQtQt.ha..qa8#N.q.iQtQtQt.b.fQtQtQtQtQtQtQtQtQtQtQtQt",
"QtQtQtQtQtQtQtQtQtQtQtQtQt.f.fQtQtQtQtQtQtQtQtQtQtQtQtQtQtQtQtQtQtQtQtQtQtQtQtQtQt#Wa9b..q.w.hQtQtQt.b.fQtQtQtQtQtQtQtQtQtQtQtQt",
"QtQtQtQtQtQtQtQtQtQtQtQtQt.f.fQtQtQtQtQtQtQtQtQtQtQtQtQtQtQtQtQtQtQtQtQtQtQtQt.hb#.qbabb.q.v.hQtQtQt.b.fQtQtQtQtQtQtQtQtQtQtQtQt",
".b.b.b.b.b.b.b.b.b.b.b.b.b.#.#.b.b.b.b.b.b.b.b.b.b.b.b.b.b.b.b.b.b.b.b.b.b.b.bQt.p.pb..p#W.b.b.b.b.b.#.#.b.b.b.b.b.b.b.b.b.b.b.b",
".n.n.n.n.n.n.n.a.a.#.#.#.#.#.#.#.#.#.#.#.#.#.#.#.#.#.#.#.#.#.#.#.#.#.#.#.#.f.b.t.q#JaZ.q#j.d.#.#.#.#.#.n.n.n.n.n.n.n.n.n.n.n.n.n",
"QtQtQtQtQtQtQt.b.fQtQtQtQtQtQtQtQtQtQtQtQtQtQtQtQtQtQtQtQtQtQtQt##.h##.h.h##bc.w.qb.at.qQtbc.hQtQtQtQtQtQtQtQtQtQtQtQtQtQtQtQtQt",
"QtQtQtQtQtQtQt.b.fQtQtQtQtQtQtQtQtQtQtQtQtQtQtQtQtQtQtQtQtQt.mQta6b#b#.r.p#W.p.qbdbe.q.pa..k#qQt.hQtQtQtQtQtQtQtQtQtQtQtQtQtQtQt",
"QtQtQtQtQtQtQt.b.fQtQtQtQtQtQtQtQtQtQtQtQtQtQtQtQtQtQtQtQtQtb#ao#sbf#j.q.p#h.r.qbg.R.q.q.q.q.q.pat#CQtQtQtQtQtQtQtQtQtQtQtQtQtQt",
"QtQtQtQtQtQtQt.b.fQtQtQtQtQtQtQtQtQtQtQtQtQtQtQtQtQtQtQtQt.hbhbibjbkblbmbnboaA.WbpaA.Wbqbrbsbt.p.q.p.#QtQtQtQtQtQtQtQtQtQtQtQtQt",
"QtQtQtQtQtQtQt.b.fQtQtQtQtQtQtQtQtQtQtQtQtQtQtQtQtQtQtQt.bbubvaUbw.I.I.I.I.Ibx.q.q.q#Vbybz#f#M#3a7.q#H.hQtQtQtQtQtQtQtQtQtQtQtQt",
".#.#.#.#.#.#.#.n.a.#.#.#.#.#.#.#.#.#.#.#.#.#.#.#.#.#.#.#bAbBbC.I.I.I.I.I.I.I.IbDbE#5#3#v#n#n#n#f#M.w#W.d.#.#.#.#.#.#.#.#.#.#.#.#",
".n.b.b.b.b.b.b.b.b.b.b.b.b.b.b.b.b.b.b.b.b.b.b.b.b.b.b.#bFbGbHbI.I.I.I.I.I.I.I.I.IbJ#d#e#7bz#MbKbL.q.p.b.b.b.b.b.b.b.b.b.b.b.b.b",
".#QtQtQtQtQtQtQtQtQtQtQtQtQtQtQtQtQtQtQtQtQtQtQtQtQtQtQtasbM.q.q#.bN.I.I.I.I.I.I.I.IbObPbQbRa7.p.q.q.pQtQtQtQtQtQtQtQtQtQtQtQtQt",
".#QtQtQtQtQtQtQtQtQtQtQtQtQtQtQtQtQtQtQtQtQtQtQtQtQtQtQtatbSbT#y.q.s#TbUaUbVbWbXbYbZ#4aD.p.q.q.w#4.p.p.mQtQtQtQtQtQtQtQtQtQtQtQt",
".#QtQtQtQtQtQtQtQtQtQtQtQtQtQtQtQtQtQtQtQtQtQtQtQtQtQt.h.2atb0.9b1ap.p.q.q.q.q.q.q.q.q.paA#pa2#nb2.q.X.hQtQtQtQtQtQtQtQtQtQtQtQt",
".#QtQtQtQtQtQtQtQtQtQtQtQtQtQtQtQtQtQtQtQtQtQtQtQtQtQt.h.2.qb3b4by.9bQa0akb5#Ob6#4.VaWbKbz#Mb4.9.4.p.k.hQtQtQtQtQtQtQtQtQtQtQtQt",
".#QtQtQtQtQtQtQtQtQtQtQtQtQtQtQtQtQtQtQtQtQtQtQtQtQtQtQt.o.p.qat#GaFb4#Lb7byby#M.9#M#f#f#f#M#eb6bH.q.Y.hQtQtQtQtQtQtQtQtQtQtQtQt",
".c.a.a.a.a.a.a.a.a.a.a.a.a.a.c.a.a.a.a.a.a.a.a.a.a.a.a.a.#b8.w.q.q.p#8.x#GbraRb2aFbQb2b9ad#p.w.q.qc..#.#.#.#.#.#.#.#.#.#.#.#.#.#",
"QtQtQtQtQtQtQtQtQtQtQtQtQt.b.#QtQtQtQtQtQtQtQtQtQtQtQtQtQtQt##.oat.p.q.q.q.q.q.p.p.p.p.q.q.q.q.r.i.m.b.c.eQtQtQtQtQtQtQtQtQtQtQt",
"QtQtQtQtQtQtQtQtQtQtQtQtQtQt.#QtQtQtQtQtQtQtQtQtQtQtQtQtQtQtQt.m.h##.O.ta..2.X.P.p.p.p.Xa.b#.b.h##QtQt.aQtQtQtQtQtQtQtQtQtQtQtQt",
"QtQtQtQtQtQtQtQtQtQtQtQtQtQt.#QtQtQtQtQtQtQtQtQtQtQtQtQtQtQtQtQtQtQtQt.h.h.h.h.hQt.m.m.h.h.hQtQtQtQtQt.aQtQtQtQtQtQtQtQtQtQtQtQt",
"QtQtQtQtQtQtQtQtQtQtQtQtQtQt.#QtQtQtQtQtQtQtQtQtQtQtQtQtQtQtQtQtQtQtQtQtQtQtQtQtQtQtQtQtQtQtQtQtQtQtQt.aQtQtQtQtQtQtQtQtQtQtQtQt",
"QtQtQtQtQtQtQtQtQtQtQtQtQtQt.#QtQtQtQtQtQtQtQtQtQtQtQtQtQtQtQtQtQtQtQtQtQtQtQtQtQtQtQtQtQtQtQtQtQtQtQt.aQtQtQtQtQtQtQtQtQtQtQtQt"};
