/* XPM */
static char *dummy[]={
"64 64 325 2",
".m c #000000",
"cL c #002100",
"b5 c #002a16",
".s c #161519",
".y c #1c1500",
".p c #222126",
".t c #272117",
"#D c #2b0002",
"a2 c #2e3c21",
".7 c #2f2925",
".o c #322915",
"a0 c #33001a",
".i c #35312f",
".K c #383023",
".j c #391527",
"as c #3b3012",
"dc c #3e2130",
"bs c #3e362e",
"aR c #403622",
"c1 c #432a38",
"bA c #433c36",
"ad c #453c2c",
".k c #46292f",
"bG c #473c20",
"bB c #474d3b",
"bF c #482924",
"ch c #48413d",
".T c #4a3037",
"cr c #4a4135",
"cP c #4c302e",
"#i c #4c412b",
".J c #4e373e",
"a1 c #4e453c",
"cl c #503736",
".L c #504534",
"cs c #523c44",
"aN c #52452a",
"bU c #524a42",
".r c #543c3d",
"b8 c #54493b",
"co c #554933",
"c4 c #562938",
"c8 c #564e48",
".n c #574929",
"cy c #574d42",
".z c #584143",
"bS c #595838",
"cV c #5a313e",
".q c #5b4549",
"bO c #5b4d32",
"cc c #5b5147",
"da c #5d4543",
".V c #5e4a4e",
"aw c #5e5139",
"c9 c #5e554d",
"bz c #5f5131",
"bR c #603c4a",
".W c #604a48",
"ci c #605547",
"c2 c #623c44",
"#j c #634e4d",
"b1 c #635439",
".a c #644d48",
".S c #645430",
".l c #654149",
"al c #65583f",
"#t c #665152",
".e c #67514d",
"a5 c #675838",
"#k c #68454e",
"bt c #685b45",
".c c #694549",
".U c #6a4a53",
"b# c #6a5b3f",
"ae c #6b5b37",
".# c #6c4a4e",
"aL c #6c554c",
".f c #6d4948",
".8 c #6d4e58",
"cK c #6d6155",
"bZ c #6e5e3e",
".b c #6f4d53",
"#5 c #6f5e36",
"c3 c #6f6459",
".d c #704d4d",
"bj c #706144",
"Qt c #715157",
"au c #715b56",
".I c #725152",
"b4 c #72613d",
"b2 c #72675d",
"#0 c #736135",
".g c #74555b",
"bI c #746443",
"b9 c #746a61",
"bQ c #754a58",
".h c #755557",
".G c #75643c",
".A c #764953",
".M c #765b3e",
"#7 c #76674e",
"cH c #77585b",
"cd c #776958",
"#l c #785856",
"ar c #786642",
".H c #794d57",
"ck c #79645e",
"cA c #79663b",
"c0 c #7b515b",
"cX c #7b5b5a",
"a6 c #7b6942",
"cR c #7d5e5e",
".X c #7d6f5c",
"cw c #7e6c47",
".Y c #7e6e57",
"cO c #7e7164",
"aI c #7f6c41",
"cG c #806e4d",
"bJ c #807368",
"ca c #80754b",
"bq c #816e47",
"cN c #826462",
"aX c #826642",
".6 c #826e40",
"cz c #836f68",
"b6 c #83714c",
".x c #847146",
"ac c #86734b",
"aj c #876c47",
".B c #877345",
"## c #887550",
"#n c #88785e",
"bC c #887a6a",
"db c #89736b",
"#Z c #89754b",
"#w c #89785a",
"cJ c #8a6c68",
"aB c #8a7544",
"cS c #8a7c6d",
"cT c #8b7850",
"c. c #8c7a59",
"aM c #8c7c66",
"cZ c #8c7f71",
"bo c #8d7046",
".9 c #8d7663",
"#P c #8d7744",
"cb c #8d7a54",
"#u c #8e786a",
"cF c #8f716b",
"cu c #8f7a49",
"cY c #8f8170",
"b7 c #907c54",
"cC c #91736f",
"bY c #92754a",
"c5 c #927c71",
"cm c #937e53",
"bm c #957e48",
"b0 c #958058",
"cq c #968177",
"ct c #978257",
"#S c #988252",
"#R c #98866b",
"cW c #998377",
"cn c #99845b",
"cD c #9a7e58",
"bH c #9a8456",
"d# c #9a8579",
"#F c #9a886f",
"b3 c #9b7e53",
"#o c #9c8656",
"bl c #9c865b",
"#1 c #9d8651",
"cg c #9d885f",
"bP c #9e885a",
"br c #a08a5e",
"aJ c #a28a50",
"bk c #a28c5e",
"av c #a29074",
"bV c #a29077",
"aW c #a38c59",
".u c #a48c54",
"ba c #a48e62",
"c6 c #a48e81",
"#C c #a58650",
"cj c #a68855",
"cp c #a68d54",
"#E c #a78e78",
"a9 c #a88a59",
"cU c #a89165",
"d. c #a89283",
"#h c #a98a55",
"bT c #a99161",
"bi c #aa9158",
"#. c #aa9679",
"ak c #ab9d7e",
"cx c #ac9586",
"c7 c #ad9788",
"af c #ae9456",
"aQ c #af965f",
"#m c #af9b7f",
"aH c #b0965b",
"cQ c #b09888",
".Z c #b39963",
"cB c #b39c8d",
"#6 c #b39f81",
"#Q c #b4a084",
"cE c #b69f8f",
"b. c #b99e61",
"bb c #ba9e5d",
"#v c #baa585",
"cf c #bba061",
"cI c #bba393",
"bN c #bc9b5d",
"cM c #bca595",
"#8 c #bd9d65",
"bW c #bda36f",
"aK c #bfa360",
"#Y c #bfa46b",
"bu c #c1a060",
"bd c #c2a164",
"bD c #c2a76e",
"#s c #c4a364",
"#x c #c4a368",
"aZ c #c4a762",
"bh c #c5a966",
"aC c #c6a463",
"aq c #c6a66e",
"bp c #c7a667",
"am c #c8a76e",
"bK c #caac81",
"ab c #cbaa71",
"aS c #ccae68",
"be c #cdaa65",
"a3 c #cdab6d",
".R c #ceab69",
"aY c #ceb068",
"bE c #d1ae6c",
"#2 c #d1b26b",
"ce c #d2ae68",
"aA c #d2b073",
"ax c #d5b272",
".5 c #d6b26b",
"bg c #d6b475",
".N c #d6b874",
".F c #d7b46e",
"cv c #d7b76d",
"#4 c #d9b56e",
"bX c #d9b96c",
"#a c #dbbb76",
"bv c #dcb770",
"aO c #dcb977",
"#M c #ddb970",
"bL c #ddb973",
"bw c #ddbc6f",
"aV c #debf7c",
"ag c #e0bb73",
"c# c #e2bc72",
"#g c #e3be72",
"by c #e5bf72",
".w c #e6c075",
"a8 c #e6c17e",
"#O c #e7c174",
"aG c #e7c37e",
"#N c #e8c377",
".P c #eac477",
"#A c #ebc576",
"a. c #ebc57a",
".D c #ecc679",
"#I c #ecc67d",
"ah c #ecca78",
".C c #edc377",
"bM c #edc676",
"#U c #edc77c",
".Q c #eec779",
"an c #eec87f",
"#G c #eec882",
".3 c #efc879",
"#e c #efc87c",
"#H c #efca82",
"#X c #efca85",
"#B c #f0ca7b",
"#J c #f0ca7f",
"bx c #f1c978",
"aD c #f1cb7e",
"#9 c #f1cb81",
".v c #f2cb7b",
"ao c #f2cc81",
"ap c #f2cc84",
".4 c #f3c87c",
"#f c #f3cc7b",
"aT c #f3cd81",
"#p c #f3cd84",
"aa c #f3cd86",
"aP c #f4ca81",
"#3 c #f4cd7e",
".2 c #f4ce86",
"#L c #f5cb7e",
"ai c #f5ce7d",
"at c #f5ce80",
"#d c #f5cf86",
"ay c #f5cf89",
".E c #f6cb7b",
".O c #f6cf80",
"#r c #f6d088",
"#z c #f6d48a",
"bc c #f7d083",
"a7 c #f8d080",
"bf c #f8d185",
"#c c #f8d188",
"bn c #f9d17f",
"#K c #f9d288",
"#T c #f9d38a",
"aE c #fad285",
"az c #fad48a",
"#V c #fbd487",
"#q c #fbd58a",
"aU c #fcd587",
"#y c #fcd68c",
".0 c #fed48a",
".1 c #fed48d",
"#b c #fed78c",
"aF c #ffd68c",
"a4 c #ffd88c",
"#W c #ffd88e",
"a# c #ffd98e",
"QtQtQtQtQtQtQtQtQtQtQtQtQtQt.#QtQtQtQtQtQtQtQtQtQtQtQtQtQtQtQtQtQtQtQtQtQtQtQtQtQtQtQtQtQtQtQtQtQtQtQt.aQtQtQtQtQtQtQtQtQtQtQtQt",
".b.b.b.b.b.b.b.b.b.b.b.b.b.b.#.b.b.b.b.b.b.b.b.b.b.b.b.b.b.b.b.b.b.b.b.b.b.b.b.b.b.b.b.b.b.b.b.b.b.b.b.c.b.b.b.b.b.b.b.b.b.b.b.b",
".d.d.d.d.d.d.d.d.d.d.d.d.d.d.d.b.#.#.b.b.b.b.b.b.b.b.b.b.b.b.b.b.b.b.b.b.b.b.b.b.b.b.b.b.b.b.b.b.b.b.b.b.b.b.b.b.a.e.d.d.d.d.d.d",
"QtQtQtQtQtQtQtQtQtQtQtQtQtQtQtQt.e.eQtQtQtQtQtQtQtQtQtQtQtQtQtQtQtQtQtQtQtQtQtQtQtQtQtQtQtQtQtQtQtQtQtQtQtQtQtQt.fQtQtQtQtQtQtQt",
"QtQtQtQtQtQtQtQtQtQtQtQtQtQtQtQt.e.eQtQtQtQtQtQtQtQtQtQtQtQtQtQtQtQtQtQtQtQtQtQtQtQtQtQtQtQtQtQtQtQtQtQtQtQtQtQt.fQtQtQtQtQtQtQt",
"QtQtQtQtQtQtQtQtQtQtQtQtQtQtQtQt.e.eQtQtQtQtQtQtQtQtQtQtQtQt.g.g.g.hQtQtQtQtQtQtQtQtQtQtQtQtQtQtQtQtQtQtQtQtQtQt.fQtQtQtQtQtQtQt",
"QtQtQtQtQtQtQtQtQtQtQtQtQtQtQtQt.e.eQtQtQtQtQtQtQtQtQtQt.g.#.i.j.k.l.g.hQtQtQtQtQtQtQtQtQtQtQtQtQtQtQtQtQtQtQtQt.fQtQtQtQtQtQtQt",
"QtQtQtQtQtQtQtQtQtQtQtQtQtQtQtQt.e.eQtQtQtQtQtQtQtQt.gQt.k.m.m.n.o.m.p.q.g.gQtQtQtQtQtQtQtQtQtQtQtQtQtQtQtQtQtQt.fQtQtQtQtQtQtQt",
".d.d.d.d.d.d.d.d.d.d.d.d.d.d.d.b.#.#.b.d.d.d.d.d.b.b.r.s.m.t.u.v.w.x.y.m.t.z.A.A.b.d.d.d.d.d.d.d.d.d.d.d.d.d.d.d.a.e.d.d.d.d.d.d",
".b.b.b.b.b.f.d.b.b.b.b.b.b.b.b.b.b.b.b.b.b.b.bQt.q.t.m.y.B.w.v.C.D.E.F.G.m.m.s.rQt.H.I.b.b.b.b.b.b.b.b.b.b.b.b.b.b.b.b.b.b.b.b.b",
"QtQtQtQtQt.#.bQtQtQtQtQtQtQtQtQtQtQtQtQtQt.HQt.J.K.L.M.N.O.D.P.P.P.P.Q.E.R.S.y.m.s.T.U.g.hQtQtQtQtQtQtQtQtQtQtQtQtQtQtQtQtQtQtQt",
"QtQtQtQtQt.#.bQtQtQtQtQtQtQtQtQtQtQtQtQtQt.V.W.X.Y.Z.0.1.2.P.P.P.P.P.P.P.3.4.5.6.t.m.m.7.W.g.HQtQtQtQtQtQtQtQtQtQtQtQtQtQtQtQtQt",
"QtQtQtQtQt.#.bQtQtQtQtQtQtQtQtQtQtQtQt.8.z.9#.###a#b#c#d#e.P.P.P.P.P.P.P.P.P.Q#f#g#h#i.m.m.7#j.gQtQtQtQtQtQtQtQtQtQtQtQtQtQtQtQt",
"QtQtQtQtQt.#.bQtQtQtQtQtQtQtQtQtQt.H#k#l#m#n#o#p#q#r#p.D.P.P.P.P.P.P.P.P.P.P.P.P.D.v.v#s.n.m.m.k#t.gQtQtQtQtQtQtQtQtQtQtQtQtQtQt",
".b.b.b.b.b.f.e.b.b.b.b.b.b.b.b.b.b.q#u#v#w#x#y#z.2#e.P.P.P.P.P.P.P.P.P.P.P.C#A#A.P.P.P#B.3#C.o.m#D.JQt.b.b.b.b.b.b.b.b.b.b.b.b.b",
".b.b.b.b.b.b.b.b.b.b.b.b.b.b.b.b.c#E#F###G#b#r#H#A.P.P.P.P.P.P#I#J#d#K#L.v.P#M#M#N.P.P.P#A#f#O#P.y.m.j#k.I.b.b.b.b.b.b.b.b.b.b.b",
"QtQtQtQtQtQtQtQtQtQtQtQtQtQt.8.W#Q#R#S#r#T.2#U.P.P.P.P.D#e#p#V#W#y#X#Y#Z#0.G#1#2#A.P.P.P.P.P.D#3#4#5.m.y.q.hQtQtQtQtQtQtQtQtQtQt",
"QtQtQtQtQtQtQtQtQtQtQtQtQt.b.e#6#7#8#W#c#9#A#N.Pa.#J#d.0a#aaabacad.K.oaeafagah.D.P.P.P.P.P.P.P.P.Qaiaj.m.sQtQtQtQtQtQtQtQtQtQtQt",
"QtQtQtQtQtQtQtQtQtQtQtQt.b.Iakalam#W#ran.P.P.Dao#qa#apaqar.t.mas#5#s#Natai.v#f.E.3.P.P.P.P.P.P.P.P#f#S.m.m.q.hQtQtQtQtQtQtQtQtQt",
"QtQtQtQtQtQtQtQtQtQtQt.bauavawax#bay#e.P.P#e#bazaAar.t.y.KaBaCaDaE#VaF#yaGaHaI#5aJ.Q.P.P.P.P.P.P#faK.m.t.y.7.gQtQtQtQtQtQtQtQtQt",
".#.#.#.#.#.#.#.#.#.#.#aLaMaNaO#b#d#e.P.PahaPaQaR.y.KaIaSaTaU#ba##WaVaW#i.y.m.oaXaY.D.P.P.P.P.P.EaZ.s.mac.ta0.d.#.#.#.#.#.#.#.#.#",
"QtQtQtQtQtQtQtQtQtQt.za1a2a3a4.2#U.P.P.DaZa5aRa6aZ.Qa7az.1#Wa8a9aN.m.m.o.B.R.D.E.Q.P.P.P.P.P.Eb..s.mb#ba.t.sQtQtQtQtQtQtQtQtQtQt",
"QtQtQtQtQtQtQtQtQtQt.s.ybbbc#Ha..P.P.P.Pbdbe.Q.E.3#A.Qbfbga5.y.m.oaIbh.D#f.3#A.P.P.P.P.P#A.Ebi.y.mbjbkbl.s.t.gQtQtQtQtQtQtQtQtQt",
"QtQtQtQtQtQtQtQt.g.r.mbmbn.P.P.P.P.P.P.P.Q.Q#A.P.P#A#g.x.K.nbobp.D.E.3#A.P.P.P.P.P.P.P.Q.4.B.m.ybqbkbrac.m.i.gQtQtQtQtQtQtQtQtQt",
"QtQtQtQtQtQtQtQt.#.ybsbtbu.3#A.P.P.P.P.P.P.P.P.P.P#Abvbubw.v#f.3#A.P.P.P.P.P.P.P.P.Pbxbybz.m.t##bkblbr.K.m.j.gQtQtQtQtQtQtQtQtQt",
"QtQtQtQtQtQtQt.gbA.m#ibBbCbD#A.D.P.P.P.P.P.P.P.P.P.P#A.3.D.P.P.P.P.P.P.P.P.P.P.P.P#fbEbF.mbGbHbrblbkac.m.m.p.gQtQtQtQtQtQtQtQtQt",
".#.#.#.#.#.#.#.dbs.marbIbsbJbKbLbM.D.P.P.P.P.P.P.P.P.P.P.P.P.P.P.P.P.P.P.P.P.P#A#3bN.s.mbObkbPblbrac.y.m.ma0.d.#.#.#.#.#.#.#.#.#",
"QtQtQtQtQtQtbQ.bbR.mbSbT##.KbUbVbWbXbx#A.P.P.P.P.P.P.P.P.P.P.P.P.P.P.P.P.P.P.D#fbY.m.mbZbkbPblbrb0.s.m.t.ma0.hQtQtQtQtQtQtQtQtQt",
"QtQtQtQtQtQtQt.d#t.m.KbkbrbPb1.7b2aMb3#gbx.P.P.P.P.P.P.P.P.P.P.P.P.P.P.P.Pah.Db4.mb5b6bkblblbPbl.7.m.s.7.m.s.hQtQtQtQtQtQtQtQtQt",
"QtQtQtQtQtQtQt.#.g.p.yb7bkbPbkb7awb8b9c.bd.3.Q.P.P.P.P.P.P.P.P.P.P.P.P.P.vc#bO.m.Kb0brblblbrbl.K.m.m.s.7.m.s.hQtQtQtQtQtQtQtQtQt",
"QtQtQtQtQtQtQt.#.g.J.m.tcabkblbPbkcbawcccdblce#B.D.P.P.P.P.P.P.P.P.P#A.Ecf.o.madbPcgblblbrb0.o.m.t.s.s.7.m.s.hQtQtQtQtQtQtQtQtQt",
"QtQtQtQtQtQtbQ.#.h.r.m.m.mbZbabPblbPbrbZa2chcicjby.v.D.P.P.P.P.P.P.3.3.B.m.mawbrbPblblbrb0.t.m#Dck.i.y.7.m.sQtQtQtQtQtQtQtQtQtQt",
".#.#.#.#.#.#.#.#.bcl.m.t.m.madcmbkblblbrcnb1.K.icocp#N#f.Q.P.P.P#f.F#i.m.tb6bkbPblblbk##.t.m#D.kcqcr.y.7.m.s.d.#.#.#.#.#.#.#.#.f",
".bQtQtQtQtQtQtQt.gcs.m.7.q.m.m.ya5bkbrblbPbkctbO.s.m.tcucv#f#f.vbi.s.mbGctbrblblblbkcw.y.m.m.s.Tcxcy.m.7.m.s.hQtQtQtQtQtQtQtQt.#",
".bQtQtQtQtQtQtQt.gcs.m.jcz.t.m.m.m.oarbrbrblbPbkb7b1.t.m.y.ncpcA.m.mb#brbPblblbPbkbZ.m.m.i.m.y.TcBcy.m.7.m.sQtQtQtQtQtQtQtQtQt.#",
".bQtQtQtQtQtQtQt.h.z.m.pcCbs.m.7.m.m.ma2cbbabPblbPbkbParaR.m.m.maRcbbkblblblbrcDad.m.mbAQt.m.y.TcEa1.m.7.m.sQtQtQtQtQtQtQtQtQt.#",
".bQtQtQtQtQtQtQt.gcs.m.tcFcy.m.7.m.m.t.m.ycob7bkcgblbPbrbkb0.K.yblbrblblbPbkcG.s.m.y.zcH.b.m.s.TcIbs.m.7.m.sQtQtQtQtQtQtQtQtQt.#",
".bQtQtQtQtQtQtQt.h.z.m.tcJcK.m.7cL.m.8.qa0.m.yaNcbbkcgblblbaad.mb0bPblcgbrbO.m.m.p.#.gQt.b.m.y.JcM.7.y.7.m.sQtQtQtQtQtQtQtQtQt.#",
".#.#.#.#.#.#.#.#.b.r.ma0cNcO.m.7cL.m.c.b.#cl.s.m.m.Lb7bkcgbkbG.mb7bPbrb0aR.m.mcP.d.d.#.#.c.m.s.JcQ.s.s.7.m.s.d.#.#.#.#.#.#.#.#.f",
"QtQtQtQtQtQtQtQt.h.q.m.tcRcS.m.7.y.m.UQtQt.hQt.J.s.m.madcTcUco.mcbbab6.t.m.s.l.gQtQtQtQt.U.m.scVcW.m.s.s.m.t.hQtQtQtQtQtQtQtQtQt",
"QtQtQtQtQtQtQtQt.h.q.ma0cXcY.m.7.y.m.UQtQtQtQt.gQt.r.s.m.maNbO.macb1.m.m.7Qt.hQtQtQtQtQt.8.m.m.kck.m.m.m.s#kQtQtQtQtQtQtQtQtQtQt",
"QtQtQtQtQtQtQtQt.H#k.ma0cXcZ.m.p.y.m.#QtQtQtQtQtQtc0#j.m.m.m.m.m.y.m.m.m.l.gQtQtQtQtQtQt.h.T.m.m.s.m.m.m.l.gQtQtQtQtQtQtQtQtQtQt",
"QtQtQtQtQtQtQtQt.h.V.ma0aucO.m.p.s.m.UQtQtQtQtQtQt.h.l.m.sc1.p.m.m.t.s.mc2.hQtQtQtQtQtQtQt.h.z.s.m.m.m.r.gQtQtQtQtQtQtQtQtQtQtQt",
"QtQtQtQtQtQtQtQt.h#k.m.mbUc3.m.t.m.sQtQtQtQtQtQtQt.h.q.m.sc4.e.m.s.K.s.m.q.hQtQtQtQtQtQtQtQt.gQt.Ja0.k.AQtQtQtQtQtQtQtQtQtQtQtQt",
".b.b.b.b.b.b.b.b.b.bbA.m.m.s.m.m.m.kQt.b.b.b.b.b.bQt.q.m.s.Tc5.s.s.7.s.m.rQt.b.b.b.b.b.b.b.b.b.bQtQt.d.#.b.b.b.b.b.b.b.b.b.b.b.b",
".f.f.f.f.f.f.f.a.a.#.b.c.j.m.m.m.i.d.#.#.#.#.#.#.#.d.z.m.s.Tc6.i.s.7.s.m.r.b.#.#.#.#.f.c.#.#.#.#.#.#.#.f.f.f.f.f.f.f.f.f.f.f.f.f",
"QtQtQtQtQtQtQt.b.eQtQt.h.h.r.7.r.gQtQtQtQtQtQtQtQt.g.q.m.s.Tc7cr.y.7.s.mc2.gQtQtQtQt.b.#QtQtQtQtQtQtQtQtQtQtQtQtQtQtQtQtQtQtQtQt",
"QtQtQtQtQtQtQt.b.eQtQtQtQt.g.g.gQtQtQtQtQtQtQtQtQt.h.q.m.s.Tcxb8.y.7.s.m.r.gQtQtQtQt.b.#QtQtQtQtQtQtQtQtQtQtQtQtQtQtQtQtQtQtQtQt",
"QtQtQtQtQtQtQt.b.eQtQtQtQtQtQtQtQtQtQtQtQtQtQtQtQt.h.q.m.s.Tc7c8.m.7.s.m.r.gQtQtQtQt.b.#QtQtQtQtQtQtQtQtQtQtQtQtQtQtQtQtQtQtQtQt",
"QtQtQtQtQtQtQt.b.eQtQtQtQtQtQtQtQtQtQtQtQtQtQtQtQt.h.l.m.s.TcQc9.m.7.s.m.r.gQtQtQtQt.b.#QtQtQtQtQtQtQtQtQtQtQtQtQtQtQtQtQtQtQtQt",
"QtQtQtQtQtQtQt.b.eQtQtQtQtQtQtQtQtQtQtQtQtQtQtQtQt.g.q.m.s.Td.cc.y.7.t.mcs.gQtQtQtQt.b.#QtQtQtQtQtQtQtQtQtQtQtQtQtQtQtQtQtQtQtQt",
".#.#.#.#.#.#.#.f.a.#.#.#.#.#.#.#.#.#.#.#.#.#.#.#.#.d.z.m.sc1d#a1.m.7.t.mcl.b.#.#.#.#.f.a.#.#.#.#.#.#.#.#.#.#.#.#.#.#.#.#.#.#.#.#",
".f.b.b.b.b.b.b.b.b.b.b.b.b.b.b.b.b.b.b.b.b.b.b.b.b.Ada.m.s.Tdbch.y.7.t.mclQt.b.b.b.b.b.b.b.b.b.b.b.b.b.b.b.b.b.b.b.b.b.b.b.b.b.b",
".#QtQtQtQtQtQtQtQtQtQtQtQtQtQtQtQtQtQtQtQtQtQtQtQt.h.V.m.s.T.I.K.y.7.m.m.r.gQtQtQtQtQtQtQtQtQtQtQtQtQtQtQtQtQtQtQtQtQtQtQtQtQtQt",
".#QtQtQtQtQtQtQtQtQtQtQtQtQtQtQtQtQtQtQtQtQtQtQtQtQt#j.m.m.jc1.m.y.m.m.7.aQtQtQtQtQtQtQtQtQtQtQtQtQtQtQtQtQtQtQtQtQtQtQtQtQtQtQt",
".#QtQtQtQtQtQtQtQtQtQtQtQtQtQtQtQtQtQtQtQtQtQtQtQtQtQtcs.s.m.m.m.m.m.iQt.fQtQtQtQtQtQtQtQtQtQtQtQtQtQtQtQtQtQtQtQtQtQtQtQtQtQtQt",
".#QtQtQtQtQtQtQtQtQtQtQtQtQtQtQtQtQtQtQtQtQtQtQtQtQtQt.g.bdc.m.m.mbs.g.b.aQtQtQtQtQtQtQtQtQtQtQtQtQtQtQtQtQtQtQtQtQtQtQtQtQtQtQt",
".#QtQtQtQtQtQtQtQtQtQtQtQtQtQtQtQtQtQtQtQtQtQtQtQtQtQtQtQt.g.q.7cs.gQt.d.aQtQtQtQtQtQtQtQtQtQtQtQtQtQtQtQtQtQtQtQtQtQtQtQtQtQtQt",
".c.a.a.a.a.a.a.a.a.a.a.a.a.a.c.a.a.a.a.a.a.a.a.a.a.a.a.a.a.a.f.d.#.a.a.c.c.#.#.#.#.#.#.#.#.#.#.#.#.#.#.#.#.#.#.#.#.#.#.#.#.#.#.#",
"QtQtQtQtQtQtQtQtQtQtQtQtQt.b.#QtQtQtQtQtQtQtQtQtQtQtQtQtQtQtQtQtQtQtQtQtQtQtQtQtQtQtQtQtQtQtQtQtQtQt.b.c.IQtQtQtQtQtQtQtQtQtQtQt",
"QtQtQtQtQtQtQtQtQtQtQtQtQtQt.#QtQtQtQtQtQtQtQtQtQtQtQtQtQtQtQtQtQtQtQtQtQtQtQtQtQtQtQtQtQtQtQtQtQtQtQt.aQtQtQtQtQtQtQtQtQtQtQtQt",
"QtQtQtQtQtQtQtQtQtQtQtQtQtQt.#QtQtQtQtQtQtQtQtQtQtQtQtQtQtQtQtQtQtQtQtQtQtQtQtQtQtQtQtQtQtQtQtQtQtQtQt.aQtQtQtQtQtQtQtQtQtQtQtQt",
"QtQtQtQtQtQtQtQtQtQtQtQtQtQt.#QtQtQtQtQtQtQtQtQtQtQtQtQtQtQtQtQtQtQtQtQtQtQtQtQtQtQtQtQtQtQtQtQtQtQtQt.aQtQtQtQtQtQtQtQtQtQtQtQt",
"QtQtQtQtQtQtQtQtQtQtQtQtQtQt.#QtQtQtQtQtQtQtQtQtQtQtQtQtQtQtQtQtQtQtQtQtQtQtQtQtQtQtQtQtQtQtQtQtQtQtQt.aQtQtQtQtQtQtQtQtQtQtQtQt"};
