/* XPM */
static char *dummy[]={
"64 64 389 2",
".s c #000000",
".7 c #002100",
".L c #002a16",
"#m c #153013",
".t c #161519",
"au c #1a452b",
".H c #1c1500",
"ct c #20451f",
".E c #213723",
".m c #222126",
"a2 c #255532",
".W c #272117",
"#6 c #294a2a",
"bz c #2a3c2d",
".I c #2b0002",
"#8 c #2e3c21",
".z c #2f2925",
"ae c #305830",
"cj c #314135",
"#l c #322915",
"aQ c #33001a",
"#w c #344d29",
"bU c #35312f",
"bv c #35412c",
"cw c #360000",
"bn c #366436",
"#Q c #375b38",
".D c #383023",
"#P c #384120",
"am c #391527",
".M c #3a5132",
"#x c #3a5b2f",
"#t c #3b3737",
".l c #3b4534",
"cH c #3c1518",
"#c c #3c673d",
"a9 c #3d452b",
"aK c #3d5128",
"#N c #3e2130",
".r c #3e362e",
".S c #3f5e37",
"#C c #3f6735",
"aD c #403622",
"bl c #404a3c",
".3 c #412126",
"a7 c #417141",
"bJ c #424933",
"#Y c #425531",
"dM c #432016",
".f c #433c36",
"dG c #44001b",
"bc c #445840",
".0 c #44693c",
"dS c #453c2c",
"bw c #45492a",
"cJ c #454e42",
".4 c #46292f",
"#k c #466136",
"#2 c #474d3b",
".8 c #475839",
"aH c #486c42",
"#O c #487341",
"ck c #494d32",
"#e c #495830",
"a4 c #495b46",
"bu c #496444",
"cv c #4a0019",
"#v c #4a3037",
"cG c #4a4135",
"#5 c #4a6c3b",
"ay c #4b643d",
"cu c #4c412b",
"#d c #4c7646",
"bi c #4d513a",
"#X c #4d5b38",
"#s c #4d5e4b",
"bq c #4d674a",
"#0 c #4e373e",
".6 c #4e453c",
"aj c #4e6f42",
"#G c #4e7640",
"ax c #4f5e45",
"b7 c #501417",
"as c #503736",
"aG c #505547",
".T c #507e4a",
"az c #515541",
"ba c #515e3f",
".9 c #51673d",
"b1 c #516a4f",
"ao c #523c44",
"ce c #524a42",
"b0 c #527147",
".1 c #527846",
"br c #535e37",
"aw c #53614b",
"aV c #536a49",
"cs c #53864e",
"dU c #542025",
"dR c #543c3d",
"ad c #54493b",
"bC c #547141",
"aX c #555846",
"#M c #556c54",
"ai c #558049",
"dQ c #562014",
"#H c #567a4b",
"ca c #574d42",
".U c #577a45",
"an c #584143",
"#i c #586c48",
".2 c #587347",
"dN c #5a2923",
"aC c #5a5b46",
"aa c #5a6f53",
"b9 c #5b0018",
"bp c #5b4549",
"aJ c #5b6f4e",
"aP c #5b764c",
".N c #5b7c4a",
"bM c #5c643d",
"cY c #5d4543",
"bX c #5d7856",
"cX c #5e3022",
"dw c #5e363e",
"d3 c #5e453c",
"#9 c #5e4a4e",
".Z c #5e554d",
"ak c #5e844e",
"dP c #5f1425",
"#S c #5f6743",
"b3 c #601315",
"cZ c #603c4a",
"#W c #604a48",
"b2 c #60784b",
"ar c #607a5a",
"bk c #607e4a",
"d7 c #614942",
"bN c #615851",
"bV c #615e3e",
"#q c #617845",
"bP c #626949",
"bS c #627147",
"dO c #632024",
"aR c #634e4d",
"aA c #63584c",
"aU c #63804f",
"a1 c #63885c",
".b c #644d48",
"bW c #648049",
"aF c #648857",
".g c #654149",
"e# c #66292e",
"ec c #665152",
".y c #665b51",
"aS c #666c48",
".n c #67514d",
"cF c #675b4b",
"#n c #67824e",
"dA c #682923",
"bx c #68454e",
".A c #686c42",
"dL c #690017",
".h c #694549",
"#o c #695557",
"al c #69764c",
".d c #6a4a53",
"bF c #6a7e54",
"bj c #6a8761",
"bo c #6a8a52",
"eb c #6b302d",
"bO c #6b7157",
"ab c #6b844e",
"cI c #6c1325",
".# c #6c4a4e",
"#3 c #6c7e4f",
".u c #6d4948",
"#. c #6d4e58",
"bg c #6d5856",
"aB c #6d6155",
"#I c #6d784b",
"cb c #6d8365",
"ah c #6e8361",
"#y c #6e8652",
".c c #6f4d53",
"at c #6f6459",
"aO c #6f7357",
".i c #704d4d",
"bb c #709063",
"Qt c #715157",
"a# c #718258",
"cW c #724d41",
".e c #725152",
"aT c #728852",
"dx c #73282d",
"b. c #735e5a",
".R c #736759",
"aq c #73824e",
"cd c #740025",
"dz c #74454e",
"#u c #74555b",
"bY c #747c4f",
".v c #754a58",
".a c #755557",
"dX c #762f2c",
".X c #764953",
"be c #766a5d",
"ag c #767e54",
".F c #768453",
"b6 c #768e6b",
"b4 c #776159",
"bH c #777157",
"cm c #781324",
"cE c #786c61",
"aL c #788864",
"a8 c #788c56",
"#F c #794d57",
"#T c #79645e",
"c# c #796c5c",
"av c #798652",
"#g c #7a5b5f",
"bT c #7a8054",
".V c #7a8e5a",
"cc c #7b1f22",
"dH c #7b515b",
"## c #7c5e63",
"af c #7c8857",
".O c #7c8e55",
"d1 c #7d282d",
"#j c #7d555f",
"ap c #7d5e5e",
"bt c #7d6f5c",
"#z c #7d8253",
"bI c #7d8852",
"#p c #7e7164",
"#D c #7e905a",
"cl c #7f0025",
"di c #7f5e55",
"ac c #7f8457",
"#K c #7f8a56",
"dI c #802f35",
"cR c #807368",
"#4 c #80936a",
"ea c #81132f",
"d8 c #812f2c",
"#b c #816466",
"aI c #818c5a",
"a3 c #819159",
"#V c #819570",
"b8 c #821223",
"aZ c #826462",
"aY c #828c55",
"#E c #82956d",
"dT c #833634",
"a6 c #837667",
"bR c #838657",
"b5 c #83935d",
"dF c #841f2d",
".P c #848e5a",
"bB c #849358",
"dp c #853b3b",
"a. c #85786b",
"dC c #863b33",
"dV c #867867",
"#R c #86955d",
"dK c #87282c",
"bZ c #877a6e",
"cS c #87816d",
".G c #878f59",
"#U c #87905e",
".5 c #886965",
"bD c #887a6a",
"bm c #888169",
"#Z c #889661",
"dE c #892f35",
".o c #896c6c",
"bf c #89965c",
"#L c #899868",
"ci c #8a7c6d",
"#f c #8a915d",
"dB c #8c3534",
"d5 c #8c6f6c",
"bG c #8c766b",
"#7 c #8c935d",
"dh c #8d1e2d",
"bK c #8d7e6d",
"dY c #8e3b3b",
"#A c #8e716f",
"dv c #8f2835",
"dD c #8f3b33",
".K c #8f8170",
"#r c #8f9b67",
"de c #91403a",
"df c #922f34",
"by c #928370",
"c. c #936957",
"dn c #94353b",
"bL c #948573",
"do c #953533",
"#1 c #957e70",
"dg c #973b3b",
"cA c #976042",
"bs c #978174",
"c0 c #987866",
"aN c #988876",
"b# c #988879",
"dJ c #992f3c",
"dm c #99403a",
".j c #998377",
"a0 c #9a8a79",
"dj c #9b503e",
"cV c #9b7c6d",
"bE c #9b977d",
"d0 c #9c353b",
"dq c #9c4439",
"d4 c #9c877c",
"dl c #9d483f",
"cp c #9d694c",
"cK c #9d7c65",
"aW c #9d987c",
"dy c #9e3a3a",
".Y c #9e8177",
"bA c #9e8e7b",
"du c #9f4c45",
"d9 c #9f837d",
"bQ c #9f887c",
"dW c #a03f41",
"dr c #a04c3f",
"bh c #a0907e",
"dd c #a1504b",
"#a c #a1857c",
"cg c #a45d42",
"aM c #a49380",
".w c #a5887f",
".Q c #a69084",
"dZ c #a69c87",
"dc c #a7665c",
"cM c #a76b4b",
"bd c #a79785",
"ds c #a85a49",
"cB c #a8806c",
".q c #a89283",
"cn c #a9886e",
"dk c #aa5d48",
"co c #aa6646",
"cx c #aa826b",
"cT c #aa9885",
"a5 c #ab9a88",
"dt c #ac6047",
"cy c #ac6846",
"aE c #ac9586",
"#B c #ac9a85",
"cQ c #ad9c87",
"cz c #ae6b4b",
"cf c #ae957d",
"c1 c #af6e50",
".J c #af988b",
"e. c #afa38e",
"cL c #b06e4a",
".B c #b09888",
"cr c #b09f8c",
"#J c #b19a8a",
".C c #b2a08c",
".k c #b39c8a",
"cD c #b3a690",
"d2 c #b4a28e",
"cN c #b5866a",
"cq c #b5a28c",
"c2 c #b67758",
"ch c #b9a089",
"db c #bb7a70",
"cU c #bfa690",
"c3 c #c1866a",
"#h c #c1a997",
"c5 c #c29887",
"c4 c #c3967c",
".x c #c3ab97",
"da c #c49382",
".p c #c5ac99",
"cP c #c6ac94",
"d6 c #c6b39f",
"d# c #c79d8c",
"cO c #c8a88a",
"c9 c #c9a590",
"c6 c #c9a592",
"c7 c #c9ab96",
"c8 c #caab94",
"cC c #cab69e",
"d. c #cca393",
"QtQtQtQtQtQtQtQtQtQtQtQtQtQt.#QtQtQtQtQtQtQtQtQtQtQtQtQtQtQtQtQtQtQtQtQtQtQtQtQtQtQtQtQtQtQt.aQtQtQtQt.bQtQtQtQtQtQtQtQtQtQtQtQt",
".c.c.c.c.c.c.c.c.c.c.c.c.c.c.#.c.c.c.c.c.c.c.c.c.c.c.c.c.c.c.c.c.c.c.c.c.c.c.c.c.c.c.c.c.d.e.f.gQt.c.c.h.c.c.c.c.c.c.c.c.c.c.c.c",
".i.i.i.i.i.i.i.i.i.i.i.i.i.i.i.c.#.#.c.c.c.c.c.c.c.c.c.c.c.c.c.c.c.c.c.c.c.c.c.c.c.c.#Qt.j.k.l.mQt.c.c.c.c.c.c.c.b.n.i.i.i.i.i.i",
"QtQtQtQtQtQtQtQtQtQtQtQtQtQtQtQt.n.nQtQtQtQtQtQtQtQtQtQtQtQtQtQtQtQtQtQtQtQtQtQtQt.c.o.p.q.r.s.t.aQtQtQtQtQtQtQt.uQtQtQtQtQtQtQt",
"QtQtQtQtQtQtQtQtQtQtQtQtQtQtQtQt.n.nQtQtQtQtQtQtQtQtQtQtQtQtQtQtQtQtQtQtQtQtQt.vQt.w.x.y.z.A.t.tQtQtQtQtQtQtQtQt.uQtQtQtQtQtQtQt",
"QtQtQtQtQtQtQtQtQtQtQtQtQtQtQtQt.n.nQtQtQtQtQtQtQtQtQtQtQtQtQtQtQtQtQtQtQtQt.vQt.B.C.D.E.F.G.H.IQtQtQtQtQtQtQtQt.uQtQtQtQtQtQtQt",
"QtQtQtQtQtQtQtQtQtQtQtQtQtQtQtQt.n.nQtQtQtQtQtQtQtQtQtQtQtQtQtQtQtQtQtQtQtQtQt.J.K.L.M.N.O.P.t.tQtQtQtQtQtQtQtQt.uQtQtQtQtQtQtQt",
"QtQtQtQtQtQtQtQtQtQtQtQtQtQtQtQt.n.nQtQtQtQtQtQtQtQtQtQtQtQtQtQtQtQtQtQtQtQt.Q.R.H.S.T.U.V.G.W.HQtQtQtQtQtQtQtQt.uQtQtQtQtQtQtQt",
".i.i.i.i.i.i.i.i.i.i.i.i.i.i.i.c.#.#.c.i.i.i.i.i.i.X.e.c.i.i.i.i.i.i.i.i.#.Y.Z.H.0.T.1.2.P.P.t.s.#.c.i.i.i.i.i.i.b.n.i.i.i.i.i.i",
".c.c.c.c.c.u.i.c.c.c.c.c.c.c.c.c.c.c.c.c.c.c.c.c.d.3.4.cQt.c.c.c.c.c.c.c.5.6.7.0.T.2.8.9.G.P.t.s.#.e.c.c.c.c.c.c.c.c.c.c.c.c.c.c",
"QtQtQtQtQt.#.cQtQtQtQtQtQtQtQtQtQtQtQtQtQtQt#.###a.z.s.t.c.aQtQtQtQtQt#b.f.s#c.T#d#e.W.2#f.P.t.s#.QtQtQtQtQtQtQtQtQtQtQtQtQtQtQt",
"QtQtQtQtQt.#.cQtQtQtQtQtQtQtQtQtQtQtQtQtQt#.#g#h.R.t#i.s.tQtQtQtQtQt#j.r.s.M.N.2#k#l#m#n.G.P.t.I#oQtQtQtQtQtQtQtQtQtQtQtQtQtQtQt",
"QtQtQtQtQt.#.cQtQtQtQtQtQtQtQtQtQtQtQtQtQt#..J#p.s#q#r#s.s#t#uQtQt#u#v.s.E.T.1#k#w.s#x#y#f#z.s.tQtQtQtQtQtQtQtQtQtQtQtQtQtQtQtQt",
"QtQtQtQtQt.#.cQtQtQtQtQtQtQtQtQtQtQtQtQt.c#A#B.t#C#D.G#E.W.s.d#F#u.g.s.H#G#H.9#e.t.L.1#y#f#I.s.m#uQtQtQtQtQtQtQtQtQtQtQtQtQtQtQt",
".c.c.c.c.c.u.n.c.c.c.c.c.c.c.c.c.c.c.c.c.c#J.f#w.N#K.P#L#M.s#NQtQt.m.s.M.N#O#e#P.s#Q.U.F#R#S.s#NQt.c.c.c.c.c.c.c.c.c.c.c.c.c.c.c",
".c.c.c.c.c.c.c.c.c.c.c.c.c.c.c.c.c.c.c.##T.j.E.U.1#y.G#U#V.t.s.##W.s.t.U.1#X#Y.t.L.U.1#y#Z#e.s#0Qt.n.#.c.c.c.c.c.c.c.c.c.c.c.c.c",
"QtQtQtQtQtQtQtQtQtQtQtQtQtQtQtQtQtQtQt.d#1#2.S#H.1#3.G.P#4.l.s#v.4.s.M.N#5#Y#6.s#x#H.1#y#7#8.s#9#u.c.nQtQtQtQtQtQtQtQtQtQtQtQtQt",
"QtQtQtQtQtQtQtQtQtQtQtQtQtQtQtQtQtQtQt.#a..E.U.1.1.N.P.Ga#aa.s.H.H.H.1.1.S#x.L.t.1.1.1abac.7.tQtQt.c.nQtQtQtQtQtQtQtQtQtQtQtQtQt",
"QtQtQtQtQtQtQtQtQtQtQtQtQtQtQtQtQt#u#F#gadae#H.1.1.1af.Gagah.W.s.s.Eaiaj#Y.M.s#6.T.1.Uakal.samQt.a.e.nQtQtQtQtQtQtQtQtQtQtQtQtQt",
"QtQtQtQtQtQtQtQtQtQtQtQtQtQt.aan.zamaoap.z#O.1.1.1.1#n#faqar.l.s.s#x#H#k#x#8.s.9#H#G.S.E.t.s.s.s.Was.iQtQtQtQtQtQtQtQtQtQtQtQtQt",
".#.#.#.#.#.#.#.#.#.#.#.#.#.#.#at.2.W.s.mauai.1.1.1.1.N.Pavawax.s.saj#G#Y#e.t.L.1ayazaAaBaC#2aD.W.s.sas.i.#.#.#.#.#.#.#.#.#.#.#.#",
"QtQtQtQtQtQtQtQtQtQtQtQtQt.u.aaE#zaFaG.s.LaH.T.1.1.1.1avaI.8aJ.W.s.9.9#YaK.s#6aLaMaNaOaPaf#7.P#l.saQaRQtQtQtQtQtQtQtQtQtQtQtQtQt",
"QtQtQtQtQtQtQtQtQtQtQtQtQt.b#T.qaSaTaFaa.s.s#Q.T.1.1.1aU#f.8aV.D.s#6#k#x#l.taWaEaX.S#d#n#faY#l.samQt.aQtQtQtQtQtQtQtQtQtQtQtQtQt",
"QtQtQtQtQtQtQtQtQtQtQtQtQt.baZa0#S.G.Ua1#M.s.sa2.T.1.1.Ua3.8a4#6.s.W.SaK.za5a6#w#O#Ha7a8#7a9.s.mQtQtQtQtQtQtQtQtQtQtQtQtQtQtQtQt",
"QtQtQtQtQtQtQtQtQtQtQtQtQt.#b.b#ba#Rab#Gbb#2.s.s#w.T.1.1aT#Xbc#Y.s.s.M.Mbdbe.E.Uay.E#5bf#S.s.tQt#FQtQtQtQtQtQtQtQtQtQtQtQtQtQtQt",
"QtQtQtQtQtQtQtQtQtQtQtQtQt.#bgbhbi#fav.1.1bj.z.s.s#x.T.1bk#Xbl#x.t.s#Pbm#p#l#kbn.t#Ybo.P.L.sbp#uQtQtQtQtQtQtQtQtQtQtQtQtQtQtQtQt",
".#.#.#.#.#.#.#.#.#.#.#.#.#.##Wa0aCa3.V.U.1aPbq.E.s.s.9#H.U#k.l#x.z.s.DaA.W#Y.8.H.M.T.Vbr.s.3.i.#.#.#.#.#.#.#.#.#.#.#.#.#.#.#.#.#",
"QtQtQtQtQtQt.v.#QtQtQtQtQtQt.dbsbtav.Gbk.1.1bubv#m.s.L.1.U.0bv#Ybw.H.7.s.s.H.t#m.T.U#q.t.sbxQtQtQtQtQtQtQtQtQtQtQtQtQtQtQtQtQtQt",
"QtQtQtQtQtQtQt.#QtQtQtQtQtQt.cb.byal#f#y.1#Hbnbzbv.t.s#w.N#5bv#Y.M.W.faA.t.s.s#5.1aya9.saQ#uQtQtQtQtQtQtQtQtQtQtQtQtQtQtQtQtQtQt",
"QtQtQtQtQtQtQt.#QtQtQtQtQtQtQtbpbAaSbB#K.1.1.1.D#ma9.s.t.1bC#P#6.WbDbEbF.M.s#m.U#X#x.E.s#v#uQtQtQtQtQtQtQtQtQtQtQtQtQtQtQtQtQtQt",
"QtQtQtQtQtQtQt.#QtQtQtQtQtQtQt.gbGbHbI.Gbk.1.TbJ.Ha9#m.s#kbC#8.tbKaO#k.N#I.s#m.0#Y#x.t.saR#uQtQtQtQtQtQtQtQtQtQtQtQtQtQtQtQtQtQt",
"QtQtQtQtQtQt.v.#QtQtQtQtQtQtQt.c.nbLbM#RaT.1.Uaj.s.W#w.s#8ay.WbNbOaK.SbPaq.s.H#x#Ybw.s.sao#9Qt.a.aQtQtQtQtQtQtQtQtQtQtQtQtQtQtQt",
".#.#.#.#.#.#.#.#.#.#.#.#.#.#.n.c#WbQazbRaI.U.1#H#m.sbw.s.H#Y#8.Z#P.S#2bSbT.s.H#x#ebv.s.s.s.s.t.Was.c.n.#.#.#.#.#.#.#.#.#.#.#.#.u",
".cQtQtQtQtQtQtQtQtQtQtQtQt#F#ubxbUanbDbV#7bW.1.Ta2.sa9.t.sa9.l.tbwbX.z#3bY.s.t#x#e.E.s.s.s.s.I.s.sbU.aQtQtQtQtQtQtQtQtQtQtQtQt.#",
".cQtQtQtQtQtQtQtQtQtQtQt.aaR.m.s.s.sbZbvava8.1.Uay.s.E#m.s#8.t.sb0b1.Eabb2.s.t#e#e.W.s.s.s.sb3b3.s.sbp.aQtQtQtQtQtQtQtQtQtQtQt.#",
".cQtQtQtQtQtQtQtQtQtQtQtaR.W.t.s.s.s.zb4aDb5.N.1#d.7.W.E.s.E.s.tb6bU#C.U.S.s.W#e.M.s.s.s.s.sb7b8b9.s.z#uQtQtQtQtQtQtQtQtQtQtQt.#",
".cQtQtQtQtQtQtQtQtQtQt#F#va6c.c#.s.s.sca.z#Ybk.1.U.L.H.E.s#l.s#mcb.W#k.S#l.s.E#X.E.s.s.s.s.sb3cccd.s.H#.QtQtQtQtQtQtQtQtQtQtQt.#",
".cQtQtQtQtQtQtQtQtQtQt.dcecfcgchci.s.s.sbU.Hay#H#H.W.s.E.s.E.scj#s#m#eck.s.sbwa9.s.s.s.s.saQclcmcl.H.saRQtQtQtQtQtQtQtQtQtQtQt.#",
".#.#.#.#.#.#.#.#.#.#.ian.Zcncocpcqcrca.s.s.s.HbCcs#8.s#l.sbv.sbz.Ectbw.t.s#lcu.t.W.z.H.scvcmcmcmcccw.san.i.#.#.#.#.#.#.#.#.#.#.u",
"QtQtQtQtQtQtQtQtQtQt#Fan.ZcxcyczcAcBcCcDcE.z.s.L.E#m.s.s.s#m.7.s.s.W.s.t.DcFa6cEcGaQcHcIcccmcmcmccaQ.s.g#FQtQtQtQtQtQtQtQtQtQtQt",
"QtQtQtQtQtQtQtQtQtQt.aancJcKcyczcLcocMcNcOcPcQat.r.DbU.r#t.fca.ycRcScT.xcUcVcWcXb3cmcccmcmcmcmcmcccw.scY.aQtQtQtQtQtQtQtQtQtQtQt",
"QtQtQtQtQtQtQtQtQtQt.acZbzc0cyczczczczcycyc1c2c3c4c5c6c7c8c9d.d#dadbdcdddedfdgdhcmcmcmcmcmcmcmcmcc.H.san.aQtQtQtQtQtQtQtQtQtQtQt",
"QtQtQtQtQtQtQtQtQtQtQt.d.WdidjczczcLczczczczczdkdldgdgdmdmdgdgdndododndgdgdgdgcccmcmcmcmcmcmcmcmcc.H.s.h#FQtQtQtQtQtQtQtQtQtQtQt",
"QtQtQtQtQtQtQtQtQtQtQt#u.W.fdpdqdrdsdtcodtdsdudgdgdgdgdgdgdgdgdgdgdgdgdgdgdmdvcmcmcmcmcmcmcmcmclcI.s.s.nQtQtQtQtQtQtQtQtQtQtQtQt",
".c.c.c.c.c.c.c.c.c.c.c.Xdw.tdxdydgdgdgdmdgdgdgdgdgdgdgdgdgdgdgdgdgdgdgdgdmdncccmcmcmcmcmcmcmccb3.s.s.Wdz.c.c.c.c.c.c.c.c.c.c.c.c",
".u.u.u.u.u.u.u.b.b.#.#.#.cas.sdAdydmdgdgdgdgdgdgdgdgdgdgdgdgdgdgdgdgdgdmdBcccmcmcmcmcmclcccdcH.s.s.3.#.#.u.u.u.u.u.u.u.u.u.u.u.u",
"QtQtQtQtQtQtQt.c.nQtQtQtQt#u.m.scHdCdydydmdmdgdgdgdgdgdgdgdgdmdgdedDdEdFcmcmcmclcccccmb3dG.s.s.s.rdHQtQtQtQtQtQtQtQtQtQtQtQtQtQt",
"QtQtQtQtQtQtQt.c.nQtQtQtQtQt.e.W.s.scHdAdIdndmdydydydydydJdBdKdFb8ccclclclcmcddLb7cw.s.s.s.s.H.s.f#uQtQtQtQtQtQtQtQtQtQtQtQtQtQt",
"QtQtQtQtQtQtQt.c.nQtQtQtQtQt#u.f.s.W.s.s.s.s.tdMdNdNdOdPdQb9b9b9b7cvcvaQcw.I.s.s.s.s.s.Hb7cmcH.sdR#uQtQtQtQtQtQtQtQtQtQtQtQtQtQt",
"QtQtQtQtQtQtQt.c.nQtQtQtQtQtQt#WdSdTdIdU.W.I.s.s.s.s.s.s.s.s.s.s.s.s.s.s.s.s.HcHcvb9cdclcccc.H.sbp.aQtQtQtQtQtQtQtQtQtQtQtQtQtQt",
"QtQtQtQtQtQtQt.c.nQtQtQtQtQtQtbgdVdAdWdydydndTdTdXdNdUcvcHcvcHb7dQdNdAdxdTdYdgdvclcccmcmcmcl.H.s.d.aQtQtQtQtQtQtQtQtQtQtQtQtQtQt",
".#.#.#.#.#.#.#.u.b.#.#.#.#.#.#.ndZdNd0dgdgdmdmdmdmdydydydydmdydydydydydydmdmdmd1cmcmcmcmcmcd.s.H.#.i.#.#.#.#.#.#.#.#.#.#.#.#.#.#",
".u.c.c.c.c.c.c.c.c.c.c.c.c.c.c.#d2d3dDdgdgdgdgdgdgdgdgdgdgdgdgdgdgdgdgdgdgdgdnclcmcmcmcmccb3.s.WQt.c.c.c.c.c.c.c.c.c.c.c.c.c.c.c",
".#QtQtQtQtQtQtQtQtQtQtQtQtQtQt.cd4c#dXdmdgdgdgdgdgdgdgdgdgdgdgdgdgdgdgdgdgdmdvcmcmcmcmcmcccH.s.4#uQtQtQtQtQtQtQtQtQtQtQtQtQtQtQt",
".#QtQtQtQtQtQtQtQtQtQtQtQtQtQt.cd5cDdUdmdgdgdgdgdgdgdgdgdgdgdgdgdgdgdgdgdgdmd1cmcmcmcmcmcm.I.sbp.aQtQtQtQtQtQtQtQtQtQtQtQtQtQtQt",
".#QtQtQtQtQtQtQtQtQtQtQtQtQtQtQt#ud6d7d8dmdgdgdgdgdgdgdgdgdgdgdgdgdgdgdgdgdEcmcmcmcmcmccb3.s.t.aQtQtQtQtQtQtQtQtQtQtQtQtQtQtQtQt",
".#QtQtQtQtQtQtQtQtQtQtQtQtQtQtQt.cd9e..3d0dgdgdgdgdgdgdgdgdgdgdgdgdgdgdgdBcmcmcmcmcmcmcc.H.s#0#uQtQtQtQtQtQtQtQtQtQtQtQtQtQtQtQt",
".#QtQtQtQtQtQtQtQtQtQtQtQtQtQtQtQtQtaEcie#dydmdgdgdgdgdgdgdgdgdgdgdgdgdgcccmcmcmcmcmccdM.s.tQtQtQtQtQtQtQtQtQtQtQtQtQtQtQtQtQtQt",
".h.b.b.b.b.b.b.b.b.b.b.b.b.b.h.b.b.hdwaB.ZdUdDdydmdgdgdgdgdgdgdgdgdmdfeacmcmcmcmcmccb7.s.sdR.i.#.#.#.#.#.#.#.#.#.#.#.#.#.#.#.#.#",
"QtQtQtQtQtQtQtQtQtQtQtQtQt.c.#QtQtQtQt#v.I.s.sdMdCdmdydydydydydydmdEcccmclcccccccdcH.s.sdR.aQtQtQtQt.c.h.eQtQtQtQtQtQtQtQtQtQtQt",
"QtQtQtQtQtQtQtQtQtQtQtQtQtQt.#QtQtQtQt#u#9.z.s.s.s.HcHdUdOdOebdxcIb3b3b3b3b7cvcw.s.s.Han#uQtQtQtQtQtQt.bQtQtQtQtQtQtQtQtQtQtQtQt",
"QtQtQtQtQtQtQtQtQtQtQtQtQtQt.#QtQtQtQtQt.a#u.cbx.4.t.s.s.s.s.s.s.s.s.s.s.s.s.s.s.H.4ec#uQtQtQtQtQtQtQt.bQtQtQtQtQtQtQtQtQtQtQtQt",
"QtQtQtQtQtQtQtQtQtQtQtQtQtQt.#QtQtQtQtQtQtQtQt#F#uQtaRan#0.rbU#N#N#Nam.z.z#N#vbp#o#uQtQtQtQtQtQtQtQtQt.bQtQtQtQtQtQtQtQtQtQtQtQt",
"QtQtQtQtQtQtQtQtQtQtQtQtQtQt.#QtQtQtQtQtQtQtQtQtQtQtQt.a#u#u#u#u#u#u#u#u#u#u#u.aQtQtQtQtQtQtQtQtQtQtQt.bQtQtQtQtQtQtQtQtQtQtQtQt"};
