/* XPM */
static char *dummy[]={
"64 64 435 2",
".r c #000000",
"cs c #002100",
".K c #161519",
".D c #1c1500",
".S c #222126",
"aF c #263c36",
".q c #272117",
"b8 c #2b0002",
"a2 c #2b2a30",
"au c #2e413d",
".R c #2f2925",
"#W c #322915",
"aG c #323138",
".s c #33001a",
".V c #35312f",
"dX c #354644",
"dD c #360000",
".C c #383023",
".T c #391527",
".A c #3b3012",
"aY c #3b3737",
"ai c #3c1518",
".U c #3e2130",
"ay c #3e362e",
"#G c #403622",
".W c #412126",
"ah c #413c3e",
".6 c #432016",
"#h c #433c36",
"e# c #434e48",
"av c #454144",
".E c #46292f",
"#s c #473c20",
"#6 c #482924",
"eO c #48413d",
"c. c #4a2913",
".G c #4a3037",
"aL c #4a4649",
"eM c #4b5141",
".B c #4c412b",
"cn c #4c4543",
"d6 c #4c5552",
"dA c #4e1526",
"am c #4e3023",
".H c #4e373e",
".y c #4e453c",
"dz c #501417",
".F c #503736",
"#i c #504534",
"dM c #504a49",
"di c #505547",
"dW c #523c44",
".L c #52452a",
"aa c #524a42",
"co c #542025",
".4 c #543621",
".J c #543c3d",
"ef c #54493b",
"aw c #555c56",
"er c #562014",
"cw c #573c2c",
"eq c #574d42",
"dH c #575153",
".I c #584143",
"#S c #593b20",
"aA c #59514d",
"em c #595f5b",
"bT c #5a2923",
".z c #5a5b46",
"aS c #5b4549",
".7 c #5b4d32",
"cD c #5b5147",
"ee c #5b5557",
"eK c #5c5e51",
"bQ c #5c625f",
"eJ c #5d302e",
"dE c #5d3745",
"bW c #5d4543",
".5 c #5e3022",
"bn c #5e4a4e",
"aq c #5e5139",
"ar c #5e585b",
"eS c #603c4a",
"a1 c #606462",
"#A c #61362c",
"bw c #615c5f",
"cu c #623c44",
"eT c #632024",
"dV c #633620",
".j c #634e4d",
"a8 c #63584c",
"dL c #635c5b",
".a c #644d48",
"cc c #645f63",
"eL c #653b35",
".x c #654149",
"eU c #66292e",
"#N c #663b2b",
"dg c #664143",
"#3 c #665152",
"eI c #665b51",
".g c #67514d",
"#l c #675838",
"bM c #676267",
"eg c #682923",
".k c #68454e",
"eN c #694034",
".c c #694549",
".i c #695557",
"aW c #696263",
"b1 c #696d6d",
"#e c #6a402a",
".f c #6a4a53",
"eH c #6a5e50",
"aQ c #6b302d",
"ca c #6b5139",
"el c #6b6466",
"by c #6b6f70",
"eQ c #6c453b",
".# c #6c4a4e",
".n c #6d4948",
".h c #6d4e58",
"a. c #6e5e3e",
"ea c #6e7273",
"#y c #6f362c",
".b c #6f4d53",
".8 c #6f5e36",
"at c #6f7170",
".d c #704d4d",
"eP c #713b34",
"Qt c #715157",
"cq c #716454",
"#d c #723b2b",
".e c #725152",
"dx c #736759",
"ec c #737679",
".v c #74555b",
"#f c #754033",
"dh c #754a58",
".w c #755557",
".u c #755e55",
"#Q c #75643c",
"cA c #762f2c",
"dy c #764953",
"aX c #766f73",
"eR c #77453b",
"eV c #77585b",
"#K c #776958",
"#g c #784532",
"aE c #787276",
"b9 c #793635",
".X c #794d57",
"ba c #797b7c",
"eW c #7b515b",
"dj c #7b6f60",
"bl c #7c3b34",
"#c c #7c4931",
".m c #7d5e5e",
"bY c #7d6f5c",
"dw c #7d7867",
"ek c #7d7d7b",
"ap c #7e6c47",
"a6 c #7f4033",
"#m c #7f6c41",
"eG c #7f7f7e",
"cT c #805b3e",
"ao c #806e4d",
"aZ c #808184",
"aR c #82453a",
"bp c #826953",
"#7 c #826e40",
"dv c #827c6a",
"cm c #82817e",
"bL c #828386",
"a4 c #828985",
"a5 c #833634",
"#Z c #834432",
"bh c #848589",
"dC c #853b3b",
"#u c #854939",
"cp c #85786b",
"dB c #863b33",
"cS c #87573e",
"cB c #88403b",
"#b c #884d38",
"eb c #888788",
"cU c #8a5b3d",
"#o c #8a7544",
"aK c #8a898b",
"bm c #8b443a",
"#M c #8b5038",
"cd c #8b8988",
"bE c #8c5e43",
"ax c #8c817a",
"dN c #8c8386",
"dY c #8c9292",
"bV c #8d543e",
".3 c #8d7744",
"d2 c #8d8d90",
"cP c #8e4939",
"a# c #8e5437",
"bi c #8e8d8d",
".l c #8f716b",
"ej c #8f9491",
"bU c #904d40",
"#a c #90573e",
"aU c #906e56",
"du c #908876",
"bz c #908f8f",
"ct c #914d38",
"cv c #918373",
"d3 c #919094",
"cE c #925b44",
"#F c #927e58",
"dZ c #929092",
"#1 c #93503f",
"df c #935e49",
"cV c #936648",
".t c #93826c",
"dK c #938988",
"dO c #93908f",
"dJ c #948b8d",
"az c #95543e",
".Q c #957e48",
"bf c #959998",
"de c #966149",
"ag c #96825c",
"dk c #968776",
"dF c #979494",
"cQ c #984c3f",
"#t c #98573d",
"#4 c #988876",
"be c #989698",
"b7 c #989a98",
"bx c #989c9c",
"cr c #996348",
"## c #99824d",
"aM c #999696",
"bB c #999c9a",
"#2 c #9a5a43",
"dI c #9a9091",
"#J c #9b5a3c",
"bC c #9c5444",
"#V c #9c5d43",
"bX c #9c8c7b",
"d5 c #9c9fa0",
"cC c #9d543e",
"dl c #9d9380",
"bu c #9d9b9f",
"aT c #9e9583",
"a3 c #9ea1a2",
"a7 c #9f5744",
"cW c #9f6b51",
"dG c #9f9598",
"bv c #9fa3a4",
"dd c #a0634d",
"bo c #a0907e",
"d1 c #a0a2a2",
"#H c #a15a43",
"dn c #a19783",
"d0 c #a19ea0",
"b. c #a2664d",
"dp c #a29885",
"bt c #a2a4a4",
"dm c #a39383",
"c# c #a39882",
"bc c #a39fa2",
"bG c #a3a5a6",
"cR c #a45444",
"#v c #a45d42",
"an c #a48656",
".o c #a48679",
"ad c #a48c54",
"#0 c #a56048",
"#I c #a65743",
"dc c #a66b51",
"#X c #a68d54",
"do c #a69583",
"aH c #a6a2a6",
"dS c #a6a9ac",
"#z c #a77e60",
"aj c #a79785",
"d4 c #a7a8aa",
"#w c #a85a49",
".p c #a8907b",
"aJ c #a8aaac",
"#k c #a95a42",
"cx c #a9664c",
"#r c #a99161",
"ds c #a99888",
"#R c #aa5d48",
"#U c #aa6646",
"bD c #aa9885",
"dr c #aa9f8a",
"dU c #aaabab",
"dQ c #aaabad",
"bZ c #ab7050",
"db c #ab7359",
"cX c #ab7a5d",
"a9 c #ab9380",
"dt c #ab9a88",
"#x c #ac6047",
"aD c #ac694c",
"cz c #ad6b51",
"cl c #ada7a3",
"as c #adaeaf",
"cy c #ae634d",
"br c #ae6b4b",
"dq c #ae9d8c",
"al c #af6e50",
"dR c #afb0b1",
"#j c #b06e4a",
"dT c #b0b0af",
"bd c #b0b1b3",
"aC c #b17050",
"da c #b17a5c",
"cO c #b2694b",
"aI c #b2b2b4",
"bg c #b3b4b6",
"ac c #b4724f",
"ak c #b48463",
"#P c #b4995e",
"b# c #b57554",
"aB c #b59b84",
"dP c #b5b5b8",
"eo c #b5babb",
"cN c #b66e50",
"#L c #b67758",
"a0 c #b6b6b9",
"b0 c #b77054",
"bq c #b77753",
"#5 c #b7805f",
"en c #b7b6b7",
"d# c #b88263",
"cY c #b88267",
"ed c #b8b8b9",
"cL c #b97354",
"cK c #b97952",
"cJ c #b97957",
"eh c #b9aba7",
"cM c #ba724f",
"cZ c #ba8467",
"#T c #ba9376",
".9 c #ba995e",
"aV c #bb7553",
"cI c #bb7b57",
"af c #bb9b66",
"d9 c #bbbabc",
"cH c #bc7e56",
"d. c #bc8666",
"bP c #bcbabb",
"#9 c #bd9d65",
"e. c #bdbbbc",
"cG c #be805b",
"c0 c #be8a6d",
"ab c #be9f86",
"#q c #bea368",
"bF c #bf7957",
"cb c #c07b5b",
"c1 c #c0916f",
"bN c #c0bfc3",
"bK c #c0c3c2",
"#n c #c2a663",
"c9 c #c39472",
"c2 c #c48f70",
"c6 c #c49675",
"ck c #c4c0bd",
"cF c #c5825e",
"c7 c #c59173",
"c5 c #c59878",
"c3 c #c69376",
"c8 c #c79372",
"c4 c #c79479",
"ce c #c7c9c8",
"es c #cacbca",
"eF c #cdcdcd",
"bJ c #d0d1d3",
"d7 c #d1d2d2",
"eu c #d1d5d4",
"bO c #d2d3d5",
"et c #d3d3d4",
"#E c #d6b26e",
"cj c #d6d1cf",
"b2 c #d7d6d6",
"eC c #d8d7d6",
"ei c #d9d8d8",
"bA c #d9d8d9",
"ex c #dadedd",
"cf c #dbdadc",
"eE c #dbdddb",
"ae c #ddb973",
".M c #deba73",
"ci c #ded8d7",
"ev c #dedcdd",
"ew c #e1e0df",
"bb c #e1e4e3",
"eD c #e2e5e5",
"cg c #e3e5e3",
"#O c #e4bf75",
"#B c #e4c374",
"d8 c #e4e5e4",
"ch c #e6e4e5",
"#C c #e7c174",
".Y c #e7c178",
".P c #e8c377",
"ez c #e8e9e9",
"aP c #e9e9e8",
"ey c #e9eaeb",
".0 c #eac477",
"#. c #ebc576",
"eB c #ebebea",
".1 c #ecc679",
"bI c #ececec",
"bR c #ededed",
"#D c #eec779",
".N c #efc879",
"bk c #efefef",
"b4 c #f0f0f0",
"#p c #f1c978",
".O c #f2cb7b",
"ep c #f3f3f3",
"#Y c #f4cd7e",
"bH c #f4f4f3",
"aN c #f4f7f6",
"eA c #f5f4f5",
".2 c #f9d17f",
"b6 c #f9f7f5",
"#8 c #fad27f",
"b5 c #fbfaf9",
"bS c #fcfbfa",
"b3 c #fdfbfc",
"bs c #fefcfd",
".Z c #ffd786",
"bj c #fffeff",
"aO c #ffffff",
"QtQtQtQtQtQtQtQtQtQtQtQtQtQt.#QtQtQtQtQtQtQtQtQtQtQtQtQtQtQtQtQtQtQtQtQtQtQtQtQtQtQtQtQtQtQtQtQtQtQtQt.aQtQtQtQtQtQtQtQtQtQtQtQt",
".b.b.b.b.b.b.b.b.b.b.b.b.b.b.#.b.b.b.b.b.b.b.b.b.b.b.b.b.b.b.b.b.b.b.b.b.b.b.b.b.b.b.b.b.b.b.b.b.b.b.b.c.b.b.b.b.b.b.b.b.b.b.b.b",
".d.d.d.d.d.d.d.d.d.d.d.d.d.d.d.b.#.#.b.b.b.b.b.b.b.b.b.e.e.b.f.b.b.b.b.b.b.b.b.b.b.b.b.b.b.b.b.b.b.b.b.b.b.b.b.b.a.g.d.d.d.d.d.d",
"QtQtQtQtQtQtQtQtQtQtQtQtQtQtQtQt.g.gQtQtQtQtQtQtQt.h.i.j.f.k.l.mQtQtQtQtQtQtQtQtQtQtQtQtQtQtQtQtQtQtQtQtQtQtQtQt.nQtQtQtQtQtQtQt",
"QtQtQtQtQtQtQtQtQtQtQtQtQtQtQtQt.g.gQtQtQtQtQtQt.f.o.p.q.r.s.t.uQtQtQtQtQtQtQtQtQtQtQtQtQtQtQtQtQtQtQtQtQtQtQtQt.nQtQtQtQtQtQtQt",
"QtQtQtQtQtQtQtQtQtQtQtQtQtQtQtQt.g.b.v.v.w.v.v.x.y.z.q.A.B.C.D.r.E.v.v.v.v.v.v.v.v.v.v.v.v.v.v.v.v.vQtQtQtQtQtQt.nQtQtQtQtQtQtQt",
"QtQtQtQtQtQtQtQtQtQtQtQtQtQtQtQt.d.F.G.H.I.J.I.q.K.L.M.N.O.P.Q.D.r.E.R.S.T.R.R.E.U.V.V.U.R.R.R.S.S.W.#.XQtQtQtQt.nQtQtQtQtQtQtQt",
"QtQtQtQtQtQtQtQtQtQtQtQtQtQtQt.v.G.r.r.r.r.r.r.r.D.Y.Z.N.0.1.2.3.r.r.r.r.r.r.r.r.r.r.r.r.r.r.r.r.r.r.qQtQtQtQtQt.nQtQtQtQtQtQtQt",
".d.d.d.d.d.d.d.d.d.d.d.d.d.d.b.#.D.r.4.5.6.r.q.D.7.P.8.9.N#..1##.r.s#a#b#c#d#d#e#f#f#d#f#f#f#g#g#f.D.r#h.e.d.d.d.a.g.d.d.d.d.d.d",
".b.b.b.b.b.n.d.b.b.b.b.b.b.bQt.J.r#i#j#k.s.D#l.K#m#n.D#o#p#q#r#s.r.q#t#b#u#v#w#k#k#k#k#k#k#k#k#k#x#y.r.K.b.b.b.b.b.b.b.b.b.b.b.b",
"QtQtQtQtQt.#.bQtQtQtQtQtQtQt.w.K.K#z#v#v#A.r.r.r.A#B#C#D#E#F#G.r.r.r.r.r.r#f#k#H#H#H#H#H#H#H#H#H#I#J.D.r.H.vQtQtQtQtQtQtQtQtQtQt",
"QtQtQtQtQt.#.bQtQtQtQtQtQt.w.x.r#K#L#H#H#v#M#N.K.r#G#n#p#O#P.C.C#Q.B#G.D.r#N#k#H#H#H#H#H#H#H#H#H#I#R#S.r.KQtQtQtQtQtQtQtQtQtQtQt",
"QtQtQtQtQt.#.bQtQtQtQtQtQt.v.T.V#T#U#V#H#H#v#x#f.r#W#X#p#.#D.1#.#Y.1#O.K.r#Z#R#I#H#H#H#H#v#k#0#H#1#2#t.D.r.J.vQtQtQtQtQtQtQtQtQt",
"QtQtQtQtQt.#.bQtQtQtQtQtQt#3.D#4#5#0#V#H#H#H#0#6.r#7#8.0.0#.#D#.#9#ra..r.r.4#Z#t#V#H#V#2a##g.4.q.r.5#x#A.r.K.wQtQtQtQtQtQtQtQtQt",
".b.b.b.b.b.n.g.b.b.b.b.bQt.Eaaabac#H#H#H#H#H#k#d.r.rad#Y.1#Baeafag.7.r.rah.r.r.r.D.D.D.r.r.r.r.r.rai#R#t.D.r.J.e.b.b.b.b.b.b.b.b",
".b.b.b.b.b.b.b.b.b.b.b.b.b.Sajakal#V#H#H#H#H#H#Iam.r.r#Qanaoapaq.q.r.rarasatau.K.K.S.K.Savawaxay.r.6az#Ram.r.s.e.b.b.b.b.b.b.b.b",
"QtQtQtQtQtQtQtQtQtQtQt.v.JaAaBaCaD#V#H#H#H#H#H#0#t.D.r.r.r.r.r.r.r.VaEaFaGaHaIaJaKaLaMaNaOaOaP.K.raQaR#I#1.D.raS.vQtQtQtQtQtQtQt",
"QtQtQtQtQtQtQtQtQtQtQt.v.VaTaUaV#0#V#H#H#H#H#k#b.s.raWaXaY.V.r.raZa0a1.ra2a3aIas.R.rasaOaOaOa4.r.sa5a6a7#R.4.r.S.vQtQtQtQtQtQtQt",
"QtQtQtQtQtQtQtQtQtQtQt.ka8a9b.b##H#H#H#H#H#v#M.D.rbaaObbbcaY.raGbdbe.K.Dbfbgbh.R.rbiaObjaObk.S.r#Ablbm#H#v#1.D.rbn.wQtQtQtQtQtQt",
"QtQtQtQtQtQtQtQtQtQt.w.Jbobpbqbr#V#H#H#H#H#v#u.ra2aNaObsbta2aLbubv.S.rbwbdbx.K.rbybzaFbAaObB.r.Dbla6bC#H#H#R.4.r.R.vQtQtQtQtQtQt",
".#.#.#.#.#.#.#.#.#.#.aa8bDbEbF#0#V#H#H#H#H#H#k#W.raGbGbHaObIbJbKbL.SbMbNbObP.KbzaObQ.VbRbSaF.rbTa5bU#I#H#H#vbV.r.rbW.d.#.#.#.#.#",
"QtQtQtQtQtQtQtQtQtQtbWbXbYbZb0#H#H#H#H#H#H#H#Iazai.r.r.Sb1b2aOaOaOb3aOaOaOaOb4aOaOaOb5b6b7.rb8b9a6a7#H#H#H#H#wc..r.U.wQtQtQtQtQt",
"QtQtQtQtQtQtQtQtQtQt.ac#cacbaD#V#H#H#H#H#H#H#H#v#I#Z#6.r.r.raYcccdcecfcgchcicjckclcmcn.R.r.rcoa6#1#H#H#H#H#H#v#1.r.r.bQtQtQtQtQt",
"QtQtQtQtQtQtQtQtQtbncpcqcrbq#Ha7#V#V#V#V#V#V#V#V#H#v#k#1#d.6.r.r.r.r.rcs.K.r.r.r.r.r.rb8.r.qa6ct#H#H#H#H#H#H#H#kbT.ray.vQtQtQtQt",
"QtQtQtQtQtQtQtQtQtcucvcwbFaCcxcycxbrbrbrbrbrczczaDaDcxcx#x#R#t#f#Ac.ai.D.D.D.D.s#WcoaQblcAcBcC#H#H#H#H#H#H#H#H#vct.r.D.bQtQtQtQt",
"QtQtQtQtQtQtQtQt#3cD.ycEcFcGcGcGcbcHcIcJcJcJcKcKcKcKcKaVbqb#b#cLcMcNcO#0azcP#b#bbm#bcPcQcR#v#v#v#v#k#k#v#v#k#k#k#x#6.r.G.vQtQtQt",
".#.#.#.#.#.#.#.#.I.q.DcScScTcUcUcVcWcXcYcZc0c1c2c3c3c4c3c5c5c5c6c7c8c6c8c9c2d.d#dadbdcdddedfbV#b#u#g#g#c#ca6#g#f#g.5.r.Ddg.#.#.#",
"QtQtQtQtQtQtdh.b#h.r.r.r.r.r.r.r.RdidjcvdkbodldldmdndodmdpdqdrdsdmdodtdmaTdlducvdvdwdxa8.yay.R.K.r.r.r.r.r.r.r.r.r.r.r.r.W.vQtQt",
"QtQtQtQtQtQtQtdy.U.r.6.6.6.6dz.6.6.6.6dz.6.6dzco#6co#6#6#6#6#6#6dA#6co.6.6dzdzdz.6.6.6.6.6.6.6.6.6.6dz#6#6dz.6.6.6.6b8.r.H.vQtQt",
"QtQtQtQtQtQtQtdy.R.rbTaRa6aRdBdBaRdBdBdBdBdBa6dBa6dBdBdBdBa6a6dBdBa6a6dBdBa6dBa6dBdBdBdBdBdBdBdBdBdCdBdBdBdBaRaRa6dB.K.r.I.wQtQt",
"QtQtQtQtQtQtQtdy.R.rcoa6cA.q.K.D.s.D.D.s.DdD.D.D.sai.s.s.D.D.D.D.D.D.D.D.D.D.D.D.D.D.K.K.D.D.D.D.K.s.s.s.s.s.q#6bla5.K.r.I.vQtQt",
"QtQtQtQtQtQtdh.b.T.rbTdBai.r.r.r.r.r.r.r.r.K.r.K.r.r.K.K.D.D.r.K.K.K.K.K.K.r.r.r.K.r.r.r.r.r.r.r.r.r.r.r.r.r.r.r.5a6.K.rdE.XQtQt",
".#.#.#.#.#.#.#.d.R.r#6a6.D.r.r.r.r.D.5.D.KdFdGaW.rdHdIdJdKdKdKdL.V.R.SdMaMdN.r.rawdO.r.raibTbT.4bT.5.D.r.r.r.r.rcodB.D.r.F.b.#.n",
".bQtQtQtQtQtQt.v.V.qcoa6.D.r.r.r.r.6am.ra2dPdQ.S.raZaIdRaIbgaJaF.r.r.KavdSdQa2.rcsdTdU.K.r.DbT.5.5dVai.r.r.r.r.r#6dB.D.rdW.vQt.#",
".bQtQtQtQtQtQt.w.V.Vcoblb8.r.r.r.ram.6.r.KdX.V.ra2dUdQaHdYdZd0d1d2d3d4bgbddRd5d6.r.Kd7d8.V.r.rbT.5.5bT.r.r.r.r.r#6a6.D.r.J.vQt.#",
".bQtQtQtQtQtQt.X.R#h#6a5.D.r.r.r.D.5am.D.D.r.r.ratd9e.e#.r.r.r.K.r.Deaebecd1dQedba.ra2ee.K.r.rc..5.5dV.q.r.r.r.rcoa6.D.r.J.vQt.#",
".bQtQtQtQtQtQt.w.Vefcoa5.D.r.r.r.qdV.5.5eg.4.r.rehaOaOeiejekelembQbLena1aheobAepaOee.r.r.Daic..5.5.5.5co.r.r.r.r#6dB.K.rdW.vQt.#",
".bQtQtQtQtQtQt.w.Weqcoa6.D.r.r.rer.5.5.5egc..r.SeseteuevewexeyezeAb4eBezeCcfeDeEeFeG.r.ramdV.5.5.5.5.5eg.D.r.r.rcodB.K.r.I.wQt.#",
".#.#.#.#.#.#.#.b.Reqambl.D.r.rb8.5.5.5.5eg.6.r.r.r.r.r.r.r.r.r.r.K.K.K.K.r.r.r.r.r.r.r.DbT.5.5.5.5.5.5.5c..r.r.rbTdB.D.r.J.b.#.n",
"QtQtQtQtQtQtQt.v.ReH.4bl.D.r.raidV.5.5.5.5.5c..q.DdD.sdDdD.D.D.D.D.D.D.D.D.D.DdD.q.6am.5.5.5.5.5.5.5.5.5.5.D.r.r#6dB.K.rdE.wQtQt",
"QtQtQtQtQtQtQt.v.TeIeJblb8.r.r.4dVdVdVdVdVdVdVdVdVdVdVdVdVdVdVdVdVdVdVdVdVdVdVdVdVdVdVdVdVdVdVdVdVdVdVdVdVc..r.r#6a6.D.r.J.vQtQt",
"QtQtQtQtQtQtQt.v.TeK#Abl.D.r.r.s.qai.q.s.s.s.s.s.s.s.s.q.q.q.q.s.s.s.s.q.s.s.s.q.q.s.s.s.s.s.q.s.s.s.s.s.s.s.r.r#6dB.D.r.I.vQtQt",
"QtQtQtQtQtQtQt.v.ScDeLbl.D.r.r.r.r.r.r.r.r.r.r.r.r.r.r.r.r.r.r.r.r.r.r.r.r.r.r.r.r.r.r.r.r.r.r.r.r.r.r.r.r.r.r.r#6dB.K.r.I.wQtQt",
"QtQtQtQtQtQtQt.v.SeMeNbl.D.r.6.6c.c..6.6.6.6.6c..6.6c.c.c.c.c.c..6.6.6c..6.6.6.6c..6.6.6.6.6dz.6.6.6c.c..6c..D.raidB.s.r.I.vQtQt",
".b.b.b.b.b.b.b.e.qeOePb9b8.ramdV.5.5egeg.5egeg.5egeg.5.5.5.5.5.5.5egeg.5egegeg.5.5.5egegegeg.5.5egeg.5.5egdV.q.r.6dC.s.r.Idy.b.b",
".n.n.n.n.n.n.n.#.s#heQb9b8.rco.5.5.5.5.5.5.5.5.5.5.5.5.5.5.5.5.5.5.5.5.5.5.5.5.5.5.5.5.5.5.5.5.5.5.5.5.5.5dV.q.rcodC.s.r.J.#.n.n",
"QtQtQtQtQtQtQtQt.K.ReQb9b8.ram.5.5.5.5.5.5.5.5.5.5.5.5.5.5.5.5.5.5.5.5.5.5.5.5.5.5.5.5.5.5.5.5.5.5.5.5.5.5dV.q.rcodB.K.raS.vQtQt",
"QtQtQtQtQtQtQtQt.q.qeRbl.D.ram.5.5.5.5.5.5.5.5.5.5.5.5.5.5.5.5.5.5.5.5.5.5.5.5.5.5.5.5.5.5.5.5.5.5.5.5.5.5dV.q.r#6dB.K.r.I.vQtQt",
"QtQtQtQtQtQtQtQt.q.KePbl.D.ram.5.5.5.5.5.5.5.5.5.5.5.5.5.5.5.5.5.5.5.5.5.5.5.5.5.5.5.5.5.5.5.5.5.5.5.5.5.5dV.q.r#6dC.s.reS.wQtQt",
"QtQtQtQtQtQtQtQt.q.r#Abl.D.ram.5.5.5.5.5.5.5.5.5.5.5.5.5.5.5.5.5.5.5.5.5.5.5.5.5.5.5.5.5.5.5.5.5.5.5.5.5.5dV.q.rcodB.K.rcu.wQtQt",
"QtQtQtQtQtQtQtQt.q.rbTbl.D.rbTdVdVdVdVdVdVdVdVdVdVdVdVdVdVdVdVdVdVdVdVdVdVdVdVdVdVdVdVdVdVdVdVdVdVdVdVdVdVdV.q.rcodB.K.rdW.vQtQt",
".#.#.#.#.#.#.#.d.q.rcoa6.D.r.D.s.s.s.q.q.q.q.q.q.q.q.q.q.q.q.q.q.q.qai.q.q.q.q.q.q.s.q.q.q.q.q.q.q.s.q.qaiai.D.rbTdB.K.r.J.b.#.#",
".n.b.b.b.b.b.b.e.T.rama6.s.r.r.r.r.r.r.r.r.r.r.r.r.r.r.r.r.r.r.r.r.r.r.r.r.r.r.r.r.r.r.r.r.r.r.r.r.r.r.r.r.r.r.qePa6.D.r.JQt.b.b",
".#QtQtQtQtQtQt.v.T.rcoaRbleT.5bTbTbTbTbTbTbTbTbTbTbTbT.5bT.5bTbTbTeTbTbT.5bT.5.5.5bTbT.5bTbTbTbTbTbTbTbTbTeU#ya6a6a6.D.rdW.vQtQt",
".#QtQtQtQtQtQt.v.T.r.6aQeU#AaQ#yaQeUeU#AaQ#A#AaQ#AaQaQ#A#A#A#AeUaQ#AaQ#y#AcAaQeUaQ#yeUeUaQeU#AaQ#AeU#A#y#AeU#AaQ#AaQ.D.r.J.vQtQt",
".#QtQtQtQtQtQt.v.U.r.r.r.r.r.r.r.r.r.r.r.r.r.r.r.r.r.r.r.r.r.r.r.r.r.r.r.r.r.r.r.r.r.r.r.r.r.r.r.r.r.r.r.r.r.r.r.r.r.r.r.I.wQtQt",
".#QtQtQtQtQtQtQt.k.V.C.E.C.S.T.U.T.S.S.S.S.W.S.T.S.T.S.S.S.T.S.q.R.S.R.W.q.R.R.S.R.T.q.S.S.S.S.T.S.S.S.T.S.T.T.R.R.T.S.S.bQtQtQt",
".#QtQtQtQtQtQtQtQt.veVeWeW.v.v.v.v.v.v.v.v.v.v.v.v.v.v.v.v.v.v.w.v.v.v.e.#.v.v.v.v.v.v.v.v.v.v.v.v.v.v.v.v.v.v.v.v.v.v.vQtQtQtQt",
".c.a.a.a.a.a.a.a.a.a.a.a.a.a.c.a.a.a.a.a.a.a.a.a.a.a.a.a.a.a.a.a.a.a.a.c.c.#.#.#.#.#.#.#.#.#.#.#.#.#.#.#.#.#.#.#.#.#.#.#.#.#.#.#",
"QtQtQtQtQtQtQtQtQtQtQtQtQt.b.#QtQtQtQtQtQtQtQtQtQtQtQtQtQtQtQtQtQtQtQtQtQtQtQtQtQtQtQtQtQtQtQtQtQtQt.b.c.eQtQtQtQtQtQtQtQtQtQtQt",
"QtQtQtQtQtQtQtQtQtQtQtQtQtQt.#QtQtQtQtQtQtQtQtQtQtQtQtQtQtQtQtQtQtQtQtQtQtQtQtQtQtQtQtQtQtQtQtQtQtQtQt.aQtQtQtQtQtQtQtQtQtQtQtQt",
"QtQtQtQtQtQtQtQtQtQtQtQtQtQt.#QtQtQtQtQtQtQtQtQtQtQtQtQtQtQtQtQtQtQtQtQtQtQtQtQtQtQtQtQtQtQtQtQtQtQtQt.aQtQtQtQtQtQtQtQtQtQtQtQt",
"QtQtQtQtQtQtQtQtQtQtQtQtQtQt.#QtQtQtQtQtQtQtQtQtQtQtQtQtQtQtQtQtQtQtQtQtQtQtQtQtQtQtQtQtQtQtQtQtQtQtQt.aQtQtQtQtQtQtQtQtQtQtQtQt",
"QtQtQtQtQtQtQtQtQtQtQtQtQtQt.#QtQtQtQtQtQtQtQtQtQtQtQtQtQtQtQtQtQtQtQtQtQtQtQtQtQtQtQtQtQtQtQtQtQtQtQt.aQtQtQtQtQtQtQtQtQtQtQtQt"};
