/* XPM */
static char *dummy[]={
"64 64 47 1",
". c #3c1518",
"# c #412126",
"a c #432016",
"b c #4a0019",
"m c #68413c",
"n c #6c363d",
"o c #6d3635",
"S c #6d4948",
"h c #6e4942",
"l c #703b3c",
"e c #714d47",
"i c #724143",
"g c #754548",
"d c #755147",
"f c #764542",
"Q c #77494d",
"c c #794948",
"j c #7b4d4d",
"R c #7e454e",
"k c #7e514c",
"u c #a3766e",
"q c #a5716e",
"p c #a8736e",
"r c #a97571",
"s c #a97675",
"t c #ab7874",
"w c #bf8881",
"v c #c1847f",
"A c #c18a81",
"G c #c38681",
"B c #c38c80",
"x c #c49088",
"z c #c58881",
"F c #c6918b",
"y c #c88e89",
"E c #c8938b",
"C c #ca908b",
"D c #cb918b",
"H c #d89a91",
"I c #d99b91",
"M c #dda095",
"J c #dea39e",
"L c #dfa39c",
"N c #e09e95",
"K c #e0a59e",
"P c #e5aba4",
"O c #e7a8a2",
"................................................................",
"##a##aaaaaaaaaaabba###################################a#aa###a#a",
"cccdccecefgghihhiicjjkkjkjjjjjkjjjcdjccdddjddjdcdjcccdcdcecjjcdc",
"ffffffffffffffffffffffffffffffffffffffffffffffffffffffffffffffff",
"ffffffffffffffffffffffffffffffffffffffffffffffffffffffffffffffff",
"ffffffffffffffffffffffffffffffffffffffffffffffffffffffffffffffff",
"ffffffffffffffffffffffffffffffffffffffffffffffffffffffffffffffff",
"ffffffffffffffffffffffffffffffffffffffffffffffffffffffffffffffff",
"lllllllllllllllllllllllllllllllllmmlllllllllllllllllllllllllllll",
"nnnnnnnnnnnnnnnnoononnoonooooooonnnnnnnnnnnnnnnnoooooooooooooooo",
"pqpqqpppqqqppppprstttttttrttttttpqqpppqquqqqupqurrrrrstrrsrrrrrr",
"vvvvvvvvvvvvvvvwxxxxxxxxxxxxxyyxwvvvvvvvvvvvvvvwyyyyyyyyyyyyyyyy",
"zzzzzzAzzzAAAAzBCDDDDDEDDCCDCCFCzGAGGGGGGGAGwGGAyFFFFFCFCFFCFFFC",
"HHHHHHHHHHHHHHHIJKKKKKKKKKKKKJJJIHHHHHHHHHHHHHHHLJJJJJJJJJJJJJJJ",
"HHHHHHHHHHHHHHHIJKKKKKKKKKKKKKKJIHHHHHHHHHHHHHHIJKKKKKKKKKKKKKKK",
"HHHHHHHHHHHHHHHIJKKKKKKKKKKKKKKJIHHHHHHHHHHHHHHIJKKKKKKKKKKKKKKK",
"HHHHHHHHHHHHHHHIJKKKKKKKKKKKKKKJIHHHHHHHHHHHHHHIJKKKKKKKKKKKKKKK",
"HHHHHHHHHHHHHHHIJKKKKKKKKKKKKKKJIHHHHHHHHHHHHHHIJKKKKKKKKKKKKKKK",
"HHHHHHHHHHHHHHHIJKKKKKKKKKKKKKKJIHHHHHHHHHHHHHHIJKKKKKKKKKKKKKKK",
"HHHHHHHHHHHHHHHIJKKKKKKKKKKKKKKJIHHHHHHHHHHHHHHIJKKKKKKKKKKKKKKK",
"HHHHHHHHHHHHHHHIJKKKKKKKKKKKKKKJIHHHHHHHHHHHHHHIJKKKKKKKKKKKKKKK",
"HHHHHHHHHHHHHHHIJKKKKKKKKKKKKKKJIHHHHHHHHHHHHHHIJKKKKKKKKKKKKKKK",
"HHHHHHHHHHHHHHHIJKKKKKKKKKKKKKKJIHHHHHHHHHHHHHHIJKKKKKKKKKKKKKKK",
"HHHHHHHHHHHHHHHIJKKKKKKKKKKKKKKJIHHHHHHHHHHHHHHIJKKKKKKKKKKKKKKK",
"HHHHHHHHHHHHHHHIJKKKKKKKKKKKKKKJIHHHHHHHHHHHHHHIJKKKKKKKKKKKKKKK",
"HHHHHHHHHHHHHHHIJKKKKKKKKKKKKKKJIHHHHHHHHHHHHHHIJKKKKKKKKKKKKKKK",
"HHHHHHHHHHHHHHHIJKKKKKKKKKKKKKKJIHHHHHHHHHHHHHHIJKKKKKKKKKKKKKKK",
"HHHHHHHHHHHHHHHIJKKKKKKKKKKKKKKJIHHHHHHHHHHHHHHIJKKKKKKKKKKKKKKK",
"HHHHHHHHHHHHHHHIJKKKKKKKKKKKKKKJIHHHHHHHHHHHHHHIJKKKKKKKKKKKKKKK",
"HHHHHHHHHHHHHHHIJKKKKKKKKKKKKKKJIHHHHHHHHHHHHHHIJKKKKKKKKKKKKKKK",
"HHHHHHHHHHHHHHHIJKKKKKKKKKKKKKKJIHHHHHHHHHHHHHHIJKKKKKKKKKKKKKKK",
"HHHHHHHHHHHHHHHIJKKKKKKKKKKKKKKJIHHHHHHHHHHHHHHIJKKKKKKKKKKKKKKK",
"HHHHHHHHHHHHHHHIJKKKKKKKKKKKKKKJIHHHHHHHHHHHHHHIJKKKKKKKKKKKKKKK",
"HHHHHHHHHHHHHHHIJKKKKKKKKKKKKKKJIHHHHHHHHHHHHHHIJKKKKKKKKKKKKKKK",
"HHHHHHHHHHHHHHHIJKKKKKKKKKKKKKKJIHHHHHHHHHHHHHHIJKKKKKKKKKKKKKKK",
"HHHHHHHHHHHHHHHIJKKKKKKKKKKKKKKJIHHHHHHHHHHHHHHIJKKKKKKKKKKKKKKK",
"HHHHHHHHHHHHHHHIJKKKKKKKKKKKKKKJIHHHHHHHHHHHHHHIJKKKKKKKKKKKKKKK",
"HHHHHHHHHHHHHHHIJKKKKKKKKKKKKKKJIHHHHHHHHHHHHHHIJKKKKKKKKKKKKKKK",
"HHHHHHHHHHHHHHHIJKKKKKKKKKKKKKKJIHHHHHHHHHHHHHHIJKKKKKKKKKKKKKKK",
"HHHHHHHHHHHHHHHIJKKKKKKKKKKKKKKJIHHHHHHHHHHHHHHIJKKKKKKKKKKKKKKK",
"HHHHHHHHHHHHHHHIJKKKKKKKKKKKKKKJIHHHHHHHHHHHHHHIJKKKKKKKKKKKKKKK",
"HHHHHHHHHHHHHHHIJKKKKKKKKKKKKKKJIHHHHHHHHHHHHHHIJKKKKKKKKKKKKKKK",
"HHHHHHHHHHHHHHHIJKKKKKKKKKKKKKKJIHHHHHHHHHHHHHHIJKKKKKKKKKKKKKKK",
"HHHHHHHHHHHHHHHIJKKKKKKKKKKKKKKJIHHHHHHHHHHHHHHIJKKKKKKKKKKKKKKK",
"HHHHHHHHHHHHHHHIJKKKKKKKKKKKKKKJIHHHHHHHHHHHHHHIJKKKKKKKKKKKKKKK",
"HHHHHHHHHHHHHHHIJKKKKKKKKKKKKKKJIHHHHHHHHHHHHHHIJKKKKKKKKKKKKKKK",
"HHHHHHHHHHHHHHHIJKKKKKKKKKKKKKKJIHHHHHHHHHHHHHHIJKKKKKKKKKKKKKKK",
"HHHHHHHHHHHHHHHIJKKKKKKKKKKKKKKJIHHHHHHHHHHHHHHIJKKKKKKKKKKKKKKK",
"HHHHHHHHHHHHHHHIJKKKKKKKKKKKKKKJIHHHHHHHHHHHHHHIJKKKKKKKKKKKKKKK",
"HHHHHHHHHHHHHHHIJKKKKKKKKKKKKKKJIHHHHHHHHHHHHHHIJKKKKKKKKKKKKKKK",
"HHHHHHHHHHHHHHHIJKKKKKKKKKKKKKKJIHHHHHHHHHHHHHHIJKKKKKKKKKKKKKKK",
"HHHHHHHHHHHHHHHIJKKKKKKKKKKKKKKJIHHHHHHHHHHHHHHIJKKKKKKKKKKKKKKK",
"HHHHHHHHHHHHHHHIJKKKKKKKKKKKKKKJIHHHHHHHHHHHHHHIJKKKKKKKKKKKKKKK",
"HHHHHHHHHHHHHHHIJKKKKKKKKKKKKKKJIHHHHHHHHHHHHHHIJKKKKKKKKKKKKKKK",
"HHHHHHHHHHHHHHHIJKKKKKKKKKKKKKKJIHHHHHHHHHHHHHHIJKKKKKKKKKKKKKKK",
"HHHHHHHHHHHHHHHIJKKKKKKKKKKKKKKJIHHHHHHHHHHHHHHIJKKKKKKKKKKKKKKK",
"HHHHHHHHHHHHHHHIJKKKKKKKKKKKKKKJIHHHHHHHHHHHHHHIJKKKKKKKKKKKKKKK",
"HHHHHHHHHHHHHHHIJKKKKKKKKKKKKKKJIHHHHHHHHHHHHHHIJKKKKKKKKKKKKKKK",
"MMMMMMMMMMMMMMMNOPPPPPPPPPPPPPPONMMMMMMMMMMMMMMNOPPPPPPPPPPPPPPP",
"ccccccccccccccccQjjjjjjjjjjjjjjRccccccccccccccccRjjjjjjjjjjjjjjj",
"iiiiiiiihhhhhhhhhhhhhhhhhhhhhhhhgSgghgggggggggggfgggfffhhhhhhhhh",
"ffffffffffffffffffffffffffffffffffffffffffffffffffffffffffffffff",
"llmlmllllllmllllmmmmmmmmmmmlmmmmmmmmmmmmmmmlmmmmmmmmmmmmmmmmmmmm",
"mmmmmmmmmmmmmmmmmmmmmmmmmmmmmmmmmmmmmmmmmmmmmmmmmmmmmmmmmmmmmmmm"};
