/* XPM */
static char *dummy[]={
"64 64 48 1",
"a c #000000",
"# c #33001a",
". c #3c1518",
"d c #412126",
"S c #432016",
"g c #482924",
"T c #4a0019",
"R c #4e1526",
"c c #603636",
"b c #652937",
"Q c #6c363d",
"f c #6c453b",
"h c #703b3c",
"v c #724143",
"i c #74403b",
"e c #764542",
"P c #794948",
"p c #804548",
"u c #815451",
"A c #854d4c",
"o c #9d6e67",
"j c #9f716b",
"l c #a1736e",
"k c #a26c6b",
"n c #a36e6f",
"m c #a46e6b",
"O c #b07571",
"N c #b47a70",
"E c #ba827c",
"r c #bb7c76",
"s c #bc7c73",
"F c #bc847c",
"q c #bd7e76",
"z c #bd7e79",
"H c #be807c",
"D c #bf8076",
"I c #bf8079",
"M c #c0827c",
"y c #c17c76",
"J c #c18279",
"t c #c18a81",
"G c #c37e79",
"w c #c88681",
"x c #ca8881",
"C c #ca8e83",
"B c #cb8a83",
"K c #cd8c86",
"L c #ce8e86",
"...............................#aaaaaaaaaaaaaaaaaaaaaaaaaaaaaaaa",
"...............................#aaaaaaaaaaaaaaaaaaaaaaaaaaaaaaaa",
"bbbbbbbbbbbbbbcbbbbbbbcccccbcd.#aaaaaaaaaaaaaaaaaaaaaaaaaaaaaaaa",
"eeeeeeeeeeeeeeeeeeeeeeeeeeeefg.#aaaaaaaaaaaaaaaaaaaaaaaaaaaaaaaa",
"eeeeeeeeeeeeeeeeeeeeeeeeeeeehg.#aaaaaaaaaaaaaaaaaaaaaaaaaaaaaaaa",
"eeeeeeeeeeeeeeeeeeeeeeeeeeeehg.#aaaaaaaaaaaaaaaaaaaaaaaaaaaaaaaa",
"eeeeeeeeeeeeeeeeeeeeeeeeeeeehg.#aaaaaaaaaaaaaaaaaaaaaaaaaaaaaaaa",
"eeeeeeeeeeeeeeeeeeeeeeeeeeeehg.#aaaaaaaaaaaaaaaaaaaaaaaaaaaaaaaa",
"eeeeeeeeeeeeeeeeeeeeeeeeeeeehg.#aaaaaaaaaaaaaaaaaaaaaaaaaaaaaaaa",
"eeeeeeeeeeeeeeeeeeeeeeeeeeeehg.#aaaaaaaaaaaaaaaaaaaaaaaaaaaaaaaa",
"eeeeeeeeeeeeeeeeeeeeeeeeeeeehg.#aaaaaaaaaaaaaaaaaaaaaaaaaaaaaaaa",
"iiiiiiiiiiiiiiiiieeeeeeeeeeehg.#aaaaaaaaaaaaaaaaaaaaaaaaaaaaaaaa",
"jklmmjnlljmmllkkopeeeeeeeeeehg.#aaaaaaaaaaaaaaaaaaaaaaaaaaaaaaaa",
"qqqqqqqqqrqqqqqstuveeeeeeeeehg.#aaaaaaaaaaaaaaaaaaaaaaaaaaaaaaaa",
"wxwwxxwwwwwwwwxyzAveeeeeeeeehg.#aaaaaaaaaaaaaaaaaaaaaaaaaaaaaaaa",
"BBBBBBBBBBBBBBCDEuveeeeeeeeehg.#aaaaaaaaaaaaaaaaaaaaaaaaaaaaaaaa",
"BBBBBBBBBBBBBBCyFuveeeeeeeeehg.#aaaaaaaaaaaaaaaaaaaaaaaaaaaaaaaa",
"BBBBBBBBBBBBBBCGFuveeeeeeeeehg.#aaaaaaaaaaaaaaaaaaaaaaaaaaaaaaaa",
"BBBBBBBBBBBBBBCDHuveeeeeeeeehg.#aaaaaaaaaaaaaaaaaaaaaaaaaaaaaaaa",
"BBBBBBBBBBBBBBCDFuveeeeeeeeehg.#aaaaaaaaaaaaaaaaaaaaaaaaaaaaaaaa",
"BBBBBBBBBBBBBBCIHuveeeeeeeeehg.#aaaaaaaaaaaaaaaaaaaaaaaaaaaaaaaa",
"BBBBBBBBBBBBBBCIEuveeeeeeeeehg.#aaaaaaaaaaaaaaaaaaaaaaaaaaaaaaaa",
"BBBBBBBBBBBBBBCDEuveeeeeeeeehg.#aaaaaaaaaaaaaaaaaaaaaaaaaaaaaaaa",
"BBBBBBBBBBBBBBCyHuveeeeeeeeehg.#aaaaaaaaaaaaaaaaaaaaaaaaaaaaaaaa",
"BBBBBBBBBBBBBBCyHuveeeeeeeeehg.#aaaaaaaaaaaaaaaaaaaaaaaaaaaaaaaa",
"BBBBBBBBBBBBBBCDEuveeeeeeeeehg.#aaaaaaaaaaaaaaaaaaaaaaaaaaaaaaaa",
"BBBBBBBBBBBBBBCIHuveeeeeeeeehg.#aaaaaaaaaaaaaaaaaaaaaaaaaaaaaaaa",
"BBBBBBBBBBBBBBCIEuveeeeeeeeehg.#aaaaaaaaaaaaaaaaaaaaaaaaaaaaaaaa",
"BBBBBBBBBBBBBBCIEuveeeeeeeeehg.#aaaaaaaaaaaaaaaaaaaaaaaaaaaaaaaa",
"BBBBBBBBBBBBBBCIHuveeeeeeeeehg.#aaaaaaaaaaaaaaaaaaaaaaaaaaaaaaaa",
"BBBBBBBBBBBBBBCGEuveeeeeeeeehg.#aaaaaaaaaaaaaaaaaaaaaaaaaaaaaaaa",
"BBBBBBBBBBBBBBCJzAveeeeeeeevhg.#aaaaaaaaaaaaaaaaaaaaaaaaaaaaaaaa",
"BBBBBBBBBBBBBBCIEuveeeeeeeeehg.#aaaaaaaaaaaaaaaaaaaaaaaaaaaaaaaa",
"BBBBBBBBBBBBBBCIEuveeeeeeeeehg.#aaaaaaaaaaaaaaaaaaaaaaaaaaaaaaaa",
"BBBBBBBBBBBBBBCDEuveeeeeeeeehg.#aaaaaaaaaaaaaaaaaaaaaaaaaaaaaaaa",
"BBBBBBBBBBBBBBCGEuveeeeeeeeehg.#aaaaaaaaaaaaaaaaaaaaaaaaaaaaaaaa",
"BBBBBBBBBBBBBBCJHuveeeeeeeeehg.#aaaaaaaaaaaaaaaaaaaaaaaaaaaaaaaa",
"BBBBBBBBBBBBBBCIEuveeeeeeeeehg.#aaaaaaaaaaaaaaaaaaaaaaaaaaaaaaaa",
"BBBBBBBBBBBBBBCyHuveeeeeeeeehg.#aaaaaaaaaaaaaaaaaaaaaaaaaaaaaaaa",
"BBBBBBBBBBBBBBCyHuveeeeeeeeehg.#aaaaaaaaaaaaaaaaaaaaaaaaaaaaaaaa",
"BBBBBBBBBBBBBBCIEuveeeeeeeeehg.#aaaaaaaaaaaaaaaaaaaaaaaaaaaaaaaa",
"BBBBBBBBBBBBBBCIEuveeeeeeeeehg.#aaaaaaaaaaaaaaaaaaaaaaaaaaaaaaaa",
"BBBBBBBBBBBBBBCIEuveeeeeeeeehg.#aaaaaaaaaaaaaaaaaaaaaaaaaaaaaaaa",
"BBBBBBBBBBBBBBCDHuveeeeeeeeehg.#aaaaaaaaaaaaaaaaaaaaaaaaaaaaaaaa",
"BBBBBBBBBBBBBBCDEuveeeeeeeeehg.#aaaaaaaaaaaaaaaaaaaaaaaaaaaaaaaa",
"BBBBBBBBBBBBBBCyEuveeeeeeeeehg.#aaaaaaaaaaaaaaaaaaaaaaaaaaaaaaaa",
"BBBBBBBBBBBBBBCyEuveeeeeeeeehg.#aaaaaaaaaaaaaaaaaaaaaaaaaaaaaaaa",
"BBBBBBBBBBBBBBCDEuveeeeeeeeehg.#aaaaaaaaaaaaaaaaaaaaaaaaaaaaaaaa",
"BBBBBBBBBBBBBBCDEuveeeeeeeeehg.#aaaaaaaaaaaaaaaaaaaaaaaaaaaaaaaa",
"BBBBBBBBBBBBBBCyEuveeeeeeeeehg.#aaaaaaaaaaaaaaaaaaaaaaaaaaaaaaaa",
"BBBBBBBBBBBBBBCyHuveeeeeeeeehg.#aaaaaaaaaaaaaaaaaaaaaaaaaaaaaaaa",
"BBBBBBBBBBBBBBCyHuveeeeeeeeehg.#aaaaaaaaaaaaaaaaaaaaaaaaaaaaaaaa",
"BBBBBBBBBBBBBBCyHuveeeeeeeeehg.#aaaaaaaaaaaaaaaaaaaaaaaaaaaaaaaa",
"BBBBBBBBBBBBBBCIHuveeeeeeeeehg.#aaaaaaaaaaaaaaaaaaaaaaaaaaaaaaaa",
"BBBBBBBBBBBBBBCIEuveeeeeeeeehg.#aaaaaaaaaaaaaaaaaaaaaaaaaaaaaaaa",
"BBBBBBBBBBBBBBCyEuveeeeeeeeehg.#aaaaaaaaaaaaaaaaaaaaaaaaaaaaaaaa",
"BBBBBBBBBBBBBBCyEuveeeeeeeeehg.#aaaaaaaaaaaaaaaaaaaaaaaaaaaaaaaa",
"BBBBBBBBBBBBBBCyEuveeeeeeeeehg.#aaaaaaaaaaaaaaaaaaaaaaaaaaaaaaaa",
"BBBBBBBBBBBBBBCIzAveeeeeeeeehg.#aaaaaaaaaaaaaaaaaaaaaaaaaaaaaaaa",
"BBBBBBBBBBBBBBCDzAveeeeeeeeehg.#aaaaaaaaaaaaaaaaaaaaaaaaaaaaaaaa",
"KKKKKKKKKKKKKKLJzAeeeeeeeeeehg.#aaaaaaaaaaaaaaaaaaaaaaaaaaaaaaaa",
"MMMMMMMMMMMMMMMNOPfiiiiiiiifQR.#aaaaaaaaaaaaaaaaaaaaaaaaaaaaaaaa",
"dddddddddddddddddSTTTTTTTTTTT..#aaaaaaaaaaaaaaaaaaaaaaaaaaaaaaaa",
"...............................#aaaaaaaaaaaaaaaaaaaaaaaaaaaaaaaa"};
