/* XPM */
static char *dummy[]={
"64 64 45 1",
". c #000000",
"# c #3c1518",
"Q c #432016",
"P c #4a0019",
"a c #542025",
"b c #5d302e",
"c c #603636",
"f c #652937",
"L c #68413c",
"E c #6c453b",
"M c #703b3c",
"d c #724143",
"g c #74403b",
"e c #764542",
"h c #845850",
"j c #865b55",
"N c #875151",
"n c #885e59",
"q c #895456",
"k c #895e55",
"D c #8b6159",
"l c #8c5855",
"m c #8e5b5a",
"x c #8f5b55",
"i c #905e5e",
"K c #916960",
"J c #926162",
"p c #93615d",
"H c #946461",
"G c #956e68",
"r c #966765",
"O c #976761",
"F c #986968",
"w c #996964",
"s c #9a6960",
"t c #9b6c64",
"o c #9b6c68",
"C c #9d6769",
"y c #9d6e67",
"u c #9e6765",
"v c #a06968",
"B c #a07167",
"I c #a26c68",
"z c #a46e6b",
"A c #a56e67",
"..................................##############################",
"..................................##############################",
"..................................##abbbbbbbbbbbbbbbbbbbbbbbbbbb",
"..................................##cdeeeeeeeeeeeeeeeeeeeeeeeeee",
"..................................##fgeeeeeeeeeeeeeeeeeeeeeeeeee",
"..................................##fgeeeeeeeeeeeeeeeeeeeeeeeeee",
"..................................##fgeeeeeeeeeeeeeeeeeeeeeeeeee",
"..................................##fgeeeeeeeeeeeeeeeeeeeeeeeeee",
"..................................##fgeeeeeeeeeeeeeeeeeeeeeeeeee",
"..................................##fgeeeeeeeeeeeeeeeeeeeeeeeeee",
"..................................##fgeeeeeeeeeeeeeeeeeeeeeeeeee",
"..................................##fgeeeeeeeeeeddeedddddddddddd",
"..................................##fgeeeeeeeeeehijjklmmlnmmllkl",
"..................................##fgeeeeeeeeedopqjjjlljlllllll",
"..................................##fgeeeeeeeeedrlsttttuuutttvtt",
"..................................##fgeeeeeeeeedwxyzzzzzzzzzAAzz",
"..................................##fgeeeeeeeeedwmyBBBBBBBBBBBBB",
"..................................##fgeeeeeeeeedCmyBBBBBBBBBBBBB",
"..................................##fgeeeeeeeeedoDyBBBBBBBBBBBBB",
"..................................##fgeeeeeeeeegoDvBBBBBBBBBBBBB",
"..................................##fgeeeeeeeeedwxvBBBBBBBBBBBBB",
"..................................##fEeeeeeeeeedwDyBBBBBBBBBBBBB",
"..................................##fgeeeeeeeeedwmvBBBBBBBBBBBBB",
"..................................##fgeeeeeeeeedwmvBBBBBBBBBBBBB",
"..................................##fgeeeeeeeeedFmyBBBBBBBBBBBBB",
"..................................##fgeeeeeeeeedrxvBBBBBBBBBBBBB",
"..................................##fgeeeeeeeeegomvBBBBBBBBBBBBB",
"..................................##fgeeeeeeeeedwmyBBBBBBBBBBBBB",
"..................................##fgeeeeeeeeedwmyBBBBBBBBBBBBB",
"..................................##fgeeeeeeeeedwmvBBBBBBBBBBBBB",
"..................................##fgeeeeeeeeedwmyBBBBBBBBBBBBB",
"..................................##fEeeeeeeeeedrmyBBBBBBBBBBBBB",
"..................................##fgeeeeeeeeedwmvBBBBBBBBBBBBB",
"..................................##fgeeeeeeeeedwmvBBBBBBBBBBBBB",
"..................................##fgeeeeeeeeedwmyBBBBBBBBBBBBB",
"..................................##fEeeeeeeeeedwmvBBBBBBBBBBBBB",
"..................................##fgeeeeeeeeedFmyBBBBBBBBBBBBB",
"..................................##fEeeeeeeeeedwxvABBBBBBBBBBBB",
"..................................##fgeeeeeeeeedGmyBBBBBBBBBBBBB",
"..................................##fgeeeeeeeeedwDyBBBBBBBBBBBBB",
"..................................##fEeeeeeeeeedwmyBBBBBBBBBBBBB",
"..................................##fgeeeeeeeeedrxyBBBBBBBBBBBBB",
"..................................##fgeeeeeeeeedrxyBBBBBBBBBBBBB",
"..................................##fgeeeeeeeeedwDyBBBBBBBBBBBBB",
"..................................##fgeeeeeeeeedrmyBBBBBBBBBBBBB",
"..................................##fEeeeeeeeeedrmyBBBBBBBBBBBBB",
"..................................##fgeeeeeeeeedrmyBBBBBBBBBBBBB",
"..................................##fgeeeeeeeeedrmyBBBBBBBBBBBBB",
"..................................##fgeeeeeeeeedrmyBBBBBBBBBBBBB",
"..................................##fgeeeeeeeeedrxyBBBBBBBBBBBBB",
"..................................##fgeeeeeeeeedrxyBBBBBBBBBBBBB",
"..................................##fgeeeeeeeeedrkyBBBBBBBBBBBBB",
"..................................##fgeeeeeeeeedHlyBBBBBBBBBBBBB",
"..................................##fEeeeeeeeeedHkIBBBBBBBBBBBBB",
"..................................##fgeeeeeeeeedJmBBBBBBBBBBBBBB",
"..................................##fEeeeeeeeeedHDIBBBBBBBBBBBBB",
"..................................##fgeeeeeeeeedrDIBBBBBBBBBBBBB",
"..................................##fgeeeeeeeeedrmIBBBBBBBBBBBBB",
"..................................##fgeeeeeeeeedKmyBBBBBBBBBBBBB",
"..................................##fgeeeeeeeeedKmyBBBBBBBBBBBBB",
"..................................##fgeeeeeeeeeepmBzzzzzzzzzzzzz",
"..................................##bLgggggggggMjNOwwwwwwwwwwwww",
"..................................###PPPPPPPPPPPQQQQQQQQQQQQQQQQ",
"..................................##############################"};
