/* XPM */
static char *dummy[]={
"64 64 45 1",
"# c #000000",
". c #3c1518",
"P c #432016",
"Q c #4a0019",
"b c #542025",
"a c #5d302e",
"e c #603636",
"g c #652937",
"O c #68413c",
"E c #6c453b",
"N c #703b3c",
"d c #724143",
"f c #74403b",
"c c #764542",
"n c #845850",
"l c #865b55",
"M c #875151",
"k c #885e59",
"o c #895456",
"i c #895e55",
"D c #8b6159",
"h c #8c5855",
"j c #8e5b5a",
"z c #8f5b55",
"m c #905e5e",
"K c #916960",
"J c #926162",
"p c #93615d",
"H c #946461",
"G c #956e68",
"v c #966765",
"L c #976761",
"F c #986968",
"A c #996964",
"u c #9a6960",
"r c #9b6c64",
"q c #9b6c68",
"C c #9d6769",
"y c #9d6e67",
"t c #9e6765",
"s c #a06968",
"B c #a07167",
"I c #a26c68",
"w c #a46e6b",
"x c #a56e67",
"..............................##################################",
"..............................##################################",
"aaaaaaaaaaaaaaaaaaaaaaaaaaab..##################################",
"ccccccccccccccccccccccccccde..##################################",
"ccccccccccccccccccccccccccfg..##################################",
"ccccccccccccccccccccccccccfg..##################################",
"ccccccccccccccccccccccccccfg..##################################",
"ccccccccccccccccccccccccccfg..##################################",
"ccccccccccccccccccccccccccfg..##################################",
"ccccccccccccccccccccccccccfg..##################################",
"ccccccccccccccccccccccccccfg..##################################",
"ddddddddddddccddccccccccccfg..##################################",
"hihhjjkhjjhillmnccccccccccfg..##################################",
"hhhhhhhlhhlllopqdcccccccccfg..##################################",
"rrsrrrtttrrrruhvdcccccccccfg..##################################",
"wwxxwwwwwwwwwyzAdcccccccccfg..##################################",
"BBBBBBBBBBBBByjAdcccccccccfg..##################################",
"BBBBBBBBBBBBByjCdcccccccccfg..##################################",
"BBBBBBBBBBBBByDqdcccccccccfg..##################################",
"BBBBBBBBBBBBBsDqfcccccccccfg..##################################",
"BBBBBBBBBBBBBszAdcccccccccfg..##################################",
"BBBBBBBBBBBBByDAdcccccccccEg..##################################",
"BBBBBBBBBBBBBsjAdcccccccccfg..##################################",
"BBBBBBBBBBBBBsjAdcccccccccfg..##################################",
"BBBBBBBBBBBBByjFdcccccccccfg..##################################",
"BBBBBBBBBBBBBszvdcccccccccfg..##################################",
"BBBBBBBBBBBBBsjqfcccccccccfg..##################################",
"BBBBBBBBBBBBByjAdcccccccccfg..##################################",
"BBBBBBBBBBBBByjAdcccccccccfg..##################################",
"BBBBBBBBBBBBBsjAdcccccccccfg..##################################",
"BBBBBBBBBBBBByjAdcccccccccfg..##################################",
"BBBBBBBBBBBBByjvdcccccccccEg..##################################",
"BBBBBBBBBBBBBsjAdcccccccccfg..##################################",
"BBBBBBBBBBBBBsjAdcccccccccfg..##################################",
"BBBBBBBBBBBBByjAdcccccccccfg..##################################",
"BBBBBBBBBBBBBsjAdcccccccccEg..##################################",
"BBBBBBBBBBBBByjFdcccccccccfg..##################################",
"BBBBBBBBBBBBxszAdcccccccccEg..##################################",
"BBBBBBBBBBBBByjGdcccccccccfg..##################################",
"BBBBBBBBBBBBByDAdcccccccccfg..##################################",
"BBBBBBBBBBBBByjAdcccccccccEg..##################################",
"BBBBBBBBBBBBByzvdcccccccccfg..##################################",
"BBBBBBBBBBBBByzvdcccccccccfg..##################################",
"BBBBBBBBBBBBByDAdcccccccccfg..##################################",
"BBBBBBBBBBBBByjvdcccccccccfg..##################################",
"BBBBBBBBBBBBByjvdcccccccccEg..##################################",
"BBBBBBBBBBBBByjvdcccccccccfg..##################################",
"BBBBBBBBBBBBByjvdcccccccccfg..##################################",
"BBBBBBBBBBBBByjvdcccccccccfg..##################################",
"BBBBBBBBBBBBByzvdcccccccccfg..##################################",
"BBBBBBBBBBBBByzvdcccccccccfg..##################################",
"BBBBBBBBBBBBByivdcccccccccfg..##################################",
"BBBBBBBBBBBBByhHdcccccccccfg..##################################",
"BBBBBBBBBBBBBIiHdcccccccccEg..##################################",
"BBBBBBBBBBBBBBjJdcccccccccfg..##################################",
"BBBBBBBBBBBBBIDHdcccccccccEg..##################################",
"BBBBBBBBBBBBBIDvdcccccccccfg..##################################",
"BBBBBBBBBBBBBIjvdcccccccccfg..##################################",
"BBBBBBBBBBBBByjKdcccccccccfg..##################################",
"BBBBBBBBBBBBByjKdcccccccccfg..##################################",
"wwwwwwwwwwwwwBjpccccccccccfg..##################################",
"AAAAAAAAAAAAALMlNfffffffffOa..##################################",
"PPPPPPPPPPPPPPPPQQQQQQQQQQQ...##################################",
"..............................##################################"};
