/* XPM */
static char *dummy[]={
"64 64 203 2",
".k c #000000",
".h c #161519",
".j c #1c1500",
"b# c #213723",
".V c #222126",
".q c #272117",
".l c #2b0002",
".p c #2f2925",
".i c #33001a",
".P c #35312f",
".3 c #383023",
"ap c #391527",
".m c #3b3737",
"bc c #3c1518",
"aP c #3e2130",
"#d c #3e362e",
".2 c #412126",
"aR c #432a38",
".1 c #433c36",
"aq c #453c2c",
".g c #46292f",
"a1 c #48413d",
"#4 c #4a3037",
".L c #4a4135",
"a2 c #4b5141",
"a0 c #4c302e",
".W c #4e373e",
"aZ c #4e453c",
".o c #503736",
"aD c #504534",
"bd c #523c44",
"aW c #524a42",
"aF c #543c3d",
".9 c #54493b",
"aX c #555846",
"aJ c #562938",
"aw c #563c35",
"#m c #574d42",
"al c #575840",
".N c #584143",
"b. c #59413c",
"#N c #594d3a",
"be c #5a313e",
"aM c #5b4549",
"#g c #5b5147",
"#K c #5c5141",
"au c #5d4543",
"ak c #5e363e",
"a9 c #5e453c",
"aI c #5e4a4e",
".0 c #5e554d",
"bh c #603c4a",
".f c #604a48",
".U c #605547",
"#M c #614942",
"#L c #615540",
"bg c #623c44",
"bi c #633c3d",
"ba c #634e4d",
".M c #63584c",
".a c #644d48",
"#I c #645846",
".6 c #654149",
"#. c #664d41",
".e c #665152",
"#b c #665b51",
"#5 c #67514d",
"#O c #675b4b",
".r c #68454e",
"a4 c #686754",
"aB c #694549",
"#J c #695147",
"a3 c #695e55",
"bf c #6a4542",
".X c #6a4a53",
"aY c #6a5e50",
"#j c #6b5e4b",
".# c #6c4a4e",
"ah c #6c554c",
".5 c #6d4948",
".s c #6d4e58",
"#6 c #6d5446",
"aE c #6d6155",
".t c #6e6150",
".b c #6f4d53",
"ag c #6f584c",
"a7 c #6f6459",
".d c #704d4d",
"Qt c #715157",
".c c #725152",
"#3 c #725b51",
"aH c #726f5c",
"#u c #735b4b",
"a5 c #736759",
".n c #74555b",
"#P c #746754",
".O c #755557",
"bb c #764953",
"#v c #765e50",
".4 c #766a5d",
"an c #77554c",
"af c #776958",
".Z c #786155",
".Y c #786953",
"#c c #794d57",
"ao c #795851",
"#t c #79614f",
"a6 c #796c5c",
"ai c #7b6459",
"a8 c #7b6f60",
"#q c #7c6454",
"#2 c #7d6f5c",
"#r c #7e6758",
"#o c #7f6753",
"#s c #80695c",
"aA c #80715b",
"#n c #816958",
"#p c #836c5c",
"ax c #83735b",
"#Q c #847663",
"#w c #856f60",
"#y c #866e5b",
"at c #886758",
"#z c #88715f",
"ae c #887164",
"as c #8a695c",
"#a c #8a7363",
"aL c #8a7c6d",
"#A c #8b735f",
"#V c #8b7c6a",
"ar c #8c6c60",
"am c #8d7663",
"#x c #8d7667",
"#W c #8e786a",
"aa c #8f7866",
"#k c #8f7e65",
"#1 c #8f8170",
"#B c #907862",
"#X c #90806d",
"#l c #918069",
".7 c #927a66",
"#U c #928370",
"aN c #93826c",
"#C c #947c69",
"#R c #948573",
"#D c #957c66",
"ad c #95856f",
"#E c #977e69",
"#h c #998069",
"#7 c #9a8270",
".T c #9b826c",
"ab c #9c8473",
"#F c #9d846f",
"aU c #9d8a6e",
"#S c #9d8c78",
"#T c #9e8676",
"aQ c #9e8c71",
"aG c #9f866f",
"#Y c #9f8879",
"ac c #9f8e78",
"#G c #a18872",
"#8 c #a1907b",
"aV c #a2886e",
"#H c #a38a72",
"#0 c #a49380",
"aT c #a58c75",
"#9 c #a5937d",
"a# c #a68e7b",
".J c #a69377",
"aK c #a78e74",
"aC c #a8957a",
"aj c #a89783",
".K c #a99077",
".I c #a99576",
"aS c #aa9074",
".H c #ab9177",
"#Z c #ab9380",
".C c #ac987c",
"aO c #ad9376",
".E c #ad937a",
".G c #ae957d",
"#i c #af907a",
".F c #af9579",
"a. c #af9782",
".B c #b0967c",
".D c #b2987c",
"av c #b2987f",
".z c #b29d7e",
".x c #b49a7f",
".w c #b59b81",
"#e c #b5a081",
".A c #b69b7e",
".y c #b79d81",
".v c #b99f81",
".Q c #b99f84",
".R c #bba083",
".8 c #bca286",
"#f c #bda283",
".S c #bea386",
".u c #bfa588",
"az c #c0a585",
"## c #c3a88a",
"ay c #c5a98a",
"QtQtQtQtQtQtQtQtQtQtQtQtQtQt.#QtQtQtQtQtQtQtQtQtQtQtQtQtQtQtQtQtQtQtQtQtQtQtQtQtQtQtQtQtQtQtQtQtQtQtQt.aQtQtQtQtQtQtQtQtQtQtQtQt",
".b.b.b.b.b.b.b.b.b.b.b.b.b.b.#.b.b.b.b.b.b.b.b.b.b.b.b.b.b.b.b.b.b.b.b.b.b.c.b.b.c.c.c.b.c.c.c.c.c.c.b.a.cQtQt.cQt.b.b.b.b.b.b.b",
".d.d.d.d.d.d.d.d.d.d.d.d.d.d.d.b.#.#Qt.c.c.b.b.b.b.b.b.b.b.b.b.b.b.b.b.b.b.#.b.b.#.e.#.b.#.#.e.#.#.#.#.#.#.#.#.#.f.#.#.c.d.d.d.d",
"QtQtQtQtQtQtQtQtQtQtQtQtQtQtQtQt.g.h.i.h.h.h.h.h.h.h.h.h.h.h.h.h.h.h.j.j.j.k.h.h.k.l.k.j.k.k.k.k.k.k.k.k.k.k.k.k.k.l.j.mQtQtQtQt",
"QtQtQtQtQtQtQtQtQtQtQtQtQtQt.n.o.k.k.p.q.q.q.h.h.q.h.h.h.h.h.q.h.h.h.h.h.j.h.h.h.j.h.j.j.j.j.h.j.j.j.j.j.k.j.k.k.j.k.q.h.rQtQtQt",
"QtQtQtQtQtQtQtQtQtQtQtQtQtQt.s.h.k.t.u.v.w.w.x.x.y.x.x.z.z.x.w.x.A.x.B.x.C.C.B.D.E.C.E.F.G.H.D.E.E.I.H.E.J.H.K.J.H.L.M.k.N.OQtQt",
"QtQtQtQtQtQtQtQtQtQtQtQtQt.n.P.k.q.w.Q.v.v.v.v.v.v.v.v.v.v.v.v.v.v.v.v.v.v.v.v.v.Q.v.Q.Q.Q.Q.v.Q.Q.Q.Q.Q.Q.Q.R.S.T.U.V.k.W.nQtQt",
"QtQtQtQtQtQtQtQtQtQtQtQt.O.X.k.k.Y.S.y.y.y.y.y.y.y.y.y.y.y.y.y.y.y.y.y.y.y.y.y.y.y.y.y.y.y.y.y.y.y.y.y.y.v.v.y.R.Z.0.k.k.1.nQtQt",
".d.d.d.d.d.d.d.d.d.d.d.d.c.2.k.3.y.v.y.y.y.y.y.y.y.y.y.y.y.y.y.y.y.y.y.y.y.y.y.y.y.y.y.y.y.y.y.y.y.y.y.R.x.D.v.E.4.p.j.k.g.c.d.d",
".b.b.b.b.b.5.d.b.b.b.bQt.6.k.k.7.8.y.y.y.y.y.y.y.y.y.y.y.y.y.y.y.y.y.y.y.y.y.y.y.y.y.y.y.y.y.y.y.y.y.y.K.9#.###a#b.j.q.k.g#c.b.b",
"QtQtQtQtQt.#.bQtQtQtQt.n.V.k#d.R.v.y.y.y.y.y.y.v.v.v.v.v.v.v.v.v.v.v.v.v.v.v.v.v#e.y.y.y.y.y.y.y.y.y#f.9.k.9.S#g.p.q.q.k.m.nQtQt",
"QtQtQtQtQt.#.bQtQtQt.O.6.k.k#h.R.y.y#e.v.Q.v.y.x.x.B.F.F.E.E#i.H.H.K.H.E.F.D.x.z.w.v.v.v.v.v.Q.R.R.R.R.D#j#k#l.q.k.g.i.k.P.nQtQt",
"QtQtQtQtQt.#.bQtQtQtQt.9.1#m#n#o#n#n#n#n#p#n#q.Z#q#r#s#n#t#u#v#q#w#x.7#a#s#q#q#o#r#y#y#y#z#z#A#B#C#D#E#F#G#H#I.q.h.W.q.k.P.nQtQt",
"QtQtQtQtQt.#.bQtQtQt#J#K#L.U#K#M#N#M#K#O#P#Q#R#S#T#U#V#W#X#Y#Z#0#S#1#2#3#J#.#.#.#.#.#..U.U.U.U.U.U.U.U.U.U#.#r#O.o#4.q.k.P.nQtQt",
".b.b.b.b.b.5#5.b.b.d#K#K#6#3#v#w#7#8#9a.a##7#xaaaba##0acadaeaf#3agahahagagagagagagagagagagagagagagagagag#6aiaj.Uak#4.i.k.pQt.b.b",
".b.b.b.b.b.b.b.b.b#5al#K#u#3#qam#a#p.Z#vagag#v#p#p#q#vanag#u#3#3#v#v#v#vao#v#v#v#v#v#v#v#v#v#v#v#v#v#v#v#3a##x#M.N#4.h.kapQt.b.b",
"QtQtQtQtQtQtQtQt.e.3aq#varas#n#n#o#r#n#p#p#p#pat#p#patatat#p#n#n#nat#nat#yas#p#p#p#nat#p#p#p#n#n#q.Z#t#v#v#Q.a.aau#4.h.k.p.nQtQt",
"QtQtQtQtQtQtQt.n.g.k.q.x.Q.E.y.y.w.w.w.y.y.y.y.y.y.y.y.w.w.y.w.w.w.w.w.y.v.y.y.y.y.w.y.y.y.y.w.wav.B.E.Eaw#d.a.a#M#4.i.k.p.nQtQt",
"QtQtQtQtQtQtQt.X.k.kaxay.9#daz.v#e#e.y.y.y.y.y.y.y.y.y.y.y.y.y.y.y.y.y.y.y.y.y.y.y.y.y.y.y.y.y#e.v.v.8#H.k.q#J.aau#4.i.k.V.nQtQt",
"QtQtQtQtQtQt.n.P.k.3.u#O.k.3aA.Q.y.y.y.y.y.y.y.y.y.y.y.y.y.y.y.y.y.y.y.y.y.y.y.y.y.y.y.y.y.y.y.y.y.y.8.t.h.q#5aB.o#4.i.k.V.nQtQt",
".#.#.#.#.#.d.6.k.k.TaC.k.k.kaD.8.y.y.y.y.y.y.y.y.y.y.y.y.y.y.y.y.y.y.y.y.y.y.y.y.y.y.y.y.y.y.y.y.y.v.FaE.q.P.aaF#4#4.q.k.V.b.#.#",
"QtQtQtQtQt.O.p.k.9az.x.Y#Oam.x.v.y.y.y.y.y.y.y.y.y.y.y.y.y.y.y.y.y.y.y.y.y.y.y.y.y.y.y.y.y.y.y.y.y.QaGaH.h#4#4#4#4#4.q.k.VQtQtQt",
"QtQtQtQt.OaI.k.j.K.R.y.8.S.8.v.y.y.y.y.y.y.y.y.y.y.y.y.y.y.y.y.y.y.y.y.y.y.y.y.y.y.y.y.y.y.y.y.y.y.wad#d.VaJ#4#4#4#4.q.k.V.nQtQt",
"QtQtQtQt.nap.k#6.S.y.y.y.y.y.y.y.y.y.y.y.y.y.y.y.y.y.y.y.y.y.y.y.y.y.y.y.y.y.y.y.y.y.y.y.y.y.y.y.QaKaL.h.m.g.p.g#4#4.V.kap.nQtQt",
"QtQtQt.OaM.k.q.x.Q.y.y.y.y.y.y.y.y.y.y.y.y.y.y.y.y.y.y.y.y.y.y.y.y.y.y.y.y.y.y.y.y.y.y.y.y.y.y.y#eaN.U.h.W.q.l.p#4#4.V.kap.nQtQt",
"QtQtQt.O.h.k#P.S.y.y.y.y.y.y.y.y.y.y.y.y.y.y.y.y.y.y.y.y.y.y.y.y.y.y.y.y.y.y.y.y.y.y.y.y.y.y.y.vaO#X.qaPaJ.h.h#4#4#4ap.k.V.nQtQt",
".#.#.d.W.k.q.x.Q.v.v.v.v.v.v.Q.v.Q.Q.Q.Q.Q.Q.R.R.Q.Q.Q.Q.Q.Q.Q.Q.R.Q.Q.v.Q.Q.Q.Q.Q.v.Q.Q.Q.R.Q#faQ.M.h#4#4.h.jaR#4#4.V.k.q.d.#.#",
"QtQtQt.i.k.7.R.x.x.B.F.E.I.KaSaOaTaKaTaTaQaQaUaV#HaTaT#HaTaT#HaTaQaT.K.I.KaK.KaC.K.C.K.HaC.K.C.B#Q.haP#4#4.2.h.g#4#4.V.kap.OQtQt",
"QtQt.e.k.j.9.9#m#maW#K.UaX.U.0aYaX#3.U#O#O#g#m#m#g#gaWaZaZ.L.1.1#d#da0a0.3.p.p.q.h.h.j.j.j.k.h.h.k.h#4#4#4#4aP.m#4#4ap.kap.nQtQt",
"QtQtQt.h.k.q.3#d#d#d#d#d.P#d#d.P.P.1#d.1a1.L.L.9a2#m#g.U#b.Ma3aEa4a5a6a7a8a6.4a7.Ma2a1.3.q.k.k.k.k.h#4#4#4#4#4#4#4#4ap.kap.nQtQt",
"QtQt.O.h.ka9a9b.b.awawawaw.o.o.oaq.oaqaqa0#d#da0a0a0a0a0a0a0a0a0a0a0.oaq.L.o.L.L.LawawawaZawawb..j.k.m#4#4#4#4#4#4#4.p.k.p.nQtQt",
"QtQtQt.h.ka9ah#J#J#6#6#6#6#6#6#6#6#6#6#6#6#6#6#6ah#6ahahahahah#6#6ahagah#6#6#6#6#6#6#6#6#6#6#6#6.j.k.g#4#4#4#4#4#4#4ap.k.p.OQtQt",
".#.d#5.h.k.o#6#J#J#J#J#J#J#J#J#J#J#J#J#J#J#J#J#J#M.h.p#J.a#..a#J#6.a.o#M#J#J#J#J#J#J#J#J#J#J#6au.k.k.P#4#4#4#4#4#4#4.p.kap.b.#.5",
".bQtQt.h.k.gah#J#J#J#J#J#J#J#J#J#J#J#J#J#J#J#J#J.q.j.q#d.q.h.p.q#d#d.j.pah#J#J#J#J#J#J#J#J#J#6aF.k.kaP#4#4#4#4#4#4#4.p.k.p.nQt.#",
".bQtQt.h.k.3ah#J#J#J#J#J#J#J#J#J#J#J#J#J#J#J#J#J#M.qa9b.aZap.2.q.h.q.ha9#J#J#J#J#J#J#J#J#J#J#J.o.k.kaP#4#4#4#4#4#4#4.q.k.W.nQt.#",
".bQt.n.q.k.qah#J#J#J#J#J#J#J#J#J#J#J#J#J#J#J#J#J#J.p#.#6#.awb..p.9aZawah#J#J#J#J#J#J#J#J#J#J#J#4.k.k.p#4#4#4#4#4#4aR.k.hQtQtQt.#",
".bQt.nap.k.i#6#J#J#J#J#J#J#J#J#J#J#J#J#J#J#J#J#J#J#J#J#J#J#6#Jah#6#6#6#J#J#J#J#J#J#J#J#J#J#J.a.m.j.Vap#4#4#4#4#4#4ap.k.2.nQtQt.#",
".bQt.n.p.k.h#J#J#J#J#J#J#J#J#J#J#J#J#J#J#J#J#J#J#J#J#6#J#J#J#J#J#J#J#J#J#J#J#J#J#J#J#J#J#J#J#..m.h.P.p#4#4#4#4#4#4.j.k.N.OQtQt.#",
".#.#.b.P.k.j#J#J#J#J#J#J#J#J#J#J#J#J#J#J#J#J#Jahah#J.3aZ#6#J#J#J#J#J#J#J#J#J#J#J#J#J#J#J#J#J.a.g.h#dap#4#4#4#4#4.P.k.h.##5.#.#.5",
"QtQt.n#4.k.k.a#J#J#J#J#J#J#J#J#J#J#J#J#6#J#J#..2.3.q.k#m#J#J#J#J#J#J#J#J#J#J#J#J#J#J#J#J#J#J#M.g.h.P.V#4#4#4#4#4.i.k.P.nQtQtQtQt",
"QtQt.n.W.k.k#M#J#J#J#J#J#J#J#J#J#J#J#Ja9#J#6.i.k.h.hb.#6#J#J#J#J#J#J#J#J#J#J#J#J#J#J#J#J#J#J#M.g.hb#.V#4#4#4#4aR.k.k.6.OQtQtQtQt",
"QtQt.OaM.k.kau#J#J#J#J#J#J.a.a#J#J#6.p.k.q#d.kaw#6#J#6#J#6.a#.#J#J#J#J#J#J#J#J#J#J#J#J#J#J#Jau.g.h.p.q#4#4#4#4ap.k.hQtQtQtQtQtQt",
"QtQt.OaM.k.kaZ#6#J#J#J#J#J.h.q#6#6aw.k.p.j.k.p#6#J#J#J#6aD.jaq#6#J#J#J#J#J#J#J#J#J#J#J#J#J#Jau.g.h.q.q#4#4#4#4.h.k#4.nQtQtQtQtQt",
"QtQt.O.r.k.k.o#6#J#J#J#6b..k.ka9ah.h.h#6#KaZ#J#J#Jah#M.i.k.h#M#J#J#J#J#J#J#J#J#J#J#J#J#J#J#JauaR.h.hap#4#4#4.P.k.k.r.OQtQtQtQtQt",
".b.b.bba.k.ka0ah#J#J#Jah.p.p.q.2#d.kb.ah#J#6ah#J#Jaw.k.haZ#J#J#J#J#J#J#J#J#J#J#J#J#J#J#J#J#JauaR.h.hap#4#4#4.q.k.ibb.b.b.b.b.b.b",
".5.5.#aB.l.k#dah#J#J#J#J.ib.b..k.k.3ah#.#6#6#d.h.j.k.q#.ah#J#J#J#J#J#J#J#J#J#J#J#J#J#J#J#J#J.NaR.h.k.V#4#4.m.k.ka0.d.5.5.5.5.5.5",
"QtQtQtQt.h.k.pah#J#J#J#J#.#J#6aZawag.3.k#d.p.k.3a0b.#6#J#J#6ah#6#J#J#J#J#J#J#J#J#J#J#J#J#J#J.N#4.l.k.q#4#4.p.k.k.#.OQtQtQtQtQtQt",
"QtQtQt.O.h.kbcah#J#J#J#J#J#J#J#6ag.L.k.p.k.kawagah#6#J#J#J#d.qaq#J#J#J#J#J#J#J#J#J#J#J#J#J#Jb.#4.k.k.q#4#4.h.kap.nQtQtQtQtQtQtQt",
"QtQtQt.n.V.k.qah#J#J#J#J#J#J#J#J.a.h.2aga9#M#6#J#J#J#J#6.g.q.p#d#6#J#J#J#J#J#J#J#J#J#J#J#J#J.N#4.k.k.q.o.g.k.kbd.nQtQtQtQtQtQtQt",
"QtQtQt.n.p.k.h#6#J#J#J#J#J#J#J#6#d.q#J#J#J#J#J#J#J#J#J#J#.#Jah#6#J#J#J#J#J#J#J#J#J#J#J#J#J#Jb.#4.k.k.q.W.V.k.jQtQtQtQtQtQtQtQtQt",
"QtQtQt.n.P.k.h#J#J#J#J#J#J#J#J#J#J#J#J#J#J#J#J#J#J#J#J#J#J#J#J#J#J#J#J#J#J#J#J#J#J#J#J#J#J#Jbe#4.l.k.q.W.j.kaP.nQtQtQtQtQtQtQtQt",
".#.#.#.b#d.k.j#J#J#J#J#J#J#J#J#J#J#J#J#J#J#J#J#J#J#J#J#J#J#J#J#J#J#J#J#J#J#J#J#J#J#J#J#J#J.a.o#4.l.k.q.g.k.k.N.d.#.#.#.#.#.#.#.#",
".5.b.b.c#4.k.k#.#J#J#J#J#J#J#J#J#J#J#J#J#J#J#J#J#J#J#J#J#J#J#J#J#J#J#J#J#J#J#J#J#J#J#J#J#J#.#4#4.j.k.V.V.k.iQt.b.b.b.b.b.b.b.b.b",
".#QtQt.n.N.k.k#M#J#J#J#J#J#J#J#J#J#J#J#J#J#J#J#J#J#J#J#J#J#J#J#J#J#J#J#J#J#J#J#J#J#J#J#J#J#M#4#4.j.k.i.l.k.o.nQtQtQtQtQtQtQtQtQt",
".#QtQt.OaM.k.kb.#6#J#J#J#J#J#J#J#J#J#J#J#J#J#J#J#J#J#J#J#J#J#J#J#J#J#J#J#J#J#J#J#J#J#J#J#6b.#4#4.h.k.h.k.k.XQtQtQtQtQtQtQtQtQtQt",
".#QtQt.O.f.k.kawah#J.a.a#J#J#J#J.a.a.abf#M#M#Maubgb.b.auaub.bg.Nauauau.N.Nau.Nauauauauauaube#4#4.j.k.k.kap.nQtQtQtQtQtQtQtQtQtQt",
".#QtQtQtba.k.k.gb..W.oaJ.W.o.o.o.o#4#4#4#4#4#4#4#4#4#4#4#4#4#4#4#4#4#4#4#4#4#4#4#4#4#4#4#4#4#4#4.h.k.k.kbh.OQtQtQtQtQtQtQtQtQtQt",
".#QtQtQt.e.k.kapaJ#4#4#4#4#4#4#4#4#4#4#4#4#4#4#4#4#4#4#4#4#4#4#4#4#4#4#4#4#4#4#4#4#4#4#4#4#4#4aJ.h.k.k.j.sQtQtQtQtQtQtQtQtQtQtQt",
"aB.a.a.5aB.j.k.j.h.h.h.h.h.j.j.j.j.l.j.j.j.j.j.j.j.l.j.j.j.j.h.j.j.h.j.j.h.j.h.h.j.j.h.j.j.h.h.j.k.k.k.p.b.#.#.#.#.#.#.#.#.#.#.#",
"QtQtQtQtQt.P.k.k.k.k.k.k.k.k.k.k.k.k.k.k.k.k.k.k.k.k.k.k.k.k.k.k.k.k.k.k.k.k.k.k.k.k.k.k.k.k.k.k.k.k.kbiQtQtQtQtQtQtQtQtQtQtQtQt",
"QtQtQtQtQt.O.raF#4.g.g.g.P.P.paP.P.p.P.2aPaP.paP.p.p.2aP.paP.2.p.P.p.p.p.p.p.2.P.p.p.p.p.p.paP.p.p.paF.5QtQtQtQtQtQtQtQtQtQtQtQt",
"QtQtQtQtQtQtQt.n.n.n.n.n.n.nbb.n.n.n.n.n.n.n.n.n.n.n.n.n.n.n.n.n.n.n.n.n.n.n.n.n.n.n.n.n.n.n.n.n.n.nQt.aQtQtQtQtQtQtQtQtQtQtQtQt",
"QtQtQtQtQtQtQtQtQtQtQtQtQtQt.#QtQtQtQtQtQtQtQtQtQtQtQtQtQtQtQtQtQtQtQtQtQtQtQtQtQtQtQtQtQtQtQtQtQtQtQt.aQtQtQtQtQtQtQtQtQtQtQtQt",
"QtQtQtQtQtQtQtQtQtQtQtQtQtQt.#QtQtQtQtQtQtQtQtQtQtQtQtQtQtQtQtQtQtQtQtQtQtQtQtQtQtQtQtQtQtQtQtQtQtQtQt.aQtQtQtQtQtQtQtQtQtQtQtQt"};
