/* XPM */
static char *dummy[]={
"64 64 424 2",
".R c #000000",
".S c #161519",
"#m c #1c1500",
".8 c #222126",
"#9 c #272117",
"#u c #2b0002",
".T c #2f2925",
".7 c #33001a",
"#l c #35312f",
"ck c #391527",
"cj c #3b3737",
"a. c #3c1518",
"cS c #3e2130",
"#t c #3e362e",
"#H c #412126",
".9 c #413c3e",
"aY c #433c36",
"#Z c #454144",
"b# c #46292f",
"#D c #47524e",
"dX c #48413d",
"#1 c #4a3037",
"#n c #4a4649",
"cT c #4e373e",
"ca c #503736",
"#8 c #523c44",
".Q c #543c3d",
"bG c #544e4e",
"eE c #564e48",
"av c #584143",
"cU c #59514d",
"eL c #5b3037",
".U c #5b4549",
"aL c #5c5552",
"bo c #5d4543",
"cl c #5e363e",
"#T c #5e4a4e",
"#k c #5e585b",
"dq c #603636",
"bp c #603c4a",
"#j c #604a48",
"ec c #605857",
"#C c #606462",
"eJ c #615851",
"cv c #615c5f",
"dr c #623c44",
"eK c #634e4d",
".a c #644d48",
"dd c #653b35",
"cG c #654149",
".w c #665152",
".e c #67514d",
"bg c #68413c",
"#f c #68454e",
".c c #694549",
"bV c #6a4542",
".O c #6a4a53",
"#. c #6b6466",
".# c #6c4a4e",
"#g c #6d3635",
".f c #6d4948",
".g c #6d4e58",
"aj c #6e5851",
"#i c #6f362c",
".b c #6f4d53",
".d c #704d4d",
"Qt c #715157",
".n c #725152",
"eb c #74454e",
".P c #74555b",
"bE c #747676",
".6 c #754a58",
".x c #755557",
"c# c #764953",
".y c #76615e",
".V c #786462",
"#P c #787875",
"ai c #794d57",
".K c #795b63",
"bF c #7b515b",
"#U c #7c3b34",
".m c #7c5e63",
"ei c #7c716c",
".k c #7d555f",
"dL c #7d6a69",
"b3 c #7e403b",
"#0 c #7e6c70",
"de c #7f6a61",
"bN c #837872",
"cF c #838383",
"cR c #848b88",
"bM c #858d8d",
".N c #886c70",
"#o c #887f81",
"aK c #888f8d",
"eD c #8a7f7b",
"dW c #8c6461",
".4 c #8c7176",
".h c #8f7476",
"bq c #91514c",
"#h c #954947",
"#s c #967d81",
"#B c #979494",
"cm c #99857d",
"aQ c #998c87",
"ex c #9b7672",
"## c #9b9e9c",
".l c #9d8383",
"d5 c #9d9089",
"#Q c #9f9c9e",
"c. c #a07167",
".j c #a08583",
"dC c #a5928e",
"#v c #a65749",
".v c #a79598",
"bf c #a7a8aa",
"#e c #a89096",
"#c c #a9898a",
"#2 c #aa544a",
"ep c #aaabab",
".H c #ac8a8a",
"bW c #ae9a95",
"b. c #aeb4b2",
".5 c #af9ea0",
"aw c #b0a29b",
"a1 c #b26052",
"a# c #b3574e",
".z c #b39f9b",
"#r c #b3a1a2",
"c4 c #b3a59f",
".L c #b3a7a8",
".W c #b3adab",
"#I c #b45a53",
"cb c #b49890",
"bb c #b55a4e",
"eF c #b5a199",
"ea c #b5a8a5",
"bc c #b65d53",
"c6 c #b7534f",
"es c #b7695b",
"#O c #b7bbbb",
"er c #b85754",
"#3 c #b86052",
"#4 c #b86057",
".t c #b89d99",
"b4 c #b8a49f",
"ds c #b96e66",
"aZ c #b9978d",
"ee c #ba665f",
".1 c #baa8ab",
"by c #bb7a70",
".i c #bba7a1",
"ef c #bc5d57",
"br c #bc6656",
"ba c #bc695f",
"dY c #bcaca4",
"#S c #bcafb1",
"el c #bd7c70",
"#w c #be6057",
"a0 c #be6b63",
"al c #be756d",
"eI c #beaaa5",
"df c #bf635b",
"cc c #bf7770",
"#q c #bfaba7",
"cn c #c0665f",
"ey c #c17066",
"dt c #c27369",
"ak c #c27c73",
"ez c #c2847b",
"ew c #c2c4c2",
"cV c #c3b3ac",
"du c #c49790",
"cH c #c4afaa",
".r c #c5aba7",
"ed c #c5b1aa",
".u c #c5b4b8",
"cW c #c7665a",
"co c #c7847e",
".o c #c7aca6",
"c5 c #c88c83",
".A c #c8b3ae",
"bz c #c96b62",
"d4 c #c9958d",
"aS c #c9aea4",
"ej c #c9b9af",
"aa c #ca635a",
"#J c #ca6b5e",
"cw c #caa9a2",
"eH c #cab5ad",
"bP c #cba59e",
"#Y c #cbcccb",
"em c #cc665a",
"eG c #ccb7b1",
"eg c #cd7061",
"a2 c #cd7369",
"eq c #cda098",
".D c #cdb3ae",
"aE c #cdb7af",
"dN c #cdbcb4",
"#A c #cdcdcd",
"bh c #ce7265",
"cd c #cea8a0",
"eA c #ceb3ab",
"dD c #ceb9b1",
"aD c #ced3d1",
"aF c #cfbab3",
"bY c #cfbfb8",
".q c #d0bbb4",
"ci c #d0cbca",
"c7 c #d17768",
"dZ c #d1b7b3",
"b5 c #d1bbb2",
"dO c #d1c0b7",
".I c #d1c1bd",
"#E c #d1d1cf",
".B c #d2bcb6",
"eB c #d2c1b9",
"#p c #d2d2cf",
"#N c #d2d2d1",
"cx c #d3b9b3",
"ax c #d3beb6",
"dv c #d3beb8",
"cJ c #d3c3bd",
"#V c #d47568",
"bH c #d4a9a4",
"dM c #d4bfb8",
"b6 c #d4c4bc",
".M c #d4cbcd",
"#a c #d4d4d4",
"dg c #d58677",
"aR c #d6bbb4",
"eC c #d6c0b7",
"bX c #d6c0b9",
".E c #d6c3c2",
"ek c #d6c5bc",
"bQ c #d79185",
".p c #d7c1bb",
"bO c #d7c6be",
"d6 c #d7c6c0",
"dB c #d89a91",
".s c #d8c3bb",
"cI c #d8c3bd",
"et c #d8c4c0",
"d7 c #d9958a",
".C c #d9c4bc",
"bd c #da7d6e",
"aT c #dac5c0",
"cy c #dacec7",
"dE c #dbbbb2",
"eh c #dc796f",
"cK c #e0b0a7",
"dw c #e0d5d2",
"#G c #e0d6d8",
".J c #e0dada",
"en c #e1a097",
".X c #e1e4e3",
"#5 c #e37b6a",
"d8 c #e47d6e",
"bs c #e48573",
"#b c #e4d7d1",
"ay c #e4d8d4",
"cB c #e57f6d",
"cL c #e58776",
"aq c #e68170",
"as c #e68979",
".Z c #e6d9d4",
"dT c #e77b6e",
"aI c #e78373",
"dm c #e78b7c",
"am c #e7a89f",
"aM c #e7dbd8",
"bx c #e7e7e5",
"ar c #e87d71",
"aA c #e88576",
"cY c #e8867a",
"bt c #e88d7f",
"ap c #e97d6d",
"cO c #e97f74",
"bI c #e98573",
"cX c #e98779",
"aO c #e98d7c",
"#F c #e9dcd7",
"aX c #e9edec",
"c8 c #ea7f71",
"bi c #ea8776",
"b1 c #ea9184",
"ao c #ea9686",
"bA c #ea9e92",
"cg c #eb8174",
"cr c #eb9181",
"bj c #eb9387",
"aB c #eb998e",
"d9 c #eb9e90",
"#d c #ebe3e2",
"aG c #ebe6e1",
"#K c #ec8b7c",
"#x c #ec9489",
"#W c #ec998b",
"bv c #ec9b90",
"aV c #eca092",
"dc c #eca79d",
"bn c #ececea",
"dU c #ed8d7f",
"dk c #eda79b",
"dh c #edcac2",
".3 c #ede0dc",
".Y c #ede9e8",
"b2 c #ee8779",
"bR c #ee9689",
"cu c #ee9e95",
"cf c #eea397",
"ct c #eea49b",
"bS c #eea99d",
"af c #eeaaa1",
"dx c #eeccc9",
"b9 c #ef8979",
"be c #efa499",
"dz c #efaa9f",
"#z c #efefef",
"ab c #f0a094",
"cq c #f0a79f",
"b8 c #f0ada5",
"a7 c #f0b3ab",
"c3 c #f0b8b0",
"eu c #f0ebe8",
"cN c #f1afa7",
"aH c #f1b4ac",
"#6 c #f1b9b2",
"dp c #f28d7b",
"dJ c #f2a396",
"a3 c #f2a99f",
"di c #f2afa5",
"cC c #f2b0a9",
"dj c #f2b4aa",
"dR c #f2b9b0",
"ag c #f2bbb3",
"a6 c #f2c9c0",
"au c #f2f2f2",
"ch c #f3988b",
"bU c #f3b5ac",
"dS c #f3cbc4",
"dA c #f4998e",
"ae c #f4bdb7",
"a8 c #f4c2bc",
"az c #f4c7c1",
"d2 c #f4ccc5",
"dP c #f4ebea",
".G c #f4f0ef",
"#M c #f4f4f3",
"cD c #f5c3be",
"d. c #f5c8c2",
"do c #f5cdc7",
"aN c #f6c9c4",
"d1 c #f6cec7",
"dn c #f6cec8",
"bm c #f6cfcb",
"c2 c #f6d3cd",
"e. c #f6d7d1",
"bC c #f6e0da",
"bZ c #f6f2f1",
"cz c #f6f4f2",
"cE c #f7cbc5",
"d# c #f7cfca",
"dH c #f7d8d2",
"bK c #f7ddd9",
"c1 c #f7e1dc",
"dF c #f7f3f3",
"at c #f8dedb",
"a9 c #f8e2df",
"c0 c #f8e6e2",
"bD c #f9dbd8",
"bT c #f9dfdb",
".0 c #f9f3f1",
"dy c #fad8d5",
"aW c #fadfd9",
"dl c #fae4e1",
"cZ c #faece9",
"d0 c #faf9f9",
"d3 c #fba396",
"e# c #fbd4ce",
"dI c #fbe9e6",
"bJ c #fbf1ed",
"#L c #fbf2ef",
"eo c #fbfaf9",
"b0 c #fce6e4",
"bw c #fceae7",
"dG c #fcebea",
"a4 c #fcefec",
"cp c #fcf3f1",
"a5 c #fcf3f4",
"cs c #fcf7f7",
"#X c #fcfbfa",
"bB c #fcfdfb",
"dK c #fdbeb8",
"ah c #fde7e5",
"bl c #fdf0ef",
"cA c #fdf7f5",
"ce c #fdf7f6",
"bk c #fdfbf9",
"#7 c #fdfbfc",
"c9 c #fdfefc",
"#R c #fdffff",
"ad c #feeded",
"aJ c #fef0ec",
"an c #fef1f0",
"aP c #fef4f2",
"da c #fef4f4",
"aU c #fef8f7",
"cM c #fef9f9",
"b7 c #fef9fb",
"cQ c #fefbfa",
"#y c #fefcfd",
"aC c #fefffc",
"bu c #fefffe",
"dV c #ffc0b8",
"ac c #fff5f5",
"db c #fff6f6",
"bL c #fff9f8",
"dQ c #fffcfb",
"cP c #fffdfd",
".2 c #fffdfe",
"ev c #fffefe",
".F c #ffffff",
"QtQtQtQtQtQtQtQtQtQtQtQtQtQt.#QtQtQtQtQtQtQtQtQtQtQtQtQtQtQtQtQtQtQtQtQtQtQtQtQtQtQtQtQtQtQtQtQtQtQtQt.aQtQtQtQtQtQtQtQtQtQtQtQt",
".b.b.b.b.b.b.b.b.b.b.b.b.b.b.#.b.b.b.b.b.b.b.b.b.b.b.b.b.b.b.b.b.b.b.b.b.b.b.b.b.b.b.b.b.b.b.b.b.b.b.b.c.b.b.b.b.b.b.b.b.b.b.b.b",
".d.d.d.d.d.d.d.d.d.d.d.d.d.d.d.b.#.#.b.b.b.b.b.b.b.b.b.b.b.b.b.b.b.b.b.b.b.b.b.b.b.b.b.b.b.b.b.b.b.b.b.b.b.b.b.b.a.e.d.d.d.d.d.d",
"QtQtQtQtQtQtQtQtQtQtQtQtQtQtQtQt.e.eQtQtQtQtQtQtQtQtQtQtQtQtQtQtQtQtQtQtQtQtQtQtQtQtQtQtQtQtQtQtQtQtQtQtQtQtQtQt.fQtQtQtQtQtQtQt",
"QtQtQtQtQtQtQtQtQtQtQtQtQtQtQtQt.e.eQtQtQtQtQtQtQtQtQtQtQtQtQtQtQtQtQtQtQtQtQtQtQtQtQtQtQtQtQtQtQtQtQtQtQtQtQtQt.fQtQtQtQtQtQtQt",
"QtQtQtQtQtQtQtQtQtQtQtQtQtQtQtQt.e.eQtQtQtQtQtQtQtQtQtQtQtQtQtQtQtQtQtQtQtQtQtQtQtQtQtQtQtQtQtQtQtQtQtQtQtQtQtQt.fQtQtQtQtQtQtQt",
"QtQtQtQtQtQtQtQtQtQtQtQtQtQtQtQt.e.eQtQtQtQtQtQtQtQtQtQtQtQtQtQtQtQtQtQtQtQtQtQtQtQtQtQtQtQtQtQtQtQtQtQtQtQtQtQt.fQtQtQtQtQtQtQt",
"QtQtQtQtQtQtQtQtQtQtQtQtQtQtQtQt.e.eQtQtQtQtQtQtQtQtQtQtQtQtQtQtQtQtQtQtQtQtQtQtQtQtQtQtQtQtQtQtQtQtQtQtQtQtQtQt.fQtQtQtQtQtQtQt",
".d.d.d.d.d.d.d.d.d.d.d.d.d.d.d.b.#.#.b.d.d.d.d.d.d.d.d.d.d.d.d.d.d.d.d.d.d.d.d.d.d.d.d.d.d.d.d.d.d.d.d.d.d.d.d.d.a.e.d.d.d.d.d.d",
".b.b.b.b.b.f.d.b.b.b.b.b.b.b.b.b.b.b.b.b.b.b.b.b.b.b.b.b.b.b.b.b.b.b.b.b.#.#.b.b.b.b.b.b.b.b.b.b.b.b.b.b.b.b.b.b.b.b.b.b.b.b.b.b",
"QtQtQtQtQt.#.bQtQtQtQtQtQtQtQtQtQtQtQtQtQtQtQtQtQtQtQtQtQtQtQtQtQtQtQtQt.#.bQtQtQtQtQtQtQtQtQtQtQtQtQtQtQtQtQtQtQtQtQtQtQtQtQtQt",
"QtQtQtQtQt.#.bQtQtQtQtQtQtQtQtQtQtQtQtQtQtQtQtQtQtQtQtQtQtQtQtQtQtQtQtQt.#.bQtQtQtQtQtQtQtQtQtQtQtQtQtQtQtQtQtQtQtQtQtQtQtQtQtQt",
"QtQtQtQtQt.#.bQtQtQtQtQtQtQtQtQtQtQtQtQtQtQtQtQtQtQtQtQtQtQtQtQtQtQtQtQt.#.bQtQtQtQtQtQtQtQtQtQtQtQtQtQtQtQtQtQtQtQtQtQtQtQtQtQt",
"QtQtQtQtQt.#.bQtQtQtQtQtQtQtQtQtQtQtQtQtQt.bQtQt.g.b.gQtQtQtQtQtQtQtQtQt.#.bQtQtQtQtQtQtQtQtQtQtQtQtQtQtQtQtQtQtQtQtQtQtQtQtQtQt",
".b.b.b.b.b.f.e.b.b.b.b.b.b.b.b.b.b.b.b.b.d.h.i.j.k.l.m.#.#.#.b.b.b.b.b.b.#.#.b.b.b.b.b.b.b.b.b.b.b.b.b.b.b.b.b.b.b.b.b.b.b.b.b.b",
".b.b.b.b.b.b.b.b.b.b.b.b.b.b.b.b.b.b.b.b.n.o.p.q.r.s.t.m.u.v.w.xQt.b.#.b.b.b.b.b.b.b.b.b.b.b.b.b.b.e.#.b.b.b.b.b.b.b.b.b.b.b.b.b",
"QtQtQtQtQtQtQtQtQtQtQtQtQtQtQtQtQtQtQtQt.b.y.z.A.B.C.D.E.F.G.H.I.J.K.L.M.N.#.OQtQtQtQtQtQtQtQtQtQt.b.eQtQtQtQtQtQtQtQtQtQtQtQtQt",
"QtQtQtQtQtQtQtQtQtQtQtQtQtQtQtQtQtQtQt.P.Q.R.R.S.T.U.V.W.X.Y.Z.0.F.1.2.3.j.4.5.m.6QtQtQtQtQtQtQtQt.b.eQtQtQtQtQtQtQtQtQtQtQtQtQt",
"QtQtQtQtQtQtQtQtQtQtQtQtQtQtQtQtQtQtQt.x.7.R.R.R.R.R.R.R.R.8.9#.###a.F#b#c#d.F#e.c.bQtQtQtQtQtQtQt.b.eQtQtQtQtQtQtQtQtQtQtQtQtQt",
"QtQtQtQtQtQtQtQtQtQtQtQtQtQtQtQtQtQt.x#f.R.R#g#h#i#j#k#l.S.R.R.R.R#m#n#o#p.F.F#q#r#s.bQtQtQtQtQtQt.b.eQtQtQtQtQtQtQtQtQtQtQtQtQt",
".#.#.#.#.#.#.#.#.#.#.#.#.#.#.#.#.#.#.b#t.R#u#v#w#w#x.F#y#z#A#B#C.8.R.R.R#m#D#E#F.F#G.#.e.e.e.e.e.e.#.a.#.#.#.#.#.#.#.#.#.#.#.#.#",
"QtQtQtQtQtQtQtQtQtQtQtQtQt.#.bQtQtQtQt.S.R#H#w#I#J#K#L.F.F.F.F.F#M#N#O#P.R.R.S#Q#R#S.O.b.eQtQtQtQtQtQtQtQtQtQtQtQtQtQtQtQtQtQtQt",
"QtQtQtQtQtQtQtQtQtQtQtQtQt.#QtQtQt.x#T.R.R#U#w#I#V#W#X.F.F.F.F.F.F.F.F.F#Y#Z.R.R#0.mQt.b.dQtQtQtQtQtQtQtQtQtQtQtQtQtQtQtQtQtQtQt",
"QtQtQtQtQtQtQtQtQtQtQtQtQt.#QtQtQt.P#1.R.R#2#3#4#5#6.F.F.F.F.F.F.F.F.F.F.F#7#P.R#8QtQt.b.dQtQtQtQtQtQtQtQtQtQtQtQtQtQtQtQtQtQtQt",
"QtQtQtQtQtQtQtQtQtQtQtQtQt.#QtQtQt.P#9.Ra.#3a#aaabac.F.F.F.Fadaeafagah.F.F.F#C.R#faiQt.b.dQtQtQtQtQtQtQtQtQtQtQtQtQtQtQtQtQtQtQt",
"QtQtQtQtQtQtQtQtQtQtQtQtQt.#QtQtQt.b.R.Rajakalaman.F.F.F.Fadaoapaqarasat.Fau.8.Rav.xQt.b.dQtQtQtQtQtQtQtQtQtQtQtQtQtQtQtQtQtQtQt",
".#.#.#.#.#.#.#.#.#.#.#.#.#.f.#.#.b.Q.R.Rawaxay.F.F.F.F.F.FazapaAaAaAaqaBaCaD.R.R#j.d.#.f.f.#.#.#.#.#.#.#.#.#.#.#.#.#.#.#.#.#.#.#",
"QtQtQtQtQtQt.6.#QtQtQtQtQtQtQtQt.P.T.R.8aEaFaG.F.F.F.F.F.FaHaqaAaAaAaIaIaJaK.R#9.PQt.#.bQtQtQtQtQtQtQtQtQtQtQtQtQtQtQtQtQtQtQtQt",
"QtQtQtQtQtQtQt.#QtQtQtQtQtQtQtQtQt.S.RaL.CaFaM.F.F.F.F.F.FaNaraAaAaAaIaOaP#D.R#l.PQt.#.bQtQtQtQtQtQtQtQtQtQtQtQtQtQtQtQtQtQtQtQt",
"QtQtQtQtQtQtQt.#QtQtQtQtQtQtQt.x#j.R.RaQaRaSaT.F.F.F.F.F.FaUaVapaqaraAaWaX.S.Rav.PQt.#.bQtQtQtQtQtQtQtQtQtQtQtQtQtQtQtQtQtQtQtQt",
"QtQtQtQtQtQtQt.#QtQtQtQtQtQtQt.PaY.R.SaZa0a1a2a3a4.F.F.F.F.Fa5a6a7a8a9.Fb..R.R.bQtQt.#.bQtQtQtQtQtQtQtQtQtQtQtQtQtQtQtQtQtQtQtQt",
"QtQtQtQtQtQt.6.#QtQtQtQtQtQtQt.x.8.Rb#babbbcbdaqbe#7.F.F.F.F.F.F.F.F.F.Fbf.Rb#.xQtQt.#.bQtQtQtQtQtQtQtQtQtQtQtQtQtQtQtQtQtQtQtQt",
".#.#.#.#.#.#.#.#.#.#.#.#.#.#.d.##u.Rbg#w#IbhbiaIbjbk.F.F.Fblbm.F.F.F.Fbn.9.Rbo.d.#.#.#.#.#.#.#.#.#.#.#.#.#.#.#.#.#.#.#.#.#.#.#.f",
".bQtQtQtQtQtQtQtQtQtQtQtQtQt.xbp.R.Rbq#3brbsaAaIbt#L.F.Fbuafbvbw.F.F.Fbx.T.R.U.PQtQtQtQtQtQtQtQtQtQtQtQtQtQtQtQtQtQtQtQtQtQtQt.#",
".bQtQtQtQtQtQtQtQtQtQtQtQtQt.Pb#.R.8bybbbzbiaAaqbAbB.F.FbCaqaobD.F.F.F.FbE.R.QbFQtQtQtQtQtQtQtQtQtQtQtQtQtQtQtQtQtQtQtQtQtQtQt.#",
".bQtQtQtQtQtQtQtQtQtQtQtQtQtQt.S.RbGbH#4#JbIaqaAbD.F.F.FbJbKbL.F.F.F.F.FbM.R.Rb#Qt.xQtQtQtQtQtQtQtQtQtQtQtQtQtQtQtQtQtQtQtQtQt.#",
".bQtQtQtQtQtQtQtQtQtQtQtQtQt.b#u.RbNbObPbQbRbSbT.F.F.F.F.F.F.F.F.F.Fa5azbUbV.R.R.S#T.PQtQtQtQtQtQtQtQtQtQtQtQtQtQtQtQtQtQtQtQt.#",
".bQtQtQtQtQtQtQtQtQtQtQtQt.x#f.R.RbWbXbYbZ#X.F.F.F.F.F.F.F.F.F.F.Fb0b1araIb2b3.R.R.R.Q.PQtQtQtQtQtQtQtQtQtQtQtQtQtQtQtQtQtQtQt.#",
".#.#.#.#.#.#.#.#.#.#.#.#.#.d.Q.R.Rb4b5b6b7.F.F.F.F.F.F.F.F.F.F.F.Fb8apaAaAbib9c..S.R.R#l.d.#.#.#.#.#.f.#.#.#.#.#.#.#.#.#.#.#.#.f",
"QtQtQtQtQtQtQtQtQtQtQtQtQtc#ca.R.Rcbcccd#7.F.F.F.Fcece.F.F.F.F.F.FcfaqaAaAaAcgchcicj.R.Rck.gQtQtQtQt.d.eQtQtQtQtQtQtQtQtQtQtQtQt",
"QtQtQtQtQtQtQtQtQtQtQtQtQt.bcl.R.Rcmcnco#y.F.Fcpcqcrcra7cs.F.F.F.FctaqaAaAaAaqcu.Faucv.R.R#9.b.xQtQt.b.eQtQtQtQtQtQtQtQtQtQtQtQt",
"QtQtQtQtQtQtQtQtQtQtQtQtQt.d.#.S.R#lcwcxcyczcAaBaraIaIcBcCbu.F.F.FcDapaIaAaIarcE.F.F#7cF.R.R.SQtQtQt.b.eQtQtQtQtQtQtQtQtQtQtQtQt",
"QtQtQtQtQtQtQtQtQtQtQtQtQt.e.bcG.R.ScHcIb5cJcKaqaAcLaAaIbta5.F.F.FcMcNaIcOb1a8cPcQce.F.FcR.R.RcS.PQt.b.eQtQtQtQtQtQtQtQtQtQtQtQt",
"QtQtQtQtQtQtQtQtQtQtQtQtQt.e.e.PcTaYcjcUcV.salcWbscXaAaIcYcZ.F.F.F.Fbuc0c1a5.F.Fc2c3cPbu.F#P.R.RcT.P.b.eQtQtQtQtQtQtQtQtQtQtQtQt",
".b.b.b.b.b.b.b.b.b.b.b.b.b.#.#.b.xcT.R.R#lc4c5c6#wc7aIc8#xcea9c9d.aU.F.F.F.F.F.Fd#aBafdadbdcdd.R.R#f.d.#.b.b.b.b.b.b.b.b.b.b.b.b",
".f.f.f.f.f.f.f.a.a.#.#.#.#.#.#.#.#.db#.R.R.Sdedfbca#cndgdh.Fdidjdk#7.F.F.F.F.F.Fdldmdn.Fdoc8dpdq.R#9.d.f.f.f.f.f.f.f.f.f.f.f.f.f",
"QtQtQtQtQtQtQt.b.eQtQtQtQtQtQtQtQtQt.Pdr#m.R.Rdqdsdtdu.qdvdwdxaAdy.F.F.F.F.F.F.Fbucp.F.FdzardAdB.R.R.U.PQtQtQtQtQtQtQtQtQtQtQtQt",
"QtQtQtQtQtQtQt.b.eQtQtQtQtQtQtQtQtQtQt.P#f.7.R.RcSdCbO.BaFdD.qdEdF.F.F.F.FdGdHdI.F.F.F.FdkcBdJdKb#.R#9.xQtQtQtQtQtQtQtQtQtQtQtQt",
"QtQtQtQtQtQtQt.b.eQtQtQtQtQtQtQtQtQtQtQt.xQt#l.R.R.RdLdvdM.q.qdNdOdP.FdQdRcXaqaAbUdQ.F.FdSdTdUdVdW.R.R.OQtQtQtQtQtQtQtQtQtQtQtQt",
"QtQtQtQtQtQtQt.b.eQtQtQtQtQtQtQtQtQtQtQtQtQt.PcG.S.R.RdXdY.s.q.qdZ.pd0d1araIaAaIard2.F.FdacucBd3d4.R.R#j.xQtQtQtQtQtQtQtQtQtQtQt",
"QtQtQtQtQtQtQt.b.eQtQtQtQtQtQtQtQtQtQtQtQtQtQt.P.O#9.R.R#9d5.pdv.qaFd6d7d8cXbiaAaqd9cP.F.FcMe.e#ea.R.R#T.xQtQtQtQtQtQtQtQtQtQtQt",
".#.#.#.#.#.#.#.f.a.#.#.#.#.#.#.#.#.#.#.#.#.#.#.#.deb#H.R.R.Reced.sdvaEeeefegehaIcgcf.F.F.F.F.F#R#D.R.S.#.e.#.#.#.#.#.#.#.#.#.#.#",
".f.b.b.b.b.b.b.b.b.b.b.b.b.b.b.b.b.b.b.b.b.b.b.b.b.bQtav.S.R.R.Seiejekelc6#Ia1dfemeneoc9.F.F.Fep.R.RcaQt.b.b.b.b.b.b.b.b.b.b.b.b",
".#QtQtQtQtQtQtQtQtQtQtQtQtQtQtQtQtQtQtQtQtQtQtQtQtQtQt.P.b#l.R.R.RckaQeq#wer#Ic6esaScJeteuevew#9.Rck.PQtQtQtQtQtQtQtQtQtQtQtQtQt",
".#QtQtQtQtQtQtQtQtQtQtQtQtQtQtQtQtQtQtQtQtQtQtQtQtQtQtQtQt.PcG.8.R.R.R.9exeybaezeAeBeC.pedeD.S.R.S.gQtQtQtQtQtQtQtQtQtQtQtQtQtQt",
".#QtQtQtQtQtQtQtQtQtQtQtQtQtQtQtQtQtQtQtQtQtQtQtQtQtQtQtQtQt.x.Pdr#9.R.R.ReEeFeGeHeId5eJ.S.R.R.SeK.xQtQtQtQtQtQtQtQtQtQtQtQtQtQt",
".#QtQtQtQtQtQtQtQtQtQtQtQtQtQtQtQtQtQtQtQtQtQtQtQtQtQtQtQtQtQtQt.P.x.Q.S.R.R.R.S.S#m.R.R.R.R.T.O.xQtQtQtQtQtQtQtQtQtQtQtQtQtQtQt",
".#QtQtQtQtQtQtQtQtQtQtQtQtQtQtQtQtQtQtQtQtQtQtQtQtQtQtQtQtQtQtQtQtQt.P.beL.8.R.R.R.R.R.Sb##f.PaiQtQtQtQtQtQtQtQtQtQtQtQtQtQtQtQt",
".c.a.a.a.a.a.a.a.a.a.a.a.a.a.c.a.a.a.a.a.a.a.a.a.a.a.a.a.a.a.a.a.a.a.a.c.f.d.c.Q#1cadr.#.b.d.#.#.#.#.#.#.#.#.#.#.#.#.#.#.#.#.#.#",
"QtQtQtQtQtQtQtQtQtQtQtQtQt.b.#QtQtQtQtQtQtQtQtQtQtQtQtQtQtQtQtQtQtQtQtQtQtQtQtQtaiQtQtQtQtQtQtQtQtQt.b.c.nQtQtQtQtQtQtQtQtQtQtQt",
"QtQtQtQtQtQtQtQtQtQtQtQtQtQt.#QtQtQtQtQtQtQtQtQtQtQtQtQtQtQtQtQtQtQtQtQtQtQtQtQtQtQtQtQtQtQtQtQtQtQtQt.aQtQtQtQtQtQtQtQtQtQtQtQt",
"QtQtQtQtQtQtQtQtQtQtQtQtQtQt.#QtQtQtQtQtQtQtQtQtQtQtQtQtQtQtQtQtQtQtQtQtQtQtQtQtQtQtQtQtQtQtQtQtQtQtQt.aQtQtQtQtQtQtQtQtQtQtQtQt",
"QtQtQtQtQtQtQtQtQtQtQtQtQtQt.#QtQtQtQtQtQtQtQtQtQtQtQtQtQtQtQtQtQtQtQtQtQtQtQtQtQtQtQtQtQtQtQtQtQtQtQt.aQtQtQtQtQtQtQtQtQtQtQtQt",
"QtQtQtQtQtQtQtQtQtQtQtQtQtQt.#QtQtQtQtQtQtQtQtQtQtQtQtQtQtQtQtQtQtQtQtQtQtQtQtQtQtQtQtQtQtQtQtQtQtQtQt.aQtQtQtQtQtQtQtQtQtQtQtQt"};
