/* XPM */
static char *dummy[]={
"64 64 545 2",
".S c #000000",
"c5 c #002100",
"eI c #002a16",
"ah c #0c3124",
"#B c #161519",
".T c #1c1500",
"aC c #1c372e",
".5 c #222126",
"dE c #263c36",
"#j c #272117",
".4 c #2b2a30",
"f2 c #2e413d",
"#H c #2f2925",
"g# c #314135",
"#C c #323138",
"eX c #33001a",
".U c #35312f",
"ag c #354644",
"fW c #383023",
"f5 c #38554d",
".R c #3b3737",
"aD c #3b4a49",
"bH c #3e362e",
"aw c #3e4a43",
"b3 c #412126",
"#k c #413c3e",
"aH c #425c57",
"aU c #434e48",
"a9 c #454144",
"cW c #46292f",
"ba c #47524e",
"fm c #482924",
"cs c #48413d",
"av c #496a62",
"dz c #4a4649",
"dD c #4b7468",
"e7 c #4c302e",
"eE c #4c4543",
"dT c #4c5552",
"a6 c #4d625a",
"aq c #4e453c",
"ad c #4e4a4e",
".3 c #503736",
"aj c #505857",
"fD c #52362d",
"d# c #524a42",
"cv c #543c3d",
"ft c #544e4e",
"e2 c #545c5b",
"eA c #556762",
"dL c #563c35",
"#i c #565258",
".V c #575153",
"dq c #575b51",
"go c #575f5f",
"aE c #577169",
"#X c #59514d",
"ai c #595b4c",
"fe c #5b4134",
"#A c #5b5557",
"aN c #5c625f",
"ar c #5e554d",
"au c #5f7f75",
"ff c #603636",
".2 c #604a48",
"c4 c #605857",
"fk c #606462",
"ez c #60877a",
"gb c #617668",
"a. c #636766",
"d1 c #638175",
"at c #63897d",
".a c #644d48",
"as c #64786b",
"gg c #656f5c",
"ck c #664143",
"gj c #664d41",
"ea c #665152",
"fG c #666a6a",
".o c #67514d",
"a5 c #676267",
"g. c #68413c",
".n c #68454e",
".c c #694549",
"#5 c #696263",
"eo c #696d6d",
"ek c #69857a",
"fN c #6a4542",
".A c #6a4a53",
"aG c #6a8d7f",
"#R c #6b6466",
"bf c #6b6f70",
".# c #6c4a4e",
"dC c #6c8574",
".C c #6d4948",
".B c #6d4e58",
"#6 c #6d6f6c",
"et c #6e4942",
"aR c #6e5851",
".b c #6f4d53",
".6 c #6f7170",
".d c #704d4d",
"dX c #714d47",
"Qt c #715157",
"cT c #71716c",
"aT c #718b83",
"aF c #719789",
"aJ c #725152",
"e8 c #735e5a",
".m c #74555b",
"gf c #747a6b",
"bi c #754a58",
"bl c #755557",
"aB c #765551",
".9 c #76585f",
"#Q c #766f73",
"ey c #76a594",
"#U c #77585b",
"cl c #777879",
"ei c #77a192",
"ga c #788574",
"gq c #795b63",
"dB c #797667",
"ac c #797b7c",
"bP c #7a5b5f",
"d9 c #7aa898",
"bR c #7b5b5a",
"gh c #7b5f67",
"ge c #7b786b",
"e6 c #7c4d47",
".z c #7c5e63",
"en c #7c6761",
"b0 c #7c7d7e",
"ex c #7c9e90",
"eO c #7d5b50",
"fT c #7d5e5e",
"f8 c #7d626a",
"ej c #7da494",
"d7 c #7e514c",
"da c #7e5e5a",
"eM c #7e6166",
".1 c #7e6a65",
"am c #7e7679",
"eH c #7e998c",
".l c #7f6162",
"#Y c #7f7f7e",
"dQ c #7fa596",
".p c #80646a",
"#q c #807f7b",
"d8 c #809b8e",
"ed c #816466",
"ch c #81766f",
"bO c #818181",
"fJ c #82544c",
"eU c #83676d",
"ef c #845850",
"bG c #846769",
"dP c #84a294",
".W c #858586",
"cE c #866761",
".e c #866a6d",
"eS c #86716c",
"a7 c #869f97",
"eY c #875b50",
"dO c #878377",
"#I c #886965",
"dA c #887164",
"dg c #88746f",
"#h c #888788",
"f3 c #895e55",
"ct c #896c6c",
"aS c #89a79d",
"c8 c #8a6f73",
"fC c #8a898b",
"ew c #8a9487",
"dN c #8b6159",
"dn c #8b766e",
"f6 c #8b8988",
"eF c #8c6154",
".k c #8c7176",
"#9 c #8c8b8b",
"c6 c #8c9292",
"cI c #8d7872",
"eh c #8d9087",
"fn c #8e6458",
"b. c #8e7479",
"cA c #8e8d8d",
"a4 c #8e9494",
"dZ c #8f6453",
"aZ c #8f716b",
"eJ c #8f9491",
".y c #90767c",
"eu c #916658",
"fv c #916960",
"dH c #917c74",
"dJ c #919693",
"eZ c #925e54",
"fX c #927367",
"a# c #929092",
"dY c #936159",
"eg c #938780",
"eb c #939796",
"eP c #946154",
"fo c #946c60",
".O c #947a7e",
"bK c #947e74",
"ev c #94877c",
"fO c #956e68",
"el c #95817a",
"dM c #966458",
"e0 c #966e64",
"eV c #967d81",
"bL c #968177",
"dS c #96897f",
"fd c #969496",
"eG c #976761",
"fg c #97716b",
"fh c #977a74",
"fu c #98665c",
"fp c #987a71",
"cQ c #98837a",
"#Z c #989c9c",
"a8 c #98b1a7",
"eQ c #99736e",
"cz c #99857d",
"bD c #998580",
"d0 c #9a7c74",
"gr c #9a7f7d",
"aK c #9a898b",
"cP c #9a8c82",
"ao c #9b8389",
"cg c #9b877f",
"bg c #9c999a",
"fw c #9d817a",
"gv c #9d858b",
"cf c #9d8982",
".j c #9d8b8a",
"#V c #9e8588",
"eR c #9e897f",
"fB c #9e8d8f",
"ak c #9e9b9c",
"#z c #9ea1a0",
"aO c #9f7a74",
"em c #9f8a82",
"cq c #9f8b85",
"f1 c #9f8d8d",
"bM c #a08c87",
"bj c #a08e92",
"er c #a1898d",
"c1 c #a1948c",
"cr c #a28782",
".f c #a38b8f",
"bC c #a3958e",
"bw c #a39fa0",
"be c #a3a5a6",
"b2 c #a58c8f",
"ap c #a58d92",
"cR c #a5928e",
"cC c #a59496",
"bs c #a5a7a8",
"fL c #a68e94",
"cG c #a69993",
"cj c #a78e91",
"dj c #a79598",
"e9 c #a79a95",
"dd c #a79a97",
"#l c #a7a2a4",
"bV c #a7a8a8",
".G c #a89096",
".i c #a89596",
".x c #a8979a",
"aQ c #a97e7a",
"gB c #a99298",
"bT c #a99590",
".g c #a99798",
"fq c #aa9795",
"fS c #aa999c",
"cy c #aa9e99",
"fQ c #aaabab",
"#g c #aab1b1",
"dK c #ab999a",
"c. c #aba5a4",
"dr c #aba7aa",
"bx c #ac837f",
"cM c #ac887f",
"cU c #ac9498",
"e1 c #ac9f9b",
"f4 c #ad837c",
"aW c #ad9ca0",
"bJ c #ad9f99",
"e3 c #adaeaf",
"e5 c #ae979c",
"#. c #ae9c9e",
"fy c #aea7a1",
"bY c #af857f",
".h c #af9ea0",
"b9 c #afa29f",
"du c #b0a29d",
"fE c #b0a4a1",
"ca c #b0a4a4",
"fb c #b19fa2",
"de c #b1aaa5",
"dF c #b2b2b4",
"#0 c #b2b8b7",
"fY c #b3a1a0",
"aA c #b3a5a1",
"d3 c #b3a7a5",
"#D c #b3b2b2",
"#r c #b48a84",
"db c #b49a99",
"dV c #b4a2a6",
"d4 c #b4a7a3",
"e# c #b4ada9",
"c# c #b4b4b4",
"fi c #b5aeab",
"gk c #b5b5b6",
"d6 c #b6a5aa",
"c3 c #b6aea9",
"dG c #b7aaa7",
"b6 c #b7afad",
"bB c #b7b5b0",
"gt c #b7b6b6",
"cm c #b89089",
"fs c #b8a7aa",
"d5 c #b9bdbc",
"fU c #baadab",
".w c #baaeb1",
"bU c #bab2b0",
"cH c #bab7b3",
"eB c #bab8b5",
"aY c #bab9b9",
"a3 c #bab9bb",
"#4 c #babebe",
"cx c #bbb4b2",
"fP c #bbb9b7",
"eW c #bbbabc",
"aa c #bbbfbf",
"gx c #bcabaf",
"dw c #bcb3b0",
"f. c #bcb5b4",
"fx c #bcbab9",
".8 c #bdb1b2",
"df c #bdbab7",
"#P c #bdbbbc",
"dt c #beb8b9",
".X c #bebdbe",
"ae c #bfaeb3",
"dv c #bfc2bf",
"bb c #c0918b",
"fl c #c0b4b4",
"e. c #c0bdba",
"fj c #c0bebe",
"bW c #c0bebf",
"bc c #c1938d",
"bu c #c1afb2",
"dI c #c1bebc",
"f0 c #c1c4c6",
"cn c #c2938b",
"eD c #c2b1b6",
"dm c #c2bfbd",
"cb c #c2c4c2",
"#s c #c3958d",
"by c #c39590",
"cF c #c3a4a1",
"b4 c #c3aaa7",
"bq c #c3c0c1",
"fr c #c3c2c4",
"cp c #c3c5c4",
"#1 c #c3c5c5",
"#t c #c4908b",
"a1 c #c49790",
"cY c #c49792",
"bn c #c49f9d",
"bI c #c4aaa5",
"#8 c #c4b2b6",
"cL c #c4b8bb",
"cO c #c4c2c2",
"cc c #c5978d",
"cd c #c5aba7",
"gi c #c5b9bb",
"gC c #c5bdbc",
"ce c #c5c2c1",
".7 c #c5c3c4",
"cJ c #c5c6c5",
"#b c #c69892",
"cN c #c6aca8",
"cw c #c6acab",
"fz c #c6c3c2",
"#p c #c6c8c7",
"bm c #c79a94",
"bd c #c7aeac",
"bS c #c7b9b7",
"gu c #c7baba",
".N c #c7babc",
"b5 c #c7c4c6",
"#y c #c7c9c8",
"#c c #c89590",
"a2 c #c89a92",
"co c #c8b5b3",
"fH c #c8bbbe",
"bz c #c8c4c2",
"eK c #c8c5c5",
"c2 c #c8c5c7",
"c0 c #c8caca",
"dl c #c8cacc",
"bp c #c8cfce",
"a0 c #c99792",
"aP c #c99c94",
"cZ c #c9c0bf",
"f# c #c9c7c9",
"dR c #c9cac8",
"cX c #ca9d96",
"#d c #cab6b3",
"#u c #cabdbc",
"bZ c #cac6c5",
"#f c #cac8ca",
"br c #cacbca",
"al c #cacbcb",
"cS c #caccce",
"#a c #cb9f98",
"bX c #cbbebf",
"b8 c #cbc3c4",
"d2 c #cbc8c8",
"#N c #cbcccd",
"bA c #cbcdd0",
"#o c #ccbfc1",
"gA c #ccbfc3",
"#n c #ccc3c2",
"gc c #ccc4c5",
"bN c #ccc9cc",
"#M c #cccdce",
"fF c #ccd2d2",
"f9 c #cdc0c2",
"bo c #cdcacb",
"#v c #cdcfd0",
"aX c #cec2c6",
"dk c #cecfce",
"#w c #ced0d1",
"#e c #ced0d3",
"#J c #cf9d96",
"fK c #cfc2c4",
"fZ c #cfd0d0",
"#L c #cfd4d4",
"eN c #d0c8c8",
"do c #d0d1d1",
"#2 c #d0d1d3",
"fI c #d1c4c7",
".K c #d1d2d2",
"cK c #d2c5c9",
".F c #d2c9ca",
"dc c #d2d3d5",
"gw c #d3cacb",
"#K c #d3cfd0",
"b7 c #d3d0d3",
"#O c #d3d3d4",
"ds c #d3d4d7",
".v c #d4c8cc",
"bv c #d4cbcd",
"#x c #d4d4d5",
"ab c #d4d8d8",
"bt c #d5d5d5",
"#3 c #d5d5d7",
".H c #d6c9cb",
"ee c #d6cccd",
"#7 c #d6cdd0",
"gd c #d6d9d8",
"gs c #d7cdce",
"fA c #d7d6d6",
"fa c #d8d0d3",
"#W c #d8d7d6",
"f7 c #d9d0d1",
".L c #d9d8d9",
"ec c #dad1d2",
"bE c #dcdcdd",
"dU c #ddd0d2",
".J c #dddbdc",
"gD c #ded8d9",
"cD c #dedcdd",
"ay c #dfd5d6",
"aI c #dfd9da",
"bQ c #dfdede",
".Y c #e0dfe0",
"dW c #e1e4e3",
"#E c #e2dbdc",
"dh c #e2e5e5",
"gn c #e3dcdd",
"e4 c #e3dee0",
"bk c #e5e6e6",
"es c #e6e0e1",
"cV c #e7e1e2",
"gE c #e8e2e3",
".M c #e8e9e9",
"#T c #eae3e5",
"eT c #eae6e6",
"bh c #ebe4e6",
"di c #ebe8e9",
"gl c #ebebea",
".u c #ece6e8",
"dx c #ece8e8",
"dp c #ede6e8",
"ci c #ededed",
"cB c #eeeaeb",
"aV c #eeeeee",
"af c #efebec",
".q c #efefee",
"#S c #efefef",
".E c #f0eced",
".Q c #f0f0f0",
"gp c #f1edee",
"gy c #f1f1f0",
"eC c #f1f1f2",
"dy c #f2eeef",
"fc c #f3efef",
"fM c #f3eff1",
".I c #f3f3f3",
"b# c #f4f0f0",
"c7 c #f4f4f3",
"b1 c #f4f4f4",
"fR c #f4f7f6",
"eq c #f5f1f2",
"gm c #f5f4f4",
".t c #f5f4f5",
"#G c #f5f8f7",
"gz c #f6f2f3",
"#F c #f6f5f5",
"#m c #f6f9f8",
"ax c #f7f3f3",
".0 c #f7f6f6",
"az c #f7f6f7",
"eL c #f7faf9",
".P c #f8f7f8",
"d. c #f8fbfb",
"cu c #faf9f9",
"ep c #fafcfa",
".Z c #fbfafb",
"bF c #fcfbfa",
"fV c #fcfefe",
"aM c #fdfbfc",
"aL c #fdfefc",
"c9 c #fef9fb",
".s c #fefcfd",
"an c #fefffe",
"## c #fffaf9",
".D c #fffdfe",
".r c #ffffff",
"QtQtQtQtQtQtQtQtQtQtQtQtQtQt.#QtQtQtQtQtQtQtQtQtQtQtQtQtQtQtQtQtQtQtQtQtQtQtQtQtQtQtQtQtQtQtQtQtQtQtQt.aQtQtQtQtQtQtQtQtQtQtQtQt",
".b.b.b.b.b.b.b.b.b.b.b.b.b.b.#.b.b.b.b.b.b.b.b.b.#.#.#.#.#.#.#.b.b.b.b.b.b.b.b.b.b.b.b.b.b.b.b.b.b.b.b.c.b.b.b.b.b.b.b.b.b.b.b.b",
".d.d.d.d.d.d.d.d.d.d.d.d.d.d.d.b.#.#.b.b.b.b.b.#.e.f.g.h.i.j.k.l.m.#.c.n.#.d.b.b.b.b.b.b.b.b.b.b.b.b.b.b.b.b.b.b.a.o.d.d.d.d.d.d",
"QtQtQtQtQtQtQtQtQtQtQtQtQtQtQtQt.o.oQtQtQtQt.b.p.q.r.r.r.r.r.s.t.u.v.w.x.y.z.b.A.BQtQtQtQtQtQtQtQtQtQtQtQtQtQtQt.CQtQtQtQtQtQtQt",
"QtQtQtQtQtQtQtQtQtQtQtQtQtQtQtQt.o.oQtQtQtQt.A.f.r.r.r.r.r.r.r.r.r.r.r.r.D.E.F.G.z.A.bQtQtQtQtQtQtQtQtQtQtQtQtQt.CQtQtQtQtQtQtQt",
"QtQtQtQtQtQtQtQtQtQtQtQtQtQtQtQt.o.oQtQtQtQt.A.H.r.I.J.K.L.M.s.r.r.r.r.r.r.r.r.r.q.N.k.b.bQtQtQtQtQtQtQtQtQtQtQt.CQtQtQtQtQtQtQt",
"QtQtQtQtQtQtQtQtQtQtQtQtQtQtQtQt.o.oQtQtQt.A.O.P.Q.R.S.S.S.T.U.V.W.X.Y.s.r.r.r.r.r.r.Z.F.k.#.BQtQtQtQtQtQtQtQtQt.CQtQtQtQtQtQtQt",
"QtQtQtQtQtQtQtQtQtQtQtQtQtQtQtQt.o.oQtQt.b.e.E.r.0.1.2.3.U.4.5.S.S.S.S.U.6.7.r.r.r.r.r.r.0.8.9QtQtQtQtQtQtQtQtQt.CQtQtQtQtQtQtQt",
".d.d.d.d.d.d.d.d.d.d.d.d.d.d.d.b.#.#.b.d.c#..r.r###a#b#c#d#e#f#g#h#i#j.S.S.S#k#l#m.r.r.r.r.r#n.#.d.d.d.d.d.d.d.d.a.o.d.d.d.d.d.d",
".b.b.b.b.b.C.d.b.b.b.b.b.b.b.b.b.b.b.b.b.##o.r#p#q#r#s#t#u#v#v#w#x#x#y#z#A#B.S.S#C#D.r.r.r.r#EQt.b.b.b.b.b.b.b.b.b.b.b.b.b.b.b.b",
"QtQtQtQtQt.#.bQtQtQtQtQtQtQtQtQtQtQtQt.b.p#F#G#H.S#I#J#a#K#L#w#v#M#N#v.K#O#P#Q#B.S.S#R#S.r.r#T#UQtQtQtQtQtQtQtQtQtQtQtQtQtQtQtQt",
"QtQtQtQtQt.#.bQtQtQtQtQtQtQtQtQtQtQtQt.A#V.r#W.S.S#H.3#X#Y#Z#0#1#2#x#O#v#N#v#3#4#5.S.S#6.r.r#7.bQtQtQtQtQtQtQtQtQtQtQtQtQtQtQtQt",
"QtQtQtQtQt.#.bQtQtQtQtQtQtQtQtQtQtQtQt.##8.r#9.S.S.S.S.S.S.S.S.5#ka.a#aa#x.K#M#wabac.Sad.r.rae.#QtQtQtQtQtQtQtQtQtQtQtQtQtQtQtQt",
"QtQtQtQtQt.#.bQtQtQtQtQtQtQtQtQtQtQt.B.zaf.rag.Sahai.U#j#B.S.S.S.S.S.S#Bajakal#xabam.Saj.ranao.bQtQtQtQtQtQtQtQtQtQtQtQtQtQtQtQt",
".b.b.b.b.b.C.o.b.b.b.b.b.b.b.b.b.b.b.cap.r.r.6.S.T.Uaqarasatauavawah.S.S.S.S.4.W#1#C.S.W.rax.z.#.b.b.b.b.b.b.b.b.b.b.b.b.b.b.b.b",
".b.b.b.b.b.b.b.b.b.b.b.b.b.b.b.b.b.d.bay.razaAaB#H.S.S.S.S#BaCaDaEaFaGaH.5.S.S.S#B.S.S.X.raIaJ.b.b.o.#.b.b.b.b.b.b.b.b.b.b.b.b.b",
"QtQtQtQtQtQtQtQtQtQtQtQtQtQtQtQtQt.baKaLaMaN.SaOaPaQaR#H.T.S.S.S.S#BagataSaTaU#B.S.S#BaV.raW.AQtQt.b.oQtQtQtQtQtQtQtQtQtQtQtQtQt",
"QtQtQtQtQtQtQtQtQtQtQtQtQtQtQtQtQt.baX.raY.S.SaZa0a1a2#ua3a4a5#H.S.S.S.S#Ba6a7a8aw.Sa9.r.sb..bQtQt.b.oQtQtQtQtQtQtQtQtQtQtQtQtQt",
"QtQtQtQtQtQtQtQtQtQtQtQtQtQtQtQt.b.zb#.rba.S.5bbbcbbbd#v#w#O#3albebf.R#B.S.S.S.4#B.Sbg.rbh.mbiQtQt.b.oQtQtQtQtQtQtQtQtQtQtQtQtQt",
"QtQtQtQtQtQtQtQtQtQtQtQtQtQtQtQt.Abj.Dbk#B.Sblbmbbbnbobp#N#M#Mbqbr#3#w#1bs#Yad.5.S.Sbt.rbu.AQtQtQt.b.oQtQtQtQtQtQtQtQtQtQtQtQtQt",
".#.#.#.#.#.#.#.#.#.#.#.#.#.#.#.#.abv.rbw.S.Tbxbybybz#M#NbAbBbCbDbCal#M#v#2#xbEa..S.UbF.r.O.c.o.o.o.#.a.#.#.#.#.#.#.#.#.#.#.#.#.#",
"QtQtQtQtQtQtQtQtQtQtQtQtQt.#.b.bbGaz.Da9.SbHa0bbbIbA#N#N#vbJbKbLbMbNbp#N#N#Mal.4.SbO.r.qbP.bQtQtQtQtQtQtQtQtQtQtQtQtQtQtQtQtQtQt",
"QtQtQtQtQtQtQtQtQtQtQtQtQt.#Qt.Abj.rbQ.S.SbRa2bbbS#M#N#N#MbqbTbTbUbp#N#N#N#2bV.S.SbW.r#o.aQtQtQtQtQtQtQtQtQtQtQtQtQtQtQtQtQtQtQt",
"QtQtQtQtQtQtQtQtQtQtQtQtQt.#bi.bbX.rbe.S.SbYbybybZbp#N#N#N#M#Nbp#v#N#N#M#v#xb0.S.5b1.rb2.cQtQtQtQtQtQtQtQtQtQtQtQtQtQtQtQtQtQtQt",
"QtQtQtQtQtQtQtQtQtQtQtQtQt.#.bbPaf.raj.Sb3a1bbb4#M#N#N#N#N#N#N#N#N#N#Mb5b6b7aw.Sa..rb1.z.#QtQtQtQtQtQtQtQtQtQtQtQtQtQtQtQtQtQtQt",
"QtQtQtQtQtQtQtQtQtQtQtQtQt.#.#.yaL.t.5.S.oa2byb8bp#N#N#N#N#N#N#N#N#N#vb9bLc.#B.Sc#.r#7.b.oQtQtQtQtQtQtQtQtQtQtQtQtQtQtQtQtQtQtQt",
".#.#.#.#.#.#.#.#.#.#.#.#.#.C.cca.rcb.S.SaOcccdbA#N#N#N#N#N#N#N#N#N#Mcecfcgch.S#Bci.rcjck.C.#.#.#.#.#.#.#.#.#.#.#.#.#.#.#.#.#.#.#",
"QtQtQtQtQtQtbi.#QtQtQtQtQtQtQtaI.rcl.S#BcmcncobA#N#N#N#N#vbAbp#N#N#Mcpcqcrcs.S.V.r.Zct.#QtQtQtQtQtQtQtQtQtQtQtQtQtQtQtQtQtQtQtQt",
"QtQtQtQtQtQtQt.#QtQtQtQtQt.b.ecuaM.R.ScvbmbbcwbA#N#N#N#Mcxcy#p#M#N#N#NbCcz.5.ScA.rcBbl.bQtQtQtQtQtQtQtQtQtQtQtQtQtQtQtQtQtQtQtQt",
"QtQtQtQtQtQtQt.#QtQtQtQtQt.#cC.rcD.S.ScEa0bbcF#M#N#N#NbAcGbKb6#v#N#NbAcHcI.S.ScJ.rcK.c.bQtQtQtQtQtQtQtQtQtQtQtQtQtQtQtQtQtQtQtQt",
"QtQtQtQtQtQtQt.#QtQtQtQtQt.AcL.rbV.S.ScMbybbcNbA#N#N#McOcPcQcRal#M#NcS#3cT.S#jb1.rcU.c.bQtQtQtQtQtQtQtQtQtQtQtQtQtQtQtQtQtQtQtQt",
"QtQtQtQtQtQtbi.#QtQtQtQt.bblcV.ra..ScWcXa2cYcZ#M#N#Nbpc0c1bLcfc2#M#NbNc3c4c5c6.rc7.p.c.bQtQtQtQtQtQtQtQtQtQtQtQtQtQtQtQtQtQtQtQt",
".#.#.#.#.#.#.#.#.#.#.#.#.cc8c9d..5.S#jd#dadbdc#O#v#N#NbAbqddde#N#N#vdfdg#B#jdh.rdiQt.C.#.#.#.#.#.#.#.#.#.#.#.#.#.#.#.#.#.#.#.#.C",
".bQtQtQtQtQtQtQtQtQtQtQt.Adj.rdk.S.S.S.S.S.TawcAdl#2#N#M#e#w#v#N#NbAdmdn#B.Sdo.rdp.9biQtQtQtQtQtQtQtQtQtQtQtQtQtQtQtQtQtQtQtQt.#",
".bQtQtQtQtQtQtQtQtQtQtQt.b.v.rcA.S.Tdq.R#B.S.S.S.Udrdsdtdudv#v#N#N#N#vdw.R#j.X.rdxQt.bQtQtQtQtQtQtQtQtQtQtQtQtQtQtQtQtQtQtQtQt.#",
".bQtQtQtQtQtQtQtQtQtQt.B.zdy.Ddz.S#HdAdBdCdDdE.S.S#BdFdGdHcqdIbA#N#N#N#Oa..S.TdJazdK.b.bQtQtQtQtQtQtQtQtQtQtQtQtQtQtQtQtQtQtQt.#",
".bQtQtQtQtQtQtQtQtQtQt.Aao.D#G.5.SdLdMdNdOdPdQat#B.Sa9dRbMbLdSb6#v#N#N#M#vdT.S.Sad.JdUc8.#biQtQtQtQtQtQtQtQtQtQtQtQtQtQtQtQtQt.#",
".bQtQtQtQtQtQtQtQtQtQt.#dV.rdW.T.SdXdYdZd0dSbDdPd1.S.ScAd2bCbLd3#v#N#N#N#2d4cs.S.S.5d5c9d6Qt.bQtQtQtQtQtQtQtQtQtQtQtQtQtQtQtQt.#",
".#.#.#.#.#.#.#.#.#.#.#.cbu.rcJ.S.Sd7dYdYcQczbDd8d9dE.Sa9#3#pe.bN#N#N#N#N#ve#cgea.S.S.Seb.recedck.C.#.C.#.#.#.#.#.#.#.#.#.#.#.#.C",
"QtQtQtQtQtQtQtQtQtQtQt.bee.raY.S.SefdYdYegehd8eiejek#Bam.K#MbA#N#N#N#N#N#vdeelemen#B.S.Seoepeqer.b.b.d.oQtQtQtQtQtQtQtQtQtQtQtQt",
"QtQtQtQtQtQtQtQtQtQtQt.mes.rdo.S.SetdMeuevewexeieyezeA#y#v#N#N#N#N#N#N#NbAdmcqczcGeBa9.S.SdTeC.reD.9.#.oQtQtQtQtQtQtQtQtQtQtQtQt",
"QtQtQtQtQtQtQtQtQtQtQtQtaI.r.IeE.S#BeFdYeGd0dSeweHeI.SeJ.K#N#N#N#N#N#N#N#N#MeKdmbN#2alaN.S.SadeL.receM.cQtQtQtQtQtQtQtQtQtQtQtQt",
"QtQtQtQtQtQtQtQtQtQtQt.AeN.r.r#W.T.SeOdMePdYeQeReS.S.Sa4#O#N#N#N#N#N#N#N#N#N#MbAbp#N#v#3a..S.SbO.r.reTeU.bQtQtQtQtQtQtQtQtQtQtQt",
"QtQtQtQtQtQtQtQtQtQtQt.beV.I.r.reWcseXb3eYdMeZe0bL.U.Ue1#v#v#N#N#N#MbA#v#M#N#N#N#N#N#N#v#2e2.S.Se3.r.re4bP.bQtQtQtQtQtQtQtQtQtQt",
".b.b.b.b.b.b.b.b.b.b.b.b.ce5.r.r.r#P.S.S#Be6dMePe7e8eRczddbq#vbpbAbUe9f.f##N#M#N#N#N#N#N#2#P.T.S#Bbk.r.rfaQt.#.b.b.b.b.b.b.b.b.b",
".C.C.C.C.C.C.C.a.a.#.#.#.#.#fbfc.r.Dfd.S.S.Sfeff.SeXeGfgfhcffi#M#we9bKcQcqbCfjbA#N#N#N#N#3cA.S.S.SfkbF.r.rfl.c.C.C.C.C.C.C.C.C.C",
"QtQtQtQtQtQtQt.b.oQtQtQtQtQt.#eV.r.r.rd2.4.S.S.S.SfmdMeZfnfofpfqcpcpcGevbLfhde#v#N#N#N#vfr.5.S.S#B.5a#.r.r.rbj.bQtQtQtQtQtQtQtQt",
"QtQtQtQtQtQtQt.b.oQtQtQtQtQtQtQtfs.r.r.r.Yft.S.S.SdLfudYeZeZeZfvfwf.#wfxe1fyfz#M#N#N#M#Oad.S.S.Rci.QfA.r.r.rdx.9.BQtQtQtQtQtQtQt",
"QtQtQtQtQtQtQt.b.oQtQtQtQtQtQtQt.bfBes.r.rbFfC#B.S.SfDdYdYeZeZeZeZfpfE#NfF#v#M#N#N#N#3#Q.S.S.SfG.r.r.r.r.s#TfH#UQtQtQtQtQtQtQtQt",
"QtQtQtQtQtQtQt.b.oQtQtQtQtQtQtQtQt.#.9fI.r.r.rfA.4.S.S#jfJdMeZeZeZdYbKcGcp#v#N#N#N#x#h.S.S.S.SdJ.r.r.r.rfKbl.bQtQtQtQtQtQtQtQtQt",
"QtQtQtQtQtQtQt.b.oQtQtQtQtQtQtQtQtQt.BQtfLfM.r.r.M#A.S.S.TfNdMdYeZeZeufOeRfP#ebp#OfQ.S.S.S.S.5fR.r.r.r.rfS.#QtQtQtQtQtQtQtQtQtQt",
".#.#.#.#.#.#.#.C.a.#.#.#.#.#.#.#.#.#.#.#.cfTfU.0.rfVfCc5.S.SfWefdMdYeZeZdYfXfYfZf0.R.SeI.4.Sc5bQ.r.r.r.rf1.c.#.#.#.#.#.#.#.#.#.#",
".C.b.b.b.b.b.b.b.b.b.b.b.b.b.b.b.b.b.b.b.b.#.ceVdi.r.ralf2.S.S.SfDf3dMdZeZeZeZf4#k.S.SaEf5.S.Sf6.r.r.rf7bl.b.b.b.b.b.b.b.b.b.b.b",
".#QtQtQtQtQtQtQtQtQtQtQtQtQtQtQtQtQtQtQtQtQtQt.Af8f9.r.r.t#h#B.S.S#Bg.dYdMdYdMe7.S.Sg#gagb.S.S#BaV.r.rgc.AQtQtQtQtQtQtQtQtQtQtQt",
".#QtQtQtQtQtQtQtQtQtQtQtQtQtQtQtQtQtQtQtQtQtQtQt.b.bcCaf.r.rgdfk.S.S.S#jfNdMdL.S.ScWgegfgg#B.S.S#W.r.rfMgh.bQtQtQtQtQtQtQtQtQtQt",
".#QtQtQtQtQtQtQtQtQtQtQtQtQtQtQtQtQtQtQtQtQtQtQtQtQt.#eMgibF.r.rd2dT.S.S.S#B.S.SfWefgj.Uc5.S.S.RdW.r.r.rfs.bQtQtQtQtQtQtQtQtQtQt",
".#QtQtQtQtQtQtQtQtQtQtQtQtQtQtQtQtQtQtQtQtQtQtQtQtQtQt.b.AeVec.r.r.rgkeE.S.S.S.S.S.S.S.S.S#B#6gl.r.r.r.rgm.p.bQtQtQtQtQtQtQtQtQt",
".#QtQtQtQtQtQtQtQtQtQtQtQtQtQtQtQtQtQtQtQtQtQtQtQtQtQtQtQt.A.BaKgn.r.r.r#ygo.5.S.S.S.Tf2cAdh.r.r.r.r.r.rgpgq.BQtQtQtQtQtQtQtQtQt",
".c.a.a.a.a.a.a.a.a.a.a.a.a.a.c.a.a.a.a.a.a.a.a.a.a.a.a.a.a.a.cck.#grgs.r.r.r.Idogt#P.Y.r.r.r.r.r.r.r.r.rgu.c.#.#.#.#.#.#.#.#.#.#",
"QtQtQtQtQtQtQtQtQtQtQtQtQt.b.#QtQtQtQtQtQtQtQtQtQtQtQtQtQtQtQtQt.b.#.bgvf7.r.r.r.r.r.r.r.r.r.r.r.r.r.rgwbG.bQtQtQtQtQtQtQtQtQtQt",
"QtQtQtQtQtQtQtQtQtQtQtQtQtQt.#QtQtQtQtQtQtQtQtQtQtQtQtQtQtQtQtQtQtQtQt.AQteVgxgy.r.r.r.r.r.r.r.rgzgAeV.C.bQtQtQtQtQtQtQtQtQtQtQt",
"QtQtQtQtQtQtQtQtQtQtQtQtQtQt.#QtQtQtQtQtQtQtQtQtQtQtQtQtQtQtQtQtQtQtQtQtQt.b.#.pgBgCgDcB.qgE#odjbG.b.#.cQtQtQtQtQtQtQtQtQtQtQtQt",
"QtQtQtQtQtQtQtQtQtQtQtQtQtQt.#QtQtQtQtQtQtQtQtQtQtQtQtQtQtQtQtQtQtQtQtQtQtQtQt.b.A.AQtbP.z.m.b.#.bQtQt.aQtQtQtQtQtQtQtQtQtQtQtQt",
"QtQtQtQtQtQtQtQtQtQtQtQtQtQt.#QtQtQtQtQtQtQtQtQtQtQtQtQtQtQtQtQtQtQtQtQtQtQtQtQtQtQtQt.B.BbiQtQtQtQtQt.aQtQtQtQtQtQtQtQtQtQtQtQt"};
