/* XPM */
static char *dummy[]={
"64 64 474 2",
".L c #000000",
"aa c #00011b",
".M c #002100",
"#3 c #0d1628",
"ar c #0f2241",
"#u c #161519",
"ab c #17223a",
"cT c #172b4d",
"aF c #18325b",
"cl c #1c1500",
"cO c #1d2131",
"cI c #1e2b47",
"#F c #222126",
"ej c #232a40",
"by c #263c36",
"#4 c #272117",
".N c #2b2a30",
"#0 c #2c0132",
"as c #2d2c64",
"cJ c #2e413d",
".3 c #2f2925",
"#2 c #301741",
"ai c #302b60",
"eR c #31336c",
"ah c #314488",
".K c #323138",
"dY c #33224d",
"ac c #332b5c",
"aJ c #333d5a",
".4 c #35312f",
"at c #354d94",
"cZ c #362b57",
"ad c #37396f",
"fn c #383023",
"e8 c #384382",
"#Z c #38463c",
"e6 c #38488a",
"cS c #384c92",
"fg c #385099",
"dz c #3a386b",
".2 c #3b3737",
"eT c #3b4c8f",
"fp c #3d3867",
"aw c #3d3e72",
"dj c #3d437c",
"aq c #3e362e",
"b. c #3e4a43",
"aX c #3f3256",
"d1 c #3f4378",
"dq c #404781",
"a3 c #412126",
"#g c #413c3e",
"dd c #4151a6",
"dM c #42477e",
".1 c #433c36",
"eG c #434490",
"ey c #444f71",
"ag c #4451a4",
"dB c #4455aa",
"aY c #454144",
"dV c #45508c",
"d8 c #46292f",
"dT c #463146",
"af c #4658ae",
"av c #465cb4",
"#1 c #47336f",
"a2 c #47524e",
"ae c #484d99",
"aG c #4858ac",
"aU c #494775",
"dP c #495cb2",
"au c #4965c2",
"cN c #4a4649",
"dN c #4b5fb6",
"bP c #4c302e",
"dU c #4c4385",
"dH c #4c4543",
"dI c #4c488d",
"dk c #4c4c94",
"c4 c #4c5552",
"fo c #4e4382",
"c1 c #4e488a",
"#X c #4e4a4e",
"c9 c #4e4c91",
"dW c #4e58a6",
"ew c #4f5bac",
"eC c #503736",
"#T c #504a49",
"d. c #504c8f",
"cP c #505096",
"dJ c #50549d",
"#8 c #505857",
"c0 c #525094",
"dX c #5262c6",
"dr c #5265cb",
"da c #5268d0",
"dO c #526bd4",
"c3 c #526ed9",
"bv c #543c3d",
"en c #544e4e",
"dl c #5465c9",
"db c #5468ce",
"ds c #546bd3",
"dc c #546ed7",
"dK c #5562c2",
"e5 c #564e48",
"cR c #5651a4",
"dC c #566082",
"dA c #566bd1",
"eS c #566ed6",
"e7 c #5670da",
".O c #575153",
"c2 c #575cb6",
"fr c #575f5f",
"fe c #575fbb",
"d# c #5762c1",
"ff c #586bcf",
"cQ c #594892",
"bk c #595f5b",
"eH c #5a69d7",
"eM c #5b5557",
"dL c #5b66d1",
"aA c #5c625f",
"#L c #5d4543",
".0 c #604a48",
"fi c #606462",
"bS c #636766",
".a c #644d48",
"aI c #646ca2",
"eJ c #646ea8",
"cC c #654149",
"dn c #664143",
"es c #665152",
"#f c #666a6a",
".e c #67514d",
"am c #68454e",
".c c #694549",
"eb c #696263",
".f c #6a4a53",
"dv c #6a6c69",
"#G c #6b6466",
"aH c #6b7bcd",
".# c #6c4a4e",
".g c #6d4948",
".t c #6d4e58",
"#t c #6d6f6c",
"cx c #6e5851",
"#5 c #6e676a",
"aV c #6e7dbd",
".b c #6f4d53",
".5 c #6f7170",
".d c #704d4d",
"Qt c #715157",
"dQ c #725152",
"dZ c #736d70",
"a# c #73746f",
".r c #74555b",
".s c #754a58",
"c6 c #755557",
"#l c #76585f",
"#M c #76615e",
"eI c #7682dc",
"cv c #77585b",
"b7 c #777879",
"a0 c #795b63",
".V c #7a5b5f",
"de c #7a7b78",
"eq c #7a89cb",
"el c #7b5f67",
".u c #7c5e63",
"#P c #7c7d7e",
"aT c #7d7d7b",
".Z c #7e5e5a",
".q c #7e6166",
"bq c #7f7f7e",
"eU c #80646a",
"d2 c #8084a4",
"aW c #8089d2",
"fd c #816159",
"d5 c #816466",
"bz c #818181",
"ez c #83676d",
"bX c #84645d",
".9 c #846769",
"dx c #847173",
"bU c #856a70",
"ak c #858586",
"b5 c #866a6d",
"c7 c #876c73",
"e2 c #886965",
"fa c #888788",
"ce c #8a6f73",
"a9 c #8a898b",
".P c #8b8988",
".h c #8c7176",
"#S c #8c8b8b",
"#E c #8c8b8d",
"ex c #8c9bec",
"cu c #8d928f",
".H c #8e7479",
"#n c #8e8380",
"cc c #8e8d8d",
"ay c #8f7476",
"cq c #8f7d7e",
"ap c #907168",
".U c #90767c",
"aE c #916965",
".p c #92787b",
"bd c #936c68",
"fk c #946f6c",
"cV c #949294",
"bB c #957d84",
"#y c #967d81",
"d7 c #969496",
".Y c #977a74",
"ct c #979b9a",
"bb c #987f83",
"#7 c #989698",
"dt c #989a98",
"bD c #99736e",
"d6 c #997f81",
"#k c #998788",
"#W c #9a9798",
"bj c #9b9e9c",
"er c #9c8386",
"b# c #9c999a",
"cy c #9d7871",
"bH c #9e8588",
"#N c #9e9b9c",
".o c #9f878d",
"dh c #a08e8f",
"ed c #a08e92",
"f# c #a28b92",
"bm c #a39fa0",
"bJ c #a3a5a6",
".8 c #a68e94",
"ch c #a78279",
"#h c #a7a2a4",
"#e c #a7a8a8",
"cH c #a89096",
"ba c #a8979a",
"fb c #a97e7a",
"al c #a99798",
"cp c #a9aaa9",
".G c #aa999c",
"#A c #ab807d",
".i c #ad9ca0",
"e9 c #adadab",
"d0 c #adaeaf",
".n c #ae9c9e",
"#J c #af9ea0",
"do c #b0999e",
"cD c #b0b0af",
"eN c #b1867f",
"ck c #b19fa2",
"ea c #b1b1b1",
"fx c #b2a1a4",
"#. c #b3a1a2",
"#v c #b3b2b2",
"aM c #b4a2a6",
"fv c #b5a4a8",
"#U c #b5b5b6",
"aO c #b68c84",
"dR c #b6aaab",
"df c #b7b6b6",
"dp c #b7bbbb",
"eV c #b8aba9",
"bl c #baadab",
".j c #baaeb1",
"aN c #bab9b9",
"#x c #bcaaab",
".T c #bcabaf",
"ax c #bcbfbe",
"bI c #bdb1b2",
"fu c #bdbbbc",
"ec c #beadaf",
"dy c #beb2b4",
"dS c #bebbba",
"cK c #bebdbe",
".Q c #bfc2c1",
"bA c #c0aeb1",
"cM c #c0b4b6",
"#O c #c0c3c2",
"bG c #c1bfbf",
".m c #c2b1b6",
"b0 c #c2c4c2",
"eA c #c3b6b7",
"#6 c #c3c0c1",
"ao c #c4b1ae",
"e1 c #c4b2b6",
"cG c #c4b8bb",
"b6 c #c5b4b8",
"a. c #c5b9bb",
".6 c #c5c6c5",
"aB c #c6988f",
"di c #c6c8c7",
".F c #c7babc",
"b4 c #c7c9c8",
"b1 c #c89590",
".l c #c9b8bd",
"cB c #c9bbbc",
".k c #c9bdbf",
"a8 c #cacbcb",
"an c #cbbebf",
"ee c #cbc8c8",
"cd c #ccbfc1",
"aZ c #ccbfc3",
"c5 c #ccc4c5",
"du c #ccc9ca",
"#9 c #cdc0c2",
"dF c #cec5c5",
"ek c #cfd0d0",
"cF c #d0d1d1",
"bF c #d1d2d2",
"aD c #d2a098",
"bi c #d3cfd0",
"bn c #d6a59c",
"cL c #d6c9cb",
"bT c #d6cdd0",
"fh c #d6d9d8",
"eB c #d7d6d6",
"eD c #d8a69e",
"#K c #d8d7d6",
"fw c #d9d0d1",
".z c #d9d8d9",
"dg c #dad1d2",
"bK c #dba59e",
"ft c #dbd1d1",
".7 c #dbd2d4",
"cU c #dbdadc",
"cm c #dca6a0",
"fm c #dcd3d5",
"az c #ddd7d8",
"bC c #dde0de",
"cz c #dec4be",
"#j c #ded8d9",
"cW c #dfd5d6",
"#R c #dfd6d9",
"fl c #dfd9da",
"cg c #dfdede",
"eX c #e0aba2",
"dm c #e0d6d8",
"em c #e0dfe0",
".A c #e0e2df",
".y c #e0e3e2",
".E c #e1d7db",
"cj c #e1e4e3",
"#Y c #e2d8da",
"cE c #e2e1e1",
".R c #e2e5e5",
"bs c #e3d9dc",
"#I c #e3dcdd",
"aS c #e3e6e6",
"c8 c #e4e5e4",
"#o c #e5aba4",
"cA c #e5e6e6",
"c# c #e6e0e1",
"bc c #e6e7e7",
"#m c #e7e0e1",
".S c #e7e1e2",
"eK c #e8e2e3",
"fq c #e8e5e6",
"#D c #e8e9e9",
"e3 c #e9b0a9",
".I c #e9e3e5",
"eL c #e9e6e7",
"b8 c #eab2ab",
"cX c #eae4e6",
".v c #eae7e8",
"d3 c #ebebea",
"bt c #ece5e7",
"#V c #ececec",
"#Q c #ede9e9",
"dD c #ededed",
"a1 c #eeeaeb",
"bZ c #eeeeee",
"#H c #efebec",
".B c #efefef",
"dE c #f0eced",
"aj c #f0f0f0",
"a4 c #f1b4ac",
"#q c #f1b8ac",
"ep c #f1b8ae",
".D c #f1e9eb",
"aK c #f1f1f2",
"cn c #f2b4aa",
"eg c #f2b9b0",
"bo c #f2bbb3",
"eE c #f2c0b7",
"eP c #f2c0b9",
".J c #f2f2f2",
"a6 c #f3b5ac",
"eu c #f3b7b0",
"fc c #f3bbb0",
"#p c #f3bbb2",
"fs c #f3efef",
"dG c #f3f3f3",
"b9 c #f4b7ae",
"et c #f4b8b2",
"e4 c #f4c7bf",
".W c #f4f0f0",
"f. c #f4f4f3",
"bh c #f4f4f4",
"#z c #f4f7f6",
"a5 c #f5b8b0",
"bL c #f5b9b2",
"bf c #f5c8c2",
"d4 c #f5f1f2",
"bN c #f5f4f5",
"dw c #f5f8f7",
"bR c #f6d4d0",
"e0 c #f6f2f1",
"eW c #f6f5f5",
"bW c #f6f5f6",
"#s c #f6f9f8",
"b2 c #f7bbaf",
"aQ c #f7bbb1",
"eh c #f7cfca",
"bx c #f7d4ce",
"eY c #f7d8d2",
"aL c #f7f3f4",
".x c #f7faf9",
"eO c #f8bcb1",
"bQ c #f8bcb3",
"d9 c #f8c7c0",
"ci c #f8ccc7",
"b3 c #f8d5d0",
"co c #f8d6d3",
"a7 c #f8dad7",
"e. c #f8ddd6",
"bO c #f8f4f5",
"cY c #f8fbfb",
"fj c #f9bdb5",
"cb c #f9d7d2",
"c. c #f9e3de",
".X c #f9f8f8",
"#b c #fabdb1",
"aP c #fabeb5",
"eQ c #fadcd8",
"eZ c #faece9",
"bV c #faf9f9",
"cw c #fafcfc",
"#a c #fbc0b4",
"bw c #fbc0b6",
"## c #fbc5b9",
"bE c #fbe5e2",
"#r c #fbedea",
"e# c #fbf2ef",
"#i c #fbfafb",
"br c #fbfdfd",
"ef c #fcbcb3",
"aC c #fcc1b6",
"ev c #fceae7",
"cs c #fcefee",
"bY c #fcf3f4",
"#d c #fcfbfa",
"#C c #fdc7bf",
"ei c #fdeceb",
"bp c #fdf3f2",
".C c #fdfbfc",
"cf c #fdfefc",
"be c #febeb7",
"cr c #fec3ba",
"#c c #fee4e0",
"aR c #feece9",
"bM c #fef8f7",
"ca c #fefcfd",
"#w c #fefffe",
"eo c #ffc1ba",
"#B c #ffc5bb",
"eF c #fff5f5",
"bg c #fffdfd",
"bu c #fffdfe",
".w c #ffffff",
"QtQtQtQtQtQtQtQtQtQtQtQtQtQt.#QtQtQtQtQtQtQtQtQtQtQtQtQtQtQtQtQtQtQtQtQtQtQtQtQtQtQtQtQtQtQtQtQtQtQtQt.aQtQtQtQtQtQtQtQtQtQtQtQt",
".b.b.b.b.b.b.b.b.b.b.b.b.b.b.#.b.b.b.b.b.b.b.b.b.b.b.b.b.b.b.b.b.b.b.b.b.b.b.b.b.b.b.b.b.b.b.b.b.b.b.b.c.b.b.b.b.b.b.b.b.b.b.b.b",
".d.d.d.d.d.d.d.d.d.d.d.d.d.d.d.b.#.#.b.b.b.b.b.b.b.b.b.b.b.b.b.b.b.b.b.b.b.b.b.b.b.b.b.b.b.b.b.b.b.b.b.b.b.b.b.b.a.e.d.d.d.d.d.d",
"QtQtQtQtQtQtQtQtQtQtQtQtQtQtQtQt.e.eQtQtQtQtQt.b.f.f.f.f.f.f.f.b.bQtQtQtQtQtQtQtQtQtQtQtQtQtQtQtQtQtQtQtQtQtQtQt.gQtQtQtQtQtQtQt",
"QtQtQtQtQtQtQtQtQtQtQtQtQtQtQtQt.e.eQtQtQtQt.b.h.i.j.k.l.m.n.o.p.q.r.s.f.#.b.sQtQtQtQtQtQtQtQtQtQtQtQtQtQtQtQtQt.gQtQtQtQtQtQtQt",
"QtQtQtQtQtQtQtQtQtQtQtQtQtQtQtQt.e.eQtQtQt.t.u.v.w.x.y.z.A.B.w.w.C.D.E.F.G.H.r.#.bQtQtQtQtQtQtQtQtQtQtQtQtQtQtQt.gQtQtQtQtQtQtQt",
"QtQtQtQtQtQtQtQtQtQtQtQtQtQtQtQt.e.eQtQtQt.s.r.I.J.K.L.L.L.M.N.O.P.Q.R.w.w.w.S.T.UQt.f.sQtQtQtQtQtQtQtQtQtQtQtQt.gQtQtQtQtQtQtQt",
"QtQtQtQtQtQtQtQtQtQtQtQtQtQtQtQt.e.eQtQtQt.f.V.W.X.Y.Z.0.1.2.3.L.L.L.L.4.5.6.w.w.w.7.8.r.fQtQtQtQtQtQtQtQtQtQtQt.gQtQtQtQtQtQtQt",
".d.d.d.d.d.d.d.d.d.d.d.d.d.d.d.b.#.#.b.d.#.9#..w.w###a#b#c.w#d.z#e#f.3.L.L.L#g#h#i.w.w#j#k.#.d.d.d.d.d.d.d.d.d.d.a.e.d.d.d.d.d.d",
".b.b.b.b.b.g.d.b.b.b.b.b.b.b.b.b.b.b.b.b#l#m.w.6#n#o#p#q#r.w.w.w.w.w#s.6#t#u.L.L.K#v.w.w#w#x.b.b.b.b.b.b.b.b.b.b.b.b.b.b.b.b.b.b",
"QtQtQtQtQt.#.bQtQtQtQtQtQtQtQtQtQtQtQt.b#y.w#z.3.L#A#B#C.w.w.w.w.w.w.w.w.w#D#E#F.L.L#G#H.w#IQtQtQtQtQtQtQtQtQtQtQtQtQtQtQtQtQtQt",
"QtQtQtQtQt.#.bQtQtQtQtQtQtQtQtQtQtQtQt.##J.w#K.L.L.4#L#M#N#O.y#z.w.w.w.w.w.w.w#D#P.L.L#f.w#Q#l.tQtQtQtQtQtQtQtQtQtQtQtQtQtQtQtQt",
"QtQtQtQtQt.#.bQtQtQtQtQtQtQtQtQtQtQtQtQt#R.w#S.L.L.L.L.L.L.L.M.3#T#P#U#V.w.w.w.w.w#W.L#X.w#YQtQtQtQtQtQtQtQtQtQtQtQtQtQtQtQtQtQt",
"QtQtQtQtQt.#.bQtQtQtQtQtQtQtQtQtQtQt.t.u.J.w#Z.L#0#1#2#3#u.L.L.L.L.L.L#4#5#6#d.w.w#7.L#8.w#9.fQtQtQtQtQtQtQtQtQtQtQtQtQtQtQtQtQt",
".b.b.b.b.b.g.e.b.b.b.b.b.b.b.b.b.b.b.b.#a..wa#.Laaabacadaeafagahaiab.L.L.L.L.2#haj#Z.Lak.walam.b.b.b.b.b.b.b.b.b.b.b.b.b.b.b.b.b",
".b.b.b.b.b.b.b.b.b.b.b.b.b.b.b.b.b.b.#.ran#zaoapaq.L.L.L.L#uarasatauavaw#F.L.L.L#F.L.Lax.way.#.b.b.e.#.b.b.b.b.b.b.b.b.b.b.b.b.b",
"QtQtQtQtQtQtQtQtQtQtQtQtQtQtQtQtQt.s#laz.waA.LaBaCaDaEaq#u.L.L.L.LaaaFaGaHaIaJ#u.L.L#uaKaL.q.tQtQt.b.eQtQtQtQtQtQtQtQtQtQtQtQtQt",
"QtQtQtQtQtQtQtQtQtQtQtQtQtQtQtQtQt.#aM.waN.L.LaOaPaQaPaRaS#UaT.4.L.L.L.L#3aUaVaWaX.LaY.waZ.bQtQtQt.b.eQtQtQtQtQtQtQtQtQtQtQtQtQt",
"QtQtQtQtQtQtQtQtQtQtQtQtQtQtQtQt.ta0a1.wa2.La3a4a5a6a7.w.w.w.w#ia8a9b.#F.L.L.Lab#u.Lb#.wba.#QtQtQt.b.eQtQtQtQtQtQtQtQtQtQtQtQtQt",
"QtQtQtQtQtQtQtQtQtQtQtQtQtQtQtQt.bbb.wbc#u.Lbdbea4bfbg.w.w.w.w.w.w.w.wbhbibjbk.3.L.L#K.w.h.bQtQtQt.b.eQtQtQtQtQtQtQtQtQtQtQtQtQt",
".#.#.#.#.#.#.#.#.#.#.#.#.#.#.#.e.cbl.wbm.L#ubnaQbobp.w.w.w.w.w.w.w.w.w.w.w.w.wbq.L.4brbs.b.#.e.e.e.#.a.#.#.#.#.#.#.#.#.#.#.#.#.#",
"QtQtQtQtQtQtQtQtQtQtQtQtQt.#.b.b#lbtbuaY.Lbvbwa6bx.w.w.w.w.w.w.w.w.w.w.w.w.w#dby.Lbz.wbA.cQtQtQtQtQtQtQtQtQtQtQtQtQtQtQtQtQtQtQt",
"QtQtQtQtQtQtQtQtQtQtQtQtQt.#Qt.bbB.wbC.L.LbDbwa6bE.w.w.w.w.w.w.w.w.w.w.w.w.wbF.L.LbG.wbH.cQtQtQtQtQtQtQtQtQtQtQtQtQtQtQtQtQtQtQt",
"QtQtQtQtQtQtQtQtQtQtQtQtQt.#Qt.fbI.wbJ.L.LbKbLbobM.w.w.w.w.w.w.w.w.w.w.w.w.w#N.L#FbNbO.u.#QtQtQtQtQtQtQtQtQtQtQtQtQtQtQtQtQtQtQt",
"QtQtQtQtQtQtQtQtQtQtQtQtQt.#.bQtaz.w#8.LbPbQa6bR.w.w.w.w.w.w.w.w.w.w.w.w.w.w#8.LbS.wbT.d.dQtQtQtQtQtQtQtQtQtQtQtQtQtQtQtQtQtQtQt",
"QtQtQtQtQtQtQtQtQtQtQtQtQt.#.bbUbVbW#F.LbX#abobY.w.w.w.w.w.w.w.w.w.w.w.w.wbZ#u.L#U.w.nam.dQtQtQtQtQtQtQtQtQtQtQtQtQtQtQtQtQtQtQt",
".#.#.#.#.#.#.#.#.#.#.#.#.#.g.cbH.wb0.L.Lb1b2b3.w.w.w.w.w.w.w.w.w.w.w.w.w.wb4.L#ubZbVb5.c.g.#.#.#.#.#.#.#.#.#.#.#.#.#.#.#.#.#.#.#",
"QtQtQtQtQtQt.s.#QtQtQtQtQtQt.#b6.wb7.L#4b8b9c..w.w.w.w.w.w.w.w.w.w.w.w.w.wbz.L.O.w.S.d.bQtQtQtQtQtQtQtQtQtQtQtQtQtQtQtQtQtQtQtQt",
"QtQtQtQtQtQtQt.#QtQtQtQtQtQt.rc#ca.2.L.abea6cb.w.w.w.w.w.w.w.w.w.w.w.w.w.waY.Lcc.wcd.c.bQtQtQtQtQtQtQtQtQtQtQtQtQtQtQtQtQtQtQtQt",
"QtQtQtQtQtQtQt.#QtQtQtQtQt.bcecfcg.L.LchaPa6ci.w.w.w.w.w.w.w.w.w.w.w.w.wcj#u.L.6.wck.c.bQtQtQtQtQtQtQtQtQtQtQtQtQtQtQtQtQtQtQtQt",
"QtQtQtQtQtQtQt.#QtQtQtQtQt.fba.w#e.LclcmaQcnco.w.w.w.w.w.w.w.w.w.w.w.w.wcp.L#4bh#wcq.c.bQtQtQtQtQtQtQtQtQtQtQtQtQtQtQtQtQtQtQtQt",
"QtQtQtQtQtQt.s.#QtQtQtQtQt.#.k.wbS.Lbvcr#abQcs.w.w.w.w.w.w.w.w.w.w.w.w.wct.Mcu.w.Icv.g.bQtQtQtQtQtQtQtQtQtQtQtQtQtQtQtQtQtQtQtQt",
".#.#.#.#.#.#.#.#.#.#.#.#.#.bc#cw#F.L.3cxcycz.w.w.w.w.w.w.w.w.w.w.w.w.wcA.4#4.R.wcBcC.a.#.#.#.#.#.#.#.#.#.#.#.#.#.#.#.#.#.#.#.#.g",
".bQtQtQtQtQtQtQtQtQtQtQt.bbU#ibi.L.L.L.L.L#u#8cD#i.w.w.w.w.w.w.w.w.w.wcE#F.LcF.w#dcG.r.bQtQtQtQtQtQtQtQtQtQtQtQtQtQtQtQtQtQtQt.#",
".bQtQtQtQtQtQtQtQtQtQtQt.#cH.wcc.Laa#1cI#u.L.L.LcJcF.w.w.w.w.w.w.w.w.w.w#G#4cK.w.w.wcL#l.bQtQtQtQtQtQtQtQtQtQtQtQtQtQtQtQtQtQt.#",
".bQtQtQtQtQtQtQtQtQtQtQt.fcM.wcN.LcOcPcQcRcScT.L.L#FcU.w.w.w.w.w.w.w.w.wbq.L.McV#d.w.wcWcv.bQtQtQtQtQtQtQtQtQtQtQtQtQtQtQtQtQt.#",
".bQtQtQtQtQtQtQtQtQtQtQt.rcXcY#F.LcZc0c1c2c3c3af#3.Lc4.C.w.w.w.w.w.w.w.w#d#t.L.L#TcU.w.wc5c6.bQtQtQtQtQtQtQtQtQtQtQtQtQtQtQtQt.#",
".bQtQtQtQtQtQtQtQtQtQt.bc7#ic8cl.Lawc9d.d#dadbdcdd.L.LcD.w.w.w.w.w.w.w.w.wbude.L.L#4df.w.wdg.V.fQtQtQtQtQtQtQtQtQtQtQtQtQtQtQt.#",
".#.#.#.#.#.#.#.#.#.#.#.cdh.wdi.L.Ldjd.dkdldadbdbdccI.L#8.w.w.w.w.w.w.w.w.w.w.wbmcl.L.LcV.w.wdm.9dn.#.g.#.#.#.#.#.#.#.#.#.#.#.#.g",
"QtQtQtQtQtQtQtQtQtQtQt.#do.wdp.L.Ldqd.dkdrdadbdbdsaG#udt.w.w.w.w.w.w.w.w.w.w.w.wdu.4.L.Ldvdw.w#Qdx.#.d.eQtQtQtQtQtQtQtQtQtQtQtQt",
"QtQtQtQtQtQtQtQtQtQtQt.#dy.wcF.L.Ldzc9c0drdadbdbdAdBdC#i.w.w.w.w.w.w.w.w.w.w.w.w.wdD.O.L.Lc4bZ.wdEbb.c.eQtQtQtQtQtQtQtQtQtQtQtQt",
"QtQtQtQtQtQtQtQtQtQtQt.bdF.wdGdH.L#udId.dJdKdLdadr#3.Ldf.w.w.w.w.w.w.w.w.w.w.w.w.w.w.xb7.L.L#X#s.wbWay.cQtQtQtQtQtQtQtQtQtQtQtQt",
"QtQtQtQtQtQtQtQtQtQtQt.bc5.w.w#Kcl.LdMc0d.c9dNdOdP.L.L#U.w.w.w.w.w.w.w.w.w.w.w.w.w.w.w.wbq.L.Lbz.w.wcWdQ.sQtQtQtQtQtQtQtQtQtQtQt",
"QtQtQtQtQtQtQtQtQtQtQt.#dR.w.w.wdSdT#3abdUcQdVdWdXdYbkbh.w.w.w.w.w.w.w.w.w.w.w.w.w.w.w.w.wdZ.L.Ld0.w.wdR.#QtQtQtQtQtQtQtQtQtQtQt",
".b.b.b.b.b.b.b.b.b.b.b.#cea1.w.w.wdS.L.L#ud1c0d.cTd2.w.w.w.w.w.w.w.w.w.w.w.w.w.w.w.w.w.w.wd3#u.L#ucA.wd4d5.#.b.b.b.b.b.b.b.b.b.b",
".g.g.g.g.g.g.g.a.a.#.#.#dnd6ca.w.wbud7.L.L.Lacac.Ld8d9e.e#.w.w.w.w.w.w.w.w.w.w.w.w.w.w.w.wea.L.L.Leb.w.wecdn.g.g.g.g.g.g.g.g.g.g",
"QtQtQtQtQtQtQt.b.eQtQtQtQt.bedbt.w.w.wee.N.L.L.L.Lcxefa6egehei.w.w.w.w.w.w.w.w.w.w.w.w.waK.4.Lej.L.Lek.wc#QtQtQtQtQtQtQtQtQtQtQt",
"QtQtQtQtQtQtQt.b.eQtQtQtQtQt.#ela1.w.w.wemen.L.L.LaEeo#pepa6epcibp.w.w.w.w.w.w.w.w.w.w.waA.LcOeq#3.L#8.wcaeresQtQtQtQtQtQtQtQtQt",
"QtQtQtQtQtQtQt.b.eQtQtQtQtQtQt.bbBa1.w.w.w#da9#u.L.LbXetbQeueua6#pev.w.w.w.w.w.w.w.w.wcc.L.Lewexey.L#u.B.wan.fQtQtQtQtQtQtQtQtQt",
"QtQtQtQtQtQtQt.b.eQtQtQtQtQtQtQt.fezeAbV.w.w.weB.N.L.LeCeDbwa5eua6eEeF.w.w.w.w.w.w.wcp.L.LeGeHeIeJ.L.LcU.weK.rQtQtQtQtQtQtQtQtQt",
"QtQtQtQtQtQtQt.b.eQtQtQtQtQtQtQtQt.b.##keL.w.w.w#DeM.L.L#ueNaPeOeua6ePeQbM.w.w.w.weBcl.LeRdcdbeSeT.L.Lem.wbNeU.bQtQtQtQtQtQtQtQt",
".#.#.#.#.#.#.#.g.a.#.#.#.#.#.#.#.#.#.#.cc6eVeW.w.wcaa9.M.L.L.eeXbwbL#qcneEeYeZ.wajdH.L#udrdLdadaab.L.2#i.we0.V.a.#.#.#.#.#.#.#.#",
".g.b.b.b.b.b.b.b.b.b.b.b.b.b.b.b.b.b.b.b.#amb5e1.w.w.wa8cJ.L.L#ue2e3bwa5epa4a5e4e5.L.Le6dcdae7e8.L.Le9.w.wf..u.#.b.b.b.b.b.b.b.b",
".#QtQtQtQtQtQtQtQtQtQtQtQtQtQtQtQtQtQtQtQtQt.b.bf#a1.w.wbNfa#u.L.L#4fbaQaPfcbefd.L.LcIdJfefffgaa.L#5.w.w.w.Jel.bQtQtQtQtQtQtQtQt",
".#QtQtQtQtQtQtQtQtQtQtQtQtQtQtQtQtQtQtQtQtQtQtQt.#.q.Fbu.w.wfhfi.L.L.LbPeNfjfk.L.L#2cPc0dUac.L.L#g#z.w.w.wflQtQtQtQtQtQtQtQtQtQt",
".#QtQtQtQtQtQtQtQtQtQtQtQtQtQtQtQtQtQtQtQtQtQtQtQt.b.b#yfm.w.w.weec4.L.L.Lfncl.L#2fofpab.L.L.L.2c8.w.w.w.w#J.#QtQtQtQtQtQtQtQtQt",
".#QtQtQtQtQtQtQtQtQtQtQtQtQtQtQtQtQtQtQtQtQtQtQtQtQtQt.fQt.8fq.w.w.w#UdH.L.L.L.L.L.L.L.L.L#u#td3.w.w.w.wdE.q.bQtQtQtQtQtQtQtQtQt",
".#QtQtQtQtQtQtQtQtQtQtQtQtQtQtQtQtQtQtQtQtQtQtQtQtQtQtQt.s.##l.8.S.w.w.wb4fr#F.L.L.LclcJcc.R.w.w.w.w.wfs.H.bQtQtQtQtQtQtQtQtQtQt",
".c.a.a.a.a.a.a.a.a.a.a.a.a.a.c.a.a.a.a.a.a.a.a.a.a.a.a.a.a.a.cdndQd6ft#i.w.wdGcFdffuem.w.w.w.w.w.w.wdgd5.c.#.#.#.#.#.#.#.#.#.#.#",
"QtQtQtQtQtQtQtQtQtQtQtQtQt.b.#QtQtQtQtQtQtQtQtQtQtQtQtQtQtQtQtQt.b.#.b.UaZ.X.w.w.w.w.w.w.w.w.w.w#Hfvc6dndQQtQtQtQtQtQtQtQtQtQtQt",
"QtQtQtQtQtQtQtQtQtQtQtQtQtQt.#QtQtQtQtQtQtQtQtQtQtQtQtQtQtQtQtQtQtQtQt.b.bc7#Jfw.w.w.w.w.w#ifmfx.q.#.b.aQtQtQtQtQtQtQtQtQtQtQtQt",
"QtQtQtQtQtQtQtQtQtQtQtQtQtQt.#QtQtQtQtQtQtQtQtQtQtQtQtQtQtQtQtQtQtQtQtQtQt.b.#Qt#y.kancM#kbUQt.#.bQtQt.aQtQtQtQtQtQtQtQtQtQtQtQt",
"QtQtQtQtQtQtQtQtQtQtQtQtQtQt.#QtQtQtQtQtQtQtQtQtQtQtQtQtQtQtQtQtQtQtQtQtQtQtQtQt.b.b.f.#.f.bQtQtQtQtQt.aQtQtQtQtQtQtQtQtQtQtQtQt",
"QtQtQtQtQtQtQtQtQtQtQtQtQtQt.#QtQtQtQtQtQtQtQtQtQtQtQtQtQtQtQtQtQtQtQtQtQtQtQtQtQtQtQtQtQtQtQtQtQtQtQt.aQtQtQtQtQtQtQtQtQtQtQtQt"};
