/* XPM */
static char *dummy[]={
"64 64 539 2",
"#y c #000000",
"ca c #002100",
"#z c #161519",
"#5 c #1c1500",
"#N c #222126",
"ak c #272117",
"aa c #2b0002",
"#4 c #2b2a30",
"fJ c #2e413d",
"#A c #2f2925",
"cl c #35312f",
"e9 c #383023",
"bF c #3b3737",
"aS c #3c1518",
"ei c #412126",
"#O c #413c3e",
"ao c #454144",
"e. c #46292f",
"#M c #47524e",
"b7 c #482924",
"#6 c #4a4649",
"f0 c #4c302e",
"dI c #4c4543",
"dF c #4c5552",
"c0 c #4e4a4e",
"ap c #501417",
"fk c #503736",
"aR c #505857",
"cI c #524a42",
"e1 c #544e4e",
"bD c #545c5b",
"#3 c #575153",
"gj c #575f5f",
"d9 c #59514d",
"a3 c #5b5557",
"#2 c #5d4543",
"aj c #5e585b",
"er c #603636",
"#B c #604a48",
"eJ c #61362c",
"g# c #614942",
"b6 c #636766",
".a c #644d48",
"#c c #664143",
"gm c #665152",
".e c #67514d",
"cZ c #68413c",
".g c #68454e",
".c c #694549",
"eK c #696263",
".u c #6a4a53",
"#P c #6b6466",
"d# c #6c453b",
".# c #6c4a4e",
"eN c #6d3635",
".f c #6d4948",
".N c #6d4e58",
"ax c #6d6f6c",
"aO c #6e676a",
".b c #6f4d53",
".d c #704d4d",
"Qt c #715157",
"du c #716a6d",
"#d c #725152",
".l c #74555b",
"cf c #754033",
"bt c #754a58",
".t c #76585f",
".E c #77585b",
"bv c #777879",
"fg c #795851",
"bj c #795b63",
".B c #7a5b5f",
"bC c #7d8583",
"a8 c #7e514c",
"bu c #7e6166",
"fB c #7f6162",
"d3 c #7f7f7e",
".k c #80646a",
"#0 c #812f2c",
"d4 c #818181",
"fa c #84645d",
".Z c #846769",
"b4 c #847173",
"#7 c #848380",
".j c #856a70",
"cb c #857d81",
"cc c #866a6d",
"aQ c #876c73",
"fK c #886965",
"aC c #894032",
"#X c #8a6f73",
"fU c #8a898b",
"#C c #8b6c64",
"bK c #8b8988",
".h c #8c7176",
"fD c #8c8b8b",
"ai c #8c8b8d",
"ew c #8e6458",
"#K c #8e7479",
"cx c #8e8d8d",
"et c #8f7476",
"fr c #90767c",
".D c #917f81",
".m c #92787f",
"cS c #936c68",
"f8 c #93766e",
"cN c #939796",
"a5 c #947a7e",
".v c #967d81",
"dk c #976761",
"c# c #979b9a",
".0 c #987f83",
"ev c #989698",
"cP c #9a8186",
".F c #9a898b",
"e0 c #9b8389",
".C c #9d858b",
"cG c #9e8588",
"#L c #9e8d8f",
"ay c #9f9c9e",
"aI c #a08e8f",
".L c #a08e92",
"fP c #a0a2a2",
"#v c #a19094",
"#g c #a28e8a",
".x c #a29091",
"gw c #a38b8f",
"gf c #a39296",
"#Q c #a39fa0",
"aJ c #a3a5a6",
"cd c #a48b8d",
".X c #a59496",
"db c #a79598",
"bU c #a7a8a8",
"bL c #a8857c",
"gy c #a8979a",
"b3 c #a9aaa9",
"co c #aa544a",
"fA c #aa9e99",
"bS c #aa9fa2",
"c3 c #ab9a9e",
"aH c #abb1af",
"f1 c #ac6e67",
"eZ c #ad959a",
".q c #ad9ca0",
"fQ c #adadab",
"ef c #adaeaf",
"#1 c #ae4c3e",
"eg c #ae9c9e",
"a6 c #af9ea0",
"gh c #b0999e",
"ft c #b1867f",
"fi c #b19aa0",
".i c #b19fa2",
"bi c #b1abab",
"#u c #b2a1a4",
"gv c #b3a7a8",
"bE c #b49ca0",
"bs c #b4a2a6",
"aw c #b4b4b4",
"dy c #b5847f",
"a# c #b5a4a8",
"d6 c #b6a4a6",
"#a c #b7a5a8",
"gr c #b7b6b6",
"da c #b7bbbb",
"e2 c #b88e83",
"gn c #b8aba9",
"fp c #b98079",
"#b c #b9adad",
"gg c #b9b8b7",
"eh c #b9bdbc",
"gx c #baa8ab",
"#x c #bab9b9",
"d8 c #bab9bb",
"#D c #bcaaa9",
".V c #bcabaf",
"cv c #bcbabb",
"gs c #bdbbbc",
"dl c #beadaf",
"fI c #beb2b4",
"cE c #bfc2c1",
"fj c #c0aeb1",
"dc c #c0b4b4",
"dm c #c0b4b6",
".A c #c1afb2",
"aA c #c1b5b7",
"c4 c #c2938b",
"bl c #c2c4c2",
"#e c #c5b9bb",
"fR c #c5bdbc",
"aG c #c5c3c4",
"dd c #c5c6c5",
"ab c #c65648",
"bm c #c69892",
"gt c #c7baba",
"d5 c #c7babc",
"dt c #c7c3c0",
"ah c #c7c9c8",
".Y c #c8bbbe",
"cO c #c9bdbf",
"ej c #ca9d96",
"eM c #cacbcb",
"#h c #cb9892",
"cm c #cbbebf",
"av c #cbcccd",
"#Y c #ccc4c5",
"eX c #cd8c83",
"g. c #cdcdcd",
"cn c #cecfce",
"de c #d09d93",
"eu c #d0c8c8",
"dx c #d0d1d1",
"al c #d1d1cf",
"ga c #d29a91",
"dw c #d3cacb",
"eY c #d3cfd0",
"gq c #d3d3d4",
".y c #d4c8cc",
"bk c #d4cbcb",
".s c #d4cbcd",
"bV c #d58f85",
"gc c #d6a59c",
"fl c #d8a69e",
"#8 c #d8d7d6",
"aP c #d8d7d8",
"eO c #d97260",
"dT c #d9a8a0",
"ge c #d9d4d4",
"dS c #d9d8d9",
"aU c #da5f4b",
"fX c #da5f50",
"dn c #da9d96",
"fZ c #dadedd",
"bX c #db6250",
"cy c #db776b",
"fC c #dbd1d1",
"fq c #dbdadc",
"ez c #dc594b",
"cK c #dc6554",
"aq c #dd5c50",
"cz c #de5c4b",
"aL c #de5f55",
"fN c #de6859",
"#9 c #dececa",
"eL c #ded4d5",
"a4 c #dedcdd",
"ey c #df5f50",
"b8 c #df6a58",
"eA c #df6a5d",
".2 c #dfcac3",
"#o c #dfd3cd",
"dG c #dfd6d9",
"aB c #dfdede",
"c1 c #dfe2e1",
"aK c #e0624f",
"cq c #e06254",
"ar c #e06d5c",
"cA c #e06d61",
"fE c #e0aba2",
"#G c #e0d4cf",
"bT c #e0d6d8",
".p c #e0dada",
"#R c #e0dfe0",
"aV c #e16559",
"bW c #e16f60",
"bY c #e17763",
"e# c #e1aca3",
"#E c #e1e4e3",
"aT c #e25c50",
"cg c #e27264",
"fM c #e27b6e",
".Q c #e2c2bc",
"#I c #e2d2cf",
".O c #e2dbdc",
"cu c #e2e1e1",
"gk c #e2e5e5",
"cp c #e35f55",
"fW c #e36853",
"f3 c #e36a5c",
"aD c #e37467",
"#p c #e3d3d0",
"dR c #e3dcdd",
"#t c #e3dee0",
"bR c #e3e6e6",
"do c #e4776b",
"aM c #e47d6a",
"gd c #e4e5e4",
"ad c #e56254",
"dM c #e57f6d",
"dY c #e58776",
"dA c #e5887a",
"gb c #e5b0a7",
"#J c #e5d9d6",
"f# c #e5dfe0",
"#Z c #e5e6e6",
"ac c #e66554",
"ex c #e66559",
"b9 c #e6796a",
"bd c #e68170",
"bf c #e68979",
"gu c #e6e0e1",
"es c #e6e7e7",
"dz c #e7685d",
"f2 c #e77264",
"bA c #e78373",
"eB c #e78377",
"eP c #e87467",
"be c #e87d71",
"bq c #e88576",
"ch c #e8867a",
"cV c #e88d82",
"fx c #e89487",
"#i c #e8afa7",
"#S c #e8d7d1",
"am c #e8d8d6",
"bc c #e97d6d",
"d1 c #e97f74",
"eE c #e98779",
"dZ c #e98d7c",
"dD c #e98f82",
"eQ c #e99689",
"fL c #e9b0a9",
".K c #e9e3e5",
"eH c #ea7f71",
"di c #ea8776",
"c8 c #ea9184",
"el c #ea9686",
"dJ c #eaa49b",
"bw c #eab2ab",
".M c #eae3e5",
".I c #eae6e6",
"gl c #eae7e8",
"c9 c #eb8174",
"as c #eb897c",
"bb c #eb9387",
"aE c #eb9889",
"cs c #eb998e",
"fO c #eba095",
"#w c #ebe4e6",
"cw c #ebe8e9",
"ag c #ebebea",
"a9 c #ec7b6e",
"ci c #ec9284",
"cW c #ec9489",
"br c #ec998b",
"cB c #ec9b90",
"aW c #eca092",
"dr c #eca197",
"#T c #ecdfdc",
"f. c #ece5e7",
"#F c #ece8e7",
"d. c #ed857a",
"ek c #ed8d7f",
"ep c #ed968c",
"c. c #eda399",
"cU c #eda39b",
"cX c #eda79b",
"bN c #eda99f",
".3 c #edb4ab",
"dp c #eea49b",
"eq c #eea99d",
"dX c #eeafa3",
".P c #eee9e6",
"dH c #eeeaeb",
".W c #eeeeed",
"bh c #eeeeee",
"fV c #ef9e92",
"eD c #efa499",
"b. c #efa69d",
"eC c #efb1a9",
"c2 c #efe8eb",
"fh c #efefef",
"eW c #f09287",
"fo c #f0998b",
"a0 c #f0a79f",
"d0 c #f0ada5",
"fG c #f0b3ab",
"au c #f0f0f0",
"dj c #f18579",
"e8 c #f1ada1",
"dh c #f1ada3",
"dN c #f1afa7",
".6 c #f1b3a9",
"fw c #f1b8ac",
"#j c #f1b8ae",
"d2 c #f1c3ba",
"bO c #f1c4bc",
"fS c #f1e9eb",
"go c #f1eded",
"eI c #f28d7b",
"ae c #f29689",
"dE c #f2b0a9",
"bz c #f2b4aa",
"eR c #f2b9b0",
"fd c #f2bbb3",
"fm c #f2c0b7",
"dW c #f2c0b9",
"f4 c #f3b0a7",
"ee c #f3b5ac",
"aN c #f3b7b0",
"a1 c #f3bbb2",
"eS c #f3bcb3",
"aZ c #f3bcb5",
"dg c #f3c1b8",
"b1 c #f3c1ba",
"fn c #f3cbc4",
"fs c #f3eff1",
"#r c #f3f3f1",
"ds c #f49788",
"bx c #f4b7ae",
"fb c #f4b8b2",
"fF c #f4bcb1",
"dO c #f4c2bc",
"b0 c #f4c7c1",
"dK c #f4ccc3",
"dP c #f4ccc5",
"## c #f4f0f0",
"a7 c #f4f4f4",
"f9 c #f4f7f6",
"cJ c #f5a79d",
"df c #f5b8ae",
"dV c #f5b8b0",
".4 c #f5bdb3",
".5 c #f5c3bc",
"fe c #f5c8c0",
"bI c #f5c8c2",
"ed c #f5d1cb",
"a. c #f5ecec",
"#H c #f5f0ec",
"#U c #f5f0ee",
".r c #f5f1f2",
"cR c #f5f8f7",
"ff c #f6aea2",
"f5 c #f6beb5",
"bp c #f6c5bf",
".7 c #f6c9c4",
"ck c #f6cec8",
"bo c #f6d7cf",
"e6 c #f6d7d1",
".z c #f6f5f5",
"bM c #f7bbaf",
"eG c #f7cbc5",
"eo c #f7cfca",
"eT c #f7d4cc",
"cD c #f7dcd6",
"en c #f7e1dc",
".n c #f7f6f6",
"gp c #f7f6f7",
"ce c #f7faf9",
"fv c #f8bcb1",
"fc c #f8bcb3",
"eF c #f8ccc7",
"fy c #f8d5d0",
"bH c #f8dad5",
".T c #f8dad7",
".R c #f8ddd6",
"cY c #f8ded9",
"gi c #f8f4f4",
".J c #f8f7f7",
"d7 c #f8f7f8",
"f6 c #f9bdb3",
"c5 c #f9bdb5",
"eU c #f9d7d2",
"bg c #f9dbd8",
"ec c #f9dfdb",
"by c #f9e3de",
"cF c #f9f4f5",
"b5 c #f9f8f8",
"fT c #f9fbf9",
"bn c #fab9b2",
"fu c #fabeb5",
"cT c #fac3ba",
"fz c #fad2cd",
"bQ c #fadcd8",
"cC c #fadcd9",
"b2 c #fae0dd",
"eb c #fae4e1",
"e5 c #faece9",
"#n c #faf4f4",
"#q c #faf8f7",
"#W c #fafcfa",
"dv c #fafcfc",
".H c #fafcfd",
"fH c #faffff",
"dU c #fbc0b6",
"c7 c #fbe5e2",
"ct c #fbe9e6",
"aY c #fbeeec",
"b# c #fbf1ed",
"c6 c #fbf2ef",
"eV c #fbf2f0",
"an c #fbf9f7",
"#V c #fbfaf9",
"#s c #fbfafb",
"dQ c #fbfdfd",
"f7 c #fcbcb5",
"bG c #fcc1b6",
"e3 c #fcc1b8",
"#l c #fcc6bb",
"a2 c #fce6e4",
"ea c #fceae7",
"ba c #fceeeb",
"cL c #fcefec",
"e4 c #fcf3f1",
".U c #fcf3f4",
".G c #fcfbfa",
"az c #fcfbfc",
"dq c #fcfdfb",
"cH c #fcfefe",
"#k c #fdbdb5",
"e7 c #fde7e5",
"at c #fdf0ee",
"bZ c #fdf3f2",
"bP c #fdf7f6",
"aF c #fdfbf9",
"#f c #fdfbfc",
"dC c #fef1f0",
"dL c #fef4f4",
"em c #fef5f6",
"cM c #fef8f7",
".8 c #fefbfa",
"#. c #fefcfd",
"cr c #fefffc",
".1 c #fefffe",
"#m c #ffe1dc",
"fY c #ffe9e6",
"bB c #ffeeeb",
"bJ c #fff1ed",
"aX c #fff5f5",
".S c #fff6f6",
"cj c #fff9f8",
"dB c #fffcfb",
".9 c #fffdfd",
".w c #fffdfe",
"af c #fffefe",
"cQ c #fffeff",
".o c #ffffff",
"QtQtQtQtQtQtQtQtQtQtQtQtQtQt.#QtQtQtQtQtQtQtQtQtQtQtQtQtQtQtQtQtQtQtQtQtQtQtQtQtQtQtQtQtQtQtQtQtQtQtQt.aQtQtQtQtQtQtQtQtQtQtQtQt",
".b.b.b.b.b.b.b.b.b.b.b.b.b.b.#.b.b.b.b.b.b.b.b.b.b.b.b.b.b.b.b.b.b.b.b.b.b.b.b.b.b.b.b.b.b.b.b.b.b.b.b.c.b.b.b.b.b.b.b.b.b.b.b.b",
".d.d.d.d.d.d.d.d.d.d.d.d.d.d.d.b.#.#.b.b.b.b.b.b.b.b.b.b.b.b.b.b.b.b.b.b.b.b.b.b.b.b.b.b.b.b.b.b.b.b.b.b.b.b.b.b.a.e.d.d.d.d.d.d",
"QtQtQtQtQtQtQtQtQtQtQtQtQtQtQtQt.e.eQtQtQtQtQtQtQtQtQtQtQtQtQtQtQtQtQtQtQtQtQtQtQtQtQtQtQtQtQtQtQtQtQtQtQtQtQtQt.fQtQtQtQtQtQtQt",
"QtQtQtQtQtQtQtQtQtQtQtQtQtQtQtQt.e.eQtQtQtQtQtQtQtQtQtQtQtQtQtQtQtQtQtQtQtQtQtQtQtQtQtQtQtQtQtQtQtQtQtQtQtQtQtQt.fQtQtQtQtQtQtQt",
"QtQtQtQtQtQtQtQtQtQtQtQtQtQtQtQt.e.eQtQtQtQtQtQtQtQtQtQtQtQtQtQtQtQtQtQtQtQtQtQtQtQtQtQtQtQtQtQtQtQtQtQtQtQtQtQt.fQtQtQtQtQtQtQt",
"QtQtQtQtQtQtQtQtQtQtQtQtQtQtQtQt.e.eQtQtQtQtQtQtQtQtQtQtQtQtQtQtQtQtQtQtQtQtQtQtQtQtQtQtQtQtQtQtQtQtQtQtQtQtQtQt.fQtQtQtQtQtQtQt",
"QtQtQtQtQtQtQtQtQtQtQtQtQtQtQtQt.e.eQtQtQtQtQtQtQtQtQtQtQtQtQtQtQtQtQtQtQtQtQtQtQtQtQtQtQtQtQtQtQtQtQtQtQtQtQtQt.fQtQtQtQtQtQtQt",
".d.d.d.d.d.d.d.d.d.d.d.d.d.d.d.b.#.#.b.d.d.d.d.d.d.d.d.d.d.d.d.d.d.d.d.d.d.d.d.d.d.d.d.d.d.d.d.d.d.d.d.d.d.d.d.d.a.e.d.d.d.d.d.d",
".b.b.b.b.b.f.d.b.b.b.b.b.b.b.b.b.b.b.b.b.#.g.#.b.d.b.b.b.b.b.b.b.b.b.b.b.#.#.b.b.b.b.b.b.b.b.b.b.b.b.b.b.b.b.b.b.b.b.b.b.b.b.b.b",
"QtQtQtQtQt.#.bQtQtQtQtQtQtQtQtQtQtQtQt.b.h.i.j.#.k.lQtQt.bQtQtQtQtQtQtQt.#.bQtQtQtQtQtQtQtQtQtQtQtQtQtQtQtQtQtQtQtQtQtQtQtQtQtQt",
"QtQtQtQtQt.#.bQtQtQtQtQtQtQtQtQtQtQt.b.m.n.o.p.q.r.s.l.t.kQt.b.u.bQtQt.b.f.bQtQtQtQtQtQtQtQtQtQtQtQtQtQtQtQtQtQtQtQtQtQtQtQtQtQt",
"QtQtQtQtQt.#.bQtQtQtQtQtQtQtQtQtQtQt.b.v.w.o.o.o.o.o.x.y.z.A.B.C.D.lQt.j.E.#QtQtQtQtQtQtQtQtQtQtQtQtQtQtQtQtQtQtQtQtQtQtQtQtQtQt",
"QtQtQtQtQt.#.bQtQtQtQtQtQtQtQtQtQtQt.u.F.G.o.o.o.o.H.I.o.o.J.K.o.o.v.L.J.M.k.#.u.NQtQtQtQtQtQtQtQtQtQtQtQtQtQtQtQtQtQtQtQtQtQtQt",
".b.b.b.b.b.f.e.b.b.b.b.b.b.b.b.b.b.dQt.O.o.P.Q.R.S.T.U.o.o.o.o.o.o.V.W.o.o.v.X.Y.Z.#.b.b.b.b.b.b.b.b.b.b.b.b.b.b.b.b.b.b.b.b.b.b",
".b.b.b.b.b.b.b.b.b.b.b.b.b.b.b.b.b.g.0.o.1.2.3.4.5.6.7.8.9.o.o#..w##.o.o.M#a.o.o#b#c.#Qt#d.b.b.b.b.e.#.b.b.b.b.b.b.b.b.b.b.b.b.b",
"QtQtQtQtQtQtQtQtQtQtQtQtQtQtQtQtQt.u#e.o#f#g#h#i#j#k#l#m.o#n#o#p.o.o.o#q#r#s.o.o#t#u#vQtQtQtQtQtQt.b.eQtQtQtQtQtQtQtQtQtQtQtQtQt",
"QtQtQtQtQtQtQtQtQtQtQtQtQtQtQtQt.N.t#w.o#x#y#y#z#A#B#C#D#E#F#G#H.o.o.o#I#J.o.o.o.o.o.o#K.bQtQtQtQt.b.eQtQtQtQtQtQtQtQtQtQtQtQtQt",
"QtQtQtQtQtQtQtQtQtQtQtQtQtQtQtQt.u#L.o.o#M#y#y#y#y#y#y#y#y#N#O#P#Q#R.o#S#T#U.o#V.o.o#W#X.bQtQtQtQt.b.eQtQtQtQtQtQtQtQtQtQtQtQtQt",
"QtQtQtQtQtQtQtQtQtQtQtQtQtQtQtQt.b#Y.o#Z#z#y#0#1#0#2#3#4#z#y#y#y#y#5#6#7#8.o.o#9a.#fa#.bQtQtQtQtQt.b.eQtQtQtQtQtQtQtQtQtQtQtQtQt",
".#.#.#.#.#.#.#.#.#.#.#.#.#.#.#.#.E.W.o#Q#yaaabacadaeaf#sagahaiajak#y#y#y#y#Malaman.O.#.#.e.e.e.e.e.#.a.#.#.#.#.#.#.#.#.#.#.#.#.#",
"QtQtQtQtQtQtQtQtQtQtQtQtQt.#.b.u.v.w.wao#yapadaqarasat.o.o.o.o.oauavawax#y#y#zayaz.V.#.b.eQtQtQtQtQtQtQtQtQtQtQtQtQtQtQtQtQtQtQt",
"QtQtQtQtQtQtQtQtQtQtQtQtQt.#Qt.#aA.oaB#y#yaCadaqaDaEaF.o.o.o.o.o.o.o.o.oaG#O#y#yaHaI.u.b.dQtQtQtQtQtQtQtQtQtQtQtQtQtQtQtQtQtQtQt",
"QtQtQtQtQtQtQtQtQtQtQtQtQt.#.bQt.p.oaJ#y#yabaKaLaMaN.o.o.o.o.o.o.o.o.o.o.o#saO#yaP.i.u.b.dQtQtQtQtQtQtQtQtQtQtQtQtQtQtQtQtQtQtQt",
"QtQtQtQtQtQtQtQtQtQtQtQtQt.#.baQ#s.oaR#yaSaTaUaVaWaX.o.o.o.oaYaZa0a1a2.o.o.oa3#ya4a5.b.b.dQtQtQtQtQtQtQtQtQtQtQtQtQtQtQtQtQtQtQt",
"QtQtQtQtQtQtQtQtQtQtQtQtQt.#.#a6.oa7#N#ya8a9aDb.b#.o.o.o.obabbbcbdbebfbg.obh#z#ybibjQt.b.dQtQtQtQtQtQtQtQtQtQtQtQtQtQtQtQtQtQtQt",
".#.#.#.#.#.#.#.#.#.#.#.#.#.f.cbk.obl#y#ybmbnbo.o.o.o.o.o.obpbcbqbqbqbdbr.1ah#y#Nbs.#.#.f.f.#.#.#.#.#.#.#.#.#.#.#.#.#.#.#.#.#.#.#",
"QtQtQtQtQtQtbt.#QtQtQtQtQt.bbu.r.obv#yakbwbxby.o.o.o.o.o.obzbdbqbqbqbAbAbBbC#ybDbE.u.#.bQtQtQtQtQtQtQtQtQtQtQtQtQtQtQtQtQtQtQtQt",
"QtQtQtQtQtQtQt.#QtQtQtQtQt.b.v.o#fbF#y.abG#jbH.o.o.o.o.o.obIbcbqbqbqbAasbJao#ybK.m.b.#.bQtQtQtQtQtQtQtQtQtQtQtQtQtQtQtQtQtQtQtQt",
"QtQtQtQtQtQtQt.#QtQtQtQtQt.##b.oa4#y#ybLbMbNbO.o.o.o.o.o.obPaWbcbdbebqbQbR#z#ybS.tQt.#.bQtQtQtQtQtQtQtQtQtQtQtQtQtQtQtQtQtQtQtQt",
"QtQtQtQtQtQtQt.#QtQtQtQtQtQtbT.obU#y#zbVbWbXbYbNaY.o.o.o.o.obZb0.6b1b2.ob3#y#zb4btQt.#.bQtQtQtQtQtQtQtQtQtQtQtQtQtQtQtQtQtQtQtQt",
"QtQtQtQtQtQtbt.#QtQtQtQt.b.kb5.ob6#yb7b8aqbXb9bec.#f.o.o.o.o.o.o.o.o.o.oc#cacbcc.bQt.#.bQtQtQtQtQtQtQtQtQtQtQtQtQtQtQtQtQtQtQtQt",
".#.#.#.#.#.#.#.#.#.#.#.#.ccd.wce#N#ycfadaqcgchbAcicj.o.o.ob#ck.o.o.o.o#Zclaka4cc.c.#.#.#.#.#.#.#.#.#.#.#.#.#.#.#.#.#.#.#.#.#.#.f",
".bQtQtQtQtQtQtQtQtQtQtQt.ucm.ocn#y#ycocpcqbAbqbAasb#.o.ocra0csct.o.o.ocu#N#ycv#K.#QtQtQtQtQtQtQtQtQtQtQtQtQtQtQtQtQtQtQtQtQtQt.#",
".bQtQtQtQtQtQtQtQtQtQt.N.Bcw.ocx#yakcyczcAbqbqbdcB#f.o.ocCbdcicD.o.o.o.o#PakcEcFcG.b.bQtQtQtQtQtQtQtQtQtQtQtQtQtQtQtQtQtQtQtQt.#",
".bQtQtQtQtQtQtQtQtQtQt.b.hcH.w#6#ycIcJcKarbAbdbqcD.o.o.ocLcDcM.o.o.o.o.obC#y#5cN.GcObj.uQtQtQtQtQtQtQtQtQtQtQtQtQtQtQtQtQtQtQt.#",
".bQtQtQtQtQtQtQtQtQtQt.bcPcQcR#N#ycScTcUcVcWcXcY.o.o.o.o.o.o.o.o.o.obZbpbzcZ#y#yc0c1c2#K.#QtQtQtQtQtQtQtQtQtQtQtQtQtQtQtQtQtQt.#",
".bQtQtQtQtQtQtQtQtQtQt.#c3.o#E#5#yc4c5a1c6aF.o.o.o.o.o.o.o.o.o.o.oc7c8bec9d.d##y#yakda#fdb.#btQtQtQtQtQtQtQtQtQtQtQtQtQtQtQtQt.#",
".#.#.#.#.#.#.#.#.#.#.#.cdc.odd#y#ydedfdg.G.o.o.o.o.o.o.o.o.o.o.o.odhbcbqbqdidjdk#5#y#ycN.odl.#.c.#.#.f.#.#.#.#.#.#.#.#.#.#.#.#.f",
"QtQtQtQtQtQtQtQtQtQtQt.#dm.o#x#y#5dndodpdq.o.o.o.obPaX.o.o.o.o.o.odrbdbqbqbqc9dsdtcl#y#ydudvdw.B.uQt.d.eQtQtQtQtQtQtQtQtQtQtQtQt",
"QtQtQtQtQtQtQtQtQtQtQt.##u.odx#y#ydydzdAdB.o.odCbNdDdDdEbP.o.o.o.oc.bdbqbqbqbdaW.obh#3#y#ydFa7dG.k.b.b.eQtQtQtQtQtQtQtQtQtQtQtQt",
"QtQtQtQtQtQtQtQtQtQtQt.baQdHa7dI#y#AdJbxdKbZdLbrbebAbAdMdN.1.o.o.odObcbAbqbAbcdP.o.ocebv#y#yc0dQdRbj.#.eQtQtQtQtQtQtQtQtQtQtQtQt",
"QtQtQtQtQtQtQtQtQtQtQtQt.#.x.odS#5#ydTdUdVdWdXbdbqdYbqbAdZbZ.o.o.ocjd0bAd1c8d2.9.GaX.o.od3#y#yd4.od5.#.#QtQtQtQtQtQtQtQtQtQtQtQt",
"QtQtQtQtQtQtQtQtQtQtQtQtQt.#d6d7d8d9e.#Be#dUaDb8bAchbqbAbqea.o.o.o.o.1ebecbZ.o.oedee.9.1.oax#y#yef.oeg.cQtQtQtQtQtQtQtQtQtQtQtQt",
".b.b.b.b.b.b.b.b.b.b.b.b.b.f#caI.oeh#y#yeiejekaUcqaDbAbAelemendBbpbP.o.o.o.o.o.oeoepeq.U.SdJer#y#zes.Jet.g.b.b.b.b.b.b.b.b.b.b.b",
".f.f.f.f.f.f.f.a.a.#.#.#.#.#.fQteu.oev#y#yaaewexeyezeAeBb0.odXeCeD#f.o.o.o.o.o.obyeEeF.oeGeHeIeJ#yeK.oeL.d.a.f.f.f.f.f.f.f.f.f.f",
"QtQtQtQtQtQtQt.b.eQtQtQtQtQtQt.b.laA.oeM#4#y#yeNeOePeQeReSeTdPbAeU.o.o.o.o.o.o.o.1eV.o.obNbdeWeX#y#yeY.oeZ.#QtQtQtQtQtQtQtQtQtQt",
"QtQtQtQtQtQtQt.b.eQtQtQtQtQtQtQt.N.#e0#.#Ee1#y#yeie2e3a1#jeeaN#je4.o.o.o.oe5e6e7.o.o.o.odpbeepe8e9#yaR.of.bj.NQtQtQtQtQtQtQtQtQt",
"QtQtQtQtQtQtQt.b.eQtQtQtQtQtQtQtQtQt.u.hf#.oai#z#y#yfafbfcaNaNaNfdea.odq#jeEbdbqbzdq.o.ofedMasfffg#y#zfh.ofi.#QtQtQtQtQtQtQtQtQt",
"QtQtQtQtQtQtQt.b.eQtQtQtQtQtQtQtQtQtQt.u.tfj.GdS#4#y#yfkfldUdVaNeefmcjdPbebAbqbAbefn.o.o.UaWbcfofp#y#yfq.o.y.bQtQtQtQtQtQtQtQtQt",
"QtQtQtQtQtQtQt.b.eQtQtQtQtQtQtQtQtQtQtQtbt.#frfsbha3#y#y#zftfufvaNfwdOfxdMchbqbqbdcB.9.o.ocjfyfzfA#y#y#R.o.OQtQtQtQtQtQtQtQtQtQt",
".#.#.#.#.#.#.#.f.a.#.#.#.#.#.#.#.#.#.#.#.#.#.cfBfC.ofDca#y#y.efEdUfFfGeAaLbWb9bAbAdr.o.o.o.o.ofHao#ybF#s.o.O.d.#.#.#.#.#.#.#.#.#",
".f.b.b.b.b.b.b.b.b.b.b.b.b.b.b.b.b.b.b.b.b.b.b.#QtfI.ocnfJ#y#y#zfKfLbGfMezaqaqfNb8fOaF.9.o.o.ofP#y#yfQ.o.ofR.#.b.b.b.b.b.b.b.b.b",
".#QtQtQtQtQtQtQtQtQtQtQtQtQtQtQtQtQtQtQtQtQtQtQtbt.ucPfSfTfU#z#y#yakbLfVfWaqfXezfNbNfmdOfYcrcv#z#yaO.o.o.wfr.bQtQtQtQtQtQtQtQtQt",
".#QtQtQtQtQtQtQtQtQtQtQtQtQtQtQtQtQtQtQtQtQtQtQtQtQt.#bjcO.ofZeK#y#y#yf0f1f2f3eBf4f5f6f7fEf8#z#y#Of9.o.o.V.bQtQtQtQtQtQtQtQtQtQt",
".#QtQtQtQtQtQtQtQtQtQtQtQtQtQtQtQtQtQtQtQtQtQtQtQtQtQt.b.b.mdR.og.dF#y#y#yg#gabwgbgcft.##z#y#ybFgd.o.oge.t.bQtQtQtQtQtQtQtQtQtQt",
".#QtQtQtQtQtQtQtQtQtQtQtQtQtQtQtQtQtQtQtQtQtQtQtQtQtQtQtQt.u.lgffS.oggdI#y#y#y#z#z#y#y#y#y#zaxag.o.ocw.k.bQtQtQtQtQtQtQtQtQtQtQt",
".#QtQtQtQtQtQtQtQtQtQtQtQtQtQtQtQtQtQtQtQtQtQtQtQtQtQtQtQtQt.N.#.tghgi.oavgjak#y#y#y#5fJcxgk.o.o.ogl#XgmQtQtQtQtQtQtQtQtQtQtQtQt",
".c.a.a.a.a.a.a.a.a.a.a.a.a.a.c.a.a.a.a.a.a.a.a.a.a.a.a.a.a.a.a.a.c#c.Egngo.ogpgqgrgs#R.o.o.o.oa7gt.B.c.#.#.#.#.#.#.#.#.#.#.#.#.#",
"QtQtQtQtQtQtQtQtQtQtQtQtQt.b.#QtQtQtQtQtQtQtQtQtQtQtQtQtQtQtQtQtQtQt.b.#.leggu.o.o.o.o.o#sf#gv.Z.b.b.b.c#dQtQtQtQtQtQtQtQtQtQtQt",
"QtQtQtQtQtQtQtQtQtQtQtQtQtQt.#QtQtQtQtQtQtQtQtQtQtQtQtQtQtQtQtQtQtQtQtQt.N.u.laQgw#agxgyb4.l.#.bQtQtQt.aQtQtQtQtQtQtQtQtQtQtQtQt",
"QtQtQtQtQtQtQtQtQtQtQtQtQtQt.#QtQtQtQtQtQtQtQtQtQtQtQtQtQtQtQtQtQtQtQtQtQtQtQt.b.u.#.#.#.bbtQtQtQtQtQt.aQtQtQtQtQtQtQtQtQtQtQtQt",
"QtQtQtQtQtQtQtQtQtQtQtQtQtQt.#QtQtQtQtQtQtQtQtQtQtQtQtQtQtQtQtQtQtQtQtQtQtQtQtQtQtQtQtQtQtQtQtQtQtQtQt.aQtQtQtQtQtQtQtQtQtQtQtQt",
"QtQtQtQtQtQtQtQtQtQtQtQtQtQt.#QtQtQtQtQtQtQtQtQtQtQtQtQtQtQtQtQtQtQtQtQtQtQtQtQtQtQtQtQtQtQtQtQtQtQtQt.aQtQtQtQtQtQtQtQtQtQtQtQt"};
