/* XPM */
static char *dummy[]={
"64 64 674 2",
".C c #000000",
"eB c #0c3124",
".x c #161519",
".T c #1c1500",
"ey c #1c372e",
".I c #222126",
"eS c #263611",
"dV c #263c36",
".U c #272117",
"fK c #2a3c2d",
".D c #2b0002",
"e6 c #2b2000",
"bH c #2b2a30",
"#l c #2f2925",
"fz c #314135",
".8 c #322915",
"aY c #323138",
".E c #33001a",
".p c #35312f",
"gk c #354644",
"#. c #360000",
".X c #383023",
"dr c #38373f",
"bc c #38463c",
".o c #391527",
"b3 c #3b3012",
"co c #3b3737",
"fq c #3c1518",
"gq c #3e2130",
"aV c #3e362e",
"gy c #3e3c45",
"bO c #403622",
"dj c #412126",
"cO c #413c3e",
"dG c #432016",
"#9 c #433c36",
"eA c #434e48",
".7 c #453c2c",
"bm c #454144",
"ej c #454e42",
".F c #46292f",
"#3 c #473c20",
"eI c #47524e",
"e8 c #482924",
"a6 c #48413d",
"hL c #494d32",
"ig c #4a2913",
".n c #4a3037",
"eW c #4a3b0c",
"gz c #4a4135",
"b4 c #4c302e",
"c8 c #4c412b",
"bI c #4c4543",
"ez c #4c5552",
"dS c #4e3023",
"cN c #4e373e",
"aQ c #4e453c",
".G c #503736",
"d8 c #504534",
"ec c #504a49",
"he c #52362d",
".i c #523c44",
"b8 c #52452a",
"br c #524a42",
"c. c #53451d",
"f9 c #543621",
".9 c #543c3d",
"#G c #54493b",
"cJ c #544e4e",
"cq c #554933",
".S c #563c35",
"av c #564e48",
"f8 c #565258",
"fm c #573c2c",
"b9 c #574929",
"au c #574d42",
"dM c #575b51",
".f c #584143",
".A c #59413c",
"cw c #594d3a",
"cp c #5b3037",
".j c #5b4549",
"aZ c #5b4d32",
"a. c #5b5147",
"gl c #5b5557",
"ce c #5c4d28",
"fx c #5c5141",
"cx c #5c5552",
"fJ c #5d302e",
"hG c #5d3745",
"bb c #5d4543",
"fG c #5e363e",
".R c #5e453c",
"eN c #5e5139",
"cP c #5f5131",
".g c #603c4a",
"fe c #604533",
".e c #604a48",
"a7 c #605547",
"ex c #614529",
"#j c #614942",
".y c #623c44",
"fQ c #633c3d",
"ac c #63493b",
".k c #634e4d",
"bd c #635439",
"bu c #63584c",
"dF c #635c5b",
"dC c #644932",
".B c #644d48",
"cj c #645430",
"cX c #645b56",
"gx c #645f63",
"c9 c #654149",
".5 c #65583f",
"fW c #663b2b",
".H c #664143",
"#Q c #664d41",
".l c #665152",
"gu c #665f5f",
"hR c #67514d",
"ht c #675838",
".w c #675b4b",
"cF c #675f5a",
".m c #68454e",
"dH c #68582f",
".z c #694549",
"gK c #694d31",
"#k c #695147",
".W c #695557",
"id c #695e55",
"fi c #696d6d",
".q c #6a4542",
".h c #6a4a53",
"iF c #6a5140",
".6 c #6a5b3f",
"dT c #6a5e50",
"d7 c #6a615e",
"e9 c #6a6a5d",
"gw c #6a6f74",
"ad c #6b5b37",
".d c #6c4a4e",
"#L c #6c554c",
"gd c #6d3635",
".c c #6d4948",
".V c #6d4e58",
"ab c #6d5446",
"fv c #6d6155",
"if c #6e5440",
"dv c #6e5e3e",
"hZ c #6e6150",
"f3 c #6e6f69",
".b c #6f4d53",
"#5 c #6f584c",
"ff c #6f5e36",
"gi c #6f614a",
"eU c #6f6459",
".a c #704d4d",
"#F c #706144",
"fD c #713b34",
"Qt c #715157",
"in c #715846",
"#d c #715b56",
"f4 c #717476",
".# c #725152",
"a5 c #72583f",
"gv c #726d74",
"gO c #735837",
"dd c #735b4b",
"bG c #736135",
"fa c #736759",
"gr c #74403b",
".r c #74514d",
"#m c #745b45",
".4 c #746443",
"fy c #755e55",
"dO c #75643c",
".Y c #765b3e",
"eM c #766a5d",
"d4 c #766e47",
"il c #775b36",
"ao c #775e4a",
"ft c #776159",
"#2 c #776749",
"#M c #776958",
"hK c #785e44",
"aR c #786155",
"cM c #786642",
"ct c #78766b",
"dW c #787875",
"db c #795e3d",
"dZ c #79663b",
".J c #796c5c",
"hf c #7b493a",
"hz c #7b6942",
"hV c #7b6f60",
"d1 c #7b786b",
"gE c #7c765a",
"dA c #7d613c",
"dY c #7d7473",
"iE c #7e6449",
".3 c #7e6c47",
"as c #7e7164",
"d2 c #7e7d78",
"bU c #7f6c41",
"fZ c #7f8187",
"b5 c #80695c",
"gt c #814542",
"hF c #816e47",
"aW c #817363",
"dI c #826642",
"bL c #826e40",
"hM c #827151",
"cv c #82766b",
"am c #83663b",
"iu c #83694d",
"#e c #836f68",
"c7 c #83714c",
"eG c #837667",
"dh c #847146",
"io c #856941",
"ap c #856f60",
"cC c #85713f",
"d3 c #85765f",
"fu c #85786b",
"eR c #858586",
"cn c #86734b",
"bp c #867867",
"h0 c #876c47",
"de c #877168",
"bP c #877a6e",
"dP c #878377",
"fl c #878d88",
".M c #886965",
"#o c #886b40",
"bn c #887164",
"hT c #887550",
"bQ c #88785e",
"#8 c #887a6a",
"ci c #89736b",
"hE c #89754b",
"hI c #897a66",
"fP c #898783",
".2 c #8a6e46",
"cY c #8a7367",
"c6 c #8a7544",
"hP c #8a7855",
"hU c #8a7a62",
"cz c #8a7c6d",
"f5 c #8a898b",
"hu c #8b7850",
"bo c #8b7c6a",
"ew c #8b8269",
"dJ c #8b908d",
"f7 c #8b9294",
"#P c #8c766b",
"hB c #8c774a",
"e0 c #8c7f71",
"dp c #8d7046",
"bT c #8d7744",
"hD c #8d7a54",
"b. c #8d7e6d",
"cu c #8e897c",
"fY c #8f4d46",
"#E c #8f755a",
"#R c #8f7a49",
"ar c #8f8170",
"d9 c #8f9491",
"cB c #907345",
"hg c #907555",
"bv c #907e61",
".L c #90806d",
"cS c #90948f",
"fT c #919094",
"c5 c #919693",
".s c #927c71",
"hH c #927e58",
"g6 c #928370",
"ge c #929299",
"bK c #937c6d",
"gh c #93999d",
"fp c #94544b",
"hC c #947e4e",
"aU c #948573",
"gW c #948656",
"h# c #94865b",
"eh c #95774a",
"by c #957e48",
"cQ c #958058",
"eZ c #95856f",
"hk c #96825c",
"bW c #968776",
"h. c #96885a",
"bX c #977a49",
"fh c #977e69",
"ck c #978047",
"hA c #978257",
"c0 c #978468",
"#4 c #98755a",
"du c #988252",
"e3 c #988879",
"bz c #99824d",
"di c #99845b",
"cr c #9a8456",
"#g c #9a8a79",
"eQ c #9a9798",
"#c c #9b8a75",
"gA c #9c844c",
"hh c #9c865b",
"gj c #9c8867",
"cg c #9c8c7b",
"fH c #9d574f",
"cb c #9d8057",
"h5 c #9d8260",
".Q c #9d8679",
"#H c #9d8c78",
"ea c #9d9790",
"g1 c #9e804d",
"ia c #9e864b",
"d. c #9e885a",
"#a c #9e8e7b",
"da c #9e978e",
"f6 c #9ea1a2",
"bD c #9f8257",
"a8 c #9f8879",
"eL c #9f9990",
"#U c #a08252",
"hl c #a08a5e",
"#D c #a08c6a",
"#K c #a0907e",
"fL c #a09786",
"eq c #a0a2a2",
"fA c #a0a4a8",
"dk c #a1845b",
"dm c #a18a55",
"fd c #a18a7c",
"cf c #a28a50",
"i. c #a28a78",
"hi c #a28c5e",
"hW c #a28e6d",
"hJ c #a2927d",
"d6 c #a29e9e",
"cR c #a38c59",
"gg c #a3a6a8",
"#n c #a48656",
"cd c #a48c54",
".K c #a49380",
"fS c #a4a7aa",
"al c #a58650",
"hw c #a58d5d",
"eV c #a68855",
"gD c #a6916d",
"fw c #a69580",
"bR c #a78850",
"hv c #a78a5e",
"hx c #a78f5d",
"bq c #a7907e",
"#N c #a79785",
"fR c #a7a8aa",
"e2 c #a89783",
"f2 c #a8a6ac",
"gf c #a8aaac",
"#T c #a98a4f",
"ir c #a98c5d",
"hy c #a99161",
"c2 c #a99280",
"i# c #a99888",
"f0 c #a9abaf",
"g9 c #aa865f",
"dq c #aa9158",
"#i c #aa9885",
"fB c #aaabad",
"gI c #ab6053",
"bV c #ab8b54",
"hm c #ab9360",
"fF c #ab9a88",
"fn c #ac7e6c",
"gV c #ac825f",
"aP c #ac8d5d",
"bA c #ac9357",
"iw c #ad8f61",
"eT c #ad9583",
".N c #ad9c87",
"ca c #ad9c8a",
"eo c #adadab",
"be c #ae9456",
"aX c #ae9785",
"iB c #af9160",
"hj c #af9370",
"h3 c #af965f",
"#b c #af9d8a",
"cZ c #b0965b",
"hd c #b09885",
"## c #b09f8c",
"#C c #b19b78",
"#f c #b19f89",
"f1 c #b1b6b6",
"g7 c #b2635c",
"ii c #b29360",
"cK c #b2985a",
"ba c #b29a87",
"#1 c #b29d7b",
"gp c #b2a08c",
"dz c #b2b1ac",
"eJ c #b2b1af",
"fC c #b2b8b7",
"fs c #b3aa9e",
"gN c #b4945b",
"ip c #b4945f",
"d5 c #b49850",
"d0 c #b4995a",
"gX c #b4995e",
"fo c #b5665b",
"ha c #b59b62",
"aa c #b59d8c",
"ae c #b6965a",
"bf c #b69b59",
"eH c #b69b5e",
"h2 c #b69d66",
"c# c #b69f8f",
"cE c #b6a38e",
"c3 c #b6b5b4",
"e7 c #b7695b",
".t c #b7a590",
"eD c #b89650",
"ep c #b8985e",
"iq c #b89e65",
"it c #b9985a",
"cL c #b99962",
"dl c #b99966",
"ch c #b9a693",
"bN c #ba995e",
"dX c #babdb8",
"cI c #babebe",
"bi c #bba061",
"hQ c #bba37a",
"aS c #bba892",
"dB c #bc9b5d",
".v c #bca995",
"fj c #bcbcbe",
"b7 c #bd9b59",
"iA c #bd9d65",
"gM c #bda160",
"#B c #bda682",
".P c #bdab97",
"dx c #bdbbbc",
"gJ c #be6b5e",
"g2 c #bea15c",
"bs c #bea364",
"a# c #beab94",
"cG c #bec2c3",
"ih c #bf9e61",
"gL c #bfa360",
"bJ c #bfac96",
"dR c #bfbdbc",
"ei c #c09e58",
"hX c #c0a065",
"ij c #c0a069",
"hn c #c0a467",
"gU c #c0a895",
"gb c #c17062",
".Z c #c19b66",
"bl c #c1a060",
"bt c #c2a663",
"fI c #c37361",
"#6 c #c3af98",
"dc c #c4a364",
"a9 c #c4b09b",
"b6 c #c5a966",
"hS c #c5a96a",
"iv c #c6a463",
"iD c #c6a467",
"#h c #c6b29a",
"cy c #c7b39c",
"dg c #c7c9c8",
"bS c #c8a663",
"at c #c8b49e",
"c1 c #c8b4a1",
"g5 c #c99382",
"b0 c #c9a65e",
"h1 c #c9a76a",
"ik c #c9ab69",
"#A c #c9b18e",
"aq c #c9b49c",
"gH c #caa692",
"bZ c #caa75e",
"ga c #cab09a",
"#7 c #cab69e",
"e1 c #cab6a0",
"d# c #cac4bd",
"fE c #cb9b89",
"cc c #cba866",
"aw c #cba96a",
"fV c #cbac96",
"#J c #cbb7a0",
"hN c #cbb7a2",
"fb c #cbbba2",
"eF c #cbcccb",
"an c #ccaa6d",
"b2 c #ccae68",
"g. c #cd7968",
"iz c #cdab6d",
"hO c #cdb8a2",
"cH c #cdcfd0",
"bC c #ceb068",
".O c #cebaa2",
"eP c #cecaca",
"cD c #cfb16b",
"ix c #cfb16f",
"h4 c #cfbba6",
".0 c #d0ae70",
"gY c #d0b167",
"b# c #d0bba4",
"gF c #d19b69",
"ho c #d1ae6c",
"fc c #d1bca4",
".u c #d1bca6",
"cl c #d2ae68",
".1 c #d2b06f",
"hY c #d2b681",
"#O c #d2bda6",
"g3 c #d3af68",
"cs c #d3af6b",
"fr c #d3d1c9",
"e4 c #d3d4d7",
"eC c #d4b56a",
"aT c #d4bfa8",
"dD c #d4d7d3",
"go c #d59a86",
"bw c #d5b66d",
"#I c #d5c0a7",
"fg c #d5c0a9",
"f# c #d5cdc2",
"ak c #d6ba89",
"#z c #d6bd98",
"ed c #d6d9d8",
"fU c #d7796f",
"cA c #d7b267",
"dU c #d7b46e",
"h9 c #d7b472",
"#0 c #d7be9a",
"gC c #d8ba7d",
"bj c #d9b56e",
"gm c #da7d6e",
"iC c #dab671",
"ic c #daba70",
"eX c #dadedd",
"h7 c #dbb66d",
"ds c #dbd8d1",
"bY c #dcb665",
"b1 c #dcb76d",
"bh c #dcb770",
"#y c #dcc39e",
"bB c #ddb970",
"hp c #ddb973",
"hq c #deba73",
"bE c #debe72",
"dt c #dedcdd",
"eO c #dee0dd",
"c4 c #dee1df",
"bM c #dfba70",
"is c #dfbf75",
"gc c #e08071",
"eb c #e0bb6f",
"#S c #e0bb73",
"hs c #e0bf72",
"eg c #e0e2df",
"im c #e1bc76",
"a2 c #e1c071",
"fk c #e1e4e3",
"hc c #e28477",
"dw c #e2b970",
"bg c #e2bc72",
"hr c #e2c174",
"fO c #e2e7e6",
"gT c #e38b7c",
"a4 c #e3be72",
"cm c #e3be75",
"fX c #e48573",
"g8 c #e48577",
"gZ c #e4be6e",
"af c #e4bf75",
"g# c #e58f7f",
"a3 c #e5bf72",
"#V c #e5c598",
"bx c #e6c075",
"cW c #e6e4e3",
"dQ c #e6ebeb",
"gs c #e78377",
"gS c #e7ba76",
"bF c #e7c174",
"dN c #e7c178",
"gQ c #e7c573",
"#x c #e7cca5",
"cT c #e7e9ec",
"gn c #e88576",
"g4 c #e89075",
"bk c #e8c377",
"gR c #e8c676",
"er c #e8e8e7",
"aN c #e9c374",
"a0 c #e9c47a",
"gG c #ea8177",
"hb c #eaaf75",
"a1 c #eac473",
"ag c #eac477",
"ef c #eaeae9",
"aO c #ebc576",
"ah c #ebc57a",
"e. c #ebebea",
"ib c #ecc174",
"gB c #ecc573",
"ax c #ecc679",
"gP c #edc377",
"g0 c #edc676",
"aJ c #edce94",
"#Z c #edd2a8",
"#w c #edd2aa",
"en c #ededed",
"iy c #eec477",
"h8 c #eec779",
"#p c #eeca8a",
"ie c #eecc99",
"h6 c #eece8f",
"ay c #eecf96",
"ee c #eeeeee",
"aM c #efcb8d",
"aH c #efcc92",
"aI c #efcc94",
"aE c #efd198",
"aD c #efd19a",
"aC c #efd29f",
"dn c #efefef",
"aG c #f0cd94",
"aF c #f0cd96",
"aK c #f0d29d",
"#q c #f0d3a1",
"az c #f1d09d",
"aB c #f1d4a3",
"aL c #f1d4a5",
"ai c #f2d5a5",
"#v c #f2d6ad",
"#X c #f2dab0",
"eE c #f2f2f3",
"aA c #f3d2a1",
"#r c #f3d6a9",
"#u c #f3d7af",
"df c #f3f3f3",
"do c #f3f6f5",
"#s c #f4d7ab",
"#t c #f4d8af",
"#Y c #f4d8b1",
"es c #f4f4f3",
"#W c #f5d9b0",
"aj c #f6dab2",
"et c #f6f5f5",
"fN c #f6f9f8",
"em c #f7f6f6",
"ek c #f7faf9",
"dE c #f8fbfc",
"eK c #f9f8fa",
"el c #f9fbf9",
"fM c #faf9f9",
"dy c #faf9fb",
"e5 c #fbfdfd",
"eY c #fcfdfa",
"e# c #fcfdfb",
"ev c #fcffff",
"f. c #fdfcfd",
"dL c #fdffff",
"dK c #fefffc",
"cV c #feffff",
"eu c #fffffd",
"cU c #ffffff",
"QtQtQtQtQtQtQtQtQtQtQtQtQt.#.aQtQtQtQtQtQtQtQtQtQtQtQtQtQtQtQtQtQtQtQtQtQtQtQtQtQtQtQtQtQtQtQtQtQtQt.b.cQtQtQtQtQtQtQtQtQtQtQtQt",
".b.b.b.b.b.b.b.b.b.b.b.b.b.a.c.b.b.b.b.b.b.b.b.b.b.b.b.b.b.b.b.b.b.b.b.b.b.b.b.b.b.b.b.b.b.b.b.b.b.b.a.c.b.b.b.b.b.b.b.b.b.b.b.b",
".b.b.b.b.b.b.b.b.b.b.b.b.b.b.b.b.c.a.b.b.b.b.b.b.b.b.b.b.b.b.b.b.b.b.b.b.b.b.b.b.b.b.b.b.b.b.b.b.b.b.b.b.b.b.b.b.c.b.b.b.b.b.b.b",
"QtQtQtQtQtQtQtQtQtQtQtQtQtQtQtQt.d.bQtQtQtQtQtQtQtQtQtQtQtQtQtQtQtQtQtQtQtQtQtQtQtQtQtQtQtQtQtQtQtQtQtQtQtQtQtQt.cQtQtQtQtQtQtQt",
"QtQtQtQtQtQtQtQtQtQtQtQtQtQtQtQt.d.bQtQtQtQtQtQtQtQtQtQtQtQtQtQtQtQtQtQtQtQtQtQtQtQtQtQtQtQtQtQtQtQtQtQtQtQtQtQt.cQtQtQtQtQtQtQt",
"QtQtQtQtQtQtQtQtQtQtQtQtQtQtQtQt.d.bQtQtQtQtQtQtQtQtQtQtQtQtQtQtQtQtQtQtQtQtQtQtQtQtQtQtQtQtQtQtQtQtQtQtQtQtQtQt.cQtQtQtQtQtQtQt",
"QtQtQtQtQtQtQtQtQtQtQtQtQtQtQtQt.d.bQtQtQtQtQtQtQtQtQtQtQtQtQtQtQtQtQtQtQtQtQtQtQtQtQtQtQtQtQtQtQtQtQtQtQtQtQtQt.cQtQtQtQtQtQtQt",
"QtQtQtQtQtQtQtQtQtQtQt.e.f.g.hQt.d.bQtQtQtQtQtQtQtQt.e.i.j.k.l.h.m.m.m.h.bQtQtQtQtQtQtQtQtQtQtQtQtQtQt.d.n.o.p.f.qQtQtQtQtQtQtQt",
".a.a.a.a.a.a.a.a.r.s.t.u.v.w.x.y.c.d.a.a.z.A.B.a.a.B.C.C.C.C.D.C.C.C.C.x.E.o.F.G.H.d.a.a.a.a.a.a.a.a.H.x.C.I.J.K.L.B.c.a.a.a.a.a",
".#.#.#.#.#.c.#.M.N.O.P.Q.R.S.T.U.V.W.#.d.X.C.Y.Z.0.1.2.3.4.5.6.7.8.C.C.C.C.C.C.C.C.U.F.9.e.a.#.#.#.#.F#..A.e##.N#a#b#c#d.b.#.#.#",
"QtQtQtQtQt.c#e.N#f#g#h#i#j#k.S.T.f#l#m#n.C.C#o#p#q#r#s#t#u#v#v#w#x#y#z#A#B#C#D#E#F.7.C.C.C#l.A.hQt.l.U#G#k#j#H#I#J#K#g#f#g.#.VQt",
"QtQtQtQtQt#L.J#M#N.u#O#P#Q#k#Q.x.C.C#R#S#T#U#V#W#X#t#t#t#t#t#t#t#t#t#t#t#t#Y#Y#X#u#Z#0#1#2.C.C#3#4.h.9#k#k.B#5#6#I#O#7#a#8#8#9.b",
"QtQtQtQt.l.Ca.a##O#Iaaab#k#k.eacadaeafagahaiaj#W#W#W#W#W#W#W#W#W#W#W#W#W#W#W#W#W#W#W#W#W#Wakalam#Sanao.B#k#k#japaq#I#O#O#7ar.C.F",
"QtQt.b.9.Casat#O#I.N#k.B#kauavawaxagagagahayazaAaB#qaCaDaEayayayaFaGaHaHaIaHaHaJaFaDaKaLaiaMaNagagaOaP.iaQ.B#k#QaRaS#IaT#O#OaU.C",
".b.daV.CaW#J#OaTaX.B.B#kauaYaZa0agagagagagaNa1agagaga1a2a3aNaNaNaNaNaNaNaNaNaNaNaNaNa1agagagagagagaOa4a5.Ta6aua7#Q#La8a9.uaT.N.C",
".b.p.Cb.b##O#Iba#Q#k#kbbbc.CbdaOagagagagagafbebfbgagagbhbiagagagagagagagagagagbjbkagagagagagagagagagaObl.C.Ibm.fau.B#j#5bnbo#5.U",
".9.Cbp#O#I#Obq#k#k.Bbrbm#l.Cbsagagagagagagbt.CbubvbwagbxbybgagagagagagagagbxbzbAagbBbCbDbAbEagagagagagbFbG.CbHbmbI.f.e.B#Q#Q#Q.x",
".U#l#6b#bJbK#Q#k.BbIbm.X.CbLaOagagafbBbMbxbNbObP#abQbgagbRbSagagagagagagbFbTbUbxbV.JbWaQ.CbXbYbZb0b1agagb2b3.CbHbIbIbIbrbbau.X.C",
".Cb4aRb5ab#j#kaubIbm#l.CaZb6aNb7bLb8.U.8b9c.b3c#ca.KcbbkcccdagagagagagagbVcebgcfcgch##cicj.T.X.C.CbOckclcmcn.T.x.Ga6bIa6co#l.Cco",
".Ccp#Q#Q#k#kbbbIbm.p.CcqcrcsbL.Ccoctcucucvcw.TcxcycgczcAafcBafagagagagbkcCcDaw.KcEataUbbb8cFcGcHcIcJ.Cb3cKcLcM.C.C.x.x.T.C.CcN.V",
".Cb4#k#k.BbrbIcO.I.CcPcQcRb9.C.CcScTcUcUcVcW.U.8cXcY.JbAagcZbjagagagagbkbgbFc0.Kc1c2cOcq.Cc3cUc4c5.C.C.C.Cc6crc7c8.C.U.o#9c9.d.d",
"#l.C.9#jaQco#l.C.C.6cQd.ad.C.C.T.CaVd#cUcUcUda.C#laYb3dbagbBbMagagagagagagdc#GdddebraY.Ua7dfdg.x#l.T.C.C.8.Cdhdi#F.C.mQtQtQtQtQt",
".m.E.C.C.C.C.Cdj.Sdkdldm.C.C.C.C.C.CcodncUcUdobP.C.U.Cdpagagagagagagagagagdq.Ccodrco.8.Udsdt.CaQ.C.C.C.C.C.U.Cdudv.C.mQtQtQtQtQt",
"Qt.h.i#9cN.f.m.W.Rb1dw#3.U.C.C.C.C.C.CdxcUcUcUdydz.xdAcsagagagagagagagagagdB.Cc8dC.Ta6dDdEdFbO.C.C.C.C.C.C.CdGdHdI#lc9QtQtQtQtQt",
"QtQtQtQtQtQtQt.h.Xa4bN.C.T.C.C.C.C.C.xdJcUcUcUdKdLdMbfagagagaOdNcmagaOaOag#SdO.C.CdPdQdLdR.C.C.C.C.C.C.C.C.CdS.C.YdTc9QtQtQtQtQt",
"QtQtQtQtQtQtQt.e.TdUbL.8.C.C.C.C.CdVdWdXcUcUcUcUcVdYdZa1afd0cMd1d2bPd3d4bAbxafd5#MdLcUdLd6d7cO.C.C.C.C.C.C.C.8.Cd8aW.eQtQtQtQtQt",
".d.d.d.d.d.d.c.S.Cbt#3dC.C.C.C.Cd9e.e#cUcUcUcUcUcVeab3ebbT.Cecedeeefegd6.CehageiejekcUcUelemeneo.C.C.C.C.C.C.T.CdT#8.f.d.d.d.d.d",
"QtQtQtQtQtQt.#.G.Cep.Tb8.C.C.C.CeqeresetcUcUeucUevew.Cex.C.C.CeyezezeAeB.U.UeCeD.UeEcUcUcUcUcUeF.C.C.C.C.C.C.C.CboeG.mQtQtQtQtQt",
"QtQtQtQtQtQt.#.G.CeH.T#3.C.C.C.C.C.8eIeJcUdKcUeKeL.Cc8eM.xaQ.7.C.C.C.C.X.UeNbQbO.UeOcUcUePeQeRco.C.C.C.C.C.CeS.8eTeU.hQtQtQtQtQt",
"QtQtQtQtQtQt.#.G.CeV.T#3.C.C.C.C.CeW.CeXcUcVeYeZ.Ce0e1#I#K.x.CdG.Ub3.T.Cc8e2aTe3.Cece4e5c4.Ce6.C.C.C.C.C.C.C.8.Y.t.R.bQtQtQtQtQt",
"QtQtQtQtQtQt.#.9.Ce7dSe8.C.C.C.C.C.Ue9f.cUcUf#.Cfafbcy#Ifcfdacfe.Xexffa5.fb.bofgfh.Cfifjfkfl.x.C.C.C.C.C.Cfm.CfnaSaVQtQtQtQtQtQt",
".#.#.#.#.#.#.#.q.Cfofp.Efq.C.C.C.8.CfrcUcUcUfs.CftfufvfwaV.R#Q#j.B.B#j.A.SfxfyaUfycqfzfAfBfCcOcO.T.C.C.Ce8.DfDfEfFfG.#.#.#.#.#.#",
".a.a.a.a.a.a.a.z.CfHfI.CfJfK.8#9.CfLfMfNenfOfP.UfQfx#j#jaV.R#k#k#kd8#Q.Bfx#k.A.x.AbdcofRfBfSfT.C.x.UbO.U.EdSfUfVbp.A.a.a.a.a.a.c",
"QtQtQtQtQtQtQtQtdjfWfXfY.C.C.CfKfZf0fCf1fBf2f3.T.R#k.Rbb#ka7.Baua6.Ubr#j#9b4.B#G.A.X.pf4f5f6fRf7f8.C.C.Cf9g.g#gabr.lQtQtQtQtQt.c",
"QtQtQtQtQtQtQtQt.G.Cgbgcgd.CbrgefBfBgfgfggghgi.C#9.Bbr.fbrbIbmfx.X#lbmbm#9#9bmdr.7.CgjeI.C.xgkgl#9.C.UfYgmgngogpgqQtQtQtQtQtQt.c",
"QtQtQtQtQtQtQtQt.m.Tgrgsgmgt.C#lgugvgwgxaY.xc6bO.UaYgybmbmdrcwce.CbOcq#Ga6gzd8.8.CgAgBgCgDgEfxaZdOgAgFgGgngngHeG.fQtQtQtQtQtQt.c",
"QtQtQtQtQtQtQtQtQt.H.CgIgnfXgJgK#3.U.8c8.3gLaggMfq.CbOc8aVb8.C.UgNc6.C.C.C.C.CgObtbkaggPgBgBgQbFaggRgSgngngTgU#9.bQtQtQtQtQtQt.c",
"QtQtQtQtQtQtQtQtQt.be8.CgJgngngVgWgXgYgZg0aOagaggYc6#3fq.UcPg1bCagbxgLcfbAg2g3bFagagagagagagagagagagbkg4gGg5g6cNQtQtQtQtQtQtQt.c",
".a.a.a.a.a.a.a.a.a.a.z.o.Tg7g8g9h.h#d.hacDcmagg0aOaObgbMbMafagagagagagagagagagagagagagagagagagagagaggRhbhchdhe.z.a.a.a.a.a.a.a.d",
"QtQtQtQtQtQtQtQtQtQtQt.k.8.ChfhghhhhhhdidihihaawdUbgbkaOg0axg0aOaOaOaOaOaOaOaOaOaOaOaOagaOaOaOaOaOaOaOaghj.JcNQtQtQtQtQtQtQtQtQt",
"QtQtQtQtQtQtQtQtQtQtQtQt.baV.C.C.7#2cQhhhhdidihkdihlhmhahnawhodUbhhphq#ScmafafbxbxbxbFbFafhrbxafa4hs#SdqaQ.FQtQtQtQtQtQtQtQtQtQt",
"QtQtQtQtQtQtQtQtQtQtQtQtQt.d.m.n.C.C.8hthudidihhhhhhdidihkhkdidihhd.d.d.hihvhwhxhxhwhyhyhwhwhxhvcQhzcP.C.o.hQtQtQtQtQtQtQtQtQtQt",
"QtQtQtQtQtQtQtQtQtQtQtQtQt.d.bQt.dcN.8.C.CbOdOcnhAdidididihhhhhhhhhhhhdididididididididicQhu#Fc8.C.C#l.9.bQtQtQtQtQtQtQtQtQtQtQt",
"QtQtQtQtQtQtQtQtQtQtQtQtQt.d.bQtQtQt.b.e#9.x.C.CbOhthBhCcrhAdid.hAdididicrhAhDhEhF.4bdc8.8.C.C.xgq.f.c.bQtQtQtQtQtQtQtQtQtQtQtQt",
".a.a.a.a.a.a.a.a.a.a.a.a.a.z.d.b.b.b.b.b.d.Ucq.U.x.U.C.C.C.T#3.XbOcPaZcjb8b3.C.C.C.C.C.8.FhGc9.d.b.b.c.d.a.a.a.a.a.a.a.a.a.a.a.a",
".a.a.a.a.a.a.a.c.d.a.a.a.a.b.b.b.b.b.b.bcN.ChHbd.U.7bHbHbH.X.C.C.8#9buhIhJ#HaQ#9.U.8cnhK.R.a.a.a.a.a.a.a.a.a.a.a.a.a.a.a.a.a.a.a",
"QtQtQtQtQtQtQt.a.bQtQtQtQtQtQtQtQtQtQtQtcN#ldihAbd.C.x#lhLc8.8hMcyhN#OhOgphJgpcqcqhPhQd3hRQtQtQtQtQtQtQtQtQtQtQtQtQtQtQtQtQtQtQt",
"QtQtQtQtQtQtQt.a.bQtQtQtQtQtQtQtQtQtQtQt.mfehSd.hkhT.4cPht.ChUbreU#OcyhVaS.N#HhWhXhY#uhZ.AQtQtQtQtQtQtQtQtQtQtQtQtQtQtQtQtQtQtQt",
"QtQtQtQtQtQtQt.a.bQtQtQtQtQtQtQtQtQtQtQtQth0bgbhh1h2h3hicn.CbQde.Xfv#K.Ke3h4#5h5gBh6#Ygi.GQtQtQtQtQtQtQtQtQtQtQtQtQtQtQtQtQtQtQt",
"QtQtQtQtQtQtQt.a.bQtQtQtQtQtQtQtQtQtQtQt.bb8h7g0h8aOagh9hu.Cbdbucg#ki.a9e0i#.8iaib#p#Ygid8QtQtQtQtQtQtQtQtQtQtQtQtQtQtQtQtQtQtQt",
"QtQtQtQtQtQtQt.a.bQtQtQtQtQtQtQtQtQtQtQtQt.G#RcmicafaggPh2cq.Ud8asid.9e0boc8ffebaga0iehtifQtQtQtQtQtQtQtQtQtQtQtQtQtQtQtQtQtQtQt",
".c.d.d.d.d.d.d.c.c.d.d.d.d.d.d.d.d.d.d.d.d.Aigihhmhliiijikhxc8.C.X.XaVbOildBimbxdNbkbkcPin.d.d.d.d.d.d.d.d.d.d.d.d.d.d.d.d.d.d.d",
".a.b.b.b.b.b.b.#.#.b.b.b.b.b.b.b.b.b.b.b.k#.ioaNafip#F#2hHhhdihFcPc8cPhCiqiihyirh2isebbU#GQtQtQtQtQtQtQtQtQtQtQtQtQtQtQtQtQtQtQt",
".aQtQtQtQtQtQtQtQtQtQtQtQtQtQtQtQtQtQtQt.f.CitaOa4hx.U.C.UbOc8aZaZbd.6.4cMiuhPhy#SaObkiv#l.VQtQtQtQtQtQtQtQtQtQtQtQtQtQtQtQtQtQt",
".aQtQtQtQtQtQtQtQtQtQtQtQtQtQtQtQtQtQtQt.n#3#Sbgiwc7cq.j.7bO.8.T.C.T.Ie8.S.d#kcQixiyaOiz.T.mQtQtQtQtQtQtQtQtQtQtQtQtQtQtQtQtQtQt",
".aQtQtQtQtQtQtQtQtQtQtQtQtQtQtQtQtQtQtQtfqhtiAiBhD.8gzQtQt.W.b.h.d.l.b.a.dQtc9.7diiCbBiD.C.fQtQtQtQtQtQtQtQtQtQtQtQtQtQtQtQtQtQt",
".aQtQtQtQtQtQtQtQtQtQtQtQtQtQtQtQtQtQt.h.C.7#jddbO.C.mQtQtQtQtQtQtQtQt.a.dQt.V.XaViEaoiF.CcNQtQtQtQtQtQtQtQtQtQtQtQtQtQtQtQtQtQt",
".a.#.#.#.#.#.#.#.#.#.#.#.#.#.#.#.#.#.#.d.C.Xhe.T.C.9.#.#.#.#.#.#.#.#.#.a.dQtQt.baV.T.U.U.C.9QtQtQtQtQtQtQtQtQtQtQtQtQtQtQtQtQtQt",
".c.c.c.c.c.c.c.c.c.c.c.c.c.c.c.c.c.c.c.cb4.E.Ee8fQ.c.c.c.c.c.c.c.c.c.c.c.c.d.d.d.z.ngqdj.G.m.d.d.d.d.d.c.d.d.d.d.d.d.d.d.d.d.d.d",
"QtQtQtQtQtQtQtQtQtQtQtQtQt.#.aQtQtQtQtQtQtQtQtQtQtQtQtQtQtQtQtQtQtQtQtQtQtQtQtQtQtQtQtQtQtQtQtQtQtQt.b.cQtQtQtQtQtQtQtQtQtQtQtQt",
"QtQtQtQtQtQtQtQtQtQtQtQtQt.#.aQtQtQtQtQtQtQtQtQtQtQtQtQtQtQtQtQtQtQtQtQtQtQtQtQtQtQtQtQtQtQtQtQtQtQt.b.cQtQtQtQtQtQtQtQtQtQtQtQt",
"QtQtQtQtQtQtQtQtQtQtQtQtQt.#.aQtQtQtQtQtQtQtQtQtQtQtQtQtQtQtQtQtQtQtQtQtQtQtQtQtQtQtQtQtQtQtQtQtQtQt.b.cQtQtQtQtQtQtQtQtQtQtQtQt",
"QtQtQtQtQtQtQtQtQtQtQtQtQt.#.aQtQtQtQtQtQtQtQtQtQtQtQtQtQtQtQtQtQtQtQtQtQtQtQtQtQtQtQtQtQtQtQtQtQtQt.b.cQtQtQtQtQtQtQtQtQtQtQtQt",
"QtQtQtQtQtQtQtQtQtQtQtQtQt.#.aQtQtQtQtQtQtQtQtQtQtQtQtQtQtQtQtQtQtQtQtQtQtQtQtQtQtQtQtQtQtQtQtQtQtQt.b.cQtQtQtQtQtQtQtQtQtQtQtQt"};
