/* XPM */
static char * floor_xpm[] = {
"64 64 465 2",
"  	c #987A7F",
". 	c #8E737A",
"+ 	c #896565",
"@ 	c #906A69",
"# 	c #9E868F",
"$ 	c #806F78",
"% 	c #6D5056",
"& 	c #836062",
"* 	c #997D84",
"= 	c #886D74",
"- 	c #866364",
"; 	c #9D868F",
"> 	c #70555B",
", 	c #6B5156",
"' 	c #8F6A69",
") 	c #987B81",
"! 	c #8D7279",
"~ 	c #886565",
"{ 	c #9E858F",
"] 	c #816E77",
"^ 	c #6C5056",
"/ 	c #846162",
"( 	c #866A70",
"_ 	c #906B6A",
": 	c #9C848D",
"< 	c #70555A",
"[ 	c #6B4F56",
"} 	c #8D6868",
"| 	c #987A80",
"1 	c #8D7278",
"2 	c #9D848E",
"3 	c #826F77",
"4 	c #866263",
"5 	c #85696F",
"6 	c #856264",
"7 	c #9B8087",
"8 	c #6C5359",
"9 	c #6A4F55",
"0 	c #8D6867",
"a 	c #987B80",
"b 	c #8C7077",
"c 	c #886465",
"d 	c #9C838C",
"e 	c #826E76",
"f 	c #9A7E85",
"g 	c #84676C",
"h 	c #846263",
"i 	c #906B6B",
"j 	c #9B8088",
"k 	c #6D5359",
"l 	c #694F56",
"m 	c #8C6867",
"n 	c #9C8189",
"o 	c #846F77",
"p 	c #83656A",
"q 	c #916C6C",
"r 	c #9B8189",
"s 	c #6B5358",
"t 	c #6A4F56",
"u 	c #8B6766",
"v 	c #8B7076",
"w 	c #877078",
"x 	c #6D5156",
"y 	c #836468",
"z 	c #916D6D",
"A 	c #9C828B",
"B 	c #694E56",
"C 	c #97797E",
"D 	c #8A6D73",
"E 	c #876465",
"F 	c #705157",
"G 	c #8B6666",
"H 	c #9B8289",
"I 	c #805F62",
"J 	c #836163",
"K 	c #6F545A",
"L 	c #96787C",
"M 	c #896B6F",
"N 	c #987C82",
"O 	c #877077",
"P 	c #725359",
"Q 	c #977A7F",
"R 	c #7F5F61",
"S 	c #74585C",
"T 	c #8F6968",
"U 	c #96767A",
"V 	c #88686C",
"W 	c #74555A",
"X 	c #926F70",
"Y 	c #7F5E61",
"Z 	c #9D858E",
"` 	c #785B5E",
" .	c #6F5358",
"..	c #937071",
"+.	c #856365",
"@.	c #866F76",
"#.	c #785A5E",
"$.	c #7C5D60",
"%.	c #75585D",
"&.	c #72575B",
"*.	c #6D5459",
"=.	c #6E545A",
"-.	c #6E5459",
";.	c #70565A",
">.	c #73575C",
",.	c #795B5E",
"'.	c #7A5C5F",
").	c #7D5D60",
"!.	c #805F61",
"~.	c #7B5C5F",
"{.	c #9D848D",
"].	c #8C6767",
"^.	c #876464",
"/.	c #8A6666",
"(.	c #896666",
"_.	c #7E5E61",
":.	c #7C5C5F",
"<.	c #876365",
"[.	c #997D83",
"}.	c #866F75",
"|.	c #775A5E",
"1.	c #755E64",
"2.	c #77656E",
"3.	c #7C6E78",
"4.	c #7F737E",
"5.	c #827884",
"6.	c #837986",
"7.	c #867C89",
"8.	c #887E8A",
"9.	c #857985",
"0.	c #81727C",
"a.	c #78636A",
"b.	c #71565B",
"c.	c #7E6063",
"d.	c #846163",
"e.	c #916B6B",
"f.	c #7C5C60",
"g.	c #7A5B5F",
"h.	c #624D55",
"i.	c #5D4A53",
"j.	c #5E4B53",
"k.	c #604C54",
"l.	c #664F57",
"m.	c #6F555A",
"n.	c #9A7F87",
"o.	c #75575B",
"p.	c #947375",
"q.	c #957578",
"r.	c #96777B",
"s.	c #947477",
"t.	c #937173",
"u.	c #916D6E",
"v.	c #957679",
"w.	c #87696D",
"x.	c #886B70",
"y.	c #876A70",
"z.	c #84686D",
"A.	c #83676C",
"B.	c #81666B",
"C.	c #806467",
"D.	c #816265",
"E.	c #826163",
"F.	c #816062",
"G.	c #926E6F",
"H.	c #876A6E",
"I.	c #9A7F86",
"J.	c #856E75",
"K.	c #8E6968",
"L.	c #997C82",
"M.	c #9E8690",
"N.	c #76595D",
"O.	c #926F6F",
"P.	c #96777C",
"Q.	c #9C828A",
"R.	c #9D858F",
"S.	c #9C838B",
"T.	c #957477",
"U.	c #927071",
"V.	c #8B7077",
"W.	c #806A71",
"X.	c #72565B",
"Y.	c #937172",
"Z.	c #8D727A",
"`.	c #7F6870",
" +	c #886464",
".+	c #947274",
"++	c #8F767F",
"@+	c #7E6870",
"#+	c #9F8893",
"$+	c #8F7780",
"%+	c #7B656D",
"&+	c #A18B96",
"*+	c #806164",
"=+	c #806062",
"-+	c #8F7880",
";+	c #79636B",
">+	c #856263",
",+	c #916E6E",
"'+	c #A18B97",
")+	c #806367",
"!+	c #6B5258",
"~+	c #7B666D",
"{+	c #6C4F56",
"]+	c #856163",
"^+	c #826469",
"/+	c #947275",
"(+	c #7A656C",
"_+	c #866363",
":+	c #826569",
"<+	c #695158",
"[+	c #7D5E60",
"}+	c #947376",
"|+	c #9C848C",
"1+	c #78636B",
"2+	c #83666B",
"3+	c #907881",
"4+	c #78626A",
"5+	c #926E6E",
"6+	c #81656A",
"7+	c #685158",
"8+	c #77626A",
"9+	c #876364",
"0+	c #816368",
"a+	c #826063",
"b+	c #695258",
"c+	c #957376",
"d+	c #9B818A",
"e+	c #745F67",
"f+	c #816469",
"g+	c #826162",
"h+	c #9A8087",
"i+	c #685259",
"j+	c #735F67",
"k+	c #82666A",
"l+	c #836263",
"m+	c #6A5359",
"n+	c #7A5C5E",
"o+	c #725D65",
"p+	c #906A6A",
"q+	c #A08994",
"r+	c #7F6063",
"s+	c #6A5259",
"t+	c #8E767E",
"u+	c #705A62",
"v+	c #685157",
"w+	c #8D747D",
"x+	c #6E575E",
"y+	c #A08A95",
"z+	c #816367",
"A+	c #685057",
"B+	c #77595D",
"C+	c #8E757D",
"D+	c #97797D",
"E+	c #6E5359",
"F+	c #8B6767",
"G+	c #826367",
"H+	c #695157",
"I+	c #775A5D",
"J+	c #8E6868",
"K+	c #8F6969",
"L+	c #906D6E",
"M+	c #6C5259",
"N+	c #9F8792",
"O+	c #7F6165",
"P+	c #795B5F",
"Q+	c #6A5258",
"R+	c #675157",
"S+	c #664F56",
"T+	c #674F57",
"U+	c #77595E",
"V+	c #75585C",
"W+	c #957478",
"X+	c #8F777F",
"Y+	c #634E55",
"Z+	c #5E4A53",
"`+	c #5F4B54",
" @	c #614D54",
".@	c #654F56",
"+@	c #72575C",
"@@	c #76585D",
"#@	c #9E8891",
"$@	c #7F5F62",
"%@	c #886C71",
"&@	c #917E88",
"*@	c #94848F",
"=@	c #958692",
"-@	c #938490",
";@	c #91818D",
">@	c #8F7F8A",
",@	c #8A7983",
"'@	c #86747E",
")@	c #847079",
"!@	c #836B73",
"~@	c #81656B",
"{@	c #7F6164",
"]@	c #856467",
"^@	c #76595C",
"/@	c #816063",
"(@	c #8B6F75",
"_@	c #8B747C",
":@	c #8C757E",
"<@	c #87747F",
"[@	c #86737E",
"}@	c #84717C",
"|@	c #826F79",
"1@	c #806B74",
"2@	c #7F686F",
"3@	c #7F656A",
"4@	c #7D6063",
"5@	c #856567",
"6@	c #926D6E",
"7@	c #937174",
"8@	c #937072",
"9@	c #927070",
"0@	c #947476",
"a@	c #907981",
"b@	c #926D6D",
"c@	c #937274",
"d@	c #926F71",
"e@	c #6C5258",
"f@	c #6C5057",
"g@	c #9F8892",
"h@	c #75595D",
"i@	c #97797F",
"j@	c #906C6B",
"k@	c #826062",
"l@	c #987C81",
"m@	c #74575B",
"n@	c #6C5156",
"o@	c #997E85",
"p@	c #8F7881",
"q@	c #6B5359",
"r@	c #75595C",
"s@	c #6E535A",
"t@	c #725559",
"u@	c #916C6B",
"v@	c #73575B",
"w@	c #9F8994",
"x@	c #7E5D61",
"y@	c #77595C",
"z@	c #8D737B",
"A@	c #7A5B5E",
"B@	c #9E8791",
"C@	c #8B7177",
"D@	c #7C5D5F",
"E@	c #78595E",
"F@	c #896D72",
"G@	c #765A5F",
"H@	c #7B5C60",
"I@	c #785A5D",
"J@	c #87686C",
"K@	c #795D61",
"L@	c #7B5B5F",
"M@	c #856364",
"N@	c #7C5F63",
"O@	c #7E5E60",
"P@	c #7F6267",
"Q@	c #7C5C5E",
"R@	c #76575B",
"S@	c #725459",
"T@	c #735459",
"U@	c #7A595D",
"V@	c #79595C",
"W@	c #7E5D5F",
"X@	c #7F5E60",
"Y@	c #8E6A6B",
"Z@	c #9F8993",
"`@	c #846264",
" #	c #6D5358",
".#	c #71575B",
"+#	c #806368",
"@#	c #6B5259",
"##	c #614C55",
"$#	c #644E56",
"%#	c #675057",
"&#	c #6D545A",
"*#	c #6F5960",
"=#	c #6E5961",
"-#	c #6C5860",
";#	c #6C575F",
">#	c #6A535A",
",#	c #7F6368",
"'#	c #886769",
")#	c #937B82",
"!#	c #96818B",
"~#	c #98848F",
"{#	c #998591",
"]#	c #97838E",
"^#	c #98848E",
"/#	c #947D86",
"(#	c #927A82",
"_#	c #8F747B",
":#	c #8B6D71",
"<#	c #886566",
"[#	c #896B6E",
"}#	c #705459",
"|#	c #906D6D",
"1#	c #96797E",
"2#	c #9A8088",
"3#	c #9B848D",
"4#	c #9D8690",
"5#	c #9C858F",
"6#	c #997E86",
"7#	c #977D84",
"8#	c #95787C",
"9#	c #917072",
"0#	c #8E6969",
"a#	c #6B5056",
"b#	c #876669",
"c#	c #7E6369",
"d#	c #6E5258",
"e#	c #A08B96",
"f#	c #694F55",
"g#	c #7C6268",
"h#	c #997E84",
"i#	c #8B6F74",
"j#	c #7B6167",
"k#	c #816163",
"l#	c #694E55",
"m#	c #7B6168",
"n#	c #8C7178",
"o#	c #7A6067",
"p#	c #836569",
"q#	c #8D747B",
"r#	c #9E8691",
"s#	c #785F65",
"t#	c #8A6565",
"u#	c #684E55",
"v#	c #8E757C",
"w#	c #775E64",
"x#	c #84696F",
"y#	c #916C6D",
"z#	c #8D747C",
"A#	c #765E64",
"B#	c #866B71",
"C#	c #8F757D",
"D#	c #765D63",
"E#	c #866B72",
"F#	c #8E747C",
"G#	c #9F8791",
"H#	c #876C73",
"I#	c #9E8892",
"J#	c #684F55",
"K#	c #957377",
"L#	c #765E65",
"M#	c #876E75",
"N#	c #695056",
"O#	c #786168",
"P#	c #886E75",
"Q#	c #9C848E",
"R#	c #79636A",
"S#	c #876C72",
"T#	c #6A5157",
"U#	c #97787D",
"V#	c #7A676F",
"W#	c #9B828A",
"X#	c #685056",
"Y#	c #7D6C75",
"Z#	c #825F61",
"`#	c #886F76",
" $	c #674F56",
".$	c #8C7279",
"+$	c #7F6E77",
"@$	c #836061",
"#$	c #876D74",
"  . + @ @ @ @ @ @ @ @ @ @ @ @ # $ % & @ @ @ @ @ @ @ @ @ @ @ @ @ * = - @ @ @ @ @ @ @ @ @ @ @ @ @ @ ; > , ' @ @ @ @ @ @ @ @ @ @ @ ",
") ! ~ @ @ @ @ @ @ @ @ @ @ @ @ { ] ^ / @ @ @ @ @ @ @ @ @ @ @ @ @ ) ( - @ @ @ @ @ @ @ @ @ @ @ @ @ _ : < [ } @ @ @ @ @ @ @ @ @ @ @ ",
"| 1 + @ @ @ @ @ @ @ @ @ @ @ @ 2 3 ^ 4 @ @ @ @ @ @ @ @ @ @ @ @ @ ) 5 6 @ @ @ @ @ @ @ @ @ @ @ @ @ _ 7 8 9 0 @ @ @ @ @ @ @ @ @ @ @ ",
"a b c @ @ @ @ @ @ @ @ @ @ @ @ d e ^ 4 @ @ @ @ @ @ @ @ @ @ @ @ @ f g h @ @ @ @ @ @ @ @ @ @ @ @ @ i j k l m @ @ @ @ @ @ @ @ @ @ @ ",
"| b ~ @ @ @ @ @ @ @ @ @ @ @ @ n o ^ c @ @ @ @ @ @ @ @ @ @ @ @ @ j p 6 @ @ @ @ @ @ @ @ @ @ @ @ @ q r s t u @ @ @ @ @ @ @ @ @ @ @ ",
"| v c @ @ @ @ @ @ @ @ @ @ @ @ f w x + @ @ @ @ @ @ @ @ @ @ @ @ @ d y 6 @ @ @ @ @ @ @ @ @ @ @ @ @ z A k B 0 @ @ @ @ @ @ @ @ @ @ @ ",
"C D E @ @ @ @ @ @ @ @ @ @ @ @ * w F G @ @ @ @ @ @ @ @ @ @ @ @ @ H I J @ @ @ @ @ @ @ @ @ @ @ @ @ z d K l m @ @ @ @ @ @ @ @ @ @ @ ",
"L M E @ @ @ @ @ @ @ @ @ @ @ @ N O P 0 @ @ @ @ @ @ @ @ @ @ @ @ @ Q R h @ @ @ @ @ @ @ @ @ @ @ @ @ q d S l T @ @ @ @ @ @ @ @ @ @ @ ",
"U V E @ @ @ @ @ @ @ @ @ @ @ @ ) O W @ @ @ @ @ @ @ @ @ @ @ @ @ @ X Y J @ @ @ @ @ @ @ @ @ @ @ @ @ q Z `  .@ @ @ @ @ @ @ @ @ @ @ @ ",
"..+.E @ @ @ @ @ @ @ @ @ @ @ @ N @.#.$.#.%.&.*.=.-.;.>.S ,.'.).!.Y ~.J @ @ @ @ @ @ @ @ @ @ @ @ @ q {.~.~.].+ ^.c /.(.].T @ @ @ @ ",
"_.:.<.@ @ @ @ @ @ @ @ @ @ @ @ [.}.).|.1.2.3.4.5.6.7.8.9.0.a.b.#.c.~.d.@ @ @ @ @ @ @ @ @ @ @ @ @ e.Z f.g.8 h.i.j.j.j.i.j.k.l.m.,.",
"R ).^.@ @ @ @ @ @ @ @ @ @ @ @ n.@.o.z p.q.r.r.r.s.t.u.@ @ @ @ @ v.Y J @ @ @ @ @ @ @ @ @ @ @ @ @ _ Z ~.R w.x.y.z.A.B.C.D.E.J h F.",
"G.H.- @ @ @ @ @ @ @ @ @ @ @ @ I.J.x K.@ @ @ @ @ @ @ @ @ @ @ @ @ L._.J @ @ @ @ @ @ @ @ @ @ @ @ @ _ M.N.- O.P.f Q.Z R.R.Z S.I.C T.",
"U.V.- @ @ @ @ @ @ @ @ @ @ @ @ j W.^ /.@ @ @ @ @ @ @ @ @ @ @ @ @ A R h @ @ @ @ @ @ @ @ @ @ @ @ @ @ M.X.h @ @ @ @ @ @ @ @ @ @ @ @ ",
"Y.Z.E @ @ @ @ @ @ @ @ @ @ @ @ r `.%  +@ @ @ @ @ @ @ @ @ @ @ @ @ M.R J @ @ @ @ @ @ @ @ @ @ @ @ @ @ R.m.J @ @ @ @ @ @ @ @ @ @ @ @ ",
".+++E @ @ @ @ @ @ @ @ @ @ @ @ S.@+^ - @ @ @ @ @ @ @ @ @ @ @ @ @ #+Y E.@ @ @ @ @ @ @ @ @ @ @ @ @ @ { -.F.@ @ @ @ @ @ @ @ @ @ @ @ ",
"p.$+E @ @ @ @ @ @ @ @ @ @ @ @ A %+^  +@ @ @ @ @ @ @ @ @ @ @ @ q &+*+J @ @ @ @ @ @ @ @ @ @ @ @ @ @ Z k =+@ @ @ @ @ @ @ @ @ @ @ @ ",
"p.-+- @ @ @ @ @ @ @ @ @ @ @ @ S.;+^ >+@ @ @ @ @ @ @ @ @ @ @ @ ,+'+)+J @ @ @ @ @ @ @ @ @ @ @ @ @ @ {.!+R @ @ @ @ @ @ @ @ @ @ @ @ ",
"p.-+E @ @ @ @ @ @ @ @ @ @ @ @ {.~+{+]+@ @ @ @ @ @ @ @ @ @ @ @ ,+'+^+J @ @ @ @ @ @ @ @ @ @ @ @ @ @ : 8 _.@ @ @ @ @ @ @ @ @ @ @ @ ",
"/+$+<.@ @ @ @ @ @ @ @ @ @ @ @ d (+^ _+@ @ @ @ @ @ @ @ @ @ @ @ z '+:+h @ @ @ @ @ @ @ @ @ @ @ @ @ @ d <+[+@ @ @ @ @ @ @ @ @ @ @ @ ",
"}+$+E @ @ @ @ @ @ @ @ @ @ @ @ |+1+^ >+@ @ @ @ @ @ @ @ @ @ @ @ G.'+2+J @ @ @ @ @ @ @ @ @ @ @ @ @ @ S.<+$.@ @ @ @ @ @ @ @ @ @ @ @ ",
"p.3+E @ @ @ @ @ @ @ @ @ @ @ @ d 4+% - @ @ @ @ @ @ @ @ @ @ @ @ 5+'+6+J @ @ @ @ @ @ @ @ @ @ @ @ @ @ S.7+'.@ @ @ @ @ @ @ @ @ @ @ @ ",
"T.3+- @ @ @ @ @ @ @ @ @ @ @ @ A 8+^ 9+@ @ @ @ @ @ @ @ @ @ @ @ z '+0+a+@ @ @ @ @ @ @ @ @ @ @ @ @ @ r b+~.@ @ @ @ @ @ @ @ @ @ @ @ ",
"c+$+- @ @ @ @ @ @ @ @ @ @ @ @ d+e+^ _+@ @ @ @ @ @ @ @ @ @ @ @ ,+'+f+g+@ @ @ @ @ @ @ @ @ @ @ @ @ @ h+i+'.@ @ @ @ @ @ @ @ @ @ @ @ ",
"s.$+- @ @ @ @ @ @ @ @ @ @ @ @ j j+^ 9+@ @ @ @ @ @ @ @ @ @ @ @ q '+k+l+@ @ @ @ @ @ @ @ @ @ @ @ @ @ f m+n+@ @ @ @ @ @ @ @ @ @ @ @ ",
"T.$+- @ @ @ @ @ @ @ @ @ @ @ @ n.o+^ + @ @ @ @ @ @ @ @ @ @ @ @ p+q+r+J @ @ @ @ @ @ @ @ @ @ @ @ @ @ N s+` @ @ @ @ @ @ @ @ @ @ @ @ ",
"s.t+- @ @ @ @ @ @ @ @ @ @ @ @ f u+^ /.@ @ @ @ @ @ @ @ @ @ @ @ e.'+f+J @ @ @ @ @ @ @ @ @ @ @ @ @ @ Q v+` @ @ @ @ @ @ @ @ @ @ @ @ ",
"}+w+- @ @ @ @ @ @ @ @ @ @ @ @ * x+^ /.@ @ @ @ @ @ @ @ @ @ @ @ _ y+z+J @ @ @ @ @ @ @ @ @ @ @ @ @ @ v.A+B+@ @ @ @ @ @ @ @ @ @ @ @ ",
"T.C+- @ @ @ @ @ @ @ @ @ @ @ @ D+E+^ F+@ @ @ @ @ @ @ @ @ @ @ @ @ q+G+J @ @ @ @ @ @ @ @ @ @ @ @ @ @ i H+I+@ @ @ @ @ @ @ @ @ @ @ @ ",
"q.C+- T J+T T T T T T ' K+T T L+M+^ 0 @ @ @ @ @ @ @ @ @ @ @ @ @ N+O+P+< M+Q+R+S+T+v+Q+!+*.< >.U+g.~.H+V+@ @ @ @ @ @ @ @ @ @ @ @ ",
"W+X+>.Y+Z+`+j. @h..@v+k K +@@@#.l.^ ].@ @ @ @ @ @ @ @ @ @ @ @ @ #@$@Y %@&@*@=@-@;@>@,@'@)@!@~@{@g+]@<+^@@ @ @ @ @ @ @ @ @ @ @ @ ",
"q.3+/@(@_@:@<@[@}@|@1@2@3@4@=+5@M+% K.@ @ @ @ @ @ @ @ @ @ @ @ @ N+Y J @ 6@t.}+7@t.Y.8@..U...U.9@_ 0@!+^@@ @ @ @ @ @ @ @ @ @ @ @ ",
"s.a@E b@U.t.t..+c@8@d@u.e.@ @ v.e@f@K+@ @ @ @ @ @ @ @ @ @ @ @ @ g@_.J @ @ @ @ @ @ @ @ @ @ @ @ @ @ L 8 h@@ @ @ @ @ @ @ @ @ @ @ @ ",
"}+-+- @ @ @ @ @ @ @ @ @ @ @ @ i@8 % ' @ @ @ @ @ @ @ @ @ @ @ @ j@N+_.k@@ @ @ @ @ @ @ @ @ @ @ @ @ @ l@k m@@ @ @ @ @ @ @ @ @ @ @ @ ",
"c@3+E @ @ @ @ @ @ @ @ @ @ @ p+* !+n@@ @ @ @ @ @ @ @ @ @ @ @ @ z g@_.J @ @ @ @ @ @ @ @ @ @ @ @ @ @ o@m.B+@ @ @ @ @ @ @ @ @ @ @ @ ",
"U.p@^.@ @ @ @ @ @ @ @ @ @ @ @ h+q@ .@ @ @ @ @ @ @ @ @ @ @ @ @ G.N+_.J @ @ @ @ @ @ @ @ @ @ @ @ @ @ S.> r@@ @ @ @ @ @ @ @ @ @ @ @ ",
"G.++E @ @ @ @ @ @ @ @ @ @ @ @ Q.s@t@@ @ @ @ @ @ @ @ @ @ @ @ @ 5+#+_.F.@ @ @ @ @ @ @ @ @ @ @ @ @ u@{.X.r@@ @ @ @ @ @ @ @ @ @ @ @ ",
"X $+E @ @ @ @ @ @ @ @ @ @ @ @ : m.v@@ @ @ @ @ @ @ @ @ @ @ @ @ 6@w@x@J @ @ @ @ @ @ @ @ @ @ @ @ @ q Z +@^@@ @ @ @ @ @ @ @ @ @ @ @ ",
"X C+9+@ @ @ @ @ @ @ @ @ @ @ @ S.b.y@@ @ @ @ @ @ @ @ @ @ @ @ @ _ M.Y J @ @ @ @ @ @ @ @ @ @ @ @ @ z Z V+B+@ @ @ @ @ @ @ @ @ @ @ @ ",
"U.z@c @ @ @ @ @ @ @ @ @ @ @ @ S.X.A@@ @ @ @ @ @ @ @ @ @ @ @ @ p+B@_.E.@ @ @ @ @ @ @ @ @ @ @ @ @ X M.N.I+@ @ @ @ @ @ @ @ @ @ @ @ ",
"U.C@E @ @ @ @ @ @ @ @ @ @ @ @ Z h@D@@ @ @ @ @ @ @ @ @ @ @ @ @ @ M._.E.@ @ @ @ @ @ @ @ @ @ @ @ @ G.M.E@I+@ @ @ @ @ @ @ @ @ @ @ @ ",
"O.F@E @ @ @ @ @ @ @ @ @ @ @ @ {.G@~.@ @ @ @ @ @ @ @ @ @ @ @ @ @ |+Y J @ @ @ @ @ @ @ @ @ @ @ @ @ 8@B@H@I@@ @ @ @ @ @ @ @ @ @ @ @ ",
"z J@- @ @ @ @ @ @ @ @ @ @ @ @ d K@D@@ @ @ @ @ @ @ @ @ @ @ @ @ @ h+Y J @ @ @ @ @ @ @ @ @ @ @ @ @ t.g@L@n+@ @ @ @ @ @ @ @ @ @ @ @ ",
"p+M@E @ @ @ @ @ @ @ @ @ @ @ @ r N@O@@ @ @ @ @ @ @ @ @ @ @ @ @ @ L Y J @ @ @ @ @ @ @ @ @ @ @ @ @ t.g@~.D@@ @ @ @ @ @ @ @ @ @ @ @ ",
"~.g.M@@ @ @ @ @ @ @ @ @ @ @ @ r P@l+G k@Q@R@S@T@S@U@V@W@X@>+(.} Y@Y d.@ @ @ @ @ @ @ @ @ @ @ @ @ t.Z@~.,.`@O@#.v@<  #E+-.< .#B+,.",
">.B+E @ @ @ @ @ @ @ @ @ @ @ @ S.+#g.&.@#S+##`+i.i.`+k.## @$#%#m.|.g.`@@ @ @ @ @ @ @ @ @ @ @ @ @ .+q+H@>.K &#*#=#-#;#>#Q+M+k m.< ",
"' `@^.@ @ @ @ @ @ @ @ @ @ @ @ d ,#_.E '#)#!#~#{#]#^#!#/#(#_#:#<#[#O@6 @ @ @ @ @ @ @ @ @ @ @ @ @ /+y+~.}#J+|#1#2#3#4#5#6#7#8#9#0#",
"@ 6 E @ @ @ @ @ @ @ @ @ @ @ @ {.,#o.@ @ @ _ z U.G.G._ @ @ @ @ @ r.I 6 @ @ @ @ @ @ @ @ @ @ @ @ @ /+y+~.a#} @ @ @ @ @ @ @ @ @ @ @ ",
"@ b#E @ @ @ @ @ @ @ @ @ @ @ @ R.c#d#@ @ @ @ @ @ @ @ @ @ @ @ @ @ ) F.`@@ @ @ @ @ @ @ @ @ @ @ @ @ .+e#'.f#G @ @ @ @ @ @ @ @ @ @ @ ",
"@ M E @ @ @ @ @ @ @ @ @ @ @ @ R.g#n@K.@ @ @ @ @ @ @ @ @ @ @ @ @ h#!.h @ @ @ @ @ @ @ @ @ @ @ @ @ .+y+` f#/.@ @ @ @ @ @ @ @ @ @ @ ",
"@ i#E @ @ @ @ @ @ @ @ @ @ @ @ Z j#a#].@ @ @ @ @ @ @ @ @ @ @ @ @ j k#`@@ @ @ @ @ @ @ @ @ @ @ @ @ 8@y+|.l#+ @ @ @ @ @ @ @ @ @ @ @ ",
"@ v - @ @ @ @ @ @ @ @ @ @ @ @ M.m#^ F+@ @ @ @ @ @ @ @ @ @ @ @ @ r G+h @ @ @ @ @ @ @ @ @ @ @ @ @ X y+|.l# +@ @ @ @ @ @ @ @ @ @ @ ",
"@ n#c @ @ @ @ @ @ @ @ @ @ @ @ M.o#^ G @ @ @ @ @ @ @ @ @ @ @ @ @ A p#6 @ @ @ @ @ @ @ @ @ @ @ @ @ u.#+N.l#+ @ @ @ @ @ @ @ @ @ @ @ ",
"p+q#E @ @ @ @ @ @ @ @ @ @ @ @ r#s#a#t#@ @ @ @ @ @ @ @ @ @ @ @ @ {.A.6 @ @ @ @ @ @ @ @ @ @ @ @ @ G.y+h@u#G @ @ @ @ @ @ @ @ @ @ @ ",
"q v#E @ @ @ @ @ @ @ @ @ @ @ @ M.w#a#+ @ @ @ @ @ @ @ @ @ @ @ @ @ {.x#6 @ @ @ @ @ @ @ @ @ @ @ @ @ y#y+|.u#G @ @ @ @ @ @ @ @ @ @ @ ",
"5+z#E @ @ @ @ @ @ @ @ @ @ @ @ r#A#[ c @ @ @ @ @ @ @ @ @ @ @ @ @ Z B#>+@ @ @ @ @ @ @ @ @ @ @ @ @ u@w@U+l#].@ @ @ @ @ @ @ @ @ @ @ ",
"..C#E @ @ @ @ @ @ @ @ @ @ @ @ B@D#{+>+@ @ @ @ @ @ @ @ @ @ @ @ @ Z E#6 @ @ @ @ @ @ @ @ @ @ @ @ @ _ y+#.f#K.@ @ @ @ @ @ @ @ @ @ @ ",
"t.F#E @ @ @ @ @ @ @ @ @ @ @ @ G#1.^ / @ @ @ @ @ @ @ @ @ @ @ @ @ R.H#h @ @ @ @ @ @ @ @ @ @ @ @ @ @ I#|.J#T @ @ @ @ @ @ @ @ @ @ @ ",
"K#C+9+@ @ @ @ @ @ @ @ @ @ @ @ B@L#^ / @ @ @ @ @ @ @ @ @ @ @ @ @ { M#`@@ @ @ @ @ @ @ @ @ @ @ @ @ @ g@|.N#@ @ @ @ @ @ @ @ @ @ @ @ ",
"v.C+- @ @ @ @ @ @ @ @ @ @ @ @ G#O#^ >+@ @ @ @ @ @ @ @ @ @ @ @ @ {.P#6 @ @ @ @ @ @ @ @ @ @ @ @ @ @ Q#B+N#@ @ @ @ @ @ @ @ @ @ @ @ ",
"r.z#9+@ @ @ @ @ @ @ @ @ @ @ @ B@R#^ / @ @ @ @ @ @ @ @ @ @ @ @ @ d S#- @ @ @ @ @ @ @ @ @ @ @ @ @ @ R.N.T#@ @ @ @ @ @ @ @ @ @ @ @ ",
"U#z#9+@ @ @ @ @ @ @ @ @ @ @ @ B@V#[ & @ @ @ @ @ @ @ @ @ @ @ @ @ W#H#6 @ @ @ @ @ @ @ @ @ @ @ @ @ @ R.+@X#@ @ @ @ @ @ @ @ @ @ @ @ ",
"C z@E @ @ @ @ @ @ @ @ @ @ @ @ M.Y#[ Z#@ @ @ @ @ @ @ @ @ @ @ @ @ d+`#6 @ @ @ @ @ @ @ @ @ @ @ @ @ @ 4#>  $' @ @ @ @ @ @ @ @ @ @ @ ",
"i@.$- @ @ @ @ @ @ @ @ @ @ @ @ r#+$[ @$@ @ @ @ @ @ @ @ @ @ @ @ @ h+#$`@@ @ @ @ @ @ @ @ @ @ @ @ @ @ ; =.J#T @ @ @ @ @ @ @ @ @ @ @ "};
