/* XPM */
static char *dummy[]={
"64 64 10 1",
"a c #644d48",
"e c #67514d",
"c c #694549",
"# c #6c4a4e",
"f c #6d4948",
"b c #6f4d53",
"d c #704d4d",
". c #715157",
"h c #725152",
"g c #754a58",
"..............#....................................a............",
"bbbbbbbbbbbbbb#bbbbbbbbbbbbbbbbbbbbbbbbbbbbbbbbbbbbcbbbbbbbbbbbb",
"dddddddddddddddb##bbbbbbbbbbbbbbbbbbbbbbbbbbbbbbbbbbbbbbaedddddd",
"................ee......................................f.......",
"................ee......................................f.......",
"................ee......................................f.......",
"................ee......................................f.......",
"................ee......................................f.......",
"dddddddddddddddb##bdddddddddddddddddddddddddddddddddddddaedddddd",
"bbbbbfdbbbbbbbbbbbbbbbbbbbbbbbbbbbbb##bbbbbbbbbbbbbbbbbbbbbbbbbb",
".....#b.............................#b..........................",
".....#b.............................#b..........................",
".....#b.............................#b..........................",
".....#b.............................#b..........................",
"bbbbbfebbbbbbbbbbbbbbbbbbbbbbbbbbbbb##bbbbbbbbbbbbbbbbbbbbbbbbbb",
"bbbbbbbbbbbbbbbbbbbbbbbbe#bbbbbbbbbbbbbbbbbbbbbbbe#bbbbbbbbbbbbb",
"........................b#.......................be.............",
"........................b#.......................be.............",
"........................b#.......................be.............",
"........................b#.......................be.............",
"##########################bbbbbbbbbbbbbbbbbdeeeee#a#############",
".............#b............................be...................",
".............#.............................bd...................",
".............#.............................bd...................",
".............#.............................bd...................",
".............#.............................bd...................",
"#############f#############################ff###################",
"......g#..................................#b....................",
".......#..................................#b....................",
".......#..................................#b....................",
".......#..................................#b....................",
"......g#..................................#b....................",
"#########################f#####################################f",
"b........................#b....................................#",
"b........................#b....................................#",
"b........................#b....................................#",
"b........................#b....................................#",
"b........................#b....................................#",
"##############f##########af#######################f############f",
".............e#...................................de............",
".............ee...................................be............",
".............ee...................................be............",
".............ee...................................be............",
".............ee...................................be............",
"bbbbbbbbbbbbb##bbbbbbbbbbbbbbbbbbbbbbbbbbbbbbbbbbb##bbbbbbbbbbbb",
"fffffffaa#################################fc#######fffffffffffff",
".......be.................................b#....................",
".......be.................................b#....................",
".......be.................................b#....................",
".......be.................................b#....................",
".......be.................................b#....................",
"#######fa#################################fa####################",
"fbbbbbbbbbbbbbbbbbbbbbbbbbbbbbbbbbb#cbbbbbbbbbbbbbbbbbbbbbbbbbbb",
"#..................................ba...........................",
"#..................................ba...........................",
"#..................................ba...........................",
"#..................................ba...........................",
"#..................................da...........................",
"caaaaaaaaaaaaacaaaaaaaaaaaaaaaaaaaacc###########################",
".............b#...................................bch...........",
"..............#....................................a............",
"..............#....................................a............",
"..............#....................................a............",
"..............#....................................a............"};
