/* XPM */
static char *dummy[]={
"64 64 508 2",
".v c #000000",
"dv c #002100",
"fi c #002a16",
"fl c #153013",
".t c #161519",
".w c #1c1500",
"c3 c #1c372e",
".m c #222126",
"fP c #263611",
".B c #272117",
".C c #2b0002",
"cV c #2b2a30",
".U c #2f2925",
"#u c #322915",
"dS c #323138",
".u c #33001a",
".n c #35312f",
"d2 c #354644",
".W c #383023",
"e# c #38373f",
".D c #391527",
"bX c #3b3012",
".V c #3b3737",
"eT c #3b4534",
"ea c #3c1518",
".o c #3e2130",
"#h c #3e362e",
"bu c #3e3c45",
"#Q c #403622",
"eS c #40451e",
"dF c #404e4e",
"ak c #412126",
"by c #413c3e",
"#n c #433c36",
"dD c #43414a",
".I c #453c2c",
"bh c #454144",
"eK c #45492a",
".y c #46292f",
".4 c #473c20",
"el c #482924",
"e. c #48313f",
".p c #4a3037",
"bx c #4a4135",
"bZ c #4a4649",
"ef c #4c302e",
"bO c #4c412b",
"bM c #4c4543",
"cN c #4c5552",
".q c #4e373e",
"bD c #4e453c",
"cb c #4e4a4e",
"fI c #4e554d",
"dL c #503736",
"e4 c #504534",
"bv c #504a49",
"#1 c #52362d",
".l c #523c44",
"c4 c #52452a",
"aH c #524a42",
"dl c #524e53",
"dc c #525c60",
".X c #543c3d",
"eM c #54493b",
"ca c #544e4e",
"fR c #554933",
"dN c #555f63",
".1 c #563c35",
"a1 c #56414a",
"bY c #564e48",
"d4 c #565258",
"dJ c #573c2c",
"bp c #574929",
"fh c #574d42",
"d7 c #58292f",
".E c #584143",
".F c #59413c",
"fm c #594d3a",
"dp c #595f5b",
".2 c #5b4134",
".r c #5b4549",
".H c #5b4d32",
"bg c #5b5147",
"df c #5b5557",
"fo c #5c5141",
"fD c #5c5552",
"cf c #5c625f",
"#o c #5d3745",
"bw c #5d4543",
"cA c #5e4a4e",
"dg c #5e5139",
"cL c #5e585b",
"eU c #5e5e4b",
"#N c #5f5131",
"aL c #604a48",
"d1 c #605547",
"dQ c #60676e",
"#0 c #614942",
".T c #615540",
"fK c #615851",
".x c #623c44",
".i c #634e4d",
"fr c #635439",
"dj c #635f67",
".a c #644d48",
"#M c #645430",
"d0 c #646a6d",
"d8 c #653b35",
"aI c #654149",
"fW c #65583f",
"al c #664d41",
"dk c #665b51",
".e c #67514d",
"e5 c #675838",
"#m c #675b4b",
"cs c #68454e",
"c9 c #68582f",
".c c #694549",
"#t c #695147",
".j c #695557",
"dw c #69656e",
".k c #6a4a53",
"fj c #6a5552",
"dV c #6a6f74",
"cC c #6b5b37",
"fd c #6b5e4b",
"dX c #6c453b",
".# c #6c4a4e",
"#R c #6c554c",
"d3 c #6c6771",
"eF c #6c6a54",
"dZ c #6d3635",
".f c #6d4948",
".s c #6d4e58",
"#j c #6d5446",
"fw c #6d6462",
".3 c #6e5e3e",
"fg c #6e6150",
"c8 c #6e676a",
".b c #6f4d53",
"#S c #6f584c",
"cy c #6f5e36",
"fu c #6f614a",
".d c #704d4d",
"eV c #706c53",
"Qt c #715157",
"fN c #715b56",
"eo c #716454",
"cz c #725152",
"aU c #725b51",
"bI c #72613d",
"fq c #736f57",
".h c #74555b",
"ff c #746754",
"b1 c #747676",
".g c #755557",
"bF c #75643c",
".Y c #764953",
"cH c #765b3e",
"bQ c #766a5d",
"et c #77453b",
".z c #774e5c",
"fk c #77585b",
".S c #776749",
"eG c #776958",
"eO c #777157",
"a0 c #786155",
"eN c #786953",
"b5 c #786f6c",
"dd c #787480",
"do c #787875",
".Z c #794d57",
"bl c #79663b",
"ep c #79694e",
"eH c #7a6c58",
"aE c #7b6459",
"cR c #7b6942",
"bU c #7b6f60",
"aM c #7d644f",
"ev c #7d6f5c",
"c5 c #7d7d7b",
".A c #7e6758",
"fe c #7e6e57",
"dT c #7e8189",
"cS c #7f6443",
"c1 c #7f6c41",
"fc c #7f6e52",
"ci c #7f7f7e",
"dK c #805140",
"#W c #80695c",
"eu c #80715b",
"am c #816159",
"#g c #817855",
"#i c #82585a",
"ds c #826c60",
"fT c #826e40",
"fn c #82735f",
"dU c #82858e",
"bL c #83735b",
"cj c #846f64",
"bV c #847146",
"bB c #856941",
"b6 c #856f60",
".R c #857351",
"fp c #85765f",
"co c #858586",
"dG c #858790",
"bt c #86765a",
"fE c #867867",
"d. c #86878e",
"en c #875e5e",
"dR c #87675d",
"#2 c #877345",
"dP c #878993",
"eg c #886b40",
"#s c #887164",
"e0 c #887550",
".L c #88785e",
"fO c #89754b",
"du c #8a7363",
"bC c #8a7544",
"eW c #8b7a5e",
"dO c #8b8d97",
"bT c #8c774a",
"#k c #8d7667",
"#L c #8d7744",
".G c #8e6c52",
".Q c #8e7c5d",
"c0 c #8e8d8d",
"f1 c #907e61",
"c# c #90806d",
"dm c #909099",
"aK c #917a6a",
"fb c #917e5d",
"bR c #92754a",
"#p c #928370",
"f3 c #928664",
"fz c #948c7c",
"eh c #95774a",
"aR c #96804d",
"fQ c #96825c",
"e1 c #968260",
"cd c #977a4f",
"fA c #978257",
"c. c #978673",
"b2 c #979b9a",
"cw c #989698",
"bq c #997c4e",
"fL c #99824d",
"dt c #9a8270",
".M c #9a8663",
"dr c #9a999f",
"cp c #9b8451",
"b4 c #9b9e9c",
"br c #9c7e4d",
"aj c #9c844c",
".P c #9c8867",
"da c #9c999a",
"cO c #9d8651",
"eI c #9d885f",
"au c #9e8672",
"#Z c #9e8676",
"be c #9f8879",
"dH c #9fa4aa",
"ei c #a0634d",
"b. c #a08252",
"#O c #a08850",
"cT c #a0a2a2",
"cX c #a18a55",
"eP c #a18c62",
"bG c #a28451",
".0 c #a2927d",
"cZ c #a2a4a4",
"fM c #a38c59",
"dx c #a3a1a9",
"aZ c #a48c78",
".N c #a48f6d",
"ew c #a58f65",
"aQ c #a68d54",
"aV c #a68e7b",
"aX c #a69580",
"#f c #a79872",
"fa c #a88c66",
"f2 c #a88f58",
"bA c #a98a55",
".O c #a9936c",
"cY c #a9abaf",
"cv c #aa9158",
"bf c #aa917d",
"ar c #aa9882",
"bc c #ab9380",
"ck c #ac8d58",
"bz c #ac8f65",
"dE c #ad9583",
"fG c #ae945b",
"ft c #ae9667",
"cr c #af8f58",
"b0 c #af9663",
"aq c #af9782",
"ct c #afb0b1",
"cB c #b0965b",
"e2 c #b09867",
"fH c #b09f8f",
"eC c #b19157",
"#X c #b19f89",
"b3 c #b1b1b1",
"d5 c #b26b5a",
"eZ c #b29967",
"dC c #b2b4ba",
"cP c #b3b2b2",
"a8 c #b4945b",
"bi c #b49667",
"eX c #b49b6a",
"ey c #b6965a",
"aF c #b79f89",
"bN c #b8996a",
"bK c #b89c5d",
"fx c #b8a695",
"dM c #b96e62",
"#T c #b9a08c",
"#l c #b9a690",
"fZ c #ba9b6a",
"dz c #bab9b9",
"bo c #bba061",
"aJ c #bba890",
"dA c #bbbabc",
"bE c #bc9b5d",
"a2 c #bd9d65",
"a5 c #bda160",
"f# c #bda36c",
"bd c #bda992",
"bb c #be9e69",
"aY c #beab94",
"c2 c #bebec5",
"bJ c #bf9e61",
".K c #bfa676",
"cl c #c0a463",
"#V c #c0ac94",
"#v c #c1a060",
"aD c #c1a16c",
"an c #c1a892",
"de c #c1c5c9",
"cc c #c2a164",
"b9 c #c2a663",
"fX c #c2a76e",
"eE c #c37365",
"b7 c #c3af96",
"ez c #c4a767",
"e3 c #c4a971",
"aW c #c4ab94",
"fU c #c4ad89",
"fy c #c4b09b",
"eb c #c56e62",
"eB c #c5a966",
"aG c #c5b098",
"cg c #c5c3c4",
"ao c #c6b29a",
"fF c #c7baa9",
"c6 c #c7c9c8",
"dY c #c87265",
"at c #c8af98",
"#q c #c8b39a",
"bn c #c9ab65",
"#r c #c9b49c",
"eQ c #caa96e",
"bP c #cab098",
"#e c #cab188",
"db c #caccd0",
"fV c #cbad65",
"ap c #cbb29a",
"as c #cbb69c",
"fY c #ccb073",
"fC c #cdaa65",
"#Y c #cdb39c",
"cQ c #ceb068",
"c7 c #cecfce",
"ek c #cf7568",
"eJ c #cfad70",
"eY c #cfb16f",
"#U c #cfb6a0",
"cI c #cfd0d0",
"dW c #d0776c",
"cK c #d0ad69",
"f. c #d0ae70",
"cx c #d1ae6c",
"e9 c #d1b472",
"av c #d3ab6c",
"a6 c #d3af6b",
"b8 c #d3b46a",
"cn c #d4d4d4",
"dI c #d4d5d8",
"dh c #d5d5d5",
"em c #d67972",
"fJ c #d7b76d",
"ex c #d8b575",
"e8 c #d9b674",
"e7 c #d9ba73",
"fv c #dab671",
"cE c #dad9da",
"cm c #dbb66d",
"e6 c #dbb774",
"eA c #dcb770",
"dB c #dcdcdf",
"ba c #ddb970",
"f0 c #ddc399",
"#K c #deba73",
"a4 c #dfba70",
"az c #e0bb73",
"cG c #e1e0df",
"a9 c #e2bc72",
"cD c #e2e5e5",
"bs c #e3be72",
"eR c #e3be75",
".5 c #e3bf7c",
"ee c #e48573",
"#3 c #e4bf75",
"fs c #e4bf78",
"aN c #e4c374",
"eL c #e5b773",
"#P c #e5bd79",
"di c #e5e4e7",
"b# c #e6c075",
"cM c #e6e7e7",
"bH c #e7c174",
"bW c #e7c178",
"#d c #e7cb9e",
"d9 c #e88576",
"aT c #e8c377",
"aA c #e9c374",
"fB c #e9c47a",
"dq c #e9eaec",
"es c #ea8177",
"ed c #ea8776",
"eD c #eaa777",
"aB c #eac473",
"#5 c #eac477",
"fS c #eac87c",
".J c #eaca88",
"dn c #eaebec",
"#6 c #ebc576",
"#7 c #ebc57a",
"a. c #ebc680",
"ax c #ecc679",
"aC c #ecc67d",
"#9 c #ecc782",
"aS c #ecca78",
"a# c #eccb84",
"ay c #edc377",
"#x c #edc676",
"#8 c #edc77f",
"ab c #edcd8c",
"ej c #ee8779",
"aO c #eec779",
".7 c #eed5a5",
"cJ c #eeeeee",
"d# c #eeeff1",
"a3 c #efc879",
"ah c #efc87c",
"aa c #efcb8a",
"eq c #efcc7b",
"#y c #efce8c",
"ac c #efcf93",
"f4 c #efd3a5",
"ec c #f08b7c",
"er c #f0b67a",
"aP c #f0ca7b",
"ad c #f0d29a",
"#4 c #f1c978",
"ag c #f1d39c",
"cu c #f1f1f2",
"#w c #f2cb7b",
"ae c #f2d49e",
"#z c #f2d8a4",
"a7 c #f3c87c",
"ai c #f3cc7b",
"#c c #f3d6a7",
"#D c #f3d9a8",
"bk c #f4cd7e",
"af c #f4d6a5",
"#B c #f4d7a9",
"bm c #f5ce7d",
"#C c #f5d7a7",
"#E c #f5d8ab",
".8 c #f5dbaa",
"bj c #f6cb7b",
"#F c #f6d9aa",
"cF c #f6f9f8",
"d6 c #f78f7e",
"aw c #f7cf7d",
"#A c #f7d9a8",
"#G c #f7daac",
"cW c #f8d07d",
".6 c #f9d99f",
"#b c #f9dbaa",
".9 c #fadcae",
"#H c #fbddae",
"bS c #fcd37f",
"#J c #fcdca3",
"dy c #fcfbfa",
"ce c #fdd581",
"## c #fddfaf",
"#a c #fedfad",
"#I c #fee0b1",
"cq c #ffd781",
"f5 c #ffe0a7",
"#. c #ffe0af",
"cU c #fffdfe",
"ch c #ffffff",
"QtQtQtQtQtQtQtQtQtQtQtQtQtQt.#QtQtQtQtQtQtQtQtQtQtQtQtQtQtQtQtQtQtQtQtQtQtQtQtQtQtQtQtQtQtQtQtQtQtQtQt.aQtQtQtQtQtQtQtQtQtQtQtQt",
".b.b.b.b.b.b.b.b.b.b.b.b.b.b.#.b.b.b.b.b.b.b.b.b.b.b.b.b.b.b.b.b.b.b.b.b.b.b.b.b.b.b.b.b.b.b.b.b.b.b.b.c.b.b.b.b.b.b.b.b.b.b.b.b",
".d.d.d.d.d.d.d.d.d.d.d.d.d.d.d.b.#.#.b.b.b.b.b.b.b.b.b.b.b.b.b.b.b.b.b.b.b.b.b.b.b.b.b.b.b.b.b.b.b.b.b.b.b.b.b.b.a.e.d.d.d.d.d.d",
"QtQtQtQtQtQtQtQtQtQtQtQtQtQtQtQt.e.eQtQtQtQtQtQtQtQtQtQtQtQtQtQtQtQtQtQtQtQtQtQtQtQtQtQtQtQtQtQtQtQtQtQtQtQtQtQt.fQtQtQtQtQtQtQt",
"QtQtQtQtQtQtQtQtQtQtQtQtQtQtQtQt.e.eQtQtQtQtQtQtQtQtQtQtQtQtQtQtQtQtQtQtQtQtQtQtQtQtQtQtQtQtQtQtQtQtQtQtQtQtQtQt.fQtQtQtQtQtQtQt",
"QtQtQtQtQtQtQtQtQtQtQtQtQtQtQtQt.e.eQtQtQtQtQtQtQt.g.h.h.h.h.h.h.h.h.h.h.gQtQtQtQtQtQtQtQtQtQtQtQtQt.gQtQt.g.i.i.#QtQtQtQtQtQtQt",
"QtQtQtQtQtQtQtQtQt.hQt.i.j.hQtQt.e.eQtQt.gQt.k.iQt.l.m.m.n.n.o.n.n.p.p.q.r.#.sQt.h.h.h.gQtQtQtQtQt.h.l.t.t.u.v.w.x.h.gQtQtQtQtQt",
"QtQtQtQtQtQtQt.h.i.p.t.v.t.yQt.z.e.bQt.s.r.k.t.w.A.B.v.v.v.v.v.v.v.v.v.v.v.v.C.t.D.y.q.r.k.hQtQt.h.E.v.v.v.v.v.v.w.n.xQt.hQtQtQt",
".d.d.d.d.d.b.#.y.v.v.v.w.v.v.m.b.d.F.k.u.v.G.H.I.J.K.L.M.N.O.P.Q.R.S.T.I.U.t.v.v.v.v.v.v.C.V.b.b.c.w.v.w.W.D.t.v.v.v.v.t.X.Y.d.d",
".b.b.b.b.Z.F.t.v.v.p.0.0.1.t.v.p.D.v.2.3.4.5.6.7.8.9#.#####a###.#.#.#a#b#c#d#e#f#g.H.t.v.v.v#h#i.U.v.v.F#j#k#l#m.D.v.v.v.v#nQt.b",
"QtQtQt.h#o.v.v.B#p#q#r#s#t#t.t.v.v#u#v#w#x#y#z#A#B#C#C#C#C#B#C#C#B#D#E#F#F#G#H###I#J#K#L#M#N#O#P#Q.v.U#R#t#S#T#U#V#W.t.v.v.C.s.Z",
"QtQt.h.l.v.v#h#X#Y#q#Z.a#t#j#0#1#2#3#4#5#6#5#7#8#9#8a.#8#8#9#8#8#9a#aaabacadaeaf#cagahaiaiai#4aiajakal#t#talamanaoapaq#n.v.v.y.h",
"Qt.h.o.v.v.varasatau#t#t#t#t#tavawax#5#5#5#5#5#5#5#5ayazaA#5#5#5#5aBaBaBaB#5#5aCaC#6#5#5#5#5#5#5aiaD.f#t#t#t.aaEaFao#qaGaH.v.vaI",
"Qt.p.v.v.v.naJ#VaK.a#t#t#taLaMaN#6#5#5#5#5#5ax#4aO#5aPaQaR#w#5#5#5#5#5#5axaSaT#5#5#6aO#5#5#5#5#5#6aNaM.a#t#t#talaUaVaW#ran.B.v.U",
".r.v.v#haXaYaZa0al#t#t#t.ra1a2a3#5#5#5#5#6#wa4a5a6aPa7a8#uaT#6#5#5#5#5axa9b.b#axai#5baa7ax#5#5#5#5a3bbaH.a#t#t#t#t#t.Abcbd.a.v.u",
".y.v.vbebfaE.a.a#t#tbg.lbhbi#4aO#waibjbkaObl.t.v.waRbmbn.wbo#4#5#5#5#6#6bpbqai#6br.4.t#Mbsa3#4#4ax#6axbtbubvbw.a.e#t.a#t#Sbx.v.t",
".C.v.u#R.a.a#t#t.abhbybvbzbm#4a6bA#2bBbCbq.v.tbD.v.vbEa9.vbFai#5#5#5a7bG.BbHbmbI.v.v.v.vbC#3bJbKa4#waOb#bL.m.v.t.nbybyby.V.t.v.D",
".v.t#t#t#t#t.abM.m.vbDbNbkbobO.v.v.v.v.v.v.v.WbPbQ.vbpa7#ubO#w#5#5#5aPbObRbSbT.v.wbU.B.v.B.B.v.v.BbVbWbj#5bX.v.v.v.v.v.v.v.v.vaL",
".v.w.a.abYbZ.V.t.v.wb0bm#2.v.v.Vb1b2b3b4b5.t.Cb6b7.U.vb8bR.4aP#5#5#6#3#Nb#b9.v.vc.c#.v.v.Vcacb.v.v.vbXccawb9bp.v.v.v.v.C.t.maL.g",
".o.v.v.t.t.t.v.v.vcdcebC.v.v.tcfcgchchchchci.v.ncj#h.vckbWclax#5#5#5aTcm#wbp.v#nb6.t.v.tcnchco.v.v.v.v.wcpcqcr.v#n.rcs.bQt.h.gQt",
".c.B.v.v.v.v.t.t.va8b8.w.v.v.v.v.vctchchchcu.n.v.U.t.vcvaiaS#5#5#5#5#5a3ba.w.v.V.t.v.vcwchco.v.v.v.v.v.v.wcxcy.vakcz.d.#.#.#.#.#",
"QtQt.bcscA.k.h.X.vcBcC.v.v.v.v.v.v.UcDchchchcE.V.v.v#u#3ax#5#5#5#5#5ay#6#5#u.v.v.v.vbZcFcG.v.v.v.v.v.v.v.v#NcH.v.uQtQtQtQtQtQtQt",
"QtQtQt.g.gQt.h.V.vcB#u.v.v.v.v.v.v.mcIchchchchcJ.t#QcKaS#5aOaiaP#4aP#4aiai#2.v.v.vcLcMchcJctcN.v.v.v.v.v.v.B#N.v.tQtQtQtQtQtQtQt",
"QtQtQtQtQtQt.h.o.vcO.w.v.v.v.v.v.vcPchchchchchcF.mbX#4#6aicQcR.4.4.4bO#2a9awbV.vcwchchchchchcM.v.v.v.v.v.v.v#u.v.v.kQtQtQtQtQtQt",
"QtQtQtQtQtQt.h.D.vcS.v.v.v.v.v.v.v.ncTchchchchcUcV.wa4cWcX.t.v.v.m.t.v.v.Wa9#2.tcYchchcUcZc0bh.v.v.v.v.v.v.v.t.v.v.#QtQtQtQtQtQt",
"QtQtQtQtQtQt.h.m.vc1.v.v.v.v.v.v.v.vcLchchchcUc2c3.v.Wc4.w.v.tc5c6c7c8.v.vcyc9.td.d#chchbZ.v.v.v.v.v.v.v.v.v.v.v.v.#QtQtQtQtQtQt",
".#.#.#.#.#.#.d.B.vbI.v.v.v.v.v.v.v.vdachchchdbdc.v.v.v.v.v.v.v.v.v.t.v.v.v.t#u.vdddechchdf.v.v.v.v.v.v.v.v.v.v.v.vbw.#.#.#.#.#.#",
"QtQtQtQtQtQt.g.D.vdg.v.v.v.v.v.v.v.vdhchchdidj.v.v.tdk.0bw.v.v.v.v.v.v.v.v.v.v.vdldmdnchdo.v.v.v.v.v.v.v.v.v.w.v.vcAQtQtQtQtQtQt",
"QtQtQtQtQtQt.h.U.vbx.t.v.v.v.v.v.vdpchchdqdr.t.v.tdsdtdu.i.B.v.v.v.v.v.vbxc..n.vdvdwdxdydz.v.v.v.v.v.v.v.v.wc4.v.vcA.gQtQtQtQtQt",
"QtQtQtQtQtQt.g.n.v.W.U.v.v.v.v.v.vdAdBdCd.dD.v.v.F.I.W.U#ha1by.t.v.m.n.t.BdE#l.m.vdFdGdHdI.n.v.v.v.v.v.v.vdJdK.v.vcA.gQtQtQtQtQt",
"QtQtQtQtQtQt.gdL.v.BdM.v.v.v.v.tdNdOdPdQ.t.v.v.u#S#t.a.W.1.acA.m.w.rbgbx.W#RdRdL.vdSdTdUdPdV.t.v.v.v.v.v.wdWdX.v.vcs.gQtQtQtQtQt",
"QtQtQtQtQtQtQtaI.v.vdYdZ.v.v.tbhd0dQbZ.v.v.v.v.tbDdLd1#h#0#R#0.w.v#n.CdL.a.B.Xak.v.v.td2djd3d4.v.v.v.v.wd5d6d7.v.v.kQtQtQtQtQtQt",
".#.#.#.#.#.#.#.d.u.vd8d9ak.v.v.v.v.v.v.v.v#N.t.v.t.m.l.V.V.o.v.v.v.B.me.e#.v.B.v.v.W.v.v.v.v.v.v.v.veaebecedea.v.t.e.e.#.#.#.#.f",
".bQtQtQtQtQtQt.h.q.v.vdWeeef.v.v.v.v.v.wegaieh.v.v.v.v.v.v.v.v.v.v.v.t.ncV.t.v.v#2aTbl.B.v.v.w.Bc4eieeejejek.C.v.o.hQtQtQtQtQt.#",
".bQtQtQtQtQtQtQtQt.t.velemeneoepbVbB#Ocm#waxa3cX.B.v.v.v.w.w.v.v.v.v.v.v.v.vbXaQ#waxaib#cxbncmbseqeredesecet.v.v.E.gQtQtQtQtQt.#",
".bQtQtQtQtQtQtQt.hdL.v.v.n.AeuevewexbkaP#5#5ay#wa9cceyezeA.W.v.v.v.vbpeBeCbnaTa7#5#5#5axaSa3aOax#5#6eDeceE.v.v.B.ZQtQtQtQtQtQt.#",
".bQtQtQtQtQtQtQtQt.g.U.v.v.UeFeueGeHeIeJaxaO#6#5ax#4aPaPaO#u.v.v.v.veKawa7a3#6#5#5#5#5#5#5#5#5#5#5#5a3eL.W.v.vaI.gQtQtQtQtQtQt.#",
".bQtQtQtQtQtQtQtQtQtQt.U.v.v.weMeNeueHeOePeQazaOa3aO#6#6#w#N.v.v.v.vcCbj#5#5#5#5#5#5#5#5ay#6#6ax#4aieReS.v.v.X.hQtQtQtQtQtQtQt.#",
".#.#.#.#.#.#.#.#.#.#.d.def.v.v.v.teTeUeVeHeveWePeXeYeRaTbkbE.v.v.v.vbKaiaxaxaxaxaOa3a3aO#6#5bWexeZe0.U.v.C.Xcz.#.#.#.#.#.#.#.#.f",
"QtQtQtQtQtQtQtQtQtQtQtQt.haI.u.v.v.v.v.w.B.IbDd1eoeH.Le1e2e3e4.v.ve5e6e7e8e6exe9f.f#eXfafbfcdg.U.v.v.v.U.#.gQtQtQtQtQtQtQtQtQtQt",
"QtQtQtQtQtQtQtQtQtQtQtQtQt.b.b.E.U.t.v.v.v.v.v.v.w.t.B.WbxeMfdbxe4feeHfeeNeHfffgfheT#hfi.v.v.v.t.m#n.c.Y.ZQtQtQtQtQtQtQtQtQtQtQt",
"QtQtQtQtQtQtQtQtQtQtQtQtQt.e.e.h.hfj.l.nea.w.v.v.v.v.v.v.v.v.v.v.v.w.w.t.w.w.v.v.v.v.v.v.t.V.k.g.h.h.b.eQtQtQtQtQtQtQtQtQtQtQtQt",
"QtQtQtQtQtQtQtQtQtQtQtQtQt.e.eQtQtQt.h.hfk.Bflfm#h.B.v.v.v.v.v.v.v.v.v.v.v.v.v.v.v.v.v.xQt.hQtQtQtQt.b.eQtQtQtQtQtQtQtQtQtQtQtQt",
"QtQtQtQtQtQtQtQtQtQtQtQtQt.e.eQtQtQtQt.gcA.v.Wfneueue4.v.v.v.t.t.t.w.v.v.v.v.Ufoeo.W.v.l.hQtQtQtQtQt.b.eQtQtQtQtQtQtQtQtQtQtQtQt",
".b.b.b.b.b.b.b.b.b.b.b.b.b.#.#.b.b.b.bQt.q.ve4fpeGfqeveM.v.v.v.v.v.v.v.v.v.WeHbL.Mfr.v.U.Z.b.b.b.b.b.#.#.b.b.b.b.b.b.b.b.b.b.b.b",
".f.f.f.f.f.f.f.a.a.#.#.#.#.#.#.#.#.#.#.b.o.vcyfsft.Q.L.Lfu.w.v.t.t.v.v.teU.LeZfv#wc1.v.u.d.#.#.#.#.#.#.f.f.f.f.f.f.f.f.f.f.f.f.f",
"QtQtQtQtQtQtQt.b.eQtQtQtQtQtQtQtQtQtQt.h.n.vbObjaOaTb##K#Q.vfwfxfyfz.m.vfAfBaOaxbke5.v.U.hQtQtQtQtQtQtQtQtQtQtQtQtQtQtQtQtQtQtQt",
"QtQtQtQtQtQtQt.b.eQtQtQtQtQtQtQtQtQtQt.h.p.v.wa6#4ay#4fC.vfD.BfEbU#nfF.B#Qa3#6#6a3#Q.v#n.hQtQtQtQtQtQtQtQtQtQtQtQtQtQtQtQtQtQtQt",
"QtQtQtQtQtQtQt.b.eQtQtQtQtQtQtQtQtQtQtQt.u.v.v.4aTa3aPfG.v#h.v.t.t.vfHfI.w#3axaOfJ.w.v.n.hQtQtQtQtQtQtQtQtQtQtQtQtQtQtQtQtQtQtQt",
"QtQtQtQtQtQtQt.b.eQtQtQtQtQtQtQtQtQt.g.r.v.v.v.vbpazawcK.v.t.t.wbx#nfK.U#u#6#6aifL.v.v.C.bQtQtQtQtQtQtQtQtQtQtQtQtQtQtQtQtQtQtQt",
"QtQtQtQtQtQtQt.b.eQtQtQtQtQtQtQtQtQt.h.D.v#h.v.v.v.BfMahe5.v.VbMfNfN.m.vfOaiaxaxbX.v#n.v.E.hQtQtQtQtQtQtQtQtQtQtQtQtQtQtQtQtQtQt",
".#.#.#.#.#.#.#.f.a.#.#.#.#.#.#.#.#.d.c.vfPew.t.v.v.v.vbxfQ#Q.v.t.t.t.vfRfS#wbmfT.v.tfU.U.u.b.#.#.#.#.#.#.#.#.#.#.#.#.#.#.#.#.#.#",
".f.b.b.b.b.b.b.b.b.b.b.b.b.b.b.b.bcz.p.vfTfV.v.U.B.v.v.v.te4.I.t.v.wfWfXfYfZcC.v.v.vf0f1.vbwQt.b.b.b.b.b.b.b.b.b.b.b.b.b.b.b.b.b",
".#QtQtQtQtQtQtQtQtQtQtQtQtQtQtQtQt.h.m.vbnf2.v.lcs.v.t.v.v.v.t.B.w.t.B.B.U.t.v.t.X.vf3f4.t.B.gQtQtQtQtQtQtQtQtQtQtQtQtQtQtQtQtQt",
".#QtQtQtQtQtQtQtQtQtQtQtQtQtQtQtQt.b.v#QbW#N.vaI.y.veV.n.t.v.v.v.v.v.v.v.w.v.W.v.y.v.Uf5fb.v.l.hQtQtQtQtQtQtQtQtQtQtQtQtQtQtQtQt",
".#QtQtQtQtQtQtQtQtQtQtQtQtQtQtQt.h.p.v#u.B.v.m.g.t.w.W.vcs.Eak.D.U.y.qbw.f.t.t.w.t.m.vblcC.v.y.hQtQtQtQtQtQtQtQtQtQtQtQtQtQtQtQt",
".#QtQtQtQtQtQtQtQtQtQtQtQtQtQtQt.g.U.v.t.t.VQt.h.U.v.v.y.h.g.h.h.h.h.h.Y.d.D.v.v.v.r.w.v.v.v.r.gQtQtQtQtQtQtQtQtQtQtQtQtQtQtQtQt",
".#QtQtQtQtQtQtQtQtQtQtQtQtQtQtQtQt.b.iQt.g.gQtQtQt.k.b.gQtQtQtQtQtQtQt.d.fcA.o.U.l.hcA.p.n.E.gQtQtQtQtQtQtQtQtQtQtQtQtQtQtQtQtQt",
".c.a.a.a.a.a.a.a.a.a.a.a.a.a.c.a.a.f.f.f.a.a.a.a.f.f.f.a.a.a.a.a.a.a.a.c.c.d.b.b.d.#.d.b.b.d.#.#.#.#.#.#.#.#.#.#.#.#.#.#.#.#.#.#",
"QtQtQtQtQtQtQtQtQtQtQtQtQt.b.#QtQtQtQtQtQtQtQtQtQtQtQtQtQtQtQtQtQtQtQtQtQtQtQtQtQtQtQtQtQtQtQtQtQtQt.b.cczQtQtQtQtQtQtQtQtQtQtQt",
"QtQtQtQtQtQtQtQtQtQtQtQtQtQt.#QtQtQtQtQtQtQtQtQtQtQtQtQtQtQtQtQtQtQtQtQtQtQtQtQtQtQtQtQtQtQtQtQtQtQtQt.aQtQtQtQtQtQtQtQtQtQtQtQt",
"QtQtQtQtQtQtQtQtQtQtQtQtQtQt.#QtQtQtQtQtQtQtQtQtQtQtQtQtQtQtQtQtQtQtQtQtQtQtQtQtQtQtQtQtQtQtQtQtQtQtQt.aQtQtQtQtQtQtQtQtQtQtQtQt",
"QtQtQtQtQtQtQtQtQtQtQtQtQtQt.#QtQtQtQtQtQtQtQtQtQtQtQtQtQtQtQtQtQtQtQtQtQtQtQtQtQtQtQtQtQtQtQtQtQtQtQt.aQtQtQtQtQtQtQtQtQtQtQtQt",
"QtQtQtQtQtQtQtQtQtQtQtQtQtQt.#QtQtQtQtQtQtQtQtQtQtQtQtQtQtQtQtQtQtQtQtQtQtQtQtQtQtQtQtQtQtQtQtQtQtQtQt.aQtQtQtQtQtQtQtQtQtQtQtQt"};
